<svg xmlns="http://www.w3.org/2000/svg" width="45" height="72" fill="none" xmlns:v="https://vecta.io/nano"><style><![CDATA[.B{fill:#d83e63}.C{fill:#e16147}.D{fill:#f79161}.E{fill:#f79165}.F{fill:#f79260}.G{fill:#d73f64}.H{fill:#f7925f}.I{fill:#f78e5f}.J{fill:#ec7852}.K{fill:#e3593e}.L{fill:#49ab98}.M{fill:#d83d63}.N{fill:#f89b69}.O{fill:#82d4c8}.P{fill:#e56952}.Q{fill:#ef9887}.R{fill:#fcfdfa}.S{fill:#a04d3d}.T{fill:#a44e3c}.U{fill:#ac503c}.V{fill:#ad513c}.W{fill:#a14c3b}.X{fill:#ab4f3b}.Y{fill:#b1513d}.Z{fill:#7cd2c3}.a{fill:#f79864}.b{fill:#f79561}.c{fill:#f6865b}.d{fill:#f79265}.e{fill:#f17053}]]></style><path d="M3.765 26.175c-.591-.024-.325.361-.3.631.104.157.126.279-.124.279-.08-.703-.455-.919-1.164-.879-.853.049-1.275-.586-1.535-1.303-.505-1.389.007-2.962 1.2-3.686l.436-.291c.523-.383.548-.692.059-1.149l-.726-.746c-.538-.502-.677-1.109-.552-1.773.249-1.334.739-2.545 2.013-3.245.677-.371 1.445-.355 2.185-.445 1.059-.128 1.938-.594 2.642-1.388.487-.55.646-1.231.697-1.937l.098-2.306c-.038-1.29.364-2.4 1.187-3.376.852-1.01 1.666-2.045 2.846-2.727 1.029-.595 2.111-.89 3.286-.814.273.017.59-.2.829.103-.334.532-.864.849-1.38.707-.489-.135-.57.243-.777.48-.022.128-.002.258-.022.386-.09.28-.355.46-.427.751a.73.73 0 0 1-.159.121l-.092.038a1.34 1.34 0 0 1-.189.035c-.081.026-.223.033-.174.148.039.09.163.006.249-.018l.175-.084.17-.111.089-.057c.091-.064.192-.107.298-.139.52-.087.985-.332 1.463-.53 1.704-.708 3.475-.651 5.258-.504.941.203 1.808.567 2.563 1.176.068.087.196.13.196.266-.017.054-.05.096-.098.125-.045.009-.11.012-.107.073.004.1-.037-.032.053.013.036.035.063.077.081.123.035.061.076.111.16.097.077-.023.154-.032.233-.022a.54.54 0 0 1 .159.065 1.42 1.42 0 0 1 .141.105l.069.055c.095.074.195.139.296.204a.98.98 0 0 1 .144.116c.157.191.342.355.514.532a1.98 1.98 0 0 0 .345.317c.228.195.443.402.624.642l.928 1.504c.668 1.036 1.031 2.205 1.474 3.339.175.4.389.78.6 1.162.068.137.162.26.219.401.03.071.035.148.045.221.003-.03-.002-.058-.001-.088.011-.153.022-.305.243-.253l-.002.004c.058.1.037.236.142.315l-.003-.005c.074.091.05.233.159.304.308.352.626.691 1.038.926.06.048.119.101.201.111.039-.012.072-.002.098.03.098.087.234.069.344.121l.257.043c.174.09.248.197.059.348a.35.35 0 0 1-.238.013c.001 0-.061-.041-.061-.041l.055.052a.91.91 0 0 1 .281.163c.158.148.323.287.509.398.527.457 1.236.738 1.45 1.495.236.309.739.407.727.913a.28.28 0 0 1-.114.154c-.055.016-.14.017-.145.077-.007.098-.033-.009.068 0 .056.04.103.087.142.143.445.734.727 1.526.862 2.371.042.208.092.414.163.614.061.207.139.411.156.629a1.44 1.44 0 0 1-.036.427c-.141.582-.111 1.174-.106 1.761l.17.01.086.032c.234.29-.02.469-.15.676-.13.2-.319.38-.226.658a.62.62 0 0 1 .043.187c-.019.429-.391.678-.528 1.047-.022.058-.05.115-.078.17l-.164.322c-.06.101-.146.182-.214.277-.292.484-.373 1.087-.831 1.478-.612.212-1.204-.076-1.808-.077l-.81-.023c-.275-.014-.539-.082-.803-.153-.231-.068-.423-.184-.514-.422-.076-.458.179-.863.214-1.306.014-.184.195-.193.348-.191.157.024.288-.02.375-.164l.105-.161c.373-.757.635-1.542.659-2.394.013-.369-.037-.741.057-1.106.239-.271.202-.514-.076-.733a.48.48 0 0 1-.038-.293c.239-.236.034-.372-.119-.518a1.23 1.23 0 0 1-.091-.177l-.127-.275c-.445-.908-.854-1.837-1.561-2.587-.207-.348-.505-.616-.791-.895-.36-.345-.539-.822-.866-1.192.029-.395.324-.664.478-1.002.639-1.398-.045-2.768-1.548-3.068-.217-.043-.453-.018-.639-.174-.205-.315-.261-.712-.534-.99-.012-.063-.034-.132-.078-.169-.032-.027-.03-.003.012.049.063.075-.024-.028.036.058.241.31.347.685.539 1.016-.016.322-.293.496-.427.751-.403-.113-.389.365-.648.457-.717-.345-1.011-1.066-1.466-1.644-.118-.155-.298-.235-.442-.359-.268-.243-.612-.338-.936-.471-.293-.15-.51-.409-.804-.556-.043-.022-.078-.056-.12-.075-.098-.045-.199-.377-.298-.001-.68-.006-1.218-.38-1.778-.688-.591-.325-1.139-.716-1.677-1.122-.058-.035-.113-.076-.166-.118-.078-.061-.151-.128-.221-.197-.187-.126-.278-.422-.588-.327-.391 1.44-1.181 2.651-2.112 3.788-.191.233-.382.453-.631.621-.194.135-.356.308-.543.451-.162.11-.328.212-.468.351l-.139.134-.136.137-.068.07-.138.144c-.365.333-.609.742-.76 1.208-.092.277-.277.509-.385.779a2.1 2.1 0 0 0-.046.284c-.002.067-.012.132-.023.197a.48.48 0 0 1-.14.267c-.5.1-.593.466-.586.896.005.242.154.483.006.727-.294.061-.592.362-.878-.017-1.049-2.985-1.357-5.979-.128-8.995l.905-1.769c.348-.647.811-1.203 1.362-1.689-.572.486-1.031 1.063-1.397 1.715l-.879 1.775c-1.233 3.048-.941 6.063.195 9.059.119.117.136.274.092.414-.355 1.154-.124 2.19.604 3.132.032.64-.19 1.275-.039 1.917-.073 1.06.237 2.048.583 3.027.024.068.125.14.11.188-.275.931.62 1.407.827 2.148.021.073.022.147.003.22-.269.39-.721.273-1.086.393l-.492.103-.093.027a1.45 1.45 0 0 1-.185.042 3.24 3.24 0 0 0-.535.126 2.05 2.05 0 0 1-.177.042c-.119.028-.231.077-.335.142-.227.143-.495.171-.737.269-.065.027-.131.049-.198.069-.373.051-.73.353-1.125.076-.317-.303-.605-.649-1.078-.718-.576-.63-.992-1.36-1.336-2.134-.12-.27-.215-.561-.492-.726-.236-.084-.441-.298-.727-.169z" class="K"/><path d="M38.456 30.839a6.84 6.84 0 0 1 2.408 2.263c.73 1.119 1.222 2.334 1.622 3.58.346 1.08.522 2.215.773 3.325l-.125 3.267c-.005.327.133.812-.283.907-.342.079-.46-.388-.64-.647-.136-.195-.195-.449-.553-.669.157 1.063.501 1.939.83 2.812a11.45 11.45 0 0 1 .57 2.095c.144.822-.077 1.023-.875.824l-2.877-.71c.007.403.265.537.456.703.552.476 1.205.803 1.807 1.206.703.47.711.768.104 1.331-.569.528-1.182 1.002-1.783 1.491-.385.314-.714.674-.953 1.186.483.089.808-.104 1.128-.276.375-.201.75-.403 1.154-.539.229-.077.489-.226.701-.007.198.204.131.479.038.71l-1.237 3.458c-.093.275-.271.536-.15.916.53-.395.847-.936 1.258-1.388.224-.246.39-.717.784-.566.325.124.205.572.227.889.148 2.067.36 4.124.83 6.148.2.992-.046 1.977-.033 2.961.009.699-.325 1.326-.264 2.014.014.157-.052.317-.176.396-.451.289-.825.717-1.423.746-.721.035-1.429.189-2.142.293-.54.079-1.083-.079-1.632-.074-.79.006-1.574-.023-2.37.04-.648.051-1.332-.1-2.005-.112-.42-.007-.84-.075-1.26-.117-.087-.215.012-.391.127-.555 1.507-2.155 2.229-4.592 2.58-7.163.047-.345.076-.696.297-.99.45-.208.839-.047 1.214.204.252.809.08 1.639.086 2.456l-.092 4.414c-.007.15-.014.301.026.447.032.119.068.265.211.278.208.02.231-.161.242-.303l.162-2.24.224-9.803.182-6.36.207-2.534c.033-.138.085-.273.072-.421a1.22 1.22 0 0 1 .011-.215c.074-.305-.051-.599-.051-.901.189-4.886.632-9.762.508-14.658l.085-.109zM1.073 65.981c-.367-.372-.522-.823-.545-1.341l-.207-3.934c.015-.356-.124-.681-.128-1.028.133-.341-.039-.714.107-1.054a.45.45 0 0 0 .012-.147c.152-1.373.707-2.64 1.063-3.959.15-.554.55-.306.802-.045.536.558.95 1.217 1.417 1.834l1.163 1.512a2.03 2.03 0 0 0-.167-1.023c-.495-1.252-.885-2.547-1.527-3.739-.117-.218-.239-.447-.111-.709.481-.293.863.073 1.282.193a1.57 1.57 0 0 1 .166.102.96.96 0 0 0 .349.128c.096.016.187.045.273.09.214.149.407.33.653.433.36.157.681.412 1.13.468.071-.368-.202-.508-.37-.69-.852-.919-1.886-1.638-2.79-2.5-.834-.796-.833-.852-.292-1.851.831-1.539 1.646-3.087 2.238-4.76-.862.757-1.646 1.593-2.415 2.445-.293.324-.577.957-.987.763-.494-.233-.269-.898-.159-1.365.292-1.244.45-2.508.614-3.771.022-.17.057-.348-.111-.543-.513.324-.597.927-.897 1.38-.191.289-.204.759-.714.744-.011-.831.294-1.619.34-2.442.051-.887.559-1.709.367-2.63-.009-.044.009-.104.033-.144.62-1.01.668-2.228 1.194-3.271.19-.377.331-.785.649-1.085.409.051.046.425.274.594.525-.337.823-.899 1.235-1.352.515-.566.66-.546.955.154.172.409.363.806.815 1.22.114-.779.049-1.441.09-2.091.06-.964.032-1.004.959-.977.406.012.411-.406.703-.466.075.034.127.089.161.164a.81.81 0 0 1 .063.239 2.64 2.64 0 0 1 .02.255l-.179 6.668.024 9.361c.122 1.221-.024 2.446-.01 3.672l.028 7.649c-.013.323.012.656-.224.925-.277.233-.572.093-.855.026-2.015-.475-3.779.032-5.224 1.47-.783.779-1.355 1.721-1.119 2.943.075.388.178.78.152 1.185-.045.154-.074.324-.298.3z" class="L"/><path d="M35.464 60.548l-.465 2.637c-.457 2.104-1.151 4.114-2.498 5.84-.06.077-.089.178-.132.268l-.819.762c-.274.12-.359-.034-.369-.267-.011-.292.036-.588-.058-.875-.085-.251-.079-.593-.396-.659-.327-.068-.561.174-.712.433-.325.556-.622.673-1.3.367-.694-.312-.322.439-.413.726.081.363.249.701.305 1.069.042.272.023.525-.376.408-.368-.042-.739-.074-1.042-.323-.708-.474-1.343-1.017-1.709-1.813a3.95 3.95 0 0 0 .164-1.427c.046-.652.262-1.275.32-1.924.027-.155.09-.305.088-.466a1.69 1.69 0 0 1-.001-.179.9.9 0 0 0-.062-.43c-.085-.267-.275-.266-.493-.191-.279.096-.45.324-.642.526-.262.258-.359.634-.626.889-.084.069-.175.116-.288.103-.484-.369-.534-.935-.636-1.466-.061-.312.174-.498.413-.655.316-.208.6-.454.821-.761.203-.282.287-.585.033-.893-.138-.434-.619-.609-.778-1.028-.02-.254.117-.459.212-.677.028-.06.061-.117.097-.173.176-.223.301-.483.479-.706.078-.084.162-.164.225-.261l.073-.15c.05-.138.045-.283.059-.426.01-.095.032-.186.066-.276a1.99 1.99 0 0 0 .211-.849c.057-.32.18-.64.007-.961-.229-.547-.651-.262-1.011-.234-.123.024-.248.042-.363.096l-.168.091a.66.66 0 0 1-.187.061.42.42 0 0 1-.193-.043c-.259-.223-.296-.824-.87-.506-.261.057-.519.073-.764-.06-.064-.049-.098-.114-.104-.194.321-.775.737-1.515.889-2.355 1.885.137 3.769.056 5.653-.025.078.02.139.065.181.135.002.114-.04.222-.056.334l-.388 1.119c-.215.179-.375.088-.476-.123-.107-.224-.203-.451-.295-.564.172.17.2.545.438.792a.89.89 0 0 1 .103.119c-.001-.004.043.055.043.05.033.029.07.032.108.001l.127-.289c.147-.488.275-.979.504-1.436.414-.344.929-.334 1.419-.396 1.251-.16 2.504-.306 3.69-.805-1.089-.169-2.177-.18-3.264-.052-.5.059-.997.095-1.496.051-.302-.027-.623-.067-.596-.503.143-.356.47-.345.759-.341.775.012 1.539-.114 2.31-.146.337 0 .675-.026 1.011.015l1.486.145c.708.075 1.234.371 1.419 1.11.18.633.258 1.286.368 1.933l.251 3.947c-.194.611.046 1.288-.287 1.878z" class="M"/><path d="M23.855 61.177c.069.139.186.227.322.288.331.148.47.41.468.76.053.099-.001.167-.065.234-.046.041-.095.076-.146.109a1.8 1.8 0 0 1-.158.097l-.325.209c-.611.439-1.35.192-2.008.378-.646.32-.724.558-.54 1.663-.133-1.328.117-1.707 1.064-1.615.357.559.459 1.212.641 1.831.254.862.451 1.742.807 2.572l.249 1.021c.028.206.027.404-.163.544-.848.486-1.717.86-2.727.924-.633.041-1.259.253-1.9.348-.925.137-1.837.082-2.757.006-2.11-.175-4.188-.569-6.263-.969-1.121-.217-2.226-.534-3.327-.843-.836-.235-1.719-.277-2.52-.645.059-.097.151-.152.251-.195.3-.101.593-.225.91-.265.096-.005.191.006.273.045.037.006.075.024.108.052.024-.075-.083-.083-.076-.152.02-.099.082-.163.156-.22.504-.856 1.356-.54 2.099-.605-.066-.157-.194-.245-.266-.373a.39.39 0 0 1-.057-.201c.018-.07.049-.133.097-.189.053-.05.115-.085.183-.11.147-.031.281-.015.387.105.078.064.171.111.232.197-.035-.093-.127-.121-.199-.173-.163-.2.057-.291.119-.426.081-.109.166-.217.269-.308.055-.044.115-.078.181-.103l.104-.015c.578.041 1.14.063 1.386-.637.059-.167.197-.309.397-.22.219.097.217.3.162.5-.016.039-.057.063-.084.099.041-.014.078-.037.11-.069.225-.397.169-1.069.925-.947-.117-.092-.338-.057-.374-.27.123-.443.068-.945.434-1.307.672-.03 1.295.213 1.937.35 1.215.294 2.355.828 3.573 1.112.758.176.758.173.571-.617l-.879-4.023c-.559-2.525 1.8-5.687 3.794-6.227.297-.08.578-.171.853.044.254.212.223.479.15.756-.245.799-.625 1.509-1.32 2.013l-2.049.749a1.23 1.23 0 0 1-.237.071.67.67 0 0 1-.124.029c.004-.002.04.044.04.044l.052-.034c.07-.034.143-.042.217-.059l.336-.114c.536-.195 1.058-.438 1.642-.462a1.6 1.6 0 0 1 .216-.034c.234-.02.456.009.646.16l.876.016c.628.215.673.442.25 1.256a.5.5 0 0 1-.3.162c-1.191.107-2.33.395-3.364 1.004-.028.034-.07.05-.118.045.084.056.105-.048.165-.065 1.018-.571 2.116-.857 3.265-.97l.438.028c.146.016.289.042.424.102.414.235.604.612.672 1.065a.74.74 0 0 1 .001.216 1.32 1.32 0 0 1-.111.301c-.238.577-.894.484-1.293.805-.139.044-.278.02-.418.01-.34-.02-.681-.048-1.015.047a2.3 2.3 0 0 1-.195.056c-.271.099-.576.098-.807.283-.062.066-.083-.065-.033.019.032.054.056-.043.101-.045.198-.104.39-.124.578.011a.55.55 0 0 1 .11.313.62.62 0 0 1-.081.319 1.65 1.65 0 0 0-.867 1.434c-.009.064-.103.138-.056.173.075.057-.031.043.018-.054.15-.585.173-1.243.927-1.425.375-.147.779-.155 1.168-.234.272-.063.543-.027.815.01l.39.059.402.028a.43.43 0 0 1 .262.152z" class="N"/><path d="M34.964 52.789c-.194-.667-.698-.862-1.329-.933-.454-.051-.924.036-1.362-.149-.182-.175-.17-.462-.365-.683-.25.224-.246.661-.646.681-.779.127-1.565.145-2.351.171-.239.008-.502-.069-.695.155-.078.035-.145.02-.201-.044-.045-.061-.079-.128-.103-.2-.367-1.505-.167-2.004 1.118-2.901.675-.472 1.362-.927 1.957-1.509.571-.557.951-1.165.754-1.995-.13-.551.228-.817.589-1.105.866-.69 1.232-1.604 1.176-2.7-.039-.779-.375-1.338-1.155-1.565-.438-.128-.681-.346-.585-.866.088-.474-.129-.934-.202-1.401-.023-.152-.017-.299.067-.433.516-.317.849.055 1.174.344.573.51 1.093 1.079 1.635 1.673.287-.289.154-.558.093-.799l-.743-2.665c-.074-.212-.19-.435-.011-.633.184-.203.424-.104.631-.032.683.238 1.401.364 2.068.651.22.094.492.325.682.098.225-.268-.083-.51-.232-.711l-1.925-2.576c-.505-.627-.657-1.185-.133-1.87.355-.465.442-1.122 1.015-1.437.177-.01.384-.036.487.123.397.612 1.094.743 1.668 1.068.152.086.313.143.416.293l-.045.062-.177 3.206-.712 9.263-.354 6.284-.316 7.261c-.014.838-.011 1.69-.219 2.516-.713.299-.753-.401-1.055-.712l-.267-3.56c-.02-.145.008-.297.013-.446.124-.508.376-.967.564-1.45.077-.199.257-.426.059-.62-.192-.19-.419-.017-.623.054-.117.041-.232.086-.358.093z" class="L"/><path d="M.92 43.614c.374-.227.433-.656.633-.993l.73-1.307c.061-.107.145-.212.295-.179.142.032.196.163.221.277.037.168.062.349.041.518l-.598 3.741c-.12.469-.142.93-.132 1.444.366-.037.511-.331.681-.536.846-1.019 1.796-1.936 2.722-2.878.085-.086.146-.229.296-.159.196.091.113.25.056.384L4.09 47.723l-.88 1.646c-.15.267-.083.437.119.646.628.646 1.324 1.218 2.016 1.786.583.479 1.095 1.021 1.63 1.544.142.14.31.274.144.508-.17.24-.373.205-.588.081-.322-.186-.685-.301-.964-.562-.141-.144-.126-.359-.232-.515-.017-.096.098-.056-.001-.054-.053.001-.055.074-.071.12-.105.096-.211.072-.318.009l-.28-.032c-.083-.074-.216-.043-.29-.135l-.002-.002c-.067-.058-.085-.131-.068-.214.008-.075.132-.058.12-.149-.043.027-.072.064-.09.113a.43.43 0 0 1-.164.036c-.258.021-.297-.23-.444-.345-.277-.218-.53-.219-.697.145.13.615.471 1.142.709 1.712.478 1.145.936 2.298 1.242 3.504.006.025.01.05.02.072.074.167.14.346-.059.461-.21.121-.31-.057-.414-.198L3.51 56.515 2.32 54.89c-.175-.221-.34-.486-.683-.609L.633 57.645c-.082.291-.176.569-.321.831-.202-.174-.134-.412-.143-.629-.091-2.213.109-4.421.187-6.629l.13-3.195c.128-1.159.045-2.338.316-3.475.075-.316-.118-.652.117-.934zm42.751 19.534c-.324-.069-.336-.366-.372-.59l-.351-2.589c-.154-1.248-.371-2.491-.288-3.896-.484.396-.735.794-1.034 1.142l-.846 1.047c-.097.121-.215.232-.38.173-.22-.08-.19-.288-.142-.444l.693-2.121c.242-.652.414-1.329.728-1.958.124-.249.264-.536.189-.904-.548.089-1.01.3-1.458.56-.412.239-.842.442-1.311.536-.159.032-.363.082-.461-.128-.076-.162.033-.284.126-.402.367-.472.736-.934 1.229-1.3l1.85-1.517c.25-.204.184-.366-.024-.544-.381-.329-.831-.55-1.258-.808-.538-.323-1.022-.712-1.462-1.158-.126-.127-.264-.259-.167-.453.1-.2.309-.159.467-.12l2.675.688.431.125c.401.098.509.018.426-.403-.145-.732-.289-1.465-.559-2.169l-.868-2.623c-.065-.271-.193-.614.096-.739.312-.135.437.242.569.458.216.357.395.737.59 1.109.278-.131.176-.331.176-.482.003-1.048.026-2.095.171-3.136.025-.178.066-.341.154-.495.103 1.722.586 3.4.604 5.132l.001 3.023c-.062.87.162 1.727.14 2.605l-.027 6.96c.019 1.498-.26 2.978-.127 4.472.029.334-.082.64-.18.949zm-7.786-33.793l-1.063 1.886c-.235.361-.195.6.052.924l2.396 3.242c.16.218.416.479.198.728-.209.237-.555.17-.832.019-.775-.425-1.654-.536-2.47-.834-.117-.043-.247-.096-.33.041-.053.089-.001.189.041.282.461 1.024.64 2.132.929 3.206.066.247.156.615-.154.74-.304.122-.439-.212-.623-.414l-1.463-1.5c-.233-.228-.501-.422-.866-.346-.158-.017-.305-.098-.363-.225-.284-.618-.806-1.027-1.265-1.494-.032-.075-.053-.152-.064-.233.057-.946.287-1.866.415-2.801.16-1.165.18-2.332.127-3.503-.014-.324-.097-.674.386-.731l.752.139c.554.32.628.931.864 1.44.316.682.362.7.911.183.475-.447 1.015-.807 1.542-1.184.249.234.604.256.88.437z" class="O"/><path d="M4.814 68.069l-.305.02c-.471-.108-.915-.313-1.402-.365-.22-.024-.408-.151-.549-.331-.218-.291-.577-.469-.679-.853.212-.487.738-.59 1.113-.873.154-.116.282.106.257.303.003.04-.018.069-.061.081.036.029.06.016.077-.043.106-.09.309-.039.344-.131.351-.904 1.239-.755 1.919-.943.663-.183 1.413-.282 1.891-.72.43-.393.675-.369 1.114-.161.253.12.445-.104.575-.349.107-.201.286-.389.54-.319.267.074.049.365.165.512.025-.023-.012-.033-.009-.052-.014-.184-.006-.407.162-.462.738-.243 1.147-1.105 2.028-1.065.075-.001.135.03.18.089-.006.414-.04.821-.301 1.169-.2.37-.287.887-.921.686-.087-.028-.24.027-.253.114-.133.973-.965.669-1.53.85h0c-.053.047-.098.102-.15.15l-.151.3c-.24.124-.515.164-.75.301-.054.046-.096.104-.151.15l.001.15c-.311.173-.556.415-.979.429-.396.013-.626.426-.824.771l-.149.15c.051.034.068.067.051.101s-.034.05-.052.05h-.3c-.378-.141-.681-.049-.905.29z" fill="#f2905c"/><path d="M8.544 31.136c-.191.192-.022.5-.239.713l-1.216-.19-.049 2.318c.02.304.161.737-.211.876-.451.168-.449-.359-.623-.588-.272-.357-.496-.75-.518-1.191-.229-.106-.303.039-.397.152l-1.152 1.373c-.18.212-.399.366-.687.432-.217-.361.253-.658.052-.989-.012-.085.028-.142.097-.184.135-.132.205-.309.317-.457.766-1.378 1.91-2.381 3.202-3.238.101-.067.185-.16.277-.241l1.2-.254c.064.492.263.989-.053 1.467z" fill="#82d5c7"/><path d="M14.127 3.816a.68.68 0 0 1-.146.026c-.123.086-.16.006-.187-.095.022-.102.09-.165.18-.211l.149-.136c-.073-.387.344-.483.453-.763.035-.144.273-.385-.149-.311-.008-.294.511-.3.37-.694-.03-.084.175-.11.306-.089.309.051.578.264.905.229.081-.219-.233-.313-.163-.53.527.206.528.206.997-.121.048-.004.097-.002.143-.014.195-.05.154-.309.314-.375.142-.058.224.279.413.09.197-.063.239.08.288.215.009.099-.004.191-.132.293.175-.124.259-.281.436-.305.156-.033.328.115.473-.041.201-.114.4-.335.6.001-.168.259.133.069.147.155.533.367 1.113.319 1.667.141.155.229-.118.27-.09.433l.577.043c.045.305-.374.31-.353.586-.616.294-1.272.14-1.896.104-.597-.034-1.169.05-1.738.141-.782.125-1.536.393-2.249.741-.326.158-.647.235-1.001.213a1.05 1.05 0 0 0-.166.14l-.003.003a.96.96 0 0 1-.144.13z" fill="#8a1b35"/><path d="M36.19 24.541c.021-.204.46-.298.155-.588-.056-.055-.088-.12-.098-.197.206-.99.567-1.938.587-2.982.023-1.202-.418-2.169-1.163-3.048-.143-.169-.34-.296-.403-.525-.123-.123.263-.133.06-.285-.219-.164-.401-.371-.601-.557-.495-.525-1.095-.854-1.809-.974-.223-.055-.349-.228-.478-.397l-.011-.061c.171-.1-.05-.089-.043-.145-.017-.053-.002-.097.038-.132.177-.084.039-.187.016-.282.612.116 1.165.368 1.657.746.428.328.885.606 1.356.866.044.175.119.331.273.44l.514.52c2.248 2.306 1.359 6.012.365 7.944-.112.218-.233.456-.549.429l-.014-.006c-.214-.306.172-.496.147-.766z" class="C"/><path d="M31.078 70.324c-.61.651-1.402.852-2.251.915-.464-.66-.688-1.378-.538-2.189.269-.319.511-.101.68.088.382.426.589.268.8-.154.097-.194.223-.385.382-.542.451-.442.747-.371.969.232.068.185.125.375.114.577-.019.363.033.735-.157 1.072z" class="B"/><path d="M35.005 28.918c-.034.091-.042.22-.107.266-.706.491-1.35 1.057-1.999 1.711-.555-.787-.752-1.67-1.211-2.416.895-.073 1.766.085 2.635.266.19.206.45.136.683.173z" fill="#4cac99"/><path d="M4.52 26.174c.226-.009.371.09.444.31.299.898.732 1.724 1.354 2.443.08.092-.013.185.002.277-.389-.046-.682-.244-.898-.564l-.004-.089c-.021-.059-.054-.11-.101-.152-.268-.213-.483-.467-.62-.783-.223-.332-.341-.703-.404-1.092-.029-.178-.036-.356.228-.35z" fill="#f8f0eb"/><path d="M27.63 6.841c.961 1.258 1.739 2.602 1.989 4.197-.098.071-.194.046-.291-.002-.061-.037-.115-.08-.164-.131-.072-.079-.128-.169-.17-.267-.252-1.152-.873-2.13-1.469-3.12-.116-.222-.313-.421-.196-.707.107-.059.209-.061.302.03z" fill="#e26850"/><path d="M25.535 69.129l1.656 1.805c-.124.008-.241-.012-.341-.091-.049.014-.081-.004-.097-.052-.593-.235-1.057-.647-1.498-1.091-.186-.221-.126-.412.069-.588.074-.04.144-.034.211.017z" fill="#b73c5d"/><path d="M36.795 16.744c.739.572 1.467 1.152 1.82 2.064.058.152.085.296-.105.378-.23-.024-.331-.2-.418-.375-.291-.587-.729-1.044-1.231-1.451-.202-.163-.472-.302-.381-.645.111-.046.217-.055.316.029z" fill="#e37664"/><path d="M25.961 5.65c-.155-.015-.263-.084-.283-.251l-.021-.079c.096-.116-.066-.106-.084-.167-.174-.131-.301-.315-.499-.414l.01.008c-.139-.123-.307-.203-.459-.307l.006.005c-.047-.056-.093-.113-.154-.155l.001.004-.059-.077c.014-.066.049-.117.108-.15.1-.02.192.005.28.05.599.388 1.2.774 1.619 1.374a.36.36 0 0 1-.211.134c-.083.021-.168.018-.253.025z" fill="#e47560"/><path d="M29.287 10.892l.332.146c.305.451.468.958.588 1.482-.181.113-.164.298-.171.474l.001-.001c-.117-.056-.149-.158-.15-.277-.101-.143-.137-.317-.225-.466-.175-.382-.429-.732-.467-1.168.01-.073.042-.136.092-.189z" class="P"/><path d="M38.472 19.142c.116-.082.123-.211.143-.334.26.643.579 1.278.256 1.996l-.111.027c-.066-.044-.113-.101-.144-.173-.046-.506-.435-.979-.143-1.517z" fill="#e58776"/><path d="M28.396 68.984c-.145.808.176 1.525.432 2.256-.196.096-.391.23-.596.018.186-.042.302-.095.222-.344-.127-.393-.316-.769-.356-1.187.23-.195-.207-.658.298-.742z" fill="#f89bb2"/><path d="M26.148 5.486l.279.005c.311.192.5.504.747.759.061.041.114.089.141.16l.153.147c.07.032.117.085.143.157a.23.23 0 0 1 .02.129l-.312.002c-.405.025-.468-.334-.642-.569-.129-.294-.596-.362-.529-.788z" fill="#e76d56"/><path d="M4.52 26.175c-.333.387.047.713.102 1.064.025.157.146.299.224.448.044.154-.021.193-.161.154-.263-.34-.404-.729-.504-1.144-.054-.223-.073-.511-.415-.52.251-.205.503-.159.754-.001z" fill="#e57765"/><path d="M35.153 27.268c-.025-.14-.015-.264.146-.318.082-.085.06-.22.141-.306l-.01.01c.355-.361.466-.971 1.083-1.064.04.068.036.132-.013.195-.319.613-.72 1.152-1.348 1.484z" fill="#e69182"/><path d="M38.424 22.595l-.749 1.601c-.026.075-.079.116-.158.125-.076-.006-.138-.039-.184-.101.035-.719.383-1.291.856-1.804.135-.014.198.066.235.18z" fill="#e58676"/><path d="M4.827 29.187c-.485-.277-.819-.686-1.053-1.186.045-.061.06-.15.155-.163l1.034 1.228-.022.061a.39.39 0 0 0-.113.06z" fill="#e69381"/><path d="M24.002 69.267l.021-.574c-.097-.161-.072-.288.105-.372.478.105.687.429.726.892-.03.08-.087.121-.173.124l-.679-.069z" fill="#589d8f"/><path d="M37.387 24.25l.145-.002c.044.03.061.063.05.098s-.023.055-.036.055c-.359.453-.562 1.023-1.044 1.384l-.011-.183c.035-.625.299-1.099.895-1.351z" fill="#e58b7c"/><path d="M31.079 70.324l.024-1.201c.099-.089.014-.267.161-.333.209.338.152.695.075 1.053-.039.185.097.185.21.213-.094.2-.255.282-.471.268z" fill="#f592ae"/><path d="M24.68 69.337l.176-.08c.148-.229.197-.495.278-.748.086-.187.115-.419.373-.469.112.03.181.106.223.21-.031.325-.151.616-.332.884-.11.174-.184.356-.143.568l-.574-.365z" fill="#eb8aa3"/><path d="M36.796 16.744l-.365.026c-.091.063-.187.065-.287.027-.195-.111-.337-.314-.582-.34-.236-.114-.236-.28-.107-.476.489.18.9.498 1.341.763z" fill="#e78170"/><path d="M1.97 66.563c.186.284.482.489.588.83-.4-.234-.756-.522-1.047-.884a.55.55 0 0 1-.038-.211c.302-.168.354.135.497.266z" fill="#baa584"/><path d="M3.93 27.837l-.155.163c-.221-.269-.384-.565-.432-.916.108-.064.102-.178.124-.279.189.329.352.669.464 1.032z" fill="#e47d6e"/><path d="M4.684 27.839l.161-.154c.166.323.479.514.707.781a.44.44 0 0 1-.126.1l-.004.073c-.262-.251-.605-.429-.737-.8z" fill="#e8a095"/><path d="M38.425 22.595l-.155-.192c-.122-.357-.053-.663.244-.907.079-.02.148-.002.206.055l.005.302c-.05.062-.108.121-.108.209.007.203-.083.372-.193.533z" fill="#e48575"/><path d="M17.89 1.148c-.009-.135-.038-.261-.178-.324.158-.453.158-.453.473-.102.047.05.069.11.066.179-.066.16-.151.296-.361.248z" fill="#a74864"/><path d="M24.032 3.841l-.143-.32c.244.023.389.222.586.329.094.095.099.191.004.288l.004-.005c-.121.1-.233-.004-.35-.016-.058-.027-.105-.067-.144-.119-.028-.064-.014-.116.042-.158z" fill="#e86856"/><path d="M.3 58.624c-.009.354.084.719-.108 1.054-.026-.358-.121-.722.108-1.054z" class="O"/><path d="M19.525 1.141c-.206.08-.134.495-.534.394.076-.229.209-.402.387-.549.093.01.148.056.147.155z" fill="#c9a8ab"/><path d="M5.777 29.642a.75.75 0 0 1 .612.29c-.349.031-.601-.113-.854-.254a.15.15 0 0 1 .242-.035z" fill="#edb19f"/><path d="M1.527 66.287l-.016.221c-.182-.146-.338-.314-.438-.528.116-.069.138-.185.147-.306.186-.049.233.093.297.214.043.131.093.264.009.398z" fill="#6fac95"/><path d="M18.174.785l.011-.064c.146-.071.262-.078.309.12.036.15.178.118.284.144-.108.179-.285.149-.452.149-.122-.085-.072-.245-.152-.349z" fill="#972e4e"/><path d="M38.719 21.55l-.166-.016c-.152-.296-.25-.58.168-.747l.054.034c.044.084.034.187.094.265l-.151.465z" fill="#e18f7e"/><path d="M4.963 29.065l.447.317c.043.039.057.078.043.117s-.028.06-.042.06a.56.56 0 0 1-.441-.364l-.021-.095.014-.034z" fill="#e88575"/><path d="M3.918 33.401c-.006.222-.1.382-.317.457-.008-.231.106-.378.317-.457z" fill="#7cd2bf"/><path d="M5.411 29.559l-.001-.177c.153.044.274.131.367.261l-.241.035-.125-.119z" fill="#f3988b"/><path d="M24.478 4.138l-.004-.288c.152.037.253.139.332.267l-.328.021z" class="Q"/><g class="P"><path d="M30.347 12.839c-.141-.063-.163-.179-.142-.315.129.068.143.188.142.315z"/><path d="M30.503 13.138c-.142-.055-.17-.169-.159-.304.118.067.147.182.159.304z"/></g><path d="M32.185 14.326c-.136.02-.262.011-.344-.121.133-.012.251.021.344.121z" class="C"/><path d="M38.87 21.086c-.109-.061-.125-.155-.094-.266.031-.008.064-.013.096-.016l-.002.281z" fill="#de735c"/><path d="M4.949 29.099a.73.73 0 0 1 .021.095l-.072.017-.07-.026.122-.087z" fill="#e67769"/><path d="M37.545 24.4l-.014-.152.145-.052c-.007.092-.049.161-.13.204z" class="R"/><path d="M38.617 22.062c-.001-.089.033-.159.107-.209l-.107.209z" fill="#e18f7e"/><path d="M26.752 70.792c.041.002.074.02.097.052-.049.015-.08-.002-.097-.052z" class="M"/><path d="M31.742 14.174c-.087 0-.154-.037-.201-.111a.2.2 0 0 1 .201.111z" class="C"/><g fill="#f0b8ae"><path d="M27.611 6.712l-.143-.157c.082.021.131.072.143.157z"/><path d="M27.314 6.409l-.141-.16c.08.024.129.076.141.16z"/></g><path d="M30.936 28.341c-.105.121-.27.166-.24.411.18 1.47.056 2.925-.154 4.391-.113.788-.372 1.555-.37 2.359-.155.166-.351.151-.554.137-1.695-.118-2.747.631-3.313 2.25-.415 1.187-.242 2.295.239 3.403.337.775.697 1.544.758 2.407a.62.62 0 0 1-.047.232c-.388.413-.839.709-1.424.75-2.152-.922-4.284-1.837-6.122-3.38-1.905-1.599-3.111-3.626-3.978-5.86l-1.69-4.719c-.155-.491.065-.826.424-1.101.401-.307.755-.65 1.023-1.083.242-.39.433-.787.36-1.267-.03-.195-.063-.406.162-.529.866.385 1.592 1.047 2.529 1.294 2.454.537 4.567-.074 6.302-1.901.273-.288.584-.54.828-.855a9.4 9.4 0 0 0 .98-1.3c.02-.035.058-.086.054-.09-.07-.071.066.03-.039.038-.03.048-.06.085-.095.125-.231.498-.652.843-.98 1.262-1.134 1.249-2.378 2.331-4.105 2.666-.73.141-1.459.3-2.21.157-1.136-.151-2.118-.646-3.006-1.35-.059-.035-.124-.062-.191-.08a.61.61 0 0 1-.252-.165c-.176-.24-.403-.425-.636-.605-.932-.847-1.656-1.846-2.21-2.974-.129-.262-.23-.562-.564-.653-.543-.158-1.071-.343-1.467-.779-.047-.055-.083-.116-.108-.184l-.013-.107c-1.089-1.049-1.112-2.279-.61-3.598h0c.236-.101.427-.458.737-.125.056.029.101.072.134.126.085.168.137.349.202.525l.071.179c.027.061.05.122.071.186.117.66.584 1.146.859 1.727.055.089.103.181.135.281-.13.767.551.948.961 1.322.108.099.248.101.292-.052.148-.501.475-.132.718-.165.167.002.334-.023.501.006.485.084.596-.163.51-.581a.25.25 0 0 1 .098-.175c.216-.023.309-.122.388-.353.137-.403.14-.901.6-1.14.451.249.695.76 1.194.948 1.481.307 2.242-.103 2.805-1.472.17-.414.147-.883.396-1.269.67-.348.692.369 1.004.609a1.75 1.75 0 0 1 .13.161c.179.207.221.485.368.718.214-.014.051-.331.27-.326.068-.009.134-.002.199.021.149.082.22.239.335.352.27.265.191-.066.251-.159.018-.066.046-.127.083-.184.069-.08.153-.132.256-.152a.25.25 0 0 1 .175.08c.207.176.462.211.67.074s-.036-.291-.071-.44c-.104-.467.346-.665.552-.902.624-.72.59-1.522.543-2.357l-.326-.66c-.181-.414-.515-.675-.981-.626-.516.055-1.075-.412-1.556.128-.044.049-.187-.018-.273-.066-.056-.029-.066-.136-.138-.116-.047.013.057.094-.01.141-.413.03-.097.505-.377.617-.061.038-.126.059-.197.066a.44.44 0 0 1-.201-.064c-.049-.051-.089-.11-.121-.173-.126-.213-.182-.611-.521-.446s-.145.499-.029.762c.034.056.064.116.092.175.076.178.171.348.225.537a.37.37 0 0 1-.028.187c-.077.099-.178.176-.248.281-.196.385.338.503.305.828-.001.214-.144.316-.31.4-.309.136-.325.425-.327.694-.004.487-.162.921-.374 1.347-.559 1.122-1.207 1.441-2.476 1.206-.6-.221-.948-.736-1.367-1.168-.113-.181-.355-.319-.204-.59.04-.064.142.013.144-.028.003-.067-.099-.019-.138-.066-.434-.382-.138-.638.15-.897.648-.222 1.389-.015 2.095-.517-.252.07-.398.129-.549.129-.289-.023-.471-.136-.388-.468.02-.062.045-.124.071-.184.068-.146.032-.324.135-.461.136-.308.223-.659.624-.736.048-.016.125.054.147-.006.021-.054-.085-.069-.107-.127a.45.45 0 0 1-.022-.275c.1-.237.263-.244.459-.128.054.026.023.115.07.124s.045-.041-.004-.079c.002-.044.021-.081.058-.106-.002.001-.025-.056-.025-.056l-.04.05c-.144 0-.283-.014-.419-.055-.04-.057-.057-.12-.05-.19.13-.34.574-.579.429-.992-.149-.427-.549-.71-.764-1.125-.176-.34-.544.018-.827-.022-.373-.129-.601-.022-.53.397.136.812-.004 1.679.474 2.424.009.071.005.141-.01.211a.82.82 0 0 1-.164.265c-.382.368-.723.769-.975 1.239-.093.155-.131.344-.283.463-.121-.016-.152.067-.171.162-.338.194-.417-.339-.716-.25-.06.004-.119 0-.176-.009a.58.58 0 0 0-.251.008c-.054.022-.11.037-.166.049s-.118.009-.178.003-.116-.029-.171-.056c-.078-.046-.147-.104-.212-.166-.127-.123-.247-.255-.401-.348l-.173-.073c-.709.01-.48-.626-.68-.987-.174.134.012.545-.341.506s-.39-.411-.555-.646l-.004-.151c.087-.1.087-.199.001-.299l.445-.748c.728-1.026 1.768-1.374 2.969-1.374.173 0 .344.061.517.029.167-.031.261-.131.249-.309-.011-.15-.108-.209-.245-.228-.369-.052-.743-.006-1.113-.065-.43-.12-.298-.358-.127-.604.635-.682 1.24-1.378 1.72-2.19.379-.641.783-1.249.856-2.016.016-.164.101-.333.255-.439L18.74 8.88l.147.143.154.133.084.061.175.114c1.083.772 1.083.772.082 1.584-.223.181-.223.181-.414.726a6.84 6.84 0 0 1 1.798-.91c.341-.11.675-.201 1.025-.101.836.239 1.703.34 2.54.573.364.662.846 1.233 1.368 1.774l.082.028c.051.03.097.066.142.104l.066.059.132.118.061.057c.239-.083-.012-.225.039-.328l-.023-.095c-.016-.065-.022-.13-.022-.197.007-.068.033-.127.079-.178-.026-.371.226-.555.49-.731l.006-.008c1.438-.175 2.314.791 2.595 1.744.246.836-.167 1.486-.531 2.158l-.268.445c-.041.187-.173.31-.301.437a1.74 1.74 0 0 1-.269.203c-.326.171-.44.453-.434.804.024 1.468-.121 2.929-.166 4.395-.037 1.197.139 2.326.69 3.39.336.794 1.023 1.296 1.584 1.903.261.264.623.415.829.741.091.194.262.272.456.315z" class="N"/><path d="M22.108 53.103c-.174-.102-.347-.198-.563-.129-.995.324-1.869.821-2.469 1.715-.111.164-.237.32-.365.471-.966 1.134-1.306 2.436-1.068 3.901.256 1.575.627 3.124 1.053 4.661.11.398-.016.544-.404.415-.589-.197-1.204-.291-1.787-.529-.782-.319-1.605-.539-2.41-.802-.421-.488-.573-1.098-.743-1.693-.192-.672-.457-1.316-.715-1.963-.053-.134-.142-.282-.326-.243-.136.03-.183.164-.215.284-.178.676-.297 1.36-.208 2.061.048.376.098.743-.194 1.054-1.017.089-1.914-.281-2.779-.745-.227-.122-.357-.343-.197-.622.293-.31.382-.685.378-1.101-.043-4.666.059-9.331-.209-13.996-.18-3.137-.1-6.284-.066-9.428.018-1.694.034-3.392-.093-5.084.062-.483-.144-.975.04-1.456.299-.291.724-.335 1.067-.541.19-.065.384-.121.577-.182.093-.02.192-.022.261-.103l-.006.004c.126-.125.323-.016.451-.134.358-.275.837-.096 1.209-.32.635-.469 1.533-.556 2.115-.205.092.304-.102.491-.314.612-.539.309-.559.742-.442 1.287.403 1.883.725 3.785 1.5 5.568.07.162.121.331.044.507-.457.203-.783-.214-1.189-.253-.187-.018-.405-.183-.545.037-.107.168.046.335.136.477.587.931 1.251 1.806 1.933 2.668l.515.643c.374.45.283.821-.076 1.258-.916 1.116-1.869 2.196-3.037 3.307.751-.042 1.288-.23 1.83-.386.409-.118.819-.233 1.237-.304.622-.106.787.034.709.666-.152 1.239-.285 2.478-.289 3.728-.001.17-.065.346.093.564.347-.377.507-.846.737-1.264.278-.505.556-1.007.93-1.447.438-.515.688-.493.981.121.56 1.174 1.297 2.251 1.832 3.438.05.111.1.228.305.344-.056-.629-.042-1.207-.043-1.786 0-.325-.012-.65.012-.974.093-1.259.232-1.422 1.436-1.204 1.101.199 2.256-.017 3.317.452.092.041.183.079.257.149.088.262-.032.494-.123.72-.505 1.255-.306 2.435.335 3.587.2.359.505.699.385 1.17-.245.323-.615.266-.952.322-1.076.178-2.162.305-3.195.685-.212.077-.431.124-.652.02z" class="L"/><path d="M10.981 21.397c.437.373.949.597 1.495.752.341.653.505 1.378.83 2.043l.475 1.085.494.981c.377.392.913.633 1.125 1.181.016.463-.23.759-.617.964-.393-.329-1.218.055-1.3-.786-.25.112-.481-.019-.716-.061-.203-.036-.481.214-.601-.08-.122-.299.14-.498.318-.7.063-.28-.196-.406-.292-.609-.249-.424-.222-.95-.503-1.362-.062-.455-.336-.886-.232-1.157-.103.31.144.767.288 1.241.018.208.248.379.103.614-.352.15-.515-.048-.6-.345-.177-.612-.518-1.186-.426-1.861.014-.107-.086-.172-.151-.246-.134-.619-.101-1.224.156-1.81l-.003.002c.033.07.103.103.154.154z" fill="#c04e38"/><path d="M31.987 21.097c.128.206.427.233.507.495-.066.197-.285-.09-.355.104-.047.103-.184.21.011.304l.248.134c.116.066.291.105.236.289-.047.159-.208.167-.35.179-.16.451-.028.918-.079 1.376-.187.871-.316 1.761-.82 2.529l.002-.003a.42.42 0 0 1-.302.122c-.601-.171-.506-.672-.487-1.101.04-.909.016-1.809-.2-2.697a1.11 1.11 0 0 1-.035-.211c-.047-1.18-.06-2.362-.804-3.382-.353-.484-.027-.948.115-1.411.097-.092.187-.067.275.015.044.055.083.114.118.175l.058.087.143.154c.641.618.969 1.43 1.342 2.21.107.224.171.468.374.633z" fill="#e2593e"/><path d="M38.721 20.787c-.231.21-.075.507-.168.747-.172.265-.188.58-.284.869-.331.598-.663 1.195-.883 1.846-.388.391-.636.875-.896 1.351-.416.288-.553.856-1.06 1.053-.029-.291.147-.496.294-.715.132-.197.313-.369.333-.626.664-.779.892-1.753 1.166-2.698.236-.817.212-1.674.231-2.513.02-.894-.334-1.688-.88-2.397-.196-.255-.364-.53-.545-.797-.034-.152.025-.213.178-.182l.223.045.564.472a4.79 4.79 0 0 1 1.477 1.899c.067.551.301 1.076.249 1.645z" class="R"/><path d="M12.623 26.806c.009.086.115.255.009.241-.353-.047-.319.194-.368.439.216-.003.408-.293.579-.145.363.315.654.117 1.009-.153.044.355-.332.45-.246.765.439-.136.747.182 1.111.349.024.259-.108.235-.274.151-.726-.25-1.414.059-2.117.146-.18-.265-.406-.511-.53-.801-.183-.426-.306-.869-.931-.728.086-.319.287-.223.398-.301.176-.123.32-.274.072-.457-.224-.166-.265-.427-.311-.655-.127-.632-.211-1.273-.431-1.884-.09-.25.138-.471.079-.722.224.014.497-.019.352.357-.128.332-.006.638.108.939s.32.547.322.895c.002.231.242.197.411.214.264.224.261.598.479.847.143.141.282.283.28.504z" fill="#cb523b"/><path d="M24.331 11.202c-.729.021-1.448-.033-2.137-.292-.953-.359-1.744.069-2.517.526-.226.134-.486.263-.622.526-.05.097-.153.124-.259.091-.154-.047-.161-.182-.149-.304a1.27 1.27 0 0 1 .655-1.026c.275-.161.574-.289.78-.596l-1.005-.752c-.051-.042-.099-.087-.144-.136l-.003-.003c-.054-.046-.096-.104-.155-.144l-.001.002c-.072-.171.051-.203.169-.24a.46.46 0 0 1 .177.037c.054.028.105.061.155.094l.08.044.262.104c.647.299 1.201.857 2.005.722.142-.527.312.058.465-.011.228.166.327.474.625.561.373.195.746.388 1.162.476.087.2.373.116.457.321z" fill="#e25f41"/><path d="M35.288 17.045c.073.357.438.443.643.683a4.4 4.4 0 0 1 1.082 3.421c-.085.924-.284 1.804-.676 2.643-.468-.506-.147-1.091-.163-1.642l.029-.43c.065-.82-.166-1.609-.251-2.413-.035-.103-.058-.209-.083-.313a2.2 2.2 0 0 0-.105-.288c-.148-.34-.422-.598-.608-.913-.063-.463-.571-.549-.763-.902-.058-.121.02-.172.111-.217.164-.034.314.023.466.069a.88.88 0 0 1 .171.076c.052.036.093.082.126.136l.021.091z" fill="#faf7f3"/><path d="M14.433 12.25l1.047.017c.345.026.658.407.555.687-.112.307-.383.364-.678.281-1.008-.281-1.848.114-2.654.649l-.678.464c.132-.564.384-1.047.901-1.355l.149-.151-.002.002.152-.152-.002.001c.248-.13.471-.309.747-.387.151-.043.322.077.463-.057z" fill="#e26041"/><path d="M29.736 17.798c-.019.243.081.519-.088.719-.201.24.036.403.033.587-.006.352.61.277.418.755-.11.274.232.514.373.769.023.043.068.103.055.134-.259.608.132 1.23-.041 1.838-.068.043-.134.042-.2-.005-.255-.334-.264-.754-.389-1.133a1.8 1.8 0 0 1-.041-.209c-.237-.746-.315-1.553-.832-2.193-.116-.144-.2-.361-.115-.483.497-.71-.152-1.125-.395-1.64-.082-.175-.268-.294-.299-.503a.58.58 0 0 1 .331-.282c.251.13.608.129.559.59-.015.138.213.302.33.455.033.234.404.3.3.602z" fill="#d9573d"/><path d="M30.489 22.75c.045.058.107.108.133.173.165.424.159.838.083 1.299-.059.356.316.704.112 1.163a.92.92 0 0 0 .273 1.12.2.2 0 0 1-.004.299c-.12-.001-.362-.222-.333.001.059.462-.253.802-.274 1.221-.351-.131-.667-.313-.895-.621-.012-.453.52-.659.505-1.114.3-.804.167-1.642.193-2.467.019-.331-.044-.671.116-.985l.09-.09z" fill="#d7563d"/><path d="M11.583 15.546c.256.113.382.371.551.565.149-.11.028-.228.079-.304.109-.166-.132-.462.132-.521.329-.074.267.286.367.459.047.081.071.197.055.288-.078.431.175.479.502.465.034-.002.07.064.105.097-.019.072-.032.153-.077.208-.202.252.127.777-.386.844-.672.088-1.009-.17-1.256-.861l-.083-.208c-.083-.245-.213-.49-.003-.734l.015-.299z" class="F"/><path d="M10.078 8.341c-.026.505-.284.943-.42 1.416-.437 1.51-.402 3.029-.221 4.565.134 1.139.491 2.221.782 3.321v-.001c-.285-.129-.352-.4-.439-.661-.672-2.002-.694-4.072-.589-6.143.035-.687.304-1.356.559-2.007l.177-.491c.05-.062.101-.062.151 0z" fill="#a74b3a"/><path d="M29.287 10.892l-.014.15c-.058.122-.122.233-.287.15l-.864-2.036c-.179-.488-.439-.933-.647-1.404-.083-.177-.1-.32.165-.317.672 1.019 1.348 2.037 1.504 3.292.043.051.074.107.091.172l.053-.007z" fill="#f8f0ea"/><path d="M11.568 15.846l.162.753c.033.436.309.864.04 1.307-.338.143-.507-.237-.793-.258-.012-.043-.019-.086-.022-.129-.004-.443-.288-.833-.049-1.346.184-.394.306-.481.662-.327z" fill="#c24f38"/><path d="M21.621 9.856c-.407.236-.783.18-1.183-.056-.339-.2-.652-.458-1.042-.567a.91.91 0 0 1-.166-.144h.001l-.152-.148h0c-.505-.198-1.023-.382-1.053-1.055.419.061.663.406.985.619.824.545 1.679 1.02 2.611 1.351z" fill="#f79262"/><path d="M18.33 6.537l3.234 1.101c.806.307 1.664.531 2.316 1.155l.003-.004c-.235.027-.442-.056-.64-.165-1.118-.613-2.326-.998-3.529-1.397-.493-.163-.992-.324-1.389-.685l.005-.005z" class="S"/><path d="M18.023 5.269c1.748.431 3.52.819 5.145 1.656l-5.145-1.656z" fill="#a14c3d"/><path d="M34.541 16.746l-.149.145-.127-.067c-.284-.183.042-.72-.493-.788-.377-.048-.562-.439-.853-.65.021-.103.104-.226.179-.19.62.303 1.365.41 1.75 1.089.068.091.019.164-.036.236-.075.093-.184.146-.271.225z" fill="#f4f1ea"/><path d="M9.623 26.502c-.406-.46-.577-1.012-.664-1.608-.131-.897-.363-1.783-.097-2.699.069-.239.102-.48.309-.647l.003.003c.016.497-.164.968-.163 1.471.003 1.078.137 2.12.567 3.115.047.108.031.244.044.366l.001-.002zM34.389 23.8c-.201 1.428-.463 2.839-1.247 4.086.176-.709.503-1.371.641-2.093.126-.654.337-1.294.312-1.973a.43.43 0 0 1 .135-.334c.119.071.052.236.158.314z" fill="#a64e3c"/><path d="M26.586 8.489c-.453-.192-.73-.601-.998-.958-.507-.675-1.183-1.125-1.825-1.63-.13-.102-.336-.118-.417-.463 1.386.801 2.513 1.705 3.237 3.053l.003-.002z" class="T"/><path d="M6.335 22.012c.267-.935.577-1.848 1.149-2.654.306-.431.65-.814 1.089-1.11l-.003-.003c.015.258-.175.396-.329.555-.907.93-1.473 2.028-1.646 3.323-.008.064-.081.119-.124.178-.109-.067-.045-.215-.136-.29z" fill="#a44e3b"/><path d="M18.025 7.886c.218.485.684.722 1.053 1.055-.126.003-.239.032-.305.154-.636-.579-1.38-1.065-1.665-1.944.395.003.564.313.774.568-.018.117.095.12.15.172l-.008-.005z" fill="#e96545"/><path d="M19.377 4.593c1.252.078 2.501.17 3.636.794-.635.027-1.185-.332-1.8-.403L19.38 4.74c-.049-.032-.066-.065-.05-.097s.032-.05.048-.05z" class="T"/><path d="M35.883 20.508c-.164-.9-.58-1.713-.892-2.561.785.179.81.901 1.049 1.47.066.304.122.609.11.923-.05.117-.12.204-.267.168z" fill="#f4c2b6"/><path d="M31.987 21.097c-.291 0-.355-.234-.425-.437-.308-.893-.791-1.683-1.381-2.412l-.058-.079.065-.073c.403.192.604.574.812.926.336.568.66 1.148.86 1.784.037.054.08.102.128.146v.145z" fill="#9e4b3b"/><path d="M6.47 24.25c.238.563.255 1.19.541 1.75.131.254.35.488.367.8-.052.065-.106.069-.161.003-.511-.67-.706-1.464-.89-2.262.098-.072.035-.223.142-.291z" class="U"/><path d="M10.822 6.689c.405-.861 1.049-1.507 1.836-2.023-.558.679-1.215 1.273-1.682 2.025-.052.053-.104.052-.154-.002z" fill="#af4d3c"/><path d="M17.053 4.01c.194.854-.152 1.667-.158 2.507-.023-.841-.213-1.69.158-2.507z" class="V"/><path d="M31.386 26.505c.347-.822.518-1.696.749-2.552.045-.07.094-.069.145-.006-.014.799-.307 1.525-.593 2.251a.53.53 0 0 1-.3.307z" fill="#9f4c3a"/><path d="M8.861 29.821l.015 1.334c-.075.076-.116.21-.268.155l-.065-.175c-.015-.49-.136-.984.053-1.467a.87.87 0 0 1 .135-.033c.14-.005.208.039.129.186z" fill="#31655f"/><path d="M13.674 8.035a7.29 7.29 0 0 1 .826-2.111c-.12.812-.377 1.574-.825 2.267-.045-.034-.061-.069-.046-.104s.03-.052.045-.052z" fill="#af513c"/><path d="M12.92 11.19l1.799-1.954.012.011c-.415.822-.957 1.528-1.805 1.95l-.005-.006z" fill="#a24d3b"/><path d="M13.674 8.035l.001.156c-.37.752-.74 1.505-1.346 2.106l-.01-.008c.332-.823.818-1.554 1.355-2.253z" fill="#9f4c3b"/><path d="M35.922 19.436c-.191-.571-.376-1.146-.932-1.489l.005.009c-.027-.03-.039-.062-.037-.096s.007-.053.014-.053l.183-.015c.472.113.591.528.765.896.031.061.067.119.109.174l.026.245c.041.144.151.315-.132.328z" fill="#e06f58"/><path d="M35.923 19.436c.111-.082.118-.206.132-.328.275.858.485 1.719.148 2.611l-.157-.627c.046-.247.011-.497.026-.746-.009-.31-.039-.617-.15-.91z" fill="#df6f5a"/><path d="M27.639 7.435c-.15.056-.139.197-.165.317l-.954-1.506a.14.14 0 0 1 .215-.008c.205.192.334.456.583.604l.321.592z" fill="#f0b8ae"/><path d="M33.038 18.699c-.528-.481-.86-1.112-1.269-1.685.518.489 1.125.909 1.271 1.682l-.002.002z" class="W"/><path d="M10.822 6.689l.154.002c-.251.576-.425 1.195-.898 1.65h-.151c.3-.55.492-1.158.895-1.652z" fill="#ae4d3c"/><path d="M34.389 23.8c-.126-.068-.146-.188-.158-.314.053-.703-.035-1.396-.141-2.087.05-.072.1-.072.151 0 .205.169.147.406.149.621l-.001 1.78z" fill="#9e4c3b"/><path d="M9.622 26.503c.552.273.788.866 1.275 1.205-.527-.114-1.079-.661-1.274-1.207l-.001.002z" class="X"/><path d="M36.174 22.149l.025 1.183c.006.162-.066.354.138.459l.008.162-.003.001c-.056.043-.105.095-.154.145-.114.033-.221.159-.342.076-.095-.066-.057-.178.014-.254.254-.269.154-.606.186-.919.028-.286-.106-.598.128-.853z" fill="#e87764"/><path d="M26.256 12.545c.012.049.014.099.006.149-.037.055-.031.104.018.149v.005c.14.311.028.455-.301.454v-.002c-.041-.058-.095-.105-.141-.159l-.006-.003c-.05-.045-.093-.096-.13-.152l-.003-.009c.116-.256.003-.608.329-.791l.229.36z" fill="#983e2d"/><path d="M15.183 8.043c.3-.619.313-1.317.539-2.063.143.814-.039 1.455-.397 2.06a.07.07 0 0 1-.142.003z" class="V"/><path d="M28.985 11.193l.287-.15.488 1.197c.031.146-.027.192-.166.143-.219-.388-.492-.749-.61-1.189z" fill="#f9d9d0"/><path d="M26.431 9.556l-1.354-1.51.009-.01c.638.192.922.777 1.346 1.208.089.104.086.209-.001.312z" fill="#914939"/><path d="M26.431 9.556l.001-.312c.265.543.628 1.049.54 1.732l-.541-1.42z" fill="#ab4f3a"/><path d="M13.674 5.638c-.08.585-.296 1.103-.747 1.505l-.006-.005c.072-.59.446-1.027.755-1.498l-.002-.002z" class="Y"/><path d="M8.281 28.001c.393.281.835.506 1.106.948-.368-.111-.904-.514-1.266-.945.052-.074.105-.072.16-.003z" fill="#bb523d"/><path d="M13.829 3.691l.152.152-.226.179c-.127.082-.26.143-.393.005-.095-.099-.141-.23-.042-.323.133-.123.228-.446.502-.164l-.014.059c0 0-.052.03-.052.03l.061.001a4.23 4.23 0 0 1 .011.06z" fill="#962635"/><path d="M8.862 29.821l-.129-.185c.2-.204.506-.137.727-.288.088-.075.209-.055.305-.106l.157-.027c.054.032.074.067.061.105s-.029.059-.046.059c-.316.25-.661.43-1.075.442z" fill="#87d6c1"/><path d="M30.11 15.216l.912.96c-.491-.15-.805-.46-.912-.96z" fill="#a64f3a"/><path d="M8.281 28.001l-.16.003c-.261-.43-.749-.69-.903-1.2l.161-.003c.248.439.771.672.903 1.2z" fill="#ae503b"/><path d="M23.873 10.882c-.514.165-.834-.2-1.2-.439.051-.066.107-.067.166-.011.403.016.739.186 1.034.45z" fill="#f68358"/><path d="M12.328 10.296c-.099.496-.51.794-.757 1.196-.053.062-.106.061-.158-.002.207-.472.478-.896.906-1.203z" fill="#9f4c3b"/><path d="M25.078 8.045c-.419-.128-.765-.371-1.068-.684.422.122.842.249 1.077.674l-.009.01z" fill="#93493c"/><path d="M10.911 9.869c.103-.38.429-.58.67-.854-.017.437-.369.626-.67.854z" fill="#b4523a"/><path d="M33.638 19.75c-.37-.253-.498-.645-.601-1.051l.002-.002c.41.23.593.59.6 1.051l-.002.002z" class="W"/><path d="M26.279 10.743c.223.325.484.632.472 1.062-.391-.245-.429-.701-.63-1.062.053-.063.106-.062.158 0z" fill="#9b4b3a"/><path d="M29.737 17.798l-.298-.376c-.062-.076-.108-.15-.002-.227.323.239.674.454.752.899l-.002.002c-.049.047-.099.045-.149.002l-.002-.002c-.044-.055-.095-.104-.148-.15l-.15-.149z" fill="#b14f3d"/><path d="M15.183 8.043l.142-.003c-.023.489-.21.896-.594 1.206.038-.449.392-.769.453-1.203z" fill="#9d4b3a"/><path d="M22.556 3.314c-.244-.13-.634.064-.814-.455.352.137.625.203.814.455z" fill="#e8694f"/><path d="M32.28 23.947l-.145.006.027-1.337c0-.014.033-.036.052-.038s.047.015.07.023l-.005 1.346z" fill="#764439"/><path d="M6.334 22.012c.115.063.131.174.136.29l-.021 1.2c-.041.067-.082.067-.122 0l.007-1.489z" fill="#884737"/><path d="M26.735 6.238l-.215.008-.559-.596.186-.164c.112.317.442.463.588.753z" fill="#e7a391"/><path d="M13.981 12.41c-.267.055-.413.437-.758.283.131-.238.295-.433.591-.456.097.018.154.075.167.173z" fill="#e7704a"/><path d="M13.981 12.41l-.167-.173c.12-.183.244-.361.462-.441.042.155-.237.42.156.454-.111.164-.291.137-.452.16z" fill="#f68c5b"/><path d="M23.88 8.793c.327.015.499.254.681.478-.354.024-.524-.218-.678-.482l-.003.004z" class="S"/><path d="M22.839 10.431l-.166.011c-.392-.008-.45-.342-.587-.598.319.109.539.343.753.587z" fill="#f1724e"/><path d="M14.428 2.327c.217-.076.417-.223.739-.159l-.591.47-.149-.311z" fill="#d74e40"/><path d="M26.582 8.492c.273.141.452.346.462.671-.213-.183-.452-.347-.459-.673l-.003.002z" class="T"/><path d="M34.089 20.949c-.198-.204-.222-.474-.353-.859.393.271.33.633.502.86-.05.072-.1.072-.149 0z" fill="#984b3a"/><path d="M36.072 20.346c.157.255.19.505-.026.746-.098-.183-.199-.364-.163-.584l.189-.162z" fill="#e68876"/><path d="M25.075 4.739c.312.01.476.215.609.461.033.026.045.052.034.079s-.021.04-.032.04a.35.35 0 0 1-.008.081c-.257-.169-.498-.353-.603-.66z" fill="#eca08e"/><path d="M36.19 24.541c.166.297-.179.495-.147.766-.128-.02-.256-.062-.185-.222.086-.193.145-.41.331-.544z" fill="#e5a994"/><path d="M6.327 23.501h.122l.021.749c-.007.117-.022.23-.142.291l-.001-1.04z" fill="#864436"/><path d="M19.378 4.593l.002.147h-.885c.284-.196.586-.14.883-.147z" fill="#93463c"/><path d="M11.448 12.38c-.133.389-.273.518-.574.612.125-.304.286-.409.574-.612z" fill="#c2553b"/><path d="M24.185 4.27c-.014.093-.016.22-.119.234-.161.023-.173-.117-.179-.236l-.002-.285c.053-.054.103-.054.15.009l-.007-.007c.079.08.234.118.157.285z" fill="#e6664a"/><path d="M26.279 10.744h-.158c-.191-.104-.347-.237-.452-.563.332.152.488.338.61.563z" class="U"/><path d="M27.635 10.142c-.187-.163-.316-.366-.454-.665.403.119.465.367.454.665h0z" class="X"/><path d="M25.143 9.593c.113.057.211.135.175.274-.02.076-.111.081-.18.049-.09-.042-.163-.111-.149-.22.01-.081.075-.11.154-.103z" class="U"/><path d="M9.937 29.379l-.015-.164c.176-.143.366-.233.6-.157.035.032.046.064.033.096s-.025.046-.037.046c-.179.107-.371.173-.581.18z" fill="#83d4b8"/><path d="M11.413 11.491l.158.002c-.108.185-.214.373-.527.414.067-.226.206-.331.369-.416z" fill="#a8513b"/><path d="M12.926 11.196c-.131.242-.296.439-.601.447v-.001c.132-.24.295-.437.597-.452l.005.006z" fill="#ab4f3d"/><path d="M23.227 3.635c-.019.043-.029.113-.056.119-.16.041-.185-.096-.235-.197-.028-.055-.018-.109.04-.116.141-.018.206.079.251.193z" fill="#e8694f"/><path d="M12.451 7.876c-.04.352-.169.452-.376.55-.023-.26.15-.347.376-.55z" class="V"/><path d="M9.17 21.547c.007-.241.128-.405.402-.539-.017.306-.2.428-.398.542l-.003-.003z" fill="#a64e3c"/><path d="M12.927 7.142c-.013.226-.116.402-.356.656.015-.374.122-.55.35-.661l.006.005z" class="Y"/><path d="M4.476 25.587c-.07.006-.153-.011-.143-.09.007-.053.078-.116.135-.141.068-.03.139.01.142.092s-.049.13-.133.138z" fill="#e77e6f"/><path d="M31.086 26.803l.004-.299.298-.002a.27.27 0 0 1-.302.301z" fill="#a8523c"/><path d="M24.185 4.27l-.157-.285.455.147-.005.161-.293-.024z" class="Q"/><path d="M32.15 22c-.017.065-.007.149-.096.165-.015.002-.057-.061-.061-.096-.017-.148-.009-.29.145-.374l.011.304z" fill="#8d4635"/><path d="M24.626 4.439c.222-.001.382.092.459.307-.214-.01-.379-.095-.459-.307z" fill="#e99d8e"/><path d="M18.325 6.541c-.22.003-.364-.105-.447-.303l-.002.001c.216.001.37.094.453.297z" class="S"/><path d="M29.595 12.382l.165-.143c.156.128.135.304.127.476-.139-.075-.258-.167-.293-.333z" fill="#e98c7c"/><path d="M31.501 16.618c-.024.06-.066.075-.112.03-.031-.031-.047-.078-.07-.117.041-.011.093-.043.12-.029.032.017.042.075.061.115z" fill="#924934"/><path d="M12.325 11.643c-.005.094-.006.194-.11.237a.12.12 0 0 1-.084-.055c.019-.105.101-.151.194-.183l.001.001z" fill="#ab4f3d"/><path d="M11.118 28.918c-.115.163-.285.14-.451.134.106-.195.283-.147.451-.134z" fill="#81ae9c"/><path d="M32.135 14.795c-.093-.062-.27-.088-.168-.252.037-.059.129.019.168.087.086.055.086.11 0 .164z" class="C"/><path d="M32.135 14.796v-.165l.291.02c.008.043.012.087.013.132.052.032.069.064.052.096s-.035.048-.053.048l.003.062-.306-.192z" fill="#e4a695"/><path d="M34.089 20.949h.15l.001.45h-.151v-.45z" fill="#874237"/><path d="M13.676 5.64c0-.046-.007-.095.001-.14.013-.065.037-.127.057-.191.119.06.079.151.039.233-.019.039-.065.064-.099.095l.002.002z" class="Y"/><path d="M17.878 6.238c-.069-.031-.146-.135-.11-.15.174-.071.072.096.108.151l.002-.001z" fill="#ab4d38"/><path d="M11.579 15.096c.147.1.146.199-.001.299l.001-.299z" class="F"/><path d="M18.033 7.89c-.075-.035-.309.068-.15-.172l.15.172z" fill="#f68b60"/><path d="M35.597 24.586c.019.008.05.013.053.024.012.045-.018.067-.074.056-.013-.003-.031-.035-.027-.046s.031-.023.048-.034z" fill="#e5806a"/><path d="M31.63 14.689c-.019-.007-.053-.013-.053-.02-.001-.021.012-.043.02-.064.018.007.053.013.053.02.001.021-.012.043-.02.064z" class="C"/><path d="M8.572 18.249c.033-.065.137-.141.149-.109.065.172-.1.066-.152.106l.003.003z" fill="#a44e3b"/><path d="M35.441 26.645c-.011.118-.047.226-.141.306.012-.118-.005-.249.141-.306z" class="R"/><path d="M9.764 29.242c-.078.102-.188.114-.305.106.079-.101.182-.131.305-.106z" fill="#83d4b8"/><path d="M30.036 12.994c.066.032.143.136.108.149-.172.069-.068-.098-.107-.15l-.001.001z" class="P"/><path d="M10.517 29.199l.004-.142.151-.009-.155.151z" fill="#81ae9c"/><path d="M34.471 28.05l.015.04-.041-.006.026-.034z" fill="#f49d93"/><path d="M31.987 20.951l-.128-.146.128.146z" fill="#e2593e"/><path d="M33.641 19.747l.063.065c-.014-.003-.033-.002-.04-.011-.012-.014-.017-.034-.025-.052l.002-.002z" class="W"/><path d="M34.973 17.808l.023.149-.074-.106c-.002-.003.033-.028.052-.043z" fill="#faf7f3"/><path d="M27.635 10.142l.061.062c-.013-.004-.031-.003-.038-.011-.012-.014-.016-.034-.023-.051h0z" class="X"/><path d="M24.477 4.29c.086.018.135.071.154.155-.09-.013-.142-.064-.154-.155z" class="Q"/><path d="M24.035 3.993l-.15-.009c-.03-.033-.04-.065-.027-.095s.025-.045.037-.045c.046-.006.091-.007.137-.003l.003.152z" fill="#eea48d"/><path d="M23.894 3.844a.89.89 0 0 0-.005.139c-.112-.051-.107-.097.005-.139z" fill="#e86856"/><path d="M13.974 3.536l-.146.154-.023-.028c-.032-.05-.024-.093.022-.129l-.005.006.152-.003z" fill="#962635"/><path d="M36.481 59.532c.031-.12.096-.243.089-.362-.078-1.342.059-2.679.104-4.016l.24-4.912.19-3.616.38-5.051c.054-.39.025-.792.058-1.187l.419-4.9.032-.598.16-3.507c.009-.209.019-.403.258-.483.168.293.191.616.191.942l-.032 4.493-.157 3.722-.291 5.071c.001.244-.081.489-.124.733.051.252-.013.503.003.755v.14c.044.056.043.11-.005.164l-.234 3.864-.112 5.04-.115 2.536-.104 7.587c.049.791-.171 1.572-.152 2.369.004.172-.137.454-.385.496-.281.047-.355-.213-.465-.406-.106-.186-.106-.385-.087-.583.092-.979.082-1.962.094-2.943l.042-4.162c-.273-.397-.275-.792.003-1.187z" fill="#214744"/><path d="M36.48 59.532l-.003 1.187c-.384.214-.674-.128-1.014-.171-.011-.613-.059-1.228.113-1.83.408.152.575.573.904.813z" fill="#7fd3c5"/><path d="M38 46.617c-.149-.251-.25-.502-.003-.755a.54.54 0 0 1 .003.755z" fill="#306a63"/><path d="M38.311 52.85c-.089.009-.137-.047-.135-.12.002-.062.029-.16.07-.176.111-.043.169.038.175.143.004.072-.036.129-.11.154z" fill="#579f7d"/><path d="M35.384 64.788c-.029.025-.059.073-.089.073-.079-.001-.113-.06-.081-.129.012-.027.078-.051.109-.042s.041.064.061.099z" fill="#5c9b74"/><path d="M37.996 46.921l.005-.164c.095.057.092.112-.005.164z" fill="#306a63"/><path d="M8.609 31.311l.268-.155c.319 3.031.112 6.071.147 9.107l.013 3.672.261 5.549c.099.964.019 1.947.018 2.922l-.004 3.437.012 3.885-.039.822c-.038.313-.222.492-.555.483-.055.05-.114.056-.179.023-.163-.185-.158-.432-.242-.646-.02-.063-.031-.128-.034-.194l.009-.098c.183-.324.136-.684.137-1.028l-.018-7.714c-.038-1.166.126-2.33-.005-3.488-.232-2.041-.155-4.089-.101-6.13l.196-5.638c.055-.916.148-1.86.011-2.802-.081-.552.059-1.136.099-1.706.032-.053.033-.106.003-.16a.39.39 0 0 1 .006-.14z" fill="#204845"/><path d="M8.39 60.249c.183.222.152.506.224.76a4.58 4.58 0 0 0-2.829 1.16c-.56.51-1.104.907-1.768 1.24-.473.237-.886.644-1.143 1.149-.096.188-.244.341-.014.59s-.127.829-.331.673c-.503-.385-.753.271-1.144.156-.027-.116-.05-.234-.165-.301-.102-.611-.243-1.215-.265-1.839-.005-.149-.071-.32.006-.441.461-.723.676-1.57 1.398-2.17.918-.762 1.917-1.212 3.068-1.448 1.004-.206 1.926.029 2.854.339l-.003-.001c.033.048.069.093.112.132z" fill="#df8251"/><path d="M3.028 52.349c.142-.203-.073-.348-.091-.54.259-.125.438.191.681.126.28-.076.358.129.373.323.022.296.228.182.375.21l.006.006.001.291c-.444-.151-.869-.363-1.344-.415zm2.24.421c.483.011.352.326.299.603-.295-.023-.459-.231-.622-.44.127-.016.255-.031.323-.163z" class="Z"/><path d="M3.224 39.753c.019-.042.028-.108.059-.12s.081.03.123.049c-.019.042-.027.108-.058.12s-.082-.03-.124-.049z" fill="#599e78"/><path d="M4.374 52.767c.116.004.224.026.29.136-.121.007-.227-.019-.29-.136z" class="Z"/><path d="M8.602 31.451c.015.037.034.074.04.112.002.013-.028.031-.043.048l.003-.16z" fill="#31655f"/><path d="M28.083 52.023a.61.61 0 0 1 .134.009c.04.202.162.3.369.289l1.642-.071c1.238-.125 2.486-.187 3.718.1.065.015.119.076.227.149-.717.445-1.494.573-2.256.713l-3.018.451c-.18.024-.34.067-.482.176-.106-.008-.129-.11-.191-.168-.359.12-.726.153-1.104.151-.843-.005-1.691.125-2.521.096-.726-.025-1.491.005-2.208-.238-.083.048-.151.031-.202-.049.174-.434.583-.507.962-.622 1.271-.383 2.599-.47 3.889-.752.095-.013.21-.039.282.024.409.359.636.211.759-.257z" fill="#ee6689"/><path d="M25.251 68.537c-.084.266.078.668-.395.719l-.668-.882c-.26-.129-.297-.419-.452-.625-.628-1.426-.87-2.971-1.36-4.439-.114-.161-.371.008-.465-.201.139-.133.32-.154.486-.123.59.11 1.112-.096 1.634-.319.082-.08.223-.043.293-.147l.005-.003c.058-.041.109-.091.162-.138l.154-.156c.091-.03.245-.086.258.013.054.391.113.792-.252 1.101-.301.255-.526.599-.908.76-.233.099-.384.273-.282.526.183.454.198.98.564 1.357.218.232.11.454-.02.675-.071.133-.048.278-.048.519.004-.21-.003-.321.027-.431.045-.056.103-.087.173-.096.661.458.849 1.189 1.092 1.888z" fill="#b6375a"/><path d="M34.964 52.789c.083-.124.174-.254.322-.289.295-.07.605-.348.897-.071.284.27.003.555-.096.805-.206.516-.357 1.066-.765 1.479-.179-.63-.261-1.278-.358-1.924z" fill="#80d4c6"/><path d="M22.251 53.653a.71.71 0 0 1 .142.026c.295.507.011.946-.189 1.377-.142.306-.354.579-.535.867-.314-.139-.574.011-.834.157l-.047.008-.048-.005c-.416-.291.073-.32.136-.473.541-.562.938-1.214 1.223-1.936.041-.074.093-.079.152-.022z" fill="#b73a59"/><path d="M31.264 68.791c-.026.124-.033.258-.161.333-.047-.317-.059-.728-.392-.812-.349-.088-.508.311-.696.557a2.47 2.47 0 0 0-.228.378c-.296.585-.293.584-.79.119-.175-.164-.314-.392-.601-.382-.303.166-.026.564-.298.743-.027-.341-.187-.76.172-.965.405-.231.671.17.959.389.039.03.086.05.155.089.269-.221.36-.584.603-.826.207-.206.432-.49.741-.426.383.08.538.413.537.803z" fill="#f8a3b8"/><path d="M27.807 60.719c.005-.328.138-.579.463-.672.337-.096.536.148.758.345.298.265.336.717.699.928.062-.037.118-.033.169.021.028.064.026.127-.004.19-.108.127-.198.281-.398.282-.367-.204-.438-.626-.677-.927-.226-.285-.439-.361-.723-.106-.108.035-.207.031-.288-.061z" fill="#f38fa9"/><path d="M33.795 54.419c.192.131.105.298.066.466-.203.88-.679 1.633-1.111 2.407-.118-.033-.193-.109-.221-.229.242-.925.804-1.721 1.065-2.639.066-.046.133-.05.201-.005z" fill="#f797b2"/><path d="M22.69 57.265c.144-.424.441-.87-.162-1.192.17-.346.371-.229.569-.034.177.175.127.473.334.634.042.05.058.106.048.17-.025.123-.073.239-.129.351-.092.172-.186.342-.386.411-.066.018-.129.013-.19-.018a.38.38 0 0 1-.133-.146c-.019-.069-.004-.128.05-.177z" fill="#ba385a"/><path d="M31.262 51.705c.195-.169.261-.39.308-.639.028-.154.108-.35.318-.365.242-.017.235.204.303.353.096.211.109.429.082.653l-1.011-.002z" fill="#77d1c0"/><path d="M31.258 61.065c-.117.757-.519 1.433-.629 2.192-.055.099-.099.21-.237.222a.26.26 0 0 1-.157-.161c.119-.934.31-1.843.883-2.625.234.054.201.208.14.373z" fill="#f793ad"/><path d="M26.146 65.548c.071.763-.274 1.466-.32 2.212-.058.1-.096.223-.244.224-.077-.034-.129-.092-.155-.172-.003-.888.285-1.719.503-2.564.066-.064.138-.074.218-.027h-.005c.074.108.073.217.004.327z" fill="#f794af"/><path d="M31.522 57.432c-.651-.553-.925-1.291-1.038-2.109.058-.053.126-.074.204-.066.436.674.748 1.408 1.03 2.156-.059.066-.124.072-.195.018z" fill="#f795ad"/><path d="M31.992 54.572c.252.011.252.011.308-.408.028-.08.081-.141.151-.187l-.006.006c.039-.062.094-.111.147-.16l-.001.002c.061-.062.127-.068.199-.02.101.067.16.157.152.283-.047.246-.194.451-.28.681-.091.244-.137.611-.482.55-.362-.064-.491-.37-.382-.741.062-.068.127-.07.195-.006z" fill="#f799b2"/><path d="M27.481 55.469c-.328-.429-.45-.978-.935-1.466.467.067.581.32.721.564.124.215.121.55.48.571.114.005.131.105.175.178-.013.157.047.34-.153.431l-.145-.119.006.005c-.043-.061-.092-.116-.15-.163z" fill="#f07f9c"/><path d="M31.992 54.572l-.2.014c-.544-.262-.931-.136-1.126.46-.067.037-.128.029-.184-.022-.123-.105-.044-.227-.022-.338.164-.809.484-.955 1.219-.561.056.05.11.103.154.164l.158.284z" fill="#f799b1"/><path d="M24.026 56.372c.261-.032.49-.19.765-.174.317.018.577.085.573.479-.051.05-.113.076-.184.08-.455-.185-.857.091-1.284.151-.115-.019-.195-.081-.236-.192-.003-.078.028-.138.092-.181l-.013.007c.064-.109.216-.069.286-.169z" fill="#f799b2"/><path d="M33.354 64.603c.433.979.434.982.334 1.62-.266-.444-.342-.958-.473-1.452.041-.06.049-.148.139-.168z" fill="#f9a7bd"/><path d="M27.807 60.719h.255c.327.448.333.947.237 1.463a.15.15 0 0 1-.221.045c-.355-.456-.324-.98-.271-1.509z" fill="#f27b99"/><path d="M24.784 59.675c-.248.208-.253.592-.552.763-.056.059-.12.068-.19.029-.032-.662.27-1.164.756-1.578.076-.014.139.011.19.069.017.143.049.288-.05.417l-.002.004c-.095.076-.066.215-.151.296z" fill="#f89eb7"/><path d="M27.923 55.315l-.175-.178.362-1.152.106-.178a1.06 1.06 0 0 0 .009-.138l.191.168c-.062.527-.329.984-.493 1.477z" fill="#f797b2"/><path d="M29.912 61.493l-.184-.172c.235-.492.369-1.054.919-1.329.105.036.185.096.192.218-.273.454-.489.949-.927 1.284z" fill="#f78da9"/><path d="M30.305 64.013c-.014.401-.227.735-.375 1.09-.042.101-.136.234-.27.163-.119-.063-.07-.218-.086-.335.01-.102.044-.195.087-.286.145-.263.137-.608.421-.798.134-.024.182.066.223.166z" fill="#f78fac"/><path d="M32.596 57.124l.154.168-.279.661c-.096.214-.267.257-.479.194a.35.35 0 0 1-.135-.132l-.003-.007c-.068-.108 0-.178.068-.248.263-.171.31-.572.674-.637z" fill="#f8a2b9"/><path d="M28.993 64.173l-.632-1.053c-.045-.161-.237-.283-.126-.483a.36.36 0 0 1 .21-.028 2.51 2.51 0 0 1 .772 1.397c-.03.115-.079.205-.224.167z" fill="#f688a4"/><path d="M34.078 62.359c-.445.083-.613.482-.877.771-.041.068-.085.069-.13.004.056-.52.388-.786.855-.927.153-.052.189.014.151.152z" fill="#f89bb2"/><path d="M25.38 57.721c.048.349-.046.656-.268.927-.121-.018-.201-.089-.254-.196-.04-.344-.015-.668.278-.911.143-.024.178.099.244.18z" fill="#f6839f"/><path d="M25.68 67.932l.146-.172c-.004.476.095.974-.291 1.369l-.137.004.261-.917c-.05-.099-.071-.196.022-.284z" class="B"/><path d="M31.258 61.065c-.019-.123-.029-.249-.137-.336-.173-.205-.169-.443-.126-.688.042-.105.141-.145.23-.196.332.397.185.808.034 1.219z" fill="#f688a5"/><path d="M20.835 56.08c.116-.12.215-.264.35-.356.238-.162.403-.066.483.198-.016.043-.021.088-.017.135l-.817.023z" fill="#629287"/><path d="M33.795 54.419c-.043.006-.087.009-.13.009-.232-.182-.415-.401-.515-.682.134-.208.304-.178.486-.074.263.205.329.451.159.747z" fill="#f6839f"/><path d="M24.174 65.82c.197-.304.27-.69.595-.91.06.051.094.116.102.195-.083.413-.213.801-.578 1.062-.209-.057-.21-.186-.12-.346z" fill="#f16f8f"/><path d="M25.38 57.721l-.174-.172a.67.67 0 0 1 .004-.872l.155-.001c.26.345.112.695.015 1.045z" fill="#f8a5be"/><path d="M28.993 64.173l.155-.163c.427.093.486.462.596.794l-.171.127c-.319-.157-.453-.455-.58-.758z" fill="#f17597"/><path d="M25.389 64.35c.641-.182.641-.182.765.425-.048.044-.105.061-.169.057-.175-.063-.328-.172-.495-.251-.079-.057-.144-.121-.101-.231z" fill="#ef8ea5"/><path d="M34.078 62.359l-.152-.152c.59-.171.56.335.852.751-.426-.161-.435-.524-.701-.599z" fill="#f37596"/><path d="M23.855 61.177l-.296-.009c-.145-.39.097-.546.401-.665a.32.32 0 0 1 .207.068c-.059.225-.173.422-.311.606z" fill="#f795af"/><path d="M33.636 53.672c-.162.007-.333-.022-.457.123-.044.156-.12.255-.301.173l-.15-.166c-.037-.051-.029-.093.025-.126.294-.026.587-.392.883-.004z" fill="#f9aaba"/><path d="M25.389 64.35l.159.135c-.097.401-.359.595-.764.611l-.015-.185c.146-.254.341-.454.621-.56z" fill="#f68ba3"/><path d="M33.354 64.603l-.139.168c-.068-.246-.198-.478-.16-.747.052-.063.063-.161.159-.187.174.233.111.508.14.766z" fill="#f9abc4"/><path d="M24.173 65.82c.009.122.026.24.15.305.139.311-.09.452-.282.61l-.005.001c-.055.062-.105.062-.151-.01.017-.254.19-.478.141-.744l.147-.162z" fill="#df6081"/><path d="M33.214 63.837l-.159.187c-.046-.298-.086-.595.015-.89l.13-.004.014.707z" fill="#f9b0c4"/><path d="M32.012 57.851l-.158.158c-.23-.123-.298-.34-.331-.577l.16-.01c.22.059.353.183.33.428z" fill="#f6849f"/><path d="M31.225 59.846l-.152.142c-.076.097-.126.252-.298.131l-.128-.128c.164-.161.353-.225.578-.145z" fill="#f9afc8"/><path d="M28.234 62.678l.127.442c-.259-.125-.29-.353-.272-.603.056-.046.114-.046.173-.006.037.064.026.118-.028.166z" class="B"/><path d="M25.987 64.778l.167-.002c.202.152.054.298-.007.445a1.19 1.19 0 0 1-.139.014c-.154-.146-.15-.298-.021-.457z" fill="#f682a0"/><path d="M30.305 64.013l-.127-.149c-.113-.134-.061-.241.056-.337.065-.018.131-.022.198-.015l.089.046-.215.455z" fill="#f8a6be"/><path d="M28.214 62.534c-.043 0-.085-.005-.126-.017l-.012-.29.15.003c.154.056.231.155.176.324-.068.039-.131.03-.189-.021z" fill="#f794b4"/><path d="M24.957 58.487l.155.162-.036.258c-.042.094-.092.098-.148.011l.011.009c-.131-.152-.134-.299.017-.44z" fill="#f9b0c7"/><g class="G"><path d="M24.928 58.918c.05.007.099.004.148-.011.003.171.037.351-.14.469l-.008-.458z"/><path d="M24.783 59.675c.005-.122.045-.226.151-.296-.005.122-.032.232-.151.296zm-.757-3.303c-.061.114-.164.158-.286.169.05-.134.161-.163.286-.169z"/></g><path d="M30.482 55.023l.124.004c.107.083.119.181.047.293l-.17.003-.002-.3z" fill="#f8a6bb"/><path d="M30.468 63.433l.161-.176c.005.115.001.227-.109.301l-.078.03c-.034-.059-.026-.111.026-.156z" class="B"/><path d="M26.146 65.548l-.004-.327c.167.107.126.217.004.327z" fill="#f682a0"/><path d="M32.754 53.675l-.025.126a.77.77 0 0 1-.138.023l.163-.15z" class="B"/><path d="M28.216 53.808c.001.081-.038.138-.106.178l.106-.178z" fill="#ee6689"/><path d="M32.451 53.978l-.151.186a.22.22 0 0 1 .151-.186z" class="B"/><g fill="#f89eae"><path d="M27.481 55.469l.15.163c-.096-.012-.14-.072-.15-.163z"/><path d="M27.625 55.627l.145.119c-.088.009-.139-.028-.145-.119z"/></g><g class="G"><path d="M23.753 56.534l-.014.154-.084.038-.075-.054.172-.138z"/><path d="M23.418 56.815c.008-.047.013-.094.013-.142l.149-.002.019.023c.002.07-.028.121-.09.154l-.092-.033z"/></g><path d="M31.857 58.016l.135.132a.15.15 0 0 1-.135-.132z" fill="#f6849f"/><path d="M24.166 60.571c-.046-.001-.092.001-.138.005-.042-.062-.027-.11.037-.145l.166.008c-.015.048-.037.092-.065.132z" fill="#f9afc5"/><path d="M11.69 62.244c.087-.724-.106-1.448.017-2.179l.233-1.088c.045-.184.118-.418.351-.438.262-.023.392.194.478.401l.539 1.388.788 2.478-1.919-.397-.161-.006c-.169.07-.294.051-.325-.159z" fill="#81d4c8"/><path d="M24.066 60.431l-.037.145c-.236.135-.402.325-.469.593l-.409-.006c-.304-.167-.428-.458-.529-.765.003-.073.031-.135.083-.186.664-.255 1.367-.479 1.169-1.437-.144-.394-.302-.779-.641-1.053-.119-.211.04-.365.112-.537.026-.059.064-.11.109-.155.129-.093.285-.132.422-.21l.599-.287c.282-.136.521-.058.736.146l-.004.872c-.161.291-.185.62-.25.937-.064.144-.034.292-.017.44-.501.379-.596.995-.874 1.504z" class="G"/><path d="M22.251 53.652l-.152.021c-.046-.191.132-.379.009-.571 1.33-.535 2.728-.774 4.142-.933.226-.026.447-.048.652-.151.054-.043.113-.053.177-.025.104.087.194.178.112.329-.576.423-1.28.302-1.922.43l-2.314.508c-.257.065-.519.171-.703.392z" fill="#cf4163"/><path d="M22.809 61.014c-.234.192-.489-.027-.73.037-.471-.001-1.018.313-1.337-.321l-.033-.289c-.054-.117.014-.188.097-.253-.015-.152.439.111.205-.234.37-.254.783-.076 1.174-.12.162.165.363.3.418.547.083.206.338.356.205.632z" fill="#b53a59"/><path d="M9.171 65.229c.132-.356.494-.233.731-.296.404-.107.555-.092.54-.415-.014-.308.105-.345.33-.337.438.016.871.049.839-.604-.003-.071.172-.027.264.001.183.271.405.037.608.051.137.009.23.098.223.243-.006.131-.129.123-.221.152-.243.078-.514-.207-.755.108s-.265.333.102.68c-.221.187-.479.091-.709.117-.031-.179.074-.396-.168-.556-.287.282-.217.845-.796.917-.351.044-.666.121-.988-.061z" class="a"/><path d="M6.169 67.48c.02-.174-.191-.39-.058-.489a2.49 2.49 0 0 1 .846-.394c.296-.075.61.042.657-.478.022-.239.205.154.358.16.496.16.466.531.415.93-.295-.004-.208-.274-.337-.373-.247.012-.203.327-.402.387-.087.006-.116-.06-.159-.118-.306-.406-.49-.428-.779-.062-.151.191-.233.446-.54.436z" class="b"/><path d="M22.518 57.563c-1.16.3-2.345.519-3.425 1.075-.163.054-.195-.023-.164-.163 1.091-.703 2.246-1.185 3.584-1.034.04.026.054.052.042.08s-.024.042-.037.042z" fill="#985635"/><path d="M21.912 63.11c.172.028.377-.021.465.201-.838.186-.877.345-.816 1.289.018.292.091.575.036.862-.29.012-.354-.18-.375-.338-.059-.441-.126-.882-.048-1.333.074-.43.28-.684.738-.681z" fill="#8e5232"/><path d="M23.873 58.775c.294.695.214.968-.377 1.318-.24.142-.494.208-.772.182-.158-.051-.279-.127-.216-.325.074-.364.419-.328.653-.384a.84.84 0 0 0 .599-.493l.113-.164c-.004-.045-.004-.089 0-.134z" fill="#ba385b"/><path d="M20.876 55.61c.015.175-.333.245-.136.473-.587.004-1.069.386-1.639.454-.097.066-.225.043-.32.113l-.284.038c-.158.061-.195-.008-.16-.151.037-.018.076-.027.118-.027.061-.034.119-.073.173-.117.743-.279 1.45-.661 2.248-.782z" fill="#9e5939"/><path d="M20.876 61.318c-.399.046-.569.331-.677.667l-.231.834c-.29.013-.207-.157-.154-.313.001-.668.087-1.286.88-1.485.161.037.243.123.182.297z" fill="#a05d3a"/><path d="M20.876 61.318l-.181-.297.047-.291c.381.378.872.294 1.337.32-.38.183-.815.121-1.203.268z" fill="#7e8369"/><path d="M20.879 60.272l-.169.168c-.212-.038-.402.029-.586.126-.061-.042-.145-.06-.159-.151.211-.347.585-.347.919-.435.085.099.084.196-.005.291z" fill="#ba6946"/><path d="M4.814 68.069c.224-.581.224-.581.905-.289l-.905.289zm3.757-2.09c.247.029.468.113.639.312-.366.111-.366.111-.638-.312h0z" class="b"/><path d="M22.809 61.014l-.263-.59c.047-.072.093-.072.139.002.311.148.294.502.465.738-.138.007-.259-.026-.341-.149z" fill="#f59caf"/><path d="M23.436 57.119c.015.229-.148.397-.203.602l-.403-.012c-.035-.03-.046-.06-.035-.09s.023-.044.035-.044c.242-.063.265-.344.457-.458.05-.049.1-.046.149.002z" fill="#e58ba3"/><path d="M23.736 67.75c.247.138.334.393.452.625-.131.066-.15.191-.164.318-.184-.288-.227-.618-.287-.943z" fill="#6e9280"/><path d="M19.815 62.507c.02.12.032.243.154.313-.007.147.007.347-.191.335-.152-.009-.087-.196-.091-.308a.45.45 0 0 1 .129-.34z" fill="#b36b42"/><path d="M6.019 67.78l.001-.15c.091.026.191.038.272.083s.165.154.106.235c-.125.171-.188-.009-.266-.077l-.112-.09zm2.102-1.8c.194-.24.456-.31.75-.301l-.3.3h0l-.45.001z" class="b"/><path d="M18.929 58.474l.164.163c-.131.141-.279.245-.527.242.056-.218.19-.327.363-.406z" fill="#ae673f"/><path d="M22.685 60.425l-.139-.002c-.144-.181-.319-.343-.359-.588l.321.114.216.325-.039.151z" fill="#f7aabb"/><path d="M20.879 60.273l.005-.291c.042-.015.084-.024.128-.027.086.022.229.021.21.13-.029.171-.199.176-.343.188z" fill="#8f4835"/><path d="M22.83 57.576v.134c-.133.012-.241-.028-.312-.147.002-.041 0-.082-.005-.122l.178-.175a.17.17 0 0 1 .007.108c.017.085.068.148.133.201v.001z" fill="#f79196"/><path d="M19.966 60.416l.159.151c-.106.02-.142.237-.25.145-.084-.072-.016-.218.092-.295z" fill="#aa5b39"/><path d="M11.097 65.053c-.006.009-.042.064-.086.112-.004.004-.056-.035-.086-.055.044-.051.084-.107.133-.152.062-.057.085-.039.038.095z" class="a"/><path d="M18.336 56.537l.16.151c-.067.081-.16.154-.245.067-.094-.094-.017-.172.085-.218zm.444.113c.08-.112.195-.127.32-.113-.085.098-.193.132-.32.113z" fill="#ac6843"/><path d="M24.324 62.521c-.06.123-.166.155-.293.147.066-.112.172-.144.293-.147z" fill="#f57967"/><path d="M18.627 56.393l-.173.117.173-.117z" fill="#ac6843"/><path d="M23.874 58.908l-.114.164.114-.164z" class="G"/><g class="a"><path d="M12.023 64.328l.034-.062.028.028-.063.034z"/><path d="M12.023 64.328l-.034.063-.028-.028.062-.034z"/></g><path d="M27.017 52.033a.53.53 0 0 1-.116-.015l-.918-1.789c-.52-1.254-.289-2.433.288-3.592-.104-.329.15-.559.231-.838.448-.55.391-1.278.668-1.888 0-.05.004-.099.013-.148.071-.783.374-1.471.784-2.138.483-.785.76-1.668 1.058-2.539.103-.3.11-.721.587-.746.408.413.456.978.621 1.492l.301.999c.052.157.079.388.297.368s.198-.257.238-.416c.196-.771.353-1.55.42-2.345.021-.243-.014-.505.204-.69.184.537.421 1.066.229 1.654-.062.189.029.279.2.32.025.006.048.014.072.02.6.164 1.176.414 1.365 1.05.221.744.244 1.504-.081 2.259-.285.665-.677 1.218-1.3 1.584-.282.166-.377.341-.263.671.28.811-.06 1.479-.603 2.04-.695.718-1.498 1.343-2.371 1.802-.933.491-1.133 1.431-.946 2.21.041.172.088.337.065.515-.285.473-.663.325-1.043.157z" fill="#9db1c3"/><path d="M31.694 37.75c.079 1.184-.292 2.307-.482 3.454-.027.16-.079.376-.287.392s-.387-.112-.464-.312c-.089-.23-.144-.473-.215-.71l-.66-2.213c-.284-.716.075-2.316.605-2.702.512.247.973.528 1.125 1.149.047.194.252.349.385.521l-.006.421z" fill="#a4bacc"/><path d="M27.017 52.033c.349-.042.721.059 1.043-.157.016.048.023.096.022.146l.06.429c.041.213-.099.316-.248.394-.187.097-.235-.09-.329-.188-.116-.12-.249-.224-.374-.335l-.174-.289z" fill="#b69eb9"/><g class="Z"><path d="M5.337 52.788c-.2-.046-.374.045-.445-.147-.01-.026.03-.099.057-.106.193-.046.229.133.387.252zm-.972-.32l.003-.147.001-.001c.106.018.27.007.232.161-.028.113-.15-.001-.23-.008l-.006-.006z"/><path d="M4.368 52.32c-.021-.012-.061-.027-.06-.034.011-.05.035-.038.06.033h-.001z"/></g><path d="M30.19 35.659c-.356.866-.522 1.775-.605 2.702-.308.261-.337.653-.45.999-.358 1.085-.777 2.139-1.43 3.087-.158.23-.244.486-.222.772.019.243-.06.44-.3.545-.203-1.19-.827-2.234-1.163-3.379-.432-1.472-.032-2.738.875-3.908.633-.817 1.446-1.198 2.471-1.092.269.028.524.172.807.117l.018.157z" fill="#b6aeb9"/><path d="M31.764 30.598c-.113-.094-.197-.202-.167-.354.011-.054.072-.056.115-.012.105.107.175.22.053.366z" fill="#7fd3bc"/><path d="M35.442 34.908c.071.014.15.013.211.046s.148.125.137.146c-.071.138-.16.048-.227-.012-.052-.047-.082-.118-.122-.178l.001-.001z" fill="#75d0bf"/><path d="M34.001 34.377c-.039.01-.089.04-.115.026s-.056-.075-.051-.109c.009-.057.062-.07.104-.028.029.029.042.073.062.111z" fill="#69ccb8"/><path d="M35.44 34.909c-.021-.012-.061-.027-.059-.034.011-.05.035-.039.061.033l-.001.001z" fill="#75d0bf"/><g fill="#ea8958"><path d="M11.69 62.244l.325.159c-.263.176-.497.417-.868.302-.126-.039-.254-.006-.215.182.085.418-.155.555-.503.534-.473-.029-.536.24-.506.607-.552.073-.264-.295-.252-.558-.307.045-.443.247-.518.477-.074.224-.091.423-.423.268-.144-.068-.744-.204-.873-.318-.164.121.006.201.033.3.065.237.027.426-.271.288-.304-.141-.462-.11-.641.211-.105.188-.335.308-.691.226-.28-.064-.689.186-1.047.235-.332.045-.598.545-1.001.154-.045-.044-.128.047-.155.121l-.149.423c-.082.338-.22.497-.555.23-.035-.028-.139.029-.21.046h0c-.031-.162.018-.54-.271-.271-.275.256-.545.451-.892.567-.024.008-.024.09-.035.137l-.444-.276-.141-.31.529-.414c.094-.063.228-.155.334-.029.416.491.476-.046.762-.22-.593-.016-.687-.137-.512-.517.347-.752.993-1.23 1.602-1.737.126-.105.332-.192.485-.169.405.059.65.089.591-.484-.023-.225.373-.449.632-.574l2.223-.998c.304-.151.386.136.583.175.04-.002.078.005.114.024.023.381.373.474.613.563.762.279 1.538.531 2.348.649z"/><path d="M3.168 66.129c-.014.07-.015.145-.044.208-.037.08-.1.192-.202.098-.077-.071-.044-.184.045-.243.056-.037.133-.043.201-.063h0zm4.319-1.304c.061-.006.092.021.082.077-.004.022-.023.044-.04.059-.051.042-.105.034-.113-.026-.005-.033.046-.074.072-.11zm2.63-.741c-.012.019-.03.056-.036.054-.042-.012-.089-.024-.121-.051-.064-.055-.049-.079.032-.053.043.014.084.034.125.051z"/></g><path d="M18.174.785c.144.076.176.2.152.349-.072.058-.14.124-.218.172-.19.117-.243.029-.217-.158.15-.077.277-.172.284-.362z" fill="#d2bec2"/><path d="M34.678 16.456l.17-.172c.25.152.467.345.6.606.073.144-.09.119-.16.154-.041-.052-.101-.102-.156-.156l.012.013c-.126-.179-.5-.1-.467-.446z" fill="#efd6d0"/><path d="M36.207 16.726l-.178.182c-.194-.112-.334-.278-.468-.451.323-.17.462.104.646.269z" fill="#edccc1"/><path d="M32.439 14.926l.001-.143c.137.029.305-.031.399.139-.133.142-.268-.016-.4.004z" fill="#e1e4dd"/><path d="M5.426 28.566l.126-.1c.015.105-.037.126-.126.1z" fill="#e07d66"/><path d="M25.686 5.318l-.002-.119c.035.022.1.043.101.066.003.054-.045.072-.098.053z" fill="#e7d8d2"/><path d="M25.987 64.778l.021.457c-.026.921-.375 1.788-.464 2.699.044.043.053.075.028.097-.019.017-.04.026-.064.026l-.258.481c-.352-.403-.553-.895-.787-1.366-.095-.191-.14-.427-.422-.436l.282-.61c.069-.381.313-.684.46-1.03l.764-.61a.41.41 0 0 1 .439.293z" class="B"/><path d="M25.509 68.056a.31.31 0 0 1 .036-.123l.136-.002-.021.284-.15-.16z" fill="#f9a9bf"/><path d="M14.444 28.453c.116-.006.22-.032.274-.151.318-.218.51-.524.619-.888-.061-.258-.044-.516 0-.773.036-.143.047-.284-.038-.418-.051-.116-.071-.229.039-.325.277.121.495.3.589.6.053.052.099.11.158.156l-.005-.009c.081.059.078.113-.01.162-.029.038-.091.085-.084.114.318 1.248-.428 2.007-1.25 2.729l-.404.33c-.209.189-.251.415-.138.677l1.32 3.541c.268.825.678 1.596.878 2.441.011.049.013.113.044.14.809.696.813 1.91 1.715 2.583.387.288.518.94.978 1.192.575.316.996.807 1.486 1.203 1.578 1.272 3.473 1.891 5.239 2.775-.013.299-.266.35-.468.456-2.53.604-4.595-.159-6.297-2.089-1.511-1.714-2.738-3.608-3.738-5.657-.135-.277-.243-.546-.162-.857-.954-2.045-1.331-4.25-1.769-6.436-.099-.498-.066-.853.481-1.015a.89.89 0 0 0 .545-.481z" fill="#df8251"/><path d="M30.183 26.497c.023.07.076.197.066.203-.305.158-.319.591-.665.705-.649-.504-1.236-1.064-1.614-1.809.229-.15.183-.37.182-.6-.007-1.018-.128-2.036.02-3.057.068-.468.011-.943-.076-1.413-.062-.337-.133-.698.18-.976a.48.48 0 0 1 .218-.037c.112.019.213.064.309.124a.82.82 0 0 1 .164.145c.446.564.882 1.134 1.04 1.86.202.688.451 1.365.403 2.099.033.927-.012 1.848-.226 2.755z" fill="#ca533a"/><path d="M28.535 19.598c-.517.153-.323.583-.259.864.095.42.157.84.099 1.25-.134.945.015 1.891-.073 2.83-.027.286.1.524.098.798-.003.389-.212.299-.43.256-.605-1.061-.869-2.187-.79-3.421l.144-4.511c.016-.796-.005-.796.736-1.095.195-.042.298.092.31.236.075.93.317 1.85.166 2.793z" fill="#9a402e"/><path d="M25.835 15.093c.193.721-.182 1.42-.085 2.137.011.082-.062.187-.105.164-.538-.282-.36.205-.45.407-.057.127-.194.136-.304.183-.18.078-.25.226-.256.412-.049.607-.354.572-.754.302h0c-.173-.098-.234.031-.299.149h0c-.258.207-.531.202-.674-.092-.157-.323-.436-.246-.677-.311-.292-.275-.475-.581-.289-.996.553.059 1.121.041 1.628.328.119.09.211.233.387.205-.004-.001.041-.045.041-.045l-.051-.041c-.113-.088-.269-.028-.38-.116-.089-.195-.273-.373-.104-.611a.51.51 0 0 1 .166-.07c.209-.066.207-.383.465-.394.169.015.17.24.365.273.055-.567.077-1.155.642-1.496.231-.153.248-.718.734-.388z" class="c"/><path d="M15.494 26.49c-.06.307.085.649-.158.924l-1.213-1.059c-.06-.389-.028-.818-.449-1.053-.2-.366-.63-.627-.505-1.141.013-.055-.033-.144-.079-.191-.49-.512-.558-1.165-.613-1.821.341-.049.397.235.507.444.367.701.755 1.386 1.222 2.028.338.465.804.809 1.131 1.277-.011.126.026.231.134.305.086.089.088.185.023.287z" fill="#8d3a2c"/><path d="M25.839 25.308c-.976 1.254-2.094 2.347-3.668 2.78-1.211.334-2.454.646-3.695.067.185-.415.508-.186.785-.167 1.158.061 2.27-.107 3.345-.568.603-.259 1.168-.549 1.631-1.025l1.281-1.252c.18-.086.326-.106.322.165z" fill="#8a4f31"/><path d="M28.536 19.598c-.254-.733-.215-1.506-.3-2.261-.03-.262.088-.558-.175-.768l.156-.135c.597.293.688.994 1.14 1.412.17.157.052.386-.139.502-.312.19-.216.519-.054.606.331.177.348.476.417.74.137.524.418 1.007.451 1.56-.537-.393-.713-1.074-1.197-1.509l.004.003c-.081-.092-.22-.067-.304-.152l.001.001z" fill="#cb523b"/><path d="M25.835 15.093c-.198-.009-.385-.019-.397.27-.003.064-.134.122-.206.183l-.08-.054a.94.94 0 0 1-.16-.244c-.028-.061-.049-.124-.067-.189.035-.6-.655-.435-.844-.794-.328.087-.597.621-1.005.138-.004-.005-.002.122-.039.179-.109.143-.271.098-.414.119-.154.024-.241.147-.348.24-.154.095-.292.119-.382-.081.139-.112-.054-.254.034-.372.021-.043.07-.096.059-.128-.134-.38.132-.497.396-.618h0c.145.021.295.078.433.055.182-.029.496-.032.201-.368-.078-.089-.003-.249.112-.316.147-.085.24.033.282.144.167.447.509.441.897.393.558-.07 1.124.276 1.212.796.046.269.326.379.317.646z" class="H"/><path d="M17.099 15.387a.53.53 0 0 0 .037-.14c.194-.682.212-1.364.001-2.047.002-.149.032-.286.164-.379.072-.022.141-.015.207.023.212.17.257.43.358.661.391 1.007.095 1.844-.635 2.578-.227.228-.487.429-.63.726.369.422.857.205 1.296.247.234-.015.416-.159.621-.248.134-.059.254-.018.319.103.081.152-.055.227-.153.29a2.76 2.76 0 0 1-1.333.424c-.322.02-.647-.004-.971-.008-.503-.005-.585-.298-.485-.713.216-.569.595-1.01 1.076-1.37.056-.037.099-.085.128-.146z" fill="#8f5133"/><path d="M11.581 17.959c.281-.428.091-.909.149-1.361.173.114.098.325.178.465.126.219.231.538.6.259.258-.195.273.222.494.212.164-.287-.22-.819.372-.938h0c.074.086.105.197.165.291a1.06 1.06 0 0 0 .165.17c.043.027.09.05.139.066a.32.32 0 0 1 .135.07l.147.003c.05.057.1.054.15.001l.149-.002c.101-.09.201-.084.301 0h0c.267.004.62-.11.526.385-.13.198-.336.108-.512.137-.182-.032-.365-.01-.548-.005-.312-.077-.617-.11-.887.118-.05.036-.103.069-.155.101-.107.061-.181.148-.214.269-.016.06-.037.117-.06.174-.05.117-.111.228-.193.326a.92.92 0 0 1-.155.121c-.089.049-.137.137-.205.207-.415.428-.601.377-.761-.213a2.92 2.92 0 0 1-.108-.577c.004-.111.036-.21.128-.281z" fill="#f78e5a"/><path d="M17.729 20.194c.148.009.297.005.442.029.851.144 1.436-.25 1.817-.957.252-.47.508-.957.459-1.533-.016-.192.031-.391.06-.585.032-.219.189-.266.38-.258.413.193.085.512.13.768-.147.625-.264 1.262-.601 1.824-.61 1.015-1.352 1.433-2.829.993-.063-.15.014-.228.143-.281z" fill="#8d5233"/><path d="M15.177 17.644c.164-.465-.352-.247-.451-.448.255-.173.51-.4.628.135.035.162.173.142.273.015l-.001.001c.192-.086.105-.341.27-.443-.037.373.246.529.485.714-.105.31-.41.618-.004.93h.001c-.286.264.119.287.153.44-.178.14.185.331-.044.466-.211.554-.537 1.074-.444 1.692-.273.069-.35-.238-.565-.195-.259-.27-.206-.587-.141-.906.529-.616.36-1.277.12-1.94-.031-.114-.094-.204-.209-.251-.075-.052-.136-.11-.071-.208z" class="I"/><path d="M16.377 16.895c.008-.306.221-.502.426-.661.937-.73 1.268-1.644.923-2.79.079-.206.227-.268.434-.21a1.38 1.38 0 0 1 .319 1.26v.149c-.014.101-.101.2-.003.301l.004.298c.041.034.055.069.04.102s-.029.05-.043.05c-.203.164-.582.197-.389.641.045.104-.228.089-.361.11-.132.15.103.3-.001.45-.407.296-.926.083-1.35.299z" fill="#f68560"/><path d="M17.269 13.151c.277.464.131.99.208 1.483.038.248-.181.431-.34.612-.488-.335-.469-.835-.473-1.351-.003-.417-.114-.832-.132-1.25-.028-.636.158-.727.744-.402.05.046.074.104.073.172.017.25-.259.467-.079.735z" fill="#e08051"/><path d="M17.268 12.409l.007-.165c.09-.037.203-.053.264-.118.134-.141.294-.239.461-.149.193.103.286.353.555.381.057.006-.01.175-.072.252-.095.117-.112.274.044.288.373.034.508.238.552.575.051.393-.121.672-.413.901-.058.045-.125.08-.188.12-.18-.381-.22-.798-.303-1.204-.182-.253-.519-.256-.733-.457l-.021.015c-.123-.121-.201-.258-.154-.439z" class="E"/><path d="M25.382 44.821l.47-.289c.524-.027.848-.48 1.319-.62.047.733.012 1.441-.587 1.983-.566-.172-1.008-.485-1.202-1.074z" fill="#4eac99"/><path d="M11.571 18.245c.112.195.162.402.159.629-.002.148.041.311.221.322.144.009.194-.132.217-.253.052-.275.181-.392.457-.245.088.064.134.155.166.255.123.485.374.928.487 1.418.001.072-.024.132-.075.183-.27.13-.453.004-.606-.204-.051-.045-.09-.125-.18-.056a.37.37 0 0 1-.108.107c-.055.007-.102-.009-.141-.047-.352-.623-.889-1.16-.901-1.94.051-.148.134-.235.303-.168z" class="J"/><path d="M14.426 21.849c-.119-.018-.263-.001-.353-.062-.155-.106-.209-.179-.234.091-.034.361-.267.471-.487.225-.237-.265-.518-.433-.811-.607-.416-.248-.215-.648-.217-.996-.038-.033-.051-.067-.038-.101s.026-.05.039-.05h0c.069-.029.132-.017.189.029.169.309.212.701.603.861.131.053.222.08.274-.085.193-.402.427-.219.661-.051.137.158.317.276.433.454.036.108.026.207-.06.291z" fill="#f7925e"/><path d="M22.233 18.399c.175-.136.441.002.584-.311.177.431.213.897.765.761-.012.267.034.54-.077.87-.377-.215-.511-.555-.675-.87-.083-.069-.073-.157-.053-.248-.029.084-.019.183-.097.248-.069.05-.065.111-.056.191.013.109.248.375-.171.238-.111-.036-.371.109-.319-.126.07-.318-.232-.476-.207-.746.1-.093.203-.014.304-.006z" class="d"/><path d="M15.36 15.885c-.006.359-.274.696-.537.677-.23-.017-.502-.439-.485-.753.015-.298.307-.594.564-.572.278.024.464.287.458.649z" fill="#1d1514"/><path d="M20.882 14.807c-.233-.171-.353-.393-.326-.689.023-.26.102-.488.389-.546a.45.45 0 0 1 .568.332c.046.138.074.281.11.422-.046.072-.065.151-.052.237a.42.42 0 0 1-.065.158c-.037.046-.08.085-.127.121s-.107.053-.166.066c-.126.019-.237-.009-.33-.1z" fill="#1b1714"/><path d="M14.425 21.55a.45.45 0 0 1-.451-.3c.267-.611 1.077-.691 1.309-1.337.063-.037.127-.04.194-.013v1.05l-.003.149c-.341.17-.515.728-1.049.451z" fill="#f17f56"/><path d="M19.26 27.988c-.259.066-.566-.092-.785.167-.909-.26-1.679-.767-2.407-1.349l.01-.162c.234.017.427.134.607.266.714.524 1.481.909 2.382.972.067.005.129.069.193.105z" fill="#9b5737"/><path d="M16.378 16.895c.374-.446.89-.246 1.35-.299-.107.214-.209.426.17.46-.374.253-.807.158-1.214.18-.124.007-.432-.026-.306-.341z" fill="#f79365"/><path d="M21.017 17.659c-.232-.224.128-.548-.13-.768.194-.002.288-.102.288-.294-.087-.187-.159-.371.103-.484.302.181.223.525.337.786.043.165.141.305.211.458-.115.34.261.702-.043 1.034l-.537-.729c-.067-.089-.152-.099-.23-.004z" class="c"/><path d="M14.425 21.549c.272-.047.546-.046.632-.425.063-.271.271-.059.417-.026.156.128.311.29.165.483-.154.204-.365.451-.659.272-.21-.127-.372.012-.554-.005v-.299z" class="F"/><path d="M10.509 19.455c.039.206.155.314.365.235.231-.088.427-.102.569.144-.188.179-.437.005-.657.135.131.425.616.433.886.715-.599.124-.926-.113-1.312-.915-.057-.155-.136-.321.15-.313z" fill="#925334"/><path d="M16.487 19.453c-.002-.156-.224-.334.044-.466.295.506.76.844 1.199 1.208l-.143.281c-.515-.182-.811-.599-1.101-1.023z" fill="#9b5a38"/><path d="M28.389 13.867c-.401.097-.627.374-.768.741-.038.098-.11.182-.224.125-.136-.068-.144-.184-.066-.309.185-.297.386-.584.68-.781.133-.089.237-.177.228-.349.381.104.236.346.15.573z" fill="#a2613f"/><path d="M23.881 18.698c.341.121.605.053.754-.302.285.028.411.212.324.457-.065.181-.253.345-.478.209s-.427.077-.646.01l.047-.375z" class="d"/><path d="M28.389 13.867c-.023-.198.062-.424-.15-.573l-.148-.163c-.029-.132-.008-.209.151-.142.626.753.622 1.445-.014 2.253-.053.066-.105.066-.158 0l.355-.707c.109-.227.159-.456-.037-.668z" fill="#9f5d3a"/><path d="M21.332 16.147c-.181.105-.146.286-.156.451-.064-.07-.115-.171-.195-.203-.435-.174-.338-.425-.119-.703.145.036.231-.054.318-.145l-.001-.151c-.06-.079-.091-.166-.017-.249.081-.091.162-.053.231.024.131.148.146.342.202.52.002.202.051.433-.262.455z" class="D"/><path d="M25.838 25.308c-.067-.133-.192-.154-.322-.165l1.065-1.193.07-.06.071.059c-.22.501-.439 1.003-.884 1.358z" fill="#985736"/><path d="M10.509 19.456c-.122.07-.132.194-.15.313-.205-.551-.293-1.081.36-1.613-.079.522-.262.898-.21 1.3z" fill="#a4613d"/><path d="M21.48 15.695c-.141-.085-.143-.227-.155-.367-.006-.064-.033-.137-.113-.064-.028.025-.023.088-.033.133-.166-.106-.21-.293-.297-.452.106-.148.348.018.431-.184l-.009.014c.082-.02.131-.077.167-.148l-.01.008c.067-.038.091-.129.177-.144l.143.004c.081.07.085.164.082.26l-.016.183c-.039.109-.103.209-.121.326a.95.95 0 0 1-.043.165.81.81 0 0 1-.131.22l-.072.047z" class="H"/><path d="M11.57 18.245l-.303.168-.01-.012a1.15 1.15 0 0 0-.131-.156l-.149-.598c.295-.077.586-.149.603.312l-.01.286z" fill="#a94835"/><path d="M21.785 18.392c-.045-.249.086-.521-.153-.751-.114-.11.109-.172.146-.274.047-.052.104-.063.169-.039.041.059.036.114-.016.163.02.329.24.592.302.906-.098.167-.203.01-.304.006l-.145-.013z" fill="#ed7652"/><path d="M28.242 12.989l-.151.142c-.335-.222-.705-.258-1.219-.109.571-.441.736-.432 1.369-.033z" fill="#ba6941"/><path d="M25.979 13.301c.199-.086.304-.235.301-.454.248.275.117.636.304 1.005-.336-.146-.49-.328-.605-.551z" fill="#bb6143"/><path d="M28.07 15.242h.158c-.12.249-.287.434-.683.462.123-.298.262-.444.525-.461z" fill="#b56e45"/><path d="M18.477 14.945c-.154-.101-.151-.202.003-.301h.599l-.15.3h0c-.151-.04-.301-.238-.452.001z" class="E"/><path d="M13.824 17.196h-.149c-.04-.06-.106-.094-.15-.149-.177-.108-.145-.285-.151-.45.204.097.353.248.451.45.038.033.051.067.038.1s-.026.049-.039.049z" class="F"/><path d="M21.179 15.547c-.005.135.053.312-.118.366s-.162-.118-.2-.222c.075-.116.188-.15.318-.145z" fill="#ad6641"/><path d="M26.602 23.812l.199-.418c.151.27.105.427-.078.555 0 0-.03-.009-.03-.009a.95.95 0 0 0-.091-.129z" fill="#b36941"/><path d="M17.728 16.596c-.126-.15-.379-.3.001-.45.04.15.239.3-.001.45z" fill="#f79365"/><path d="M19.079 14.644c.02-.115.023-.256.194-.228.078.013.105.109.085.177-.054.194-.18.067-.28.051z" class="E"/><path d="M22.626 13.336c-.042.017-.095.056-.124.043s-.036-.078-.053-.121c.043-.017.095-.056.125-.043s.036.078.053.121z" class="H"/><path d="M18.479 15.396l.003-.152c.108.019.306-.038.303.065-.005.133-.152.228-.306.088z" class="E"/><path d="M23.582 18.848c-.018-.088-.122-.193-.009-.261.123-.074.235-.01.308.111l-.299.15z" class="d"/><path d="M14.726 17.196h-.301c.021-.063.028-.172.065-.183.145-.045.184.085.236.183z" class="I"/><path d="M21.783 14.799l-.002-.306.146-.004c.014.102.172.202.003.306-.047.071-.096.072-.147.004zm-.47-.038c-.076.221-.265.174-.431.184l-.001-.138.431-.047z" class="D"/><path d="M22.681 18.847c.006-.073-.003-.186.076-.186s.068.114.074.186l-.15-.001z" class="c"/><path d="M21.638 14.49l-.176.144c.02-.12.05-.235.16-.309l.017.164z" class="D"/><path d="M16.083 26.654l-.157-.156c.083.022.14.069.157.156z" fill="#b55831"/><path d="M26.602 23.812c.06.022.1.059.091.129l-.111.009c-.009-.048-.002-.094.02-.138z" fill="#9b502f"/><path d="M12.325 20.349l-.001.151-.155-.147.156-.004z" fill="#f48457"/><path d="M16.376 18.548c.02.012.061.027.059.034-.011.05-.034.038-.059-.034l-.001.001z" class="I"/><path d="M11.127 18.245l.131.156-.131-.156z" class="J"/><path d="M15.627 17.346c-.021-.011-.061-.026-.06-.033.011-.05.034-.038.059.034l.001-.001zm-1.352-.148c-.05.086-.101.085-.15-.001l.15.001zm-.451-.002l.001-.149.153.147-.154.002z" class="I"/><path d="M17.1 15.387c-.005.081-.052.127-.128.146l.128-.146z" fill="#e08051"/><path d="M18.928 14.945c.021.011.061.027.059.034-.011.05-.034.038-.059-.034h0z" class="E"/><path d="M22.381 13.744c-.021-.011-.061-.027-.059-.033.012-.05.035-.038.059.034h0z" class="H"/><path d="M25.838 13.141c.077.026.127.077.141.159a.2.2 0 0 1-.141-.159z" fill="#bb6143"/><path d="M25.701 12.985l.13.153c-.078-.022-.123-.071-.13-.153zm.579-.143c-.022-.034-.047-.065-.063-.102-.003-.008.03-.031.046-.047l.018.149z" class="K"/><g fill="#e96545"><path d="M18.933 9.24l.144.136-.144-.136z"/><path d="M18.774 9.093l.155.144-.155-.144z"/></g><path d="M25.381 44.821l1.202 1.073c.061.317-.187.505-.312.744-.364.036-.701-.293-.966-.25-.42.068-.78-.086-1.167-.08-.702.011-1.391-.103-2.076-.231-.283-.053-.405.009-.454.309-.186 1.167-.173 2.335-.058 3.504.017.172.122.363-.104.442-.205.072-.318-.101-.402-.256L19.7 47.57c-.333-.579-.596-1.194-.934-1.83-.337.268-.521.589-.732.881-.438.608-.746 1.291-1.083 1.956-.118.234-.168.618-.508.557-.386-.069-.214-.455-.206-.694.051-1.481.131-2.961.386-4.407-.18-.171-.348-.094-.516-.056l-2.825.709c-.098.016-.191.056-.289.075-.141.027-.252-.034-.299-.163-.037-.102.033-.182.118-.248.318-.246.552-.587.853-.836.895-.741 1.482-1.748 2.291-2.558.274-.274.327-.475.042-.816-.993-1.184-1.944-2.404-2.734-3.74-.088-.148-.253-.279-.148-.466.124-.221.36-.153.541-.121a4.56 4.56 0 0 1 1.528.573c.932 2.124 2.092 4.106 3.612 5.87.619.718 1.25 1.415 2.057 1.931 1.413.904 2.942.963 4.527.635z" class="O"/><path d="M13.674 25.303c.155.004.279.07.399.17.213.178.34.344.082.594-.054.052-.023.191-.032.289-.112-.367-.447-.639-.449-1.052z" fill="#9d4130"/><path d="M12.323 26.356c-.245-.254-.38-.563-.458-.901-.092-.191-.167-.386-.141-.604l-.002.002c.361.378.476.865.603 1.348.045.035.06.07.044.105s-.031.051-.047.051z" fill="#9a4738"/><path d="M11.724 24.85c-.29-.464-.471-.944-.203-1.488-.021.509.217.981.201 1.49l.002-.002z" fill="#914536"/><path d="M12.323 26.356l.002-.156c.153.175.595.208.298.606-.164-.107-.215-.29-.301-.45z" fill="#974637"/><path d="M30.351 22.596l.136.004.002.149-.01.003c-.134.022-.202-.009-.128-.156z" fill="#ca533a"/><path d="M30.037 18.099l.149-.002-.005.15-.144-.148z" fill="#d9573d"/><path d="M34.678 16.456c.139.166.389.215.466.446-.234.075-.406-.087-.603-.156-.023-.129-.018-.245.137-.289z" fill="#e48371"/><path d="M36.029 18.862c-.067-.039-.111-.092-.109-.174.07.036.111.092.109.174z" fill="#f4c2b6"/><path d="M35.132 16.889l.163.164c-.099-.011-.143-.075-.163-.164z" class="C"/><path d="M30.35 22.596l.128.156.004 1.048c-.047.07-.095.067-.142 0-.007-.778-.243-1.51-.459-2.245-.063-.16.014-.184.148-.154.181.378.252.786.321 1.194z" fill="#914739"/><path d="M30.03 21.402l-.148.153c-.25-.66-.767-1.166-1.048-1.809.611.334.783 1.017 1.197 1.509l-.002.147z" fill="#954838"/><path d="M30.341 23.801h.142c-.031.907.175 1.839-.299 2.696-.098-.011-.257-.064-.217-.134.467-.808.345-1.695.375-2.562z" fill="#944737"/><path d="M13.828 3.534l-.022.129c-.054-.022-.067-.055-.034-.094.013-.016.036-.024.055-.035z" class="K"/><path d="M23.886 66.726l.151.01c-.014.157.026.324-.072.484-.132-.165-.064-.336-.079-.494z" fill="#c2496a"/><path d="M28.361 62.528l-.134-.296c-.089-.501-.171-1.001-.166-1.512.292-.55.339-.546.737-.153.357.352.46.854.783 1.218.164-.041.189-.228.32-.303.207-.503.527-.941.873-1.362l.298-.131c.027.247.133.488.048.742l-.583 1.838c-.086.282-.23.552-.197.862.042.041.051.075.029.103s-.038.038-.057.038c-.117.066-.131.178-.135.295l-.434.939c-.333-.164-.345-.568-.596-.794l-.743-1.338c-.047-.021-.069-.049-.067-.085s.01-.059.022-.059z" class="B"/><path d="M29.901 61.481c-.023.449-.033.459-.32.303.012-.2.11-.311.32-.303z" fill="#f9afc4"/><path d="M30.654 55.32l-.047-.293c.008-.049.009-.099.023-.145.281-.906.447-.948 1.163-.297.093.252.156.523.445.702.283-.419.258-.975.641-1.319l.301-.173c.396.032.458.319.486.633-.064.715-.395 1.332-.717 1.953l-.352.744c-.266.185-.172.659-.584.727l-.33-.428c-.484-.631-.796-1.347-1.029-2.102z" class="B"/><path d="M23.436 57.119l-.075.005-.075-.006c-.003-.121.026-.229.131-.302a.67.67 0 0 0 .017.011c.09.103.083.203-.008.302l.009-.008z" class="M"/><path d="M22.831 57.574a.23.23 0 0 1-.133-.201l.133.201z" fill="#e58ba3"/><path d="M30.313 63.57c-.007-.05.002-.097.027-.141l.128.004-.026.156c-.043-.009-.085-.015-.129-.019z" fill="#f9afc1"/><path d="M23.428 57.128l.008-.302.163-.132c.046-.005.093-.007.14-.007l.136.131c-.088.191-.232.301-.447.309z" fill="#f68aa8"/><path d="M28.361 62.528l.044.144-.171.006c-.019-.046-.025-.094-.019-.144l.146-.007z" fill="#f797b3"/><path d="M15.494 26.489l-.023-.287c.139.085.17.179.023.287z" class="N"/><path d="M24.524 44.72c-.002.016.002.039-.006.045-.014.01-.04.018-.054.011-.057-.028-.055-.058.007-.074.015-.004.035.011.053.018z" fill="#c59d6e"/><path d="M28.534 19.597c.124.005.24.027.304.152-.127-.001-.239-.03-.304-.152z" fill="#954838"/><path d="M21.931 17.492l-.005-.161c-.116-.127-.301-.145-.422-.266-.204-.279-.179-.6-.172-.918.174-.11.148-.285.147-.452h0c.096-.077.063-.219.152-.299v.001c.049-.082.079-.179.176-.222.19-.064.364.017.541.056.16.023.149-.064.108-.172-.017-.092.001-.175.06-.249.183-.087.367-.065.551-.004.199.104.365.268.566.352.583.243.68.657.481 1.2.001.073-.182.022-.103.151.045.076.082.153.019.237l-.146.408c-.029.09-.071.121-.151.053-.042-.058-.09-.061-.143-.016-.179.2.073.408-.01.61l.003-.003c-.325-.179-.625.093-.905.063-.239-.026-.39-.439-.748-.366z" fill="#ed6450"/><path d="M24.031 16.745l-.149-.299h0c.252-.217.12-.508.145-.768.016-.17-.132-.156-.236-.213-.309-.171-.669-.292-.811-.668l.027-.053c-.001 0 .034-.047.034-.047l-.059-.006c-.001 0-.012-.059-.012-.059l.002-.224c-.001-.136-.163-.344.022-.393.325-.085.142.206.191.333.077.2.237.149.368.069.206-.128.338-.38.627-.368.17.292-.075.904.637.793.122-.019.144.284.265.405.087.082.056.222.148.301h0c-.374.339-.658.698-.541 1.266.041.201-.122.414-.279.58-.367-.083-.108-.521-.381-.648z" class="e"/><g fill="#ed6450"><path d="M23.581 17.799c.311-.292.311-.292.603.15l-.003-.002c-.081.168-.199.309-.399.273-.238-.043-.186-.256-.198-.424zm1.347-.19l-.053-.043c.021-.011.041-.032.06-.03s.035.026.053.04l-.061.033z"/><path d="M24.183 17.948c.011-.02.026-.061.032-.059.049.011.037.033-.035.057l.003.002z"/></g><path d="M23.59 17.189c.065-.147.108-.1.143.016a.6.6 0 0 1-.143-.016z" fill="#802420"/><path d="M25.084 15.245c-.231-.12-.408-.573-.735-.116-.041.058-.125.082-.2.041-.106-.057-.119-.162-.08-.252.122-.281.121-.575.113-.871.093-.114.274-.148.242.013-.122.608.155.427.454.261.145.291.238.593.207.924z" fill="#f6845a"/><g class="e"><path d="M22.389 15.393l-.605-.147c-.093-.099-.091-.199-.004-.301l.003-.146.147-.004c.099.154.2.156.302.004a.23.23 0 0 1 .241-.066l.061.065.002.307c.067.156-.037.223-.148.289z"/><path d="M22.981 14.797c-.149.09-.298.092-.447.001-.091-.107-.088-.206-.003-.303l.441.137a1.9 1.9 0 0 1 .026.029c.039.033.05.063.033.091s-.031.04-.045.04l-.004.005z"/></g><path d="M22.531 14.495l-.003.296-.295.009a.5.5 0 0 1 .298-.305z" class="D"/><path d="M25.232 15.546c-.12-.066-.147-.177-.149-.301.121.065.147.177.149.301z" fill="#f6845a"/><path d="M17.442 12.834c.308.051.774-.152.733.457l-.449.153c-.185-.161-.179-.412-.284-.61z" fill="#f27559"/><path d="M17.268 12.41c.077.138.174.268.154.439-.125.063-.14.183-.153.302-.191-.247-.229-.494-.001-.742z" fill="#ad623f"/><path d="M12.626 18.999l-.001-.301h0c.151-.05.082-.209.149-.3l.006-.146c.082-.147.306-.006.37-.188.018-.098.055-.188.062-.285.344-.388.55-.413 1.066-.132.086.072.119.17.138.276.029.321.253.584.273.907.012.182-.031.349-.194.446-.191.114-.32.012-.414-.157-.042-.181.012-.383-.114-.549-.087-.044-.111-.31-.211-.159-.128.194-.336.486-.037.711.215.162.481.257.433.599a.7.7 0 0 1-.367.355c-.62-.107-.685-.812-1.159-1.077z" fill="#ea614c"/><path d="M15.478 19.9l-.147.002-.102-.006c-.572-.317-.083-.787-.172-1.174l-.076-.281c-.055-.225-.175-.418-.289-.614-.017-.068-.004-.129.039-.185.149-.09.297-.083.445.003l.168.152c.162-.086.196.072.276.145.119.554.314 1.087.253 1.681-.034.333-.224.246-.395.278z" fill="#ef6d52"/><path d="M13.222 18.112c.038.109.175.23.062.331-.138.122-.195-.081-.295-.128-.065-.031-.139-.043-.21-.064-.006-.222-.012-.443.302-.451.089.085.143.186.141.312z" class="J"/><path d="M14.731 17.641l.004.15c.058.174-.038.275-.183.319-.132.041-.214-.057-.274-.165l-.001-.299c.149-.196.3-.188.454-.005z" fill="#b3563d"/><path d="M12.773 18.397l.031.068c.042.108.228.195.146.302-.091.119-.212-.048-.325-.07.003-.123.029-.235.149-.3z" class="J"/><path d="M13.222 18.112c-.117-.072-.146-.185-.141-.312.045-.003.088-.01.131-.022.162.107.177.217.01.334z" fill="#ad5b37"/><path d="M15.62 17.941l-.276-.145c.041-.095.122-.154.211-.104s.072.157.065.249z" fill="#a55737"/><path d="M15.332 19.902c-.049.441-.267.738-.688.915-.241.102-.446.286-.668.432-.15-.116-.298-.397-.452-.004-.494-.055-.533-.149-.301-.744l.001-.149c.049-.041.104-.054.166-.045.165.081.334.085.506.02l.261-.103c.202-.077.452-.073.55-.326.206-.169.412-.016.618-.002l.008.005z" fill="#e86d4c"/><path d="M13.373 20.352h-.151c-.098-.016-.252-.044-.244-.125.049-.463-.335-.792-.353-1.228.293-.051.433.141.582.346.182.253.294.573.618.703l.031.103c-.093.23-.222.373-.483.201z" fill="#e25646"/><g fill="#f48457"><path d="M13.221 20.501c.077.258-.187.653.301.744v.301c-1.009-.321-1.03-.345-1.05-1.197l.013-.056c.021-.033.048-.06.082-.081 0-.001.056-.014.056-.014.171.156.319.358.598.302z"/><path d="M12.472 20.35l-.148-.001c-.002-.024-.009-.048-.005-.071.024-.118-.169-.294.059-.35.189-.046.226.122.245.27h.001c-.052.048-.107.092-.149.149l-.003.003z"/></g><path d="M21.47 14.626c-.025.084-.08.135-.167.148.019-.091.086-.128.167-.148z" class="D"/><path d="M21.504 17.065c.222-.041.404-.018.421.266l-.148.037c-.181-.02-.296-.099-.273-.302z" fill="#9f5536"/><g class="D"><path d="M21.78 14.945l.003.301-.151.15c-.082-.193-.247-.414.148-.452z"/><path d="M21.632 15.395c-.003.124-.03.235-.152.299.004-.124.03-.236.152-.299z"/></g><path d="M25.143 45.447c-.036.023-.077.07-.104.064-.124-.033-.213-.108-.193-.251.004-.029.068-.075.098-.071.141.023.168.144.2.257z" fill="#73cfbe"/><g fill="#76d0bf"><path d="M21.781 45.565c-.176-.044-.357.096-.596-.032.247-.151.425-.171.596.032h0z"/><path d="M21.781 45.566h.489c-.216.24-.354.143-.489 0h0z"/></g><path d="M22.928 16.657c-.114-.009-.19-.078-.196-.181-.008-.12.087-.164.196-.165.083 0 .146.044.154.128.01.11-.044.187-.154.218z" fill="#9a5235"/><path d="M22.906 16.125c-.036-.022-.131-.046-.143-.091-.042-.164.102-.192.212-.227.097-.031.13.042.129.119-.002.105-.053.181-.198.199z" fill="#f07655"/><path d="M22.388 15.393l.147-.289c.156.013.315.045.223.251-.086.19-.238.094-.37.038z" fill="#ab553a"/><path d="M22.081 16.237c-.078-.02-.112-.076-.099-.151s.068-.134.144-.13.099.08.091.151c-.009.078-.053.127-.137.13z" fill="#a7573a"/><path d="M23.737 15.9c.029.027.081.053.083.082.005.083-.052.125-.129.101-.027-.009-.055-.076-.048-.11s.06-.049.094-.072z" fill="#b0523b"/><path d="M23.883 16.446c-.021-.011-.061-.027-.06-.033.012-.05.035-.038.06.034h0z" class="e"/><path d="M22.985 14.792c.001-.044.006-.088.012-.131.059.015.172.033.171.043-.009.123-.114.07-.183.088z" fill="#aa5630"/><path d="M15.323 19.897c-.198.165-.397-.011-.596.005l-.073-.029a.4.4 0 0 0-.225-.046c-.084.016-.165.014-.244-.019l-.06-.06c-.047-.088-.075-.195-.143-.26-.189-.181-.624-.171-.623-.428 0-.349.162-.712.373-1.022.013-.018.041-.024.105-.061.027.228.183.379.29.56-.068.159-.069.319-.001.478.062.111.133.228.28.183.098-.03.157-.141.147-.24-.024-.246-.079-.494-.253-.679-.114-.121-.06-.221-.023-.334.213.129.367.083.457-.154.376.038.279.417.439.61-.099.099-.085.198.003.296.175.133.155.256.033.435-.183.269-.118.538.112.765z" fill="#e55147"/><path d="M14.127 19.015c-.139-.027-.285-.061-.285-.239s.144-.214.286-.238c.191.159.186.319-.001.478z" fill="#954e32"/><path d="M14.126 20.349l-.15.148c-.175-.108-.045-.318-.151-.449h0c.004-.196.104-.296.3-.3.16.2.159.4.001.601z" fill="#e55147"/><path d="M15.177 18.698c-.156-.098-.162-.197-.003-.297l.003.297z" fill="#a74f36"/><g fill="#ea614c"><path d="M14.127 20.349l-.001-.601.296.002c.13-.015.22.058.304.142l.003.01c.067.265.068.468-.31.391-.09-.018-.193.035-.29.055z"/><path d="M13.826 20.048c.176.107.146.284.151.449-.192-.085-.517.381-.603-.145.215-.005.368-.104.452-.304z"/></g><path d="M14.724 19.892c-.127.008-.234-.027-.304-.142.03-.105.024-.275.189-.223s.103.233.115.365z" fill="#b14e39"/></svg>