<svg xmlns="http://www.w3.org/2000/svg" width="45" height="65" fill="none" xmlns:v="https://vecta.io/nano"><path d="M30.981 5.654c.402.579 1.032.961 1.377 1.59.07.263.11.544.399.68l.026-.015c.087.17.223.311.299.488l.136.289a1.09 1.09 0 0 1 .053.148l.076.221.07.145a1.61 1.61 0 0 1 .098.232c.016.057.024.115.027.174a.98.98 0 0 1-.016.181c-.094.371-.068.731.011 1.108.062.302.215.641-.035.944-.063.075-.115.155-.083.262.013.093.081.182.017.279.002.048-.016.087-.055.115-.019.053-.049.098-.088.139h0c-.111.117-.167.273-.277.39l-.022.016c-.49-.071-.368-.466-.413-.775-.175-1.201.009-2.45-.476-3.61-.135-.246-.144-.632-.593-.524-.236.025-.311-.112-.336-.318-.01-.086-.068-.127-.024-.049.009.015-.011.06-.017.115-.024.215-.1.412-.152.616-.107.474-.16.957-.243 1.435-.013.063-.035.123-.061.182-.148.3-.305.596-.506.865.089-.068.127-.174.188-.263.087-.127.176-.303.359-.222.158.07.158.255.154.416-.179.689-.6 1.266-1.068 1.746-.729.748-1.164 1.674-1.76 2.498-.123.175-.281.318-.43.47l-.19.192-.193.197c-.574.527-1.283.797-1.999 1.056-.489.083-.678.372-.618.859.078.639.068 1.281.284 1.912.274.801.753 1.407 1.431 1.881.051.029.099.063.146.098l.271.2a1.37 1.37 0 0 1 .132.093c.043.032.082.068.121.104l.058.055.114.109.056.055a1.74 1.74 0 0 1 .206.238c.057.09.103.186.152.28l.145.3c.022.055.037.112.047.171.036.701.024 1.405.155 2.098v-.009c.263.923-.183 1.659-.692 2.335-.43.57-.978 1.047-1.623 1.386-.32.168-.345.328-.083.607 1.263 1.344 1.176 1.875-.325 2.966-1.208.878-2.524 1.251-4.014 1.26-2.507.015-5.014-.022-7.512-.177l-7.277-.643c-.879-.16-1.536-.55-2.102-1.183-.055-.592-.717-.621-.965-1.035-.113-.111-.223-.224-.218-.399a.24.24 0 0 1 .181-.188c.343-.136.161-.405.152-.625-.03-.724-.087-1.452.484-2.033.096.025.14.098.169.178.012.034.013.068.002.096.045-.042.029-.102.046-.158.357-.869 1.207-1.184 1.91-1.615.808-.496 1.236-1.11 1.257-2.053.041-1.821.937-3.021 2.672-3.605.803-.271 1.598-.544 2.264-1.129.768-.675 1.206-1.495 1.303-2.493.119-1.227.134-2.463.012-3.687-.164-1.646.199-3.15 1.022-4.563.473-.832.99-1.632 1.717-2.273.142-.112.303-.204.478-.23 1.665-.251 2.91-1.398 4.387-2.048.177-.091.281-.267.44-.381.06-.033.124-.056.191-.071a7.49 7.49 0 0 0 1.029-.156c.181-.015.363-.014.545-.017.439.015.881-.032 1.318.036.349.124.717.103 1.078.132.061.008.12.026.175.05.07-.013.044.178.158.073.048-.034.099-.059.155-.078.086-.024.174-.033.264-.032.122.005.24.026.336.112.098.096-.042.278.128.347.077.021.153.037.23.048l.424.028c.119.018.229.057.31.151a.83.83 0 0 1 .086.145l.08.14c.166.124.363.074.547.096a1.35 1.35 0 0 1 .494.139 1.1 1.1 0 0 1 .151.087l.213.151.518.33.225.131c.093.054.172.128.26.185.044.007.088.004.13-.016.072-.068.117-.159.193-.222.055-.024.097-.01.128.041z" fill="#863d1b"/><path d="M25.493 60.622c-.003.264-.019.455-.38.526-1.236.245-2.351.879-3.591 1.141l-3.936.959c-2.202.616-4.44 1.03-6.696 1.384-1.39.218-2.789.301-4.179.237-1.175-.053-2.35-.357-3.315-1.089-.447-.34-.759-.858-1.132-1.296-.273-2.604-.222-5.209-.122-7.824l.469-8.358c.08-1.85.322-3.694.552-5.534l.861-5.55c.184-.978.374-1.186 1.379-1.133 1.138.061 2.258.298 3.39.426.445.051.481.401.494.751.095.944-.25 1.868-.131 2.814-.231 3.684.031 7.368.04 11.051.003 1.489.035 2.991.132 4.485.047.721.248.841.878.528.869-.432 1.816-.637 2.739-.882 2.181-.578 4.368-1.17 6.6-1.5l4.11-.589c.96-.132 1.193.04 1.46.857.193 2.28.211 4.571.538 6.842.082.573.198 1.197-.16 1.752z" fill="#e03b65"/><path d="M9.108 35.35c-.037-.642-.044-.599-.659-.692-.747-.113-1.513-.094-2.241-.308-.445-.13-.888-.077-1.331-.075-.395.002-.55.176-.612.563-.139.867-.217 1.745-.49 2.59-.066.205-.043.441-.05.663-.011.375.057.762-.216 1.089-.049.059-.058.172-.049.257.05.491-.055.961-.12 1.444l-.427 4.025c-.176 1.471-.128 2.956-.285 4.423l-.184 2.575c-.044.665-.202 1.35-.07 2.032.098.508-.051 1.014-.082 1.52-.102 1.649-.047 3.299-.026 4.947l.105 1.714c.003.138.011.269-.108.367-.428-.767-.603-1.623-.825-2.456l-.424-1.672C.895 57.77.87 57.181.777 56.597.583 55.372.677 54.141.684 52.909l.09-4.389c-.008-.989.105-1.982.217-2.967l.151-1.658.354-2.964.476-3.474.269-1.639.275-1.825c.159-.878.396-1.728.777-2.536.026-.043.064-.065.112-.071.046.003.091.016.134.034a1.52 1.52 0 0 1 .123.056c.041.017.079.039.116.062l.173.086a.59.59 0 0 1 .113.06 1.09 1.09 0 0 1 .161.105c0 0 .035.054.035.054.309.245.637.453.886.786.291.389.819.363 1.24.4.757.065 1.485.284 2.246.333l1.329.103c1.129.118 2.272.048 3.394.247.044.008.089.008.134.009l8.446.142c1.296-.026 2.345-.624 3.349-1.349l.582-.448c.454-.402.509-1.099.103-1.551-.252-.281-.516-.551-.846-.758-.318-.199-.299-.318.053-.502.538-.28 1.019-.624 1.476-1.029.827-.732 1.147-1.671 1.278-2.715 1.515-.158 2.883.427 4.284.846.079.061.194.037.268.113l-.008.008c-.169.689-.525 1.302-.787 1.955-.67.251-1.25-.166-1.874-.257-.195-.028-.378-.13-.578-.165-.519-.091-.921-.009-1.096.578-.132.444-.465.757-.817 1.042-.235.191-.433.415-.416.731.083 1.544-.915 2.472-1.961 3.322-1.233 1.002-2.67 1.467-4.285 1.447-2.924-.034-5.847.114-8.772.137-.698.005-1.37-.217-2.065-.151-.297-.164-.177-.515-.331-.745-.225.29.117.8-.386.977z" fill="#bd3659"/><path d="M4.566 24.858c-.037-.025-.053-.061-.048-.106-.027-.065-.071-.115-.127-.156h0c-.035-.04-.052-.088-.054-.14 0-.104-.021-.204-.059-.301l-.198-.443c-.014-.054-.016-.108-.005-.163-.001-.044.096-.054.055-.085s-.111-.014-.16-.052c-.033-.046-.052-.098-.059-.154a.43.43 0 0 1 .077-.233.48.48 0 0 1 .118-.109c.089-.09-.08-.055-.056-.113-.065-.126-.106-.261-.16-.391l-.092-.261c-.044-.127-.081-.255-.101-.388-.024-.54-.048-1.079.017-1.618.138-.59.13-1.222.502-1.745a1.47 1.47 0 0 1 .1-.174l.171-.245c.424-.692 1.113-.99 1.83-1.27 1.031-.404 2.149-.375 3.196-.683.16-.077.323-.147.5-.177l.303-.058c.033-.046.098.104.119-.019-.039-.029-.059-.068-.059-.117.008-.048.035-.081.078-.102.381-.229.48-.531.446-.995-.08-1.09-.199-2.17-.41-3.241-.052-.264-.083-.529-.061-.798-.062-.728-.121-1.456.03-2.181.149-.016.201.09.248.2.077.281.044.569.046.855.066.114-.183.295.081.368.086-.011.13-.069.163-.139a1.3 1.3 0 0 1 .064-.147c.061-.117.13-.227.253-.288-.002-.02.1.001.021-.051.01.041-.014.056-.071.045-.049-.032-.085-.073-.11-.125a.76.76 0 0 1-.048-.268c-.002-.229.089-.443.106-.669.239-1.022.547-2.022.971-2.984.138-.293.234-.607.417-.879a4.35 4.35 0 0 1 1.133-1.515c.628-.467 1.254-.938 2.003-1.201.256-.215.552.046.812-.068-.171-.214-.377-.066-.566-.062l-.339.153c-.193.051-.363.17-.569.179-.188-.012-.359-.047-.385-.281.266-.479.768-.465 1.209-.552.278-.055.559-.143.851-.102.24.054.479.114.727.128a.96.96 0 0 1 .165.036 1.07 1.07 0 0 0 .242.049c.084.003.168.002.245.041.531.399 1.058.802 1.4 1.392-.394.34-.731.791-1.351.686-.471-.416-1.001-.508-1.589-.293-.543.198-1.062.441-1.535.776-1.045.65-1.478 1.695-1.745 2.814l-.309 1.358c-.338.889-.606 1.795-.681 2.75-.186 1.173-.115 2.34-.032 3.522.165 2.332-.279 3.562-2.712 4.398-.159.047-.336.039-.478.146-.433.137-.879.05-1.318.069-1.16.051-2.125.84-2.312 1.902-.124.456-.047.912.016 1.368a5.96 5.96 0 0 1 .002-1.569c.469-1.131 1.314-1.744 2.537-1.685 1.183.057 2.177-.378 3.115-1.006.955-.639 1.137-1.658 1.181-2.691.046-1.087-.204-2.168-.129-3.262l.079-.93c.103-1 .377-1.961.672-2.916.375-.715.337-1.54.634-2.289.351-.884.851-1.591 1.657-2.085.433-.269.889-.489 1.371-.655.515-.178.998-.098 1.462.164.13.673.124.644-.524.649-.488.003-.746.386-.952.784a.38.38 0 0 1-.18.196c-.119.392-.516.794-1.03 1.044-.102.05-.177.128-.241.22-.16.338-.032.859-.532.85.124-.102.379-.058.607-.108.195-.031.391-.102.582.012.175.279-.084.403-.215.557-.393.461-.749.946-1.024 1.489-.907 1.659-1.277 3.401-1.03 5.305.149 1.147.124 2.326-.126 3.475-.256 1.18-1.018 1.964-2.039 2.532-.473.263-.995.403-1.501.584-1.632.584-2.485 1.742-2.594 3.471-.089 1.4-.594 2.008-1.972 2.441-.11-.012-.161-.09-.197-.181-.048-.123-.034-.27-.144-.37-.064-.048-.128-.096-.177-.163-.046-.146.122-.174.152-.277-.009-.218-.221-.337-.26-.54-.044-.036-.078-.08-.099-.134z" fill="#863d1b"/><path d="M38.267 53.775l-.064 3.207-.096 2.863c-.021.472-.037.471-.495.494l-5.161.142-4.669.012-.266-.029c.024-1.113.166-2.127.979-3.053 1.141-1.301 2.538-2.072 4.139-2.557.765-.232 1.435-.727 2.255-.795a.38.38 0 0 1 .243.2c.059.135.072.278.078.423l.005.312c.091 1.624-.233 3.264.058 4.934.364-.147.27-.347.275-.509l.07-4.555c-.001-.117.053-.215.136-.296.929.027 1.719-.389 2.514-.791z" fill="#e03b65"/><path d="M35.06 54.285l-.148-.135c-.264-.126-.496-.289-.643-.552a1.14 1.14 0 0 1-.091-.175.58.58 0 0 1-.036-.196c.012-.106.058-.19.155-.242l3.291-.853c.193-.053.391-.09.577-.166.333-.135.731-.276.773-.66.041-.37-.373-.437-.641-.576-.116-.06-.271-.103-.287-.25-.021-.2.169-.252.302-.301a7.81 7.81 0 0 0 2.198-1.228c.905.013 1.751-.126 2.272-.984.657-1.086-.033-2.658-1.266-2.935-.311-.069-.422.077-.44.337l-.1 1.269c-.002.267-.005.547-.295.699-.069.002-.132-.017-.187-.059-.245-.413-.572-.621-1.087-.62-.675.002-.703-.066-.427-.665.125-.272.032-.414-.175-.553-.398-.267-.838-.261-1.29-.209-1.425.166-2.802.5-4.135 1.048-.414.17-.852.418-1.346.239-.257-.263-.267-.596-.271-.932l.003-.86c-.006-.07-.005-.14-.003-.209l.003-.206c.015-.268.014-.541.194-.768.171-.152.143-.442.378-.552.832-.308 1.698-.337 2.571-.315.276-.015.551-.007.827-.001.566-.035 1.133.029 1.699-.004.293-.009.584-.011.822.201l2.129.109c.321.011.527.113.489.463-.028.259.086.303.307.285 1.489-.127 3.246 1.361 3.274 3.005-.004.411-.025.822-.396 1.092-.229.167-.155.38-.133.59.028.049.047.101.059.155-.004.084-.029.162-.068.237-.49.763-1.179 1.253-2.062 1.438-.454.095-.921.222-1.39.102-.296-.076-.391.037-.46.306-.184.718-.547 1.362-.885 2.014-.217.419-.519.777-.853 1.108-.503.528-1.105.84-1.845.89-.211.014-.391-.021-.573-.104-.36.184-.558-.094-.79-.277z" fill="#8f162b"/><path d="M31.647 28.362c.134-.69.357-1.34.828-1.882l.133-.037c2.533 1.042 4.064 2.961 4.841 5.538.026.087.005.178.002.267l-.021.143c-.61.355-.997.999-1.665 1.279l-.095-.033-.079-.061c-.343-.468-.268-1.017-.303-1.546l-.064-1.651c.12 1.336-.269 2.657-.097 3.996.013.144-.028.285-.022.428l-.019 1.929c-.014.325.021.672-.247.934-.043.012-.098.035-.13.015-1.081-.701-2.317-1.194-3.17-2.205-1.094-1.297-1.138-3.689-.124-5.013.21-.274.295-.522.181-.861-.138-.411-.153-.835.051-1.241z" fill="#b39eb9"/><path d="M37.45 32.249l-.809-1.868c-.313-.834-.929-1.443-1.502-2.075-.213-.235-.489-.446-.748-.652-.342-.273-.665-.573-1.1-.723-.261-.09-.562-.178-.685-.487.029-.217.17-.37.332-.484.599-.42 1.182-.858 1.888-1.107.867-.306 1.768-.108 2.046 1.047.09.376.183.44.57.348 1.312-.31 2.196.625 2.287 1.943.109 1.599-.514 2.855-1.833 3.766l-.447.292z" fill="#b7bbcf"/><g fill="#e15939"><path d="M32.212 8.469c.291.634.449 1.292.416 1.998-.018.387-.048.788.171 1.146.097.158-.052.298-.037.449.032.337-.144.724.232.979-.119.673-.244 1.345-.261 2.03a.54.54 0 0 0 .405.595c.371.13.717.338 1.064.53.246.137.522.261.554.601-.334.422-.852.513-1.302.725-.369.174-.805.217-1.095.549-.106.426-.023.858-.037 1.287-.662.417-1.056.352-1.53-.228s-.592-1.265-.683-1.967a2.79 2.79 0 0 1-.074-.266c-.014-.055-.019-.111-.019-.168.021-.106.019-.214.005-.323.004-.137.031-.272.049-.407l.009-.148a.37.37 0 0 0-.081-.181c-.127-.091-.059.117-.143.097-.493-.139-.87-.558-1.435-.544-.191.004-.131-.23-.086-.378.261-.418.557-.8 1.033-.994.882-.501 1.735-1.1 2.89-.756-.284-.62-.534-.676-1.548-.445a.85.85 0 0 1-.295.038c-.072-.015-.12-.058-.145-.127a.4.4 0 0 1 .065-.32c.713-.977 1.064-2.108 1.406-3.246.072-.24.09-.556.474-.527z"/><path d="M32.238 19.794c.016 1.394-.413 2.633-1.314 3.697-.68.803-1.609 1.148-2.604 1.355-.081-.068-.096-.159-.09-.258.33-1.245-.563-1.878-1.315-2.557l-.967-.82a.67.67 0 0 1-.162-.235c-.066-.247-.167-.482-.263-.719-.046-.16-.055-.32-.005-.48.329-.407.627-.191.896.066.529.506.939.484 1.439-.017l1.442-1.368c.326-.215.22-.747.649-.886.204.1.241.298.294.491.347 1.254.624 1.493 1.855 1.613.068.007.115.058.147.118z"/></g><path d="M34.362 53.486l.549.664-4.096 1.617c-.651.274-1.124.703-1.594 1.178-.281.285-.53.599-.844.854-.308.249-.429.583-.479.991-.069.565-.249 1.117-.381 1.675-.421.221-.882.09-1.321.15.063-1.17-.44-2.302-.232-3.482.285-.268.666-.395.963-.646l4.049-2.659c.357.041.683-.073 1.007-.204.687-.145 1.297-.6 2.043-.503.101.044.141.147.211.221l.002.004c.037.051.079.097.125.141z" fill="#bd3659"/><path d="M15.013 5.779c.313-.439.811-.379 1.253-.438.032-.24-.137-.34-.242-.478-.092-.122-.1-.257.024-.352.107-.082.208.016.304.066.153.055.203.005.152-.148-.042-.216-.22-.501.227-.482.111.005.122-.058.174-.131.293-.418.53-.452 1.015-.171.043-.189.029-.401.217-.527.03-.073.063-.074.098-.004l1.292-.66c.31.046.763-.21.731.572l.251-.545a.59.59 0 0 1 .184-.182c.221-.142.336.222.531.13.181-.085.377-.266.548-.119.247.213.419.146.635-.016.118-.089.266-.191.418-.035.143.148.045.287-.014.429-.017.041-.026.085-.039.127.016.058.02.116.011.176a.5.5 0 0 1-.079.16c-.088.089-.191.142-.319.137-.231-.063-.455-.056-.664.079-.142.077-.313.088-.431.193.008-.005.022-.007.03-.011.131-.112.31-.098.434-.203.106-.065.221-.066.338-.049.053.031.083.077.094.137-.017.158-.12.255-.242.338-.072.043-.153.068-.22.119a.52.52 0 0 0-.114.025c-.122.105-.212.239-.316.36-.541.483-1.291.596-1.853 1.042-.763.605-1.661.882-2.59 1.092-.172.039-.333.121-.5.183-.171.074-.321.236-.534.124l-.526.083c-.213-.308-.484-.599-.279-1.021z" fill="#4ebfa8"/><path d="M35.857 33.604c.342-.371.642-.783 1.088-1.051.156-.093.29-.203.484-.161l.441 2.691c.171.778.195 1.592.25 2.392l.143 3.012-.007 2.384-.808-.028c-.15-.073-.298-.149-.37-.315-.069-.193-.091-.355.049-.558.95-1.377.807-3.268-.34-4.427-.598-.603-1.054-1.271-1.221-2.115-.194-.655-.139-1.27.291-1.826z" fill="#e03c65"/><path d="M26.021 57.111c-.044.853.232 1.667.317 2.506.038.373-.139.661-.144.996-.229.367-.466.112-.701.008.07-1.383-.089-2.752-.33-4.107-.072-.404-.042-.795-.039-1.184.007-1.114-.192-2.214-.168-3.327.151-.068.294-.027.438.027.264.63.198 1.311.294 1.966l.333 3.114z" fill="#651527"/><path d="M7.083 15.451c.1.16.268.124.417.144.017.221-.16.248-.303.277-.665.133-1.246.454-1.822.787-.095.063-.198.112-.3.161l-.071.034-.138.064a.91.91 0 0 0-.181.127l-.097.117-.042.067-.076.147-.428.796c-.654 1.341-.706 2.727-.322 4.147.075.277.211.54.202.838.004.071-.003.14-.023.208-.228.128-.299-.063-.399-.195-.318-.461-.477-.992-.653-1.514-.082-.177-.048-.38-.119-.559-.014-.096-.05-.187-.066-.283-.009-.099-.01-.197-.01-.296l.001-.405c.095-.61.186-1.221.412-1.8a3.55 3.55 0 0 1 .713-1.318c.714-.855 1.626-1.388 2.7-1.659.21-.006.429-.054.605.117z" fill="#f7f6f2"/><path d="M22.125 3.503l.031-.144c.038-.124.103-.205.249-.15l.258-.182c.2-.096.428-.05.632-.128.089-.008.179-.007.269-.007.206-.015.396-.074.567-.193l.169-.001c.369.185.763.174 1.159.148.103-.013.201.008.294.051.258.106.533.036.797.077l.579.144c.553.179 1.127.3 1.646.577.295.095.516.311.767.477.048.033.099.063.153.087.287.068.384.343.569.523.09.175.314.284.262.53a.29.29 0 0 1-.125.123c-.059.015-.118.014-.178.001a.78.78 0 0 1-.231-.138l-.208-.172c-.534-.393-1.036-.836-1.686-1.038a1.43 1.43 0 0 1-.155-.074l-.225-.102-.154-.048-.455-.157c-.072-.035-.14-.078-.209-.117-.122-.063-.254-.074-.388-.073-.115.002-.229.001-.343-.009-.291-.059-.587-.079-.883-.102a5.15 5.15 0 0 0-.456-.013l-.371.001-.184.001c-.184-.006-.364.015-.539.073-.12.033-.243.048-.367.057-.156.008-.309.038-.459.084-.258-.024-.49.226-.759.07-.038-.034-.054-.071-.049-.111s.013-.063.023-.063z" fill="#f0f3ed"/><path d="M32.239 19.795c-.405-.008-.818.264-1.214-.064-.479-.396-.79-.893-.946-1.487-.056-.212-.02-.445-.145-.644-.205-.247-.154-.47.065-.676.071-.044.136-.035.193.027.186.25.114.554.174.83l.102.383c.111.442.375.791.671 1.122.37.416.789.048 1.182.074.144.178.099.32-.083.435z" fill="#793326"/><path d="M5.187 16.64c.671-.57 1.464-.869 2.312-1.044.933.045 1.866.047 2.797-.039.079.027.094.113.149.163l.002.002c.033.046.033.091-.003.136l-.297.121c-.09-.083-.214-.051-.318-.089-.216-.012-.414.069-.62.113-.544.092-1.1-.032-1.642.096-.801.05-1.439.552-2.174.786l-.104-.01-.094-.045c-.05-.061-.053-.124-.008-.189z" fill="#964b2f"/><path d="M10.599 6.59c.201-1.068.602-2.053 1.208-2.955.049-.051.109-.076.181-.074l.091.045c.04.056.061.119.064.187-.111.556-.481 1-.658 1.529-.328.598-.338 1.294-.588 1.917a.18.18 0 0 1-.19.042c-.201-.205.036-.477-.108-.691z" fill="#924f35"/><path d="M18.127 1.061l-.302.144a1.58 1.58 0 0 0-.131-.133l.012.008c-.163-.119-.365-.11-.546-.168-.724-.233-1.427-.027-2.134.1-.142.009-.265-.037-.372-.129l-.055-.085c1.236-.751 2.624-.648 3.528.263z" fill="#985337"/><path d="M32.358 18.073c.06-.269.247-.389.494-.485l1.903-.79c-.123.609-.665.717-1.12.899-.41.164-.85.253-1.277.375z" fill="#a75241"/><path d="M28.318 24.591l.002.255c-.344.101-.472.328-.389.675-.385-.201-.197-.575-.227-.864-.019-.179.161-.376-.17-.427-.064-.01-.087-.118-.037-.162.265-.238.101-.549.151-.822.619.252.625.808.671 1.345z" fill="#9f4a33"/><path d="M33.283 11.835c.067-.054.191-.111.19-.163-.008-.255-.011-.521-.088-.759-.139-.434-.165-.847.053-1.259.067-.019.126-.006.175.045.125.197.109.434.185.645.038.149.051.3.051.452.004.126-.031.251-.019.376a.41.41 0 0 0 .104.07 1.53 1.53 0 0 1 .041.048c-.1.404-.237.789-.539 1.093l-.146-.294c-.078-.082-.075-.167-.006-.253z" fill="#95563a"/><path d="M2.106 27.403c.36-1.035.992-1.755 2.155-1.859.047.05.065.108.057.176-.443.447-1.112.591-1.479 1.155-.169.26-.231.634-.606.732-.104-.029-.187-.072-.127-.203z" fill="#9b593f"/><path d="M6.435 15.469c-1.008.294-1.895.786-2.59 1.591-.12.011-.192-.019-.141-.16.5-.743 1.264-1.121 2.041-1.48.087-.038.192-.026.268-.096h-.001c.042-.045.092-.056.15-.039.108.036.223.061.273.183z" fill="#9d5b42"/><path d="M10.599 6.59c.195.202.074.462.126.691.151.163.145.357.109.556-.04.157-.094.307-.195.437l-.082.05c-.18.207-.103.458-.11.691l-.019 1.503c-.23-.847-.146-1.708-.075-2.562.038-.459.161-.911.246-1.366z" fill="#8a4729"/><path d="M13.128 1.881c.463-.398.872-.869 1.471-1.083l.052.037c.083.048.147.109.131.217-.33.496-.909.712-1.292 1.15-.099.082-.206.147-.339.153-.104-.012-.176-.063-.209-.164-.006-.066.015-.122.067-.165l.001-.002a1.36 1.36 0 0 1 .118-.144z" fill="#965339"/><path d="M43.905 48.511c-.1-.068-.25-.07-.288-.219.358-.042-.261-.382.166-.479.523-.119.502-.682.672-1.08.02.038.058.076.059.114.018.719-.355 1.319-.597 1.959l-.012-.296z" fill="#941632"/><path d="M7.189 15.167c.619-.165 1.252-.117 1.881-.13.163-.082.328-.053.494-.012h.012l.318-.063.415-.05c.038.03.052.062.041.095s-.021.051-.033.051l-.016-.01c-.067.082-.181.055-.259.113l-.744.042c-.236.098-.499-.01-.735.095-.139.042-.278.033-.416-.004-.307-.135-.659.07-.958-.126z" fill="#b4654d"/><path d="M2.106 27.403l.153.148c.324.48-.031.975.032 1.462-.051.179-.027.416-.314.416-.231-.693-.126-1.365.129-2.026z" fill="#986249"/><path d="M3.579 23.115c.103.074.133.226.278.253.106.08.142.232.281.278a.8.8 0 0 1 .258.54c.075.088.08.175 0 .263l-.004.146c-.415-.374-.698-.842-.942-1.336-.045-.127.012-.163.129-.144z" fill="#94553b"/><path d="M1.977 29.429c.166-.116.128-.306.17-.467.413.507.459 1.171.743 1.733a.4.4 0 0 1-.063.196c-.061.061-.117.056-.167-.015-.374-.413-.631-.882-.684-1.447z" fill="#9c634c"/><path d="M3.198 18.295c-.202.604-.323 1.227-.439 1.851-.308-.064-.137-.269-.127-.427-.098-.558.253-1.032.292-1.564.051-.079.087-.175.202-.184.146.081.144.195.072.324z" fill="#95573f"/><path d="M3.579 23.115l-.129.144a.33.33 0 0 0-.087-.024c-.168-.136-.142-.387-.311-.523-.044-.284-.286-.506-.256-.813.061-.062.046-.147.068-.221l.063-.049.653 1.485z" fill="#94563d"/><path d="M12.999 2.158l.129.125c.043.427-.333.619-.513.92l-.178.175c-.051.058-.099.12-.143.185a.39.39 0 0 1-.108.109c-.054.017-.098.002-.131-.044h0c-.096-.134-.089-.268.001-.401l.002-.003c.045-.046.093-.088.127-.143l-.005.005c.036-.03.063-.068.081-.112l.041-.057a1.41 1.41 0 0 0 .084-.111c.019-.043.041-.083.069-.121l.001-.002c.05-.037.084-.085.101-.145l.338-.356c.02-.071.055-.076.104-.024z" fill="#97573e"/><path d="M28.849 3.788l-1.738-.585c-.009-.136.044-.19.178-.133.558.088 1.093.237 1.563.566l.047.078-.052.074z" fill="#a25d45"/><path d="M7.19 15.167c.312.097.66-.08.958.126-.352.072-.727-.012-1.065.158l-.647.018c-.104-.024-.215-.029-.29-.121.101-.173.309-.038.431-.15l.613-.031z" fill="#97492e"/><path d="M3.197 18.294c-.015-.105-.018-.215-.12-.284-.083-.043-.082-.086.001-.128l-.008.008c.051-.091.044-.203.107-.289l.004-.009c.093-.061.064-.182.128-.258l.395-.434.141.16-.648 1.235z" fill="#a16e56"/><path d="M33.972 9.813c.176.491.194.983.003 1.475l-.059-.002c-.082-.12-.085-.267-.133-.399a.64.64 0 0 1-.021-.175c.025-.218-.04-.428-.06-.642.002-.101.027-.195.093-.274.063-.038.122-.033.176.016z" fill="#ab7c69"/><path d="M25.511 2.93l-.994.019c-.166.001-.236-.09-.218-.252.492.021.986.016 1.473.114-.054.113-.187.049-.261.119z" fill="#9b7a69"/><path d="M32.756 7.924c-.43.061-.563-.167-.398-.68.213.179.437.353.398.68z" fill="#a05f45"/><path d="M30.47 5.378c.018-.235-.199-.352-.272-.542l.013-.052a.22.22 0 0 1 .075-.079c0 0 .054-.01.054-.01.259.289.533.568.642.958l-.039.008-.039-.009c-.038.039-.084.056-.138.056a.43.43 0 0 1-.139-.07l-.058-.053c-.036-.038-.064-.082-.087-.13l-.012-.078z" fill="#a16651"/><path d="M33.971 9.813l-.14-.006c-.168-.036-.205-.182-.263-.312-.02-.084-.063-.157-.107-.231-.07-.188-.18-.36-.213-.562l.003-.088c.037-.049.086-.077.147-.085.061.005.111.032.152.078a.88.88 0 0 0 .049.112c.013.06.043.11.091.149.052.327.317.591.28.945z" fill="#9c624a"/><path d="M2.631 19.718c.034.145-.016.314.127.427l.015.419c-.066.078-.063.161-.021.248l.012.292-.051.031-.049-.034c-.223-.457-.211-.919-.032-1.385z" fill="#9b6c55"/><path d="M29.54 4.274c-.244-.143-.511-.254-.691-.487l.006-.058a.42.42 0 0 1 .167-.031c.086.001.173-.001.23.081.116.156.346.172.44.356-.003.098-.095.1-.152.138z" fill="#b27965"/><path d="M26.576 3.072c-.28-.011-.567.033-.833-.097.057-.122.208-.053.283-.139.242-.009.489-.059.706.101-.018.084-.102.093-.156.135z" fill="#b97660"/><path d="M2.662 21.103c.033.012.067.013.101.002.185.134.125.344.163.524l-.048.033c-.017.059-.053.102-.107.131-.07-.225-.256-.432-.108-.691z" fill="#87472a"/><path d="M2.771 30.936l.009-.144c.036-.058.088-.078.154-.066.208.133.403.284.575.462.035.097.021.183-.054.257l-.163.014c-.13-.093-.203-.264-.389-.279-.053-.076-.182-.111-.132-.243z" fill="#9e563d"/><path d="M30.198 4.836c-.241-.113-.314-.412-.564-.515.015-.085.097-.093.153-.132a.36.36 0 0 1 .106-.009.26.26 0 0 1 .161.138l-.008-.008c.065.025.103.082.149.129l.145.255-.04.045-.062.062-.039.034z" fill="#a56b50"/><path d="M4.274 25.687l-.013-.143.665-.013c.164.195-.134.136-.133.241-.21.197-.368.076-.519-.085z" fill="#b14927"/><path d="M33.027 8.054c.274.002.283.279.43.414l-.029.049c-.04.006-.07.026-.09.062l-.046.022c-.046.05-.098.057-.155.019-.047-.112-.098-.221-.171-.319-.02-.092-.026-.181.061-.246z" fill="#a9705b"/><path d="M23.346 2.956c-.214.151-.447.128-.683.071.059-.148.206-.135.317-.185l.363.004c.045.023.06.047.046.072s-.028.038-.043.038z" fill="#967160"/><path d="M26.576 3.072l.156-.135c.19.029.397-.019.558.133l-.178.133c-.199.04-.36-.075-.535-.131z" fill="#a96149"/><path d="M24.13 2.698c-.077.306-.301.269-.528.227l.003-.074c.164-.089.333-.159.525-.153z" fill="#b18979"/><path d="M10.318 15.059l-.008-.146.228-.483c.097.308.075.522-.22.629z" fill="#b69181"/><path d="M8.564 15.298c.223-.196.486-.093.735-.095-.232.128-.485.095-.735.095z" fill="#ad715a"/><path d="M33.026 8.053l-.004.265a.1.1 0 0 1-.026.182c-.172-.16-.186-.378-.214-.591a.07.07 0 0 1 .086.011c.049.054.104.1.159.147l-.002-.013z" fill="#cbab9a"/><path d="M3.052 22.712c.201.117.282.304.311.523-.232-.098-.279-.306-.311-.523zm3.524-7.514l-.431.15-.133-.023c.15-.209.366-.128.564-.127z" fill="#f7f6f2"/><path d="M12.056 3.228v.401l-.249.006c.073-.142.115-.303.249-.407z" fill="#9b5b42"/><path d="M26.026 2.836c-.064.108-.182.107-.283.139l-.232-.045c.063-.092.168-.092.261-.119l.253.024z" fill="#a9573d"/><path d="M33.015 13.025c.005-.192.093-.325.277-.39-.005.192-.085.331-.277.39z" fill="#95563a"/><path d="M2.771 30.936l.132.243c-.187-.016-.26-.123-.242-.302.038.017.075.037.11.059z" fill="#f8f9f4"/><path d="M9.565 15.025l-.494.012c.162-.1.326-.133.494-.012z" fill="#ad715a"/><path d="M6.013 15.324c-.067.095-.162.111-.268.096.068-.09.164-.104.268-.096z" fill="#f7f6f2"/><path d="M10.445 15.72l-.149-.163c.051-.092.103-.096.157-.003l-.008.166z" fill="#834628"/><path d="M23.605 2.851c0 .025-.001.049-.003.074l-.256.031-.003-.11.262.006z" fill="#ba614d"/><path d="M29.787 4.189l-.153.132c-.04 0-.071-.015-.094-.047l.152-.138c.038.006.069.024.095.053z" fill="#975138"/><path d="M10.043 15.161c.062-.092.156-.113.259-.113-.057.105-.148.13-.259.113z" fill="#b16c57"/><path d="M9.895 14.962c-.091.097-.204.082-.318.063.095-.077.203-.085.318-.063z" fill="#ad715a"/><path d="M22.98 2.842c-.072.118-.204.13-.314.18.007-.084.024-.162.106-.208l.208.028z" fill="#f0f3ed"/><g fill="#f7f6f2"><path d="M3.309 17.334c-.009.103-.034.197-.128.258.004-.105.029-.2.128-.258zm-.132.268c0 .11.019.226-.107.289-.017-.116 0-.219.107-.289z"/><path d="M3.078 17.883c.004.043.004.085-.001.128l-.154.143c-.003-.122.016-.231.155-.271z"/></g><path d="M29.252 3.78l-.228-.023c-.047-.015-.069-.039-.066-.071s.012-.054.024-.054c.118-.001.22.025.27.148z" fill="#f0f3ed"/><path d="M2.77 21.794l.108-.131c.03.099.012.181-.083.236-.032-.029-.04-.064-.025-.105z" fill="#864422"/><path d="M32.482 26.472c-.112.017-.209-.003-.268-.113.113-.018.207.008.268.113z" fill="#b7bbcf"/><path d="M4.566 24.857c.066.021.099.065.099.134-.067-.019-.108-.058-.099-.134zm-.175-.262c.083.019.126.071.127.156l-.127-.156z" fill="#94553b"/><path d="M33.293 12.635c-.006-.069.023-.115.088-.139.006.068-.023.115-.088.139z" fill="#95563a"/><path d="M33.692 8.869c-.059-.032-.106-.072-.091-.149.063.029.093.08.091.149zm-.14-.261l-.063-.009-.064.001c-.036-.036-.047-.079-.034-.128l.067-.004c.061.027.096.072.095.14z" fill="#d5bead"/><path d="M33.028 8.066l-.159-.147c.112-.015.142.059.159.147z" fill="#863d1b"/><g fill="#d0b5a5"><path d="M13.127 1.88c-.006.076-.043.125-.118.144.006-.076.049-.12.118-.144zm-.128.278a.31.31 0 0 1-.104.024c-.003-.082.037-.131.113-.156.002.044-.001.088-.009.132zm-.442.381a.15.15 0 0 1-.102.145c-.002-.074.033-.121.102-.145z"/><path d="M12.455 2.686c.009.043.01.087.003.131l-.078.061-.071-.07.146-.122z"/><path d="M12.217 2.98l.092-.172.044.042c.018.042.009.077-.027.106l-.002.003-.049.034-.059-.013z"/></g><g fill="#f0f3ed"><path d="M30.194 4.44c-.072-.017-.128-.052-.149-.129.073.015.123.059.149.129z"/><path d="M30.053 4.319c-.079-.016-.132-.064-.16-.138.083.012.136.058.16.138z"/></g><path d="M12.217 2.979c.037-.001.073-.008.107-.021l-.143.128a.28.28 0 0 1 .036-.107z" fill="#9b5b42"/><path d="M28.983 3.632l.041.125-.169-.026-.001-.095c.043-.008.086-.009.129-.004z" fill="#ac5a45"/><path d="M12.185 3.082l-.127.143c.011-.076.054-.123.127-.143z" fill="#9b5b42"/><path d="M5.198 26.476l1.156-.664c.53-.373.73-.938.724-1.565-.007-.733.231-1.404.486-2.067.181-.472.587-.78.981-1.072.524-.388 1.11-.662 1.741-.828.796-.21 1.473-.639 2.064-1.186a2.86 2.86 0 0 0 .88-1.623c.14-.832.189-1.675.167-2.526-.022-.864-.187-1.718-.134-2.587.084-1.359.476-2.614 1.209-3.761.152-.076.284-.113.272.137-.321.73-.717 1.431-.855 2.231-.136.787-.214 1.564-.157 2.378.106 1.504.25 3.027-.178 4.514-.408 1.416-1.451 2.21-2.767 2.68-.78.278-1.539.556-2.209 1.072-.435.335-.707.731-.824 1.25-.133.585-.252 1.167-.285 1.774-.038.702-.373 1.303-1.033 1.608-.634.293-1.097.829-1.732 1.123-.229.106-.401.409-.444.715-.088.081-.174.082-.258-.005l-.008-.269c-.015-.689.497-1.256 1.204-1.332z" fill="#482418"/><path d="M20.387 12.362c-.062.438-.401.734-.588 1.11-.517 1.038-.594 2.079-.239 3.163.291.89.554 1.788.667 2.719.124 1.027-.275 1.866-.982 2.591-.5.513-1.133.804-1.77 1.064-1.114.454-1.944 1.245-2.661 2.16a2.86 2.86 0 0 0-.619 1.864c.028 1.651.144 3.29.4 4.921.024.156.088.328-.007.541-.203-.344-.338-.681-.364-1.022-.111-1.487-.393-2.962-.298-4.467a3.97 3.97 0 0 1 .853-2.27c.851-1.097 1.991-1.746 3.223-2.294.612-.272 1.202-.59 1.54-1.226.321-.604.511-1.222.413-1.921-.159-1.131-.604-2.19-.801-3.31-.235-1.336.17-2.5.986-3.544.044-.056.163-.054.248-.079l-.002-.002z" fill="#5b2918"/><path d="M19.985 9.541c-.346.701-.875 1.288-1.209 2-.441.938-.675 1.925-.809 2.945l-.293 3.451c-.07 1.202-.486 2.275-1.587 3.011-.495.332-.958.744-1.492.999-1.348.643-2.045 1.748-2.361 3.134s-.667 2.77-.584 4.212c-.072.075-.109.219-.263.133-.025-1.495.183-2.965.561-4.405.192-.73.464-1.445.924-2.064.282-.379.635-.665 1.039-.924.928-.596 1.978-1.02 2.701-1.919.494-.614.79-1.296.811-2.073.048-1.734.203-3.455.555-5.154.174-.842.642-1.563 1.045-2.307.127-.234.293-.447.441-.669.126-.19.262-.366.521-.37h.001z" fill="#5c2a18"/><path d="M17.567 31.712l-.004-.13c-.078-.074-.045-.201-.13-.272-.24-.962-.066-1.876.22-2.809.202-.657.35-1.323.658-1.949.624-1.269 1.523-2.292 2.659-3.117l.979-.697c.561-.39.764-.892.581-1.548-.127-.453-.336-.871-.657-1.227-.611-.679-.795-1.491-.648-2.367.172-1.024.601-1.952 1.179-2.812.155-.091.273-.106.266.132-.593.83-.941 1.774-1.181 2.748-.196.793.099 1.507.617 2.105.334.386.498.838.68 1.294.259.651-.108 1.55-.602 1.9l-1.92 1.444c-.657.525-1.084 1.241-1.492 1.957-.709 1.242-1.059 2.593-1.128 4.015-.015.308.039.62.061.93.04.164.198.367-.136.405z" fill="#542718"/><path d="M24.955 25.122c-.001-.2.141-.317.258-.453.503-.585.563-1.119.13-1.765a9.47 9.47 0 0 0-1.04-1.302c-.635-.659-1.07-1.425-1.349-2.283-.372-1.142-.031-2.158.637-3.082.431-.596 1.021-1.05 1.543-1.565.125-.124.238-.079.363-.023l-.002-.001c-.382.527-.885.939-1.344 1.393-.503.497-.88 1.079-.998 1.769-.187 1.094.215 2.057.851 2.917.435.588.874 1.178 1.399 1.696.27.267.46.596.567.968.195.68.516 1.322.475 2.067-.047.874-.562 1.653-1.381 1.945-.188.067-.383.12-.579.154-.806.138-1.402.532-1.675 1.335-.046.032-.093.034-.139 0 .064-.848.642-1.441 1.599-1.602.424-.071.824-.172 1.176-.433.757-.56.798-1.341.682-2.17-.024-.171-.092-.336-.163-.583-.241.515-.677.787-1.007 1.159-.047-.03-.063-.061-.048-.093s.03-.048.045-.048z" fill="#562818"/><path d="M29.398 13.982c-.413.212-.672.579-.948.93-.081.072-.187.114-.245.212-.09.072-.182.137-.299.053.354-.743.737-1.502 1.287-2.085.587-.623 1.03-1.322 1.501-2.014.034-.051.03-.129.043-.194.115-.739.438-1.431.5-2.183.021-.255.106-.473.305-.64.025-.175.084-.306.285-.168s.289.362.387.574c-.188.077-.225.237-.276.418-.293 1.041-.597 2.078-1.165 3.017-.146.241-.438.397-.438.725-.053.272-.301.366-.478.524-.25.223-.507.441-.458.828z" fill="#a14833"/><path d="M24.954 25.122l.003.141c-.366.264-.789.407-1.209.553-.359.125-.706.273-1.049.438-1.213.583-1.602 1.678-1.758 2.886-.062.485.218.893.603 1.208.379.309.768.607 1.012 1.052.261.474.214.967-.155 1.388l.003.002c.174-.953-.273-1.589-.993-2.158-.869-.687-.981-1.296-.577-2.374.124-.332.152-.693.33-1.012.364-.655.931-1.095 1.585-1.387.706-.315 1.425-.624 2.204-.737z" fill="#502519"/><path d="M5.197 26.476c-.596.268-.972.735-1.204 1.332-.385.636-.455 1.328-.343 2.043.035.221.103.438.029.653-.105.305-.249.14-.38.011-.445-.297-.48-.778-.555-1.241-.007-.65-.064-1.31.404-1.857.112-.129.234-.251.327-.396.454-.511.925-.99 1.709-.792l.013.247z" fill="#fafaf6"/><path d="M15.303 19.062l.254-.536c.241-.578.428-1.161.404-1.807l-.006-2.41c.012-1.587.525-3.054 1.104-4.503.037-.091.125-.118.287-.093l-.361 1.105c-.613 1.488-.827 3.036-.763 4.635l.001 1.741c.004.553-.226 1.039-.433 1.529-.078.183-.239.313-.487.339z" fill="#562818"/><path d="M14.933 19.696c.092.196-.072.293-.188.364-.271.166-.469.413-.715.6-.726.548-1.395 1.183-2.232 1.572-.469.218-.9.501-1.305.809-.681.518-1.149 1.181-1.127 2.093a2.32 2.32 0 0 1-.018.334c-.012.098-.08.167-.176.166-.135-.001-.202-.098-.192-.222.104-1.219.575-2.229 1.671-2.868l1.57-.889c.864-.545 1.618-1.237 2.42-1.865.084-.066.155-.168.292-.093z" fill="#552718"/><path d="M25.899 20.959l.13.141c.121.276.476.434.404.807-.759-.279-1.197-.879-1.516-1.572-.194-.423-.349-.873-.404-1.339-.056-.474-.092-.955-.076-1.431.014-.411.207-.532.791-.632.088.084.133.199.088.303-.498 1.145.053 2.178.335 3.239.105.15.119.346.249.483z" fill="#a04832"/><path d="M20.389 12.364c-.022-.214.051-.384.201-.543.662-.7 1.381-1.317 2.211-1.824.8-.488 1.698-.784 2.463-1.336.614-.443 1.215-.887 1.652-1.522.129-.188.291-.371.548-.496-.008.265-.117.425-.252.571-.881.959-1.844 1.81-3.032 2.382l-1.711.916c-.508.328-.958.707-1.349 1.171-.213.252-.43.516-.733.679l.002.002z" fill="#5e2b19"/><path d="M25.629 20.561c-.449-.842-.7-1.727-.683-2.695.006-.355.353-.575.282-.932.704-.296 1.407-.596 2.011-1.08l.058.077c.037.387-.296.542-.49.785-.045.046-.094.087-.145.126s-.104.072-.16.102c-.864.392-1.007.623-.882 1.553.057.422-.053.84.008 1.258l.002.538c.076.09.076.18-.002.269z" fill="#c84e3a"/><path d="M25.495 14.648c0-.157.005-.298.155-.414.317-.246.625-.507.983-.689.452-.23.765-.591 1.062-.991.923-1.24 1.625-2.593 2.159-4.038.013-.034.066-.053.101-.079.083.01.111.077.089.135-.446 1.188-.943 2.35-1.614 3.435-.723 1.171-1.778 1.959-2.937 2.639l.001.001z" fill="#5c2918"/><path d="M9.123 26.306c.192-.017.229.055.224.113-.047.618.106 1.221.053 1.852-.078.936-.618 1.574-1.193 2.175L6.97 31.648c-.013-.389.196-.608.406-.833.395-.423.851-.786 1.169-1.287.371-.583.595-1.188.561-1.891-.022-.448-.036-.904.017-1.331z" fill="#502518"/><path d="M22.805 14.646c-.144-.24.011-.37.184-.487l2.309-1.564c.876-.587 1.578-1.353 2.236-2.164.072-.088.14-.171.246-.216l-.001-.001c.021.422-.254.702-.507.969-.776.816-1.598 1.568-2.584 2.148-.505.297-1.021.621-1.43 1.068-.121.132-.25.255-.449.252l-.003-.003z" fill="#5f2b1a"/><path d="M31.541 8.062l-.148.844c-.101.693-.272 1.375-.657 1.979-.011-.105.028-.222-.1-.329-.197.201-.358.422-.449.693-.041.123-.13.188-.247.134s-.041-.161-.003-.225l.665-1.08c-.007-.553.059-1.095.266-1.613.057.042.044.122.075.165.078.108.022-.001.025-.021.037-.27.166-.536.037-.814.004-.171-.021-.354.18-.46a.71.71 0 0 1 .133.552c-.02.143.114.16.223.175z" fill="#8c3d20"/><path d="M19.985 9.541c.094-.459.474-.677.8-.934.714-.564 1.479-1.055 2.263-1.514.712-.415 1.385-.874 1.916-1.518.068-.082.174-.134.262-.2v-.001c-.284.783-.937 1.234-1.591 1.631-1.219.739-2.44 1.463-3.462 2.475-.041.041-.124.041-.187.06l-.001-.001z" fill="#5c2a18"/><path d="M26.433 21.906c-.144-.264-.385-.48-.404-.807.7.536 1.378 1.107 1.977 1.748.448.479.614 1.091.312 1.744-.254-.433-.315-.963-.671-1.345v-.001c-.078-.072-.055-.195-.134-.267-.104-.058-.135-.155-.143-.264a.64.64 0 0 0-.26-.274h0l-.135-.134h0l-.135-.133h0c-.125-.104-.272-.174-.404-.267h0z" fill="#c85339"/><path d="M27.777 3.789c.066-.008.119.009.145.077.027.058.067.074.125.042.731.223 1.322.672 1.893 1.156.04.057.041.114.003.172-.151.142-.294.039-.439-.014-.083-.043-.178-.055-.254-.113l.009.006c-.126-.109-.266-.193-.427-.238-.153-.064-.291-.16-.445-.223-.252-.048-.416-.301-.691-.293-.193-.073-.381-.076-.557.049-.076-.002-.13-.038-.166-.103-.109-.104-.057-.235-.059-.356.024-.059.065-.103.125-.128a.54.54 0 0 1 .179-.013c.141.015.271.095.419.066a.59.59 0 0 0 .141-.085z" fill="#9d5940"/><path d="M27.107 3.886l-.13.031c-.049.049-.1.051-.152.007l-.378-.037c-.095-.065-.189-.077-.28.008h-.001a.09.09 0 0 1-.13-.001l-.002-.001c-.394-.166-.818.017-1.216-.105l-1.465-.038c-.052-.222.136-.235.262-.302.119-.018.23-.067.349-.083.122-.007.234-.036.317-.136l.166.007a.53.53 0 0 0 .475.059c.118.001.236-.011.35.033.259.119.545.028.809.099.179-.003.347.082.527.071.058.003.115.012.171.027.082.027.149.081.221.126l.141.09c.023.055.013.104-.033.144z" fill="#e8eee7"/><path d="M14.745 8.736c-.059-.109-.16-.134-.272-.137.176-.516.524-.921.864-1.329.157-.187.371-.325.481-.553.159-.124.339-.156.534-.124-.603.664-1.122 1.391-1.607 2.143z" fill="#522719"/><path d="M19.181 7.124c-.657.737-1.251 1.522-1.784 2.523-.027-.757.759-1.851 1.781-2.661.041.03.055.061.042.092s-.026.047-.039.047z" fill="#632d19"/><path d="M22.671 28.891h.139c.134.642.466 1.204.804 1.748-.245.154-.326.009-.404-.081-.356-.416-.517-.924-.652-1.442-.024-.093.039-.168.113-.225z" fill="#552818"/><path d="M19.181 7.124l-.003-.138c.551-.58 1.163-1.074 1.953-1.431-.198.275-1.567 1.36-1.95 1.57z" fill="#73331a"/><path d="M11.386 29.427l.263-.133-.001 1.744c0 .042-.022.085-.04.146-.263-.573-.231-1.166-.222-1.757z" fill="#6a3119"/><path d="M2.897 29.293c.062.431.258.819.402 1.223l-.116.128a.16.16 0 0 1-.188.004c-.307-.413-.574-.839-.447-1.392a.26.26 0 0 1 .139-.139c.127-.01.168.083.209.176z" fill="#9d6851"/><path d="M29.183 7.185c-.044.825-.215 1.252-.57 1.606-.042-.343.192-.556.281-.813l.289-.792z" fill="#6b2f18"/><path d="M33.176 8.551c.04.013.078.029.116.049.136.196.24.405.278.644l.08.156.182.407-.028.289c-.075.074-.01.213-.125.268-.179-.185-.114-.422-.138-.64-.017-.064-.062-.117-.084-.179a.19.19 0 0 1-.041-.121c-.065-.086-.043-.207-.117-.288l-.005-.007c-.085-.065-.055-.187-.126-.259-.027-.026-.037-.057-.03-.094-.052-.086-.039-.162.039-.226z" fill="#dacbbc"/><path d="M17.567 31.712c.159-.097.127-.258.136-.405.195.439.259.909.339 1.381-.246-.287-.393-.616-.475-.976z" fill="#642e19"/><path d="M3.455 31.444v-.253c-.08-.088-.081-.177-.003-.267.206.329.575.437.866.651.141.104.235.24-.059.27l.006.005c-.072-.086-.201-.059-.276-.139l.006.004c-.073-.083-.2-.061-.276-.139l.007.005c-.072-.082-.197-.06-.272-.136l-.001-.001z" fill="#bd3659"/><path d="M27.78 10.213c.065-.482.45-.771.677-1.155-.027.505-.275.876-.678 1.154l.001.001z" fill="#5f2b1a"/><path d="M22.14 3.681l.799-.221c.106-.033.261-.043.267.069.012.264-.28.098-.382.225-.355.132-.721.178-1.098.138l.165-.135c.073-.06.156-.088.251-.075z" fill="#9c604a"/><path d="M31.005 7.796c.377.378.099.722-.06 1.091-.13-.131-.051-.286-.077-.421-.035-.24.123-.44.137-.67z" fill="#96482d"/><path d="M23.507 32.019c-.024-.446.054-.718-.036-1.073.349.415.351.473.036 1.073z" fill="#652e19"/><path d="M28.746 4.959c-.28-.021-.585.122-.832-.123.032-.032.041-.064.03-.095s-.023-.047-.034-.047l.006-.135c.15-.126.278-.002.414.034.126.079.276.111.394.205.029.033.042.068.039.104s-.009.057-.017.057z" fill="#96482a"/><path d="M22.824 3.752l.144-.108c.05-.039.196.021.14-.119-.015-.039-.111-.045-.169-.067.117-.131.268-.105.416-.092.062.093.216.022.261.146l-.266.237-.527.002z" fill="#e0c9bd"/><path d="M27.905 15.177l.278-.126c.171.387-.168.506-.366.7-.106.032-.194-.003-.27-.077l-.042-.09c.091-.178.231-.307.401-.406z" fill="#c84e3a"/><path d="M29.491 5.125l.448.103.062.034c.037.03.071.063.104.097.026.041.042.086.048.134a.31.31 0 0 1-.043.137l-.064.034c-.269-.047-.446-.253-.666-.384-.013-.088.07-.106.112-.155z" fill="#a7654e"/><path d="M24.817 3.789c.409-.011.827-.12 1.216.105-.406-.026-.824.088-1.216-.105z" fill="#ad6e56"/><path d="M3.452 30.924l.003.266c-.283-.004-.41-.212-.542-.415.016-.087.066-.141.154-.159a.8.8 0 0 0 .115.027.47.47 0 0 0 .269.28z" fill="#dfd5c9"/><path d="M28.323 4.692l-.406-.133-.265-.153-.006-.088c.307-.039.567.082.814.243-.007.084-.084.096-.137.132z" fill="#bca68f"/><path d="M30.601 5.507l.141.136c.031.025.045.055.044.088s-.005.052-.013.052c-.043.067-.093.13-.119.207-.047.066-.094.132-.184.056l-.259-.276c-.048-.033-.063-.078-.046-.134.035-.04.078-.07.128-.09.1-.033.205-.031.308-.038z" fill="#d3c3b3"/><path d="M27.646 4.317c.006.029.008.059.006.089-.171.057-.342.037-.513.004.129-.253.288-.34.507-.092z" fill="#aa9076"/><path d="M4.001 28.078l.258.005c-.029.104.077.291-.107.292-.145.001-.148-.171-.152-.297z" fill="#69321a"/><path d="M26.825 3.924l.152-.007-.005.389c-.512.05-.114-.249-.147-.383z" fill="#ad6e56"/><path d="M21.295 4.276c-.097-.297.151-.293.316-.36-.034.183-.108.331-.316.36z" fill="#646e4f"/><path d="M28.746 4.958c-.012-.038-.028-.074-.05-.108.056-.077.12-.085.193-.023.193.006.329.085.369.287-.197.033-.329-.146-.512-.156z" fill="#dacfbf"/><path d="M26.433 21.907c.197-.005.33.086.404.267a.41.41 0 0 1-.404-.267z" fill="#a04832"/><path d="M22.67 14.914c-.057-.108-.157-.129-.266-.132.095-.16.254-.13.401-.136l.003.003c-.004.11-.028.21-.138.265z" fill="#5f2b1a"/><path d="M25.226 5.375c.012-.064.011-.134.04-.188s.11-.133.129-.124c.124.064.042.143-.011.202-.041.046-.105.074-.159.109h.001z" fill="#5c2a18"/><path d="M30.471 6.045l.139-.145.066-.042.05.06c.008.086.026.191-.064.233s-.166.001-.191-.106z" fill="#c2a18f"/><path d="M27.108 22.441c.176.007.265.096.26.274-.122-.058-.213-.146-.26-.274z" fill="#a04832"/><path d="M33.176 8.551l-.039.226c-.085-.073-.125-.168-.14-.277l.026-.182c.1.045.131.136.153.233z" fill="#dbc3b4"/><path d="M25.861 4.446c-.023.048-.06.061-.098.025-.026-.026-.037-.066-.055-.1.035-.009.08-.035.104-.023s.034.064.049.098z" fill="#924f31"/><path d="M24.191 4.248c-.015.006-.033.02-.046.017-.05-.013-.055-.041-.013-.067.011-.007.036 0 .05.009s.007.027.01.041z" fill="#925034"/><path d="M33.298 9.136c.11.067.123.174.117.288-.097-.073-.106-.181-.117-.288z" fill="#d5bead"/><path d="M24.908 4.121c.007.018.024.039.02.054-.015.059-.047.065-.077.016-.008-.013 0-.042.01-.057.007-.01.031-.009.047-.013z" fill="#a46c4f"/><path d="M26.561 4.6c.016.007.043.011.046.022.011.04-.015.06-.064.048-.011-.003-.027-.031-.023-.04s.027-.02.042-.03z" fill="#a25b3c"/><path d="M30.735 5.777l.007-.134.16.009c-.031.107-.057.218-.178.265l.007.003c-.033-.032-.043-.064-.032-.096s.023-.047.034-.047z" fill="#aa715d"/><path d="M22.402 32.787l-.048.174c-.123-.099-.005-.126.051-.172z" fill="#502519"/><path d="M33.027 12.469c-.017-.007-.044-.008-.049-.02-.018-.039.005-.062.056-.053.014.002.026.026.038.039l-.045.034z" fill="#95563a"/><path d="M26.166 3.896c.09-.139.184-.106.28-.008l-.28.008z" fill="#ad6e56"/><path d="M17.433 31.31c.108.06.13.161.13.272-.105-.061-.13-.16-.13-.272z" fill="#642e19"/><path d="M33.283 11.835l.006.253c-.154-.081-.143-.165-.006-.253z" fill="#a76648"/><path d="M33.167 8.871c.099.058.122.154.126.259-.095-.06-.129-.15-.126-.259z" fill="#d5bead"/><path d="M29.491 5.125l-.112.155c-.074-.033-.14-.074-.129-.171l.241.016z" fill="#ceccb8"/><path d="M27.512 22.979c.108.057.132.157.134.267-.11-.056-.133-.156-.134-.267z" fill="#9f4a33"/><g fill="#c84e3a"><path d="M27.239 15.853l.133-.136.023.088a.12.12 0 0 1-.15.053l-.005-.006z"/><path d="M27.371 15.717l.133-.133.007.008c.034.124-.018.161-.135.133l-.006-.007z"/></g><path d="M33.456 9.546l.084.178c-.028-.032-.062-.056-.103-.071.001-.037.007-.073.019-.108z" fill="#dbc3b4"/><path d="M30.208 5.644l.003.125-.166-.105.041-.042a.09.09 0 0 1 .122.021z" fill="#a7654e"/><path d="M27.911 4.694c.091.045.115.092.003.142l-.003-.142z" fill="#9b7760"/><path d="M26.034 3.895c.043-.017.087-.017.13.001l-.067.096-.063-.096z" fill="#ad6e56"/><path d="M25.227 52.002c-.089.152-.18.014-.271.002-.29-.713-.291-.725-1.077-.664-.422.032-.846.086-1.258.181-.895.209-1.802.302-2.716.358-.579.036-1.138.209-1.702.319l-4.424 1.042c-.983.213-1.911.605-2.897.803-.275.055-.533.225-.78.375-.526.32-.978.107-.975-.519L9.09 52.9l-.089-3.613-.06-5.027-.067-2.773c-.061-1.154.066-2.303.087-3.456.194-.294-.04-.653.143-.95.063-.038.131-.051.204-.041a.65.65 0 0 1 .508.386c.16.358.151.74.151 1.119-.002 3.436.135 6.868.239 10.301.039 1.289.159 2.583.051 3.876-.017.204-.028.403.137.558.422.04.787-.159 1.16-.289 2.601-.906 5.284-1.471 7.981-1.992.525-.102 1.075.045 1.583-.186 1.199-.249 2.382-.644 3.636-.406a1.09 1.09 0 0 1 .584.571c.08.354.157.708-.11 1.025z" fill="#621326"/><path d="M9.649 37.378c-.071-.185-.339-.113-.402-.308l.006.006c-.178.118-.146.302-.153.475s.036.358-.139.48c-.019-.659.014-1.317.152-1.962.053-.248-.018-.48-.004-.719.184-.179.113-.41.12-.622.01-.286.06-.554.27-.845.247.393.268.791.282 1.191.281.786.29 1.557-.131 2.304z" fill="#6e172b"/><path d="M9.649 37.378l.126-1.514c.017-.262.005-.526.005-.79.215-.174.423-.303.722-.143.28.15.6.147.916.144L14.539 35c.303-.024.614.061.924.082.609.041 1.186-.202 1.795-.148.973.086 1.949-.042 2.921.015.948.055 1.864-.115 2.777-.298.447-.09.809-.433 1.219-.646.894-.466 1.556-1.224 2.152-2.018a1.92 1.92 0 0 0 .381-1.445c-.064-.453.048-.804.504-1.056.509-.281.763-.804.926-1.344.105-.348.24-.39.617-.364.811.055 1.537.394 2.315.537.191.035.374.173.578.047.059.504-.053 1.032.237 1.503.113.184.007.341-.129.474-.889.87-1.007 1.93-.798 3.091.106.593.176 1.179.526 1.704.413.619.998 1.03 1.622 1.364.598.32 1.116.729 1.635 1.149.225.057.366.185.367.432-.099 1.205-.134 2.409-.057 3.618.024.384.112.806-.175 1.155-.899-.025-1.78.112-2.657.291-.142.096.008.3-.144.393-.155.251-.107.538-.143.809-.028.03-.037.06-.027.089s.019.044.029.044l-.001.138c-.041.359-.249.559-.56.749-1.064.648-2.203 1.185-3.08 2.115-.466.494-.796 1.075-1.175 1.625-.435.631-1.011 1.043-1.78 1.159a.36.36 0 0 1-.062-.192c.522-1.384 1.204-2.7 1.936-3.972 1.242-2.158 1.907-4.473 2.238-6.911.097-.712-.03-1.388-.31-2.033-.374-.862-1.43-1.191-2.557-.873-1.305.369-2.192 1.265-2.965 2.301-.556.746-.778.747-1.185-.079-.468-.95-1.168-1.698-2.053-2.258-1.333-.841-2.96-.302-3.543 1.136-.738 1.823-.556 3.645.027 5.453.789 2.446 2.034 4.668 3.43 6.813.125.192.355.37.216.657-1.151.448-2.369.647-3.561.941l-5.694 1.568c-.421.153-.755.377-.947.79-.12.004-.237-.012-.221-.169.036-.353-.075-.699.01-1.063.089-.385-.053-.792-.046-1.182l-.14-5.201-.143-7.818c.007-.271-.042-.534-.116-.793z" fill="#e03b65"/><path d="M1.215 56.243c-.014.01-.028.027-.042.027-.05-.003-.063-.028-.032-.059.009-.01.036-.012.05-.007s.017.026.025.039z" fill="#ba556f"/><g fill="#863d1b"><path d="M3.99 31.711c.11.01.217.027.276.139-.113-.004-.216-.03-.276-.139z"/><path d="M3.721 31.577c.111.007.214.032.276.139-.112-.006-.215-.031-.276-.139z"/><path d="M3.456 31.445c.111.004.214.026.272.136-.111-.004-.212-.029-.272-.136z"/></g><path d="M28.417 26.601l-.021.046-.049-.063c.014-.008.031-.026.041-.022s.019.026.029.04z" fill="#c75170"/><path d="M28.624 26.287c-.016.006-.033.02-.046.017-.05-.013-.055-.041-.013-.067.011-.007.036 0 .049.01s.007.027.01.041z" fill="#b9526c"/><path d="M12.329 10.753l-.002 2.28c.001.311.048.616.091.926.119.866.06 1.737-.231 2.569-.384 1.094-1.339 1.562-2.3 2.004-.581.267-1.202.279-1.833.293-1.134.024-2.019.477-2.449 1.602-.074.074-.114.215-.266.134.179-1.102 1.187-1.995 2.279-2.016l1.061-.003c.154-.001.313.009.423-.133.085-.07.172-.076.26-.007.525-.19 1.022-.426 1.504-.717.751-.453 1.06-1.122 1.211-1.951.131-.717.056-1.405.003-2.116-.076-1.04-.09-2.094.114-3.131.252-.014.207.12.134.268z" fill="#522619"/><path d="M3.068 30.617l-.154.159-.134.016c-.244-.598-.58-1.165-.632-1.83-.071-.479.13-.936.112-1.411.223-.3.341-.66.58-.955.379-.469.913-.674 1.435-.909l.519.085.246.049c.196.239-.014.297-.171.35-.315.108-.639.203-.91.397-.18.129-.459.216-.382.539-.019.15-.113.242-.241.306-.508.133-.469.581-.552.959-.025.265.07.55-.13.786-.08.548.206.992.415 1.458z" fill="#f8f9f4"/><path d="M5.354 16.809l1.278-.665c.254-.116.53-.217.826-.166.661-.116 1.327-.022 1.991-.051.131-.006.201.071.199.206-.359.188-.74.254-1.146.281-.961.062-1.882.318-2.763.709-.502.223-.887.584-1.21 1.018-.038.051-.096.084-.126.142h0c-.263.025-.23-.165-.239-.326.113-.253.264-.481.469-.67a1.63 1.63 0 0 1 .137-.098l.066-.047.124-.099.059-.051c.038-.036.079-.067.122-.096l.071-.029c.05-.012.097-.031.142-.057z" fill="#f4f4ef"/><path d="M3.863 23.245c-.661-1.459-.711-2.957-.28-4.484.078-.277.163-.554.376-.768.062-.048.125-.049.189-.004.227.555-.342.954-.29 1.475-.003.135.002.271-.029.404-.106.18-.112.378-.105.579v.494c-.033.293.063.575.066.865-.011.127.024.242.099.345.037.083.034.171.039.259l.196.564-.14.287c-.047.047-.088.044-.121-.017z" fill="#904e33"/><path d="M13.383 2.136c.391-.478.904-.81 1.396-1.169.003-.075.034-.089.093-.043.635-.244 1.285-.359 1.967-.252a1.51 1.51 0 0 1 .437.157c-.044.303-.239.149-.39.129-.738.077-1.492.085-2.14.526-.19.312-.489.491-.797.659a2.35 2.35 0 0 0-.219.134c-.075.051-.156.078-.248.063-.085-.043-.146-.097-.098-.204z" fill="#f2f2ec"/><path d="M12.997 7.794c.036-.776.216-1.511.482-2.248.23-.64.534-1.19.995-1.678.16-.169.343-.272.538-.374.109.006.209.031.27.135-.91.598-1.519 1.431-1.765 2.48-.116.493-.204.99-.383 1.465-.03.079-.09.146-.136.219h0z" fill="#632e18"/><path d="M15.282 3.629c-.111-.003-.212-.026-.27-.135.502-.412 1.089-.656 1.699-.85s1.118-.021 1.523.468l-.049.009-.05-.005c-.768-.328-1.497-.197-2.206.185l-.649.328z" fill="#522619"/><path d="M13.55 2.302l.143-.124c.019-.074.063-.12.141-.132.318-.165.549-.471.913-.562.091.154.245.112.382.123.03.396-.364.349-.553.509l-.85.697c-.22.209-.379.489-.689.595-.098-.021-.167-.08-.216-.166l-.02-.092.011-.093.071-.171c.164-.261.352-.497.669-.585z" fill="#914d30"/><path d="M12.33 5.116l-.973 3.067c-.132.017-.182-.072-.225-.173-.06-.21-.043-.419.004-.628a12.55 12.55 0 0 1 .613-1.949c.101-.244.201-.491.453-.628.208.035.216.153.128.31z" fill="#efe7dd"/><path d="M11.258 7.408l-.042.622c-.005.23.001.461-.05.689-.101.253.001.534-.104.788-.034.133-.074.263-.227.308-.067.048-.177.149-.193.136-.136-.112-.039-.273-.063-.413a1.25 1.25 0 0 0 .07-.796.51.51 0 0 1 .027-.175c.048-.144.031-.294.044-.441.093-.263.015-.564.184-.809.03-.061.078-.102.143-.123.134.009.283.005.211.216z" fill="#8a4729"/><path d="M13.593 2.817c.4-.545.994-.844 1.535-1.209.184-.023.331-.188.534-.139.13-.075.157-.006.154.108l-1.984 1.266c-.085.041-.165.032-.239-.027z" fill="#e5e5da"/><path d="M5.338 20.56l.266-.134c-.02.682.044 1.37-.139 2.042-.066-.641-.468-1.257-.127-1.908z" fill="#512619"/><path d="M12.328 10.753c-.007-.108-.026-.21-.134-.268.088-.844.366-1.646.571-2.463.029-.114.127-.18.231-.229h0c.012.226-.033.438-.108.653-.233.673-.429 1.356-.443 2.078-.001.077-.077.152-.118.228z" fill="#662d19"/><path d="M3.576 27.107c-.104.025-.206.096-.352-.013.368-.568.935-.824 1.547-1.008.15-.045.326-.027.268-.266.21.078.157.251.146.408-.637.108-1.206.341-1.609.878z" fill="#a65f49"/><path d="M3.743 19.494c-.053-.296.097-.548.18-.814.07-.224.234-.42.206-.674-.016-.058-.031-.12.048-.143.029-.008.062.021.091.058.013.132-.022.281.133.36-.268.555-.435 1.141-.534 1.748l-.064-.053c-.042-.158.04-.332-.061-.483z" fill="#e6d0c4"/><path d="M15.013 5.779c.003.253-.031.511.248.672.147.085.011.232.03.349-.278.092-.556.089-.884.001.551-.165.386-.698.605-1.022z" fill="#56a990"/><path d="M3.727 21.902c-.032-.316-.152-.621-.115-.946.074-.174.067-.348.004-.523-.02-.197-.033-.391.097-.562.053.022.087.061.104.115l.05.043-.01 1.874c-.045.063-.088.062-.131-.003z" fill="#ecded1"/><path d="M9.647 16.133c-.172-.199-.405-.123-.616-.13l-1.574-.025c.362-.166.745-.061 1.117-.084.265-.017.533.031.795-.047.174-.088.352-.068.53-.015.094.03.215.012.246.146l-.5.155z" fill="#d4e0d4"/><path d="M13.593 2.817l.239.027c-.422.445-.801.922-1.098 1.461l-.088-.031c-.05-.04-.083-.091-.102-.152v-.094c.089-.263.146-.549.462-.652l.588-.559z" fill="#d1b4a2"/><path d="M15.816 1.577l-.154-.108.293-.141c.167-.077.346-.062.516-.037.187.027.285.122.116.302-.135.081-.271.14-.407.003-.116-.115-.242-.031-.364-.02z" fill="#cee5d6"/><path d="M16.587 1.593c.009-.138-.01-.251-.19-.25-.147 0-.295-.01-.442-.015.224-.2.497-.103.749-.115.103-.005.242-.007.257.135.016.158-.106.22-.244.244-.042.007-.087.002-.13.003z" fill="#945134"/><path d="M12.33 5.116c-.016-.099-.019-.203-.111-.271-.116-.357 0-.59.367-.692l.035.053.061.065.051.033c-.116.279-.224.564-.403.812z" fill="#dac7b7"/><path d="M10.709 8.597c.083.33.148.659-.129.939l.018-.948c.04-.034.077-.029.112.009z" fill="#ab6d53"/><path d="M10.982 9.539c.018-.277-.055-.568.116-.824.084.013.092.096.135.146l.003.274c-.042.134-.041.279-.105.408l-.014-.001c-.046.06-.091.062-.134-.004z" fill="#c49b80"/><path d="M11.233 8.861l-.135-.146c.011-.234-.065-.482.118-.686l.14.153-.124.679z" fill="#d3b7a6"/><path d="M10.983 9.539l.134.004-.011.312c-.005.091-.05.172-.146.156s-.1-.12-.124-.198l.146-.275z" fill="#9c5c40"/><path d="M16.887.959c.129-.045.295.02.39-.129.168.041.326.098.428.251-.281.015-.563.035-.819-.121z" fill="#c2d6c5"/><path d="M4.124 22.974c-.163-.144-.25-.323-.259-.541.048-.056.092-.056.133.008.146.1.12.257.133.402.029.031.037.061.026.09s-.022.043-.033.043v-.002z" fill="#a96a51"/><path d="M16.504 4.429c.041.047.096.089.119.144.03.07.111.168.004.222-.084.042-.156-.042-.211-.108-.027-.032-.043-.073-.064-.11l.152-.148z" fill="#60775e"/><path d="M3.863 23.245l.121.016a.98.98 0 0 0 .031.113.26.26 0 0 1 .083.149.51.51 0 0 0 .04.123c-.21.067-.237.04-.281-.278-.016-.042-.014-.084.006-.124z" fill="#af8e77"/><path d="M11.131 9.544c-.011-.148-.04-.3.105-.408l.151.001-.002-.002c-.078.141-.12.303-.254.409z" fill="#8a4729"/><path d="M3.726 21.902l.131.002.101.27c-.036.062-.072.062-.108.001-.123-.054-.126-.162-.123-.273z" fill="#d79c82"/><path d="M10.709 8.597l-.112-.009-.04-.263a3.32 3.32 0 0 0 .027.014c.234-.006.221.106.125.26v-.001z" fill="#c29780"/><path d="M6.053 17.543c-.014.009-.028.027-.042.027-.05-.003-.063-.028-.033-.06.01-.01.036-.012.05-.006s.017.026.025.04z" fill="#8f5733"/><path d="M9.362 18.401l-.26.007c.084-.13.17-.145.26-.007z" fill="#855235"/><path d="M12.971 10.612c-.007.018-.008.045-.021.051-.04.019-.063-.005-.054-.059.003-.015.026-.027.041-.041l.035.048z" fill="#a2694c"/><path d="M18.062 2.067c.016-.006.034-.021.047-.017.052.013.057.042.014.068-.011.007-.037 0-.05-.009s-.007-.027-.011-.041z" fill="#8d573b"/><path d="M3.85 22.174h.108l.039.267-.067.003-.066-.011-.015-.259z" fill="#c4ad98"/><path d="M4.099 23.523c-.063-.03-.088-.081-.083-.149l.162.066-.078.082z" fill="#904e33"/><path d="M4.396 24.45v-.263c.146.088.16.175 0 .263z" fill="#a86f53"/><path d="M4.124 22.976l.007-.133c.087.049.091.094-.007.133z" fill="#904e33"/><path d="M4.401 18.282c.011-.075.055-.12.126-.142-.002.083-.055.12-.126.142z" fill="#e6d0c4"/><path d="M10.443 15.857l.003-.136c.052.02.072.054.049.097-.009.017-.034.026-.051.039z" fill="#834628"/><path d="M11.387 9.137l.055-.055c-.003.011-.003.027-.011.033s-.03.014-.046.02z" fill="#a35c3b"/><path d="M17.694 1.072c.075.014.127.05.131.133-.081-.007-.146-.031-.131-.133z" fill="#c2c8b0"/><path d="M35.06 54.285c.32-.069.494.278.79.277-.154.473.025.954-.049 1.439-.149.977.079 1.973-.076 2.958-.037.236-.004.486.049.73.051.236-.02.467-.299.503-.265.035-.416-.127-.442-.39-.036-.371-.083-.731-.059-1.117l.081-3.713c.085-.1.161-.199-.005-.295l.01-.393z" fill="#651427"/><path d="M35.049 54.678c.127-.017.309-.204.357.049s-.193.219-.352.246l-.005-.295z" fill="#952745"/><path d="M34.09 59.429l.045.02-.063.048c-.008-.014-.025-.031-.021-.04s.025-.019.039-.028z" fill="#e55378"/><path d="M30.997 53.89c-.159.119-.235.306-.416.421l-3.417 2.222c-.052.034-.128.031-.194.046-.214-.163-.261-.405-.296-.647l-.442-3.696c-.02-.535-.195-1.045-.294-1.566-.019-.392.234-.629.525-.795.818-.47 1.379-1.154 1.896-1.934.722-1.09 1.641-2.002 2.954-2.394.212-.063.421-.179.627.012.007.322.041.639.159.942.018.128-.054.208-.15.275l2.793-.923c.985-.316 1.995-.48 3.023-.553.044-.003.088-.016.133-.017.41-.007.904-.019 1.018.435.105.418-.324.667-.667.816-1.066.463-2.183.789-3.29 1.142-.44.14-.889.265-1.27.549 1.025-.289 1.995-.732 3.008-1.054.9-.286 1.816-.475 2.766-.441.292.01.622.015.721.361.105.366-.164.579-.432.753-.797.519-1.707.768-2.594 1.072-.995.16-1.923.527-2.839.93 1.048-.229 2.03-.671 3.065-.942.715-.193 1.435-.342 2.181-.289.2.014.421.034.497.266.089.269-.096.417-.29.539-.762.478-1.59.812-2.451 1.059l-2.777.758 2.215-.423c.468-.071.935-.09 1.402-.028.272.036.558.125.628.422.076.323-.204.465-.432.602-.349.21-.744.298-1.133.402-1.85.495-3.751.803-5.541 1.518-.225.068-.427.237-.687.164z" fill="#e15939"/><path d="M37.054 48.797l1.32-.474c.506-.18.978-.427 1.427-.719.179-.116.336-.266.272-.488-.07-.243-.307-.213-.507-.221-1.344-.05-2.599.325-3.835.797l-1.949.715-.318.1c-.09.02-.196.003-.239-.077-.063-.119.012-.218.115-.275a6.1 6.1 0 0 1 1.037-.466l3.489-1.172c.352-.115.643-.302.889-.572.144-.157.122-.287-.071-.359-.207-.077-.413-.176-.646-.153-1.22.123-2.433.276-3.6.685l-2.66.893c-.122.039-.33.208-.398-.02-.062-.207.192-.187.318-.256l.4-.237c.976-.222 1.879-.66 2.834-.953.899-.276 1.824-.356 2.738-.514a1.67 1.67 0 0 1 1.22.229c.455.292.497.512.141.941a1.55 1.55 0 0 0-.118.16c-.009.014.004.041.012.101.601.134 1.515-.265 1.62.837l.009.096c-.128.581-.582.77-1.078.91-.092.014.038.138-.007.06.464-.248.835-.11 1.147.276.049.138.038.266-.065.378-.633.786-1.581 1.04-2.466 1.427.276.196.621.179.856.415.309.311.329.562.003.85a2.25 2.25 0 0 1-.945.488l-3.231.847c-.17.043-.356.029-.534.041-.039.047-.084.086-.138.116-.474-.018-.886.214-1.326.334-.272.074-.524.226-.818.217-.162.047-.35.175-.401-.128a15.74 15.74 0 0 1 3.047-.965l2.858-.69c.389-.099.773-.233 1.104-.47.23-.165.215-.33-.044-.441-.535-.23-1.1-.18-1.65-.091-.701.114-1.411.203-2.083.46-.163.062-.352.053-.528.084-.098.017-.182-.005-.228-.091-.072-.134.026-.2.126-.259.414-.248.895-.257 1.345-.379 1.397-.379 2.817-.695 4.082-1.447l.234-.13c.101-.06.186-.143.162-.267-.026-.131-.146-.148-.26-.159-.676-.067-1.33.081-1.986.205l-.392.065c-.253.087-.398.056-.284-.259z" fill="#5c2726"/><path d="M31.94 45.558c-.86.177-1.645.486-2.283 1.131-.598.605-1.177 1.215-1.575 1.977-.235.449-.611.754-1.035 1.017-.375.233-.788.429-1.018.842-.219.242-.388.585-.817.418l-.412-.395c.134-.199.338-.264.561-.29l.751-.438c.39-.199.69-.48.907-.863.755-1.334 1.782-2.381 3.169-3.073.475-.237.872-.627 1.382-.809.235-.084.199-.339.36-.458l.009.941z" fill="#be3758"/><path d="M34.875 42.853l.016-4.408c.014-.154-.021-.316.122-.43.38.155.488.525.666.84.024.065.04.132.05.2l.108 3.438a.48.48 0 0 1-.128.364l-.835-.005z" fill="#651427"/><path d="M35.709 42.857c-.138-1.289-.089-2.583-.132-3.876.388.008.412.345.507.592.287.747.462 1.528.637 2.307.049.217.067.441.242.605.042.036.088.067.139.09l.08.019c.122.047.211.13.267.248l-1.74.013z" fill="#de3b65"/><path d="M32.074 43.537c.008-.146-.034-.309.144-.393-.047.131.216.376-.144.393z" fill="#a21735"/><path d="M42.346 44.801c-.035.011-.08.041-.103.029-.028-.015-.053-.067-.05-.099.005-.054.052-.068.092-.03.028.026.041.067.061.101z" fill="#9f2041"/><path d="M41.023 44.541c-.01-.035-.037-.079-.024-.102s.065-.053.096-.048c.05.007.063.054.027.092-.025.027-.065.039-.098.058z" fill="#9e1a3e"/><path d="M44.096 46.423c-.035.009-.079.035-.103.022s-.05-.066-.045-.096c.008-.05.055-.061.092-.024.026.026.038.065.056.098z" fill="#99183d"/><path d="M34.096 53.207l.138-.116.001.251-.139-.135z" fill="#8b1434"/><path d="M41.448 43.993c.017-.006.035-.021.049-.017.053.013.059.042.014.069-.011.007-.038 0-.051-.01s-.008-.027-.011-.042z" fill="#a32044"/><path d="M40.606 45.068c-.01-.016-.03-.033-.029-.049.003-.057.03-.072.065-.037.011.011.013.041.007.057s-.028.02-.043.029z" fill="#ab3353"/><path d="M31.931 44.479c-.016-.031-.036-.062-.046-.095-.002-.008.029-.025.044-.038.012.045.012.089.001.133z" fill="#be3758"/><path d="M40.664 47.307c.01.039.007.077-.01.113-.11.027-.165.004-.107-.12l.118.007z" fill="#5c2726"/><path d="M34.361 53.486l-.125-.141.125.141z" fill="#8b1434"/><path d="M35.563 38.856l-.55-.84-.273-.368c.163-.272.162-.573.162-.876l.005-2.107c.083-.068.223-.108.13-.262-.293-.572-.182-1.198-.099-1.764.104-.717.062-1.424.099-2.134.012-.238-.04-.484.09-.795.257.253.305.518.311.796l.025 1.733c.012.464.043.926.245 1.357l.002.002.149.008c-.128.616-.332 1.226-.142 1.866a21.38 21.38 0 0 1 .052 2.579c-.009.282.039.583-.204.807z" fill="#a396af"/><path d="M35.036 34.402c.203.209.053.244-.13.262l.13-.262z" fill="#9f7c99"/><path d="M29.398 13.981c-.183-.025-.286-.091-.192-.301.139-.31.382-.527.639-.729.153-.12.326-.216.489-.323l.13-.003.138-.117c.38-.153.777-.164 1.18-.146.392.017.595.256.721.591.092.242-.033.338-.252.33-.106-.004-.208-.081-.316-.096a2.43 2.43 0 0 0-1.542.271c-.328.178-.622.428-.995.522z" fill="#883d1b"/><path d="M27.779 15.722c.052-.274.38-.38.404-.671.058-.106.157-.133.267-.139-.011.077-.078.233-.004.219.543-.113.926.122 1.264.505.067.076.16.037.219-.048.136.043.454-.097.268.268h0c.017.236-.005.465-.133.673l-.067.065c-.301.105-.458-.107-.632-.284-.031-.051-.053-.106-.065-.164-.099-.374-.476-.184-.685-.333-.11-.022-.219-.041-.329.005-.1.054-.171.136-.246.219-.11.122-.237.345-.413.161s-.062-.367.151-.475z" fill="#e1503c"/><path d="M31.325 15.292c-.221-.003-.436-.247-.445-.507-.01-.292.218-.546.485-.523a.41.41 0 0 1 .408.444c.007.303-.223.588-.448.586z" fill="#231412"/><path d="M32.346 14.816l.045.02-.063.048c-.008-.014-.025-.031-.021-.04s.025-.019.039-.028z" fill="#df6857"/><g fill="#e1503c"><path d="M30.192 16.95l-.122.005c-.046-.023-.063-.059-.048-.108l.041-.049.129.153z"/><path d="M30.064 16.663v.134h0c-.141.014-.167-.04-.094-.155l.094.02z"/><path d="M30.063 16.528c.091.045.091.09 0 .135h0c-.046-.029-.061-.059-.046-.089s.03-.044.046-.044v-.001zm-.134-.94l-.056-.031.025-.025.031.056z"/></g><path d="M25.628 19.754c-.176-.171-.218-.381-.167-.612a1.52 1.52 0 0 0 .01-.6c-.191-1.071.048-1.453 1.096-1.74.36.026.417.268.388.558-.022.219-.107.425-.173.632a1.51 1.51 0 0 0-.029.284c.268.707 1.057.978 1.739.598.282-.157.518-.445.9-.33-.025.084-.025.213-.08.245-.429.244-.763.586-1.072.963-.122.149-.48.126-.288.493.051.097-.162.184-.3.175l-1.041-.084c-.158-.007-.166-.108-.201-.208-.133-.391-.423-.454-.782-.373z" fill="#e24f3d"/><path d="M29.391 18.544c-.267.15-.551.262-.798.455-.523.408-1.65.178-1.974-.392-.05-.088-.036-.213-.052-.32.064-.071.134-.133.227-.165.178-.058.373-.066.504.065.25.249.508.457.871.284.447-.212.86-.473.955-1.022.015-.059.037-.115.061-.171.148-.266.203-.548.146-.85 0-.062.019-.118.055-.167.259.007.381.357.677.269v.133c-.092.045-.092.09 0 .135l.007.157c-.142.195-.141.419-.136.645-.069.055-.141.12-.128.21.053.357-.18.545-.416.734z" fill="#e2483e"/><path d="M25.628 20.561l.002-.269c.211.173.274.406.269.666-.182-.07-.267-.207-.271-.398z" fill="#e24f3d"/><path d="M25.212 50.942c.348.008.468-.429.817-.418.267.615.383 1.26.409 1.93.035.904.177 1.797.305 2.691l.227 1.433c-.256.285-.527.543-.949.532-.179-.158-.245-.365-.252-.594-.042-1.416-.346-2.806-.415-4.22-.006-.116-.035-.218-.127-.295l-.014-1.06z" fill="#a14834"/><path d="M31.552 53.63c.099.151.259.111.401.128-.308.119-.589.434-.956.132l.554-.259z" fill="#732d30"/><path d="M22.406 3.208l-.249.15-.426-.002.005.006c.197-.167.371-.429.67-.154z" fill="#657761"/><g fill="#5b8066"><path d="M21.731 3.357c-.132.184-.316.264-.537.272l.001.001c.094-.263.307-.285.541-.266l-.005-.006z"/><path d="M21.194 3.628c-.038.054-.068.12-.118.16s-.152.079-.168.061c-.104-.115.028-.147.092-.182.055-.031.129-.026.195-.037l-.001-.001z"/></g><path d="M21.848 2.907c-.02-.029-.06-.06-.057-.087.008-.069.063-.096.122-.063.024.013.043.075.032.1s-.062.034-.096.049z" fill="#70ceba"/><path d="M22.14 3.681c-.064.09-.161.071-.251.075.04-.12.113-.209.235-.253l.015.178z" fill="#eccfc9"/><path d="M35.564 38.855l.013-2.77c.002-.211-.074-.449.14-.616.206.846.707 1.497 1.331 2.082.639.599.854 1.37.833 2.229-.015.624-.006 1.25-.301 1.82-.094.181.006.499-.38.518-.102.005.022.311-.016.477l.003-.002c-.049.051-.099.101-.166.129-.419-.064-.405-.424-.453-.71-.145-.867-.396-1.704-.683-2.53-.063-.181-.138-.375-.306-.501-.012-.041-.016-.083-.014-.126z" fill="#b39db8"/><path d="M25.193 52.546l-.038.046c-.01-.018-.028-.036-.027-.053s.023-.031.036-.047l.029.053z" fill="#621326"/><path d="M4.268 17.922l-.139.084-.17-.013c.042-.319.343-.489.444-.774.038-.059.081-.112.145-.145l-.008.011c.026-.039.061-.068.104-.087a1.12 1.12 0 0 0 .111-.083l.056-.041.128-.055.013-.012c.081-.09.165-.088.253-.01l-.002-.001c.029.03.04.061.031.092s-.018.047-.028.047h0l-.138.122-.011.007c-.033.047-.075.082-.129.104l-.026.025c-.017.052-.052.087-.103.107l-.529.622z" fill="#955237"/><path d="M5.205 16.797l-.253.01c.045-.102.139-.136.234-.167l.018.157z" fill="#a96a52"/><path d="M2.751 20.813c-.115-.093-.115-.177.021-.248.027.086.027.169-.021.248z" fill="#904e32"/><g fill="#f4f4ef"><path d="M4.548 17.074c-.018.078-.071.122-.145.145.022-.075.07-.123.145-.145z"/><path d="M4.66 17.064l-.119.021.122-.159.054.07-.057.068z"/></g><path d="M4.939 16.818l-.137.113c-.039-.06-.024-.1.046-.118.031-.001.061 0 .091.005z" fill="#a96a52"/><path d="M4.848 16.814l-.046.118-.003.002c-.037.035-.078.038-.121.011l-.016-.019c.043-.07.105-.107.186-.112z" fill="#f4f4ef"/><path d="M26.173 3.49c-.33.009-.66.03-.971-.116.018-.081.093-.087.151-.114.276.011.552.025.817.114.044.025.059.05.045.076s-.028.039-.042.039z" fill="#a27054"/><path d="M24.28 3.229c.01.204-.111.25-.283.236-.079-.069-.224.002-.275-.129.169-.126.367-.096.558-.107z" fill="#c48476"/><path d="M26.173 3.49l-.003-.116.339.009a.45.45 0 0 1 .215.077c.028.049.021.095-.017.136-.19.026-.368-.01-.533-.107z" fill="#b25030"/><path d="M27.103 3.779l-.115-.052c-.024-.134.033-.171.156-.129a.88.88 0 0 1 .499.17c.036.029.05.061.043.096s-.016.053-.026.053c-.153.09-.278.018-.401-.069-.056-.014-.108-.037-.157-.068z" fill="#944f35"/><path d="M23.722 3.336l.275.129-.38.048c-.095-.035-.239.019-.262-.146l.367-.031z" fill="#a45b45"/><path d="M25.352 3.26l-.151.114h-.378c-.036-.031-.047-.061-.034-.09s.026-.043.039-.043l.524.019z" fill="#bc5237"/><path d="M24.828 3.241a.99.99 0 0 0-.005.133c-.173.084-.297.034-.377-.138l.382.005z" fill="#d47060"/><path d="M26.707 3.522c-.089-.014-.156-.06-.199-.139.165-.016.335-.059.465.096-.021.052-.06.08-.116.082a.3.3 0 0 1-.149-.039z" fill="#e8eee7"/><path d="M26.834 3.506l.139-.027.172.12-.156.129c-.076.012-.127-.018-.152-.091-.037-.028-.05-.057-.038-.086s.023-.044.035-.044z" fill="#ad6e56"/><path d="M30.601 5.507c-.046.126-.149.137-.261.128-.046-.028-.073-.07-.084-.122a.18.18 0 0 1 .07-.13l.144-.004-.006-.009a.73.73 0 0 0 .143.144l-.005-.006z" fill="#bf7763"/><path d="M30.327 5.382a.79.79 0 0 0 .006.125c-.101.08-.142.005-.182-.071-.008-.067.021-.098.088-.095.038-.005.067.009.088.041z" fill="#8c503a"/><path d="M30.102 5.214c.075.011.118.056.136.128l-.037.029c-.043.069-.09.067-.138.005l.006.001c-.04-.042-.057-.091-.049-.15l.082-.013z" fill="#954f33"/><path d="M29.939 5.228l.001-.164c.077.025.136.07.163.15l-.037.022c-.043.045-.088.047-.135.007l.009-.016z" fill="#954521"/><path d="M28.046 3.908c-.079.1-.106.042-.125-.042l.125.042z" fill="#a5543a"/><path d="M27.646 3.882l-.002-.114.133.021a1.05 1.05 0 0 0 0 .112c-.052.051-.095.041-.131-.019z" fill="#994d31"/><path d="M9.9 15.831c-.176.014-.351.101-.53.015.172-.172.349-.165.53-.015z" fill="#834628"/><path d="M5.206 16.935l-.003-.14.151.013c-.024.072-.075.112-.148.126z" fill="#a96a52"/><path d="M12.163 3.627c.027-.028.041-.062.041-.102.023-.065.067-.114.112-.164l.151-.131c.136-.03.177.056.2.163-.328.76-.533 1.591-1.221 2.147-.173-.088-.112-.229-.082-.362.173-.498.461-.938.698-1.405l.101-.147z" fill="#e7ddd2"/><path d="M11.364 5.178c.017.119.021.242.122.329.079.65-.198 1.205-.474 1.759l-.037-.013c-.053.045-.104.046-.155-.003.006-.737.281-1.403.544-2.071z" fill="#e3d6c9"/><path d="M10.819 7.25l.155.003a3.87 3.87 0 0 0-.14.927c-.258.042-.167-.134-.161-.258l.051-.641c.03-.016.061-.026.095-.031z" fill="#d6bda8"/><path d="M12.163 3.627c.001.073-.039.118-.101.147l-.007-.145.107-.002z" fill="#9b5b42"/><path d="M14.873.924c-.023.033-.054.047-.093.043l-.13-.132c.096-.025.173-.001.223.089z" fill="#89421f"/><path d="M33.678 10.365c.033-.094.024-.207.125-.268l-.009.788c-.035.052-.069.056-.104.001l-.012-.52z" fill="#faf5eb"/><path d="M33.691 10.885c.034-.003.069-.003.104-.001l.053.004c.053.135.073.269-.014.398-.175-.04-.175-.04-.144-.402z" fill="#e4ccc1"/><path d="M33.834 11.287l.013-.398c.145.112.093.258.068.399l-.041-.001h-.04z" fill="#8b4b32"/><path d="M10.674 7.922c.036.097.03.22.161.258.007.154.034.314-.126.418-.01-.102-.001-.213-.125-.26-.001-.145-.03-.297.091-.416z" fill="#ab6d53"/><path d="M12.609 3.381l-.142-.15.661-.947.256-.148.166.166-.569.658-.116.135.002-.002c-.06.053-.069.126-.076.2-.042.068-.097.11-.182.087z" fill="#d0b5a5"/><path d="M43.905 48.511l.03-.056.025.025-.055.031z" fill="#8f162b"/><path d="M12.327 2.956a.58.58 0 0 1 .027-.106c.033-.015.068-.026.105-.033l-.131.139z" fill="#9b5b42"/><path d="M30.607 5.514c-.083-.013-.134-.057-.142-.144.099-.002.124.067.142.144z" fill="#e8e6dc"/><path d="M30.236 4.803c0-.042.02-.063.062-.062-.001.041-.022.061-.062.062z" fill="#855139"/><path d="M33.389 8.472l.034.128-.086-.022c-.022-.054.008-.084.052-.107z" fill="#934828"/><path d="M2.677 28.236c.006-.333.147-.62.332-.881.125-.177.246-.124.326.059-.481.548-.443 1.218-.438 1.879l-.119-.141c-.147-.293.017-.62-.101-.916z" fill="#a6715b"/><path d="M29.357 16.382c.336.356.155.658-.1.953l-.001.001c-.05.782-.902 1.51-1.64 1.404-.158-.023-.199-.14-.248-.269-.098-.254-.281-.316-.525-.194l-.272-.266c.058-.162.102-.33.177-.484.149-.301.089-.537-.182-.725l.005-.007c.047-.047.144-.047.134-.146.134-.294.525-.414.539-.791l.134-.135.135-.133.267.131c-.045.137-.176.257-.067.471.243-.179.274-.564.612-.601a3.03 3.03 0 0 1 .222.257c.118.192.255.359.501.388.117.021.227.057.312.145z" fill="#d73e40"/><path d="M26.705 16.649c.135.212-.067.118-.134.146l.134-.146z" fill="#933528"/><path d="M30.825 10.162l-.061.093c-.046-.04-.096-.075-.136-.119-.051-.056-.035-.078.035-.05.054.022.106.05.161.076z" fill="#863d1b"/><path d="M28.89 4.827l-.193.023-.373-.159.137-.132a.48.48 0 0 1 .429.267z" fill="#dddcd0"/><path d="M27.646 3.882l.131.019c-.177.195-.357.15-.539.009-.036-.028-.048-.057-.036-.086s.023-.043.035-.043l.409.101z" fill="#cfb1a3"/><path d="M27.237 3.781c.005.043.005.086.001.129l-.13-.024-.004-.106.133.002z" fill="#bce8d8"/><path d="M26.834 3.506l.003.13-.131-.039.001-.075.127-.016z" fill="#8f4827"/><path d="M2.677 28.236c.205.286.039.614.101.916 0 0-.062.008-.062.008l-.063-.001c-.053-.309-.059-.617.024-.923z" fill="#87472a"/><path d="M30.064 5.375l.138-.005c.011.078.06.119.132.137-.003.043 0 .086.007.128a.68.68 0 0 1-.132.009.44.44 0 0 1-.122-.021l-.022-.247z" fill="#bb9d84"/><path d="M29.93 5.243l.135-.007.005.14-.14-.133z" fill="#9e8377"/><path d="M30.736 5.777l-.003.144a.54.54 0 0 1-.123-.02c-.002-.086.053-.113.125-.124z" fill="#a04c32"/><path d="M10.305 53.604c-.058-.437.104-.657.548-.829 1.998-.775 4.076-1.241 6.154-1.717l2.972-.737c.178-.046.35-.059.528-.058.095.006.164.056.216.133.051.096.071.205.117.302a.64.64 0 0 0 .16.145c.042.028.064.068.07.117-.068.054-.14.159-.204.154-1.26-.088-2.453.28-3.657.546l-4.394 1.069c-.853.233-1.675.579-2.511.874z" fill="#bd3658"/><path d="M20.805 50.915c-.229-.118-.13-.334-.154-.514 1.203-.561 2.465-.815 3.792-.722.355.025.719.037.904.424l.014.153c-.106.254-.336.266-.561.29-.775-.05-1.537-.039-2.298.184-.46.135-.954.157-1.433.229l-.022-.059c-.084-.045-.165-.05-.243.014z" fill="#d4587a"/><path d="M21.528 51.154l-.012-.036.033.005-.021.031z" fill="#af4a67"/><path d="M9.253 37.075l.023-.049-.029.044z" fill="#e03b65"/><path d="M25.348 50.104c-.725-.42-1.515-.251-2.277-.211-.543.029-1.09.118-1.59.403-.238.136-.537.202-.83.105l-.144-.138c-.796-1.102-1.496-2.267-2.135-3.462-.724-1.35-1.363-2.755-1.798-4.225-.439-1.487-.547-3.029-.187-4.558.118-.502.336-1.001.605-1.442.287-.47.779-.744 1.331-.816 1.065-.139 2.046.043 2.845.842.618.618 1.241 1.228 1.527 2.087.051.151.126.324.295.33s.263-.16.332-.298c.414-.825 1.118-1.399 1.808-1.947a3.6 3.6 0 0 1 2.902-.741c.53.09 1.007.404 1.232.938.325.77.454 1.559.34 2.415-.124.93-.309 1.853-.537 2.748-.29 1.134-.697 2.252-1.312 3.279-.401.669-.72 1.386-1.076 2.081l-1.333 2.609z" fill="#f4719f"/><g fill="#a96a52"><path d="M4.798 17.3l.104-.107-.104.107zm.129-.131l.129-.104-.129.104z"/><path d="M5.067 17.057l.138-.121c-.019.072-.063.114-.138.121z"/></g><path d="M3.617 20.433c.15.176.155.35-.004.523-.042-.175-.035-.349.004-.523z" fill="#ebe7d7"/><path d="M3.818 19.987l-.104-.115.029-.378c.15.145.099.321.075.493z" fill="#fbf9f3"/><path d="M13.833 2.046l-.14.132c.008-.086.054-.13.14-.132z" fill="#d0b5a5"/><path d="M12.609 3.381c.067-.024.11-.068.124-.14l.079-.041.192.175-.419.777a1.77 1.77 0 0 0-.366.692c-.477.796-.668 1.699-.961 2.563-.049-.106-.136-.144-.247-.141.046-.616.293-1.179.474-1.759l1.123-2.127z" fill="#8d4a2d"/><path d="M12.812 3.2c-.029.009-.056.023-.079.041l.134-.148a1.1 1.1 0 0 1-.055.106z" fill="#d1b4a2"/><path d="M12.682 4.271c-.037-.006-.057-.027-.062-.065a15.57 15.57 0 0 1 .051.01l.011.055z" fill="#f2f3e9"/><path d="M37.053 48.797c.008.182.12.248.284.259l-3.024 1.023c-.021.007-.042.016-.063.02-.13.023-.297.073-.354-.074-.076-.197.11-.265.25-.326l.805-.326c.69-.23 1.362-.532 2.103-.577z" fill="#602b26"/><path d="M40.546 47.3l.108.12c.117.431-.123.813-.165 1.223-.334-.276-.74-.276-1.162-.303.498-.253.944-.549 1.219-1.04z" fill="#8c152d"/><path d="M37.02 42.723l.166-.129c-.032.073-.087.116-.166.129z" fill="#e03c65"/><path d="M35.708 33.596l-.051.174c-.122-.098-.003-.127.049-.176l.002.002z" fill="#b39eb9"/><path d="M29.024 16.381c-.338-.001-.518-.182-.571-.505.004-.088.054-.137.138-.154.231-.114.435.068.659.06.405-.015.184.21.13.368-.137.049-.274.098-.356.23z" fill="#e2483e"/><path d="M29.024 16.381c.007-.396.039-.416.355-.231-.006.037-.004.074.007.11-.012.04-.021.08-.028.121h-.334z" fill="#3f1817"/><path d="M28.59 15.723l-.138.153c-.112-.063-.136-.167-.13-.284.112-.002.206.03.268.13z" fill="#8f322b"/><path d="M30.196 15.856l-.065-.064c.014.003.033.002.041.011.012.015.017.035.024.054h0z" fill="#692b1e"/><g fill="#e2483e"><path d="M26.985 19.489l-.172.185c-.067.087-.126.19-.254.104-.086-.058-.049-.152-.046-.237.003-.131.052-.201.191-.19.189.015.396-.053.546.127l-.051.061c-.081.026-.155.016-.214-.05z"/><path d="M27.25 19.478c.165.166.316-.023.486-.027-.045.345-.18.499-.516.286-.05-.089-.063-.176.022-.254l.008-.006z"/></g><path d="M26.571 18.011c.18-.003.27.086.272.266l-.277.009.005-.275z" fill="#571c1e"/><path d="M26.124 17.485c-.029.021-.061.063-.088.059-.071-.007-.099-.064-.065-.124.014-.025.076-.045.103-.034s.034.064.05.099z" fill="#9e3a2c"/><path d="M27.242 19.484l-.022.254c-.116-.048-.206-.12-.236-.249l.257-.005z" fill="#7c211c"/><path d="M37.231 39.716c.215.081.245.227.267.433-.209-.103-.267-.233-.267-.433z" fill="#bb84a8"/><path d="M4.678 16.945a.66.66 0 0 1 .121-.011c-.023.068-.065.116-.139.129.003-.04.009-.079.019-.118z" fill="#a96a52"/><path d="M28.153 16.816c-.01.094-.065.175-.153.167s-.116-.11-.13-.194.046-.114.112-.115c.092-.002.163.037.171.142z" fill="#651f25"/><path d="M28.194 17.844c-.071-.01-.125-.043-.117-.121.01-.097.07-.159.169-.156.026.001.063.058.07.094.018.094-.008.171-.121.183z" fill="#341415"/><path d="M29.257 17.335l-.105-.126.069-.043.036.168v.001z" fill="#752323"/><path d="M20.805 50.915c.074-.134.155-.134.243-.014l-.243.014z" fill="#f46e97"/><path d="M17.763 43.304c-.264-.297-.264-.297-.421-.829.388.103.397.121.421.829z" fill="#f3658f"/><path d="M21.743 49.901c-.015.089-.084.081-.142.08-.088-.001-.184-.005-.204-.118-.005-.027.037-.086.063-.09.119-.02.208.043.282.128z" fill="#f46692"/></svg>