<svg xmlns="http://www.w3.org/2000/svg" width="108" height="108" fill="none" xmlns:v="https://vecta.io/nano"><path d="M98.702 55.851c0 24.77-20.08 44.851-44.851 44.851S9 80.621 9 55.851 29.08 11 53.851 11s44.851 20.08 44.851 44.851z" fill="#ebd3c1"/><path d="M78.671 57.002c.553 1.221.675 2.549.934 3.841.127.634.228 1.283.243 1.927.01.435.382.783.289 1.168-.104.425-.023.814.007 1.215l.172 1.561c.104.412.046.848.191 1.255l.642 7.27c.084.582.091 1.175.117 1.764.049 1.112.044 1.112.829 1.7-.719.082-.726.083-.669.813.023.291.12.584-.099.844l.127 1.191c.085.567-.229 1.136-.095 1.646.162.617.156 1.202.111 1.81.05 1.433.273 2.861.06 4.302-.127.857-.495 1.186-1.366 1.196l-6.8.12-17.117.206c-3.646.084-7.295-.034-10.939.174-.145.009-.292-.033-.439-.052-.268-.473-.056-.936.121-1.34.75-1.711 1.354-3.493 2.378-5.075.101-.189.158-.395.233-.594l1.69-3.673c.34-.768.725-1.564 1.892-1.66.961-.079 1.923-.512 2.807-.995.894-.487.944-.647.488-1.575.056-2.327-.11-4.652-.031-6.979.07-2.061.016-4.123-.043-6.185-.014-.469-.071-.943.064-1.405.089-.313.47-.328.604-.572.028-.079.019-.173-.03-.175-1.015-.056-1.355-.922-1.885-1.558-.197-.313-.395-.469-.599-.002-.928.249-1.856.112-2.785.014a.71.71 0 0 1-.183-.216 5.66 5.66 0 0 1 .065-4.264c.26-.634.726-1.122 1.351-1.436.816-.197 1.625.135 2.463-.022 1.571-.295 3.006-.847 4.285-1.803.143-.098.294-.186.43-.295.884-.827 1.707-1.704 2.37-2.724.19-.292.353-.621.73-.734 1.122-.032 2.205.232 3.297.433.241.111.506.139.759.206 1.557.444 3.172.655 4.71 1.181.474.162.975.24 1.39.549a.74.74 0 0 1 .188.203.68.68 0 0 1 .046.275c-.066.604-.005 1.209.003 1.813a3.84 3.84 0 0 1 .012.429l.021.585a218.1 218.1 0 0 0-.274 14.244c.032 2.263.146 4.534.238 6.801l.267 9.389c.058 1.296.246 2.586.253 3.888.001.258.03.527.323.738.28-.271.224-.605.211-.906-.133-3.037-.37-6.069-.41-9.11-.029-2.123-.22-4.24-.199-6.362.02-1.922-.226-3.829-.28-5.748-.091-3.183.081-6.361.041-9.542.22-1.248.055-2.495-.014-3.741.082-.575-.017-1.159.074-1.733.117-.603.442-.928 1.057-.63 1.029.499 2.108.927 2.917 1.786 0 .125-.035.303.18.122.122-.024.234-.007.333.073.247.17.469.362.545.671.451.439.202.938.126 1.422a3.49 3.49 0 0 1 .341.462c.02.033.038.068.058.101a2.41 2.41 0 0 1 .1.211c.632.308.759.974 1.074 1.507zm-36.108 34.07c-.058.101-.095.228-.178.301-1.421 1.231-2.646 2.691-4.301 3.65-1.289.747-2.643 1.071-4.143.917-1.619-.166-2.831-1.044-4.032-2.022-1.37-1.116-2.003-2.612-2.512-4.244-.723-2.317-.808-4.685-.852-7.075l-.087-3.608c-.055-2.248.159-4.464.523-6.683l.665-3.634c.386-2.119.852-4.211 1.491-6.261l1.714-4.823c.615-1.379 1.258-2.778 2.285-3.933.076-.048.145-.101.18-.188l-.002-.002c.172-.051.355-.09.379-.318.491-.552 1.054-1.01 1.717-1.346.653-.331 1.197-.848 1.89-1.111.111-.247.395-.19.57-.323l6.241-2.358c.186.363.693.593.467 1.126-.099.108-.173.224-.109.38-.012.117.159.044.041.05a.66.66 0 0 1-.027-.14c-.013-.119.028-.221.112-.306.103-.079.239-.113.323-.027.676.68 1.507 1.217 1.972 2.096a.91.91 0 0 1 .004.263c-1.153 2.487-.379 4.64 1.158 6.659a2.55 2.55 0 0 0 .291.402c.14.163.272.331.266.563-.026.083-.076.149-.151.196-.309.145-.629.101-.95.055-.593-.084-1.116.001-1.43.593-.156.293-.432.368-.734.413s-.719-.03-.805.379c-.088.422.422.42.6.67.17.303.168.619.074.941a2.04 2.04 0 0 1-.913.917c-1.418.692-2.403 1.831-3.246 3.118a4.84 4.84 0 0 1-.941 1.035c-.228.192-.486.377-.737.01-.402-1.86-.315-3.764-.529-5.64l-.618-9.949c-.002-.076.009-.156-.017-.233-.141.142-.045.316-.062.476-.302 3.787.359 7.546.295 11.325-.003.148.065.285.088.429.024 1.08.186 2.153.16 3.234-.004.317-.015.634.059.947a1.15 1.15 0 0 1 .011.262c-.055.955-.72 1.602-1.188 2.349-.201.203-.373.432-.564.644-.638.303-1.054.798-1.338 1.443s-.741 1.193-1.126 1.78a1.07 1.07 0 0 1-.147.188c-.342.24-.42.634-.574.984-1.539 2.858-2.959 5.775-4.422 8.672-.08.158-.163.315-.224.482-.106.291-.177.6.136.794.283.176.485-.061.702-.215.657-.463.969-1.27 1.686-1.67.071-.03.144-.056.216-.083.101-.054.19-.123.266-.21.709-1.089 1.473-2.14 2.068-3.3.73-1.424 1.881-2.572 2.641-3.978a2.69 2.69 0 0 1 .132-.197c.021-.034.044-.065.065-.098.084-.134.139-.282.198-.428.576-1.028 1.213-2.02 1.715-3.089.112-.238.245-.474.514-.582a.25.25 0 0 1 .212.115c.157.311.106.674.25.988.56 2.15 1.501 4.086 3.06 5.711.726.757 1.656 1.229 2.435 1.905.437.615.223 1.234.028 1.862-.674 2.166-1.333 4.335-2.369 6.367a5.04 5.04 0 0 0-.569 2.384z" fill="#f19c1d"/><path d="M63.157 33.084c.06 2.142-.325 4.188-1.352 6.086-.381.704-.973 1.243-1.508 1.826-.353.385-.821.683-.994 1.216-.201.226-.494.286-.747.419-1.77.63-3.568.596-5.378.217-.147-.03-.296-.093-.347-.232-.468-1.293-1.454-1.531-2.664-1.325-.895-.428-1.443-1.259-2.176-1.875-.072-.061-.069-.066-.111.039.117.951.952 1.437 1.401 2.172l.019.121a.56.56 0 0 1-.066.235l-.305.391c-1.451 1.852-1.486 3.262-.083 5.082.41.533.379 1.028.016 1.53-.327.452-.71.859-1.155 1.204-.077.042-.158.071-.244.087-.503.037-.784-.328-1.096-.621l-1.779-1.787c1.007-.507 1.219-1.523 1.522-2.455.428-1.318.596-2.677.647-4.071.05-1.362-.203-2.677-.343-4.01-.072-.691-.151-.751-.851-.554-.845.238-1.616.097-2.385-.279-1.053-.516-1.983-2.207-1.49-3.533.071-.191.098-.398.145-.597.002-.26.143-.46.289-.658a3.23 3.23 0 0 1 .24-.279c.562-.456 1.051-1.025 1.819-1.159.718-.125.947.051 1.064.779.083.517-.121 1.127.452 1.489.05-.058.088-.115.112-.186.389-1.229.088-2.494.215-3.734.235-.954.146-1.939.089-2.883-.08-1.334.252-2.616.241-3.93-.003-.335.108-.64.489-.744.338-.076.655.027.973.116.087.021.172.048.257.076.213.074.437.076.658.102 3.804.133 7.468-.42 10.872-2.229.814-.432.997-.37 1.24.511a85.79 85.79 0 0 1 1.331 5.599 3.92 3.92 0 0 1 .083.961c.083.827.4 1.613.428 2.45-.441.218-.836-.196-1.279-.081-1.047.271-1.346 1.207-1.801 1.999-.113.196-.08.46-.208.663-.094.248-.419.445-.169.771.048.06.072.129.078.205-.03.174-.13.348-.001.524a.62.62 0 0 1 .066.221c.145.093-.506.313.055.338.043.04.064.085.064.135s-.004.077-.015.078c-.06.103-.261.143-.244.218.128.573.683.761 1.076 1.07.27.211.628.013.853-.245.272-.313.701-.432.932-.786.124-.154.265-.296.354-.476.058-.112.127-.214.238-.28.173-.066.332-.054.471.079z" fill="#a5551c"/><path d="M46.211 28.706c-.035 1.174.165 2.352-.084 3.523-.052.246-.101.456-.346.566l.009-.009c-.032.162-.089.457-.273.204-.232-.318-.44-.699-.437-1.133.001-.147.01-.296-.012-.44-.052-.334.104-.814-.288-.943-.402-.133-.869-.024-1.24.251l-1.162.905c-.229.031-.393.133-.42.386-.137.31-.355.307-.611.164-.051-.327.043-.641.082-.961.032-.258.214-.559-.205-.74-.195-.084-.117-.372-.121-.574-.008-.353.041-.717-.027-1.058-.075-.38-.214-.018-.326.015-.06.028-.122.039-.188.033l-.071-.067c-.016-.065-.01-.127.017-.188.1-.719.444-1.386.457-2.127-.616.128-.619.127-.549-.384l.201-1.38c-.001-.591-.499-1.042-.463-1.643a.39.39 0 0 1 .087-.207c.072-.081.149-.16.21-.252.128-.236.075-.492.081-.742a1.85 1.85 0 0 1 .05-.453l.127-.439a2.39 2.39 0 0 1 .062-.217c.092-.283.129-.58.218-.864.027-.109.063-.215.105-.32.058-.139.127-.273.201-.404.055-.101.118-.198.18-.295.135-.273.435-.472.367-.834.077-.415.549-.364.749-.634l.346-.058c.682-.165.689-.166.723-.847.014-.268.052-.524.149-.773.209-.534.31-.615.836-.402.246.1.362.086.49-.117.471-.748 1.228-.87 2.024-.981.95-.133 1.87-.424 2.784-.72.246-.17.548-.113.814-.202.336.002.663-.04.968-.196a1.56 1.56 0 0 1 .287-.064c.947.039 1.865-.243 2.807-.255.469.069.933.19 1.414.143.182-.001.362.016.539.055a2.67 2.67 0 0 0 .869.107c.121-.002.242.005.362.02.076.009.152.026.226.047l.528.162a1.01 1.01 0 0 0 .421.011.73.73 0 0 1 .221.005c.076.024.137.068.189.13.09.17.166.352.372.416l.206.025.309-.032c.147.016.26.088.343.209.037.091.05.189.08.281l.103.155.063.069.136.136.069.069c.048.047.091.098.133.151l.06.083.119.175c.169.245.349.482.466.758.238.509.223 1.097.514 1.589.081.191.16.383.071.594-.222.091-.175.272-.14.441l.209.938c.067.337.274.632.289.983-.049.254.076.482.114.724.038.309.033.619.049.928l.008.267c-.001.306.014.613-.044.916l-.168.702c-.036.141-.084.28-.088.428l.023.216a.85.85 0 0 1-.006.223c-.109.359-.227.713-.421 1.038l-.195.21c-.341-.506-.384-1.11-.5-1.677l-1.314-5.455c-.247-.114-.415.043-.574.156-1.446 1.028-3.118 1.453-4.815 1.8l-3.114.552c-1.134.154-2.277.154-3.413-.04-.152-.145-.384-.005-.537-.149h-.001c-.172-.185.229-.462-.085-.607-.249-.115-.441.011-.587.225-.093.136-.247.13-.393.134-1.245.122-.952.151-.894 1.153l.179 6.41z" fill="#121211"/><path d="M59.554 43.96c.348.546.413 1.194.603 1.792.154.484.376.824.836 1.013-.186.976-.903 1.649-1.486 2.35-1.816 2.183-3.986 3.741-7.05 3.355a.54.54 0 0 1-.207-.142c.675-.563.959-1.435 1.593-2.031.056-.061.118-.117.18-.171.631-.665 1.204-1.333 1.361-2.311.215-1.343-.191-2.366-1.286-3.141-.185-.131-.438-.203-.468-.488.039-.093.103-.158.197-.196 1.296-.029 2.575.284 3.88.152.615-.062 1.238-.059 1.849-.181z" fill="#a5551c"/><path d="M54.715 76.204c.372.144.494.601.401.783-.167.327-.517.637-.863.78-1.206.502-2.396 1.078-3.727 1.201-.183.017-.383.032-.439.229-.121.425-.19.871-.657 1.081.196.635-.361 1.005-.562 1.491-.318.773-.581 1.592-1.155 2.24-.577.03-.067.382-.164.554l-1.059 2.18c-.582 1.389-1.357 2.699-1.622 4.21-.645.131-1.294.06-1.943.038.228-1.356 1.069-2.458 1.552-3.713.804-2.09 1.518-4.198 1.98-6.39.195-.927-.099-1.74-.585-2.509-.057-.171-.063-.34.02-.505.32-.297.518-.015.732.162.289.238.578.467 1.003.412-.006-.379-.333-.398-.51-.558-.208-.19-.524-.331-.234-.687.683-.175 1.316.09 1.965.219a.79.79 0 0 1 .232.129c.063.06.11.131.145.21.025.597-.422.915-.764 1.289-.058.034-.072.08-.039.133a.36.36 0 0 1 .151-.081c.831-.175 1.521-.497 1.583-1.487.736-.191 1.502-.211 2.238-.416.82-.229 1.592-.555 2.32-.992z" fill="#cd8c26"/><path d="M45.996 78.363c.794.72.895 1.667.662 2.599-.347 1.387-.565 2.811-1.12 4.147-.513 1.237-.865 2.553-1.491 3.726-.381.713-.52 1.56-1.122 2.155l-.363.082c-.336-.456-.298-.977-.079-1.419.456-.916.589-1.978 1.299-2.782.159-.18.181-.491.238-.749.089-.403.254-.776.392-1.161l1.086-3.434c.1-.341.058-.704-.17-1.013.287-.43.321-.868.08-1.336-.104-.202-.254-.412-.135-.666.216-.167.446-.272.721-.147z" fill="#8b631e"/><path d="M63.156 33.084l-.517.013c-.123.119-.126.237.006.352l-.342.365c-.627.357-1.256.541-1.957.156-.229-.125-.377-.254-.421-.498-.072-.087.201-.163.011-.26-.174.005-.274.26-.481.139-.186-.131-.011-.393-.19-.527-.103-.271.278-.437.152-.713.093-.834.043-1.745 1.102-2.056.186.031.198-.042.099-.18-.125-.269-.278-.562-.023-.805s.472.053.698.144c.395.159.742.437 1.226.327.452-.102.212.381.382.531.191.995.344 1.994.256 3.014z" fill="#964226"/><path d="M52.349 52.319c.935.025 1.873.076 2.774-.26 1.681-.629 3.108-1.615 4.204-3.048l1.666-2.246.607.036c.454.558-.051.773-.376 1.053-.79 1.196-1.636 2.346-2.717 3.304-.062.055-.148.083-.222.123-.129-.1-.16-.233-.117-.438-.07.262-.072.491-.201.68-2.008 1.649-4.286 2.287-6.856 1.838-.053-.033-.08-.074-.08-.122s.007-.079.02-.08c.367-.382.75-.739 1.299-.839z" fill="#261c3c"/><path d="M59.557 43.959c-.05.337-.283.404-.576.401-1.605-.012-3.221.247-4.809-.208-.161-.046-.349.003-.525.007-.145.13-.308.13-.482.073a.6.6 0 0 1-.194-.172c-.124-.437-.145-.858.183-1.228 1.241.321 2.502.192 3.756.152.613-.02 1.226-.092 1.692-.574.181-.25.457-.166.7-.198.051.587.353 1.138.254 1.747z" fill="#6c3a1c"/><path d="M71.395 50.265c-.203-.111-.394-.265-.611-.325l-2.407-.713c-.699-.238-1.46-.287-2.191-.436-.308-.062-.634-.096-.875-.338-.083-.18.041-.34.049-.512a.32.32 0 0 1 .116-.172c1.065.007 2.039.44 3.06.652.171.035.335.099.502.149.266.229.601.243.923.293.645.075 1.244.277 1.778.655.057.057.079.125.06.204-.1.207-.253.375-.405.543z" fill="#cd8e27"/><path d="M60.615 30.13c-.941.349-.901 1.201-1.013 1.976-.116.112-.234.114-.355.009-.237-.29-.145-.588-.021-.886.035-1.173.983-1.857 1.495-2.773.215-.386.214.2.301.114.594-.581 1.114-.029 1.661.085.033.478.283.923.216 1.417-.185-.058-.085-.417-.518-.304-.593.155-1.143-.267-1.647-.628-.275.306.108.543.056.81-.018.1-.076.161-.177.181z" fill="#984a20"/><path d="M44.585 47.87c.303-.032.443.168.631.367.675.716 1.339 1.452 2.218 1.938.138.579-.087.921-.673 1.026-.693-.726-1.345-1.494-2.158-2.095l.004.002c-.06-.24-.244-.391-.403-.561-.147-.157-.261-.325-.094-.538l.475-.139z" fill="#291e3d"/><path d="M71.73 49.724l.008-.206.337-.022c.086.139.132.351.375.203 1.566.65 2.941 1.559 3.977 2.929l-.376.017c-.061.052-.118.052-.174-.008-.882-.831-1.988-1.291-3.039-1.844-.416-.219-.558.055-.703.351a.38.38 0 0 1-.15-.167 1.19 1.19 0 0 1-.064-.329c-.013-.141-.028-.282-.073-.417-.028-.064-.052-.13-.075-.196-.037-.1-.048-.204-.042-.31z" fill="#d08f2c"/><path d="M54.815 13.036c-.985.08-1.952.345-2.951.276-.028-.083-.017-.16.032-.232.232-.206.518-.224.806-.234.179-.084.343-.213.559-.185l.347-.015c.169-.072.355-.088.525-.149.029-.026.096.019.104-.053l-.075-.033.006-.08c.268-.243.591-.144.898-.148.749.126 1.495.074 2.24-.041.154-.037.297-.027.408.105-.017.198.073.097.145.052.286.117.555.259.736.525-.136.141-.305.135-.479.114-.177-.049-.338.015-.502.075-.933.09-1.866-.045-2.798.025z" fill="#e0e6e5"/><path d="M65.476 47.769l.005.157c.914.956-.561.365-.912.377l-3.342-.448c.108-.358.515-.608.375-1.054l1.529.316c.374.065.788-.021 1.099.288.405.157.873.097 1.246.364z" fill="#ca8b2b"/><path d="M62.71 14.66c.222.079.284.296.398.467-.148.219.064.354.124.524.063.146.07.306.111.457.066.397.015.783-.107 1.163-.005.081-.034.153-.086.215l.016-.017c-.109.143-.216.296-.422.133-.263-.37-.117-.829-.266-1.223-.153-.407-.442-.729-.684-1.08l-.266-.373c-.157-.212-.479-.297-.482-.628.026-.128.104-.212.223-.261.328-.104.502.174.74.296l.471.343c.078.005.013.185.148.123.005-.06.033-.107.082-.141z" fill="#e4e4e2"/><path d="M78.672 57.002c-.373.008-.405-.254-.389-.523s-.059-.451-.36-.432c-.44.027-.447-.331-.556-.601.044-.042.058-.083.041-.121s-.034-.057-.05-.057l.007.008c-.105-.108-.079-.266-.152-.384-.078.002.033-.184-.114-.114a.19.19 0 0 1-.096.144c-.175-.088-.256-.253-.28-.425-.05-.366.053-.582.639-.201-.282-.444-.451-.689-.389-.997.633.569.924 1.348 1.236 2.099.212.51.418 1.038.463 1.604z" fill="#efa02a"/><path d="M62.45 25.994c-.034-.452.124-.851.339-1.235.049-.316.262-.572.321-.884.018-.075.042-.148.067-.221.083-.213.093-.45.21-.651.054-.061.123-.084.203-.075.244.096.248.371.398.537.015.255.11.521-.1.745-.263.006-.057.29-.213.359l.012-.012c-.114.097-.082.262-.174.37l.007-.011a1.17 1.17 0 0 0-.183.195l.011-.014c-.066.06-.09.148-.142.217a1.62 1.62 0 0 1-.179.189c-.067.055-.153.083-.209.152l.009-.021-.183.198c-.019.108-.083.163-.193.164z" fill="#ced3d0"/><path d="M58.068 12.776l.526.047.524.178c-.102.606-.547.341-.885.349-.051 0-.101-.004-.151-.012-.112-.102-.224-.109-.332.005-.309-.008-.633.113-.913-.115.148-.174.309-.176.384-.124-.224.006-.548-.057-.872.085-.525.086-1.032.002-1.533-.153.774-.313 1.592-.216 2.395-.26.231-.013.464-.003.696-.004.055-.037.109-.036.162.004z" fill="#291f20"/><path d="M81.469 85.007c-.019-.233-.057-.466-.051-.698.014-.45.01-.871-.453-1.139-.109-.063-.16-.239-.218-.372s-.105-.291.068-.372c.141-.066.193.087.27.164.061.06.118.132.267.076.074-.666-.026-1.341-.139-2.014-.022-.128-.008-.226.112-.292.041.077.112.151.12.232.15 1.471.241 2.942.023 4.415z" fill="#f0ad49"/><path d="M40.861 21.017c.033.141.03.274-.085.383-.053.053-.117.074-.185.063-.056.078-.084-.272-.16-.006a1.1 1.1 0 0 1-.145.403c-.049.06-.111.1-.185.123-.136 0-.172-.119-.238-.202-.028-.259-.065-.518.109-.748.196-.023.059-.102.028-.163-.038-.255-.064-.507.139-.714l.089.05.199.222.167.102.085.05c.054.041.094.092.121.154.003.098-.011.199.059.283z" fill="#acb3b1"/><path d="M40.259 23.032c.126.571.538 1.083.356 1.718-.442-.628-.782-1.293-.737-2.093.317-.068.334.168.381.375z" fill="#685b60"/><path d="M62.874 20.665c.038-.381-.286-.704-.177-1.096.398.532.506 1.184.744 1.783.081.315.197.631-.042.931-.101.023-.179-.011-.232-.099-.097-.294-.13-.601-.182-.904a1.44 1.44 0 0 0-.11-.614z" fill="#272527"/><path d="M63.296 22.253c.253-.268.088-.602.143-.902.238.384.347.806.374 1.253a.55.55 0 0 1-.102.163c-.066.07-.141.131-.207.201-.06.239.027.52-.2.712l-.083.076c-.077-.011-.135-.052-.177-.117a.81.81 0 0 1 .018-.329c.063-.178.047-.364.047-.548-.001-.076.002-.152.008-.229.021-.119.068-.221.18-.28z" fill="#525355"/><path d="M58.233 13.35c.293-.123.665-.044.886-.349.337 0 .65.088.943.254.039.042.058.087.054.135s-.011.075-.022.075c-.058.054-.128.082-.207.087-.18.018-.318-.234-.521-.084l-.207.017c-.12-.008-.231.127-.356.021-.203-.005-.415.025-.568-.157z" fill="#5c3539"/><path d="M40.141 20.156c.169-.362.253-.765.517-1.081l.097-.069.117.013c.072.034.134.081.188.138a.6.6 0 0 1 .094.209c.006.074-.002.147-.022.218-.011.104-.005.209-.013.312-.022.061-.064.107-.121.138-.085.015-.173-.004-.259.011a.54.54 0 0 0-.137.095c-.04.047-.089.077-.148.095-.061.012-.12.008-.179-.012l-.057-.072-.078.005z" fill="#5c585a"/><path d="M57.307 12.141c-.69.232-1.757.252-2.24.041l2.24-.041z" fill="#7e434b"/><path d="M42.59 17.445c-.019.447-.593.333-.699.692l-.063.094a.52.52 0 0 1-.213.069c-.077-.002-.149-.022-.217-.057l-.068-.091c.345-.369.717-.69 1.26-.707z" fill="#5e4246"/><path d="M33.692 53.148l.139.208c.08.108.224.222.119.356-.12.153-.246.008-.357-.062l-.279-.184c-.011-.269.141-.344.379-.318z" fill="#f0b052"/><path d="M50.826 13.504l-.887.044c.424-.272.87-.466 1.39-.417l.054.099c-.079.309-.416.093-.557.274z" fill="#7e3c44"/><path d="M63.164 17.298l.139-1.245.1-.07.05.111c.059.411.118.822-.131 1.199-.052.054-.105.058-.159.004z" fill="#3f373a"/><path d="M62.022 14.49l-.664-.379c-.077.009-.118-.022-.118-.102.029-.112.138-.134.218-.189a1.65 1.65 0 0 1 .738.483l-.013.067c-.023.041-.054.074-.093.101l-.067.018z" fill="#686466"/><path d="M63.621 22.621l.191-.017c.278.242.168.563.175.86-.272-.058-.334-.282-.399-.503l.038-.068.02-.077-.069-.042c-.021-.062-.006-.113.043-.152z" fill="#939594"/><path d="M40.259 23.032l-.381-.375-.004-.205c.157-.143-.029-.398.172-.526l.11.001.107.05c.125.164.138.361.168.554.005.15.042.304-.031.449l-.142.052z" fill="#a0a1a1"/><path d="M41.347 32.18c.301.069.531.036.516-.355.126-.108.242-.12.337.039-.121.17-.111.434-.367.507-.188.002-.413.101-.486-.191z" fill="#a3a091"/><path d="M54.165 12.556c-.147.15-.332.16-.524.143-.063-.032-.085-.065-.066-.1s.038-.054.059-.054c.133-.185.355-.147.534-.215l-.002.064c.061.037.082.073.061.109s-.041.053-.062.053z" fill="#9c5a64"/><path d="M52.749 12.896l-.864.266-.074-.075a.21.21 0 0 1 .06-.189c.063-.03.121-.07.173-.118l.704-.059c.05.039.067.078.05.117s-.033.059-.049.059z" fill="#713f45"/><path d="M60.57 13.463c.291.016.55.106.76.316-.063.07-.137.123-.222.162-.247.055-.461.022-.597-.221-.024-.096-.004-.181.059-.257z" fill="#532f34"/><path d="M62.509 14.842c-.187-.083-.355-.192-.487-.352l.059-.05.068-.071.046-.065c.223.045.337.246.515.357.012.057.016.114.012.172-.069.05-.14.05-.213.009z" fill="#605357"/><path d="M40.987 18.508c.076-.155.18-.284.342-.356l.023.025c.106.086.12.198.09.322a.64.64 0 0 1-.13.201l-.101.066c-.081.018-.158.008-.232-.032-.036-.077-.035-.153.009-.227z" fill="#4a3f41"/><path d="M62.824 17.681l.34-.211c.12.353-.194.471-.363.668-.048-.054-.082-.116-.102-.185-.006-.073.008-.142.039-.208l.086-.065z" fill="#5f5155"/><path d="M52.749 12.896a.76.76 0 0 1-.001-.176c.137-.211.346-.147.54-.14.055.032.074.064.056.096s-.036.049-.054.05l-.541.169z" fill="#805c61"/><path d="M62.78 17.82l.022.318c-.04.081-.098.099-.175.05-.133-.148-.273-.294-.171-.519l.069-.058.09-.001.072.054a1.13 1.13 0 0 0 .093.154z" fill="#ada9a9"/><path d="M60.57 13.463l.014.176a.33.33 0 0 1-.205.111l-.12-.016-.107-.057a.42.42 0 0 1-.118-.207l.028-.215c.194.01.362.084.509.209z" fill="#302e2f"/><path d="M63.142 15.706c-.088-.188-.491-.357-.035-.579l.193.395c.036.039.052.08.049.125s-.01.069-.019.069a.14.14 0 0 1-.187-.01z" fill="#343436"/><path d="M40.047 21.926c-.053.176.08.414-.172.526l-.008-.671.181.146z" fill="#554e51"/><path d="M40.986 18.508l.029.223c.098.083.11.186.073.302l-.076.083-.112-.003a.8.8 0 0 1-.099-.064c-.019-.066-.011-.128.025-.186-.01-.147.01-.281.161-.356z" fill="#676064"/><path d="M60.311 91.327c-.095.018-.178.137-.282.043-.018-.016-.001-.11.026-.129.115-.079.194-.014.255.088l.001-.001z" fill="#f5f1d5"/><path d="M63.676 24.568c.005-.109-.001-.22.017-.327.031-.177.113-.13.196-.032-.053.13-.063.287-.213.359z" fill="#666569"/><path d="M63.143 15.706c.044.004.088.004.132-.002.082-.067.138-.054.165.053l.004.062c-.017.103-.079.177-.156.24l.017-.005c-.116-.087-.209-.185-.161-.348z" fill="#25282a"/><path d="M62.998 25.492c.013-.128.098-.184.213-.208l.089-.009c-.049.155-.152.257-.304.312l.002-.094z" fill="#90636a"/><path d="M40.558 29.053c-.024.068-.042.189-.075.193-.117.015-.089-.099-.095-.167-.007-.08.005-.162.008-.244.05-.052.102-.051.156-.003l-.002-.003c.056.073.059.148.007.225z" fill="#7aada7"/><path d="M40 20.87c.149.015.195.129.135.227-.068.11-.112-.024-.162-.064L40 20.87z" fill="#464043"/><path d="M52.045 12.78l-.172.175c-.045.065-.103.084-.176.049l.004-.107c.088-.118.211-.134.344-.116z" fill="#e0e6e5"/><path d="M53.291 12.727c-.004-.049-.005-.098-.002-.146l.346-.036a.59.59 0 0 0 .006.154l-.35.027z" fill="#4a3538"/><path d="M61.086 13.809l.245-.03c.05-.011.093.003.126.042l-.163.161c-.161.053-.21-.029-.208-.172z" fill="#312628"/><path d="M63.513 24.926c-.027-.163-.046-.323.174-.37.036.168.034.317-.174.37z" fill="#7a7779"/><path d="M51.328 13.131c.046-.2.253-.147.37-.235.019.03.017.057-.007.083l.078.08a.27.27 0 0 1-.137.165c-.115.036-.216.019-.293-.082l-.012-.011z" fill="#7e3c44"/><path d="M57.858 12.298c-.034.14-.14.187-.236.103-.087-.077.033-.117.091-.155.044.029.092.047.145.052z" fill="#8c767a"/><path d="M37.331 43.689l-.058.054c-.021-.044-.047-.085-.06-.131-.003-.012.034-.036.053-.054l.065.131z" fill="#a9adac"/><path d="M33.319 53.468c-.021.1-.083.161-.18.188.017-.104.07-.174.18-.188z" fill="#f0b052"/><g fill="#718988"><path d="M40.557 29.053l-.007-.225.198.036c-.009.118-.081.171-.191.189z"/><path d="M40.552 28.831l-.078.006-.078-.002c-.017-.095.012-.163.11-.193l.046.19z"/></g><path d="M63 25.492c-.006.031-.007.063-.002.095l-.179.067c.001-.12.064-.171.181-.162z" fill="#766265"/><path d="M63.302 25.275l-.046-.003-.044.012a.13.13 0 0 1 .137-.188l-.047.179z" fill="#665154"/><path d="M63.337 25.11c.002-.121.057-.192.183-.195-.007.116-.046.202-.183.195z" fill="#6d6265"/><path d="M40.826 18.864l-.024.186-.145.024c-.006-.12.067-.176.169-.21z" fill="#692730"/><path d="M63.165 17.299l.159-.004c.007.124-.047.192-.175.193l.016-.189z" fill="#393c3e"/><path d="M63.288 16.058c-.018-.125.063-.186.155-.24l.012.277-.167-.037zm.15-.301l-.165-.053.026-.182c.094.049.144.126.139.235z" fill="#e4e4e2"/><path d="M60.307 91.328c.025.013.073.03.071.038-.012.059-.039.045-.07-.039l-.001.001z" fill="#f5f1d5"/><path d="M49.018 77.687l-2.158-.457c-.603.049-.728-.343-.762-.822.052-.417.102-.834.238-1.236.172-.305.467-.447.769-.58 1.134-.421 2.331-.542 3.514-.737.404-.066.803-.165 1.198-.274s.84-.218.924-.696c.088-.498-.371-.596-.694-.775-.177-.099-.38-.17-.414-.412.316-.601 1.016-.651 1.486-1.032.245-.198.613-.332.531-.728-.083-.401-.484-.371-.783-.444-.867-.211-1.757.05-2.627-.113-.079-.028-.15-.072-.211-.129-.044-.069-.061-.145-.05-.226a.63.63 0 0 1 .123-.188c.08-.068.172-.12.265-.168.054-.032.112-.06.169-.087.08-.039.161-.078.235-.13l.134-.112a.78.78 0 0 1 .14-.105c.049-.033.101-.06.153-.088l.147-.104.067-.064.131-.144.067-.078.138-.164.073-.085c.586-.797.549-.976-.289-1.355-1.069-.273-2.003.276-2.987.501-.567.129-1.091.422-1.669.534a1.02 1.02 0 0 1-.542-.064c-.086-.043-.139-.112-.162-.206a.9.9 0 0 1 .077-.384c.376-.728.86-1.394 1.267-2.105l.38-.693c.16-.369.224-.741-.051-1.078-.286-.35-.636-.183-.97-.076-.423.134-.791.379-1.181.578-.215.109-.435.352-.702.081-.15-.276-.111-.546.03-.812l-.019-1.02c.297-.387.738-.337 1.136-.333l7.763-.03c.299-.018.594.017.772.314l.043 14.846c-.121.645-.703.731-1.17.898-1.124.404-2.282.675-3.49.659-.298.238-.585.233-.863-.034l-.004.012c-.052-.037-.108-.055-.172-.053z" fill="#fff"/><path d="M72.074 56.811c.042 1.332.166 2.663.02 3.995-.095.87-.115 1.727.078 2.594.073.326-.066.696-.085 1.047-.088 1.641.05 3.279.165 4.91.09 1.276.208 2.541.061 3.817a1.3 1.3 0 0 0 .003.353c.22 1.362.227 2.73.177 4.107-.017.485.102.985.112 1.485l.143 4.415.245 4.146.002.708c-.008.219-.089.41-.317.483-.283.09-.435-.112-.588-.293-.167-.198-.134-.445-.15-.678-.299-4.47-.397-8.947-.533-13.424l-.138-4.649c-.027-1.023-.281-2.042-.109-3.086.178-1.079.015-2.179.002-3.27-.013-1.059.05-2.113.087-3.169.027-.784.151-1.579-.019-2.367-.09-.418.118-.812.129-1.225l.104-3.426c.404-.454.592-.087.599.231.025 1.098.186 2.198.011 3.297z" fill="#8b631e"/><path d="M54.673 61.359c-.814-.225-1.64-.048-2.452-.02-2.145.073-4.288-.009-6.431.009-.263.002-.524.038-.788.059-.391-.01-.774-.024-.812-.556-.03-.415.15-.643.578-.682.233-.021.468-.014.703-.023.181-.008.344-.034.389-.262.16-.826.822-.818 1.437-.809.408.006.814.093 1.226.04.407-.106.865.616 1.235-.078l2.875.007c.168-.141.342-.139.519-.017.466.046.782.235.746.77-.025.38.159.524.534.503.202-.011.407.057.611.075.213.018.425.034.469.298.039.229-.086.388-.253.527-.174.145-.394.098-.587.159z" fill="#1e1f1f"/><path d="M51.076 53.238c.029.036.041.077.036.122-1.025.724-1.519 1.685-1.624 2.966-.074.902.172 1.734.209 2.601-.37.535-.769.338-1.17.045l-.331-.362c.245-.332-.17-.198-.225-.318-.86-.989-1.519-2.09-1.751-3.394-.218-1.225-.237-2.439.561-3.512.158-.14.337-.114.482-.01 1.165.838 2.463 1.401 3.813 1.861z" fill="#b4acb0"/><path d="M60.507 59.291c.121-.745.518-1.178.832-1.649.065-.097.189-.161.302-.077.061.044.133.172.111.214-.285.542-.544 1.113-1.245 1.512z" fill="#efb050"/><g fill="#a6721d"><path d="M72.074 56.81L72 53.758c-.01-.328-.015-.706-.536-.475l-.004-.533c.171-.097.317-.027.458.069l.072.101c.127.237.191.485.194.759l.049 2.562c.004.204.029.417-.159.569z"/><path d="M72.102 50.956l.034.187c-.093.589.201 1.209-.145 1.777l-.02-.018c-.074-.089-.175-.184-.162-.297.044-.373-.118-.351-.36-.209.036-.658-.205-1.331.108-1.974.252.106.051.676.546.533z"/></g><path d="M74.725 71.224c-.146-.027-.187-.151-.149-.261l.408-1.064c.087-.182.263-.116.343.028.184.334-.158 1.175-.511 1.294-.026.008-.056.002-.09.003z" fill="#f0af4d"/><path d="M77.759 74.534c-.01.168-.116.24-.284.204-.079-.017-.162-.065-.218-.123-.242-.251-.406-.961-.262-1.118.034-.036.1-.066.148-.062.202.018.606.739.616 1.099z" fill="#f1b04d"/><path d="M55.127 66.559c-.024-.584.31-.891.537-1.24.082-.126.236-.167.374-.047.1.087.119.23.052.314-.259.327-.404.769-.963.973z" fill="#f0b051"/><path d="M69.502 83.221c-.627-.21-.54-.801-.804-1.157-.08-.107-.044-.234.079-.292.115-.055.248-.019.311.089.233.401.435.816.415 1.36z" fill="#f1b256"/><path d="M75.438 60.807c.243.67-.195.967-.442 1.331-.051.075-.171.067-.225-.01-.044-.063-.074-.169-.052-.238.12-.389.313-.734.719-1.083z" fill="#f1b052"/><path d="M78.039 77.564c.658.231.839.606.93 1.049.025.118 0 .255-.119.301-.17.067-.281-.056-.341-.195l-.469-1.155z" fill="#efb251"/><path d="M60.509 85.035c.216.297.291.641.51.917.065.081.044.234-.071.313-.147.101-.291.056-.381-.076-.244-.355-.301-.737-.058-1.155z" fill="#f0ae49"/><path d="M67.238 50.04c-.027.053-.046.157-.106.196-.311.2-.593.489-1.01.42-.05-.009-.123-.138-.114-.202.024-.169.787-.586 1.033-.586.099 0 .161.048.197.172z" fill="#f1b04f"/><path d="M68.491 75.952c-.31-.313-.461-.666-.372-1.087.027-.128.127-.202.251-.178.073.014.178.084.192.146.083.367.1.737-.071 1.118z" fill="#efb657"/><path d="M59.873 76.124c.031.409-.172.638-.289.894-.071.154-.2.338-.395.212-.162-.104-.143-.324-.057-.476.153-.272.327-.542.741-.63z" fill="#f1b04f"/><path d="M67.368 57.777c.338.439.635.681.664 1.092.008.115-.009.253-.162.263-.075.005-.178-.037-.227-.093-.263-.302-.377-.651-.275-1.261z" fill="#f3af51"/><path d="M63.515 69.918c-.003.159-.006.292-.147.318-.072.013-.157-.042-.234-.073-.024-.01-.047-.037-.061-.062-.155-.276-.379-.541-.185-.886.02-.035.115-.065.151-.047.324.161.407.473.476.75z" fill="#f1ae4a"/><path d="M48.526 58.973c.395.109.789.217 1.17-.045.035.028.056.065.062.109-.224.225.058.495-.028.761-.531-.061-.839-.425-1.207-.683-.003-.047-.002-.095.002-.142z" fill="#9d94a3"/><path d="M75.39 83.29c-.081-.152-.16-.231-.149-.296.017-.109.077-.22.145-.31.169-.222.222-.571.598-.574.052 0 .139.033.149.068.104.366-.254.481-.405.709-.089.134-.207.249-.339.404z" fill="#f2b054"/><path d="M75.712 53.407c-.195.532-.462.837-1.002 1.03.084-.636.358-.935 1.002-1.03z" fill="#f0b253"/><path d="M70.304 56.17c-.346.184-.509.015-.666-.085-.2-.127-.342-.319-.307-.581.007-.048.059-.111.105-.128.332-.123.348.23.511.359.128.102.215.257.358.436z" fill="#f2ae4a"/><path d="M64.65 76.151c.435.51.134.841-.033 1.173-.019.038-.171.046-.238.016-.109-.05-.169-.171-.124-.287l.395-.902z" fill="#f1b153"/><path d="M66.357 67.872c.295.035.421.291.613.451.11.091.223.201.169.367-.014.043-.081.085-.13.096-.313.065-.835-.471-.76-.782.011-.047.068-.084.109-.132z" fill="#f0b254"/><path d="M60.933 53.82c-.093.008-.127.021-.15.011a.93.93 0 0 1-.602-.857c-.002-.033.158-.126.203-.105.403.19.501.547.55.95z" fill="#f0af4d"/><path d="M71.447 52.396c.276-.174.043-.577.418-.792.174.435.084.875.105 1.298-.194.029-.347-.081-.51-.153l-.013-.353z" fill="#8d631f"/><path d="M75.439 78.864c.013-.09.018-.207.049-.319.012-.046.082-.114.117-.109.079.011.204.047.219.099a4.25 4.25 0 0 1 .128.678.25.25 0 0 1-.181.27c-.196.055-.251-.108-.292-.243-.033-.11-.026-.232-.04-.375z" fill="#f2b45d"/><path d="M51.002 81.24c-.054.096-.078.195-.14.233s-.173.035-.231 0a.64.64 0 0 1-.304-.405c-.032-.143-.063-.318.07-.401.199-.123.313.051.406.195.077.12.134.252.199.378z" fill="#f1af4f"/><path d="M66.971 88.039a1.7 1.7 0 0 1-.035-1.547c.261.567.269.964.035 1.547z" fill="#f1b251"/><path d="M58.627 53.309c-.074.331-.299.516-.489.717-.087.093-.213.077-.315-.01-.113-.096-.098-.209-.011-.305.205-.224.371-.537.814-.403z" fill="#f2ae4d"/><path d="M72.102 50.956c-.235-.048-.238.242-.379.343-.218-.31-.106-.607-.166-.877l-.003-.137c-.099-.131-.105-.291.024-.368.138-.082.257.041.342.16.155.145-.017.402.182.532v.346z" fill="#936320"/><path d="M65.236 82.364c-.025.147-.06.288-.199.266-.312-.049-.377-.331-.446-.575-.035-.126.083-.221.21-.21.329.028.417.263.435.519z" fill="#f0af4f"/><path d="M68.482 53.096c-.48.316-.766.571-1.255.334.296-.423.652-.474 1.255-.334z" fill="#f1b051"/><path d="M64.161 60.346c-.262-.304-.135-.631-.256-.897-.038-.084.038-.17.13-.198s.183.026.214.106c.122.318.344.648-.088.989z" fill="#f0b253"/><path d="M77.391 62.252c.435.005.585.275.761.5.058.074.053.181-.034.228-.07.038-.178.065-.245.037-.302-.123-.419-.381-.482-.766z" fill="#f0af4b"/><path d="M61.811 50.007c.566.087.735.388.782.786.004.032-.083.112-.112.105-.42-.102-.53-.441-.67-.891z" fill="#f1b254"/><path d="M78.46 69.699c.175.115.137.309.184.469.06.206.246.509-.117.543-.288.026-.276-.313-.28-.535-.004-.182-.082-.422.213-.477z" fill="#f2b458"/><path d="M62.27 64.741c.047.652.047.652-.236 1.091-.253-.448-.253-.448.236-1.091z" fill="#f1ac46"/><path d="M57.687 56.514c-.128.495-.278.822-.679.997-.049-.609-.049-.609.679-.997z" fill="#f1af4e"/><path d="M47.551 84.563l-.354-.368c-.137-.128-.245-.28-.091-.435.211-.212.348-.016.48.139.037.042.086.074.13.11.014.205.047.416-.164.554z" fill="#e9b053"/><path d="M57.495 74.622c-.08.054-.102.082-.127.084-.282.028-.582.093-.744-.234-.023-.047.028-.174.081-.21.185-.125.383-.031.791.36z" fill="#f0a83e"/><path d="M63.49 86.392c.189.423-.077.725-.187 1.116-.302-.532-.302-.532.187-1.116z" fill="#f0b151"/><path d="M54.791 83.182a.6.6 0 0 1 .33.626c-.013.136-.131.196-.255.166-.294-.072-.261-.352-.311-.562-.028-.121.092-.197.237-.23z" fill="#f2ae4d"/><path d="M54.683 79.619c-.014.133-.04.274-.189.246-.248-.046-.4-.226-.47-.463-.035-.12 0-.269.136-.266.305.007.441.233.524.483z" fill="#f1aa41"/><path d="M75.342 65.518c.114.448.007.761-.437.975-.09-.495.179-.742.437-.975z" fill="#f3af53"/><path d="M68.714 61.751c.174-.015.499.361.444.603-.02.088-.09.171-.185.14-.266-.087-.458-.253-.475-.556-.006-.097.049-.162.216-.187z" fill="#f4ad4d"/><path d="M74.641 75.445c0 .672 0 .672-.416 1.103-.125-.512.221-.783.416-1.103z" fill="#f5af53"/><path d="M56.148 88.241c-.004.167-.015.375-.224.403-.219.029-.275-.173-.29-.348-.017-.206-.002-.454.259-.462.199-.006.244.212.255.407z" fill="#f0ac45"/><path d="M47.039 89.566c-.126-.155-.101-.325-.022-.482.098-.195.284-.356.481-.22.269.186-.008.338-.113.479-.083.111-.177.23-.346.223z" fill="#f1b051"/><path d="M70.186 70.946c-.057.173-.149.252-.273.228-.274-.055-.441-.259-.556-.492-.046-.094.069-.152.155-.131.272.066.554.127.674.395z" fill="#f1b45a"/><path d="M74.327 87.761c-.185-.511.014-.81.324-1.175.186.516-.007.816-.324 1.175z" fill="#f3af4e"/><path d="M78.309 84.483c-.1-.414-.172-.717.146-.952.069-.051.198-.043.223.053.095.35-.076.596-.369.899z" fill="#f0b254"/><path d="M64.86 55.238c.563-.027.635.348.834.83-.48-.194-.737-.379-.834-.83z" fill="#f0ab44"/><path d="M50.469 86.484c.21.043.299.189.302.377s-.08.363-.289.367c-.191.004-.202-.18-.206-.324-.003-.167-.048-.364.192-.42z" fill="#f1b253"/><path d="M56.808 60.956c-.236.008-.387-.111-.41-.342-.02-.198-.028-.462.247-.467.228-.005.244.214.188.395-.043.138.101.279-.025.415z" fill="#f2b458"/><path d="M59.965 71.711c.243.071.232.228.222.369-.013.183-.085.375-.288.374-.249 0-.222-.221-.206-.392.017-.194.137-.303.273-.352z" fill="#f2ae4a"/><path d="M57.737 70.712c-.076.206-.027.529-.378.569-.15.017-.193-.135-.163-.241.069-.236.089-.537.439-.541.086-.001.129.093.101.212z" fill="#f3af4e"/><path d="M58.154 83.898c-.224-.255-.188-.506-.111-.75.032-.102.113-.221.261-.157.114.05.193.151.154.277-.064.206-.066.45-.303.631z" fill="#f1ae4c"/><path d="M53.151 59.027l-.519.017c.049-.223-.377-.501 0-.647.313-.121.376.251.49.464.026.047.021.11.029.166z" fill="#f1b050"/><path d="M77.997 66.143c.239.035.399.183.449.436.02.103-.07.16-.161.165-.284.015-.434-.133-.456-.411-.007-.098.051-.161.168-.19z" fill="#f0ab46"/><path d="M58.929 66.642c.345.22.356.463.12.72a.24.24 0 0 1-.232-.009c-.269-.289-.064-.492.112-.71zm7.81 5.852c-.226-.053-.393-.194-.433-.437-.023-.146.114-.192.225-.183.221.019.365.154.393.375.014.11-.019.228-.184.245z" fill="#f0af4d"/><path d="M50.728 57.088c-.206-.401.055-.632.256-.945.133.532.133.532-.256.945z" fill="#f2b053"/><path d="M72.378 60.374c-.005-.069-.041-.163-.012-.231.085-.207.121-.476.435-.469.051.001.135.04.145.077.08.29-.189.396-.321.572-.05.067-.131.104-.246.052z" fill="#f0ae49"/><path d="M53.503 88.642c-.025.224-.045.468-.36.478-.087.003-.148-.093-.138-.183.025-.227.063-.474.321-.543.144-.039.152.13.178.248z" fill="#f0b151"/><path d="M68.915 79.484c-.272-.264-.242-.55-.11-.916.397.294.247.61.11.916z" fill="#f0b152"/><path d="M59.794 90.042c-.1-.043-.133-.048-.15-.067-.153-.179-.328-.357-.187-.619.048-.09.156-.088.23-.033.25.185.3.413.107.719z" fill="#f3ab47"/><path d="M66.396 63.779c.226.083.297.294.321.518.013.121-.07.237-.203.205-.228-.055-.294-.246-.295-.459-.001-.11.002-.231.177-.265z" fill="#f2b35a"/><path d="M69.538 50.767c.274-.164.548-.157.838-.042-.434.355-.434.355-.838.042z" fill="#f2b258"/><path d="M78.236 88.703c-.052.111-.133.181-.209.143-.212-.105-.388-.255-.387-.523 0-.093.065-.2.149-.165.248.102.372.319.446.546z" fill="#f5af4b"/><path d="M59.041 61.661c.192.449.192.449-.037.858-.179-.32-.108-.591.037-.858z" fill="#f1b45a"/><path d="M74.497 56.956c.437-.275.707-.258 1.022-.033-.299.28-.575.195-1.022.033z" fill="#efb251"/><path d="M63.412 73.733c-.007.149-.053.233-.146.24-.219.016-.313-.133-.336-.321-.014-.117.023-.253.182-.236.209.022.274.185.3.316z" fill="#f0a638"/><path d="M54.108 55.746c-.004.099-.055.179-.148.184-.219.012-.311-.141-.332-.327-.014-.119.034-.253.188-.232.204.027.286.179.293.375z" fill="#f0ac45"/><path d="M64.652 52.842c.109.315.064.552-.222.752-.05-.419-.05-.419.222-.751z" fill="#f5a941"/><path d="M69.896 66.823a.15.15 0 0 1-.175.139c-.187-.012-.326-.105-.357-.296-.024-.154.103-.195.218-.185.202.017.272.175.314.342z" fill="#f1b051"/><path d="M70.118 86.126l.028.174c.021.156.222.328.001.461-.106.064-.23-.042-.287-.145-.155-.283-.05-.444.259-.488l-.002-.002z" fill="#f0a334"/><path d="M66.708 84.226c.027-.099.016-.257.189-.219.133.029.154.162.142.28-.011.111-.017.265-.186.228-.132-.028-.145-.161-.144-.289z" fill="#f0ac45"/><path d="M77.824 57.743c-.127-.023-.31.016-.305-.19.003-.138.14-.15.252-.153s.235.016.265.145c.038.164-.109.161-.211.197z" fill="#efb256"/><path d="M70.632 89.687c-.059.127-.139.156-.221.137-.175-.038-.333-.115-.325-.326.003-.093.1-.14.184-.116.174.049.273.186.362.305z" fill="#efb050"/><path d="M57.969 51.522c-.009-.113-.031-.226-.024-.338.009-.142.06-.316.23-.274s.099.237.113.371c-.058.143-.178.206-.318.241z" fill="#52343b"/><path d="M70.119 86.128l-.023-.172c-.008-.105-.12-.228.017-.306.058-.034.176-.022.235.018.106.07.116.199.064.309-.056.115-.179.132-.295.15l.002.002z" fill="#f0a334"/><path d="M60.219 79.945c.139-.003.167.074.168.158.001.133.038.297-.156.328-.092.015-.148-.057-.157-.151-.015-.15.029-.27.146-.335z" fill="#f2b14e"/><path d="M71.918 50.077c-.22-.104-.37-.085-.366.208l-.159-.02c-.016-.26-.018-.512.337-.541.143.075.179.208.188.354z" fill="#a6721d"/><path d="M76.591 53.804c-.028-.037-.081-.076-.078-.111.008-.091.079-.127.157-.085.032.017.059.096.046.13s-.081.046-.125.067z" fill="#f4a639"/><path d="M77.003 54.922l.001-.184a.11.11 0 0 1 .168.005c.216.122.179.337.194.533l-.362-.354z" fill="#eabc5f"/><path d="M77.967 56.43l-.077.025c-.007-.023-.025-.06-.019-.065.067-.051.101-.036.096.04z" fill="#efa02a"/><path d="M75.878 52.636l.174.008c-.065.143-.121.116-.174-.008z" fill="#ecb557"/><path d="M77.355 55.268c.125.053.139.112.009.178l-.009-.178z" fill="#edb553"/><path d="M39.623 71.776c-.599.7-.845 1.601-1.355 2.354l-.872 1.429c-.099.098-.058.26-.162.356v.002c-.06.062-.117.126-.155.204-.309.659-.678 1.281-1.142 1.846-.861 1.05-1.475 2.257-2.165 3.415l-1.503 2.271c-.05.069-.106.131-.179.177l-.157.013c-.663-.365-.746-.625-.296-1.407l3.372-5.282c.401-.514.755-1.051 1.047-1.631l1.835-3.011c.466-.781.758-1.573.593-2.514-.101-.578.067-1.165.16-1.744l-.005-.174c-.191-.272.012-.621-.174-.894-.091-.827.032-1.668-.196-2.492-.07-.254.055-.563.09-.847.215-1.126-.223-2.237-.132-3.419.734.185.538.869.811 1.255.3.323.142.741.147 1.086.023 1.592.31 3.161.347 4.748.264.311.346.687.296 1.07-.115.886.336-.125.401.126.201.111.257.321.349.508.081.196.165.392.126.613-.353.651-.508 1.414-1.082 1.943z" fill="#8b631e"/><path d="M36.179 75.602c-.2.934-.913 1.555-1.439 2.278-1.123 1.542-2.035 3.209-3.02 4.833-.291.48-.239.633.213 1.129-.256.02-.472.145-.576.362-.277.581-.827.91-1.217 1.383-.245.296-.586.44-.926.312-.367-.138-.449-.658-.255-1.143.502-1.245 1.17-2.405 1.797-3.587l2.034-4.084c.258-.568.685-1.029.891-1.617.406-.167.296-.725.686-.904.034-.048.059-.108.103-.141.882-.665.897-.66 1.294-1.97.107-.355.24-.648.576-.823.539.076.773.39.42.829-.42.524-.546 1.149-.787 1.734-.207.501-.534 1.037.206 1.407z" fill="#c98a28"/><path d="M39.623 71.776c.233-.698.469-1.393 1.002-1.936.402.89.427 1.871.665 2.801.388 1.52.74 3.04 1.92 4.201.404.398.839.738 1.324 1.023.3.176.654.3.741.703.327.396.54.837.551 1.362.006.346-.111.575-.496.582-3.07-1.671-4.763-4.335-5.521-7.669-.197-.331.04-.737-.184-1.062l-.002-.005z" fill="#241c3d"/><path d="M36.179 75.602c-.045-.079-.1-.161-.201-.138-.169.038.046.521-.328.308-.204-.116-.298-.304-.214-.593l.7-2.046c.095-.238.091-.52.346-.665.543-.306.198-.543-.054-.789l.061-.08c.107-.083.249-.103.353-.196l.152-.157c.173-.21.224-.505.471-.66-.001-.181.079-.327.186-.47.428-.568.797-1.169.994-1.861.083.901-.068 1.817.183 2.707.063.223-.039.409-.151.575-.442.656-.695 1.421-1.19 2.046-.089.112-.218.276-.193.383.117.493-.492.44-.552.788-.062.361-.232.659-.562.847z" fill="#c38629"/><path d="M40.237 68.738c-.227.231-.134.64-.562.874-.268-.701.092-1.435-.144-2.096.611-.357 1.019-.877 1.428-1.461.82-1.17 1.71-2.33 3.092-2.906.405-.169.59-.561.969-.722l.081.853c-.069.637-.668.807-1.035 1.181l-.174.145-.082.075-.157.156-.076.08-.15.163c-.178.195-.318.421-.503.611-.759.687-1.351 1.516-1.974 2.317-.208.267-.331.628-.712.729z" fill="#c68729"/><path d="M39.038 61.682c-.295-.304-.371-.756-.709-1.046-.059.322-.076.649.036.94.292.764.276 1.514-.006 2.271-.123-.101-.161-.236-.165-.39l-.115-4.478c.009-1.094-.235-2.155-.274-3.243-.048-1.325.139-2.637.102-3.957.125-.199.253-.391.524-.191.044 3.374.565 6.72.608 10.094z" fill="#90651d"/><path d="M51.074 53.238c-.765.111-1.433-.224-2.062-.554-.66-.347-1.348-.673-1.909-1.193-.075-.07-.215-.07-.324-.103l-.019-.187c.378-.242.554-.615.673-1.026l.184-.04c1.054 1.133 2.459 1.51 3.9 1.804.283.057.599.025.729.372l.103.009c-.38.369-.808.669-1.275.919z" fill="#9898b6"/><path d="M36.425 71.679c-.301.282-.514.576-.552 1.034-.031.38-.095.802-.427 1.113-.192.18-.225.467-.188.866-.331-.268-.614-.502-.892-.126.006-.649.641-.943.842-1.493.138-.377.432-.683.572-1.08.185-.524.709-.661 1.166-.856.104.115.102.233.007.352-.14.161-.39.019-.527.19z" fill="#d59025"/><path d="M32.109 89.678c.305.691.012 1.18-.069 1.681-.024.149-.171.259-.335.195-.112-.045-.145-.188-.119-.307.106-.484.237-.961.523-1.569z" fill="#f0b152"/><path d="M43.01 52.354l-.204.86c-.022.085-.117.131-.212.106-.132-.035-.208-.154-.173-.266.098-.316.094-.637.117-.96.011-.142.052-.32.237-.316.203.004.186.179.185.327 0 .057.022.115.05.249z" fill="#f1b050"/><path d="M28.648 74.16c-.054.493-.23.787-.41 1.076-.064.103-.173.159-.294.099-.1-.049-.085-.154-.044-.228.171-.314.198-.735.749-.946z" fill="#f3ac4a"/><path d="M33.488 57.709c-.083.148-.221.23-.358.123-.265-.207-.61-.359-.652-.757-.003-.028.107-.105.124-.093l.861.567c.03.021.017.105.024.16z" fill="#f0b152"/><path d="M44.586 55.975c.303.186.36.489.486.742.054.109.03.245-.088.304s-.243-.014-.302-.114c-.168-.285-.443-.572-.096-.931z" fill="#f2ae4a"/><path d="M29.628 79.333c-.014.056-.014.121-.045.165-.153.216-.099.609-.503.611-.045 0-.123-.059-.13-.1-.055-.349.128-.608.36-.832.04-.039.164-.011.24.015.038.013.053.091.078.14z" fill="#f1af4e"/><path d="M35.925 59.379c.252.077.512.161.55.484.014.123-.049.232-.198.232-.288 0-.652-.306-.613-.516.025-.13.122-.19.261-.2z" fill="#f0a73a"/><path d="M31.309 69.788c.095.089.03.201-.006.308-.074.216-.067.485-.336.579-.083.029-.178-.026-.207-.116-.093-.288.021-.515.229-.709.087-.081.178-.153.321-.062z" fill="#f1b050"/><path d="M29.943 88.126c-.255-.047-.482-.201-.527-.527-.015-.113.092-.22.218-.219.185.001.571.435.545.598-.015.092-.082.144-.236.148z" fill="#f2ae4b"/><path d="M40.665 85.896c-.135-.094-.14-.193-.1-.263.132-.233.03-.614.421-.68.041-.007.13.049.133.081.035.395-.074.711-.453.862z" fill="#f2b457"/><path d="M35.013 68.759c.216.149.511.261.522.598.004.117-.133.185-.262.164-.28-.048-.548-.403-.479-.63.027-.089.102-.13.218-.132z" fill="#f1aa44"/><path d="M35.308 86.327a1.03 1.03 0 0 1-.621-.543c-.051-.097-.065-.23.049-.309.109-.076.212-.023.306.05.245.19.364.424.266.802z" fill="#f0ae49"/><path d="M31.158 62.495c-.119.048-.146.07-.171.067-.364-.046-.578-.25-.614-.617-.009-.087.056-.188.158-.164.358.084.49.372.627.714z" fill="#f0ab44"/><path d="M35.973 54.755c.233.014.221.191.271.314.073.179.234.362.031.552-.031.029-.115.028-.16.008-.221-.097-.258-.297-.259-.51-.001-.14-.012-.288.117-.365z" fill="#f3ac4a"/><path d="M33.919 62.833c.283.505.123.776-.184 1.096-.267-.427-.093-.703.184-1.096z" fill="#f1ac49"/><path d="M44.609 82.446c.003.144-.05.244-.172.276-.214.057-.591-.188-.588-.379.003-.142.116-.189.232-.197.245-.017.452.047.529.3z" fill="#f2ae4b"/><path d="M35.329 90.703c.197.351.166.603.111.847-.027.118-.132.186-.268.161s-.194-.125-.188-.25c.011-.242.137-.436.345-.758z" fill="#f0b151"/><path d="M38.971 76.761c-.206-.011-.45.026-.436-.287.008-.183.165-.225.318-.225.216.001.433.05.441.312.007.201-.193.171-.324.2z" fill="#f0ac47"/><path d="M34.926 64.946c-.142-.53-.032-.841.465-1.102.011.472-.149.763-.465 1.102z" fill="#f2ae4b"/><path d="M38.883 80.436c-.071.242-.232.237-.37.223-.218-.023-.43-.116-.365-.379.038-.153.233-.141.38-.121.192.027.303.141.355.277z" fill="#f0b051"/><path d="M34.956 81.066c.014-.114.001-.195.032-.219.199-.151.336-.422.64-.373.043.007.112.161.09.214-.143.343-.417.413-.761.377z" fill="#efb250"/><path d="M45.045 58.597c-.025.155-.093.213-.18.227-.219.037-.39-.073-.524-.226-.046-.052-.057-.172-.03-.239.051-.124.176-.144.285-.078.164.101.316.221.449.315z" fill="#f4ab45"/><path d="M44.603 49.105c-.072.323.295.593.117.933-.595-.474-.608-.58-.113-.93l-.004-.003z" fill="#f1ae4d"/><path d="M42.241 57.991c.014.105-.031.184-.115.204-.246.06-.458-.036-.597-.227-.074-.103.018-.208.152-.229.245-.04.45.011.56.252z" fill="#f1af4e"/><path d="M41.215 81.431c.17.014.208.006.227.021.216.169.546.265.442.646-.01.034-.102.075-.147.067-.365-.067-.38-.373-.522-.734z" fill="#f0b354"/><path d="M40.726 56.019c-.204-.059-.247-.225-.243-.4s-.089-.47.212-.453.192.28.157.469c-.024.133.015.289-.127.385z" fill="#f2ae47"/><path d="M32.307 66.372c.19.415.044.664-.281.837-.023.012-.118-.043-.125-.077-.062-.325.052-.57.405-.76z" fill="#f3af50"/><path d="M30.058 64.659c-.175.016-.208.029-.231.019-.259-.11-.508-.233-.534-.563-.001-.016.041-.05.063-.051.375-.012.524.232.701.594z" fill="#f3ac4c"/><path d="M38.429 51.589c-.2-.005-.356.109-.524.191.014-.144.001-.298.049-.43.063-.175.205-.31.406-.216.22.103.133.288.069.454z" fill="#ac731c"/><path d="M37.907 82.776c-.041.177-.111.347-.334.325-.139-.013-.169-.143-.144-.267.031-.156.123-.272.283-.293s.176.112.195.235z" fill="#f3aa44"/><path d="M34.589 71.653c.266-.195.484-.142.65.102.025.036-.03.184-.081.207-.317.14-.454-.066-.569-.309z" fill="#f0b356"/><path d="M34.364 74.566c-.211.315-.093.88-.686.904.211-.314.094-.878.686-.904z" fill="#dc9423"/><path d="M31.689 74.731c-.197-.092-.289-.257-.268-.47.008-.083.096-.137.189-.13.224.018.265.184.265.363-.001.112-.03.227-.186.237z" fill="#f1ae4a"/><path d="M41.311 63.642c-.14-.142-.123-.264-.12-.377.004-.144.009-.326.213-.292.115.02.132.177.131.295-.001.15-.038.284-.224.374z" fill="#eeb052"/><path d="M47.972 58.293c.277-.009.558-.066.902.052-.216.262-.573-.045-.677.266-.155-.049-.205-.173-.225-.318z" fill="#c6a772"/><path d="M36.953 71.489l-.007-.352c.121-.232.17-.53.516-.551-.167.302-.23.663-.51.903z" fill="#c98a28"/><path d="M39.623 71.781c.291.314.184.697.184 1.062-.257-.32-.164-.701-.184-1.062z" fill="#8b631e"/><path d="M38.462 67.187c.266.257.148.59.174.894-.285-.254-.155-.589-.174-.894z" fill="#c38629"/><path d="M31.564 93.466c-.049.081-.132.111-.193.048-.049-.049-.081-.148-.069-.217.017-.096.107-.103.18-.047.067.052.111.122.082.216z" fill="#f1a533"/><path d="M31.21 92.728l-.026.061-.068-.084c.019-.011.041-.035.055-.03s.027.034.04.053z" fill="#e7b045"/><path d="M37.234 75.914c-.002-.144.026-.275.162-.356.008.147-.022.276-.162.356z" fill="#a67221"/><path d="M32.088 83.829l.179-.177a.23.23 0 0 1-.179.177z" fill="#c98a28"/><path d="M52.248 52.31a18.37 18.37 0 0 1-2.883-.729c-.517-.174-.936-.487-1.379-.77-.236-.151-.336-.401-.367-.677.284-.49.748-.826 1.085-1.27.401-.529.413-.88-.069-1.304-1.292-1.14-1.408-3.933.023-5.173.088-.076.152-.179.227-.27.072-.111.239-.081.301-.206l-.015.005c.28-.201.51-.04.699.135.971.897 2.15 1.458 3.298 2.07l-.003-.002c.112.247.388.026.53.186.88.196 1.442.771 1.726 1.584.476 1.359.344 2.648-.65 3.757-.225.251-.35.625-.743.702-.104-.088-.094-.229-.16-.335.047.116.058.249.162.338-.298.414-.696.75-.838 1.282-.119.446-.591.503-.944.679z" fill="#aca1af"/><path d="M53.169 44.12c-.081.029-.186.108-.241.081-1.122-.542-2.253-1.071-3.149-1.973-.169-.17-.354-.306-.607-.312-.001-.059.004-.118.012-.176a1 1 0 0 1 .685-.608c.08-.006.157.007.229.042.404-.208.848-.198 1.274-.167.812.059 1.295.558 1.554 1.301l.126.409c.112.035.132.098.061.191.031.404-.153.817.054 1.212z" fill="#a49cac"/><path d="M49.112 30.944c.702-.499 2.005-.533 2.736-.072 1.127.711 1.449 1.857.893 3.075-.216.473-.358.961-.735 1.368-.257.277-.496.374-.832.362-.072.066-.144.069-.215-.001-.086-.856.312-1.547.755-2.223.041-.112.055-.23.071-.348.054-.584.41-1.242-.403-1.608l-.337-.076c-.528-.141-1.087.093-1.609-.133-.154-.071-.253-.194-.323-.345z" fill="#964522"/><path d="M43.807 31.599c.389-.374.732-.337.843.156.233 1.042.48 2.092.304 3.177-.223.255-.527.249-.818.217-.512-.058-.934-.301-1.004-.84-.079-.607.504-.505.788-.624-.104.076-.291.043-.463.068-.576.084-.763-.125-.591-.671.126-.401.37-.731.676-1.023.125-.12.43-.163.266-.459z" fill="#6b3a1c"/><path d="M50.994 35.68l.178-.003c-.46.487-.982.596-1.633.387-.844-.272-1.302-.957-1.829-1.569-.225-.262-.099-.622-.137-.937-.053-.438.032-.869.084-1.3.074-.612.506-.924 1.29-.962.246-.04.272.131.294.306-.426.514-.9 1.013-.563 1.77.036.072.054.149.06.23-.263 1.233.268 1.895 1.476 1.813.31-.021.576.009.778.265z" fill="#9a4722"/><path d="M46.211 28.706c-.276-.329.023-.667-.017-1.011-.263-2.238-.172-4.509-.62-6.731-.01-.046.038-.104.075-.195.463.146.919.378 1.431.302.073.029.099.062.081.101s-.041.062-.063.062c-.288.007-.499.063-.517.435l-.216 5.925c.023.377.066.765-.154 1.112z" fill="#6a391c"/><path d="M61.517 24.254c-.035.189-.17.226-.325.189-1.456-.349-2.707.13-3.864.966-.121.088-.226.237-.367.143-.224-.148-.044-.306.05-.438.746-1.049 1.755-1.618 3.051-1.622.525-.001.96.238 1.304.636.062.028.112.07.15.127z" fill="#070708"/><path d="M55.63 29.374c-.531-.303-.527-.852-.632-1.356-.128-.62-.261-1.237.023-1.851.501.074.389.496.442.807.115.687.142 1.396.538 2.007.549.114 1.102.183 1.665.153a.63.63 0 0 1 .683.449c.11.299-.046.537-.244.705-.793.675-1.654 1.214-2.779 1.139.678-.392 1.47-.572 2.087-1.074.226-.398.236-.641-.346-.646-.493-.005-1.012.006-1.438-.332z" fill="#3f2215"/><path d="M59.985 33.339c.09.479.559.365.838.547.365.238.666.291.984-.071.13-.147.327.029.494 0-.245.565-.888.691-1.258 1.146-.282.346-.915.154-1.206-.245-.033-.046-.041-.14-.075-.149-.215-.052-.483.019-.588-.265-.078-.213-.055-.467-.271-.628.109-.242.46-.065.55-.323.172-.07.239-.254.367-.354.183-.142.117.09.159.161.105.057.107.117.006.181z" fill="#a24c21"/><path d="M51.29 25.889l-1.736.659c-.529.206-1.007.491-1.359.952-.09.117-.168.248-.335.259-.125.008-.228-.045-.309-.138-.075-.087-.028-.171.027-.236.852-.994 1.752-1.919 3.114-2.187.566-.086.844.077.597.691z" fill="#090809"/><path d="M43.806 31.599c.142.005.295-.046.435.103l-.771.695c-.243.226-.424.502-.484.826-.057.31-.002.525.422.394.351-.108.731-.179 1.224.114l-1.035.184c-.377.07-.404.285-.227.575s.415.492.788.469l.795-.026c-.2.47-.425.59-.858.473-1.34-.363-1.988-2.06-.934-3.219.195-.214.429-.392.645-.586z" fill="#412315"/><path d="M58.06 33.233c-.309 1.416-1.94 2.146-3.363 1.145-.816-.575-1.373-1.276-1.496-2.284-.042-.21-.263-.475.167-.539.211.992.569 1.892 1.461 2.492 1.112.748 2.007.57 2.735-.571l.285-.442c.17-.04.261.004.21.198z" fill="#422314"/><path d="M53.114 42.908l-.061-.191c.115-.108.239-.134.398-.093 1.738.449 3.453.301 5.152-.213.128.032.378.105.166.228-.451.261-.952.467-1.483.511l-2.371.119c-.618.057-1.197-.245-1.8-.361z" fill="#412215"/><path d="M55.999 28.981c-.368.018-.541-.18-.56-.526-.034-.613-.295-1.195-.229-1.821.019-.179-.033-.35-.191-.466.163-.204.352-.186.537-.045a.45.45 0 0 1 .15.211 6.68 6.68 0 0 1 .293 2.648z" fill="#6f3b1b"/><path d="M55.629 29.374c.666-.01 1.317.21 1.988.129.148-.018.309.029.37.174.065.154-.061.267-.161.371-.121.124-.233.261-.414.305-.383-.323-.738-.565-1.313-.331-.416.17-.573-.09-.471-.648z" fill="#9d4a23"/><path d="M49.909 41.24l-.726.5c-.196-.33-.524-.535-.771-.816-.365-.417-.698-.851-.678-1.449.622-.014.838.557 1.226.871.336.272.664.563.949.894z" fill="#6b3c1d"/><path d="M49.907 41.24c-.423-.047-.648-.387-.931-.637l-1.244-1.128c-.126-.245-.329-.461-.361-.959l2.724 2.659-.188.066z" fill="#402215"/><path d="M52.918 29.141c.016.314-.252.621-.575.659s-.586-.166-.61-.477c-.029-.375.319-.782.669-.783.265-.001.5.272.516.601z" fill="#070708"/><path d="M60.031 27.925c-.017.387-.31.677-.665.66-.37-.019-.503-.269-.519-.581-.015-.287.343-.614.63-.622.307-.009.567.246.554.544z" fill="#0c090a"/><path d="M47.098 21.234a1.19 1.19 0 0 0-.018-.163c.282-.675.429-.714 1.304-.343.007.302-.33.402-.394.661-.318.067-.588-.141-.892-.156z" fill="#231913"/><path d="M51.953 25.747l-.065.01-.062-.019c-.278-.153-.583-.285-.546-.689l.356-.004c.175.12.396.018.574.119l.316.041c.071.052.139.111.232.121.149.092.155.225.109.374-.298.157-.605.123-.914.045z" fill="#090809"/><path d="M59.248 32.114l.355-.008c.391.476-.178.501-.338.718-.449-.218-.449-.236-.017-.709z" fill="#a24c21"/><path d="M51.28 25.049l.545.689c-.17.076-.333.183-.534.152.026-.425-.166-.662-.597-.692.163-.178.373-.167.586-.148z" fill="#100b0b"/><path d="M58.062 33.232l-.21-.198c.101-.226.192-.454.161-.71.135-.177.256-.39.523-.178-.061.404-.252.752-.474 1.086z" fill="#5a2d16"/><path d="M59.226 31.227l.021.887c-.55-.098-.554-.101-.316-.49.085-.14.196-.265.296-.397z" fill="#a24c21"/><path d="M49.14 31.628c-.023-.134-.063-.259-.192-.333l.162-.351.364.161c.1.128.144.27.112.432a.35.35 0 0 1-.143.176c-.119.034-.228.033-.303-.086z" fill="#301c15"/><path d="M53.37 31.555c-.205.133-.146.348-.167.539-.215-.179-.187-.417-.154-.652.013-.09.076-.184.169-.166.137.027.146.161.152.279z" fill="#643215"/><path d="M42.199 31.864l-.337-.038c.002-.161-.07-.369.123-.446.202-.081.235.203.393.25l-.178.234z" fill="#2a2e2a"/><path d="M59.265 32.823c.212.122.179.332.19.527l-.561.013c.112-.236.427-.268.371-.541z" fill="#a24c21"/><path d="M54.91 24.791c-.011.075-.068.132-.16.133-.121.001-.232-.049-.196-.191.013-.051.125-.096.198-.107.091-.014.155.044.159.165z" fill="#763c1a"/><path d="M51.953 25.746l.914-.045c-.291.303-.601.194-.914.045z" fill="#100b0b"/><path d="M56.118 23.737c.007.095-.035.177-.119.201-.141.039-.217-.056-.225-.179-.006-.09.065-.17.161-.175s.153.065.183.153z" fill="#462214"/><path d="M62.645 33.449c-.11-.004-.25-.009-.273-.127-.038-.193.138-.195.268-.225l.005.352z" fill="#652f1a"/><path d="M58.534 32.146c-.206-.035-.36.086-.523.178.066-.376.224-.486.523-.178z" fill="#a24c21"/><path d="M54.889 23.365c-.035.032-.07.089-.105.089-.096.001-.137-.07-.101-.153.014-.033.092-.063.13-.053s.051.076.076.117z" fill="#733818"/><path d="M57.169 23.192c-.047-.024-.104-.038-.138-.074-.05-.052-.031-.117.038-.127.043-.007.116.024.134.059s-.021.094-.035.142z" fill="#613315"/><path d="M47.989 21.39c.196-.01.398-.046.537.149-.199.022-.395.033-.537-.149z" fill="#231913"/><path d="M52.21 25.165c-.204.022-.415.075-.574-.119.206-.028.411-.055.574.119z" fill="#100b0b"/><path d="M53.848 24.216c.01.023.032.049.028.069-.017.076-.058.086-.101.024-.011-.016-.001-.054.012-.075.009-.013.039-.012.06-.018z" fill="#592616"/><path d="M49.187 41.91c-.045.149-.161.195-.301.206.042-.154.168-.185.301-.206z" fill="#a49cac"/><path d="M52.756 25.327c-.099.002-.177-.038-.232-.121.101-.004.176.04.232.121z" fill="#100b0b"/><path d="M61.518 24.254l-.15-.127c.081.006.14.038.15.127z" fill="#121211"/><path d="M62.638 16.254c.282.447.082.957.187 1.427l.001-.005c-.054.048-.105.047-.151-.013l-.046-.021-.051.002c-.059-.039-.105-.029-.137.036l.015-.01c-.318-.214-.35-.562-.421-.894l-.185-.826c-.084-.16-.002-.233.144-.271.258.096.378.312.475.546.017.122.087.245-.007.366.13-.036.017-.139.054-.202.004-.08.045-.126.123-.137z" fill="#d7dad7"/><path d="M60.076 14.16c-.407-.027-.713-.142-.575-.65.159-.163.275.03.413.049.116.005.233.008.326.092l-.022-.016c.074.067.174.096.243.171.031.067.017.124-.036.174l-.196.184c-.05-.054-.1-.058-.152-.004z" fill="#3c3031"/><path d="M40.158 21.928c.062-.181.001-.414.223-.528.101.043.184.106.24.201.021.102.013.213.094.296.035.327.091.655-.114.953-.192-.109-.186-.315-.242-.491-.069-.133-.032-.298-.126-.424l-.073-.008z" fill="#6c6c6d"/><path d="M61.129 14.317c.145.218.443.286.542.549l-.023.083a.35.35 0 0 1-.114.128l-.079.033c-.066.01-.114-.013-.147-.071l.011.012c-.053-.073-.118-.133-.19-.188l.011.012a1.1 1.1 0 0 0-.195-.186l.014.014c-.052-.07-.122-.122-.183-.184-.234-.096-.046-.218-.02-.331.184-.13.283-.012.373.13z" fill="#514b4d"/><path d="M61.131 14.317l-.373-.13c-.085-.111-.193-.185-.333-.207-.009-.053-.015-.107-.017-.161-.044-.034-.06-.07-.048-.107s.025-.057.038-.057l.187-.016c.124.185.315.172.502.171.031.104.106.154.208.172l.063.13-.227.205z" fill="#c2d2cd"/><path d="M63.027 21.237c.11.276.29.534.216.856-.075.107-.122.262-.307.179-.044-.347-.102-.694-.014-1.043l.105.008z" fill="#c0c6c4"/><path d="M63.286 23.858c-.015.383-.194.675-.495.901l.013.008c-.052-.057-.108-.11-.168-.159-.054-.155-.04-.291.102-.395.26.004.151-.318.336-.38.076-.036.147-.028.212.025z" fill="#4b4143"/><path d="M63.152 23.385l-.041.302c-.182.02-.268-.043-.205-.236-.058-.335-.017-.668.031-.999.159-.052.247.028.304.165l.009.181c-.097.185-.019.4-.098.588z" fill="#ebeee9"/><path d="M41.889 18.137c.11.031.342-.018.215.203-.149.261-.358.489-.541.73-.064-.04-.108-.096-.137-.165-.019-.071-.026-.144-.02-.217l.03-.105.045-.098a.57.57 0 0 1 .141-.159l.091-.054a.54.54 0 0 0 .178-.111l-.002-.024z" fill="#6b6b6c"/><path d="M51.342 13.142l.369.024c.047.034.064.072.053.111s-.024.06-.039.06c-.27.213-.588.164-.897.167.073-.261.456-.082.515-.362z" fill="#97c0ba"/><path d="M56.349 13.189c.316-.29.681-.139 1.087-.18-.199.249-.423.151-.6.219l-.488-.039z" fill="#779d9a"/><path d="M62.049 15.729c-.108.037-.162.123-.2.222-.218-.213-.359-.478-.494-.747.056-.053.121-.082.198-.088a.28.28 0 0 1 .197.085c.108.171.411.232.299.528z" fill="#b4bab6"/><path d="M40.889 19.985l.209-.035.077-.011c-.095.306-.093.642-.28.92-.069-.035-.127-.084-.173-.146l-.026-.057c-.052-.057-.073-.124-.064-.201.05-.176.076-.366.258-.47z" fill="#a49c9c"/><path d="M62.906 23.45l.205.236.078-.011c.019.067.007.128-.031.185l-.19.388c-.099.172-.165.056-.23-.035.122-.24-.117-.559.168-.763z" fill="#c8c7c4"/><path d="M40.392 22.278c.226.134.166.372.208.572-.03.099-.088.154-.197.13l-.172-.36c.114-.086.033-.264.161-.343z" fill="#707475"/><path d="M59.893 13.625l-.393-.115-.135-.043c.188-.211.36-.225.51.041l.018.117z" fill="#878d8c"/><path d="M63.027 21.237l-.053.004-.052-.011c-.034-.187-.206-.362-.048-.565.253.137.165.365.153.572z" fill="#677473"/><path d="M63.241 22.615l-.304-.165v-.179l.307-.179a1.62 1.62 0 0 1 .054.16l-.056.362z" fill="#e1e4df"/><path d="M40.713 21.897c-.161-.069-.125-.245-.197-.363-.049-.063-.041-.113.034-.147l.226.012-.064.497z" fill="#bcb7b6"/><path d="M41.077 19.622l-.045-.191c.068-.106.131-.219.277-.232l.107.069c-.004.132.005.269-.145.339-.059.067-.125.07-.194.016z" fill="#93aba6"/><path d="M58.802 13.506c.118-.02.225-.207.356-.021-.108.19-.227.195-.356.021z" fill="#291f20"/><path d="M40.721 20.713c.105-.007.135.075.173.146.005.056-.005.109-.03.159-.115-.071-.148-.178-.143-.305z" fill="#b5c2bf"/><path d="M61.498 16.797l-.026.06-.066-.082c.018-.011.04-.034.053-.03s.027.034.039.052z" fill="#242829"/><path d="M57.749 13.343c.107-.223.218-.211.332-.005l-.332.005z" fill="#748584"/><path d="M41.074 19.622l.194-.016-.097.333-.077.011-.02-.328z" fill="#cad3cf"/><path d="M41.549 18.91c-.012.055-.007.109.015.161-.012.095-.049.169-.149.196l-.03-.023c-.129-.201-.146-.348.164-.334z" fill="#8e9f9c"/><path d="M45.79 32.786l-.079-.068c.015.005.035.005.043.015.013.017.018.041.027.062l.009-.009z" fill="#a5551c"/><path d="M62.636 24.608c.111-.005.13.087.168.159-.102-.004-.15-.066-.168-.159z" fill="#ced3d0"/><path d="M51.723 13.337c-.01-.056-.014-.113-.013-.171l-.018-.048c.059-.042.122-.05.189-.02l.003.063-.02.15-.066.035-.074-.01z" fill="#ade3df"/><path d="M61.587 15.176l-.232.028-.046-.166.201-.007a.12.12 0 0 1 .078.145z" fill="#d4e3dd"/><path d="M61.129 14.862c.117.009.19.061.19.188-.133.008-.18-.072-.19-.188z" fill="#9ebcb7"/><path d="M60.948 14.688c.103.022.174.078.195.186-.12-.004-.173-.079-.195-.186z" fill="#8ca09c"/><path d="M60.777 14.518l.183.184c-.104-.019-.173-.072-.183-.184z" fill="#887a7c"/><path d="M60.076 14.16c.053-.096.104-.084.152.004l-.076.009-.076-.013z" fill="#4d4647"/><path d="M53.693 44.303c-.173-.071-.512.331-.53-.185l.482.041.048.144z" fill="#a49cac"/><path d="M45.275 78.568c-.86-.546-1.791-.972-2.459-1.809-.558-.7-1.018-1.417-1.257-2.287-.419-1.523-.902-3.031-.934-4.632l-.18-.58c-.086-.749.532-1.133.9-1.615l1.554-1.875.949-.926c.798-.785 1.652-1.497 2.631-2.049.076-.039.154-.07.235-.098.372-.114.763-.244 1.051.141s.149.798-.05 1.167c-.558 1.039-1.235 2.003-1.914 2.965-.218.309-.456.611-.583.92 2.089-.79 4.158-1.729 6.478-1.791.745.452.758.661.095 1.439l-.19.165c-.102.064-.198.139-.295.212-.179.146-.353.3-.575.378l-.296.116-.181.092-.254.173c-.145.11-.309.183-.476.249l-.316.137-1.663.724-1.783.729c.967-.019 1.68-.355 2.418-.582 1.367-.46 2.783-.467 4.2-.463.147 0 .296.006.439.043.29.074.598.155.654.504.05.303-.169.499-.396.638-.885.545-1.827.946-2.86 1.118l-3.653.746c1.111-.128 2.18-.462 3.285-.616.207.007.416.045.62-.031.387-.085.729-.451 1.173-.193.323.129.661.229.965.393.695.373.731.86.145 1.391-.229.208-.492.296-.788.35l-3.963.729c-.295.047-.531.238-.828.235-.644 0-1.199.338-1.815.438.364-.026.705-.308 1.082-.035.03.43.016.853-.184 1.249-.179.453.374 1.042-.261 1.411l.004.525c-.223.13-.457.219-.722.205z" fill="#a5551c"/><path d="M45.99 77.838c.299-.432-.049-.982.261-1.411-.077.478.264.64.605.803.063.501.519.583.859.735.358.16.296.372.216.633-.098.316-.302.161-.493.119-.443-.096-.835-.27-1.088-.669-.087-.137-.206-.199-.36-.211z" fill="#c5882a"/><path d="M49.193 77.729c.291-.074.578-.037.863.034.288.444.266.903-.155 1.079-.431.18-.869.451-1.383.353-.117-.006-.185-.068-.211-.18.277-.441.723-.766.886-1.286z" fill="#c3892d"/><path d="M48.305 79.014l.211.18-.031.263c-.014.091-.057.173-.154.18-.163.01-.173-.124-.188-.238-.02-.158.038-.287.163-.385z" fill="#e9ac52"/><path d="M49.014 77.687c.074-.037.133-.021.172.053l-.172-.053z" fill="#c3892d"/><path d="M60.613 30.13l.177-.181c.16.098.445.205.248.411s-.318-.076-.425-.23z" fill="#70321d"/><path d="M61.698 31.784c-.016.127-.06.198-.163.186-.094-.011-.145-.086-.145-.174.001-.126.065-.228.202-.187.055.017.08.13.105.175z" fill="#5b251e"/><path d="M61.403 33.517c-.033-.048-.097-.105-.115-.175-.025-.098.044-.158.142-.146.091.012.13.091.135.176s-.019.163-.162.144z" fill="#4a1f17"/><path d="M61.939 30.443c.035-.032.07-.09.105-.09.096 0 .138.072.104.157-.013.032-.094.063-.131.052s-.053-.076-.078-.118z" fill="#5e251c"/><path d="M60.031 31.471c-.02-.041-.044-.081-.057-.123-.003-.011.033-.034.051-.051.02.041.045.08.057.124.003.011-.034.033-.052.05z" fill="#2f1812"/><path d="M59.988 33.338l-.006-.181c.08.021.214-.039.205.112-.002.027-.13.046-.199.068z" fill="#5f2e19"/><path d="M72.099 50.609c-.463-.039-.116-.357-.183-.533.212.126.18.335.183.533z" fill="#a6721d"/><path d="M54.165 12.556a1.29 1.29 0 0 1 .002-.162c.199-.055.397-.091.599.027-.189.14-.397.125-.6.135z" fill="#4f3a3d"/><path d="M58.069 12.776l-.082.028-.08-.032c.056-.074.11-.069.162.004z" fill="#fefefe"/><path d="M62.048 15.729l-.348-.534c.067-.071.133-.074.2 0 .421.231.541.672.736 1.06l-.042.023-.039-.028c-.05.087-.103.089-.16.006-.229-.101-.17-.392-.348-.526z" fill="#575759"/><path d="M61.9 15.194h-.2l-.055-.023-.059.005c-.03-.047-.056-.095-.078-.145.035.007.063-.002.086-.029l.048-.046c.027-.025.036-.055.028-.09.129.072.192.191.23.328z" fill="#272021"/><path d="M62.508 14.842l.213-.009c.035.08.013.169-.065.168-.05-.001-.099-.103-.148-.159z" fill="#323738"/><path d="M77.171 54.743c-.056.002-.112.001-.168-.005.061-.2.115-.126.168.005z" fill="#f1e0b0"/><path d="M63.625 22.621l.025.175c.032.035.044.071.035.108s-.018.055-.029.056h-.064l-.087.008c-.016-.135-.078-.285.119-.347z" fill="#c6cfcc"/><path d="M63.156 23.861l.031-.185a.27.27 0 0 0 .117.005l-.019.177-.065.002-.064.001z" fill="#464043"/><path d="M40.551 21.388c-.029.045-.041.094-.034.147l-.137-.135.016-.168c.017-.088-.056-.213.098-.245l.045.234c.009.055.009.112.012.167z" fill="#121211"/><path d="M40.219 20.15c.032.005.064.005.096-.003.175.169.175.346.025.531-.244-.13-.178-.331-.121-.529z" fill="#444042"/><path d="M40.339 20.679l-.025-.531.205-.004a.38.38 0 0 1 .114.208c-.021.117-.011.246-.121.33l-.173-.003z" fill="#b2bab6"/><path d="M40.514 20.682l.046-.342c.145-.03.24-.015.151.167a.57.57 0 0 1-.017.149l-.18.026z" fill="#292021"/><path d="M63.153 23.384c-.034-.207-.079-.416.098-.588.018.204.065.413-.098.588z" fill="#ced3d0"/><path d="M59.894 13.625c.01-.042.003-.08-.018-.117a.58.58 0 0 0 .159-.039c.075.053.189.063.205.182l-.345-.026z" fill="#fefefe"/><path d="M41.548 18.91c-.185.048-.174.191-.164.334l-.354.187-.033-.227-.009-.11.03-.013c.109-.102.059-.278.177-.377l-.01.01c.048-.046.105-.078.17-.095.069-.003.127.02.172.073l.021.219z" fill="#404243"/><path d="M40.71 20.507l-.151-.166-.039-.197-.006.01c.107-.1.069-.267.172-.368l.202.198c-.032.184.001.389-.178.522z" fill="#454144"/><path d="M40.688 19.786c-.016.142.017.307-.172.368-.019-.158-.007-.302.172-.368z" fill="#b1b4b1"/><path d="M40.988 19.093c-.021.038-.018.075.009.11-.055-.002-.087-.032-.098-.09l.051.016.038-.036z" fill="#fefefe"/><path d="M41.367 18.537l-.015-.36.355-.01c.042.04.056.08.043.121s-.027.061-.041.061l.01-.011c-.066.061-.127.126-.186.193l.011-.011-.081.079-.095-.063z" fill="#6e7979"/><path d="M41.709 18.349l-.002-.182.185-.005-.184.188z" fill="#2a2929"/><path d="M62.148 14.368c0 .044-.023.068-.069.071l.007-.059.062-.013z" fill="#3b2022"/><path d="M63.654 22.961a.39.39 0 0 1-.006-.164c.072.017.101.058.073.115-.011.021-.044.033-.067.049z" fill="#6e6669"/><path d="M40.392 22.278c-.021.13.01.284-.161.343v-.685c.152.068.135.215.161.342z" fill="#342c2e"/><path d="M51.88 13.098l-.189.02v-.139l.179-.025c-.002.048.002.096.01.144z" fill="#2c1f21"/><path d="M41.196 18.704c.009.157-.003.305-.176.377l-.003-.349.18-.027z" fill="#b0b7b5"/><path d="M41.367 18.706l-.18.007c.03-.09.082-.157.18-.177l-.004-.007c.047.038.063.077.048.117s-.029.059-.045.059z" fill="#847b7e"/><path d="M62.673 17.664l.151.013c-.007.05-.022.098-.046.144-.08-.022-.127-.066-.105-.157z" fill="#e4e4e2"/><path d="M62.439 17.68c.016-.046.022-.124.05-.133.066-.022.1.026.087.098l-.074-.004-.063.04z" fill="#121211"/><path d="M60.397 13.655a.72.72 0 0 0 .01.164c-.108-.014-.225-.021-.19-.184l.18.02z" fill="#fefefe"/><path d="M49.479 68.718l.524-.205.175-.163.181-.021a1.9 1.9 0 0 1 .168-.155c.3-.021.463-.287.713-.397a1.81 1.81 0 0 1 .162-.163l.176-.027c.174-.043.245.023.215.2v-.003c-.096.021-.141.1-.191.173a1.51 1.51 0 0 0-.18.167l-.008.009c-.051.056-.106.107-.167.153l-.039.054-.067-.003c-.099.008-.167.079-.248.123l-.037.029c-.067.122-.229.087-.308.188l-.012.006c-.088.105-.251.073-.337.183l-.011.004c-.084.072-.196.094-.281.159a1.67 1.67 0 0 1-.145.121c-.038.029-.066.071-.073.117a.6.6 0 0 1 .244-.046l.094.007 2.207-.066c.408.007.825.088 1.217.204.586.173.695.616.287 1.072-.441.493-1.032.764-1.615 1.043-.156.075-.322.131-.483.196l-1.194.376c-.109.104-.226.105-.349.026l-3.354.685c-.057.012-.111.05-.167.055-.277.021-.702.206-.777-.116-.094-.396.362-.335.628-.386l4.044-.829c.918-.176 1.801-.535 2.582-1.087.141-.1.337-.178.273-.395-.056-.192-.26-.221-.424-.269-.11-.032-.233-.032-.35-.031-1.41.022-2.828-.039-4.193.428-.08.027-.175.012-.264.016-.192-.162-.401-.306-.552-.512.522-.394 1.114-.626 1.751-.754a2.21 2.21 0 0 0 .184-.164z" fill="#5f2c25"/><path d="M51.729 66.146c-.862.284-1.783.306-2.644.61l-3.003.993c-.312.103-.56.314-.827.495-.143.097-.319.203-.463.008-.113-.152.024-.25.108-.372l2.308-3.417c.178-.268.321-.56.458-.851.118-.251.144-.517-.071-.738-.205-.21-.428-.111-.65-.012-.078.035-.171.037-.257.055-.061-.047-.099-.107-.111-.183.011-.174.144-.248.268-.33.371-.27.779-.358 1.125-.022s.379.776.218 1.23c-.307.872-.911 1.57-1.365 2.355l-.413.673c-.053.058-.094.125-.123.198l-.084.163c.002.069-.024.128-.071.172.109.109.108-.087.183-.066.156-.029.33.026.466-.097l2.986-.976c.636-.182 1.302-.384 1.958-.026.043.029.058.059.045.09s-.026.047-.041.047z" fill="#612d27"/><path d="M46.843 62.403l-.17.348c-.062.058-.104.134-.168.191l-2.602 2c-.11.103-.233.111-.366.05-.08-.071-.085-.147-.016-.228l.004-.003c.073-.045.12-.115.18-.174l-.001.001.174-.179 1.222-1.129c.556-.341 1.062-.782 1.742-.878z" fill="#662f29"/><path d="M46.438 75.178l-1.255.342c-.159.039-.369.091-.424-.15-.04-.171.111-.285.246-.305.721-.102 1.389-.611 2.166-.29l-.733.402z" fill="#652e25"/><path d="M51.725 66.146l-.005-.137c.644.139.911.538.67 1.067-.129.282-.282.575-.602.711l-.215-.2.195-.285c.428-.572.429-.571-.043-1.156z" fill="#61322d"/><path d="M46.037 67.195c.02-.095.059-.174.166-.194l.578.009c-.131.144-.319.147-.488.2a.19.19 0 0 1-.256-.015z" fill="#ced8ca"/><path d="M49.67 69.064c.115-.217.321-.193.516-.194l-.161.177c-.113.111-.232.103-.355.017z" fill="#61322d"/><path d="M49.673 69.064l.355-.017.001.18.004.015c-.115.08-.237.082-.364.033-.047-.049-.062-.097-.044-.143s.034-.069.051-.07l-.003.002z" fill="#9edcca"/><path d="M50.546 68.677c.058-.136.173-.179.308-.188-.059.134-.167.188-.308.188zm-.347.188c.068-.143.192-.183.337-.183a.34.34 0 0 1-.337.183z" fill="#61322d"/><path d="M46.286 66.839c-.023-.106.035-.162.123-.198.012.099-.029.165-.123.198z" fill="#ced8ca"/><g fill="#61322d"><path d="M51.599 67.956c.03-.095.093-.153.191-.173-.021.105-.085.162-.191.173z"/><path d="M51.42 68.123c.028-.09.087-.146.179-.167-.021.098-.079.155-.179.167z"/><path d="M51.248 68.285l.167-.153c-.014.096-.058.159-.167.153z"/><path d="M50.892 68.459a.27.27 0 0 1 .248-.123l-.248.123z"/></g><path d="M43.037 65.853l-2.077 2.599c-.208.253-.38.518-.517.809-.219-.115-.162-.339-.206-.523.728-1.184 1.549-2.292 2.606-3.21.126.071.183.185.195.324z" fill="#652f24"/><path d="M43.97 78.37c.01.022.031.047.027.066-.017.073-.057.082-.097.022-.011-.016-.001-.053.011-.072.008-.013.038-.011.059-.016z" fill="#714b42"/><path d="M36.426 71.68c.122-.212.332-.179.527-.19-.122.212-.332.179-.527.19z" fill="#c98a28"/><path d="M43.039 65.853c-.139-.063-.187-.182-.195-.324.18-.189.257-.467.511-.592.058-.055.114-.057.169.005l.38.001c-.136.448-.561.622-.866.91z" fill="#622b24"/><g fill="#a5551c"><path d="M43.707 64.588l-.18.174c.027-.092.087-.15.18-.174z"/><path d="M43.523 64.942a1.08 1.08 0 0 1-.169-.005l.168-.172a.79.79 0 0 1 .001.177z"/></g><g fill="#8b631e"><path d="M38.402 59.047c.531.297.388.774.338 1.225.002-.439-.771-.673-.338-1.225z"/><path d="M38.598 58.68c.276.276.056.318-.168.359l.168-.359z"/><path d="M38.366 58.62c.014-.023.033-.067.041-.064.051.013.106.025.145.057.077.063.06.093-.036.064-.051-.015-.1-.038-.149-.057z"/></g><path d="M54.03 50.35l-.468-.502c.494-.045.41.281.466.499l.002.003z" fill="#ab8e85"/><path d="M55.087 47.343l.023.052-.054-.004.031-.047z" fill="#ad6235"/><path d="M49.142 31.628l.325-.001.003-.003.006-.519c.354.203.728.117 1.085.04.2-.042.337.042.497.097.127.166.251.128.372-.008.728.449.808.634.641 1.426-.036.171-.05.347-.073.521-.133.118-.126.232.01.342-.573.403-.6 1.086-.845 1.657-.069.16-.112.332-.167.498-.283-.006-.536-.11-.854-.037-1.02.232-1.405-.085-1.624-1.2-.624-.419.143-.67.123-1.015l.001.001c-.247-.003-.179-.171-.233-.334-.252-.761.087-1.179.732-1.466z" fill="#923b29"/><path d="M52.006 33.525c-.172-.021-.456.107-.435-.201.013-.189.266-.133.425-.142l.01.343z" fill="#55231c"/><path d="M51.428 31.235c-.013.184-.049.38-.285.347s-.098-.214-.087-.339l.372-.007z" fill="#271511"/><path d="M62.397 16.255a.19.19 0 0 0 .16-.006l.018.755-.065.01-.113-.758z" fill="#121211"/><path d="M61.643 14.956l-.049.047-.009-.061.058.014z" fill="#271c1d"/><path d="M41.365 18.706l-.003-.176.18-.009c.001.057-.004.115-.015.171a.73.73 0 0 1-.162.015z" fill="#36181c"/><path d="M47.541 69.636c.38-.04.585.108.552.512-1.363.6-1.725.668-2.83.478.753-.545 1.5-.799 2.278-.99z" fill="#5e2a25"/><path d="M50.097 72.079l.349-.026c-.103.188-.218.207-.349.026z" fill="#ae8152"/><path d="M46.506 62.943c.019-.096.072-.163.168-.191l.013.165-.181.026z" fill="#8c5a5e"/><path d="M49.618 69.216l.413.026c-.122.159-.3.186-.477.169-.183-.018-.147-.123-.056-.227l.12.032z" fill="#b4b6a6"/><path d="M49.62 69.216l-.12-.032.175-.122-.056.154z" fill="#61322d"/><path d="M46.036 67.195l.256.015c-.083.107-.179.199-.317.097-.044-.032-.006-.094.061-.112z" fill="#c98e82"/><path d="M50.705 34.824c-.292-.052-.369-.105-.352-.205.024-.141.132-.18.259-.137.088.03.147.113.113.201-.032.083-.12.12-.02.141z" fill="#371a16"/><path d="M51.58 32.349c.123.021.194.081.148.17-.029.057-.124.104-.194.11-.081.008-.18-.038-.118-.148.034-.062.117-.097.163-.132z" fill="#4e1f1b"/><path d="M48.643 33.428c.018-.131.011-.283.209-.276.02.001.055.034.056.055.016.196-.136.197-.266.221l.001.001z" fill="#602d1b"/><path d="M50.174 32.309c-.021.05-.029.122-.066.142s-.097-.023-.147-.038c.024-.049.038-.109.075-.145.054-.052.109-.03.138.041z" fill="#4c1a19"/><path d="M49.059 34.241c-.022.009-.046.03-.064.026-.071-.016-.08-.055-.021-.093.015-.01.051-.001.069.011.012.008.011.037.016.056z" fill="#4f221b"/><path d="M49.469 31.623l.078.076-.081-.074.003-.003z" fill="#9a4722"/></svg>