<svg width="45" height="54" viewBox="0 0 45 54" fill="none" xmlns="http://www.w3.org/2000/svg">
<g id="Group 193">
<path id="path936" d="M10.5366 51.4443C10.5049 51.0589 10.4781 50.6717 10.5738 50.2925C10.8111 49.3514 10.8684 48.3904 10.9073 47.4271C10.9117 47.3138 10.8882 47.1926 10.993 47.1059C11.3539 47.2612 11.1625 47.5584 11.1818 47.804C11.2118 46.8363 11.324 45.8748 11.4099 44.911C11.6196 42.5583 12.0677 40.2421 12.4691 37.9193C12.5656 37.3623 12.6665 36.8059 12.7601 36.2484C12.9859 34.6566 13.2193 33.0665 13.4151 31.4706C13.4812 30.9327 13.6326 30.4072 13.7748 29.883C13.8351 29.7463 13.8942 29.6085 13.9626 29.4751C13.9928 29.4241 14.0322 29.381 14.0789 29.3446C14.6976 28.9267 15.4501 28.8346 16.1102 28.5067C17.1058 28.0127 17.9994 27.3899 18.787 26.6098C18.8711 26.5264 18.9625 26.457 19.0896 26.4614C19.5179 26.7519 19.5914 27.2666 19.837 27.6708C20.5797 28.8931 21.5286 29.8232 22.9763 30.1441C23.2851 30.2124 23.5829 30.2622 23.8896 30.1624C25.7638 30.0006 27.016 28.8286 28.0805 27.4562C29.2401 25.9609 29.9281 24.2175 30.3912 22.3867C30.435 22.2125 30.3651 21.9241 30.7105 21.968C31.1783 22.5525 31.9065 22.558 32.536 22.7723C32.9191 22.9029 33.3308 22.9454 33.7227 23.0574C33.9835 23.1317 34.1971 23.2442 34.1731 23.5682C33.8816 24.412 33.4294 25.2033 33.337 26.1132C33.0703 27.6383 33.087 29.1619 33.1964 30.707C33.3925 33.4753 33.9637 36.1803 34.3829 38.9117C34.5867 40.2393 34.8699 41.555 35.0118 42.8921C35.041 43.1648 35.066 43.4354 34.9994 43.7057C34.8779 44.0734 34.5524 44.1059 34.2449 44.149C32.9155 44.3352 31.5688 44.353 30.2418 44.5754C28.9723 44.7885 27.7296 45.0996 26.4874 45.4347C24.7587 45.9014 23.03 46.3671 21.3333 46.9377C20.5057 47.2161 19.6482 47.4281 18.8892 47.885C18.1503 48.2604 17.3364 48.4489 16.619 48.9004C15.3864 49.6761 14.2048 50.5055 13.1716 51.5367C12.4957 51.6373 11.819 51.6719 11.1408 51.5674C11.0515 51.4995 10.9576 51.4583 10.848 51.5284C10.7309 51.5491 10.6202 51.5457 10.5366 51.4443Z" fill="#2A3259"/>
<path id="path938" d="M37.336 23.6137C37.6802 23.9246 37.9732 24.2731 38.256 24.6451C39.2211 25.9146 39.6217 27.4145 40.0347 28.9017C40.3154 29.9123 40.6343 30.9158 40.8136 31.9567C40.9268 32.6146 41.1082 33.267 41.3264 33.8988C41.5875 34.6536 41.7116 35.4374 41.9087 36.2051C42.4177 38.1892 42.8312 40.1935 43.2058 42.207C43.3289 42.8679 43.4284 43.5338 43.6266 44.1867C43.7625 44.6341 43.7821 45.1469 43.7806 45.6237C43.7783 46.3233 43.9207 47.0031 43.9826 47.6906C44.085 48.8311 43.8299 49.8839 43.4919 50.9445C43.3033 51.5365 42.8805 51.9661 42.5423 52.4557C42.4997 52.5174 42.4342 52.5788 42.3661 52.6043C41.6799 52.8618 41.0664 53.2843 40.325 53.4244C39.3108 53.6158 38.306 53.6445 37.2731 53.596C36.4408 53.557 35.6298 53.4177 34.813 53.3132C33.9815 53.2067 33.1544 53.2799 32.3263 53.2402C31.4368 53.1979 30.5463 53.2108 29.656 53.1641C29.0588 53.1326 28.4639 53.0478 27.8646 53.0565C27.6776 52.8847 27.6533 52.7152 27.87 52.5483C27.9696 52.4802 28.0369 52.3897 28.0627 52.2687C28.0932 52.2276 28.1303 52.1951 28.1742 52.1694C28.3762 52.0822 28.5524 51.9841 28.3818 51.7233C28.3576 51.6725 28.3408 51.6199 28.3274 51.5654C28.2374 51.2231 28.4448 50.8789 28.3176 50.5369C28.232 49.8659 28.3491 49.1765 28.1301 48.5187C28.0039 47.9511 27.8184 47.4073 27.474 46.9303C27.4219 46.8723 27.3636 46.8227 27.2878 46.7954C27.2336 46.7802 27.1825 46.7601 27.1309 46.7376C27.0772 46.7087 27.0375 46.668 27.0117 46.6125C27.0254 46.5483 27.0594 46.499 27.1139 46.4626C29.3691 46.0222 31.6174 45.5362 33.9222 45.4258C34.2733 45.409 34.6164 45.3301 34.9678 45.3082C35.5361 45.2728 35.6522 45.1467 35.59 44.5732C35.4832 43.5851 35.3295 42.6025 35.1891 41.6185C34.7242 38.3595 34.0009 35.1428 33.5977 31.8742C33.407 30.3289 33.3595 28.7722 33.2726 27.219C33.2659 27.1003 33.286 26.9863 33.3273 26.8753C33.5252 26.3852 33.5386 25.8512 33.6815 25.3491C33.8819 24.6443 34.055 23.9194 34.6407 23.4006C35.4775 23.2804 36.2796 23.5907 37.1064 23.6039C37.1823 23.6052 37.2586 23.6238 37.336 23.6137Z" fill="#2A3259"/>
<path id="path940" d="M30.7589 13.6455C30.5024 14.1396 30.304 14.6689 29.8892 15.0662C29.8007 15.1511 29.776 15.2643 29.752 15.3779C29.5747 15.6647 29.2628 15.7439 28.9814 15.8562C28.2485 16.1479 28.2454 16.1404 28.356 16.9002C28.3099 17.283 28.4616 17.6548 28.4223 18.0371C28.2531 18.2543 28.3519 18.4788 28.4092 18.6986C28.6238 19.5233 28.9352 20.3078 29.4003 21.0263C29.7692 21.2923 29.5074 21.6297 29.5048 21.938C29.3302 22.5424 29.1142 23.1319 28.8467 23.7023C28.7812 23.7908 28.7087 23.8739 28.6434 23.9631C28.613 24.0085 28.5779 24.0508 28.542 24.0921C27.5437 25.019 26.6985 26.0806 25.8856 27.1662C25.5954 27.5539 25.2327 27.6177 24.8083 27.5986C24.0323 27.5207 23.2323 27.587 22.5048 27.2147C21.5005 26.7684 21.0325 25.8394 20.4991 24.9734C20.3466 24.7257 20.3796 24.4894 20.6742 24.3465C22.7476 23.8058 24.3499 22.6067 25.5211 20.8297C25.8516 20.3282 25.7899 19.7217 25.904 19.1183C25.6421 19.2112 25.6163 19.4124 25.5025 19.5388C24.645 20.5392 23.8071 21.5621 22.5843 22.156C22.5033 22.1854 22.4197 22.2019 22.3346 22.2115C21.8622 22.2434 21.4226 22.4073 20.9763 22.5455C20.8109 22.5969 20.6255 22.6774 20.4782 22.5313C20.3223 22.3771 20.3308 22.1642 20.4144 21.9826C20.7132 21.3354 20.763 20.6285 20.9232 19.9485C20.9727 19.7382 20.9882 19.5238 20.9897 19.3095C20.9949 18.6387 20.7999 18.4323 20.0989 18.3547C19.7151 18.2982 19.3449 18.1963 18.9937 18.0301C18.8782 17.8906 18.9814 17.7918 19.0884 17.7735C20.0275 17.6114 20.441 16.8759 20.8783 16.1629C20.919 16.0963 20.9662 16.0354 21.0248 15.9841C21.3646 15.9312 21.4332 16.2302 21.5555 16.4242C22.0183 17.1595 22.187 17.249 23.0236 17.111C23.1462 17.0908 23.2514 17.1499 23.3652 17.1615C23.8479 17.2111 24.2369 16.966 24.3886 16.5039C24.4435 16.3357 24.4941 16.1619 24.5999 16.0269C25.008 15.5061 24.8602 14.9692 24.6737 14.4267C24.6424 14.3818 24.6177 14.3336 24.5952 14.284C24.1941 13.4985 23.5215 13.0935 22.7445 13.1538C22.4612 13.176 22.2123 13.248 22.0247 13.4732C21.8687 13.6602 21.6625 13.74 21.4298 13.8045C20.781 13.9843 20.2983 13.7949 19.964 13.2147C19.5966 12.845 19.544 12.4612 19.8884 12.0386C20.0515 11.8389 19.843 10.6997 19.6242 10.6525C19.4292 10.6104 19.2334 10.7515 19.0557 10.8578C18.5495 11.5696 18.275 12.3763 18.0658 13.2134C18.0047 13.4577 17.9046 13.6948 17.7286 13.888C17.6824 13.9244 17.6303 13.9479 17.5736 13.9616C17.2152 13.9678 17.1933 13.7018 17.158 13.4482C17.1495 13.3958 17.2361 13.3491 17.198 13.3145C17.1569 13.2774 17.1347 13.376 17.0813 13.3754C16.4155 13.4381 15.7695 13.5436 15.3317 14.1318C15.1282 13.8924 15.1457 13.6084 15.1671 13.3233C15.2631 13.0359 15.4904 12.8383 15.6841 12.6296C16.3182 11.9468 16.546 11.1437 16.4725 10.2351C16.9103 9.99565 17.3254 10.1035 17.7371 10.3127C17.8509 10.3705 17.9843 10.4951 18.0991 10.3511C18.2177 10.2026 18.1169 10.0565 18.0124 9.93865C17.6925 9.57696 17.2952 9.51994 16.8505 9.65306C16.6116 9.72452 16.4057 9.89325 16.1426 9.8966C15.5918 9.71472 15.5523 9.64919 15.8242 9.20366C15.9733 8.95935 16.0657 8.68126 16.2618 8.46507C17.4921 8.43127 18.5867 7.91789 19.7034 7.48552C20.7054 7.03973 21.7144 6.60659 22.574 5.90102C22.7244 5.77744 22.8908 5.67658 23.1028 5.71683C23.7534 6.10586 24.3107 6.62001 24.9002 7.08902C25.2193 7.34287 25.2154 7.78143 25.3088 8.15808C25.6253 9.43481 25.7775 10.7497 26.2022 12.0012C26.3825 12.1418 26.3699 12.344 26.3557 12.5352C26.3361 12.7963 26.3358 13.0266 26.591 13.2021C26.8907 13.4079 26.6694 13.5976 26.5357 13.7841C26.4457 13.9102 26.4209 14.0691 26.591 14.1158C26.7416 14.1574 26.7522 13.9806 26.7653 13.8741C26.7973 13.621 26.8938 13.3865 26.9568 13.1425C27.2651 11.9498 28.6398 11.2549 29.7863 11.7143C30.4715 11.9888 30.8419 12.724 30.7589 13.6455Z" fill="#F46C5F"/>
<path id="path942" d="M30.7583 13.6455C30.6128 13.5042 30.682 13.3122 30.643 13.1458C30.3807 12.0208 29.8758 11.6405 28.7244 11.7824C28.2464 11.8412 27.7717 11.9682 27.4234 12.3649C27.2635 12.5471 27.1541 12.7176 27.142 12.9771C27.1226 13.3987 26.8577 13.7756 26.8948 14.2211C26.9057 14.3521 26.7695 14.459 26.5971 14.4079C26.3851 14.3449 26.2845 14.1847 26.2401 13.9845C26.2019 13.8132 26.2613 13.7155 26.4333 13.6203C26.7145 13.4644 26.7076 13.4208 26.4181 13.2908C26.1769 13.1825 26.1173 13.0305 26.1692 12.7847C26.2249 12.5223 26.2927 12.2499 26.1067 12.003C25.9047 10.9308 25.8281 9.84293 25.8441 8.75865C25.8689 7.09082 24.3419 5.3879 23.0626 4.79068C22.7468 4.64338 22.4599 4.74142 22.1756 4.90214C21.4463 5.31464 20.7516 5.78133 20.0478 6.23382C19.0611 6.86871 17.9758 7.30546 16.9126 7.78582C16.7537 7.85779 16.5819 7.90732 16.4018 7.85238C16.0071 7.4618 15.874 6.88341 15.3931 6.53462C15.1375 6.34888 14.7152 6.42757 14.6045 6.03286C14.8599 5.50658 15.2515 5.07446 15.5858 4.60288C15.6537 4.50743 15.8479 4.43106 15.7659 4.30646C15.6367 4.10962 15.8002 4.09312 15.8815 3.99973C16.3012 3.51705 16.8971 3.3135 17.426 3.00418L17.4265 3.0047C17.3027 2.99644 17.1843 2.9531 17.1763 2.81973C17.1698 2.70854 17.2906 2.68687 17.3798 2.65901C17.5986 2.59039 17.8153 2.51428 18.0369 2.45701C18.2606 2.39922 18.4755 2.36878 18.5541 2.08346C18.6011 1.91422 18.8062 1.94337 18.9569 1.92867C19.0482 1.85076 19.1684 1.90442 19.2672 1.86159C19.1614 1.87604 19.0533 1.90958 18.9599 1.82341C18.8777 1.77517 18.7747 1.73674 18.768 1.62761C18.7603 1.49114 18.8846 1.48185 18.9713 1.47927C19.3577 1.46818 19.7445 1.46999 20.1309 1.46716C20.1846 1.46251 20.199 1.4362 20.1727 1.38925C20.1608 1.36783 20.1443 1.35828 20.1263 1.35828C20.0447 1.28502 19.9919 1.16945 20.1245 1.14262C20.4717 1.07244 20.8478 1.11372 21.12 0.807243C21.1541 0.768805 21.2683 0.802595 21.3455 0.802079C22.5469 0.791502 23.7478 0.750221 24.9497 0.779115C25.2858 0.787112 25.6228 0.812393 25.9187 0.939319C27.0558 1.4269 28.2454 1.818 29.2345 2.59838C29.4078 2.73511 29.552 2.7217 29.7022 2.61258C29.9475 2.4338 30.2321 2.37627 30.5182 2.32519C30.7039 2.29216 30.869 2.34893 30.9572 2.5308C31.0424 2.70571 30.9227 2.82179 30.82 2.94072C30.6797 3.10376 30.5207 3.24411 30.334 3.3522C30.2909 3.3976 30.2269 3.42804 30.2254 3.50337C30.2509 3.47474 30.2826 3.45514 30.3208 3.44508C30.6046 3.47371 30.9028 3.36897 31.167 3.5751C31.3837 3.74407 31.4043 3.8679 31.2 4.02888C30.8048 4.34 30.8032 4.34052 30.9565 4.79998C31.4631 6.31947 31.7683 7.88101 31.9812 9.46654C32.0593 10.0485 32.0828 10.628 32.1063 11.2107C32.1179 11.5056 32.0838 11.7899 31.9904 12.0698C31.9597 12.1624 31.9492 12.3043 31.8584 12.3126C31.4438 12.3502 31.4059 12.6967 31.2983 12.974C31.1874 13.2606 30.9529 13.434 30.7583 13.6455Z" fill="#F19C1D"/>
<path id="path944" d="M5.87432 35.2946C6.0534 35.0864 6.17161 34.847 6.27498 34.5926C6.96358 32.9005 7.83093 31.2923 8.60628 29.6407C8.66412 29.5174 8.71662 29.3907 8.78535 29.2736C8.99697 28.9135 8.93933 28.6073 8.69707 28.2639C8.20358 27.5642 7.85399 26.7782 7.49282 26.0055C7.24996 25.486 7.29309 24.9091 7.59955 24.4383C7.89119 23.9902 8.13676 23.5568 8.13988 23.0122C8.1403 22.9379 8.16599 22.8585 8.19886 22.7906C8.52657 22.1134 8.78826 21.4086 9.0796 20.7165C9.18521 20.4657 9.47624 20.3574 9.68543 20.1871C10.0141 20.5013 9.78708 20.9814 10.0262 21.3222C10.0316 21.535 10.0626 21.6225 10.3123 21.7824C10.9596 22.1975 11.8305 22.1642 12.3359 22.8613C12.5343 23.1353 12.96 22.9967 13.2798 23.0581C13.527 23.1053 13.7865 23.0736 14.028 23.1593C14.2787 23.2483 14.4872 23.3886 14.5001 23.6861C14.5138 23.991 14.3115 24.1373 14.0571 24.2257C13.5401 24.4056 13.0092 24.4897 12.4613 24.4422C12.4087 24.4254 12.3553 24.4063 12.3 24.4032C12.2603 24.4009 12.217 24.3439 12.1834 24.4019C12.1785 24.411 12.2113 24.4579 12.2049 24.4995C12.162 24.5369 12.113 24.5632 12.0588 24.5805C11.5385 24.3818 10.9962 24.4701 10.4622 24.4561C10.1944 24.3653 9.90549 24.4639 9.63951 24.354C9.84873 24.4337 10.0685 24.3994 10.2839 24.4247C10.9028 24.517 11.5313 24.4466 12.1489 24.5441C12.2234 24.4695 12.3119 24.4538 12.411 24.4806C12.6001 24.6081 12.8039 24.7064 13.0087 24.8072C13.5554 25.0766 13.5649 25.3601 13.0567 25.7597C12.8475 25.9361 12.6068 25.9439 12.347 25.9178C11.5798 25.8404 10.8066 25.8784 10.0394 25.8092C9.70504 25.7594 9.37124 25.6929 9.02952 25.6985C9.25345 25.697 9.4701 25.7256 9.66454 25.849C9.79611 25.9558 9.76386 26.0749 9.6875 26.206C9.8219 26.1018 9.84203 25.9044 10.0151 25.8453C10.0747 25.8293 10.1343 25.8213 10.1957 25.8203C10.8827 25.9214 11.5772 25.8464 12.2647 25.9248C12.4584 25.947 12.6439 25.9751 12.8163 26.0675C13.0714 26.7292 13.3939 27.3679 13.5365 28.0717C13.0108 29.0045 12.9164 30.0723 12.6174 31.0746C11.9257 33.3909 11.0695 35.6496 10.2961 37.9368C10.2086 38.195 10.092 38.4437 9.89156 38.6406C8.43455 39.0007 6.68091 38.4863 6.12765 37.0888C5.97258 36.6969 5.70552 36.3445 5.71065 35.8972C5.70885 35.8131 5.71904 35.7295 5.73797 35.6477C5.76145 35.5224 5.8592 35.4246 5.87432 35.2946Z" fill="#F46C5F"/>
<path id="path946" d="M10.9885 45.8531C10.8103 45.6147 10.6039 45.5835 10.4174 45.8222C9.64264 46.8128 8.48179 47.3024 7.5297 48.0624C7.01253 48.4752 6.35499 48.5874 5.74351 48.7337C4.65324 48.9943 3.54212 49.0871 2.41659 48.8364C1.44754 48.621 0.865285 48.0034 0.483967 47.1531C0.301654 46.7462 0.220931 46.309 0.226581 45.8487C0.233546 45.291 0.101926 44.7242 0.161984 44.176C0.293811 42.9736 0.750898 41.8606 1.27302 40.7766C1.69304 40.7632 1.8318 41.1595 2.11235 41.3498C3.53283 42.5621 5.10338 43.335 7.04023 43.0399C7.17629 43.0192 7.30961 43.0107 7.43809 43.0708C7.67158 43.3463 7.45674 43.5873 7.35597 43.8177C7.15392 44.2797 6.90673 44.7221 6.74931 45.2629C6.97646 45.2634 7.08548 45.0296 7.27747 45.056C7.62824 45.1563 7.80006 44.9613 7.97079 44.6873C8.50821 43.8251 8.8337 42.8644 9.2647 41.9533C10.1689 40.0427 11.0548 38.1228 11.9154 36.1916C11.989 36.027 12.0333 35.7486 12.2573 35.7956C12.4709 35.8404 12.4226 36.1116 12.4417 36.3007C12.1695 38.7301 11.6724 41.1218 11.2413 43.5246C11.1216 44.1917 10.9333 44.8509 11.0943 45.5389C11.1211 45.6542 11.0896 45.7708 10.9885 45.8531Z" fill="#2A3259"/>
<path id="path948" d="M13.0133 25.6121C13.1599 25.5636 13.3195 25.5275 13.3224 25.326C13.3252 25.1137 13.1663 25.0268 13.0087 24.9556C12.7747 24.8501 12.4556 24.8805 12.3766 24.5402C12.3526 24.499 12.3397 24.4543 12.3384 24.4066C12.3524 24.3586 12.3828 24.3277 12.4321 24.316C12.9798 24.3295 13.519 24.2902 14.0378 24.0906C14.2307 24.0165 14.4121 23.9247 14.4025 23.6966C14.3932 23.4743 14.2072 23.3538 14.0158 23.3182C13.6562 23.2516 13.2904 23.2054 12.9251 23.1895C12.7089 23.1799 12.5079 23.1162 12.2985 23.0888C12.1532 23.07 12.0462 23.0166 12.0358 22.8404C12.0209 22.5788 11.8426 22.4803 11.6076 22.4576C11.1296 22.4109 10.7116 22.2287 10.3525 21.9099C10.3236 21.8846 10.2932 21.8591 10.2597 21.841C9.95834 21.6798 9.94724 21.6648 9.93641 21.3872C9.87785 21.1623 10.0486 21.1813 10.1799 21.1576C10.2354 21.1625 10.2893 21.1752 10.3414 21.1948C10.5432 21.282 10.7075 21.4246 10.8793 21.557C11.8295 22.1877 12.7399 21.8291 13.643 21.437C13.8038 21.3671 13.9508 21.2237 13.8923 21.0227C13.821 20.7774 13.5964 20.8135 13.4042 20.822C12.8959 20.8439 12.4522 21.1504 11.9399 21.1605C11.8955 21.1215 11.8622 21.0753 11.8398 21.0206C11.8024 20.9063 11.797 20.7897 11.808 20.6713C11.8297 20.4564 11.944 20.29 12.0872 20.1391C12.2969 19.9041 12.5701 19.7509 12.8206 19.5674C12.9679 19.4596 13.0801 19.3038 13.0053 19.1155C12.922 18.9052 12.7166 18.9375 12.5495 18.9743C12.1697 19.0584 11.7913 19.1415 11.3997 19.1449C11.185 19.1142 10.9601 19.0946 10.9959 18.7845C11.3612 18.5845 11.7518 18.5123 12.1646 18.5541C12.2095 18.5211 12.2505 18.4839 12.2902 18.445L12.2907 18.4429C12.4496 18.3503 12.2956 18.1733 12.3926 18.0637C12.3864 17.8823 12.4788 17.7355 12.5477 17.5758C12.8149 16.9539 12.8087 16.9513 13.4761 17.1386C13.3722 17.274 13.3477 17.4597 13.1766 17.5565C13.0757 17.6135 12.8658 17.6842 13.0118 17.8428C13.1095 17.9491 13.2169 18.162 13.4382 18.0559C13.8556 17.8565 13.8223 18.1607 13.7568 18.3769C13.6407 18.7584 13.8218 19.1054 13.8252 19.4715C13.828 19.763 14.1544 19.7676 14.3489 19.8654C14.6677 20.0253 14.6703 20.2049 14.4583 20.4433C14.473 20.4879 14.4951 20.5263 14.5315 20.5578C14.9603 21.1664 14.8313 21.647 14.1685 21.8756C13.7065 22.035 14.0138 22.3061 14.1575 22.3539C14.7124 22.5381 14.6953 22.9851 14.734 23.4183C14.7557 23.6616 14.8651 23.8478 15.0134 24.0416C15.2807 24.3901 15.1692 24.6047 14.7286 24.6643C14.6515 24.6749 14.5731 24.6708 14.4951 24.6741C13.8837 24.6999 13.6495 24.9971 13.8788 25.5696C14.0158 25.9116 14.2207 26.2633 14.676 26.3272C14.9298 26.3628 14.9267 26.3863 15.1427 26.69C15.2007 26.7712 15.5611 26.7398 15.5647 26.6394C15.5722 26.4366 15.7115 26.3948 15.8266 26.3987C16.1929 26.4116 16.3892 26.2424 16.4669 25.9003C16.4731 25.8727 16.4937 25.8539 16.4994 25.8536C17.0878 25.8255 17.3236 25.2404 17.7996 25.041C17.8406 25.0237 17.8961 25.0368 17.8992 24.9788C17.9389 24.1876 18.5709 23.5818 18.5849 22.7788C18.5875 22.6327 18.6535 22.4411 18.768 22.358C19.2479 22.0107 19.1486 21.5116 19.1692 21.0343C19.1878 20.6107 19.1264 20.1907 19.2177 19.7594C19.2716 19.5063 19.2071 19.1699 18.8792 19.0167C18.63 18.8998 18.7257 18.7527 18.8635 18.5987C18.2872 19.0734 17.8287 18.6036 17.3546 18.3993C17.2104 18.3371 17.158 18.2463 16.9746 18.3549C16.4424 18.6697 16.3895 18.6379 16.1374 18.0843C16.0043 17.8555 16.0361 18.1537 15.9685 18.1387C15.1027 18.3193 14.3943 17.8008 13.6141 17.6073C13.368 17.5462 13.3959 17.3349 13.4795 17.1414C14.1376 17.1295 14.7735 17.299 15.4203 17.38C16.1434 17.2482 16.8164 17.5472 17.5158 17.6202C17.7552 17.7126 18.0145 17.6919 18.2606 17.7474C18.4907 17.8462 18.7758 17.766 18.9757 17.9644C19.3562 18.0479 19.737 18.1315 20.1175 18.2154C20.328 18.4156 20.3108 18.6815 20.2899 18.9279C20.1874 20.1265 20.1384 21.3351 19.7159 22.4818C19.4922 23.149 19.2466 23.8078 18.8942 24.4213C18.8687 24.4695 18.8398 24.516 18.8106 24.5619C18.7714 24.6331 18.7332 24.7051 18.6971 24.7789C18.6757 24.8307 18.6504 24.8805 18.6246 24.9303C18.0653 25.9444 17.3066 26.7576 16.2362 27.2364C15.6873 27.4822 15.1112 27.5243 14.5284 27.3401C13.9315 27.1327 13.4738 26.7444 13.1044 26.2413C13.002 26.0422 12.7995 25.8567 13.0133 25.6121Z" fill="#050606"/>
<path id="path950" d="M13.5791 6.38973C13.89 6.27983 14.2011 6.16994 14.5119 6.06004C14.6613 6.24785 14.5543 6.43643 14.4949 6.61108C14.2725 7.26789 14.1921 7.93684 14.3824 8.60629C14.498 9.01235 14.7219 9.37507 15.1215 9.58765C15.2474 9.77442 15.2761 9.98905 15.2603 10.2006C15.1806 11.2593 15.1948 12.3227 15.1025 13.3791C15.1017 13.4375 15.0965 13.4968 15.0878 13.5546C14.6585 14.0342 14.9381 14.5527 15.0098 15.0599C15.055 15.3457 15.0878 15.6341 15.2232 15.897C15.2689 15.9682 15.3039 16.0435 15.3277 16.1246C15.3421 16.3165 15.4678 16.5151 15.2954 16.6962C14.7637 16.8312 14.7944 16.8116 14.4954 16.3444C14.215 15.906 13.8634 15.5126 13.4955 15.1391C13.3348 14.9758 13.1217 14.846 13.1034 14.5816L13.1279 14.561L13.1073 14.5852C12.3258 13.7826 12.4112 12.7373 12.9403 12.1073C13.3503 11.619 13.3209 11.4753 12.8862 11.0184C12.7383 10.8631 12.5815 10.716 12.4337 10.5613C11.797 9.89515 11.6234 9.12251 11.9273 8.25389C12.0947 7.77508 12.3643 7.3489 12.6984 6.9689C12.8369 6.81127 12.9736 6.63198 13.2138 6.61341C13.2628 6.58426 13.3041 6.54582 13.3443 6.50609H13.3449C13.4207 6.46275 13.5257 6.47822 13.5791 6.38973Z" fill="#B7BBCF"/>
<path id="path952" d="M5.86651 35.5416C5.85957 35.6154 5.8526 35.6894 5.84587 35.7635C5.75676 36.2191 5.62427 36.655 5.44074 37.0877C4.93962 38.2692 6.04116 39.8305 7.41913 39.9337C7.94354 39.9732 8.46948 39.904 8.9945 39.9476C9.13205 40.0807 9.07421 40.2257 9.0214 40.371C8.75447 40.7094 8.74338 41.2226 8.29646 41.4403C7.38819 41.5076 6.48878 41.5768 5.58585 41.3121C4.61763 41.0286 3.7385 40.6088 2.97756 39.9463C2.93373 39.9066 2.89452 39.8625 2.85804 39.8163C2.78668 39.7258 2.73016 39.6259 2.67787 39.5238C2.38793 39.2266 2.42079 38.891 2.56087 38.5424C2.99823 37.6116 3.58079 36.7794 4.31964 36.0676C4.69866 35.7023 5.20092 35.5385 5.70377 35.4018C5.84989 35.3414 5.88023 35.416 5.86651 35.5416Z" fill="#2A3259"/>
<path id="path954" d="M10.5369 51.4444C10.6564 51.4426 10.7758 51.4408 10.8952 51.4387C10.9314 51.4083 10.9659 51.4098 10.9992 51.4434C11.7383 51.4413 12.4772 51.4392 13.2163 51.4372C13.3914 51.2992 13.5968 51.2189 13.8135 51.2295C16.206 51.3466 18.6005 51.0582 20.9917 51.2677C21.4012 51.3035 21.8005 51.0977 22.2107 51.2341C22.3348 51.2772 22.4434 51.3415 22.513 51.4578C22.559 51.6611 22.4486 51.6977 22.2716 51.7475C21.5928 51.9384 20.9027 51.8107 20.2199 51.8556C20.0723 51.8652 19.9131 51.7909 19.7844 51.9219C14.7151 52.1144 9.64379 52.1714 4.57151 52.176C4.48514 52.1453 4.51076 51.9854 4.48698 52.006C4.32411 52.1476 4.18555 52.0896 4.098 51.9487C3.96769 51.7393 4.05285 51.585 4.28552 51.5115C4.76219 51.552 5.24156 51.4609 5.7165 51.5468C6.43309 51.4867 7.14939 51.4705 7.86951 51.4852C8.75802 51.5027 9.64766 51.4606 10.5369 51.4444Z" fill="#151415"/>
<path id="path956" d="M27.3795 52.9575C26.7188 52.8848 26.0584 52.8123 25.3977 52.7395C25.2537 52.561 25.3053 52.375 25.3827 52.1926C26.0744 50.5609 26.3089 48.8926 25.7947 47.162C25.7725 47.0877 25.7862 47.0088 25.8048 46.9324C25.8602 46.7988 25.9745 46.7328 26.0978 46.6768C26.4064 46.6115 26.7108 46.4116 27.0315 46.6401L27.0707 46.6763C27.1354 46.7147 27.2015 46.7506 27.2688 46.7856C27.3116 46.8158 27.3501 46.8509 27.3859 46.8893C27.4416 46.9489 27.4909 47.0134 27.5348 47.0826C27.9011 47.5591 27.9617 48.1434 28.1085 48.6983C28.3152 49.6915 28.1756 50.668 27.9695 51.6413C27.761 52.0745 27.7499 52.5969 27.3795 52.9575Z" fill="#2A3259"/>
<path id="path958" d="M24.6829 52.6448C23.8873 52.5107 23.1178 52.3074 22.4602 51.8074C22.615 51.6251 22.832 51.6532 23.0319 51.6527C23.2594 51.6519 23.4323 51.5918 23.504 51.3557C24.0953 50.3308 24.1546 49.1794 24.2913 48.0477C24.3349 47.6878 24.1732 47.5093 23.794 47.5121C23.5089 47.5139 23.2094 47.5668 22.9457 47.3932C22.7997 47.1272 22.9764 47.0563 23.1813 47.0261C23.4594 46.9856 23.7395 46.9489 24.022 46.9801C24.3011 47.0653 24.5798 46.9967 24.8586 46.9724C24.9716 46.9616 25.0823 46.9371 25.1935 46.9108C25.2533 46.8986 25.3132 46.8968 25.3738 46.9028C25.4703 46.919 25.5523 46.9608 25.6171 47.0351C26.1119 47.8286 26.0675 48.7125 26.0012 49.5837C25.9316 50.5 25.5833 51.3568 25.3204 52.2292C25.2301 52.5295 25.0653 52.7674 24.6829 52.6448Z" fill="#2A3259"/>
<path id="path960" d="M1.49982 40.319C1.67646 40.0087 1.75527 39.6444 2.01769 39.3815C2.33552 39.2791 2.46753 39.541 2.63642 39.7094C3.99698 41.0656 5.61004 41.7294 7.54609 41.5094C7.76135 41.4848 7.97176 41.4467 8.16986 41.5697C8.28223 42.1153 7.88066 42.5186 7.77293 43.0036C7.72807 43.0482 7.67407 43.0655 7.61159 43.0562C7.49248 42.984 7.36801 42.9445 7.22411 42.9729C5.17137 43.381 3.56192 42.4763 2.06717 41.2305C1.92459 40.8979 1.49355 40.7442 1.49982 40.319Z" fill="#2A325B"/>
<path id="path962" d="M37.3355 23.6137C37.3099 23.7481 37.2516 23.793 37.0971 23.7727C36.2827 23.6646 35.4659 23.5743 34.6502 23.4778C34.6386 23.1481 34.9848 23.1633 35.1266 22.9711C34.6432 22.9605 34.4943 23.5258 34.0604 23.5926C34.0558 23.4365 34.0602 23.2859 33.8491 23.242C33.5305 23.1754 33.2192 23.0702 32.8985 23.0152C32.1999 22.8958 31.5459 22.6337 30.8757 22.4219C30.5994 22.3347 30.6915 22.127 30.6644 21.9521C30.5401 21.3944 30.6314 21.3028 31.2691 21.3443C31.9953 21.5597 32.7465 21.6549 33.4918 21.7511C34.4956 21.8812 35.3934 22.2377 36.2254 22.7965C36.6077 23.0532 37.0623 23.2095 37.3355 23.6137Z" fill="#222842"/>
<path id="path964" d="M10.9885 45.8532C10.6534 44.698 11.1051 43.608 11.2764 42.4969C11.441 41.4302 11.5896 40.3567 11.8396 39.3091C12.0823 38.2921 12.0916 37.2509 12.289 36.2329C12.4221 35.7719 12.1809 35.2993 12.3431 34.8331C12.4239 34.6012 12.4479 34.3489 12.5475 34.1201C12.6439 33.9452 12.7606 33.7574 12.9891 33.8415C13.2396 33.9336 13.1455 34.1812 13.1034 34.3443C12.9429 34.966 12.9298 35.6019 12.8746 36.2342C12.8947 36.7239 12.7794 37.1962 12.685 37.6699C12.4812 38.694 12.2962 39.7198 12.1595 40.7561C12.0256 41.7715 11.8112 42.7758 11.6703 43.7904C11.5697 44.5158 11.5481 45.2519 11.4619 45.9799C11.3873 46.6104 11.4129 47.2538 11.2289 47.8709C11.2124 47.9263 11.2008 47.9857 11.1007 47.989C11.0948 47.696 11.1877 47.3794 10.9931 47.106C10.9387 46.6888 10.9385 46.2711 10.9885 45.8532Z" fill="#0D1220"/>
<path id="path966" d="M14.9819 9.54639C14.8566 9.4677 14.5552 9.63719 14.6197 9.28273C14.6311 9.22055 14.571 9.0859 14.5387 9.08409C14.005 9.05571 14.1812 8.7322 14.2627 8.44533C14.2676 8.4283 14.2655 8.40431 14.2573 8.38857C13.8628 7.6216 14.3133 6.94003 14.4745 6.2293C14.4874 6.1728 14.4993 6.1163 14.5114 6.06006C14.5395 6.04071 14.5705 6.03143 14.6048 6.03298C14.9079 6.18544 15.2487 6.23033 15.5319 6.45941C15.9752 6.81774 16.252 7.25657 16.3936 7.796C16.4217 7.84889 16.4194 7.89971 16.383 7.94795C16.0587 8.18142 15.6736 8.18606 15.3016 8.20128C15.2513 8.68525 15.4811 9.20405 14.9819 9.54639Z" fill="#B4ACB0"/>
<path id="path968" d="M31.2698 21.3444C30.7559 21.4303 30.7559 21.4303 30.6651 21.9522C30.4546 22.134 30.5769 22.3941 30.5116 22.6134C29.999 24.3359 29.3574 26.0011 28.2729 27.4533C27.501 28.487 26.5927 29.3943 25.3998 29.9369C24.9321 30.1497 24.4223 30.3202 23.881 30.2658C23.6907 30.3465 23.5158 30.3881 23.4724 30.102C23.5666 29.86 23.798 29.8352 23.9997 29.8048C25.674 29.5545 26.8315 28.5311 27.8106 27.2539C28.9147 25.8136 29.5834 24.1664 30.0416 22.4248C30.0604 22.3734 30.0831 22.3234 30.1061 22.2736C30.1499 22.1732 30.1685 22.0664 30.1822 21.9583C30.2387 21.714 30.2361 21.4478 30.4355 21.2554C30.7154 21.2665 31.0038 21.2025 31.2698 21.3444Z" fill="#404886"/>
<path id="path970" d="M4.21316 51.5679C4.16961 51.6858 4.05948 51.8003 4.18968 51.9278C4.2995 52.0356 4.38517 51.9843 4.47183 51.8875C4.54035 51.8109 4.65806 51.7694 4.71982 51.8488C4.84721 52.0121 4.56493 51.9469 4.57724 52.0632C4.58116 52.1001 4.57402 52.1383 4.5718 52.176C3.96201 52.2884 3.34599 52.241 2.7321 52.2459C2.06236 52.2513 1.39252 52.2441 0.72268 52.249C0.607389 52.2497 0.493311 52.2835 0.383283 52.2211C0.262136 52.1522 0.145555 52.0774 0.16106 51.9159C0.176693 51.7542 0.231617 51.6048 0.416226 51.5728C0.548234 51.5501 0.684782 51.5465 0.819318 51.5465C1.47536 51.5467 2.13026 51.5725 2.7862 51.4903C3.14698 51.4446 3.51027 51.5958 3.8791 51.5488C3.99356 51.5003 4.10643 51.481 4.21316 51.5679Z" fill="#181919"/>
<path id="path972" d="M8.18857 41.6088C7.93794 41.6223 7.69054 41.6411 7.44063 41.6865C6.78349 41.8059 6.12928 41.7298 5.49318 41.5428C4.56074 41.2686 3.68774 40.87 2.92629 40.2498C2.5999 39.9841 2.44199 39.5432 2.01733 39.3817C2.0664 39.2298 2.19338 39.1413 2.29799 39.0345C2.469 39.1939 2.6921 39.2989 2.80396 39.52C2.84457 39.5951 2.8852 39.6704 2.92591 39.7455L2.92379 39.7434C3.94503 40.5903 5.1033 41.1298 6.42069 41.3287C6.82783 41.3903 7.22497 41.4025 7.62958 41.3184C7.86519 41.2693 8.11964 41.1527 8.33378 41.3849C8.36118 41.5087 8.30063 41.5756 8.18857 41.6088Z" fill="#5D67BA"/>
<path id="path974" d="M24.6831 52.6447C24.9026 52.6475 25.0507 52.5482 25.1209 52.3382C25.5502 51.0579 25.9797 49.7767 25.8603 48.394C25.8185 47.91 25.6897 47.4469 25.504 46.9988C25.473 46.9392 25.4828 46.8874 25.5337 46.8433C25.6528 46.7896 25.7617 46.7857 25.8448 46.9075C26.5604 48.6919 26.249 50.4268 25.5868 52.1427C25.5112 52.3385 25.3626 52.5092 25.3972 52.7394C25.1552 52.7383 24.9026 52.8155 24.6831 52.6447Z" fill="#5E67BA"/>
<path id="path976" d="M28.2073 16.9162C28.1686 16.6706 28.1224 16.426 28.0945 16.1794C28.0785 16.0383 28.1139 15.8863 28.288 15.8809C28.83 15.8639 29.2536 15.5154 29.7515 15.3781C29.8612 15.6578 29.8511 15.9441 29.8018 16.2333C29.5101 17.0036 28.9456 17.2454 28.2073 16.9162Z" fill="#C18524"/>
<path id="path978" d="M15.2953 16.6963C15.2657 16.5002 15.2105 16.3067 15.2422 16.1052C15.3431 16.0498 15.4499 16.0689 15.5562 16.0774C15.6139 16.0818 15.6857 16.0738 15.7254 16.1071C16.1382 16.4553 16.4988 16.3305 16.8455 15.9997C16.8873 15.96 16.9529 15.9737 17.0019 16.0142C17.0349 16.0547 17.0604 16.1001 17.0795 16.1489C17.1131 16.2443 17.143 16.3416 17.1966 16.429C17.3605 16.7203 17.5795 16.9715 17.7802 17.2362C17.8057 17.2842 17.823 17.3348 17.832 17.3884C17.8277 17.415 17.8228 17.4416 17.8181 17.4682C17.2947 17.8087 16.8244 17.4429 16.3412 17.3397C16.0378 17.2749 15.7514 17.1532 15.4403 17.2791C15.2866 17.1108 15.3704 16.8838 15.2953 16.6963Z" fill="#F46C60"/>
<path id="path980" d="M28.2075 16.9161C28.6084 16.9061 29.0126 16.9907 29.381 16.7025C29.5577 16.5642 29.6057 16.3359 29.8023 16.233C29.8954 16.5204 29.8134 16.7918 29.7257 17.0619C29.68 17.203 28.8934 17.9896 28.7567 18.0388C28.6447 18.0794 28.5336 18.0884 28.4221 18.0376C28.1688 17.6983 28.2015 17.3046 28.2075 16.9161Z" fill="#EE9F23"/>
<path id="path982" d="M10.2994 21.2502C10.1629 21.2554 10.0179 21.2378 9.9364 21.3875C9.63534 21.033 9.69235 20.6035 9.68513 20.1873C9.89306 19.5058 10.32 19.029 10.9959 18.7847C11.0785 19.0004 11.2601 19.029 11.4569 19.029C11.5103 19.1252 11.4474 19.1748 11.38 19.223C11.2111 19.2934 11.0364 19.3533 10.8927 19.4735C10.2191 19.9074 10.2189 20.5653 10.2994 21.2502Z" fill="#0B0A0A"/>
<path id="path984" d="M30.435 21.2552C30.468 21.5385 30.3107 21.7926 30.3094 22.0707C30.2421 22.1339 30.266 22.2412 30.1972 22.3039H30.1969C29.812 22.4442 29.5726 22.243 29.3709 21.9528C29.2973 21.6414 29.6015 21.3416 29.3998 21.0264C29.7723 20.9789 30.1095 21.0911 30.435 21.2552Z" fill="#272A46"/>
<path id="path986" d="M15.4405 17.279C15.4864 16.9991 15.6987 17.0066 15.8884 17.0556C16.2573 17.1508 16.629 17.2571 16.9822 17.3835C17.2778 17.489 17.5167 17.489 17.7873 17.399C18.0337 17.3453 18.1436 17.4658 18.1671 17.6964C17.9744 17.869 17.7608 17.8004 17.5484 17.7498C16.8333 17.6618 16.1174 17.578 15.4209 17.3801C15.4299 17.3468 15.4361 17.3133 15.4405 17.279Z" fill="#D25C4F"/>
<path id="path988" d="M23.5298 51.4983C23.6175 51.628 23.6691 51.771 23.449 51.7882C23.1209 51.814 22.7901 51.8027 22.4604 51.8073C21.5746 51.9915 20.6763 51.8858 19.7842 51.9219C19.8327 51.8654 19.8956 51.7526 19.9274 51.7609C20.2679 51.8489 20.6113 51.7299 20.949 51.7839C21.4146 51.8582 21.8609 51.7348 22.3126 51.6644C22.4254 51.6469 22.4563 51.5519 22.4723 51.4534C22.8356 51.2194 23.1908 51.1686 23.5298 51.4983Z" fill="#25191C"/>
<path id="path990" d="M27.3789 52.9576C27.5061 52.5164 27.6119 52.0676 27.8469 51.6654C27.9895 51.7167 28.0878 51.8163 28.1577 51.9478C28.1964 52.0673 28.1815 52.1759 28.0909 52.2685C28.0122 52.3722 28.0868 52.5286 27.9699 52.6191C27.7102 52.7107 27.8495 52.8988 27.8642 53.0566C27.7024 53.0236 27.5407 52.9906 27.3789 52.9576Z" fill="#5761B7"/>
<path id="path992" d="M1.50026 40.319C1.6487 40.6332 2.0397 40.7664 2.11134 41.1378C2.17382 41.2681 2.09944 41.3303 1.99254 41.3762C1.69524 41.2457 1.5588 40.9222 1.27353 40.7769C1.26163 40.5809 1.29721 40.4085 1.50026 40.319Z" fill="#5861B6"/>
<path id="path994" d="M4.21254 51.5679C4.10089 51.5618 3.98941 51.5556 3.87817 51.5491C3.92755 51.4838 3.99558 51.4451 4.07457 51.4493C4.62218 51.4789 5.17833 51.368 5.71666 51.5468C5.21592 51.6239 4.71369 51.5649 4.21254 51.5679Z" fill="#376E6E"/>
<path id="path996" d="M2.80435 39.52C2.61471 39.3802 2.38413 39.2827 2.29858 39.0342C2.37386 38.864 2.41166 38.6733 2.56108 38.5423C2.46516 38.9122 2.6652 39.2086 2.80435 39.52Z" fill="#2A325B"/>
<path id="path998" d="M9.41106 48.8167C9.38488 48.7398 9.37115 48.7207 9.3742 48.7049C9.39889 48.5796 9.40402 48.4397 9.55661 48.3928C9.56925 48.3889 9.60795 48.4441 9.62266 48.4771C9.70676 48.6683 9.49805 48.6763 9.41106 48.8167Z" fill="#D5D3D6"/>
<path id="path1000" d="M30.3214 3.44514C30.2654 3.56252 30.1669 3.6074 29.9963 3.6123C30.0541 3.42579 30.2045 3.40024 30.3346 3.352C30.3294 3.38295 30.325 3.41418 30.3214 3.44514Z" fill="#EFAC43"/>
<path id="path1002" d="M12.393 18.0638C12.4199 18.1544 12.45 18.2439 12.4725 18.3355C12.5282 18.5635 12.3884 18.4691 12.2911 18.4431C12.2718 18.3025 12.2695 18.1662 12.393 18.0638Z" fill="#171415"/>
<path id="path1004" d="M5.86697 35.5415C5.81277 35.4951 5.75855 35.4484 5.70435 35.4017C5.76087 35.3661 5.8176 35.3305 5.87453 35.2946C5.98508 35.3805 5.95747 35.462 5.86697 35.5415Z" fill="#703C55"/>
<path id="path1006" d="M20.1262 1.35843C20.1943 1.36075 20.3001 1.32825 20.2864 1.44047C20.2771 1.51735 20.2021 1.56559 20.1309 1.4673C20.1316 1.43093 20.1301 1.39481 20.1262 1.35843Z" fill="#EAC27B"/>
<path id="path1008" d="M13.579 6.38966C13.5816 6.59063 13.4717 6.56535 13.3447 6.50602C13.395 6.41108 13.4812 6.38889 13.579 6.38966Z" fill="#D4C7D6"/>
<path id="path1010" d="M18.9601 1.82357C19.0486 1.81402 19.2073 1.79029 19.2029 1.85788C19.1936 2.00106 19.0491 1.92547 18.957 1.92882C18.9601 1.89374 18.9612 1.85865 18.9601 1.82357Z" fill="#F3DEB2"/>
<path id="path1012" d="M9.00942 48.4352C9.0225 48.4412 9.03561 48.4471 9.04871 48.4533C9.03048 48.4672 9.01203 48.4814 8.99369 48.4956C8.98675 48.4835 8.97191 48.4685 8.97504 48.46C8.97919 48.4492 8.99732 48.4435 9.00942 48.4352Z" fill="#E0E1E0"/>
<path id="path1014" d="M30.9351 21.0725L30.9652 21.0633L30.9614 21.0901L30.9351 21.0725Z" fill="#B8ACB0"/>
<path id="path1016" d="M12.2904 18.445C12.284 18.5224 12.243 18.5598 12.1648 18.5541C12.2066 18.5178 12.2484 18.4814 12.2904 18.445Z" fill="#171415"/>
<path id="path1020" d="M22.2102 51.3532C20.7874 51.4213 19.3636 51.3366 17.9422 51.3648C17.065 51.3823 16.1853 51.3467 15.3087 51.4189C14.6122 51.4762 13.9136 51.3415 13.217 51.4373C13.2919 51.0312 13.6386 50.8434 13.9198 50.6311C14.7345 50.0158 15.5259 49.3724 16.4152 48.8521C17.1551 48.4192 17.9339 48.1114 18.7311 47.8276C20.0398 47.3086 21.4004 47.2152 22.7868 47.3354C23.1644 47.3749 23.3334 47.6096 23.3055 47.9631C23.2243 49.0056 23.0819 50.04 22.7857 51.0467C22.7008 51.3348 22.5128 51.4592 22.2102 51.3532Z" fill="#F46C5F"/>
<path id="path1022" d="M27.0314 46.64C26.7136 46.6202 26.4247 46.8093 26.104 46.7685C25.9095 46.8485 25.6871 46.897 25.5354 46.7468C25.4374 46.6498 25.586 46.5172 25.6734 46.4223C26.5568 46.0379 27.5121 45.9321 28.441 45.7309C29.6213 45.4755 30.8165 45.2941 32.0058 45.0834C32.7364 44.9541 33.4778 44.917 34.2149 44.8641C34.657 44.8326 34.9457 44.7661 34.843 44.2385C34.8092 44.0641 34.9393 43.8998 34.8841 43.722C34.8807 42.8648 34.7478 42.025 34.5621 41.1905C34.423 40.5657 34.349 39.9315 34.2796 39.2943C34.2001 38.5643 34.0289 37.8448 33.9107 37.1183C33.8021 36.4499 33.639 35.7933 33.5746 35.1143C33.5276 34.6182 33.3573 34.1371 33.3212 33.6281C33.2634 32.8204 33.1187 32.0224 33.1017 31.2067C33.0914 30.7282 33.0478 30.2367 32.9631 29.7631C32.9038 29.431 32.8827 29.1042 32.9002 28.7773C32.9422 27.9877 33.0093 27.199 33.08 26.4114C33.0914 26.285 33.104 26.1338 33.2363 26.0479C33.3024 25.9906 33.3643 25.9272 33.451 25.8996C33.5129 25.8908 33.5666 25.9078 33.612 25.9504C33.6009 26.2631 33.5294 26.5672 33.4781 26.8742C33.451 26.9658 33.3839 27.0672 33.4035 27.1472C33.5289 27.658 33.5116 28.1675 33.4966 28.6899C33.4804 29.2667 33.5766 29.8485 33.6163 30.4289C33.6752 31.2944 33.7786 32.1594 33.9146 33.0162C34.011 33.624 34.1057 34.2346 34.2125 34.8406C34.3196 35.4471 34.5033 36.0446 34.5309 36.666C34.5523 37.1531 34.7367 37.6092 34.7943 38.0942C34.906 39.0343 35.0866 39.9661 35.2315 40.9026C35.4152 42.087 35.5876 43.2734 35.7774 44.4567C35.8001 44.5984 35.7653 44.725 35.7656 44.8587C35.7658 45.3615 35.6699 45.4445 35.1727 45.4869C34.074 45.5802 32.9748 45.6486 31.8781 45.8003C30.5338 45.9863 29.2016 46.2144 27.8794 46.51C27.5982 46.5729 27.2884 46.4339 27.0314 46.64Z" fill="#0C121E"/>
<path id="path1024" d="M34.8835 43.7222C35.1118 44.0666 34.9442 44.4793 35.075 44.8472C35.117 44.9659 34.9385 45.0077 34.8178 45.0074C34.3325 45.0066 33.8516 45.0753 33.3708 45.106C32.8863 45.1367 32.3904 45.1514 31.931 45.2657C31.0425 45.487 30.1251 45.5131 29.2377 45.7566C28.7068 45.9021 28.1374 45.9609 27.5905 46.076C26.9729 46.2057 26.3452 46.3081 25.7495 46.5316C25.214 46.7508 24.6552 46.9048 24.1163 47.1148C23.7551 47.0614 23.4053 47.232 23.04 47.1675C22.9691 47.1548 22.95 47.2756 22.9378 47.3514C22.9242 47.4244 22.8581 47.4288 22.8065 47.4518C21.4328 47.4172 20.0794 47.5998 18.7305 47.8276C18.9949 47.5139 19.3992 47.4087 19.7443 47.2931C20.6798 46.9799 21.5956 46.5935 22.5478 46.3497C23.7087 46.0522 24.8464 45.6779 26.0111 45.3913C27.2502 45.0866 28.4697 44.6927 29.7322 44.4938C30.5707 44.3617 31.4073 44.2095 32.2635 44.1806C33.0346 44.1548 33.8021 44.032 34.5711 43.9533C34.7228 43.9378 34.8183 43.8514 34.8835 43.7222Z" fill="#212842"/>
<path id="path1026" d="M14.517 27.2167C14.9329 27.2241 15.3281 27.3854 15.7692 27.2443C16.352 27.0577 16.8582 26.7897 17.3055 26.3718C17.8168 25.8943 18.2345 25.3481 18.6122 24.7656C18.9253 25.3081 19.2212 25.8551 19.0804 26.5188C18.8209 26.6429 18.778 26.9656 18.543 27.1096C17.8578 27.5298 17.2836 28.1118 16.5566 28.4699C15.7481 28.868 14.8808 29.1162 14.0452 29.4448C13.8553 29.0723 14.0831 28.7266 14.1179 28.3691C14.1422 28.1178 14.2278 27.874 14.2139 27.6173C14.2178 27.4107 14.3718 27.317 14.517 27.2167Z" fill="#212842"/>
<path id="path1028" d="M14.297 27.5704C14.3963 27.6561 14.4084 27.7709 14.3839 27.8862C14.2743 28.4063 14.159 28.9256 14.0457 29.4449L14.0454 29.4452C13.9327 29.5378 14.0336 29.7006 13.9299 29.796C13.7851 30.5957 13.4996 31.3754 13.4642 32.1872C13.4077 33.4859 13.0254 34.7384 12.9772 36.0347C12.9746 36.1025 12.9106 36.1681 12.875 36.2344C12.7641 35.9282 12.9875 35.5801 12.7581 35.2891C12.7027 35.219 12.7633 35.1836 12.8004 35.146C13.0793 34.863 12.9539 34.4804 13.0414 34.1502C13.0597 34.0813 13.0953 33.9443 12.9599 33.91C12.8443 33.8803 12.7893 33.974 12.729 34.0508C12.7058 34.0808 12.6712 34.1017 12.6415 34.1267C12.3626 33.6131 12.6511 33.1079 12.673 32.6002C12.7385 31.0738 13.2519 29.6371 13.5986 28.1671C13.6084 28.1096 13.6265 28.0547 13.6505 28.0018C13.6773 27.9509 13.7106 27.9045 13.7472 27.8604C13.9128 27.7311 14.0171 27.4832 14.297 27.5704Z" fill="#0D1320"/>
<path id="path1030" d="M19.081 26.5188C19.0024 25.9136 18.6737 25.3755 18.6125 24.7656C18.6128 24.7656 18.6131 24.7641 18.6131 24.7641C18.6827 24.699 18.6629 24.5948 18.7191 24.5236L18.7199 24.5197C19.0109 24.3897 19.0527 24.6216 19.1048 24.8012C19.186 25.0816 19.2505 25.3675 19.3099 25.6533C19.3339 25.7637 19.3488 25.877 19.3922 25.983C19.4164 26.033 19.4373 26.0846 19.4585 26.136C20.0446 27.6516 20.8724 28.9552 22.4451 29.6347C22.7998 29.7879 23.2309 29.7242 23.5265 30.0302C23.5376 30.2698 23.7115 30.2644 23.881 30.2657C23.6841 30.4587 23.4347 30.3996 23.2188 30.3604C21.9392 30.1295 20.9331 29.4513 20.1493 28.4266C19.7022 27.8417 19.4146 27.1674 19.081 26.5188Z" fill="#3F4883"/>
<path id="path1032" d="M33.478 26.8743C33.3852 26.5608 33.6277 26.2466 33.476 25.9334C33.4239 26.0291 33.3349 26.0485 33.2366 26.048C33.2368 25.5836 33.3465 25.1492 33.5443 24.7263C33.7205 24.3507 33.8227 23.9408 34.0611 23.5925C34.2767 23.2964 34.5319 23.0453 34.8549 22.8645C35.0352 22.7634 35.0316 22.7567 35.3956 22.9001C35.2243 23.2014 34.8549 23.2383 34.6508 23.4777C34.1545 24.2496 33.8464 25.0896 33.7009 25.9964C33.6535 26.2923 33.6604 26.6096 33.478 26.8743Z" fill="#0E1423"/>
<path id="path1034" d="M13.9296 29.7959C13.9306 29.6667 13.9074 29.5291 14.0452 29.445C14.0418 29.5735 14.0648 29.7108 13.9296 29.7959Z" fill="#212842"/>
<path id="path1036" d="M11.0455 48.4891C11.0597 48.4943 11.0858 48.4992 11.0858 48.5049C11.0865 48.5214 11.0765 48.5384 11.0708 48.5552C11.0566 48.55 11.0306 48.5451 11.0303 48.5394C11.0298 48.5229 11.0396 48.5059 11.0455 48.4891Z" fill="#0D1220"/>
<path id="path1038" d="M10.999 51.4433L10.9469 51.4482C10.9469 51.4482 10.8953 51.439 10.895 51.4387C10.9133 51.4142 10.9314 51.3897 10.9497 51.3652C10.966 51.3912 10.9825 51.4173 10.999 51.4433Z" fill="#769BA7"/>
<path id="path1040" d="M28.0995 51.9214C27.9352 51.9152 27.8588 51.8221 27.8467 51.6652C27.7951 51.2927 27.9346 50.9403 27.9973 50.5864C28.1139 49.9288 27.9942 49.2877 27.9795 48.6396C28.0541 48.5512 28.0892 48.4253 28.2166 48.3866C28.4792 48.8582 28.4302 49.378 28.4454 49.8867C28.4529 50.1339 28.4423 50.3818 28.44 50.6292C28.4973 51.0154 28.2796 51.3722 28.3195 51.7568C28.3069 51.8125 28.2837 51.8633 28.2507 51.9098C28.2029 51.9485 28.1524 51.9526 28.0995 51.9214Z" fill="#5E65B9"/>
<path id="path1042" d="M28.2175 48.3866C28.2067 48.5349 28.1442 48.6347 27.9804 48.6396C27.8765 48.4903 27.8543 48.3164 27.83 48.1423C27.7733 47.7305 27.5395 47.3885 27.3822 47.0162C27.353 46.9651 27.3166 46.9205 27.2658 46.8887V46.8906C27.2065 46.8134 27.2024 46.7394 27.2774 46.669C27.3143 46.6602 27.3515 46.6591 27.3891 46.6656C27.4315 46.6973 27.4732 46.7301 27.5143 46.7639C27.8896 47.2437 28.161 47.7685 28.2175 48.3866Z" fill="#5D66BA"/>
<path id="path1044" d="M28.2051 51.9157C28.1821 51.4683 28.3521 51.0561 28.4404 50.6291C28.5273 50.6926 28.5774 50.7824 28.5332 50.8804C28.4156 51.1404 28.4468 51.4129 28.4422 51.6832C28.7234 51.9949 28.7244 52.0795 28.4246 52.2105C28.324 52.2541 28.2028 52.2505 28.0911 52.2683C28.0939 52.1527 28.0967 52.0372 28.0996 51.9213C28.1349 51.9195 28.1703 51.9172 28.2054 51.9146L28.2051 51.9157Z" fill="#2A3259"/>
<path id="path1046" d="M27.97 52.6189C27.9811 52.492 27.9705 52.3576 28.091 52.2683C28.1833 52.4311 28.1624 52.5547 27.97 52.6189Z" fill="#2A3259"/>
<path id="path1048" d="M41.2614 35.2256C41.259 35.1926 41.2526 35.159 41.2567 35.1268C41.258 35.1165 41.2869 35.103 41.3034 35.103C41.3522 35.1028 41.3757 35.134 41.3501 35.1727C41.3331 35.1985 41.2918 35.2086 41.2614 35.2256Z" fill="#3A476E"/>
<path id="path1050" d="M27.2767 46.6688C27.2729 46.7428 27.2692 46.8166 27.2651 46.8904C27.1663 46.8496 27.0987 46.78 27.0698 46.6757C27.139 46.6737 27.2078 46.6711 27.2767 46.6688Z" fill="#535EB2"/>
<path id="path1052" d="M32.5703 52.194C32.569 52.2063 32.5724 52.2247 32.5657 52.2296C32.5546 52.2376 32.534 52.2437 32.5231 52.2386C32.4775 52.2169 32.48 52.1932 32.5288 52.1798C32.5404 52.1767 32.5564 52.1891 32.5703 52.194Z" fill="#39567A"/>
<path id="path1054" d="M27.514 46.7639C27.4725 46.7312 27.4307 46.6981 27.3889 46.6654C27.4537 46.669 27.4947 46.7028 27.514 46.7639Z" fill="#535EB2"/>
<path id="path1056" d="M23.5262 30.0301C21.7699 29.8545 20.6609 28.7882 19.8433 27.335C19.6155 26.9303 19.3929 26.5172 19.314 26.0482C19.4156 25.6688 19.5454 25.3053 19.8823 25.0607C20.2724 25.1801 20.3461 25.555 20.4994 25.8542C20.6415 26.1316 20.7607 26.4182 20.9854 26.6424C21.2166 26.8887 21.4379 27.1457 21.725 27.3325C21.7704 27.3598 21.8133 27.3905 21.8561 27.4217C21.9012 27.4504 21.9443 27.4816 21.9882 27.5123C22.0114 27.5265 22.0331 27.5422 22.0563 27.5564C22.581 27.9397 23.1924 28.1221 23.803 28.3012C24.2981 28.4461 24.7534 28.2684 25.2054 28.0956C25.5085 28.0042 25.758 27.8273 25.9783 27.6046C26.0144 27.5675 26.0542 27.5345 26.0954 27.5032C26.1793 27.4421 26.2642 27.3825 26.339 27.3095C27.0551 26.4489 27.8427 25.6383 28.2163 24.5445C28.2919 24.3237 28.418 24.1273 28.5702 23.9493L28.5679 23.9519C28.6265 23.8817 28.6076 23.7721 28.6889 23.7133C28.9897 23.1548 29.1153 22.5286 29.371 21.9528C29.6506 22.0599 29.8875 22.2673 30.197 22.3039C29.9486 23.445 29.5637 24.5378 29.0287 25.5759C28.5295 26.5456 27.9622 27.4834 27.1746 28.238C26.2959 29.0797 25.3416 29.8434 24.037 29.9295C23.8663 29.9409 23.7068 30.0459 23.5262 30.0301Z" fill="#2A3259"/>
<path id="path1058" d="M16.3557 7.9088C16.3684 7.87113 16.3807 7.83372 16.3936 7.79606C17.0768 7.62244 17.682 7.26152 18.3233 6.98781C19.6315 6.42903 20.769 5.57305 21.9691 4.82904C22.5214 4.48696 22.9775 4.48155 23.5154 4.84685C24.4516 5.48277 25.2088 6.25231 25.6829 7.29428C25.814 7.5827 25.9492 7.88506 25.952 8.17786C25.9639 9.45537 26.1826 10.7236 26.1068 12.0032C25.918 11.7875 25.8212 11.4911 25.7885 11.2509C25.7317 10.8356 25.5181 10.4352 25.6143 9.99946C25.6223 9.96334 25.6233 9.91638 25.6071 9.88542C25.2304 9.16643 25.2206 8.35665 25.0336 7.59122C24.9818 7.37917 24.8884 7.19161 24.6871 7.075C24.085 6.72622 23.6088 6.21594 23.0583 5.80086C22.7007 5.48586 22.3295 5.43864 21.9412 5.7459C21.5674 5.8398 21.3406 6.11817 21.1185 6.40349C21.077 6.43961 21.0308 6.46825 20.981 6.49095C20.1204 6.81033 19.3485 7.31183 18.5147 7.68693C18.0233 8.08577 17.3974 8.18741 16.8399 8.43997C16.6382 8.5313 16.4207 8.51762 16.2987 8.27254C16.2598 8.14226 16.2765 8.02076 16.3557 7.9088Z" fill="#D35E51"/>
<path id="path1060" d="M25.398 19.492C25.4689 19.3537 25.5365 19.2136 25.6118 19.0777C25.6848 18.9456 25.7444 18.764 25.9503 18.8604C26.095 18.9283 26.1167 19.0764 26.0589 19.2128C25.9874 19.3805 25.9923 19.5534 25.98 19.7272C25.9284 20.4473 25.6116 21.0311 25.1482 21.5844C24.6594 22.1682 24.1486 22.7198 23.5353 23.1646C23.0374 23.5255 22.4941 23.8224 21.9263 24.0615C21.5394 24.2246 21.1785 24.4967 20.718 24.4126C20.3903 24.4849 20.1757 24.8497 19.7892 24.7712C19.4905 24.3593 19.4846 23.867 19.4361 23.3944C19.409 23.132 19.5101 22.8932 19.8372 22.8622C20.7213 22.9169 21.5463 22.6767 22.3533 22.3514C23.5918 21.8174 24.4496 20.826 25.3353 19.8673C25.4428 19.7507 25.4529 19.6297 25.398 19.492Z" fill="#C35B50"/>
<path id="path1062" d="M20.0144 13.1755C20.0838 13.2059 20.1684 13.2201 20.219 13.2694C20.3799 13.4268 20.4297 13.7374 20.6916 13.7412C21.0143 13.7461 21.3394 13.6718 21.6608 13.6166C21.7274 13.6053 21.8053 13.5405 21.8388 13.4791C21.9786 13.2232 22.1982 13.0682 22.4701 13.0163C22.9768 12.9198 23.4811 13.0001 23.9006 13.2846C24.271 13.5356 24.7145 13.782 24.697 14.3459C24.5053 14.3911 24.3141 14.4455 24.1147 14.3952C24.0154 14.3849 23.9166 14.4017 23.8173 14.4012C23.6854 14.3836 23.5675 14.34 23.4863 14.2278C23.4458 14.104 23.4886 13.9536 23.3681 13.8581C23.3684 13.8617 23.317 13.8677 23.317 13.8677C23.317 13.8677 23.3191 13.9198 23.3196 13.9221C23.3021 14.0485 23.2267 14.12 23.1094 14.1538C23.0575 14.1527 23.0098 14.1388 22.9646 14.1153C22.7139 13.983 22.5023 13.9703 22.3986 14.2969C22.3837 14.349 22.3527 14.388 22.3068 14.4159C21.7109 14.5074 22.0434 14.8818 22.0793 15.1653C22.0885 15.2195 22.0883 15.2736 22.0823 15.3281C21.9611 15.7168 21.8625 16.1067 22.0442 16.5488C22.363 16.4356 22.6778 16.432 22.8158 16.8522C23.3658 16.3489 24.3304 16.2702 24.3043 15.2625C24.3118 15.1833 24.3221 15.1044 24.335 15.026C24.4403 14.7915 24.2801 14.4143 24.697 14.3459C25.0767 14.4646 25.054 14.8604 24.9815 15.0526C24.8974 15.2765 24.9658 15.3495 25.0651 15.4903C25.1742 15.6451 25.2526 15.7666 24.9405 15.8451C24.6405 15.9206 24.6389 16.2857 24.5597 16.5413C24.4937 16.7539 24.4176 16.9629 24.2367 17.0743C24.0203 17.208 23.6994 17.4267 23.543 17.3537C23.1344 17.1628 22.8235 17.3989 22.474 17.4484C22.3623 17.4641 22.2885 17.4494 22.2284 17.3571C22.1061 17.1695 21.9508 17.0356 21.7119 17.0258C21.6234 17.0222 21.5801 16.9644 21.5767 16.8718C21.5628 16.4934 21.2633 16.272 21.0835 15.9851C20.8781 15.7937 21.2297 15.3428 20.7527 15.2775C20.3281 15.109 20.8056 14.6091 20.3756 14.3583C20.0368 14.1605 20.026 13.6515 19.9646 13.2477C19.9811 13.2235 19.9979 13.1995 20.0144 13.1755Z" fill="#F3645F"/>
<path id="path1064" d="M16.3559 7.90879C16.3634 8.02384 16.3706 8.13864 16.3781 8.25396C16.3195 8.32619 16.3659 8.43351 16.2955 8.50187C16.2682 8.93657 15.9359 9.22035 15.7532 9.5761C15.8466 9.73269 15.9888 9.77603 16.1469 9.78996C16.3193 9.90218 16.5667 9.95274 16.5212 10.2443C16.7785 11.0649 16.5501 11.7749 16.0241 12.4159C15.7532 12.7459 15.4819 13.0751 15.2105 13.4048C15.1635 13.4992 15.1147 13.5908 14.9827 13.5268C14.9824 12.9272 14.977 12.3274 14.9832 11.7279C14.9883 11.2055 15.1522 10.696 15.1029 10.1666C15.083 9.95327 15.0972 9.73914 14.9821 9.54643C15.1011 9.10348 15.3655 8.6693 15.0294 8.20416C14.96 8.10794 15.0128 7.90001 15.1276 7.96167C15.5623 8.19539 15.9491 7.92942 16.3559 7.90879Z" fill="#B5A4B8"/>
<path id="path1066" d="M16.9906 16.1373C16.9101 16.0341 16.8745 16.0855 16.849 16.1776C16.8023 16.3453 16.72 16.4637 16.519 16.3997C16.4194 16.368 16.3617 16.3654 16.2951 16.4833C16.1723 16.7015 16.1192 16.7093 16.0183 16.5055C15.8893 16.2449 15.6971 16.1985 15.4494 16.2183C15.4058 16.1727 15.3868 16.1182 15.3893 16.0568C15.404 16.0264 15.4242 15.9983 15.4494 15.974C15.4492 15.9745 15.4985 15.9562 15.4985 15.9562C15.4985 15.9562 15.4469 15.9456 15.4463 15.9467C15.3597 16.0584 15.3009 15.9668 15.2346 15.9175C15.1605 15.3082 15.0527 14.6988 15.3331 14.1106C15.4244 13.6045 15.8047 13.5232 16.2301 13.3813C16.5729 13.2668 16.8714 13.232 17.2055 13.2926L17.2052 13.2923C17.2455 13.412 17.3028 13.5294 17.3219 13.6525C17.3461 13.8083 17.432 13.871 17.5744 13.8862C17.5917 13.9953 17.537 14.0815 17.4547 14.1284C16.9589 14.4112 16.978 14.8121 17.1831 15.2599C17.133 15.5471 17.22 15.829 17.22 16.1149C17.148 16.1688 17.0719 16.1789 16.9906 16.1373Z" fill="#F3625F"/>
<path id="path1068" d="M19.5168 22.5433C19.7451 21.7266 19.9734 20.9173 20.0142 20.0536C20.0428 19.4424 20.1545 18.8331 20.1181 18.2155C20.235 18.2147 20.3552 18.1964 20.4682 18.217C20.7914 18.2759 21.0502 18.532 21.0982 18.855C21.1614 19.2833 21.1139 19.6966 21.0399 20.1312C20.98 20.4831 20.8247 20.817 20.8183 21.1851C20.8139 21.4462 20.776 21.7222 20.5732 21.9428C20.4259 22.1032 20.4777 22.3001 20.5433 22.5034C21.1753 22.3878 21.732 22.0534 22.3692 22.0816C22.3747 22.2725 22.2356 22.3592 22.0948 22.4185C21.285 22.759 20.4625 23.0353 19.5632 22.8222C19.4768 22.7412 19.4871 22.644 19.5168 22.5433Z" fill="#D45D51"/>
<path id="path1070" d="M18.9587 10.7063C19.1189 10.5071 19.4185 10.6841 19.5851 10.4695C19.6357 10.4047 19.7159 10.4947 19.7577 10.5603C20.035 10.9926 20.068 11.5039 20.211 11.9797C20.2239 12.0217 20.1883 12.0939 20.1534 12.1326C19.7162 12.6184 19.7149 12.6176 20.0144 13.1754L20.0146 13.1751C19.9863 13.202 19.9378 13.2334 19.9406 13.2616C20.0575 14.3273 19.162 14.464 18.5083 14.812C18.3272 14.9082 18.118 14.9467 18.1219 15.2106C17.9212 15.3259 17.7349 15.2717 17.552 15.1657C17.4769 15.1211 17.4078 15.0687 17.3459 15.0073C17.3288 14.9846 17.3123 14.9611 17.2956 14.9382C17.2932 14.9108 17.2909 14.8824 17.2883 14.8546C17.3727 14.5824 17.6281 14.5811 17.8386 14.5158C18.1624 14.4158 18.3729 14.2326 18.3626 13.8668C18.4043 13.5477 18.6814 13.3408 18.7552 13.0366C19.0973 12.4897 19.0201 11.8739 19.0418 11.2751C19.0581 11.1041 19.0568 10.9348 18.9807 10.7746C18.9729 10.7519 18.966 10.729 18.9587 10.7063Z" fill="#F3645F"/>
<path id="path1072" d="M28.5705 23.9494C28.182 25.3466 27.3686 26.4714 26.3251 27.4486C26.2546 27.4948 26.1476 27.4847 26.1135 27.5866L26.1143 27.5892C25.8223 27.3856 25.6873 27.8059 25.4353 27.7618C25.3166 27.7749 25.2127 27.8216 25.1149 27.8897C24.9831 27.9821 24.8497 27.9558 24.7447 27.8513C24.5884 27.6957 24.7075 27.5727 24.8141 27.4545C25.3236 27.5492 25.6631 27.3456 25.9071 26.8932C26.057 26.6151 26.2036 26.3096 26.5572 26.1989C26.6295 26.1765 26.6986 26.057 26.719 25.9706C26.8194 25.5403 27.1467 25.2828 27.4442 25.0099C27.8242 24.6611 28.1111 24.213 28.5705 23.9494Z" fill="#D15E51"/>
<path id="path1074" d="M24.8136 27.4544C24.8492 27.5715 24.6735 27.7101 24.8521 27.8135C25.0017 27.9002 25.0461 27.7735 25.1198 27.6923C25.2068 27.596 25.304 27.555 25.3992 27.6881C25.3946 27.8548 25.3714 28.0173 25.2862 28.1651C24.7749 28.5034 24.2208 28.5898 23.638 28.4095C23.0153 28.2165 22.3798 28.0418 21.8889 27.5708C21.9093 27.0953 22.2733 27.1356 22.5893 27.1043C23.3026 27.4008 24.0559 27.4405 24.8136 27.4544Z" fill="#CF5C50"/>
<path id="path1076" d="M20.5972 10.5757C21.0571 10.0461 21.5212 9.58738 22.2627 9.50302C22.4678 9.47955 22.6628 9.48342 22.8243 9.55307C23.4553 9.82498 24.1423 10.0432 24.3907 10.8019C24.4269 10.9116 24.4988 11.0303 24.3915 11.1239C24.2538 11.2436 24.1439 11.1288 24.0383 11.0452C24.0079 11.021 23.9751 10.9978 23.9519 10.9676C23.3354 10.1758 22.525 10.1428 21.6433 10.3688C21.5269 10.3985 21.4113 10.425 21.3355 10.5153C21.1206 10.7715 20.884 10.7271 20.5972 10.5757Z" fill="#B2761D"/>
<path id="path1078" d="M27.74 14.6969C27.3788 14.1902 27.5267 13.6814 27.733 13.1719C27.9668 13.1317 28.159 12.9901 28.3775 12.9104C28.7095 12.7891 29.0265 12.8092 29.3341 12.9687C29.5108 13.06 29.68 13.1846 29.6532 13.4103C29.6256 13.6435 29.4151 13.619 29.2461 13.6487C29.0353 13.6861 28.8297 13.7434 28.6692 13.8883C28.6507 13.9077 28.6311 13.9265 28.6153 13.9399C28.6388 13.9209 28.6615 13.901 28.6876 13.8765C28.9608 13.7439 29.3155 13.4702 29.5012 13.813C29.7084 14.1953 29.301 14.4144 29.0074 14.5968C28.7877 14.7332 28.5312 14.7386 28.2815 14.7523C28.2361 14.8019 28.1747 14.6494 28.1326 14.765C28.1195 14.8147 28.0898 14.8491 28.0431 14.8694C27.8863 14.9094 27.8171 14.7962 27.74 14.6969Z" fill="#C2584D"/>
<path id="path1080" d="M16.9904 16.1373C17.0621 16.1249 17.1333 16.1128 17.205 16.1007C17.5541 16.3525 17.8038 16.7074 18.125 16.9886C18.7501 17.535 19.5606 17.4427 20.0547 16.7717C20.3911 16.3143 20.5526 15.7671 20.8332 15.2816C21.2377 15.1792 21.2734 15.2039 21.1944 15.5344C21.1586 15.6851 21.1204 15.8349 21.0832 15.9851C20.6963 16.9809 20.1081 17.7623 18.9758 17.9646C18.7253 17.987 18.472 18.0316 18.2437 17.8748C18.3938 17.7017 18.1049 17.7479 18.1258 17.639C18.004 17.5714 17.9379 17.4251 17.7868 17.3991L17.7785 17.3926C17.7491 17.349 17.7143 17.3103 17.673 17.2778C17.429 17.0333 17.2331 16.7541 17.0737 16.4484C17.0206 16.3708 17.0322 16.2704 16.9829 16.1915L16.9904 16.1373Z" fill="#5F2927"/>
<path id="path1082" d="M22.5891 27.1044C22.3582 27.2638 22.0228 27.2661 21.8887 27.5708L21.8871 27.5703C21.8518 27.5251 21.8085 27.4893 21.7592 27.4606L21.7561 27.4668C21.8198 27.0948 21.5724 26.9297 21.3 26.7824C21.2731 26.7484 21.2494 26.7112 21.2283 26.6764C21.0998 26.5567 21.0833 26.8709 20.9548 26.7499C20.6478 26.6 20.533 26.2946 20.4069 26.018C20.2619 25.701 20.1017 25.3966 19.9131 25.1053C19.7949 24.9985 19.8016 24.8852 19.8953 24.7673C20.0826 24.4487 20.4136 24.4627 20.7172 24.4124C20.5727 24.547 20.4468 24.6807 20.6042 24.8917C20.928 25.3254 21.2087 25.7889 21.5322 26.2249C21.8306 26.6271 22.1983 26.859 22.5891 27.1044Z" fill="#D55E52"/>
<path id="path1084" d="M21.8874 5.68417C21.9127 5.65527 21.9339 5.62044 21.9646 5.59877C22.5468 5.18601 22.6333 5.20226 23.0587 5.80077C22.7401 5.82554 22.5685 6.09641 22.3358 6.25532C21.8972 6.55483 21.4342 6.79373 20.9698 7.04397C20.581 7.25319 20.1804 7.39482 19.781 7.55786C19.716 7.49208 19.7042 7.41339 19.7235 7.32697C20.0297 6.81127 20.5421 6.58915 21.0678 6.38612C21.3057 6.11086 21.573 5.87017 21.8874 5.68417Z" fill="#EA685A"/>
<path id="path1086" d="M28.1109 14.8041C28.1101 14.7703 28.1057 14.737 28.0982 14.7043L28.0987 14.704C28.2675 14.5902 28.4635 14.6078 28.6521 14.5771C28.989 14.5216 29.2473 14.3325 29.4162 14.0307C29.4539 13.9639 29.4926 13.8924 29.4315 13.8225C29.3724 13.7549 29.2878 13.7673 29.2166 13.7931C29.0006 13.8707 28.7917 13.9708 28.5585 13.9917L28.5631 13.9989C28.6299 13.5555 28.9803 13.5544 29.3094 13.5204C29.4013 13.5108 29.5194 13.541 29.5581 13.4252C29.6038 13.2882 29.4952 13.2023 29.4023 13.1435C29.0259 12.9054 28.6395 12.934 28.2368 13.097C28.0845 13.1587 27.9362 13.404 27.7327 13.1721C28.1222 12.6987 28.6459 12.6347 29.2042 12.7065C29.7978 12.7831 30.064 13.1964 29.9051 13.7825C29.8551 13.9672 29.7784 14.145 29.7139 14.3261C29.2202 15.0886 28.6684 15.253 28.1109 14.8041Z" fill="#622B27"/>
<path id="path1088" d="M17.5542 15.0415C17.7345 15.1555 17.9335 15.1684 18.1383 15.1491C18.4595 14.9218 18.8108 14.9504 19.1364 15.0952C19.3954 15.21 19.4749 15.4308 19.1978 15.6325C18.8284 15.9019 17.4245 15.6372 17.0994 15.2487C16.7179 14.6298 16.7568 14.4433 17.3471 14.0509C17.425 13.999 17.4988 13.941 17.5743 13.886C17.6079 13.8863 17.6401 13.8798 17.6711 13.8669C18.0446 13.6358 18.2376 13.2057 18.6297 12.9944C18.718 12.9784 18.7974 12.9929 18.8617 13.0608C18.9194 13.4134 18.5485 13.5576 18.4788 13.8484C18.3243 14.1396 18.0395 14.2472 17.7611 14.3715C17.5269 14.476 17.2506 14.5637 17.3311 14.921L17.3342 14.9252C17.3597 14.9618 17.3945 14.9837 17.4386 14.9907C17.4825 14.9958 17.5207 15.0129 17.5542 15.0415Z" fill="#5F2927"/>
<path id="path1090" d="M16.5215 10.2441C16.3969 10.0927 16.2721 9.94126 16.1472 9.78983C16.408 9.77177 16.5749 9.55274 16.826 9.48954C17.4211 9.33991 17.901 9.47871 18.2559 9.96293C18.2786 9.99363 18.3086 10.021 18.3256 10.0545C18.4404 10.2839 18.3088 10.4807 18.1876 10.6339C18.0903 10.7575 17.9221 10.6285 17.8347 10.547C17.4508 10.1889 16.9833 10.2372 16.5215 10.2441Z" fill="#B2761D"/>
<path id="path1092" d="M18.619 13.06C18.3277 13.3582 18.1902 13.837 17.6707 13.8669C18.0187 13.1142 18.0986 12.2698 18.474 11.5242C18.6177 11.2389 18.87 11.0217 18.9585 10.7062L18.9693 10.7322C19.0913 10.8682 19.0728 11.0367 19.0764 11.1997C19.009 11.8408 19.1254 12.5267 18.619 13.06Z" fill="#DB6254"/>
<path id="path1094" d="M25.3975 19.492C25.5198 19.5082 25.6333 19.5394 25.6152 19.6973C25.609 19.752 25.5869 19.816 25.5497 19.8544C24.6158 20.8203 23.7797 21.9036 22.4731 22.4226C22.2829 22.3287 22.2855 22.3207 22.5866 22.0604C23.6961 21.3933 24.5402 20.4354 25.3975 19.492Z" fill="#622B27"/>
<path id="path1096" d="M19.7803 7.32318C19.7803 7.40135 19.7803 7.47952 19.7806 7.55794C19.5329 7.8701 19.1594 7.91937 18.8106 8.01044C18.4396 8.10718 18.0934 8.28854 17.7389 8.38941C17.287 8.51814 16.7955 8.76063 16.2953 8.50188C16.277 8.40411 16.2974 8.31872 16.3781 8.25397C16.4908 8.40308 16.6531 8.41623 16.7878 8.33368C17.3254 8.0045 17.9876 7.95316 18.493 7.55743C18.833 7.51899 19.1656 7.45166 19.4715 7.29016C19.5848 7.23057 19.6862 7.22953 19.7803 7.32318Z" fill="#E76759"/>
<path id="path1098" d="M28.1107 14.8039C28.789 15.1267 29.2554 14.7394 29.7138 14.3259C29.7381 14.5088 29.6491 14.6701 29.5871 14.8264C29.453 15.1661 28.9143 15.5139 28.6311 15.4796C28.282 15.437 27.8329 15.0428 27.7395 14.6969C27.8589 14.748 27.9701 14.8269 28.1107 14.8039Z" fill="#C75E53"/>
<path id="path1100" d="M22.5865 22.0604C22.5963 22.1961 22.336 22.2472 22.473 22.4226C21.6678 22.8524 20.8101 23.0526 19.8973 23.0116C19.8328 22.8535 19.4985 23.081 19.5449 22.7647C20.5575 22.8321 21.5009 22.6128 22.3685 22.0816C22.4413 22.0746 22.514 22.0674 22.5865 22.0604Z" fill="#662D29"/>
<path id="path1102" d="M15.4496 15.9843C15.4496 16.0622 15.4496 16.1404 15.4496 16.2183C15.3805 16.1806 15.3114 16.1427 15.242 16.105C15.2066 16.0645 15.1713 16.024 15.1357 15.9835C14.953 15.734 15.0921 15.4252 14.9845 15.1621C14.9829 15.0986 14.9817 15.0352 14.9806 14.9717C14.986 14.8404 14.935 14.723 14.8893 14.6041C14.8509 14.2821 14.806 13.9594 14.9615 13.6521C14.9685 13.6101 14.9757 13.5686 14.9829 13.5268C15.059 13.486 15.1349 13.4455 15.2107 13.4047C15.333 13.6258 15.333 13.8681 15.3333 14.1106C15.308 14.6464 15.3864 15.1851 15.2881 15.7183C15.2618 15.861 15.3395 15.9304 15.4499 15.9845L15.4496 15.9843Z" fill="#E1675F"/>
<path id="path1104" d="M21.6075 12.1583C21.7855 12.1521 21.986 12.3423 21.9945 12.5254C22.0051 12.7517 21.7564 13.0202 21.5175 13.0316C21.268 13.0435 21.1731 12.8881 21.155 12.6686C21.1336 12.4073 21.3506 12.1671 21.6075 12.1583Z" fill="#201514"/>
<path id="path1106" d="M17.4326 12.6492C17.412 12.8316 17.2918 12.9551 17.0601 12.9606C16.8192 12.9657 16.708 12.8311 16.693 12.6061C16.6783 12.3778 16.8504 12.2209 17.0944 12.2305C17.3158 12.239 17.4414 12.3778 17.4326 12.6492Z" fill="#1F1514"/>
<path id="path1108" d="M20.2022 12.7089C20.187 12.7698 20.1393 12.8008 20.0885 12.7794C20.0459 12.7613 19.992 12.712 19.9884 12.6726C19.9829 12.6127 20.0479 12.6006 20.1013 12.6063C20.1615 12.6125 20.1989 12.6455 20.2022 12.7089Z" fill="#F3645F"/>
<path id="path1110" d="M18.5934 8.80054C18.5754 8.77474 18.5403 8.74713 18.5431 8.72391C18.5504 8.66329 18.5991 8.63879 18.6517 8.66716C18.6724 8.67826 18.6891 8.73373 18.6791 8.75566C18.6683 8.77887 18.6234 8.78635 18.5934 8.80054Z" fill="#BE574F"/>
<path id="path1112" d="M19.8306 8.11388C19.8533 8.13272 19.8915 8.14872 19.8982 8.17323C19.9134 8.23076 19.8933 8.28287 19.8303 8.30222C19.8208 8.30531 19.7955 8.28158 19.7888 8.26558C19.7651 8.2078 19.7733 8.1549 19.8306 8.11388Z" fill="#5A3322"/>
<path id="path1114" d="M19.1704 9.55095C19.1591 9.585 19.1475 9.61879 19.1361 9.65259C19.1018 9.63892 19.0678 9.62525 19.0334 9.61184C19.0489 9.57882 19.0561 9.53625 19.0812 9.5151C19.1196 9.48285 19.1552 9.50167 19.1704 9.55095Z" fill="#512021"/>
<path id="path1116" d="M20.2977 9.48826C20.2691 9.49936 20.2412 9.51354 20.2118 9.51973C20.2048 9.52102 20.1922 9.49496 20.1824 9.48155C20.2105 9.47071 20.2384 9.45653 20.2675 9.45085C20.2747 9.4493 20.2874 9.47511 20.2977 9.48826Z" fill="#8C463D"/>
<path id="path1118" d="M28.6888 23.7133C28.6867 23.8121 28.6656 23.9016 28.5678 23.9519C28.558 23.8469 28.5797 23.7579 28.6888 23.7133Z" fill="#D15E51"/>
<path id="path1120" d="M26.072 12.3755C26.0575 12.3796 26.0335 12.391 26.0299 12.3864C26.0199 12.3735 26.0183 12.3541 26.0134 12.3376C26.0281 12.3332 26.0519 12.3219 26.0555 12.3265C26.0658 12.3394 26.0671 12.3588 26.072 12.3755Z" fill="#D35E51"/>
<path id="path1122" d="M21.1695 8.87385C21.1559 8.88701 21.1419 8.90017 21.1283 8.91333C21.1141 8.88134 21.096 8.85013 21.0878 8.81659C21.0857 8.8073 21.1128 8.79105 21.1265 8.77789C21.1409 8.80988 21.1553 8.84186 21.1695 8.87385Z" fill="#742F27"/>
<path id="path1124" d="M17.2056 13.2925C17.2144 13.2762 17.2267 13.2453 17.2316 13.246C17.2706 13.2548 17.2613 13.2729 17.2053 13.2922L17.2056 13.2925Z" fill="#F3625F"/>
<path id="path1126" d="M28.0936 10.1292C28.1192 9.01581 27.7681 7.99704 27.3486 6.98448C27.0186 6.18758 26.5922 5.45467 26.1062 4.74884C26.0481 4.66423 25.9276 4.5925 25.9666 4.45397C26.9918 5.04165 28.1844 7.91966 28.3196 10.1267C28.2451 10.201 28.1697 10.2007 28.0936 10.1292Z" fill="#B97C1C"/>
<path id="path1128" d="M28.7968 4.27531C29.6009 5.12251 29.9781 6.1632 30.2085 7.2854C30.3261 7.85838 30.2567 8.44734 30.4153 9.01334C30.4677 9.19986 30.429 9.39489 30.2177 9.62939C30.1886 7.68707 29.8243 5.92095 28.673 4.39888C28.634 4.27737 28.6864 4.24745 28.7968 4.27531Z" fill="#B87B1C"/>
<path id="path1130" d="M28.9792 10.4661C28.683 8.44377 28.4885 6.50429 27.1372 4.93191C27.2381 4.81556 27.3304 4.89656 27.4125 4.95667C27.6539 5.13442 27.8033 5.3924 27.9452 5.64263C28.5507 6.71041 29.1783 9.02732 28.9792 10.4661Z" fill="#BE7F1B"/>
<path id="path1132" d="M27.1582 2.2061C26.4196 2.60416 25.6993 2.77752 25.0402 3.09871C24.3723 3.42427 23.8488 3.89947 23.3989 4.48096C23.6412 3.2117 25.5123 2.49658 27.1582 2.2061Z" fill="#C07E1E"/>
<path id="path1134" d="M21.1174 3.31734C20.4405 4.18776 18.6168 5.32751 17.5083 5.58936C18.7306 4.86289 20.0269 4.25174 21.1174 3.31734Z" fill="#C9851E"/>
<path id="path1136" d="M16.5901 4.90918C17.6545 4.24979 18.81 3.76582 19.9428 3.06567C19.7191 3.4516 19.7176 3.44798 18.9346 3.83882C18.5376 4.03695 18.1457 4.24669 17.7518 4.4492C17.3756 4.64217 16.9936 4.79051 16.5901 4.90918Z" fill="#CD861E"/>
<path id="path1138" d="M23.4082 2.87467C23.4185 2.77406 23.4583 2.69641 23.5457 2.63346C23.8808 2.39302 24.1434 2.08552 24.3694 1.74163C24.4254 1.65676 24.453 1.51177 24.6873 1.54325C24.3754 2.12912 24.0111 2.6087 23.4095 2.87622L23.4082 2.87467Z" fill="#CA851D"/>
<path id="path1140" d="M21.7546 2.1419C21.2797 2.36866 20.821 2.64109 20.239 2.5655C20.7199 2.37872 21.2008 2.1922 21.6814 2.00568C21.7059 2.05108 21.7301 2.0965 21.7546 2.1419Z" fill="#CC871B"/>
<path id="path1142" d="M28.094 10.1293C28.1693 10.1286 28.2447 10.1278 28.32 10.127C28.2772 10.4856 28.4477 10.8759 28.094 11.2004C28.094 10.8437 28.094 10.4864 28.094 10.1293Z" fill="#D58E1D"/>
<path id="path1144" d="M21.9478 1.9123C22.3146 1.72784 22.6814 1.54338 23.0485 1.35893C22.7981 1.76163 22.4075 1.90301 22.0099 2.03174C21.9893 1.99175 21.9684 1.95203 21.9478 1.9123Z" fill="#CD861D"/>
<path id="path1146" d="M26.5398 10.3733C26.5398 10.8 26.5398 11.2261 26.5398 11.6526C26.5202 11.6526 26.5008 11.6523 26.4812 11.6521C26.4812 11.2256 26.4812 10.7995 26.4812 10.373C26.5008 10.373 26.5202 10.3733 26.5398 10.3733Z" fill="#BA7B1C"/>
<path id="path1148" d="M26.2492 7.19312C26.1767 7.13533 26.1517 7.12553 26.1486 7.11109C26.113 6.95166 25.9347 6.81415 26.0681 6.62969C26.087 6.60364 26.1569 6.57758 26.1641 6.5861C26.3114 6.75198 26.3932 6.93178 26.2492 7.19312Z" fill="#BE7E1B"/>
<path id="path1150" d="M28.7969 4.27535C28.7556 4.31663 28.7144 4.35791 28.6731 4.39893C28.5493 4.28696 28.4234 4.17758 28.3029 4.06175C28.2559 4.01661 28.2691 3.95701 28.3114 3.91367C28.354 3.87033 28.4123 3.86182 28.4608 3.90155C28.5913 4.00887 28.7177 4.12108 28.7969 4.27535Z" fill="#D0871C"/>
<path id="path1152" d="M23.4099 2.87606C23.2773 3.1508 23.0199 3.25193 22.7588 3.3479C22.9002 3.08579 23.1285 2.9439 23.4086 2.87451L23.4099 2.87606Z" fill="#CA851D"/>
<path id="path1154" d="M27.0916 9.92963C27.3405 10.1659 27.2489 10.3254 27.1163 10.5042C26.9817 10.3267 27.025 10.1577 27.0916 9.92963Z" fill="#C1821B"/>
<path id="path1156" d="M19.6285 5.32941C19.5168 5.57501 19.3914 5.68619 19.2307 5.76978C19.2746 5.49632 19.2746 5.49632 19.6285 5.32941Z" fill="#C47D1D"/>
<path id="path1158" d="M17.7849 6.56738C17.8466 6.3886 17.8891 6.18841 18.2054 6.14765C18.1293 6.39557 17.9799 6.50057 17.7849 6.56738Z" fill="#C2801B"/>
<path id="path1160" d="M29.4547 3.79297C29.2189 3.71532 29.1861 3.58195 29.1903 3.3704C29.4217 3.4496 29.4617 3.5791 29.4547 3.79297Z" fill="#C6841E"/>
<path id="path1162" d="M25.6022 1.85665C25.6814 1.87083 25.7268 1.90902 25.694 1.96732C25.6734 2.00395 25.6122 2.03232 25.5668 2.03645C25.5147 2.04084 25.451 2.01065 25.4938 1.93971C25.5175 1.90024 25.5715 1.87909 25.6022 1.85665Z" fill="#CC8A1B"/>
<path id="path1164" d="M31.1585 10.5892C31.2527 10.5665 31.2478 10.6328 31.2509 10.6803C31.255 10.7489 31.2674 10.8283 31.1889 10.865C31.1686 10.8743 31.1126 10.849 31.0994 10.825C31.0465 10.7283 31.1141 10.6583 31.1585 10.5892Z" fill="#C1801A"/>
<path id="path1166" d="M30.1172 3.97198C30.116 3.98462 30.1193 4.00371 30.1126 4.00836C30.101 4.01687 30.0796 4.02305 30.0682 4.01789C30.0208 3.99519 30.0231 3.97094 30.0742 3.95701C30.0863 3.95392 30.1025 3.96656 30.1172 3.97198Z" fill="#EFB04F"/>
<path id="path1168" d="M29.9307 2.68577C29.9441 2.68035 29.9596 2.66796 29.9709 2.67105C30.0145 2.68266 30.0192 2.70666 29.9825 2.72962C29.973 2.73555 29.9508 2.7291 29.9394 2.72137C29.9317 2.71595 29.9332 2.69789 29.9307 2.68577Z" fill="#EDAB3D"/>
<path id="path1170" d="M17.4273 3.00464C17.4456 2.98632 17.4642 2.96776 17.4825 2.94944C17.4791 2.96053 17.4791 2.97575 17.4716 2.98194C17.4593 2.99226 17.442 2.9969 17.4268 3.00412L17.4273 3.00464Z" fill="#EBB351"/>
<path id="path1172" d="M13.6827 28.0286C13.8287 28.3622 13.7136 28.7133 13.587 28.9795C13.2665 29.6554 13.1729 30.3842 13.0305 31.0914C12.8293 32.0887 12.7645 33.1134 12.6415 34.1265C12.5259 34.7601 12.3672 35.3877 12.3925 36.0407C12.3948 36.1034 12.3254 36.1689 12.2893 36.2329C12.2893 36.1188 12.2893 36.0045 12.2893 35.7574C11.7912 36.7617 11.4045 37.6664 11.0118 38.5694C10.6899 39.3093 10.3093 40.0239 9.97293 40.7578C9.52198 41.7412 9.07367 42.7264 8.65303 43.723C8.44162 44.224 8.13163 44.6641 7.87376 45.1357C7.6835 45.4837 7.45908 45.26 7.25301 45.1264C7.04088 44.8331 7.23758 44.5653 7.31861 44.2996C7.4371 43.9103 7.54383 43.5148 7.73128 43.1498C7.96284 42.1457 8.64527 41.3277 8.89561 40.3311C8.9347 40.2228 8.97411 40.1144 9.0132 40.0061C9.22492 39.4937 9.49644 39.0152 9.83388 38.5748C10.2461 37.9038 10.3888 37.1291 10.6589 36.4039C11.099 35.2218 11.5113 34.0287 11.907 32.8309C12.3634 31.4494 12.7831 30.0553 13.0635 28.6264C13.1192 28.3418 13.2469 28.1826 13.4631 28.0467C13.5307 27.9701 13.6048 27.9773 13.6827 28.0286Z" fill="#212842"/>
<path id="path1174" d="M9.8335 38.5749C9.65833 39.1081 9.46278 39.63 9.01281 40.0062C8.26488 40.1666 7.5243 40.1555 6.77898 39.9623C5.68025 39.6775 5.12753 38.2824 5.14698 37.4646C5.14959 37.3534 5.19202 37.2378 5.23727 37.1336C5.43579 36.6749 5.64227 36.2198 5.84574 35.7635C5.85732 36.1197 5.93389 36.453 6.1547 36.7466C6.24762 36.8699 6.31333 37.0154 6.31947 37.1774C6.32419 37.3015 6.38084 37.4011 6.46517 37.4867C7.02024 38.0494 7.63304 38.5403 8.45896 38.5571C8.91587 38.5664 9.37489 38.7098 9.8335 38.5749Z" fill="#C25A50"/>
<path id="path1176" d="M13.6826 28.0288C13.6093 28.0348 13.5363 28.0407 13.4631 28.0469C13.2869 27.6646 13.1476 27.2644 12.9739 26.8855C12.8591 26.6347 12.8555 26.418 12.8718 26.1739C12.9866 26.0666 13.0991 26.0767 13.2097 26.1807C13.5678 26.6244 13.9891 26.9881 14.5174 27.2167C14.5319 27.3895 14.3567 27.4442 14.2966 27.5704C14.1338 27.6919 13.9705 27.8129 13.8075 27.9344C13.7672 27.9684 13.726 28.0012 13.6842 28.0332L13.6826 28.0288Z" fill="#CC5B4F"/>
<path id="path1178" d="M13.2095 26.1804C13.0968 26.1781 12.984 26.176 12.8715 26.1737C12.4379 26.0741 12.0004 26.0311 11.5543 26.0489C11.0541 26.0687 10.5588 25.9985 10.0645 25.9294C9.97858 25.8688 9.87229 25.8172 9.9502 25.681C10.7801 25.6934 11.6131 25.6663 12.4369 25.7777C12.6783 25.8105 12.8416 25.7372 13.0134 25.6121C12.9213 25.8556 13.1337 25.9944 13.2095 26.1804Z" fill="#682F2B"/>
<path id="path1180" d="M10.6493 23.1261C10.1846 23.3185 9.69576 23.2158 9.21747 23.2409C9.09764 23.2473 8.97069 23.2068 8.98217 23.058C8.99032 22.9524 9.09847 22.9086 9.20045 22.9068C9.72182 22.8972 10.2435 22.8918 10.7648 22.8849C10.8345 23.0169 10.7186 23.0603 10.6493 23.1261Z" fill="#7E3733"/>
<path id="path1182" d="M12.1818 24.5381C11.6362 24.7287 11.0833 24.6309 10.5323 24.5755C10.417 24.5641 10.304 24.5319 10.1899 24.5092C10.1941 24.2896 10.3264 24.3639 10.4415 24.399C11.0297 24.2006 11.598 24.2716 12.1529 24.526L12.1818 24.5381Z" fill="#652A27"/>
<path id="path1184" d="M9.95017 25.6811C9.98835 25.7639 10.0263 25.8467 10.0645 25.9295C10.0363 25.9422 10.0067 25.9491 9.97597 25.9507C9.88465 26.0028 9.79668 26.0074 9.71361 25.9337C9.30401 25.8782 8.89458 25.8227 8.41309 25.7577C8.8305 25.5493 9.42908 25.5343 9.95017 25.6811Z" fill="#66302C"/>
<path id="path1186" d="M10.4412 24.3989C10.347 24.4118 10.2508 24.4204 10.1897 24.5091C10.0166 24.5279 9.84501 24.5315 9.67732 24.4701C9.51944 24.4121 9.34151 24.6038 9.19165 24.433C9.50551 24.2318 9.89815 24.2212 10.4412 24.3989Z" fill="#762E29"/>
<path id="path1188" d="M9.71426 25.9336C9.80172 25.9393 9.88891 25.945 9.97663 25.9506C9.8497 26.1993 9.7527 26.472 9.43307 26.6477C9.3855 26.31 9.65622 26.1622 9.71426 25.9336Z" fill="#833D35"/>
<path id="path1190" d="M10.6494 23.126C10.6881 23.0455 10.7265 22.9653 10.7652 22.8848C10.765 22.8848 10.7624 22.882 10.7624 22.882C10.9327 22.7922 11.1148 22.8469 11.2918 22.8381C11.3888 22.8634 11.4466 22.9235 11.4561 23.0254C11.2066 23.2155 10.9185 23.094 10.6494 23.126Z" fill="#80413B"/>
<path id="path1192" d="M11.3808 22.8983C11.1745 22.8931 10.9683 22.8877 10.7622 22.8823C11.0179 22.6958 11.313 22.8124 11.588 22.7747C11.6169 22.8028 11.6285 22.8328 11.6231 22.8645C11.6174 22.8967 11.6104 22.913 11.6019 22.9133C11.5256 22.9496 11.451 22.9561 11.3808 22.8983Z" fill="#9E4543"/>
<path id="path1194" d="M11.5693 22.8747C11.5815 22.8424 11.5877 22.8089 11.5884 22.7746C11.665 22.7725 11.7417 22.7704 11.8183 22.7686C11.8492 22.8058 11.8851 22.8378 11.9253 22.8649C11.8944 22.998 11.7922 22.9944 11.6888 22.9877C11.6503 22.9484 11.5722 22.9515 11.5693 22.8747Z" fill="#CB9F95"/>
<path id="path1196" d="M12.4325 24.316C12.4162 24.3524 12.4 24.3891 12.3837 24.4254C12.3058 24.4737 12.2297 24.4814 12.1572 24.4143C12.1841 24.282 12.1887 24.2804 12.4325 24.316Z" fill="#AD4E53"/>
<path id="path1198" d="M11.5693 22.875C11.6091 22.9126 11.6491 22.9506 11.6888 22.988C11.6114 23.0006 11.5337 23.013 11.4563 23.0256C11.4086 22.9967 11.3743 22.9599 11.3813 22.8985C11.444 22.8907 11.5066 22.8827 11.5693 22.875Z" fill="#C0C4BE"/>
<path id="path1200" d="M12.1571 24.4144C12.2327 24.418 12.3083 24.4219 12.3836 24.4255C12.3815 24.4637 12.3792 24.5018 12.3769 24.5403C12.3119 24.5395 12.2466 24.5387 12.1814 24.5377C12.1816 24.538 12.153 24.5261 12.1527 24.5261C12.1434 24.4882 12.145 24.451 12.1571 24.4144Z" fill="#CFEFEA"/>
<path id="path1202" d="M11.9249 22.8649C11.855 22.8711 11.831 22.8257 11.8179 22.7687C11.8942 22.7555 11.9156 22.8033 11.9249 22.8649Z" fill="#F4FBFB"/>
<path id="path1204" d="M1.99243 41.3763C2.03203 41.2968 2.07153 41.2174 2.11113 41.1379C2.76214 41.6554 3.45716 42.1133 4.20952 42.4583C5.15316 42.8909 6.14679 43.0968 7.18776 42.822C7.28127 42.7975 7.37572 42.7606 7.47024 42.7588C7.67178 42.7549 7.58118 42.9092 7.59067 43.0083C7.57212 43.0663 7.53291 43.1017 7.47347 43.1146C7.23453 43.0999 7.02301 43.2283 6.79212 43.2485C4.9768 43.4074 3.47369 42.693 2.1199 41.5682C2.06338 41.5213 2.03425 41.4411 1.99243 41.3763Z" fill="#5C66B9"/>
<path id="path1206" d="M7.47349 43.1145C7.51257 43.0792 7.55178 43.0438 7.59069 43.0082C7.63188 43.01 7.67301 43.0118 7.71423 43.0139C7.82398 42.9876 7.88101 43.0149 7.84221 43.1395C7.69426 43.8162 7.34973 44.4346 7.2531 45.1265C7.1101 45.1974 7.00812 45.313 6.92376 45.4433C6.85292 45.5527 6.76252 45.6267 6.64078 45.5514C6.52552 45.4802 6.53478 45.344 6.57629 45.2379C6.70205 44.9157 6.83548 44.5958 6.98101 44.2821C7.15886 43.8985 7.37522 43.5317 7.47349 43.1145Z" fill="#0D1321"/>
<path id="path1208" d="M14.2791 20.549C14.0159 20.209 14.5572 20.3658 14.4599 20.1001C14.286 20.0594 14.1168 19.8455 13.8338 19.8241C13.6548 19.8104 13.5753 19.6765 13.6393 19.4825C13.6689 19.3927 13.7092 19.2777 13.678 19.2011C13.5281 18.8316 13.542 18.4689 13.7515 18.0154C13.5064 18.1418 13.4618 18.3456 13.2575 18.3838C13.0965 18.3067 13.2185 17.9646 12.9012 17.961C12.7188 17.9589 12.6677 17.6235 12.8416 17.5663C13.1047 17.4796 13.2652 17.2796 13.4762 17.1385L13.4796 17.1414C13.4623 17.476 13.7133 17.5472 13.9519 17.5642C14.2306 17.5841 14.4901 17.591 14.6555 17.8629C14.6823 17.907 14.7483 17.9566 14.7945 17.9548C15.2075 17.9401 15.6193 18.0497 16.0328 17.9708L16.0315 17.9721C16.0898 17.9728 16.1494 17.9664 16.2064 17.9752C16.5988 18.0358 16.6076 18.06 16.3648 18.4307C16.647 18.447 16.8457 18.3848 16.9979 18.1158C17.1243 17.8926 17.2468 17.9243 17.3472 18.1872C17.3936 18.3092 17.4514 18.4199 17.5706 18.4207C17.8386 18.4222 18.0546 18.5314 18.2674 18.6738C18.3727 18.7439 18.4957 18.7604 18.5692 18.6271C18.7403 18.3185 18.9503 18.5164 19.1644 18.5386C19.0984 18.7272 18.886 18.6441 18.8264 18.7986C18.8381 18.9882 18.998 18.8853 19.088 18.9139C19.1639 18.9382 19.2777 18.9591 19.2733 19.0269C19.2542 19.3272 19.4616 19.6229 19.3148 19.9144C19.2511 20.0405 19.3004 20.1347 19.3024 20.2454C19.3107 20.7128 19.3251 21.1808 19.305 21.6472C19.2952 21.8784 19.249 22.0703 19.0189 22.2713C18.7839 22.4764 18.4753 22.8432 18.7563 23.2697C18.7898 23.3207 18.7937 23.3777 18.7189 23.3948C18.3569 23.4773 18.4403 23.7967 18.3789 24.0364C18.36 24.1096 18.3675 24.1917 18.3729 24.2691C18.3938 24.5642 18.0373 24.4574 17.9896 24.6145C17.9436 24.7657 18.2034 24.9406 18.0076 25.125C17.9656 25.1648 17.9274 25.2269 17.8786 25.237C17.7775 25.2581 17.7236 24.8967 17.5745 25.1967C17.5051 25.3363 17.4589 25.4787 17.4326 25.6366C17.3813 25.9439 17.2881 26.014 17.0049 25.8623C16.759 25.7308 16.5632 25.7991 16.5588 25.9949C16.5464 26.57 16.1584 26.5034 15.798 26.522C15.763 26.524 15.7289 26.5475 15.6905 26.5625C15.7292 26.7028 15.9647 26.5787 15.9639 26.8143C15.5468 26.9051 15.1276 26.8979 14.6874 26.8158C14.7512 26.5501 14.9715 26.6984 15.0411 26.6293C15.1074 26.5702 15.0984 26.5382 15.0427 26.5279C14.7955 26.483 14.5484 26.4389 14.3 26.4025C14.1944 26.3868 14.107 26.3703 14.1276 26.233C14.14 26.1502 14.1217 26.0571 14.0515 26.0269C13.4001 25.7473 13.7858 25.1864 13.7097 24.7553C13.6805 24.591 13.8369 24.5343 13.9878 24.5325C14.2409 24.5299 14.4942 24.535 14.7473 24.5263C14.8497 24.5224 14.9947 24.5861 15.0236 24.406C15.0422 24.2897 15.0669 24.1308 14.9271 24.1081C14.5845 24.0529 14.6281 23.7903 14.6139 23.5715C14.5953 23.2854 14.4153 23.0088 14.6431 22.6668C14.2226 22.7222 13.9927 22.5775 13.8464 22.2684C13.7951 22.1598 13.5879 22.118 13.6702 21.9478C13.7412 21.801 13.8805 21.7228 14.052 21.7215C14.0714 21.7213 14.0923 21.7251 14.1101 21.7195C14.2602 21.672 14.488 21.835 14.559 21.5869C14.6389 21.308 14.7019 21.0123 14.5626 20.7363C14.5154 20.6432 14.3441 20.6605 14.2791 20.549Z" fill="#040606"/>
<path id="path1210" d="M11.378 19.1318C11.4043 19.0975 11.4309 19.0632 11.4572 19.0289C11.8893 18.95 12.3222 18.8728 12.7538 18.7911C12.9169 18.7601 13.066 18.7671 13.1694 18.9164C13.2834 19.0808 13.2515 19.2487 13.1601 19.4094C13.0727 19.564 12.9491 19.6806 12.7966 19.7765C12.5841 19.9102 12.3836 20.0634 12.178 20.2084C11.773 20.5249 11.3788 20.8575 10.9312 21.1144C10.7442 21.2217 10.5641 21.4147 10.3172 21.2339L10.2997 21.2501C9.94572 20.3836 10.0889 19.8839 10.8363 19.3782C11.0104 19.282 11.2029 19.2258 11.378 19.1318Z" fill="#F46B5E"/>
<path id="path1212" d="M11.9523 21.1202C12.4842 20.8859 13.0203 20.6574 13.6137 20.6507C13.9921 20.6463 14.1301 20.7874 14.1286 21.1143C14.1278 21.2917 14.0259 21.4251 13.8925 21.4883C12.9566 21.9336 12.0062 22.3056 10.9699 21.7922C10.8876 21.7512 10.8246 21.671 10.7529 21.6091C10.7777 21.2543 11.0953 21.212 11.3228 21.0732C11.538 21.0134 11.7423 21.1052 11.9523 21.1202Z" fill="#F46C5E"/>
<path id="path1214" d="M19.5455 22.7647C19.602 22.9342 19.8329 22.8545 19.8979 23.0116C19.6551 23.0021 19.514 23.1079 19.5677 23.3599C19.668 23.8307 19.6949 24.3196 19.8961 24.7674C19.9018 24.8802 19.9077 24.9926 19.9139 25.1054C19.6869 25.4026 19.6175 25.7996 19.3144 26.0483L19.3141 26.0491C19.245 25.9864 19.2679 25.8796 19.2019 25.8153C19.1201 25.4702 19.0283 25.1271 18.9612 24.7793C18.9318 24.6279 18.874 24.5386 18.72 24.5198C18.8353 24.2628 18.9346 23.9974 19.0695 23.751C19.2788 23.3687 19.3992 22.9575 19.5169 22.5434C19.5264 22.6172 19.536 22.691 19.5455 22.7647Z" fill="#222842"/>
<path id="path1216" d="M11.3852 21.1386C11.1744 21.2954 10.9636 21.452 10.7531 21.6089C10.5929 21.5011 10.4154 21.4136 10.3169 21.2338C10.6334 21.226 10.8383 20.9933 11.0849 20.8473C11.4484 20.6327 11.7616 20.3324 12.178 20.2081C12.1008 20.367 11.929 20.4748 11.9262 20.674C11.8521 20.7748 11.8191 20.9036 11.7146 20.9835C11.6321 21.0934 11.4672 21.0274 11.3852 21.1386Z" fill="#652D2A"/>
<path id="path1218" d="M18.1262 17.639C18.1765 17.6575 18.2333 17.6666 18.2751 17.6965C18.3207 17.729 18.4353 17.7179 18.3883 17.8185C18.3726 17.8523 18.2939 17.857 18.2441 17.8748C18.0155 17.8144 17.7589 17.9104 17.5483 17.7499C17.7385 17.6991 17.9608 17.8175 18.1262 17.639Z" fill="#AA574C"/>
<path id="path1220" d="M11.3857 21.1387C11.4355 21.0061 11.5692 20.9682 11.6669 20.8895C11.6863 20.8884 11.7059 20.8869 11.7255 20.8859C11.7645 20.8928 11.8011 20.9057 11.8351 20.9259C11.8656 20.9506 11.8929 20.9785 11.9182 21.0087C11.9298 21.0458 11.9414 21.083 11.953 21.1201C11.7727 21.3897 11.5746 21.1227 11.3857 21.1387Z" fill="#D4948A"/>
<path id="path1222" d="M11.918 21.0085C11.8814 21.0073 11.845 21.0055 11.8086 21.0031C11.7797 20.9727 11.7488 20.944 11.7165 20.9172C11.7165 20.9172 11.667 20.8891 11.6667 20.8894C11.7238 20.7818 11.8213 20.7232 11.9265 20.6739C11.95 20.7862 11.9621 20.8981 11.918 21.0085Z" fill="#B4BAB5"/>
<path id="path1224" d="M14.4519 26.8156C14.4347 26.845 14.4223 26.8796 14.3983 26.9026C14.364 26.9356 14.3227 26.9253 14.317 26.8793C14.3134 26.8517 14.3366 26.8063 14.3606 26.7939C14.3818 26.7831 14.421 26.8068 14.4519 26.8156Z" fill="#221314"/>
<path id="path1226" d="M18.7189 24.5235C18.7269 24.6228 18.705 24.709 18.6129 24.7639C18.6036 24.6641 18.6291 24.58 18.7189 24.5235Z" fill="#212842"/>
<path id="path1228" d="M16.0329 17.9709C16.0159 17.9618 15.9836 17.9492 15.9846 17.9448C15.9944 17.9043 16.0128 17.9139 16.0316 17.9722L16.0329 17.9709Z" fill="#231617"/>
<path id="path1230" d="M14.9617 13.6522C14.9733 13.9901 14.9854 14.3281 14.9973 14.6663C15.037 14.7496 15.0277 14.8482 15.0788 14.9281C15.0791 14.9673 15.0793 15.0066 15.0796 15.0455C15.011 15.1172 14.9431 15.1164 14.8758 15.0445C14.8838 14.7194 14.6689 14.4454 14.698 14.0992C14.7171 13.8712 14.7819 13.7481 14.9617 13.6522Z" fill="#F2ECEE"/>
<path id="path1232" d="M14.875 15.0444C14.9428 15.0446 15.0107 15.0451 15.0788 15.0454C15.0974 15.3581 15.116 15.6707 15.1348 15.9832C14.8993 15.7115 14.9302 15.3661 14.875 15.0444Z" fill="#ECD8DC"/>
<path id="path1234" d="M13.1067 14.5852C13.1185 14.5217 13.0925 14.4338 13.1944 14.4263C13.2158 14.4245 13.2612 14.4696 13.2599 14.4913C13.255 14.5942 13.1665 14.5692 13.1028 14.5816L13.1067 14.5852Z" fill="#CED1E3"/>
<path id="path1236" d="M7.84196 43.1394C7.79932 43.0976 7.75681 43.0558 7.71398 43.0138C7.70743 42.4898 7.98597 42.0621 8.18892 41.6088C8.23708 41.5343 8.28545 41.4597 8.33403 41.3849C8.52117 41.0335 8.7082 40.6824 8.89544 40.331C9.09739 40.4833 8.96757 40.6396 8.89684 40.7903C8.6676 41.2773 8.45768 41.7757 8.19356 42.2432C8.03101 42.5308 8.096 42.8966 7.84196 43.1394Z" fill="#12182A"/>
<path id="path1238" d="M3.88263 37.0711C3.87164 37.1513 3.84595 37.2241 3.75929 37.2481C3.71546 37.2602 3.68179 37.2328 3.69167 37.1952C3.71234 37.116 3.76765 37.0631 3.84445 37.0332L3.88263 37.0711Z" fill="#616786"/>
<path id="path1240" d="M3.84424 37.0331C3.86993 37.0197 3.89563 37.0066 3.92132 36.9934C3.90822 37.0192 3.89511 37.045 3.88214 37.071C3.88242 37.071 3.84424 37.0331 3.84424 37.0331Z" fill="#616786"/>
<path id="path1242" d="M22.8072 47.4517C22.8508 47.4184 22.8946 47.3848 22.9385 47.3513C23.3438 47.3516 23.7496 47.3539 24.1551 47.3505C24.3295 47.3492 24.4755 47.3908 24.4665 47.5964C24.4079 48.9095 24.2815 50.21 23.6776 51.4101C23.6559 51.4532 23.5806 51.4694 23.5303 51.498C23.182 51.3851 22.8263 51.4465 22.4728 51.4534C22.3854 51.4199 22.2979 51.3863 22.2102 51.3531C22.4599 51.3528 22.5974 51.2282 22.6485 50.9839C22.7393 50.5502 22.8758 50.123 22.9284 49.6852C22.9839 49.2255 23.0298 48.7663 23.1516 48.3195C23.2272 48.0432 23.0876 47.7942 23.0675 47.5309C23.0651 47.4981 22.898 47.4777 22.8072 47.4517Z" fill="#C25A51"/>
<path id="path1244" d="M12.9563 51.6112C12.97 51.6058 12.9854 51.5934 12.9971 51.5963C13.0412 51.6079 13.0461 51.6321 13.0087 51.6554C12.9991 51.6613 12.9767 51.6551 12.9653 51.6471C12.9576 51.6417 12.9589 51.6236 12.9563 51.6112Z" fill="#1E3132"/>
<path id="path1246" d="M8.63838 51.7416C8.62517 51.7521 8.61126 51.7717 8.59898 51.7707C8.58647 51.7699 8.57569 51.7485 8.56421 51.7361C8.57742 51.7256 8.59132 51.7062 8.6036 51.707C8.61601 51.708 8.62679 51.7292 8.63838 51.7416Z" fill="#818788"/>
<path id="path1248" d="M24.1162 47.1149C24.1291 47.0401 24.1309 46.9475 24.2127 46.9209C24.7163 46.7573 25.1953 46.496 25.7495 46.5316C25.7077 46.5912 25.6262 46.6554 25.6324 46.7096C25.644 46.8118 25.7518 46.7592 25.8178 46.7653C25.9123 46.7744 26.0082 46.7684 26.1034 46.7687C26.0461 46.8691 25.9404 46.8789 25.8447 46.9078C25.7459 46.908 25.6473 46.908 25.5488 46.908C25.5116 46.9243 25.4727 46.9333 25.4324 46.9359C25.3935 46.9547 25.3966 46.8391 25.3416 46.907C25.3395 46.9508 25.3186 46.9813 25.2787 46.9988C25.241 47.0001 25.2031 47.0022 25.1651 47.005C25.1004 47.0726 24.9915 47.0452 24.9281 47.1154C24.6574 47.0551 24.3868 47.3076 24.1162 47.1149Z" fill="#0E1321"/>
<path id="path1250" d="M27.2656 46.8887C27.3283 46.9096 27.3668 46.9521 27.382 47.0161C27.3433 46.9738 27.3046 46.9312 27.2656 46.8887Z" fill="#535EB2"/>
<path id="path1252" d="M25.3982 46.8817C25.4483 46.8902 25.4986 46.8989 25.5489 46.9077C25.5399 46.941 25.5251 46.9714 25.5043 46.9988C25.4292 46.9988 25.3541 46.9988 25.2793 46.9985C25.2811 46.9614 25.2824 46.9242 25.2827 46.8868C25.3193 46.8492 25.358 46.8474 25.3982 46.8817Z" fill="#212842"/>
<path id="path1254" d="M24.928 47.1153C24.9822 47.025 25.0683 47.0033 25.1651 47.0048C25.1122 47.098 25.0252 47.1178 24.928 47.1153Z" fill="#212842"/>
<path id="path1256" d="M30.1973 22.304C30.1991 22.209 30.2189 22.1229 30.3095 22.0705C30.3121 22.1675 30.2914 22.2534 30.1973 22.304Z" fill="#2A3259"/>
<path id="path1258" d="M2.92398 39.7436C2.90724 39.7609 2.89042 39.7779 2.87378 39.7952C2.8762 39.7836 2.87471 39.7671 2.88175 39.7616C2.89375 39.7526 2.91098 39.7505 2.9261 39.7456L2.92398 39.7436Z" fill="#2A3259"/>
<path id="path1260" d="M16.983 16.1915C17.0684 16.2576 17.0839 16.3486 17.0741 16.4485C16.9805 16.385 16.9719 16.2919 16.983 16.1915Z" fill="#F3625F"/>
<path id="path1262" d="M17.6731 17.2778C17.7084 17.316 17.7435 17.3541 17.7786 17.3926C17.7435 17.3541 17.7082 17.316 17.6731 17.2778Z" fill="#D25C4F"/>
<path id="path1264" d="M11.3779 19.1318C11.2327 19.2915 11.0516 19.3717 10.8362 19.3782C10.9825 19.2208 11.1452 19.099 11.3779 19.1318Z" fill="#B3978A"/>
<path id="path1266" d="M10.0072 21.0509L10.0201 21.0845L9.9873 21.0809L10.0072 21.0509Z" fill="#814235"/>
<path id="path1268" d="M13.6838 28.0332C13.6998 27.9687 13.7424 27.9377 13.8072 27.9344C13.7661 27.9672 13.7249 28.0002 13.6838 28.0332Z" fill="#212842"/>
<path id="path1270" d="M19.2018 25.8153C19.2915 25.8682 19.3117 25.9541 19.3137 26.0491C19.2178 25.9993 19.1984 25.9126 19.2018 25.8153Z" fill="#2A3259"/>
<path id="path1272" d="M33.4755 25.9333L33.4268 25.9065L33.4487 25.8846L33.4755 25.9333Z" fill="#0C121E"/>
<path id="path1274" d="M28.2051 51.9158C28.2598 51.9179 28.315 51.9153 28.3686 51.9236C28.4011 51.9285 28.4594 51.9581 28.4579 51.9636C28.4388 52.0329 28.3774 52.034 28.3289 52.0128C28.2822 51.993 28.2461 51.9486 28.2053 51.915C28.2053 51.9148 28.2051 51.9158 28.2051 51.9158Z" fill="#2A3259"/>
<path id="path1276" d="M28.4425 51.6834L28.4157 51.7322L28.394 51.7103L28.4425 51.6834Z" fill="#2A3259"/>
<path id="path1278" d="M21.3025 26.6356C21.3688 26.6996 21.4241 26.7896 21.5033 26.8239C21.9359 27.0097 21.938 27.0048 21.7571 27.4668C21.3861 27.3437 21.1558 27.0636 20.9556 26.7499C20.9883 26.7052 21.0232 26.6619 21.0536 26.616C21.1119 26.5272 20.9311 26.3583 21.1026 26.3394C21.2597 26.3224 21.2894 26.4976 21.3025 26.6356Z" fill="#CF5C50"/>
<path id="path1280" d="M25.2862 28.1653C25.1794 27.9721 25.2269 27.8155 25.3992 27.6883C25.5014 27.6364 25.626 27.6065 25.7008 27.5283C25.8814 27.34 25.9923 27.4631 26.1138 27.589C25.9219 27.9019 25.6781 28.1397 25.2862 28.1653Z" fill="#C3584D"/>
<path id="path1282" d="M26.1134 27.5867C26.085 27.3891 26.181 27.3821 26.3249 27.4487C26.288 27.5462 26.2088 27.5792 26.1134 27.5867Z" fill="#C3584D"/>
<path id="path1284" d="M21.7598 27.4607C21.8026 27.4973 21.8452 27.5337 21.8877 27.5703C21.8255 27.5566 21.7794 27.5241 21.7598 27.4607Z" fill="#CF5C50"/>
<path id="path1286" d="M19.7805 7.32305C19.5088 7.38935 19.2222 7.47268 18.9944 7.59496C18.764 7.71879 18.6557 7.56401 18.4932 7.5573C18.6379 7.34447 18.8902 7.32253 19.0989 7.24514C19.6035 7.05811 20.0256 6.72144 20.5155 6.50784C20.7025 6.42632 20.8743 6.38608 21.0675 6.38608C20.8913 6.53003 20.7058 6.6474 20.4982 6.75292C20.2335 6.88758 20.0692 7.19071 19.7805 7.32305Z" fill="#DF6456"/>
<path id="path1288" d="M21.887 5.68403C21.6847 6.00057 21.4172 6.24126 21.0674 6.38599C21.2046 5.99309 21.4234 5.69589 21.887 5.68403Z" fill="#DF6456"/>
<path id="path1290" d="M17.0991 15.2487C17.6894 15.6142 18.3653 15.4868 19.0038 15.5696C19.117 15.5843 19.2953 15.5221 19.2698 15.3403C19.2514 15.2123 19.1219 15.1775 19.0015 15.1734C18.7136 15.1636 18.4259 15.1569 18.1383 15.1491C18.1135 15.0632 17.9014 15.031 18.0717 14.8875C18.1744 14.8011 18.2693 14.7299 18.4066 14.6842C18.6516 14.6022 19.0162 14.6649 19.0466 14.2449C19.052 14.1734 19.1614 14.1879 19.2424 14.1876C19.699 14.185 19.8324 14.0568 19.7401 13.6082C19.6815 13.3239 19.7401 13.2047 20.0145 13.1751C20.1301 13.4746 20.2377 13.7749 20.3241 14.086C20.3762 14.2733 20.6966 14.4407 20.6745 14.5818C20.637 14.8184 20.7449 14.9814 20.7862 15.1762C20.7939 15.2128 20.8174 15.2464 20.8334 15.2815C20.7877 16.0208 20.3989 16.6059 19.9351 17.1317C19.5569 17.5599 18.8015 17.6608 18.3194 17.3308C17.8617 17.0179 17.4172 16.6542 17.2052 16.1005C16.9286 15.8467 17.0001 15.5495 17.0991 15.2487Z" fill="#F46C5F"/>
<path id="path1292" d="M23.5266 14.2284C23.6561 14.2215 23.7588 14.2927 23.8682 14.345C23.9941 14.3719 24.0537 14.4619 24.0885 14.5757C23.8847 15.0671 24.1442 15.6607 23.7531 16.1117C23.6456 16.1653 23.5462 16.2285 23.505 16.3531C23.2496 16.6369 22.9978 16.7427 22.7068 16.3833C22.5644 16.2074 22.1284 15.5782 22.0051 15.282C22.0048 15.2431 22.0048 15.2041 22.0046 15.1654C21.9246 15.0096 21.8908 14.8631 22.0845 14.7624C22.1109 14.7016 22.1864 14.8545 22.2004 14.7348C22.1926 14.5808 22.2422 14.4505 22.3552 14.3455L22.3557 14.3448C22.3918 14.3084 22.4338 14.2976 22.4823 14.3159C22.5179 14.3507 22.5102 14.4088 22.5492 14.4423C22.5275 14.3935 22.535 14.3425 22.5378 14.2914C22.6828 14.1485 22.8538 14.0816 23.0584 14.1118C23.1557 14.1853 23.2346 14.272 23.2594 14.3956C23.2865 14.4229 23.2847 14.4578 23.2818 14.4926C23.3068 14.4637 23.303 14.4338 23.2699 14.4031C23.3084 14.2751 23.4015 14.2282 23.5266 14.2284Z" fill="#F2585E"/>
<path id="path1294" d="M23.6523 16.1018C23.7506 15.913 23.7343 15.6857 23.8837 15.5059C23.9557 15.4192 24.0888 15.2301 23.7751 15.1971C23.5475 15.1731 23.723 14.9827 23.7648 14.9569C23.9188 14.8612 24.0387 14.7668 23.9982 14.5637C24.0718 14.4701 23.9833 14.338 24.0733 14.2482C24.2683 14.363 24.5 14.2438 24.6971 14.3457C24.4223 14.5139 24.5335 14.8106 24.4628 15.0469C24.4407 15.0714 24.4136 15.0887 24.3834 15.0988C24.3504 15.1029 24.3328 15.1225 24.3339 15.1568C24.3524 15.1808 24.3726 15.2015 24.3965 15.2193C24.4205 15.2389 24.4422 15.2598 24.4623 15.2825C24.4899 15.4956 24.2234 15.6245 24.3235 15.8805C24.4022 16.0825 24.3914 16.3283 24.0356 16.2313C23.8403 16.6376 23.1528 16.4127 23.0687 16.9831C23.0618 17.0321 22.866 17.0811 22.7584 17.0803C22.6475 17.0793 22.6062 16.9725 22.6253 16.8641C22.6751 16.5801 22.5228 16.6077 22.3152 16.6193C22.1645 16.6276 21.88 16.7137 21.8877 16.6567C21.9163 16.4403 21.7363 16.2674 21.777 16.0964C21.8418 15.8242 21.7492 15.5002 22.0048 15.2819C22.2871 15.2721 22.4155 15.3663 22.285 15.6661C22.2037 15.8536 22.1852 15.9813 22.4872 15.9793C22.6113 15.9785 22.7419 16.1988 22.8611 16.3262C23.1278 16.6116 23.1513 16.6082 23.4111 16.2133C23.4769 16.1444 23.5548 16.1021 23.6523 16.1018Z" fill="#F35E5E"/>
<path id="path1296" d="M23.058 14.1119C22.9501 14.2862 22.7556 14.2862 22.59 14.344C22.5505 14.4021 22.5105 14.4021 22.4703 14.3451H22.4128L22.3552 14.3448C22.3186 14.2153 22.1654 14.1495 22.1641 13.9372C22.4553 14.1015 22.826 13.5533 23.058 14.1119Z" fill="#F35E5E"/>
<path id="path1298" d="M23.2923 14.4626C23.1368 14.3974 23.0584 14.2805 23.0581 14.1118C23.2387 14.0458 23.2745 13.931 23.1732 13.77C23.2031 13.7431 23.2137 13.7155 23.2044 13.6879C23.1954 13.6598 23.1855 13.6459 23.176 13.6459C23.4662 13.4135 23.369 13.8123 23.5057 13.8494C23.8627 13.9464 23.4348 14.1051 23.5263 14.2284C23.4484 14.3066 23.3703 14.3847 23.2923 14.4626Z" fill="#F35E5E"/>
<path id="path1300" d="M22.3547 14.3454C22.3735 14.5157 22.3186 14.6679 22.2386 14.8137C22.001 14.8245 22.0028 14.995 22.0041 15.1653C21.9349 15.1199 21.9068 15.051 21.8828 14.9744C21.7115 14.4298 21.7639 14.3586 22.3547 14.3454Z" fill="#F35E5E"/>
<path id="path1302" d="M24.073 14.2482C24.1311 14.3731 24.1471 14.4881 23.998 14.5637C23.9544 14.491 23.911 14.418 23.8677 14.345C23.9198 14.2787 23.9941 14.2583 24.073 14.2482Z" fill="#361815"/>
<path id="path1304" d="M24.3532 15.0364C24.3893 15.0413 24.426 15.0449 24.4624 15.0469C24.4621 15.1254 24.4621 15.204 24.4618 15.2825C24.4211 15.2812 24.3801 15.2799 24.3393 15.2786C24.2802 15.2234 24.2738 15.1574 24.3003 15.0849C24.3181 15.0686 24.3354 15.0524 24.3532 15.0364Z" fill="#F2585E"/>
<path id="path1306" d="M23.1759 13.6459C23.3049 13.69 23.2843 13.7311 23.1731 13.77C23.1741 13.7285 23.1749 13.6872 23.1759 13.6459Z" fill="#692916"/>
<path id="path1308" d="M16.7893 13.895C16.8043 13.9791 16.7653 14.0224 16.713 14.041C16.6209 14.0743 16.5597 14.016 16.5538 13.9357C16.5512 13.9001 16.6198 13.8346 16.6637 13.8274C16.7039 13.8209 16.754 13.8741 16.7893 13.895Z" fill="#602627"/>
<path id="path1310" d="M16.071 15.2206C16.135 15.2162 16.1837 15.248 16.1956 15.3057C16.2108 15.3816 16.1468 15.3976 16.0911 15.395C16.0571 15.3935 16.0031 15.3733 15.9946 15.3491C15.9737 15.2882 16.0137 15.2449 16.071 15.2206Z" fill="#90413D"/>
<path id="path1312" d="M15.5479 15.751C15.6217 15.7327 15.7117 15.7087 15.7354 15.8047C15.7566 15.8911 15.6647 15.9267 15.6031 15.9685C15.4769 15.9234 15.5161 15.8364 15.5479 15.751Z" fill="#532D28"/>
<path id="path1314" d="M15.8404 14.2731C15.8633 14.2898 15.9057 14.3107 15.9031 14.3205C15.8956 14.3502 15.8711 14.3757 15.8533 14.4031C15.8404 14.3907 15.8161 14.3775 15.8169 14.3659C15.8185 14.336 15.8311 14.3063 15.8404 14.2731Z" fill="#562A23"/>
<path id="path1316" d="M15.5475 15.7509C15.5658 15.8234 15.5841 15.8959 15.6027 15.9684C15.5519 15.9735 15.5005 15.979 15.4495 15.9841L15.4497 15.9844C15.451 15.8936 15.466 15.8084 15.5475 15.7509Z" fill="#E1675F"/>
<path id="path1318" d="M17.3305 14.9211C17.152 14.5656 17.1533 14.4944 17.4569 14.3559C17.8034 14.198 18.1553 14.0533 18.4783 13.8485C18.4899 14.4052 18.3643 14.577 17.8083 14.6869C17.62 14.7243 17.4221 14.7024 17.3305 14.9211Z" fill="#EB5C5C"/>
<path id="path1320" d="M18.6194 13.06C18.7935 12.4463 18.9628 11.8318 18.9695 11.1868C19.0417 11.1167 19.1139 11.1164 19.1862 11.1868C19.1887 11.5109 19.2096 11.8359 19.1887 12.1581C19.1673 12.4847 19.0848 12.8015 18.8614 13.0608C18.7809 13.0605 18.7001 13.0603 18.6194 13.06Z" fill="#6F2F2D"/>
<path id="path1322" d="M19.1862 11.1868C19.114 11.1868 19.0417 11.1868 18.9692 11.1868C18.9695 11.0351 18.9695 10.8834 18.9698 10.732C19.2907 10.7652 19.1723 11.0075 19.1862 11.1868Z" fill="#7E3531"/>
<path id="path1324" d="M17.5543 15.0414L17.4984 15.0425L17.4452 15.0242C17.4148 15.0038 17.4047 14.9831 17.4145 14.9625C17.4243 14.9419 17.4344 14.9313 17.4444 14.9313C17.4811 14.9679 17.5177 15.0046 17.5543 15.0414Z" fill="#F46C5F"/>
<path id="path1326" d="M17.4439 14.9313C17.4429 14.9623 17.4431 14.9935 17.4447 15.0242C17.3804 15.0216 17.3461 14.9857 17.3337 14.9254C17.3704 14.9274 17.4073 14.9295 17.4439 14.9313Z" fill="#EB5C5C"/>
<path id="path1328" d="M28.5582 13.9917C28.5502 14.0087 28.5453 14.0283 28.5334 14.042C28.4643 14.1243 28.4096 14.244 28.2692 14.1699C28.2484 14.1591 28.2334 14.1005 28.2429 14.0737C28.309 13.8879 28.4374 13.9457 28.5628 13.9989L28.5582 13.9917Z" fill="#6F302B"/>
<path id="path1330" d="M28.0981 14.7041C28.0816 14.6876 28.0651 14.6711 28.0486 14.6546C28.0584 14.6577 28.0713 14.6579 28.0772 14.6646C28.0868 14.6755 28.0917 14.6904 28.0984 14.7038C28.0986 14.7038 28.0981 14.7041 28.0981 14.7041Z" fill="#C75E53"/>
<path id="path1332" d="M15.0787 14.9282C14.9897 14.8604 14.983 14.7667 14.9972 14.6666C15.0824 14.7358 15.0952 14.8274 15.0787 14.9282Z" fill="#ECD8DC"/>
<path id="path1334" d="M18.1125 23.5825C18.032 23.5725 17.9497 23.5382 17.9613 23.4507C17.9817 23.2954 18.1153 23.241 18.2474 23.2136C18.349 23.1927 18.3694 23.2786 18.3694 23.3563C18.3692 23.525 18.2747 23.5939 18.1125 23.5825Z" fill="#050606"/>
<path id="path1336" d="M14.4542 20.4443C14.4808 20.4633 14.5076 20.4824 14.5342 20.5018C14.4854 20.5173 14.4374 20.5364 14.3874 20.5467C14.3528 20.5539 14.3157 20.5487 14.2795 20.549C14.319 20.4832 14.375 20.4443 14.4542 20.4443Z" fill="#050606"/>
<path id="path1338" d="M11.7159 20.9172C11.7763 20.9141 11.8 20.9505 11.808 21.0031C11.7459 21.008 11.7136 20.9812 11.7159 20.9172Z" fill="#F6FCFD"/>
<path id="path1340" d="M25.398 46.8818C25.3593 46.8849 25.3209 46.8864 25.2825 46.887C25.3178 46.8196 25.3563 46.814 25.398 46.8818Z" fill="#0C121E"/>
<path id="path1342" d="M21.2991 26.6896C21.2857 26.7221 21.2743 26.7807 21.2583 26.782C21.2132 26.7856 21.1951 26.7461 21.2222 26.7059C21.2413 26.6775 21.2851 26.6334 21.3001 26.6396C21.3718 26.669 21.3024 26.6117 21.2991 26.6896Z" fill="#D55E52"/>
<path id="path1344" d="M23.6523 16.1019C23.5969 16.1932 23.511 16.218 23.4111 16.2133C23.4289 16.041 23.473 15.9254 23.6523 16.1019Z" fill="#AA463F"/>
<path id="path1346" d="M23.3746 14.7783C23.3838 14.8438 23.3488 14.8841 23.2897 14.8903C23.2613 14.8936 23.2151 14.8715 23.2015 14.8472C23.1728 14.7954 23.1878 14.7334 23.2438 14.7133C23.2956 14.6945 23.347 14.7239 23.3746 14.7783Z" fill="#4C2625"/>
<path id="path1348" d="M23.4438 14.506C23.4343 14.5207 23.4211 14.5493 23.416 14.5481C23.3829 14.5388 23.3463 14.5295 23.3213 14.5078C23.2712 14.465 23.2834 14.4462 23.3463 14.466C23.3796 14.4769 23.4113 14.4923 23.4438 14.506Z" fill="#F35E5E"/>
<path id="path1350" d="M22.47 14.3451C22.5097 14.3446 22.5497 14.3443 22.5897 14.3441C22.5794 14.4029 22.6142 14.4927 22.5084 14.4857C22.4927 14.4847 22.4826 14.3941 22.47 14.3451Z" fill="#8B3C31"/>
<path id="path1352" d="M22.7314 15.5528C22.7304 15.5664 22.7345 15.5873 22.7273 15.5922C22.7141 15.6015 22.6909 15.6098 22.6783 15.6041C22.6249 15.5809 22.6267 15.5538 22.6826 15.5375C22.6963 15.5337 22.7149 15.5471 22.7314 15.5528Z" fill="#732E27"/>
<path id="path1354" d="M22.2388 14.8138C22.255 14.8229 22.2862 14.835 22.2849 14.8404C22.2764 14.8794 22.2581 14.8698 22.2388 14.8138Z" fill="#F35E5E"/>
<path id="path1356" d="M24.2363 15.2781C24.1252 15.2082 24.0756 15.1114 24.1669 15.0023C24.225 14.9329 24.2993 14.977 24.3537 15.0363L24.3486 15.0438C24.2696 15.1019 24.305 15.2149 24.2363 15.2781Z" fill="#F2585E"/>
<path id="path1358" d="M24.236 15.278C24.2229 15.1759 24.2123 15.0745 24.3483 15.0438C24.3454 15.122 24.3426 15.2004 24.3395 15.2786C24.3049 15.2786 24.2706 15.2783 24.236 15.278Z" fill="#6C302C"/>
</g>
</svg>
