<svg xmlns="http://www.w3.org/2000/svg" width="45" height="54" fill="none" xmlns:v="https://vecta.io/nano"><style><![CDATA[.B{fill:#2a3259}.C{fill:#212842}.D{fill:#f46c5f}.E{fill:#0c121e}.F{fill:#535eb2}.G{fill:#f3645f}.H{fill:#f3625f}.I{fill:#cf5c50}.J{fill:#f2585e}.K{fill:#f35e5e}]]></style><path d="M10.537 51.444c-.032-.385-.059-.773.037-1.152.237-.941.295-1.902.333-2.865.004-.113-.019-.235.086-.321.361.155.169.453.189.698l.228-2.893c.21-2.353.658-4.669 1.059-6.992l.291-1.671.655-4.778c.066-.538.217-1.063.36-1.588l.188-.408c.03-.051.07-.094.116-.131.619-.418 1.371-.51 2.031-.838a10.21 10.21 0 0 0 2.677-1.897c.084-.083.175-.153.303-.148.428.29.502.805.747 1.209.743 1.222 1.692 2.152 3.139 2.473.309.068.607.118.913.018 1.874-.162 3.126-1.334 4.191-2.706 1.16-1.495 1.848-3.239 2.311-5.069.044-.174-.026-.463.319-.419.468.584 1.196.59 1.826.804.383.131.795.173 1.187.285.261.074.474.187.45.511-.291.844-.744 1.635-.836 2.545-.267 1.525-.25 3.049-.141 4.594.196 2.768.767 5.473 1.187 8.205l.629 3.98c.029.273.054.543-.012.814-.122.368-.447.4-.755.443l-4.003.426c-1.27.213-2.512.524-3.754.859l-5.154 1.503c-.828.278-1.685.49-2.444.947-.739.375-1.553.564-2.27 1.015-1.233.776-2.414 1.605-3.447 2.636-.676.101-1.353.135-2.031.031-.089-.068-.183-.109-.293-.039-.117.021-.228.017-.311-.084zm26.799-27.83c.344.311.637.659.92 1.031.965 1.27 1.366 2.769 1.779 4.257l.779 3.055c.113.658.295 1.31.513 1.942.261.755.385 1.539.582 2.306l1.297 6.002.421 1.98c.136.447.155.96.154 1.437-.002.7.14 1.379.202 2.067.102 1.14-.153 2.193-.491 3.254-.189.592-.611 1.022-.95 1.511a.41.41 0 0 1-.176.149c-.686.258-1.3.68-2.041.82-1.014.191-2.019.22-3.052.172-.832-.039-1.643-.178-2.46-.283-.832-.107-1.659-.033-2.487-.073l-2.67-.076-1.791-.108c-.187-.172-.211-.341.005-.508a.44.44 0 0 0 .193-.28c.03-.041.068-.074.111-.099.202-.087.378-.185.208-.446-.024-.051-.041-.103-.054-.158-.09-.342.117-.686-.01-1.028-.086-.671.032-1.36-.187-2.018-.126-.568-.312-1.111-.656-1.588-.052-.058-.11-.108-.186-.135a1.14 1.14 0 0 1-.157-.058c-.054-.029-.093-.07-.119-.125.014-.064.048-.113.102-.15 2.255-.44 4.503-.926 6.808-1.037.351-.017.694-.096 1.046-.118.568-.035.684-.161.622-.735l-.401-2.955-1.591-9.744c-.191-1.545-.238-3.102-.325-4.655a.84.84 0 0 1 .055-.344c.198-.49.211-1.024.354-1.526.2-.705.373-1.43.959-1.948.837-.12 1.639.19 2.466.203.076.001.152.02.23.01z" class="B"/><path d="M30.759 13.646c-.256.494-.455 1.023-.87 1.421-.088.085-.113.198-.137.312-.177.287-.489.366-.771.478-.733.292-.736.284-.625 1.044-.046.383.106.755.066 1.137-.169.217-.07.442-.013.662.215.825.526 1.609.991 2.328.369.266.107.603.104.912-.175.604-.391 1.194-.658 1.764l-.203.261a1.31 1.31 0 0 1-.101.129c-.998.927-1.844 1.989-2.656 3.074-.29.388-.653.451-1.077.432-.776-.078-1.576-.012-2.303-.384-1.004-.446-1.472-1.375-2.006-2.241-.152-.248-.119-.484.175-.627 2.073-.541 3.676-1.74 4.847-3.517.331-.502.269-1.108.383-1.711-.262.093-.288.294-.401.42-.858 1-1.695 2.023-2.918 2.617-.081.029-.165.046-.25.056-.472.032-.912.196-1.358.334-.165.051-.351.132-.498-.014-.156-.154-.147-.367-.064-.549.299-.647.349-1.354.509-2.034.049-.21.065-.425.066-.639.005-.671-.19-.877-.891-.955-.384-.056-.754-.158-1.105-.325-.116-.14-.012-.238.095-.257.939-.162 1.353-.898 1.79-1.611a.76.76 0 0 1 .146-.179c.34-.053.408.246.531.44.463.735.632.825 1.468.687.123-.02.228.039.342.05a.92.92 0 0 0 1.023-.658c.055-.168.105-.342.211-.477.408-.521.26-1.058.074-1.6a.89.89 0 0 1-.079-.143c-.401-.786-1.074-1.19-1.851-1.13-.283.022-.532.094-.72.319-.156.187-.362.267-.595.331-.649.18-1.131-.01-1.466-.59-.367-.37-.42-.754-.076-1.176.163-.2-.045-1.339-.264-1.386-.195-.042-.391.099-.568.205-.506.712-.781 1.519-.99 2.356-.061.244-.161.481-.337.675-.046.036-.098.06-.155.074-.358.006-.38-.26-.416-.513-.009-.052.078-.099.04-.134s-.063.061-.117.061c-.666.063-1.312.168-1.75.756-.203-.239-.186-.523-.165-.809.096-.287.323-.485.517-.694.634-.683.862-1.486.788-2.395.438-.239.853-.132 1.265.078.114.058.247.182.362.038s.018-.295-.087-.412c-.32-.362-.717-.419-1.162-.286-.239.071-.445.24-.708.244-.551-.182-.59-.247-.318-.693.149-.244.242-.522.438-.739 1.23-.034 2.325-.547 3.442-.98 1.002-.446 2.011-.879 2.871-1.585.15-.124.317-.224.529-.184.651.389 1.208.903 1.797 1.372.319.254.315.692.409 1.069l.893 3.843c.18.141.168.343.153.534-.02.261-.02.491.235.667.3.206.078.396-.055.582-.09.126-.115.285.055.332.151.042.161-.135.174-.242.032-.253.128-.488.192-.732.308-1.193 1.683-1.888 2.829-1.428.685.274 1.056 1.01.973 1.931z" class="D"/><path d="M30.758 13.646c-.145-.141-.076-.333-.115-.5-.262-1.125-.767-1.505-1.919-1.363-.478.059-.953.186-1.301.582-.16.182-.269.353-.281.612-.019.422-.284.799-.247 1.244.011.131-.125.238-.298.187-.212-.063-.313-.223-.357-.423-.038-.171.021-.269.193-.364.281-.156.274-.2-.015-.329-.241-.108-.301-.26-.249-.506.056-.262.123-.535-.062-.782-.202-1.072-.279-2.16-.263-3.244.025-1.668-1.502-3.371-2.782-3.968-.316-.147-.603-.049-.887.111l-2.128 1.332c-.987.635-2.072 1.072-3.135 1.552-.159.072-.331.122-.511.067-.395-.391-.528-.969-1.009-1.318-.256-.186-.678-.107-.789-.502.255-.526.647-.958.981-1.43.068-.095.262-.172.18-.296-.129-.197.034-.213.116-.307.42-.483 1.016-.686 1.544-.996l.001.001c-.124-.008-.242-.052-.25-.185-.007-.111.114-.133.203-.161l.657-.202c.224-.058.439-.088.517-.374.047-.169.252-.14.403-.155.091-.078.211-.024.31-.067-.106.014-.214.048-.307-.038-.082-.048-.185-.087-.192-.196-.008-.136.117-.146.203-.148l1.16-.012c.054-.005.068-.031.042-.078-.012-.021-.028-.031-.046-.031-.082-.073-.134-.189-.002-.216.347-.07.723-.029.995-.335.034-.038.148-.005.226-.005L24.95.779c.336.008.673.033.969.16 1.137.488 2.327.879 3.316 1.659a.34.34 0 0 0 .468.014c.245-.179.53-.236.816-.287.186-.033.351.024.439.206.085.175-.035.291-.137.41-.14.163-.299.303-.486.411-.043.045-.107.076-.109.151a.19.19 0 0 1 .095-.058c.284.029.582-.076.846.13.217.169.237.293.033.454-.395.311-.397.312-.244.771.507 1.519.812 3.081 1.025 4.667.078.582.102 1.161.125 1.744a2.38 2.38 0 0 1-.116.859c-.031.093-.041.234-.132.243-.415.038-.453.384-.56.661-.111.287-.345.46-.54.672z" fill="#f19c1d"/><path d="M5.874 35.295c.179-.208.297-.448.401-.702.689-1.692 1.556-3.3 2.331-4.952l.179-.367c.212-.36.154-.666-.088-1.01-.493-.7-.843-1.486-1.204-2.258-.243-.52-.2-1.096.107-1.567.292-.448.537-.882.54-1.426 0-.074.026-.154.059-.222l.881-2.074c.106-.251.397-.359.606-.529.329.314.102.794.341 1.135.005.213.036.3.286.46.647.415 1.518.382 2.024 1.079.198.274.624.135.944.197.247.047.507.015.748.101.251.089.459.229.472.527.014.305-.189.451-.443.54a3.81 3.81 0 0 1-1.596.216c-.053-.017-.106-.036-.161-.039-.04-.002-.083-.059-.117-.001-.005.009.028.056.021.098-.043.037-.092.064-.146.081-.52-.199-1.063-.11-1.597-.124-.268-.091-.557.008-.823-.102.209.08.429.045.644.071.619.092 1.247.022 1.865.119.075-.075.163-.09.262-.064.189.128.393.226.598.327.547.269.556.553.048.952-.209.176-.45.184-.71.158-.767-.077-1.54-.039-2.308-.109-.334-.05-.668-.116-1.01-.111.224-.002.441.027.635.151.132.107.099.226.023.357.134-.104.155-.302.328-.361.06-.016.119-.024.181-.025.687.101 1.381.026 2.069.105.194.022.379.05.552.143.255.662.578 1.3.72 2.004-.526.933-.62 2.001-.919 3.003l-2.321 6.862c-.087.258-.204.507-.405.704-1.457.36-3.211-.154-3.764-1.552-.155-.392-.422-.744-.417-1.192a1.01 1.01 0 0 1 .027-.249c.023-.125.121-.223.136-.353z" class="D"/><path d="M10.989 45.853c-.178-.238-.385-.27-.571-.031-.775.991-1.936 1.48-2.888 2.24-.517.413-1.175.525-1.786.671-1.09.261-2.201.353-3.327.103-.969-.215-1.551-.833-1.933-1.683-.182-.407-.263-.844-.257-1.304.007-.558-.125-1.124-.065-1.673.132-1.202.589-2.315 1.111-3.399.42-.013.559.383.839.573 1.42 1.212 2.991 1.985 4.928 1.69.136-.021.269-.029.398.031.233.276.019.517-.082.747-.202.462-.449.904-.607 1.445.227 0 .336-.233.528-.207.351.1.523-.095.693-.369.537-.862.863-1.823 1.294-2.734l2.651-5.762c.074-.165.118-.443.342-.396.214.045.165.316.184.505-.272 2.429-.769 4.821-1.2 7.224-.12.667-.308 1.326-.147 2.014.027.115-.005.232-.106.314z" class="B"/><path d="M13.013 25.612c.147-.049.306-.085.309-.286.003-.212-.156-.299-.314-.37-.234-.105-.553-.075-.632-.415-.024-.041-.037-.086-.038-.134.014-.048.044-.079.094-.091.548.014 1.087-.026 1.606-.225.193-.074.374-.166.365-.394-.009-.222-.195-.343-.387-.378a7.89 7.89 0 0 0-1.091-.129c-.216-.01-.417-.073-.627-.101-.145-.019-.252-.072-.263-.248-.015-.262-.193-.36-.428-.383a2.16 2.16 0 0 1-1.255-.548c-.029-.025-.059-.051-.093-.069-.301-.161-.312-.176-.323-.454-.059-.225.112-.206.243-.23a.61.61 0 0 1 .162.037c.202.087.366.23.538.362.95.631 1.861.272 2.764-.12.161-.07.308-.213.249-.414-.071-.245-.296-.209-.488-.201-.508.022-.952.328-1.464.338a.37.37 0 0 1-.1-.14c-.037-.114-.043-.231-.032-.349.022-.215.136-.381.279-.532.21-.235.483-.388.733-.572.147-.108.259-.264.185-.452-.083-.21-.289-.178-.456-.141-.38.084-.758.167-1.15.171-.215-.031-.44-.05-.404-.36.365-.2.756-.272 1.169-.23.045-.033.086-.07.126-.109v-.002c.159-.093.005-.27.102-.379-.006-.181.086-.328.155-.488.267-.622.261-.625.928-.437-.104.135-.128.321-.3.418-.101.057-.311.128-.165.286.098.106.205.319.426.213.417-.199.384.105.319.321-.116.382.065.729.068 1.095.003.292.329.296.524.394.319.16.321.339.109.578.015.045.037.083.073.114.429.609.3 1.089-.363 1.318-.462.159-.155.431-.011.478.555.184.538.631.576 1.064.022.243.131.43.279.623.267.349.156.563-.285.623-.077.011-.155.006-.233.01-.611.026-.846.323-.616.896.137.342.342.694.797.758.254.036.251.059.467.363.058.081.418.05.422-.051.008-.203.147-.245.262-.241.366.013.563-.156.64-.498.006-.028.027-.046.033-.047.588-.028.824-.613 1.3-.813.041-.017.096-.004.1-.062.04-.791.672-1.397.686-2.2.003-.146.069-.338.183-.421.48-.347.381-.846.401-1.324.019-.424-.043-.844.049-1.275.054-.253-.011-.59-.338-.743-.249-.117-.154-.264-.016-.418-.576.475-1.035.005-1.509-.199-.144-.062-.197-.153-.38-.044-.532.315-.585.283-.837-.271-.133-.229-.101.069-.169.054-.866.181-1.574-.338-2.354-.531-.246-.061-.218-.272-.135-.466.658-.012 1.294.158 1.941.239.723-.132 1.396.167 2.095.24.239.092.499.072.745.127.23.099.515.019.715.217l1.142.251c.21.2.193.466.172.713-.102 1.199-.151 2.407-.574 3.554-.224.667-.469 1.326-.822 1.939a2.05 2.05 0 0 1-.084.141l-.114.217c-.021.052-.047.102-.072.151-.559 1.014-1.318 1.827-2.388 2.306-.549.246-1.125.288-1.708.104-.597-.207-1.055-.596-1.424-1.099-.102-.199-.305-.385-.091-.629z" fill="#050606"/><path d="M13.579 6.39l.933-.33c.149.188.042.376-.017.551-.222.657-.303 1.326-.112 1.995.116.406.339.769.739.981.126.187.155.401.139.613l-.158 3.178c-.001.058-.006.118-.015.176-.429.48-.15.998-.078 1.505.045.286.078.574.213.837.046.071.081.147.104.228.014.192.14.39-.032.572-.532.135-.501.115-.8-.352-.28-.438-.632-.832-1-1.205-.161-.163-.374-.293-.392-.557l.024-.021-.021.024c-.782-.803-.696-1.848-.167-2.478.41-.488.381-.632-.054-1.089l-.453-.457c-.637-.666-.81-1.439-.506-2.307a3.9 3.9 0 0 1 .771-1.285c.139-.158.275-.337.515-.355.049-.029.09-.068.13-.107h.001c.076-.043.181-.028.234-.116z" fill="#b7bbcf"/><path d="M5.867 35.542l-.021.222a6.61 6.61 0 0 1-.405 1.324c-.501 1.181.6 2.743 1.978 2.846.524.039 1.05-.03 1.575.014.138.133.08.278.027.423-.267.338-.278.852-.725 1.069-.908.067-1.808.136-2.711-.128-.968-.284-1.847-.703-2.608-1.366a1.06 1.06 0 0 1-.12-.13c-.071-.09-.128-.19-.18-.292-.29-.297-.257-.633-.117-.981.437-.931 1.02-1.763 1.759-2.475.379-.365.881-.529 1.384-.666.146-.06.176.014.163.14z" class="B"/><path d="M10.537 51.444l.358-.006c.036-.03.071-.029.104.005l2.217-.006c.175-.138.38-.218.597-.208l7.178.038c.409.036.809-.17 1.219-.034.124.043.233.107.302.224.046.203-.064.24-.241.29-.679.191-1.369.063-2.052.108-.148.01-.307-.065-.435.066-5.069.193-10.141.249-15.213.254-.086-.031-.061-.191-.085-.17-.163.142-.301.084-.389-.057-.13-.209-.045-.364.188-.437.477.041.956-.051 1.431.035a20.67 20.67 0 0 1 2.153-.062c.889.017 1.778-.025 2.667-.041z" fill="#151415"/><g class="B"><path d="M27.38 52.958l-1.982-.218c-.144-.178-.092-.364-.015-.547.692-1.632.926-3.3.412-5.031a.44.44 0 0 1 .01-.23c.055-.134.17-.2.293-.256.309-.065.613-.265.934-.037l.039.036.198.109a.76.76 0 0 1 .117.104 1.31 1.31 0 0 1 .149.193c.366.477.427 1.061.574 1.616.207.993.067 1.97-.139 2.943-.209.433-.22.956-.59 1.316z"/><path d="M24.683 52.645c-.796-.134-1.565-.337-2.223-.837.155-.182.372-.154.572-.155.227-.001.4-.061.472-.297.591-1.025.651-2.176.787-3.308.044-.36-.118-.538-.497-.536-.285.002-.585.055-.848-.119-.146-.266.031-.337.236-.367.278-.041.558-.077.841-.046.279.085.558.017.837-.008.113-.011.224-.035.335-.062a.6.6 0 0 1 .18-.008.4.4 0 0 1 .243.132c.495.794.45 1.677.384 2.549-.07.916-.418 1.773-.681 2.645-.09.3-.255.538-.637.416z"/></g><path d="M1.5 40.319c.177-.31.255-.675.518-.937.318-.102.45.159.619.328 1.361 1.356 2.974 2.02 4.91 1.8.215-.025.426-.063.624.06.112.546-.289.949-.397 1.434a.18.18 0 0 1-.161.053c-.119-.072-.244-.112-.387-.083-2.053.408-3.662-.497-5.157-1.742-.143-.333-.574-.486-.567-.911z" fill="#2a325b"/><path d="M37.336 23.614c-.026.134-.084.179-.238.159l-2.447-.295c-.012-.33.335-.314.476-.507-.483-.011-.632.555-1.066.622-.005-.156 0-.307-.211-.351l-.951-.227c-.699-.119-1.353-.381-2.023-.593-.276-.087-.184-.295-.211-.47-.124-.558-.033-.649.605-.608.726.215 1.477.311 2.223.407 1.004.13 1.902.487 2.734 1.045.382.257.837.413 1.11.817z" fill="#222842"/><path d="M10.989 45.853c-.335-1.155.117-2.245.288-3.356l.563-3.188c.243-1.017.252-2.058.449-3.076.133-.461-.108-.934.054-1.4.081-.232.105-.484.204-.713.096-.175.213-.363.442-.279.25.092.156.34.114.503-.161.622-.174 1.258-.229 1.89.02.49-.095.962-.19 1.436l-.526 3.086-.489 3.034-.208 2.19c-.075.63-.049 1.274-.233 1.891-.016.055-.028.115-.128.118-.006-.293.087-.61-.108-.883a5.03 5.03 0 0 1-.005-1.253z" fill="#0d1220"/><path d="M14.982 9.546c-.125-.079-.427.091-.362-.264.011-.062-.049-.197-.081-.199-.534-.028-.357-.352-.276-.639.005-.017.003-.041-.005-.057-.395-.767.056-1.449.217-2.159l.037-.169c.028-.019.059-.029.093-.027.303.152.644.197.927.426a2.46 2.46 0 0 1 .862 1.337c.028.053.026.104-.011.152-.324.233-.709.238-1.081.253-.05.484.179 1.003-.32 1.345z" fill="#b4acb0"/><path d="M31.27 21.344c-.514.086-.514.086-.605.608-.21.182-.088.442-.153.661-.513 1.723-1.154 3.388-2.239 4.84-.772 1.034-1.68 1.941-2.873 2.484-.468.213-.977.383-1.519.329-.19.081-.365.122-.409-.164.094-.242.326-.267.527-.297 1.674-.25 2.832-1.274 3.811-2.551 1.104-1.44 1.773-3.088 2.231-4.829.019-.051.042-.101.065-.151.044-.1.062-.207.076-.315.056-.244.054-.511.253-.703.28.011.568-.053.834.089z" fill="#404886"/><path d="M4.213 51.568c-.044.118-.154.232-.023.36.11.108.195.056.282-.04.069-.077.186-.118.248-.039.127.163-.155.098-.143.214.004.037-.003.075-.005.113-.61.112-1.226.065-1.84.07-.67.005-1.34-.002-2.009.003-.115.001-.229.034-.339-.028-.121-.069-.238-.144-.222-.305s.071-.311.255-.343c.132-.023.269-.026.403-.026l1.967-.056c.361-.046.724.105 1.093.059.114-.048.227-.068.334.019z" fill="#181919"/><path d="M8.189 41.609c-.251.014-.498.032-.748.078-.657.119-1.311.043-1.947-.144-.932-.274-1.805-.673-2.567-1.293-.326-.266-.484-.707-.909-.868.049-.152.176-.24.281-.347.171.159.394.264.506.486l.122.225-.002-.002a7.03 7.03 0 0 0 3.497 1.585c.407.062.804.074 1.209-.01.236-.049.49-.166.704.067.027.124-.033.191-.145.224z" fill="#5d67ba"/><path d="M24.683 52.645c.22.003.368-.096.438-.306.429-1.28.859-2.562.739-3.944-.042-.484-.171-.947-.356-1.395-.031-.06-.021-.111.03-.156.119-.054.228-.058.311.064.716 1.784.404 3.519-.258 5.235-.076.196-.224.367-.19.597-.242-.001-.495.076-.714-.095z" fill="#5e67ba"/><path d="M28.207 16.916l-.113-.737c-.016-.141.019-.293.194-.299.542-.017.966-.366 1.463-.503.11.28.1.566.05.855-.292.77-.856 1.012-1.594.683z" fill="#c18524"/><path d="M15.295 16.696c-.03-.196-.085-.39-.053-.591.101-.055.208-.036.314-.028.058.004.13-.004.169.03.413.348.773.223 1.12-.107.042-.04.107-.026.156.014a.5.5 0 0 1 .078.135c.034.095.064.193.117.28.164.291.383.543.584.807a.5.5 0 0 1 .052.152l-.014.08c-.523.341-.994-.025-1.477-.128-.303-.065-.59-.187-.901-.061-.154-.168-.07-.395-.145-.583z" fill="#f46c60"/><path d="M28.208 16.916c.401-.01.805.075 1.174-.214.177-.138.225-.367.421-.469.093.287.011.559-.077.829-.046.141-.832.928-.969.977-.112.041-.223.05-.335-.001-.253-.339-.221-.733-.215-1.122z" fill="#ee9f23"/><path d="M10.299 21.25c-.136.005-.282-.012-.363.137-.301-.354-.244-.784-.251-1.2.208-.681.635-1.158 1.311-1.403.083.216.264.244.461.244.053.096-.009.146-.077.194-.169.07-.344.13-.487.251-.674.434-.674 1.092-.593 1.777z" fill="#0b0a0a"/><path d="M30.435 21.255c.033.283-.124.537-.126.816-.067.063-.043.171-.112.233h0c-.385.14-.624-.061-.826-.351-.074-.311.231-.611.029-.926.373-.047.71.065 1.035.229z" fill="#272a46"/><path d="M15.441 17.279c.046-.28.258-.272.448-.223l1.094.328c.296.105.535.105.805.015.246-.054.356.067.38.297-.193.173-.406.104-.619.053-.715-.088-1.431-.172-2.128-.37a.75.75 0 0 0 .02-.101z" fill="#d25c4f"/><path d="M23.53 51.498c.088.13.139.273-.081.29-.328.026-.659.014-.989.019-.886.184-1.784.079-2.676.115.049-.056.111-.169.143-.161.341.088.684-.031 1.022.023.466.074.912-.049 1.364-.12.113-.017.144-.112.16-.211.363-.234.718-.285 1.058.045z" fill="#25191c"/><path d="M27.379 52.958c.127-.441.233-.89.468-1.292.143.051.241.151.311.282.039.12.024.228-.067.321-.079.104-.004.26-.121.351-.26.092-.12.28-.106.438l-.485-.099z" fill="#5761b7"/><path d="M1.5 40.319c.148.314.539.447.611.819.062.13-.012.193-.119.238-.297-.13-.434-.454-.719-.599-.012-.196.024-.368.227-.458z" fill="#5861b6"/><path d="M4.213 51.568l-.334-.019c.049-.065.117-.104.196-.1.548.03 1.104-.081 1.642.097-.501.077-1.003.018-1.504.021z" fill="#376e6e"/><path d="M2.804 39.52c-.19-.14-.42-.237-.506-.486.075-.17.113-.361.263-.492-.096.37.104.666.243.978z" fill="#2a325b"/><path d="M9.411 48.817c-.026-.077-.04-.096-.037-.112.025-.125.03-.265.182-.312.013-.004.051.051.066.084.084.191-.125.199-.212.34z" fill="#d5d3d6"/><path d="M30.321 3.445c-.056.117-.155.162-.325.167.058-.187.208-.212.338-.26l-.013.093z" fill="#efac43"/><path d="M12.393 18.064l.079.272c.056.228-.084.134-.181.108-.019-.141-.022-.277.102-.379z" fill="#171415"/><path d="M5.867 35.542l-.163-.14.17-.107c.111.086.083.167-.008.247z" fill="#703c55"/><path d="M20.126 1.358c.068.002.174-.03.16.082-.009.077-.084.125-.155.027a.86.86 0 0 0-.005-.109z" fill="#eac27b"/><path d="M13.579 6.39c.003.201-.107.176-.234.116.05-.095.136-.117.234-.116z" fill="#d4c7d6"/><path d="M18.96 1.824c.088-.01.247-.033.243.034-.009.143-.154.068-.246.071a.88.88 0 0 0 .003-.105z" fill="#f3deb2"/><path d="M9.009 48.435l.039.018-.055.042c-.007-.012-.022-.027-.019-.036s.022-.017.034-.025z" fill="#e0e1e0"/><path d="M30.935 21.073l.03-.009-.004.027-.026-.018z" fill="#b8acb0"/><path d="M12.29 18.445c-.006.077-.047.115-.126.109l.126-.109z" fill="#171415"/><path d="M22.21 51.353c-1.423.068-2.847-.017-4.268.012-.877.017-1.757-.018-2.633.054-.697.057-1.395-.077-2.092.018.075-.406.422-.594.703-.806l2.495-1.779c.74-.433 1.519-.741 2.316-1.025 1.309-.519 2.669-.612 4.056-.492.378.039.547.274.519.628-.081 1.043-.224 2.077-.52 3.084-.085.288-.273.413-.575.306z" class="D"/><path d="M27.031 46.64c-.318-.02-.607.169-.927.129-.194.08-.417.128-.569-.022-.098-.097.051-.23.138-.325.883-.384 1.839-.49 2.768-.691l3.565-.648c.731-.129 1.472-.166 2.209-.219.442-.032.731-.098.628-.626-.034-.174.096-.339.041-.517-.003-.857-.136-1.697-.322-2.532-.139-.625-.213-1.259-.282-1.896-.08-.73-.251-1.45-.369-2.176l-.336-2.004c-.047-.496-.217-.977-.253-1.486l-.219-2.421a9.42 9.42 0 0 0-.139-1.444c-.059-.332-.08-.659-.063-.986l.18-2.366c.011-.126.024-.278.156-.364.066-.057.128-.121.215-.148.062-.009.116.008.161.051-.011.313-.083.617-.134.924-.027.092-.094.193-.075.273.125.511.108 1.02.093 1.543-.016.577.08 1.159.12 1.739l.298 2.587.298 1.824c.107.606.291 1.204.318 1.825.021.487.206.943.263 1.428l.437 2.808.546 3.554c.023.142-.012.268-.012.402 0 .503-.096.586-.593.628l-3.295.313-3.999.71c-.281.063-.591-.076-.848.13z" class="E"/><path d="M34.884 43.722c.228.344.061.757.192 1.125.042.119-.137.16-.257.16-.485-.001-.966.068-1.447.099s-.98.045-1.44.16c-.889.221-1.806.247-2.693.491-.531.145-1.1.204-1.647.319-.618.13-1.245.232-1.841.456l-1.633.583c-.361-.053-.711.117-1.076.053-.071-.013-.09.108-.102.184s-.08.077-.131.1c-1.374-.035-2.727.148-4.076.376.264-.314.669-.419 1.014-.534l2.803-.943 3.463-.958 3.721-.898 2.531-.313c.771-.026 1.539-.149 2.308-.227.152-.015.247-.102.312-.231zM14.517 27.217c.416.007.811.169 1.252.028.583-.187 1.089-.455 1.536-.872.511-.477.929-1.024 1.307-1.606.313.543.609 1.09.468 1.753-.259.124-.302.447-.537.591-.685.42-1.259 1.002-1.986 1.36-.808.398-1.676.646-2.511.975-.19-.373.038-.718.073-1.076.024-.251.11-.495.096-.752.004-.207.158-.3.303-.401z" class="C"/><path d="M14.297 27.57c.099.086.111.201.087.316l-.338 1.559h0c-.113.093-.012.255-.116.351-.145.8-.43 1.579-.466 2.391-.056 1.299-.439 2.551-.487 3.848-.003.068-.067.133-.102.2-.111-.306.113-.654-.117-.945-.055-.07.005-.105.042-.143.279-.283.154-.666.241-.996.018-.069.054-.206-.082-.24-.116-.03-.171.064-.231.141-.023.03-.058.051-.087.076-.279-.514.01-1.019.031-1.526.066-1.526.579-2.963.926-4.433.01-.058.028-.112.052-.165a.82.82 0 0 1 .097-.141c.166-.129.27-.377.55-.29z" fill="#0d1320"/><path d="M19.081 26.519c-.079-.605-.407-1.143-.468-1.753.07-.067.05-.171.107-.242l.001-.004c.291-.13.333.102.385.282l.205.852c.024.11.039.224.082.33l.066.153c.586 1.516 1.414 2.819 2.987 3.499.355.153.786.09 1.081.396.011.24.185.234.355.235-.197.193-.446.134-.662.095-1.28-.231-2.286-.909-3.07-1.934-.447-.585-.735-1.259-1.068-1.908z" fill="#3f4883"/><path d="M33.478 26.874c-.093-.314.15-.628-.002-.941-.052.096-.141.115-.239.115 0-.464.11-.899.308-1.322.176-.376.278-.785.517-1.134.216-.296.471-.547.794-.728.18-.101.177-.108.541.036-.171.301-.541.338-.745.578-.496.772-.804 1.612-.95 2.519-.047.296-.04.613-.223.878z" fill="#0e1423"/><path d="M13.93 29.796c.001-.129-.022-.267.116-.351-.003.128.02.266-.116.351z" class="C"/><path d="M11.046 48.489c.014.005.04.01.04.016.001.017-.009.034-.015.05-.014-.005-.04-.01-.04-.016-.001-.017.009-.034.015-.05z" fill="#0d1220"/><path d="M10.999 51.443l-.052.005-.052-.01.055-.073.049.078z" fill="#769ba7"/><path d="M28.1 51.921c-.164-.006-.241-.099-.253-.256-.052-.372.088-.725.151-1.079.117-.658-.003-1.299-.018-1.947.075-.088.11-.214.237-.253.263.472.214.991.229 1.5l-.005.742c.057.386-.16.743-.12 1.128-.013.056-.036.107-.069.153-.048.039-.098.043-.151.012z" fill="#5e65b9"/><path d="M28.218 48.387c-.011.148-.073.248-.237.253-.104-.149-.126-.323-.15-.497-.057-.412-.29-.754-.448-1.126-.029-.051-.066-.096-.116-.127v.002c-.059-.077-.063-.151.012-.222.037-.009.074-.01.112-.003l.125.098c.375.48.647 1.005.703 1.623z" fill="#5d66ba"/><g class="B"><path d="M28.205 51.916c-.023-.447.147-.86.235-1.287.087.063.137.153.093.251-.118.26-.086.532-.091.803.281.312.282.396-.018.527-.101.044-.222.04-.334.058l.008-.347.106-.007v.001z"/><path d="M27.97 52.619c.011-.127.001-.261.121-.351.092.163.071.286-.121.351z"/></g><path d="M41.261 35.226c-.002-.033-.009-.067-.005-.099.001-.01.03-.024.047-.024.049 0 .072.031.047.07-.017.026-.058.036-.089.053z" fill="#3a476e"/><path d="M27.277 46.669l-.012.222c-.099-.041-.166-.11-.195-.215l.207-.007z" class="F"/><path d="M32.57 52.194c-.001.012.002.031-.005.036s-.032.014-.043.009c-.046-.022-.043-.045.006-.059.012-.003.028.009.042.014z" fill="#39567a"/><path d="M27.514 46.764l-.125-.099c.065.004.106.037.125.099z" class="F"/><path d="M23.526 30.03c-1.756-.176-2.865-1.242-3.683-2.695-.228-.405-.45-.818-.529-1.287.102-.379.231-.743.568-.988.39.119.464.494.617.793.142.277.261.564.486.788.231.246.453.503.74.69a1.79 1.79 0 0 1 .131.089l.132.091.068.044c.525.383 1.136.566 1.747.745.495.145.95-.033 1.402-.206.303-.091.553-.268.773-.491.036-.037.076-.07.117-.101.084-.061.169-.121.244-.194.716-.861 1.504-1.671 1.877-2.765.076-.221.202-.417.354-.595l-.002.003c.059-.07.04-.18.121-.239.301-.558.426-1.185.682-1.761.28.107.517.314.826.351a13.27 13.27 0 0 1-1.168 3.272c-.499.97-1.067 1.907-1.854 2.662-.879.842-1.833 1.605-3.138 1.692-.171.011-.33.116-.511.101z" class="B"/><path d="M16.356 7.909l.038-.113c.683-.174 1.288-.535 1.93-.808 1.308-.559 2.446-1.415 3.646-2.159.552-.342 1.008-.347 1.546.018.936.636 1.693 1.405 2.168 2.447.131.288.266.591.269.884.012 1.278.231 2.546.155 3.825-.189-.216-.286-.512-.318-.752-.057-.415-.27-.816-.174-1.251.008-.036.009-.083-.007-.114-.377-.719-.386-1.529-.573-2.294-.052-.212-.145-.4-.346-.516-.602-.349-1.078-.859-1.629-1.274-.358-.315-.729-.362-1.117-.055-.374.094-.601.372-.823.658-.041.036-.088.065-.137.087-.861.319-1.633.821-2.466 1.196-.491.399-1.117.5-1.675.753-.202.091-.419.078-.541-.167a.4.4 0 0 1 .057-.364z" fill="#d35e51"/><path d="M25.398 19.492l.214-.414c.073-.132.133-.314.338-.217.145.068.166.216.109.352-.072.168-.067.341-.079.514-.052.72-.368 1.304-.832 1.857-.489.584-1 1.135-1.613 1.58a8.08 8.08 0 0 1-1.609.897c-.387.163-.748.435-1.208.351-.328.072-.542.437-.929.359-.299-.412-.305-.904-.353-1.377-.027-.262.074-.501.401-.532.884.055 1.709-.186 2.516-.511 1.238-.534 2.096-1.525 2.982-2.484.107-.117.118-.238.063-.375z" fill="#c35b50"/><path d="M20.014 13.176c.069.03.154.045.205.094.161.157.211.468.473.472.323.005.648-.069.969-.125.067-.011.145-.076.178-.137.14-.256.359-.411.631-.463.507-.096 1.011-.016 1.431.268.37.251.814.497.796 1.061-.192.045-.383.1-.582.049-.099-.01-.198.006-.297.006-.132-.018-.25-.061-.331-.173-.041-.124.002-.274-.118-.37 0 .004-.051.01-.051.01l.003.054c-.018.126-.093.198-.21.232-.052-.001-.1-.015-.145-.039-.251-.132-.462-.145-.566.182-.015.052-.046.091-.092.119-.596.091-.263.466-.227.749.009.054.009.108.003.163-.121.389-.22.779-.038 1.221.319-.113.634-.117.772.303.55-.503 1.515-.582 1.489-1.59l.031-.236c.105-.235-.055-.612.362-.68.38.119.357.515.285.707-.084.224-.016.297.084.438.109.155.188.276-.125.355-.3.075-.302.441-.381.696-.066.213-.142.422-.323.533-.216.134-.537.352-.694.279-.409-.191-.719.045-1.069.095-.112.016-.186.001-.246-.091-.122-.188-.278-.322-.517-.331-.088-.004-.132-.061-.135-.154-.014-.378-.313-.6-.493-.887-.205-.191.146-.642-.331-.708-.425-.168.053-.668-.377-.919-.339-.198-.35-.707-.411-1.111l.05-.072z" class="G"/><path d="M16.356 7.909l.022.345c-.059.072-.012.18-.083.248-.027.435-.36.718-.542 1.074.093.157.236.2.394.214.172.112.42.163.374.454.257.821.029 1.531-.497 2.172l-.814.989c-.047.094-.096.186-.228.122v-1.799c.005-.522.169-1.032.12-1.561-.02-.213-.006-.427-.121-.62.119-.443.383-.877.047-1.342-.069-.096-.017-.304.098-.242.435.234.822-.032 1.228-.053z" fill="#b5a4b8"/><path d="M16.991 16.137c-.081-.103-.116-.052-.142.04-.047.168-.129.286-.33.222-.1-.032-.157-.034-.224.084-.123.218-.176.226-.277.022-.129-.261-.321-.307-.569-.287-.044-.046-.063-.1-.06-.162a.29.29 0 0 1 .06-.083c0 .001.049-.018.049-.018l-.052-.01c-.087.112-.145.02-.212-.029-.074-.609-.182-1.219.098-1.807.091-.506.472-.587.897-.729.343-.114.641-.149.975-.089h0c.04.12.098.237.117.36.024.156.11.219.253.234a.23.23 0 0 1-.12.242c-.496.283-.477.684-.272 1.132-.05.287.037.569.037.855-.072.054-.148.064-.229.022z" class="H"/><path d="M19.517 22.543c.228-.817.457-1.626.497-2.49.029-.611.14-1.22.104-1.838.117-.001.237-.019.35.002.323.059.582.315.63.638.063.428.016.842-.058 1.276-.06.352-.215.686-.222 1.054-.004.261-.042.537-.245.758-.147.16-.096.357-.03.561.632-.116 1.189-.45 1.826-.422.006.191-.134.278-.274.337-.81.34-1.632.617-2.532.404-.086-.081-.076-.178-.046-.279z" fill="#d45d51"/><path d="M18.959 10.706c.16-.199.46-.022.626-.237.051-.065.131.025.173.091.277.432.31.944.453 1.419.013.042-.023.114-.058.153-.437.486-.439.485-.139 1.043h0c-.028.027-.077.058-.074.086.117 1.066-.779 1.202-1.432 1.55-.181.096-.39.135-.386.399-.201.115-.387.061-.57-.045a1.06 1.06 0 0 1-.206-.158l-.05-.069-.007-.084c.084-.272.34-.274.55-.339.324-.1.534-.283.524-.649.042-.319.319-.526.393-.83.342-.547.265-1.163.287-1.761.016-.171.015-.34-.061-.501l-.022-.068z" class="G"/><path d="M28.571 23.949c-.389 1.397-1.202 2.522-2.245 3.499-.07.046-.177.036-.212.138v.003c-.292-.204-.427.217-.679.173-.119.013-.223.06-.32.128-.132.092-.265.066-.37-.038-.156-.156-.037-.279.069-.397.509.095.849-.109 1.093-.561.15-.278.297-.584.65-.694.072-.022.141-.142.162-.228.1-.43.428-.688.725-.961.38-.349.667-.797 1.126-1.06z" fill="#d15e51"/><path d="M24.814 27.454c.036.117-.14.256.038.359.15.087.194-.04.268-.121.087-.096.184-.137.279-.004-.005.167-.028.329-.113.477-.511.338-1.065.425-1.648.244-.623-.193-1.258-.368-1.749-.839.02-.475.384-.435.7-.466.713.297 1.467.336 2.224.35z" class="I"/><path d="M20.597 10.576c.46-.53.924-.988 1.665-1.073.205-.023.4-.02.562.05.631.272 1.318.49 1.566 1.249.036.11.108.228.001.322-.138.12-.248.005-.353-.079-.03-.024-.063-.047-.086-.078-.616-.792-1.427-.825-2.309-.599-.116.03-.232.056-.308.146-.215.256-.451.212-.738.06z" fill="#b2761d"/><path d="M27.74 14.697c-.361-.507-.213-1.015-.007-1.525.234-.04.426-.182.645-.262a1.14 1.14 0 0 1 .957.058c.177.091.346.216.319.442-.028.233-.238.209-.407.238-.211.037-.416.095-.577.24l-.054.052.072-.063c.273-.133.628-.406.814-.063.207.382-.2.601-.494.784-.22.136-.476.142-.726.155-.045.05-.107-.103-.149.013a.15.15 0 0 1-.09.104c-.157.04-.226-.073-.303-.173z" fill="#c2584d"/><path d="M16.99 16.137l.215-.037c.349.252.599.607.92.888.625.546 1.436.454 1.93-.217.336-.457.498-1.005.779-1.49.404-.102.44-.078.361.253l-.111.451c-.387.996-.975 1.777-2.107 1.98-.25.022-.504.067-.732-.09.15-.173-.139-.127-.118-.236-.122-.068-.188-.214-.339-.24l-.008-.006a.5.5 0 0 0-.106-.115c-.244-.244-.44-.524-.599-.829-.053-.078-.041-.178-.091-.257l.008-.054z" fill="#5f2927"/><path d="M22.589 27.104c-.231.159-.566.162-.7.466h-.002a.44.44 0 0 0-.128-.11l-.003.006c.064-.372-.184-.537-.456-.684a1.04 1.04 0 0 1-.072-.106c-.129-.12-.145.194-.274.073-.307-.15-.422-.455-.548-.732-.145-.317-.305-.621-.494-.913-.118-.107-.111-.22-.018-.338.187-.319.518-.305.822-.355-.144.135-.27.268-.113.479l.928 1.333c.298.402.666.634 1.057.879z" fill="#d55e52"/><path d="M21.887 5.684c.025-.029.047-.064.077-.085.582-.413.669-.397 1.094.202-.319.025-.49.296-.723.455-.439.3-.902.538-1.366.789-.389.209-.789.351-1.189.514-.065-.066-.077-.144-.057-.231.306-.516.819-.738 1.344-.941.238-.275.505-.516.82-.702z" fill="#ea685a"/><path d="M28.111 14.804a.5.5 0 0 0-.013-.1h.001c.169-.114.365-.096.553-.127.337-.056.595-.245.764-.546.038-.067.076-.138.015-.208s-.144-.055-.215-.029c-.216.078-.425.178-.658.199l.005.007c.067-.443.417-.445.746-.479.092-.01.21.021.249-.095.046-.137-.063-.223-.156-.282-.376-.238-.763-.21-1.166-.046-.152.062-.301.307-.504.075.389-.473.913-.537 1.471-.466.594.077.86.49.701 1.076-.05.185-.127.362-.191.544-.494.762-1.046.927-1.603.478z" fill="#622b27"/><path d="M17.554 15.042c.18.114.379.127.584.108.321-.227.672-.199.998-.054.259.115.339.336.061.537-.369.269-1.773.005-2.098-.384-.381-.619-.343-.805.248-1.198l.227-.165c.034 0 .066-.006.097-.019.373-.231.567-.661.959-.872.088-.016.168-.002.232.066.058.353-.313.497-.383.788-.154.291-.439.399-.718.523-.234.105-.511.192-.43.55l.003.004c.026.037.06.059.104.066s.082.022.116.051z" fill="#5f2927"/><path d="M16.522 10.244l-.374-.454c.261-.018.428-.237.679-.3.595-.15 1.075-.011 1.43.473.023.031.053.058.07.092.115.229-.017.426-.138.579-.097.124-.265-.005-.353-.087-.384-.358-.851-.31-1.313-.303z" fill="#b2761d"/><path d="M18.619 13.06c-.291.298-.429.777-.948.807.348-.753.428-1.597.803-2.343.144-.285.396-.503.485-.818l.011.026c.122.136.104.304.107.467-.067.641.049 1.327-.457 1.86z" fill="#db6254"/><path d="M25.398 19.492c.122.016.236.047.218.205-.006.055-.028.119-.066.157-.934.966-1.77 2.049-3.077 2.568-.19-.094-.188-.102.114-.362 1.11-.667 1.954-1.625 2.811-2.568z" fill="#622b27"/><path d="M19.78 7.323v.235c-.248.312-.621.361-.97.452-.371.097-.717.278-1.072.379-.452.129-.943.371-1.444.112-.018-.098.002-.183.083-.248.113.149.275.162.41.08.538-.329 1.2-.381 1.705-.776.34-.038.673-.106.979-.267.113-.06.215-.061.309.033z" fill="#e76759"/><path d="M28.111 14.804c.678.323 1.145-.065 1.603-.478.024.183-.065.344-.127.5-.134.34-.673.688-.956.653-.349-.043-.798-.437-.892-.783.119.051.231.13.371.107z" fill="#c75e53"/><path d="M22.587 22.06c.01.136-.251.187-.114.362a4.91 4.91 0 0 1-2.576.589c-.065-.158-.399.069-.352-.247 1.013.067 1.956-.152 2.824-.683l.218-.021z" fill="#662d29"/><path d="M15.45 15.984v.234l-.208-.113-.106-.122c-.183-.249-.044-.558-.151-.821l-.004-.19c.005-.131-.046-.249-.091-.368-.038-.322-.083-.645.072-.952l.021-.125.228-.122c.122.221.122.463.123.706-.025.536.053 1.075-.045 1.608-.026.143.051.212.162.266h0z" fill="#e1675f"/><path d="M21.608 12.158c.178-.006.378.184.387.367.011.226-.238.495-.477.506-.249.012-.344-.143-.362-.363-.021-.261.196-.502.453-.51z" fill="#201514"/><path d="M17.433 12.649c-.021.182-.141.306-.373.311-.241.005-.352-.13-.367-.354s.157-.385.401-.376c.221.009.347.147.338.419z" fill="#1f1514"/><path d="M20.202 12.709c-.015.061-.063.092-.114.071-.043-.018-.096-.067-.1-.107-.005-.06.059-.072.113-.066a.1.1 0 0 1 .101.103z" class="G"/><path d="M18.593 8.801c-.018-.026-.053-.053-.05-.077.007-.061.056-.085.109-.057.021.011.037.067.027.088s-.056.031-.086.045z" fill="#be574f"/><path d="M19.831 8.114c.023.019.061.035.068.059.015.058-.005.11-.068.129-.01.003-.035-.021-.042-.037-.024-.058-.015-.111.042-.152z" fill="#5a3322"/><path d="M19.17 9.551l-.034.102-.103-.041c.015-.033.023-.076.048-.097.038-.032.074-.013.089.036z" fill="#512021"/><path d="M20.298 9.488c-.029.011-.056.025-.086.031-.007.001-.02-.025-.029-.038.028-.011.056-.025.085-.031.007-.002.02.024.03.037z" fill="#8c463d"/><path d="M28.689 23.713c-.002.099-.023.188-.121.239-.01-.105.012-.194.121-.239z" fill="#d15e51"/><path d="M26.072 12.376c-.014.004-.038.015-.042.011-.01-.013-.012-.032-.017-.049.015-.004.038-.016.042-.011.01.013.012.032.017.049z" fill="#d35e51"/><path d="M21.17 8.874l-.041.039c-.014-.032-.032-.063-.04-.097-.002-.009.025-.026.039-.039l.043.096z" fill="#742f27"/><path d="M17.206 13.293c.009-.016.021-.047.026-.046.039.009.03.027-.026.046h0z" class="H"/><path d="M28.094 10.129c.026-1.113-.325-2.132-.745-3.145-.33-.797-.756-1.53-1.242-2.236-.058-.085-.179-.156-.14-.295 1.025.588 2.218 3.466 2.353 5.673-.075.074-.15.074-.226.003z" fill="#b97c1c"/><path d="M28.797 4.275c.804.847 1.181 1.888 1.412 3.01.118.573.048 1.162.207 1.728.052.187.014.382-.198.616-.029-1.942-.393-3.708-1.545-5.231-.039-.122.013-.151.124-.124z" fill="#b87b1c"/><path d="M28.979 10.466c-.296-2.022-.491-3.962-1.842-5.534.101-.116.193-.035.275.025.241.178.391.436.533.686.605 1.068 1.233 3.385 1.034 4.823z" fill="#be7f1b"/><path d="M27.158 2.206c-.739.398-1.459.571-2.118.893-.668.326-1.191.801-1.641 1.382.242-1.269 2.113-1.984 3.759-2.275z" fill="#c07e1e"/><path d="M21.117 3.317c-.677.87-2.501 2.01-3.609 2.272 1.222-.726 2.519-1.338 3.609-2.272z" fill="#c9851e"/><path d="M16.59 4.909c1.064-.659 2.22-1.143 3.353-1.844-.224.386-.225.382-1.008.773l-1.183.61a6.59 6.59 0 0 1-1.162.46z" fill="#cd861e"/><path d="M23.408 2.875c.01-.101.05-.178.137-.241.335-.24.598-.548.824-.892.056-.085.084-.23.318-.198-.312.586-.676 1.065-1.278 1.333l-.001-.002z" fill="#ca851d"/><path d="M21.755 2.142c-.475.227-.934.499-1.516.424l1.442-.56.073.136z" fill="#cc871b"/><path d="M28.094 10.129l.226-.002c-.043.359.128.749-.226 1.073v-1.071z" fill="#d58e1d"/><path d="M21.948 1.912l1.101-.553c-.25.403-.641.544-1.039.673l-.062-.119z" fill="#cd861d"/><path d="M26.54 10.373v1.279c-.02 0-.039 0-.059 0v-1.279h.059z" fill="#ba7b1c"/><path d="M26.249 7.193c-.072-.058-.097-.068-.101-.082-.036-.159-.214-.297-.08-.481.019-.026.089-.052.096-.044.147.166.229.346.085.607z" fill="#be7e1b"/><path d="M28.797 4.275l-.124.124-.37-.337c-.047-.045-.034-.105.008-.148s.101-.052.149-.012c.131.107.257.22.336.374z" fill="#d0871c"/><path d="M23.41 2.876c-.133.275-.39.376-.651.472.141-.262.37-.404.65-.473l.001.002z" fill="#ca851d"/><path d="M27.092 9.93c.249.236.157.396.025.575-.135-.178-.091-.347-.025-.575z" fill="#c1821b"/><path d="M19.629 5.329c-.112.246-.237.357-.398.44.044-.273.044-.273.398-.44z" fill="#c47d1d"/><path d="M17.785 6.567c.062-.179.104-.379.421-.42a.59.59 0 0 1-.421.42z" fill="#c2801b"/><path d="M29.455 3.793c-.236-.078-.269-.211-.264-.423.231.079.271.209.264.423z" fill="#c6841e"/><path d="M25.602 1.857c.079.014.125.052.092.111-.021.037-.082.065-.127.069-.052.004-.116-.026-.073-.097.024-.039.078-.061.108-.083z" fill="#cc8a1b"/><path d="M31.159 10.589c.094-.023.089.044.092.091.004.069.016.148-.062.185-.02.009-.076-.016-.09-.04-.053-.097.015-.167.059-.236z" fill="#c1801a"/><path d="M30.117 3.972c-.001.013.002.032-.005.036s-.033.015-.044.01c-.047-.023-.045-.047.006-.061.012-.003.028.01.043.015z" fill="#efb04f"/><path d="M29.931 2.686c.013-.005.029-.018.04-.015.044.012.048.036.012.059-.01.006-.032-.001-.043-.008s-.006-.023-.009-.036z" fill="#edab3d"/><path d="M17.427 3.005l.055-.055c-.003.011-.003.026-.011.032s-.03.015-.045.022v.001z" fill="#ebb351"/><path d="M13.683 28.029c.146.334.031.685-.096.951-.32.676-.414 1.405-.556 2.112-.201.997-.266 2.022-.389 3.035-.116.634-.274 1.261-.249 1.914.002.063-.067.128-.103.192v-.476l-1.278 2.812-1.039 2.188-1.32 2.965c-.211.501-.521.941-.779 1.413-.19.348-.415.124-.621-.009-.212-.293-.015-.561.066-.827.118-.389.225-.785.413-1.15.232-1.004.914-1.822 1.164-2.819l.118-.325a6.29 6.29 0 0 1 .821-1.431c.412-.671.555-1.446.825-2.171l1.248-3.573c.456-1.381.876-2.776 1.156-4.204a.8.8 0 0 1 .4-.58c.068-.077.142-.069.22-.018z" class="C"/><path d="M9.834 38.575c-.175.533-.371 1.055-.821 1.431a4.77 4.77 0 0 1-2.234-.044c-1.099-.285-1.651-1.68-1.632-2.498.003-.111.045-.227.09-.331l.608-1.37c.012.356.088.69.309.983.093.123.159.269.165.431.005.124.061.224.146.309.555.563 1.168 1.054 1.994 1.07.457.009.916.153 1.375.018z" fill="#c25a50"/><path d="M13.683 28.029l-.22.018-.489-1.161c-.115-.251-.118-.468-.102-.712.115-.107.227-.097.338.007.358.444.779.807 1.308 1.036.014.173-.161.227-.221.354l-.489.364-.123.099-.002-.004z" fill="#cc5b4f"/><path d="M13.21 26.18l-.338-.007c-.434-.1-.871-.143-1.317-.125-.5.02-.995-.05-1.49-.119-.086-.061-.192-.112-.114-.248l2.487.097c.241.033.405-.04.577-.166-.092.243.12.382.196.568z" fill="#682f2b"/><path d="M10.649 23.126c-.465.192-.954.09-1.432.115-.12.006-.247-.034-.235-.183.008-.106.116-.149.218-.151l1.564-.022c.07.132-.046.175-.115.241z" fill="#7e3733"/><path d="M12.182 24.538c-.546.191-1.099.093-1.65.037-.115-.011-.228-.044-.342-.066.004-.22.136-.145.252-.11.588-.198 1.157-.127 1.711.127l.029.012z" fill="#652a27"/><path d="M9.95 25.681l.114.248c-.028.013-.058.02-.089.021-.091.052-.179.057-.262-.017l-1.301-.176c.417-.208 1.016-.223 1.537-.077z" fill="#66302c"/><path d="M10.441 24.399c-.094.013-.19.021-.252.11a1.11 1.11 0 0 1-.512-.039c-.158-.058-.336.134-.486-.037.314-.201.707-.212 1.25-.034z" fill="#762e29"/><path d="M9.714 25.934l.262.017c-.127.249-.224.521-.544.697-.048-.338.223-.486.281-.714z" fill="#833d35"/><path d="M10.649 23.126l.116-.241c.168-.093.35-.038.527-.047.097.025.155.085.164.187-.249.19-.538.069-.807.101z" fill="#80413b"/><path d="M11.381 22.898l-.619-.016c.256-.187.551-.07.826-.108.029.028.041.058.035.09s-.013.049-.021.049c-.076.036-.151.043-.221-.015z" fill="#9e4543"/><path d="M11.569 22.875a.3.3 0 0 0 .019-.1l.23-.006c.031.037.067.069.107.096-.031.133-.133.13-.236.123-.039-.039-.117-.036-.12-.113z" fill="#cb9f95"/><path d="M12.433 24.316l-.049.109c-.078.048-.154.056-.226-.011.027-.132.032-.134.275-.098z" fill="#ad4e53"/><path d="M11.569 22.875l.12.113-.232.038c-.048-.029-.082-.066-.075-.127l.188-.023z" fill="#c0c4be"/><path d="M12.157 24.414l.226.011-.007.115-.195-.003c0 0-.028-.012-.029-.012-.009-.038-.008-.075.004-.112z" fill="#cfefea"/><path d="M11.925 22.865c-.07.006-.094-.039-.107-.096.076-.013.098.035.107.096z" fill="#f4fbfb"/><path d="M1.992 41.376l.119-.238c.651.517 1.346.975 2.098 1.32.944.433 1.937.639 2.978.364.094-.025.188-.061.282-.063.202-.004.111.15.12.249-.019.058-.058.093-.117.106-.239-.015-.45.114-.681.134-1.815.159-3.318-.556-4.672-1.68-.057-.047-.086-.127-.127-.192z" fill="#5c66b9"/><path d="M7.473 43.115l.117-.106.124.006c.11-.026.167.001.128.126-.148.677-.492 1.295-.589 1.987a.85.85 0 0 0-.329.317c-.071.109-.161.183-.283.108-.115-.071-.106-.207-.064-.313l.405-.956c.178-.384.394-.75.492-1.168z" fill="#0d1321"/><path d="M14.279 20.549c-.263-.34.278-.183.181-.449-.174-.041-.343-.255-.626-.276-.179-.014-.258-.148-.194-.342.03-.09.07-.205.039-.281-.15-.369-.136-.732.073-1.186-.245.126-.29.33-.494.368-.161-.077-.039-.419-.356-.423-.182-.002-.233-.337-.06-.395.263-.087.424-.287.635-.428l.003.003c-.017.335.234.406.472.423.279.02.538.027.704.299.027.044.093.094.139.092.413-.015.825.095 1.238.016l-.001.001c.058.001.118-.006.175.003.392.061.401.085.158.456.282.016.481-.046.633-.315.126-.223.249-.192.349.071.046.122.104.233.223.233.268.002.484.111.697.253.105.07.228.087.302-.047.171-.309.381-.111.595-.088-.066.189-.278.106-.338.26.012.19.172.087.262.115.076.024.19.045.185.113-.019.3.188.596.042.887-.064.126-.014.22-.012.331l.003 1.402c-.01.231-.056.423-.286.624s-.544.572-.263.998c.034.051.037.108-.037.125-.362.082-.279.402-.34.642-.019.073-.011.155-.006.233.021.295-.336.188-.383.345-.046.151.214.326.018.511-.042.04-.08.102-.129.112-.101.021-.155-.34-.304-.04-.069.14-.116.282-.142.44-.051.307-.145.377-.428.226-.246-.132-.442-.063-.446.133-.012.575-.4.508-.761.527-.035.002-.069.026-.107.041.039.14.274.016.273.252-.417.091-.836.084-1.277.002.064-.266.284-.117.354-.186.066-.059.057-.091.002-.101l-.743-.125c-.106-.016-.193-.032-.172-.169.012-.083-.006-.176-.076-.206-.651-.28-.266-.841-.342-1.272-.029-.164.127-.221.278-.223l.759-.006c.102-.004.247.06.276-.12.019-.116.043-.275-.097-.298-.343-.055-.299-.318-.313-.537-.019-.286-.199-.563.029-.905-.421.055-.65-.089-.797-.398-.051-.109-.258-.15-.176-.321.071-.147.21-.225.382-.226.019 0 .04.004.058-.002.15-.047.378.116.449-.133.08-.279.143-.575.004-.851-.047-.093-.219-.076-.284-.187z" fill="#040606"/><path d="M11.378 19.132l.079-.103 1.297-.238c.163-.031.312-.024.416.125.114.164.082.332-.009.493-.087.155-.211.271-.364.367l-.619.432c-.405.316-.799.649-1.247.906-.187.107-.367.3-.614.119l-.018.016c-.354-.866-.211-1.366.537-1.872.174-.096.367-.152.542-.246z" fill="#f46b5e"/><path d="M11.952 21.12c.532-.234 1.068-.463 1.661-.469.378-.004.516.137.515.464a.41.41 0 0 1-.236.374c-.936.445-1.886.817-2.923.304-.082-.041-.145-.121-.217-.183.025-.355.342-.397.57-.536.215-.06.419.032.629.047z" fill="#f46c5e"/><path d="M19.546 22.765c.056.169.287.09.352.247-.243-.01-.384.096-.33.348.1.471.127.96.328 1.407l.018.338c-.227.297-.296.694-.6.943v.001c-.069-.063-.046-.169-.112-.234l-.241-1.036c-.029-.151-.087-.241-.241-.259l.35-.769c.209-.382.33-.794.447-1.208l.029.221z" fill="#222842"/><path d="M11.385 21.139l-.632.47c-.16-.108-.338-.195-.436-.375.316-.008.521-.24.768-.386.364-.215.677-.515 1.093-.639-.077.159-.249.267-.252.466-.074.101-.107.23-.212.309-.083.11-.247.044-.329.155z" fill="#652d2a"/><path d="M18.126 17.639c.05.018.107.028.149.058s.16.021.113.122c-.016.034-.094.038-.144.056-.229-.06-.485.036-.696-.125.19-.051.412.068.578-.111z" fill="#aa574c"/><path d="M11.386 21.139c.05-.133.184-.171.281-.249l.059-.004c.039.007.076.02.11.04a.61.61 0 0 1 .083.083l.035.111c-.18.27-.378.003-.567.019z" fill="#d4948a"/><path d="M11.918 21.009l-.109-.005a1.07 1.07 0 0 0-.092-.086l-.05-.028c.057-.108.155-.166.26-.215.023.112.036.224-.009.335z" fill="#b4bab5"/><path d="M14.452 26.816c-.017.029-.03.064-.054.087-.034.033-.076.023-.081-.023-.004-.028.02-.073.044-.085s.06.013.091.022z" fill="#221314"/><path d="M18.719 24.524c.008.099-.014.186-.106.24-.009-.1.016-.184.106-.24z" class="C"/><path d="M16.033 17.971c-.017-.009-.049-.022-.048-.026.01-.041.028-.031.047.027l.001-.001z" fill="#231617"/><path d="M14.962 13.652l.036 1.014c.04.083.03.182.082.262l.001.117c-.069.072-.136.071-.204-.001.008-.325-.207-.599-.178-.945.019-.228.084-.351.264-.447z" fill="#f2ecee"/><path d="M14.875 15.044l.204.001.056.938c-.236-.272-.205-.617-.26-.939z" fill="#ecd8dc"/><path d="M13.107 14.585c.012-.064-.014-.151.088-.159.021-.002.067.043.066.065-.005.103-.093.078-.157.09l.004.004z" fill="#ced1e3"/><path d="M7.842 43.139l-.128-.126c-.007-.524.272-.952.475-1.405l.145-.224.561-1.054c.202.152.072.309.001.459l-.703 1.453c-.163.288-.098.653-.352.896z" fill="#12182a"/><g fill="#616786"><path d="M3.883 37.071c-.011.08-.037.153-.123.177-.044.012-.078-.015-.068-.053.021-.079.076-.132.153-.162l.038.038z"/><path d="M3.844 37.033l.077-.04-.039.078c0 0-.038-.038-.038-.038z"/></g><path d="M22.807 47.452l.131-.1h1.217c.174-.001.32.04.311.246-.059 1.313-.185 2.614-.789 3.814-.022.043-.097.059-.147.088-.348-.113-.704-.051-1.058-.045l-.263-.1c.25 0 .387-.125.438-.369l.28-1.299c.055-.46.101-.919.223-1.366.076-.276-.064-.525-.084-.789-.002-.033-.169-.053-.26-.079z" fill="#c25a51"/><path d="M12.956 51.611c.014-.005.029-.018.041-.015.044.012.049.036.012.059-.01.006-.032 0-.043-.008s-.006-.023-.009-.036z" fill="#1e3132"/><path d="M8.638 51.742c-.013.011-.027.03-.039.029s-.023-.022-.035-.035c.013-.011.027-.03.039-.029s.023.022.035.035z" fill="#818788"/><path d="M24.116 47.115c.013-.075.015-.167.097-.194.504-.164.983-.425 1.537-.389-.042.06-.123.124-.117.178.012.102.119.05.185.056.095.009.19.003.286.003-.057.1-.163.11-.259.139h-.296c-.037.016-.076.025-.116.028-.039.019-.036-.097-.091-.029-.002.044-.023.074-.063.092l-.114.006c-.065.068-.174.04-.237.11-.271-.06-.541.192-.812-.001z" fill="#0e1321"/><path d="M27.266 46.889c.063.021.101.063.116.127l-.116-.127z" class="F"/><path d="M25.398 46.882l.151.026c-.009.033-.024.064-.045.091h-.225l.003-.112c.037-.038.075-.039.116-.005zm-.47.233c.054-.09.14-.112.237-.11-.053.093-.14.113-.237.11z" class="C"/><path d="M30.197 22.304c.002-.095.022-.181.112-.233.003.097-.018.183-.112.233zM2.924 39.744l-.05.052c.002-.012.001-.028.008-.034s.029-.011.044-.016l-.002-.002z" class="B"/><path d="M16.983 16.192c.085.066.101.157.091.257-.094-.063-.102-.157-.091-.257z" class="H"/><path d="M17.673 17.278l.105.115-.105-.115z" fill="#d25c4f"/><path d="M11.378 19.132a.73.73 0 0 1-.542.246c.146-.157.309-.279.542-.246z" fill="#b3978a"/><path d="M10.007 21.051l.013.034-.033-.004.02-.03z" fill="#814235"/><path d="M13.684 28.033c.016-.065.059-.096.123-.099l-.123.099z" class="C"/><path d="M19.202 25.815c.09.053.11.139.112.234-.096-.05-.115-.136-.112-.234z" class="B"/><path d="M33.476 25.933l-.049-.027.022-.022.027.049z" class="E"/><g class="B"><path d="M28.205 51.916c.055.002.11 0 .163.008.032.005.091.035.089.04-.019.069-.08.07-.129.049s-.083-.064-.124-.098z"/><path d="M28.443 51.683l-.027.049-.022-.022.049-.027z"/></g><path d="M21.303 26.636c.066.064.122.154.201.188.433.186.435.181.254.643-.371-.123-.601-.403-.802-.717l.098-.134c.058-.089-.122-.258.049-.277.157-.017.187.158.2.296z" class="I"/><g fill="#c3584d"><path d="M25.286 28.165a.33.33 0 0 1 .113-.477c.102-.052.227-.082.302-.16.181-.188.291-.065.413.061-.192.313-.436.551-.828.576z"/><path d="M26.113 27.587c-.028-.198.068-.205.212-.138-.037.098-.116.131-.212.138z"/></g><path d="M21.76 27.461l.128.11c-.062-.014-.108-.046-.128-.11z" class="I"/><g fill="#df6456"><path d="M19.781 7.323c-.272.066-.558.15-.786.272s-.339-.031-.501-.038c.145-.213.397-.235.606-.312.505-.187.927-.524 1.417-.737a1.33 1.33 0 0 1 .552-.122 3.11 3.11 0 0 1-.569.367c-.265.135-.429.438-.718.57z"/><path d="M21.887 5.684c-.202.317-.47.557-.82.702.137-.393.356-.69.82-.702z"/></g><path d="M17.099 15.249c.59.366 1.266.238 1.905.321.113.015.292-.047.266-.229-.018-.128-.148-.163-.268-.167l-.863-.024c-.025-.086-.237-.118-.067-.262a.98.98 0 0 1 .335-.203c.245-.082.61-.019.64-.439.005-.071.115-.057.196-.057.457-.003.59-.131.498-.579-.059-.284 0-.403.274-.433l.31.911c.052.187.372.355.35.496-.037.237.07.4.112.594.008.037.031.07.047.105-.046.739-.434 1.324-.898 1.85a1.3 1.3 0 0 1-1.616.199c-.458-.313-.902-.677-1.114-1.23-.277-.254-.205-.551-.106-.852z" class="D"/><path d="M23.527 14.228c.13-.007.232.064.342.117.126.027.185.117.22.231-.204.491.056 1.085-.335 1.536-.107.054-.207.117-.248.241-.255.284-.507.39-.798.03-.142-.176-.578-.805-.702-1.101v-.117c-.08-.156-.114-.302.08-.403.026-.061.102.092.116-.028-.008-.154.042-.284.155-.389v-.001a.11.11 0 0 1 .127-.029c.036.035.028.093.067.126-.022-.049-.014-.1-.011-.151.145-.143.316-.21.521-.18.097.073.176.16.201.284.027.027.025.062.022.097.025-.029.021-.059-.012-.089.038-.128.132-.175.257-.175z" class="J"/><g class="K"><path d="M23.652 16.102c.098-.189.082-.416.231-.596.072-.087.205-.276-.109-.309-.228-.024-.052-.214-.01-.24.154-.096.274-.19.233-.393.074-.094-.015-.226.075-.316.195.115.427-.004.624.098-.275.168-.164.465-.234.701-.022.024-.049.042-.079.052-.033.004-.051.024-.05.058a.32.32 0 0 0 .063.063c.024.02.046.04.066.063.028.213-.239.342-.139.598.079.202.068.448-.288.351-.195.406-.883.181-.967.752-.007.049-.203.098-.31.097s-.152-.108-.133-.216c.05-.284-.102-.256-.31-.245-.151.008-.435.094-.428.037.029-.216-.151-.389-.111-.56.065-.272-.028-.596.228-.814.282-.01.411.084.28.384-.081.188-.1.315.202.313.124-.001.255.219.374.347.267.285.29.282.55-.113.066-.069.144-.111.241-.111zm-.594-1.99c-.108.174-.302.174-.468.232a.06.06 0 0 1-.12.001h-.058-.058c-.037-.13-.19-.195-.191-.408.291.164.662-.384.894.175z"/><path d="M23.292 14.463a.35.35 0 0 1-.234-.351c.181-.066.216-.181.115-.342.03-.027.04-.054.031-.082s-.019-.042-.028-.042c.29-.232.193.166.33.204.357.097-.071.256.021.379l-.234.234zm-.937-.118c.019.17-.036.322-.116.468-.238.011-.236.181-.235.352-.069-.045-.097-.114-.121-.191-.171-.545-.119-.616.472-.629z"/></g><path d="M24.073 14.248c.058.125.074.24-.075.316l-.13-.219c.052-.066.126-.087.205-.097z" fill="#361815"/><path d="M24.353 15.036l.109.011v.236l-.122-.004c-.059-.055-.066-.121-.039-.194l.053-.048z" class="J"/><path d="M23.176 13.646c.129.044.108.085-.003.124l.003-.124z" fill="#692916"/><path d="M16.789 13.895c.015.084-.024.127-.076.146-.092.033-.153-.025-.159-.105-.003-.036.066-.101.11-.108s.09.047.126.068z" fill="#602627"/><path d="M16.071 15.221c.064-.004.113.027.125.085.015.076-.049.092-.104.089-.034-.002-.088-.022-.097-.046-.021-.061.019-.104.076-.129z" fill="#90413d"/><path d="M15.548 15.751c.074-.018.164-.042.188.054.021.086-.071.122-.132.164-.126-.045-.087-.132-.055-.218z" fill="#532d28"/><path d="M15.84 14.273c.023.017.065.038.063.047-.008.03-.032.055-.05.083-.013-.012-.037-.026-.036-.037.002-.03.014-.06.024-.093z" fill="#562a23"/><path d="M15.548 15.751l.055.218-.153.016h0c.001-.091.016-.176.098-.234z" fill="#e1675f"/><path d="M17.331 14.921c-.178-.355-.177-.427.126-.565.346-.158.698-.303 1.021-.507.012.557-.114.729-.67.838-.188.037-.386.016-.478.234z" fill="#eb5c5c"/><path d="M18.619 13.06c.174-.614.343-1.228.35-1.873.072-.07.144-.07.217 0l.003.971c-.021.327-.104.643-.327.903l-.242-.001z" fill="#6f2f2d"/><path d="M19.186 11.187h-.217l.001-.455c.321.033.203.276.216.455z" fill="#7e3531"/><path d="M17.554 15.041l-.056.001-.053-.018c-.03-.02-.041-.041-.031-.062s.02-.031.03-.031l.11.11z" class="D"/><path d="M17.444 14.931l.001.093c-.064-.003-.099-.039-.111-.099l.11.006z" fill="#eb5c5c"/><path d="M28.558 13.992c-.008.017-.013.037-.025.05-.069.082-.124.202-.264.128-.021-.011-.036-.069-.026-.096.066-.186.195-.128.32-.075l-.005-.007z" fill="#6f302b"/><path d="M28.098 14.704l-.049-.05c.01.003.023.003.029.01s.014.026.021.039z" fill="#c75e53"/><path d="M15.079 14.928c-.089-.068-.096-.162-.082-.262.085.069.098.161.082.262z" fill="#ecd8dc"/><path d="M18.113 23.583c-.081-.01-.163-.044-.151-.132.02-.155.154-.21.286-.237.102-.021.122.065.122.143 0 .169-.095.238-.257.226zm-3.659-3.139l.08.058-.147.045c-.035.007-.072.002-.108.002.04-.066.095-.105.175-.105z" fill="#050606"/><path d="M11.716 20.917c.06-.003.084.033.092.086-.062.005-.094-.022-.092-.086z" fill="#f6fcfd"/><path d="M25.398 46.882l-.116.005c.035-.067.074-.073.116-.005z" class="E"/><path d="M21.299 26.69c-.013.033-.025.091-.041.092-.045.004-.063-.036-.036-.076.019-.028.063-.072.078-.066.072.029.002-.028-.001.05z" fill="#d55e52"/><path d="M23.652 16.102c-.055.091-.141.116-.241.111.018-.172.062-.288.241-.111z" fill="#aa463f"/><path d="M23.375 14.778c.009.066-.026.106-.085.112-.028.003-.075-.019-.088-.043-.029-.052-.014-.114.042-.134s.103.011.131.065z" fill="#4c2625"/><path d="M23.444 14.506c-.009.015-.023.043-.028.042-.033-.009-.07-.019-.095-.04-.05-.043-.038-.062.025-.042.033.011.065.026.098.04z" class="K"/><path d="M22.47 14.345l.12-.001c-.01.059.024.149-.081.142-.016-.001-.026-.092-.038-.141z" fill="#8b3c31"/><path d="M22.731 15.553c-.001.014.003.035-.004.039-.013.009-.036.018-.049.012-.053-.023-.052-.05.004-.067.014-.004.032.01.049.015z" fill="#732e27"/><path d="M22.239 14.814c.016.009.047.021.046.027-.009.039-.027.029-.046-.027z" class="K"/><path d="M24.236 15.278c-.111-.07-.161-.167-.069-.276.058-.069.132-.025.187.034l-.005.007c-.079.058-.044.171-.112.234z" class="J"/><path d="M24.236 15.278c-.013-.102-.024-.203.112-.234l-.009.235c-.035 0-.069 0-.104-.001z" fill="#6c302c"/></svg>