<svg xmlns="http://www.w3.org/2000/svg" width="45" height="66" fill="none" xmlns:v="https://vecta.io/nano"><style><![CDATA[.B{fill:#050606}.C{fill:#5c2c1d}.D{fill:#e45943}.E{fill:#753825}.F{fill:#703723}.G{fill:#fefefe}.H{fill:#406467}.I{fill:#6e3d2f}.J{fill:#050607}.K{fill:#723121}.L{fill:#6a392c}.M{fill:#82c9c4}.N{fill:#3b5d60}.O{fill:#773824}.P{fill:#743824}.Q{fill:#562b1e}.R{fill:#703623}.S{fill:#c2503d}.T{fill:#e64b45}.U{fill:#060707}]]></style><path d="M38.812 32.948c-.007.038-.003.074.01.109.199.241.324.514.389.822l.528 2.492-.004-.006c.387.974.612 1.993.857 3.007.129.534.219 1.07.21 1.62v-.002c.16.198-.025.465.133.664l-.002-.002c.547 1.686.815 3.428 1.054 5.177-.006.038-.003.075.008.112.587 1.709.724 3.496.895 5.274.056.579-.123 1.17.023 1.754-.009.037-.008.073.001.109.026.036.064.074.062.113-.087 1.706-.045 3.428-.61 5.076-.092.269-.166.55-.385.755h.005c-.765 2.394-2.52 3.612-4.881 4.11l-.002.001c-.099.083-.209.061-.319.031l-4.7-.52c-2.418-.5-4.941-.563-7.212-1.693-.29-.144-.635-.204-.793-.541l1.14-4.701c.731-.655 1.628-.523 2.447-.373 1.186.217 2.412.183 3.569.58.358.123.185-.203.223-.344.031-.43.113-.854.174-1.28l.007-.205c.007-.176.02-.35.061-.522.255-1.798.312-3.61.354-5.421.026-1.15.157-2.299.036-3.451a1.18 1.18 0 0 1 .023-.208c.064-.206-.005-.419.024-.627-.035-1.466.151-2.923.153-4.387.168-.914.109-1.842.163-2.762.057-.238.13-.474.116-.724v-.205l-.002-.205-.002-.205-.002-1.025c-.039-.497.1-.979.131-1.47.004-.063-.002-.159-.054-.157-.047.002.039.083.009.136-.364 1.592-.519 3.21-.648 4.832-.169 2.13-.073 4.266-.153 6.397-.098 2.595-.479 5.163-.843 7.731l-.316 3.088c-.037.282-.043.587-.392.695-.812.086-1.594-.143-2.388-.241-.829-.102-1.67-.324-2.46.164-.6.015-.925-.454-1.343-.76l-4.906-4.151c-.445-.326-.932-.661-1.145-1.228l.498-3.697 1.08-5.409.127-.465a2.03 2.03 0 0 1 .041-.175 1.11 1.11 0 0 0 .034-.353l.007-.093c.011-.064.029-.126.05-.187.309-1.144.446-2.321.692-3.476.08-.226.084-.468.14-.7.171-.557.249-1.136.389-1.699.252-.778.328-1.616.782-2.327.524-.468 1.105-.863 1.684-1.26.189-.13.384-.334.636-.095.24.713.065 1.419-.051 2.123-.068.415-.033.742.452.844.774.071 1.363-.395 2-.705.412-.201.73-.56 1.157-.746 1.09-.485 1.807-1.346 2.389-2.349l1.932-3.648c.108-.225.238-.421.514-.456 1.026.099 1.932.431 2.78 1.073 1.15.873 1.955 1.941 2.435 3.288.214.602.605 1.12.911 1.678-.119.474.047.933.081 1.4z" class="M"/><path d="M38.706 31.593c-.385-.255-.548-.67-.74-1.057l-.556-1.259c-.373-.948-1.058-1.637-1.796-2.307-.86-.781-1.867-1.168-2.987-1.331-.432-.061-.835.146-1.261.144-.673-.11-1.343-.085-2.005.072-.621.147-1.254.089-1.88.129-.062.013-.127.016-.19.01-.249-.217-.473.092-.716.039l-.644.14c-1.117-.102-2.107-.494-2.924-1.281-.034-.145.01-.274.086-.395.177-.289-.033-.543-.069-.814-.106-.787-.341-1.589.234-2.308.062-.02.126-.023.19-.008.3.52.128 1.173.481 1.736.117-.238.019-.51.232-.66a.18.18 0 0 1 .177.065c.118.185.108.392.114.598-.019.428.018.856.028 1.282.061.368.236.126.347.051l2.63-1.971c.247-.208.68-.251.681-.699-.067-.13-.176-.231-.251-.356-.031-.053-.054-.11-.074-.168-.148-.524.135-.98.256-1.453.126-.493.193-.975.135-1.477.102-.683-.283-1.286-.315-1.947.144-.404.202-.761-.355-.906-.15-.039-.159-.249-.237-.379-.108-.181-.32-.12-.476-.165-.112-.032-.025.231-.15.303-.547-.38-1.15-.661-1.736-.97-.039-.044-.072-.094-.098-.146-.062-.111-.087-.251-.231-.298-.047-.002-.092.003-.136.02a.67.67 0 0 0-.119.184c-.033.074-.072.144-.118.21-.053.067-.119.113-.203.129-.111.005-.205-.041-.296-.096a.45.45 0 0 0-.194-.06c-.07.017-.112.065-.14.13-.048.159-.041.328-.108.481-.62.685-.999 1.435-.902 2.414.033.337.073.798-.303 1.076-.354-.008-.235-.296-.286-.483.008-.064-.12-.103-.036-.184-.097.089.074.152.023.238.117.53-.203.655-.629.68-.76.044-1.48-.142-2.198-.359-.251-.076-.508-.14-.768-.189-.659-.398-1.412-.245-2.12-.354-1.005-.155-2-.319-2.916-.797-.397-.207-.755-.453-1.011-.828-.351-.549-.098-1.113-.019-1.665.042-.289.24-.301.494-.155 1.537.881 3.204 1.429 4.925 1.781.663.135 1.371.116 2.06.072-1.978.133-3.81-.417-5.592-1.193-.616-.268-1.299-.421-1.744-.991.097-1.236.694-2.294 1.214-3.379.45-.938 1.136-1.712 1.81-2.539-.707.618-1.175 1.367-1.64 2.124a2.87 2.87 0 0 1-.758.816c-.014.04-.127.007-.076.077.024.033.109.031.146.086.091.228-.005.427-.095.624-.279.614-.442 1.268-.66 1.904-.15.839-.394 1.672-.112 2.529.048.179.053.363.057.546-.068.476.14.937.073 1.413-.039.108-.102.191-.223.213-.615-.342-.425-.981-.552-1.503.021-.043.017-.083-.012-.121-.131-.213.013-.468-.107-.683l.008.006c-.368-.648-.314-1.305-.043-1.967l.027-.237c.056-.071.028-.145.007-.219l-.001-.01c.121-.226-.04-.503.131-.721l-.006.009c.181-.474-.09-1.069.394-1.462l-.001.001c.171-1.045.758-1.892 1.381-2.693.317-.407.532-.903.964-1.22.146-.129.3-.25.428-.395a.34.34 0 0 0 .031-.129c-.01-.021-.016-.042-.025-.064l-.082-.12-.043-.063-.09-.134c-.191-.287-.376-.577-.448-.921-.018-.166-.064-.322-.182-.449-.033-.05-.058-.102-.079-.157-.063-.299-.29-.547-.265-.873.116-.23.186-.477.266-.72l-.003.007c.164-.54.198-1.152.796-1.454l-.003.002c.031-.056.081-.097.123-.144l.002-.003C15.222.786 16.236.26 17.418.435c.518.077 1.064-.001 1.548.268.078.109.204.151.312.219.011.159-.098.213-.222.252-.094.044-.207-.032-.294.048-.002.001.052.056.09.085a2.55 2.55 0 0 0 .247.183.56.56 0 0 1 .115.104c.081.101.082.235.141.346.07.106.166.188.258.274l.189.161c.456.349.76.811 1.008 1.32.099.203.121.469.38.567a1.3 1.3 0 0 0 .323.039l.257-.036a.88.88 0 0 1 .189.013c.919.048 1.784.278 2.583.74a.1.1 0 0 0 .107.017c.686.192 1.264.564 1.779 1.051.696.657 1.652.989 2.24 1.783.022.058.026.118.012.179-.061.079-.141.098-.235.074-.047-.035-.086-.096-.141-.103-.069-.009-.079.007-.024.004.039-.002.074.016.102.049l.12.117c.162.112.17.33.315.454a.58.58 0 0 1 .14.07.9.9 0 0 1 .112.117c.086.103.146.228.267.298.047.026.091.058.132.092.106.119.183.261.3.371l.175.171c.171.147.292.336.429.512.029.047.048.098.054.153.039.173.216.234.298.372.047.064.104.118.16.173l.155.164c.02.033.041.066.066.096l-.065-.094c-.045-.059-.099-.109-.152-.161l-.156-.167a.58.58 0 0 0-.146-.179.48.48 0 0 1-.106-.118l-.035-.073c-.012-.054-.027-.106-.047-.158-.074-.092-.139-.186-.085-.312.054-.084.132-.117.23-.108.775.711 1.333 1.592 1.92 2.451l-.005-.006c.062.037.116.08.125.158l-.007-.006.86.324c.221.296.581.315.887.442.956.289 1.916.526 2.919.237.172.017.342.037.419.227a6.46 6.46 0 0 1-.392.224c.718.356 1.585.126 2.342.466.073.167-.043.222-.163.275-.087.009.028.005-.06.013-.041.004-.081.005-.122-.001-.001.055.05.017.072.039 1.013.509 1.904 1.16 2.56 2.098.072.09.135.185.191.286l.156.276c.076.114.207.138.321.189a.47.47 0 0 1 .166.18c.035.078.046.161.05.245l.006.332c.005.068.012.135.038.189a.62.62 0 0 0-.013-.061c-.034-.145-.021-.285-.026-.426.055-.29-.184-.656.224-.851.432.597.368 1.283.308 1.951-.037.406-.026.785.147 1.154.328.7.264 1.458.333 2.197l.17 1.236c.019.091-.075.166-.041.26.03.083.113.045.033.008s.059-.125.005-.059c.057-.013.108-.005.156.026a.39.39 0 0 1 .105.239c-.002.263-.168.458-.276.677l.009-.012a.31.31 0 0 0-.005.308l-.012-.015c.238.655.061 1.311-.123 1.916-.258.85-.336 1.719-.472 2.582-.174 1.107-.67 1.638-1.755 1.826l-1.755.293c-.385.035-.792.146-1.135-.156z" class="C"/><path d="M18.173 50.483c1.224 1.12 2.565 2.097 3.831 3.165.748.631 1.43 1.341 2.141 2.015.265 1.22.229 2.443.023 3.664-.12.714-.061 1.451-.296 2.149-.066.159-.19.249-.353.29-1.334-.051-2.648-.201-3.869-.801l-.044-.029-.052.01c-1.299-.199-2.482-.729-3.659-1.278-1.272-.574-2.616-.997-3.792-1.77-.71-.467-1.442-.907-2.073-1.486-.278-.269-.59-.506-.835-.806-.291-.358-.534-.74-.312-1.233.452-.136.708.235 1.01.429l1.711 1.055c1.037.668 2.182 1.128 3.278 1.681l-3.219-1.653c-.981-.548-1.908-1.179-2.841-1.803-.197-.262-.367-.541-.479-.849-.115-.315-.195-.673.013-.941.249-.32.304-.645.3-1.025-.003-.271.089-.521.426-.556.697.431 1.255 1.058 2.001 1.421 1.089 1.012 2.409 1.665 3.69 2.378.305.153.574.379.95.459-.367-.161-.672-.374-1.011-.526-1.234-.745-2.551-1.36-3.644-2.325-.683-.418-1.313-.905-1.915-1.433-.111-.388-.202-.78.226-1.039.405-.245 1.105-.088 1.53.319l1.648.972c.663.126 1.185.551 1.762.853l1.403.713c.455.254.97.386 1.397.684.029.036.059.038.082.002-.041.007-.077-.005-.109-.039-.793-.964-1.58-1.928-2.079-3.087.024-1.04.736-1.457 1.635-.943.458.263.88.584 1.263.952.123.114.168.278.261.412z" class="D"/><path d="M9.202 50.777c-.516.049-.404.456-.379.75.026.308.134.54-.262.745-.277.144-.214.548-.093.837.134.319.311.62.469.928-.021.113.095.218.021.334-.092.495.096.884.445 1.22l.723.739c.939 1.034 2.004 1.908 3.263 2.525.631.309 1.22.702 1.887.942.184.066.359.171.452.364.005.695-.397 1.254-.686 1.827-.402.8-.907 1.553-1.472 2.257-.392.489-.865.869-1.466 1.072l.003-.002c-1.175.428-2.337.568-3.457-.163.004-.067.021-.122.106-.113-1.662-2.051-2.566-4.491-3.292-6.958-.81-2.751-1.48-5.557-1.727-8.435-.039-.455-.28-.887-.158-1.36.021-.115.086-.191.2-.221.071-.008.141.002.207.029.935.297 1.867-.026 2.801-.027.456-.001.91-.131 1.373-.12.285.007.523-.077.594-.399.032-.141.07-.278.201-.363.887-.05 1.159.612 1.421 1.257l.533 1.523c-.363-.142-.712-.319-1.126-.277-.489.049-.629.185-.53.661.035.167.025.293-.053.429h0z" class="M"/><path d="M8.957 47.184l-.079.395c-1.235.31-2.512.255-3.764.418-.41.053-.817.147-1.234.148l-.109-.023c-.432-.575-.506-1.296-.783-1.935L1.31 42.772c-.198-.492-.355-.988-.278-1.529l-.031-.781c-.159-.745.133-1.413.369-2.085.341-.975.745-1.921 1.491-2.673l-.002.003a.55.55 0 0 0 .104-.143l.016-.016c.141-.145.11-.497.464-.388.237.182.521.202.803.259.575.116 1.183.179 1.594.688.081.228.014.422-.137.596-.501.497-1.202.306-1.75.51.743.232 1.56.34 2.284.736.225.123.523.244.489.557-.033.302-.339.374-.581.475-.693.289-1.437.15-2.151.253-.152.036-.305.032-.458.009.172.062.344.026.518-.002 1.128.035 2.224.232 3.284.618.236.086.574.138.514.481-.051.293-.351.373-.618.408-1.046.138-2.095.216-3.152.165l2.602.067c.327.038.648.112.966.204.282.081.601.166.61.505.008.313-.31.394-.555.475-.689.227-1.407.318-2.122.415-.513.056-1.022.171-1.466.134.404.008.884-.006 1.357-.111 1.04-.169 2.122-.184 3.027-.839.401-.174.769-.103 1.111.153.148.698-.023 1.371-.185 2.039-.075.312-.244.6-.339.908-.234.761-.22 1.54-.131 2.322z" class="D"/><path d="M15.672 52.643c-1.1-.457-2.104-1.088-3.114-1.708.373.019.499-.252.567-.533.332-1.381.793-2.719 1.314-4.037.178-.45.289-.917.379-1.392.222-1.164.649-2.267 1.031-3.384l1.281-3.8.613-1.595c.071-.155.191-.308.05-.486.047-.085.122-.139.204-.187l2.812-2.846c.176-.148.325-.461.643-.209.114.533-.221.992-.249 1.501a11.83 11.83 0 0 0-.39 1.694c-.139.209-.084.459-.139.685l-.758 3.633c-.011.059-.027.118-.048.175a1.52 1.52 0 0 0-.032.174c-.016.115-.058.224-.077.339a2.16 2.16 0 0 1-.041.173c-.058.181-.075.367-.078.555l-1.104 5.742-.342 2.271c-.024.308-.058.61-.284.849-.466-.358-.891-.774-1.416-1.05-.504-.266-.945-.173-1.229.21-.164.222-.079.464-.109.696-.071.714.391 1.268.559 1.91.05.189.373.446-.042.62z" class="M"/><path d="M5.646 23.013c.04.001.079-.004.118-.012.54-.372 1.683-.368 2.246.009v-.001c.072.077.193.055.267.13h0c.069.081.194.056.262.137l-.003-.003a1.53 1.53 0 0 1 .135.134l-.003-.002c.048.042.092.087.135.134l-.002-.002.135.132h-.001l.134.131.001.001.131.133h-.001l.133.134-.002-.001c.426.243.258.709.398 1.058l-.001-.002a.52.52 0 0 1 .005.528l-.006.257c-.101.255-.113.523-.253.787-.272.515.238.73.564.947.307.204.688.298.883.654l.001.001c.209.145.412.294.522.536h-.002c.486.46.362 1.023.267 1.58l.002-.003c.007.488-.308.826-.529 1.205-.259-.052-.25-.24-.266-.411-.085-.891-.617-1.475-1.495-1.53-.795-.049-1.316-.362-1.566-1.151-.154-.485-.615-.657-1.076-.755-.525-.112-1.008-.299-1.408-.667l.003.002c-.175-.086-.294-.232-.405-.386l-.003-.005a1.5 1.5 0 0 0-.127-.131l-.001-.001a.81.81 0 0 1-.261-.268l.001.002-.133-.135.003.001c-.27-.197-.337-.496-.397-.798l-.006-.257c-.094-.221-.104-.441.006-.66v.003c.213-.834.805-1.253 1.596-1.453z" fill="#debfc1"/><path d="M3.674 48.271l.366 2.387.652 3.539.448 2.044c.331 1.143.522 2.333 1.067 3.418.302.602.467 1.271.722 1.898.479 1.18 1.167 2.249 1.836 3.326.12.193-.014.153-.102.182-.317.076-.527-.105-.729-.304-.097-.168-.269-.219-.437-.278-.57-.254-.923-.723-1.21-1.246-.598-1.093-1.117-2.215-1.175-3.492.009-.038.005-.074-.013-.109-.6-1.222-.968-2.507-1.039-3.871l-.016-.227c-.129-.172-.006-.394-.116-.57l-.022-.223c-.43-.697-.454-1.504-.53-2.273l-.211-3.142c-.017-.412-.072-.906.51-1.058z" fill="#68a9a9"/><path d="M12.915 39.812c-.998.794-2.146.918-3.36.756-.513-.109-1.04-.189-1.363-.679-.052-.239.028-.402.269-.474.131-.031.262-.024.391.007a1.5 1.5 0 0 1 .246.094c.048.008.122.065.142.002.024-.074-.071-.12-.116-.178-.183-.222-.43-.377-.619-.591-.016-.059-.014-.117.007-.175.185-.265.528-.266.757-.458.18-.109.325-.265.511-.367.217-.07.493-.009.494.182.001.788.386 1.594-.052 2.344.457.017.959.111 1.291-.384.059-.088.204-.049.304.012.047.048.041.103.023.161.051-.003.035-.066.073-.082.333-.194.406-.565.587-.863.198-.046.3.082.396.219.083.154.13.31.021.473zM7.087 33.05l1.305-.01.089.026c.16.102.283.23.176.431-.095.178-.301.271-.447.175-.596-.39-1.088.143-1.635.173-.253.014-.521.287-.866.403.218.274.546.1.728.301.21.232.299.438-.008.653-.083.033-.17.037-.257.041-.26.033-.437.262-.697.299a.7.7 0 0 1-.18-.007c-.287-.113-.592-.177-.867-.322a.37.37 0 0 1-.088-.269c.008-.15.122-.222.222-.303l.007-.013c.093-.053.057-.188.152-.239l-.004.005a.28.28 0 0 1 .137-.134l-.004.003a.25.25 0 0 1 .141-.132l-.003.004c.133-.444.538-.316.843-.399.117-.038.31.096.336-.149-.036-.032-.045-.061-.029-.086s.031-.035.045-.035l-.006.011c.033-.061.033-.124.013-.189l.007.013c-.045-.036-.055-.062-.032-.076.015-.009.035-.014.061-.014l.203-.05c.059-.03.109-.079.179-.084l.042-.003c.065.029.129.046.192-.004l.243-.02z" class="B"/><path d="M9.575 32.908c.554-.212 1.148-.039 1.714-.186.305-.079.635-.065.954-.092l.137.002c.134-.054.275-.029.414-.035.36-.045.573.119.655.464.061.257-.067.358-.306.363-.129-.01-.246-.063-.362-.113-.492.024-.137.405-.245.589-.019.186.005.441-.21.479-.265.046-.367-.227-.503-.406-.076-.122-.107-.26-.126-.4-.022-.02-.009-.08-.069-.06.03.059.014.116-.006.175-.095.173-.133.391-.36.46-.211-.073-.202-.268-.243-.434-.034-.189-.154-.168-.288-.114-.337.128-.697.427-.938-.129-.01-.04-.032-.094-.012-.121.212-.281-.035-.342-.206-.44z" fill="#080808"/><path d="M9.611 41.915c-.361.084-.719-.265-1.081-.005-.108-.397-.382-.613-.768-.717-.166-.045-.398-.077-.411-.272-.017-.241.223-.288.412-.348.105-.033.203-.084.308-.114.444-.16.794.097 1.064.353.263.249.237-.046.339-.096.212.381.124.796.137 1.2z" fill="#bf503d"/><path d="M14.367 38.22c-.037.247-.308.375-.321.634-.4.292-.669.739-1.131.957-.004-.146-.077-.266-.146-.388.105-.277-.397-.517-.049-.809.051-.038.107-.051.17-.044.152.103.313.135.484.063.063-.036.106-.086.1-.167-.052-.211-.154-.399-.234-.598-.019-.056-.027-.113-.027-.172.008-.06.031-.113.066-.161l.081-.035.088.001a.76.76 0 0 1 .162.059c.151.076.273.193.408.292.093.06.195.103.291.159.067.057.122.117.058.21z" fill="#0d0c0c"/><path d="M9.474 40.715c-.007.203.002.43-.31.256l-.494-.302c-.17-.113-.341-.185-.541-.082-.146-.15-.129-.328-.089-.511.05-.103.114-.184.247-.148.32.165.618.381.997.407.141.01.227.102.272.233l-.081.147z" fill="#a84a3a"/><path d="M39.34 12.578c.574.137 1.188.1 1.724.4.012.144-.09.189-.198.23-.446.075-.863-.089-1.288-.165-.589-.105-1.173.056-1.759.003-.114-.043-.188-.123-.216-.242.337-.203.751-.035 1.092-.224a.62.62 0 0 0 .389-.009.15.15 0 0 1 .259.005h-.002z" fill="#804e42"/><path d="M43.844 15.469a.5.5 0 0 0 .108.056c-.005.038.01.063.046.076.297.591.486 1.22.656 1.855.036.057.038.117.012.179-.058.139-.008.348-.243.371-.383-.753-.562-1.575-.801-2.377.037-.105.089-.188.222-.16z" fill="#72493d"/><path d="M13.039 33.292c.186.003.441.081.255-.274-.117-.224-.258-.394-.536-.384-.033-.048-.021-.08.035-.095l1.305-.049.019.032-.028.024c-.216.26-.415.527-.366.897-.213.197-.439.192-.676.049-.048-.065-.05-.131-.008-.2z" fill="#9b7626"/><path d="M16.892 34.371c-.051-.09-.042-.212-.146-.273.014-.041.009-.08-.016-.117a.3.3 0 0 1-.054-.184v-.687c-.002-.067.017-.128.053-.185l.031-.349c.006-.069.044-.1.113-.091.088.037.149.1.183.189l.009.089-.016.087c-.056.102.056.154.074.235.077.297.055.598.047.9-.043.165-.022.375-.277.386z" fill="#6b3b2f"/><path d="M40.935 41.656c-.191-.192-.11-.438-.133-.664.227.185.104.44.133.664z" class="G"/><path d="M17.706 35.682l-.041-.128.032-.075a.28.28 0 0 1 .136-.087l.083.008c.081.029.145.08.189.154.014.058-.003.108-.045.149l-.268.006a.16.16 0 0 0-.086-.027z" fill="#8e7269"/><path d="M3.928 54.968c.163.165.112.373.116.57-.198-.157-.114-.372-.116-.57z" class="G"/><path d="M18.992.79l.127-.043.255.047-.002.148c-.041.042-.085.044-.132.009L18.992.79z" fill="#d9dad1"/><path d="M27.311 63.345c-.142-.011-.297.015-.393-.132l.012-.018c.181-.107.334-.125.4.128l-.019.023zM12.793 32.538a.26.26 0 0 0-.035.095l-.378-.002c.115-.132.267-.1.413-.093z" class="G"/><path d="M16.867 32.518a.59.59 0 0 1-.108.059l-.021-.314h.121c.043.031.069.072.076.125a.19.19 0 0 1-.069.131z" fill="#f4f2ee"/><g class="G"><path d="M43.957 25.147c-.126-.105-.117-.207.005-.308l-.005.308zM4.721 34.389c-.017.101-.053.19-.152.239.008-.107.037-.2.152-.239zm8.693-10.344c.022-.099.048-.194.146-.248l.02.015c.057.148.077.273-.151.25l-.015-.017zm19.169-11.584c-.083-.02-.113-.082-.125-.158a.17.17 0 0 1 .125.158zm9.416.891l.139.125-.076.034c-.053-.023-.087-.064-.1-.12l.037-.038z"/><path d="M42.138 13.477l.135.124c-.132.056-.169.004-.152-.109l.018-.015zM15.417 35.834l.03-.055.025.025-.055.03zm-.796-33.985c-.009.075-.048.125-.123.144l.123-.144zm-9.766 32.41c-.014.077-.06.122-.137.134.02-.072.066-.116.137-.134z"/><path d="M4.992 34.131c-.013.081-.063.122-.141.132.02-.073.067-.117.141-.132zm11.615-.28h.119l.005.131-.124-.131zm-10.423-.385a.11.11 0 0 1-.016.12c-.097-.054-.086-.093.016-.12z"/><path d="M6.192 33.288c.131.073.099.134-.013.189l.013-.189z"/><path d="M6.226 33.211c.005.034-.004.065-.028.09l-.074-.064.103-.026z"/><path d="M6.844 33.069c-.063.079-.127.081-.192.004l.192-.004zm-.235.008c-.038.074-.098.101-.179.084l.179-.084zm10.12-.021h-.122l.121-.131.001.13z"/></g><path d="M21.099 45.355c.156-.435.017-.707-.407-.912-.259-.126-.543-.267-.745-.568.356-.224.736-.263 1.109-.178.337.076.313-.103.304-.314-.041-.283-.11-.556-.263-.802l.003.002-.123-.136c-.011-.041-.015-.083-.014-.126.041-.241.274-.2.42-.287.04.006.079.017.116.032a.48.48 0 0 1 .116.115c.226.197.478.366.686.715.295-.821.248-1.629.64-2.305.158-.146.071-.358.14-.528v.002c.132-.311.301-.53.663-.263.018.731.19 1.456-.009 2.282.452-.202.535-.543.725-.791.531-.694.963-1.468 1.67-2.016l-.007-.006c.192.135.198.306.121.512-.356.946-.744 1.878-1.208 2.777-.223.432-.233.463.221.695l1.958.951c.297.114.61.227.947.564-.684.115-1.267.031-1.842.046-.569.015-1.114-.174-1.747-.244.421.917 1.065 1.63 1.422 2.501.042.042.08.087.117.133l.018.133c-.091.159-.172.334-.41.273-.678-.348-1.094-1-1.684-1.451-.099-.076-.151-.241-.304-.209-.181.037-.209.219-.23.361l-.291 2.138-.137.971c-.014.086-.05.177-.147.198-.143.03-.194-.085-.217-.188l-.281-1.346c-.142-.655-.195-1.331-.416-2.052l-.796 1.042c-.034.046-.073.087-.117.124h-.004c-.071-.195-.576.039-.398-.402.057-.357.128-.711.273-1.046.102-.113.131-.25.127-.398z" fill="#cfeff0"/><path d="M30.207 56.487c.208-.039.27-.173.287-.375l.265-2.793.341-2.463c.084-.45.145-.907.177-1.363.08-1.111.327-2.208.32-3.325-.003-.456.087-.901.085-1.355l.023-4.462c.107-1.585.112-3.185.463-4.75.095-.422.078-.868.167-1.299.045-.221.09-.428.26-.587.263.267.084.571.073.861-.14.651-.002 1.312-.062 1.966l-.265 3.842-.143 3.597c-.155.939-.045 1.884-.076 2.824l-.156 4.795c-.084.696.006 1.408-.151 2.1.041.476-.306.949-.01 1.428l-.008.166c-.226.188-.255.445-.251.713.005.292-.055.562-.272.777-.382-.005-.793.093-1.068-.296z" fill="#67aaa8"/><path d="M36.832 64.128l-.144.116c-.546.016-1.075.155-1.625.183-.936.047-1.86.082-2.779-.138-.147-.035-.304-.03-.456-.044-.201-.16-.46-.184-.687-.196-1.196-.066-2.342-.362-3.485-.688-.104-.03-.218-.026-.328-.037-.106-.129-.256-.119-.4-.128l-2.151-.77c-.304-.112-.64-.199-.665-.626-.009-.158-.136-.129-.247-.096-.128.038-.257.058-.366-.051.101-.036.206-.064.266-.164.107-.099.201-.236.376-.118.895.523 1.868.855 2.848 1.168 1.194.381 2.452.413 3.672.657l2.715.44 2.609.234c.308 0 .622-.021.845.258z" fill="#68aba9"/><path d="M27.816 32.118c-.217.027-.318.221-.474.334-.708.512-1.522.819-2.3 1.193-.137.066-.255.009-.369-.062-.202-.333-.346-.671-.084-1.041.79.161 1.398-.208 2.043-.607 1.916-1.182 3.075-2.961 4.031-4.916.144-.294.261-.603.207-.945.154-.184.336-.177.532-.079.203.237.039.459-.037.677-.61 1.766-1.556 3.339-2.743 4.774-.227.274-.571.407-.806.672z" fill="#c4513e"/><path d="M24.141 61.37c-.122.052-.228.153-.376.118l.155-1.89c.143-1.082.371-2.154.108-3.253-.051-.215-.099-.486.117-.681.439.227.798.567 1.196.853.041.06.036.116-.016.167l-.768 3.45c-.118.42-.221.844-.415 1.238z" fill="#b75040"/><path d="M27.816 32.118c.062-.325.408-.38.574-.607.888-1.215 1.839-2.388 2.384-3.822l.633-1.643c-.021-.133-.09-.266 0-.399a1.75 1.75 0 0 1 1.219-.009c-.131.032-.26.072-.311.215-.214.601-.651 1.096-.812 1.722-.022.084-.065.164-.11.24l-1.592 2.642c-.482.755-1.163 1.299-1.985 1.662z" fill="#69a9a6"/><path d="M24.675 32.526c-.208.352.086.706-.002 1.058-.107-.015-.221-.012-.321-.048-.456-.164-.5-.241-.403-.727.157-.793.265-1.589.201-2.4-.178-.293-.103-.671-.324-.95-.009-.28-.068-.555-.087-.835.027-.225.091-.413.376-.387.676.226.502.854.635 1.338.409.845.235 1.734.194 2.611-.007.155-.113.277-.267.34z" fill="#b75041"/><path d="M31.689 53.824l.249-3.782c.081-.846.011-1.705.01-2.559l.004-2.836c.001-.215-.047-.444.118-.63.319.467-.013.999.148 1.482.072.673.087 1.341.055 2.022l-.032 1.957c.029 1.033-.141 2.056-.154 3.088-.009.698-.08 1.392-.261 2.07-.298-.228.016-.558-.136-.811z" fill="#37595c"/><path d="M25.325 56.682l.016-.167c.471-.467 1.056-.492 1.662-.42l3.205.391c.337.181.739.077 1.08.241.073-.078.113-.221.269-.135.181.324.005.6-.125.928-.135-.464-.477-.575-.87-.639l-2.904-.419c-.751-.126-1.589-.196-2.332.219z" fill="#375356"/><path d="M23.928 29.437c.341.263.284.617.222.971-.692.319-1.25.837-1.866 1.268l-.265.183c-.244-.414.114-.785.084-1.184.423-.583 1.021-.939 1.64-1.27.066-.013.128-.002.186.031z" fill="#67aaa6"/><path d="M18.43 47.088c-.122-.305-.003-.612.066-.888l.891-4.437.134-.508c.134-.167.005-.386.112-.559-.004-.036.003-.07.02-.102.079-.073.054-.192.124-.269l-.002.001c.049-.056.1-.056.153-.007h-.005c.059.096.065.192-.005.286.003.043-.005.085-.021.125-.094.127-.018.294-.1.424l-.85 4.576c-.061.321-.158.635-.238.952-.139.104.085.455-.278.405z" fill="#365659"/><path d="M32.218 45.498c-.231-.204-.12-.475-.137-.719-.017-.253-.008-.508-.011-.763-.02-1.231-.003-2.46.149-3.684.122-.045.181.022.222.123.098 1.114-.098 2.218-.113 3.328-.006.431.081.877-.113 1.294.083.139.081.278.001.418l.002.003z" fill="#345659"/><path d="M19.787 40.197c.022-.883.265-1.729.454-2.582.093-.421.103-.869.32-1.26.135-.028.204.011.16.161-.073.941-.32 1.851-.494 2.774-.059.315-.027.666-.278.927a.11.11 0 0 1-.162-.019z" fill="#38585b"/><path d="M22.163 30.681c.078.16.097.314.03.494-.082.22-.119.456-.175.685-.331.596-.456 1.26-.634 1.907-.034.123-.019.263-.131.357-.132.032-.198-.004-.155-.151-.009-.543.303-1.031.273-1.577-.089-.481.19-.888.268-1.337.111-.213.21-.446.524-.377z" fill="#3d5d60"/><path d="M18.431 47.088c.191-.067.121-.314.278-.405l-.535 3.8c-.122-.036-.197-.127-.265-.225.183-1.055.172-2.143.522-3.17z" fill="#395859"/><path d="M32.441 40.456l-.222-.123.267-3.837c.079-.078.159-.079.238 0l-.004.135c-.025.029-.033.057-.024.085s.018.042.027.042l-.003.142c-.115.219.014.472-.1.691.015.96.002 1.918-.18 2.866z" fill="#38585c"/><path d="M23.745 39.802c-.268-.031-.498.033-.663.263.03-.415.178-.802.29-1.198.029-.104.095-.209.22-.205.146.004.136.135.16.239.069.302.035.601-.007.901z" fill="#c1eaea"/><path d="M21.097 33.973l.155.151c-.089.583-.167 1.169-.396 1.72-.145.028-.222-.01-.169-.175a4.87 4.87 0 0 1 .41-1.696z" fill="#3c5f63"/><path d="M20.699 46.798c.007.041 0 .105.022.117.071.038.359.242.376.286-.082.227-.226.417-.368.609-.065.088-.122.197-.253.121-.114-.066-.09-.176-.065-.287.067-.292.09-.599.287-.846z" fill="#c4ebea"/><path d="M31.556 56.593l-.269.135c.115-.352.137-.716.131-1.082-.005-.265.083-.419.38-.353-.075.434-.044.888-.242 1.3z" fill="#38575a"/><path d="M32.724 36.496h-.238l-.004-1.238c.003-.214-.046-.443.117-.629.167.2-.015.467.129.671.054.399.029.798-.003 1.196z" class="N"/><path d="M25.721 47.612c.143-.081.198-.295.409-.273l.284.36c.079.109.158.241.031.351s-.247-.014-.356-.072c-.157-.083-.289-.2-.368-.366z" fill="#c2ebeb"/><path d="M32.727 35.3c-.21-.192-.08-.448-.129-.671l-.004-.915c.035-.1.098-.259.192-.103.081.133.083.347.05.511-.08.39-.057.787-.109 1.178z" fill="#345358"/><path d="M21.385 42.034c-.22.124.115.242.011.36-.171.108-.247-.274-.431-.073-.161-.18-.224-.449-.054-.571.238-.17.335.147.474.284z" fill="#bfeae8"/><path d="M31.689 53.824c.228.24.071.544.136.811l-.02.492c-.193-.066-.258-.207-.26-.404-.002-.309.055-.606.143-.899z" fill="#2e4a4c"/><path d="M20.687 35.669l.169.175c-.022.229.041.475-.136.672l-.16-.161c.01-.234-.056-.483.127-.686z" fill="#3f6366"/><path d="M21.098 42.581c.258.211.397.462.263.802-.171-.24-.267-.505-.263-.802z" fill="#bfeae8"/><path d="M23.082 40.063c.122.221.066.395-.14.528.031-.18-.043-.389.14-.528z" fill="#c1eaea"/><path d="M21.099 45.355c.25.226.011.295-.127.398 0-.146-.026-.3.127-.398z" fill="#b1e5e1"/><path d="M32.62 37.59c.01-.234-.097-.484.1-.691.005.236.054.478-.1.691z" class="N"/><path d="M19.797 41.154c-.013-.152-.045-.309.1-.424.018.154.028.305-.1.424z" class="H"/><path d="M32.216 45.496l-.001-.418c.137.139.132.278.001.418z" fill="#37595c"/><path d="M25.137 59.546c-.02-.036-.055-.072-.055-.108s.035-.072.055-.108c.02.036.055.072.055.108s-.036.072-.056.108z" fill="#c3e6e2"/><path d="M19.918 40.605l.005-.285c.15.098.085.192-.005.285z" class="H"/><path d="M21.101 47.2l.117-.124-.117.124z" fill="#c4ebea"/><path d="M19.787 40.197l.162.019a.47.47 0 0 0-.021.104l-.153.007.012-.129z" class="H"/><path d="M26.13 39.276c.01-.019.025-.054.029-.053.043.013.03.031-.036.047l.007.006z" fill="#cfeff0"/><path d="M32.723 36.757c-.016-.03-.035-.059-.044-.09-.002-.007.027-.024.042-.036.013.042.014.084.002.126z" class="N"/><path d="M25.993 26.035c.192-.195.435-.077.654-.107.043.049.056.104.037.166a.84.84 0 0 1-.159.229c-.475.419-.889.926-1.547 1.084-.751.225-1.465.539-2.269.62-2.154.217-3.829-.692-5.322-2.101-.103-.098-.108-.235-.077-.37.653-.802 1.052-1.696.994-2.754.06-.313.225-.537.531-.289.703.57 1.29.304 1.872-.18.117-.027.237-.038.357-.058a.29.29 0 0 1 .241.125c.09.158.104.333.093.505-.058.964.321 1.726 1.057 2.326.223.22.536.275.796.427.136.076.287.104.439.13a1.41 1.41 0 0 1 .192.045c.485.055.973.051 1.44.26.177.079.46.105.67-.059zm-3.97-7.795c.249-.381.261-.863.217-1.24-.104-.897.201-1.552.839-2.116.063-.056.101-.14.151-.211l.127-.127c.15-.103.298-.213.497-.163.098.08.084.195.092.303.019-.123-.05-.264.074-.366l.152-.151a.16.16 0 0 1 .145-.069c.169.019.338.036.488.127.191.401.041-.26.168-.055.141.063.276.164.422.18.579.066.939.43 1.257.864.303.189.279.533.387.815.088.463.031.896-.268 1.277a.53.53 0 0 1-.348.14.79.79 0 0 1-.168-.012c-.049-.01-.099-.025-.147-.039-.072-.007-.134.021-.192.066a.27.27 0 0 1-.122.049c-.032-.034-.074-.029-.07.009.003.025.052.05.072.086.025.072.029.142-.003.203.054.082.111-.045.166-.001.201.073.277.224.279.424a.7.7 0 0 1-.037.182c-.24.553-.787.763-1.225 1.096-.16.017-.301-.043-.441-.106-.565-.099-.149.404-.33.54-.055.141-.155.247-.263.348-.149.129-.319.223-.506.287-.123.036-.253.045-.376.089l-.141.058-.208.108a1.58 1.58 0 0 1-.145.081c-.304.118-.498.395-.782.541-.18.03-.283-.079-.377-.207a.74.74 0 0 1-.107-.256.54.54 0 0 1 .018-.183c.13-.305.18-.586-.218-.736-.327-.123-.238-.618-.621-.691a.53.53 0 0 1-.153-.111c-.101-.144-.146-.288.004-.43.404-.161.853-.135 1.256-.299.135-.116.264-.24.434-.306z" class="D"/><path d="M35.515 16.263c.571-.016 1.134.054 1.702.117 1.073.118 1.873.68 2.581 1.43.689.73 1.096 1.636 1.532 2.518.241.487.496.971.623 1.516.247 1.061.625 2.097.325 3.219-.087.326.02.701-.241.994-.078-.173-.061-.356-.035-.524.265-1.709-.191-3.277-.869-4.821-.418-.952-.904-1.849-1.592-2.633-.699-.796-1.48-1.392-2.612-1.437l-1.678-.117c-.081-.256.205-.144.263-.262z" fill="#793a26"/><path d="M36.904 27.219c-.084-1.07-.39-2.036-1.037-2.876-.518-.673-1.136-1.184-2.003-1.389-.685-.162-1.382-.204-2.069-.33-1.309-.24-1.629-.642-2.073-1.868-.21-.579-.188-1.208-.269-1.813a9.45 9.45 0 0 0-.216-1.147c.201-.011.245.114.257.204.082.606.314 1.179.348 1.801.039.721.205 1.414.749 1.971.293.3.625.488 1.017.555l1.625.2c1.488.05 3.06 1.337 3.489 2.703.207.659.317 1.317.182 1.988z" class="E"/><path d="M21.764 18.642c-.459.232-.953.27-1.455.265-.086.072-.179.129-.293.143-.808-.096-1.618-.183-2.361-.555.128-.341-.012-.486-.352-.567-.51-.122-.974.122-1.465.13-1.194-.22-2.355-.532-3.366-1.248-.092-.066-.198-.091-.31-.095A.23.23 0 0 1 12 16.66l-.021-.53c-.016-.246.12-.205.268-.142 1.025 1.006 2.346 1.279 3.692 1.459.465.062.927.193 1.422.068.295-.074.55.225.832.334 1.008.42 2.032.757 3.148.667.153-.012.307-.002.422.126z" fill="#bf503d"/><path d="M25.993 26.035c-.205.251-.499.171-.732.129a8.5 8.5 0 0 0-1.294-.13c-.074-.002-.147-.077-.22-.119.113-.123.271-.043.5-.07-.701-.023-1.246-.213-1.753-.528-.929-.736-1.356-1.959-1.048-3.004.074-.252.16-.499.405-.645.12-.036.2.017.258.117.041.102.063.213.034.317-.241.883.047 1.617.633 2.265.134.148.197.334.308.493.533.337 1.04.712 1.678.856.412.093.757.448 1.229.321z" fill="#d95840"/><path d="M29.962 10.84c-.147-.005-.217-.109-.311-.207-1.151-1.206-2.278-2.439-3.701-3.343-.369-.235-.739-.481-1.137-.655-.872-.38-1.785-.346-2.711-.213-.493.071-.978.257-1.562.157.465-.325.969-.262 1.421-.352.704-.139 1.409-.177 2.144-.042s1.424.358 2.001.776a19.07 19.07 0 0 1 3.781 3.633c.05.063.051.164.075.247l.001-.001z" class="O"/><path d="M12.375 13.75c-.067.049-.171.153-.194.137-.15-.102-.038-.268-.071-.403.135-.714.404-1.383.692-2.045.072-.165.163-.323-.031-.467l.001.001c.008-.112.028-.223.122-.296.569-.438.878-1.074 1.243-1.661.356-.571.854-.993 1.346-1.427.019-.017.077.012.213.038-.63 1.006-1.508 1.793-2.027 2.837-.528 1.062-1.01 2.131-1.295 3.284z" fill="#7c3b26"/><path d="M30.623 16.527c-.349-.169-.37-.551-.459-.838-.293-.944-.665-1.857-1.035-2.769-.417-1.03-1.197-1.764-2.113-2.369-.184-.122-.461-.187-.482-.539.581.059.938.469 1.32.786.985.818 1.602 1.877 1.992 3.1l.738 2.304c.03.104.027.217.039.326h0z" class="E"/><path d="M25.089 27.252c.561-.25.944-.74 1.445-1.071l.118-.147c-.006-.035-.008-.07-.005-.106.106-.157.314.019.448-.15.063-.079.071.094.099.156a.29.29 0 0 1 .067.173.47.47 0 0 1-.063.177c-.822.807-1.711 1.521-2.788 1.968a.63.63 0 0 1-.181.039l-.093-.002c-.264.018-.265.211-.267.402-.691-.058-1.39.045-2.078-.085-.222-.042-.502.025-.582-.298.122-.157.301-.185.476-.181 1.218.03 2.347-.277 3.402-.876z" fill="#582925"/><path d="M12.001 16.66h.112c.189.11.258.304.3.493.244 1.088.944 1.966 1.352 2.979.049.123.132.25.253.295.755.283.446 1.026.669 1.536.018.042-.069.1-.141.104-.691-.755-1.151-1.676-1.772-2.482l.004-.073c-.013-.083-.09-.122-.131-.187-.213-.388-.519-.735-.518-1.213-.039-.484-.22-.956-.129-1.452z" fill="#bb5042"/><path d="M23.334 21.412c-.369.703-.315 1.439-.15 2.176.057.256.159.502.245.751.065.187-.036.233-.191.24-1.283-.755-1.446-2.048-.429-3.396.096-.096.211-.16.34-.197.065-.013.128-.006.188.02.13.136.153.272-.003.406z" fill="#dd5842"/><path d="M37.631 19.701c.617.129.894.686 1.234 1.099.407.494.654 1.121.906 1.73l.933 2.098c.316.616.437 1.273.583 1.936-.316-.377-.4-.864-.585-1.298l-1.934-4.171a1.88 1.88 0 0 0-.55-.646c-.227-.172-.445-.36-.588-.616-.034-.03-.045-.059-.033-.089s.023-.044.034-.044z" class="P"/><path d="M31.406 25.647c.019.133.214.266 0 .399-.182.016-.385-.054-.525.129-.637.331-1.329.198-1.996.201-.411.002-.831-.089-1.236-.204-.139-.049-.261-.121-.333-.257.108-.143.265-.136.416-.129.765.036 1.509-.089 2.257-.238.468-.093.953-.059 1.417.099z" fill="#863a2f"/><path d="M19.848 4.574l-.644-1.034c-.337-.48-.791-.757-1.299-.963-.601-.243-1.616.157-1.961.737-.261.439-.468.894-.398 1.431.023.172.004.35.004.578-.397-.87-.216-1.8.457-2.513.447-.474 1.625-.711 2.265-.427.674.299 1.688 1.305 1.577 2.19z" fill="#743825"/><path d="M19.241.952l.132-.009c1.268.682 1.882 1.835 2.27 3.151-.107.16.122.055.11.14.03.035.039.076.027.12l-.147.007c-.041.038-.081.079-.118.121l-.27-.12c-.066-.016-.156-.046-.162-.099-.094-.852-.7-1.377-1.233-1.949-.008-.092.017-.172.086-.232.207-.067.07-.13-.008-.194-.277-.322-.81-.349-.95-.827.096-.015.197-.021.262-.109z" fill="#6c3d30"/><path d="M22.958 21.164l-.351.551c-.456.739-.418 1.508.109 2.193l.521.672c-.117.056-.148.16-.152.279-1.034-.774-1.442-1.762-1.041-3.029.031-.352.243-.586.511-.783.011-.064.163.053.112-.089l-.033-.071c-.009-.054.005-.101.044-.14l.001.003c.081-.063.205-.038.27-.133l-.004.003c.053-.039.109-.044.167-.009a.32.32 0 0 1 .047.261c-.043.114-.125.202-.203.293z" fill="#672f20"/><path d="M28.289 21.659c.244.116.199.253.022.389l-1.256.948-2.307 1.73c-.343.259-.384.238-.457-.259.071-.073.257.1.257-.123.287-.296.638-.509.96-.76.164-.124.302-.278.468-.399l1.382-1.089.449-.281c.158-.058.278-.236.481-.156z" fill="#c2eae1"/><path d="M27.978 16.262c.186.695.49 1.368.397 2.116-.124.189-.234.398-.514.368a.49.49 0 0 1-.177-.064c-.27-.273-.408-.551-.154-.932.165-.248.151-.546.008-.821-.029-.053-.055-.108-.079-.163-.088-.229-.23-.425-.376-.619-.054-.145-.173-.287-.025-.444.463-.07.79.083.921.56z" fill="#472218"/><path d="M19.206 5.031c-.129-.026-.16-.139-.187-.234-.247-.86-.918-1.183-1.708-1.324-.587-.105-1.372.67-1.176 1.252.108.321-.111.564.048.827-.421-.654-.303-1.626.225-2.11.133-.122.291-.203.461-.246 1.12-.288 2.295.637 2.337 1.836z" fill="#783925"/><path d="M20.177 11.899c.906-.165 1.762-.518 2.666-.699.919-.184 1.786-.102 2.618.307.189.092.44.073.573.283-.111.177-.235.076-.337.021-1.181-.646-2.396-.559-3.624-.17-.626.198-1.236.452-1.897.522-.078-.088-.078-.176 0-.263z" fill="#6c3523"/><path d="M13.563 6.082c-.237-.624-.389-1.248-.008-1.874.042.325.385.558.284.927l-.037.031.039.028.005-.048c.294.026.244.24.235.431-.156.471.242.713.43 1.042a1.08 1.08 0 0 0 .121.123l-.011-.01c.043.053.091.101.143.145l-.011-.012a1.5 1.5 0 0 0 .136.145c-.118.239-.384.323-.541.52.017-.106.069-.215-.001-.318l-.784-1.13z" fill="#6d4033"/><path d="M13.816 13.141c2.016.679 4.085.998 6.297 1.028-1.406.349-5.422-.196-6.297-1.028z" fill="#6a3423"/><path d="M41.729 14.81c-.545-.392-1.082-.802-1.725-1.022-.783-.268-1.58-.222-2.377-.061-.112-.146-.284-.09-.428-.126 1.509-.549 2.906-.328 4.2.609.105.076.224.134.336.2l.125.134c.009.04.02.079.034.117-.023.086-.079.135-.166.149z" fill="#713b2e"/><path d="M27.978 16.262c-.245-.289-.577-.423-.928-.526-.098.069-.024.225-.144.283-.163-.244-.166-.538-.255-.805.05-.197-.088-.372-.078-.594.209.055.339.342.621.122.099-.077.343.127.3.382-.032.186.058.275.242.309.531.098.61.379.241.829z" fill="#56281c"/><path d="M24.161 22.446v1.113c-.69-.679-.755-1.387-.678-2.14-.042-.03-.056-.07-.046-.119.078-.095-.013-.171-.03-.256-.028-.077-.041-.155-.029-.238.122-.308.319-.309.559-.139.028.489.195.949.307 1.421.02.131.015.255-.083.358z" class="Q"/><path d="M27.847 18.643c.23.02.345-.19.529-.265.122.778-.178 1.487-.367 2.214-.059.229-.139.447-.032.68a.2.2 0 0 1-.128.097c-.057.003-.113-.005-.168-.023-.081-.032-.157-.074-.229-.124-.117-.101-.222-.206-.141-.381-.001-.673.566-1.244.347-1.96-.036-.117.106-.173.189-.238z" fill="#51261b"/><path d="M15.533 8.541c1.702.709 3.253 1.431 5.13 1.208-1.117.542-4.197-.173-5.13-1.208z" fill="#693322"/><path d="M20.177 11.899v.263c-.369-.063-.73.051-1.096.062-.979.03-1.886-.237-2.801-.506-.078-.023-.152-.09-.144-.288 1.324.443 2.676.528 4.041.469z" class="F"/><path d="M21.764 18.642c-.699.02-1.401.07-2.084-.135-.522-.157-1.055-.293-1.486-.658.655.041 1.249.339 1.892.448.392.066.776.074 1.163.075.286.001.622-.004.364-.463-.015-.027.098-.126.152-.192l-.002.001c.218.109.051.409.26.522l-.259.403z" fill="#7f3d2d"/><path d="M17.796 4.492c-.135-.266-.353-.327-.605-.205-.239.115-.358.33-.312.597.035.204.109.401.184.666-.478-.415-.585-.877-.337-1.233.266-.38.7-.462 1.096-.207.389.252.667 1.1.507 1.721-.2-.494-.135-1.019-.531-1.338l-.002-.002z" fill="#723825"/><path d="M28.631 7.97c.739.534 1.328 1.213 1.865 1.941l-.154.159c-.241.034-.287-.199-.422-.309l-.125-.094a1.61 1.61 0 0 1-.09-.125l-.218-.306c-.068-.053-.131-.04-.189.018-.271-.007-.225-.304-.381-.417.048-.022.065-.058.05-.109-.011-.036-.023-.055-.036-.054-.067-.071-.107-.013-.149.032-.044.066-.119.093-.129 0-.023-.213-.196-.336-.272-.515.064-.088.217-.047.253-.176V7.97z" fill="#764639"/><path d="M35.516 16.263l-.263.262c-1.257-.262-2.297-.869-3.059-1.929.98.814 2.021 1.503 3.322 1.667z" fill="#703624"/><path d="M24.145 9.517c-1.091-.085-2.144.204-3.287.385.478-.434 1.685-.653 3.287-.647.077.087.077.174 0 .262z" fill="#693322"/><path d="M37.631 19.701l-.001.133-1.318-.371c-.404-.096-.843.053-1.324-.127.8-.31 1.933-.132 2.643.365z" class="R"/><path d="M18.978 1.061c.382.225.782.425 1.081.767.05.059.05.117-.001.176-.449.162-.638-.25-.935-.424l-.002-.001c-.074-.074-.189-.052-.269-.112-.146-.147-.378-.213-.429-.459.196-.082.368.068.555.053z" fill="#d9dad1"/><path d="M26.988 24.214c.607.125 1.153.396 1.766.44-.667.138-1.279.058-1.766-.44z" fill="#6c3524"/><path d="M24.54 24.462c-.079.168-.165.016-.248.005.006-.444-.074-.888-.004-1.333.101-.07-.008-.315.227-.274.315.529.206 1.065.025 1.602z" fill="#bbc5be"/><path d="M12.129 18.112l.648 1.333.02.081-.023.059-.363-.311c-.054-.379-.415-.631-.425-1.028l.143-.134z" fill="#7b4839"/><path d="M14.5 6.718c-.334-.166-.391-.536-.585-.805-.115-.161.021-.268.167-.336.127.37.336.699.528 1.036a.31.31 0 0 1-.11.105z" fill="#d2cec5"/><path d="M24.144 9.517v-.262c.418-.01.823.039 1.191.262-.009.08-.083.093-.133.132-.358 0-.691-.197-1.057-.132z" fill="#713825"/><path d="M19.124 1.58c.362.022.578.35.91.437.036.013.052.031.046.054s-.014.038-.024.038l-.168.182-.113-.011c-.05.022-.098.018-.146-.008l-.177-.156c-.061-.052-.138-.08-.197-.135-.142-.101-.024-.288-.131-.401z" fill="#784437"/><path d="M25.202 9.649l.133-.131c.369-.023.639.227.993.328-.29.141-.29.141-1.126-.197z" class="E"/><path d="M32.469 18.686l1.15.444c-.666.022-.811-.036-1.15-.444z" class="R"/><path d="M17.802 1.454c-.289.065-.519-.073-.817-.218.383-.203.685-.281.945.083-.001.084-.085.09-.128.135z" fill="#cfd2ca"/><path d="M30.622 16.527c.182.418.541.738.662 1.19h0c-.441-.274-.704-.647-.661-1.19h0z" class="E"/><path d="M40.231 14.83c-.288-.063-.562-.2-.869-.16-.053-.016-.069-.05-.048-.101.104-.027.217-.035.289-.132.286.022.566.066.803.248.013.134-.027.205-.174.146z" fill="#704134"/><path d="M34.829 19.33c-.347.204-.61.05-.873-.109.279-.006.574-.163.873.109z" class="R"/><path d="M42.759 17.589l.037-.537c.108-.115-.034-.312.133-.408.134.164.13.355.108.55-.229.282-.051.617-.117.92-.05.045-.103.049-.159.012a.44.44 0 0 1-.036-.177c.004-.121-.017-.243.034-.36z" fill="#6f4639"/><path d="M24.16 22.446l-.034-.372c-.076-.231-.05-.472-.074-.709.044-.144.14-.226.289-.247.163.045.168.178.175.31-.005.063-.016.125-.032.186-.044.149-.05.304-.052.46-.014.162-.02.328-.179.429-.033-.016-.065-.034-.094-.056z" fill="#979f98"/><path d="M42.271 16.907c.211.183.115.472.239.685-.2.141-.319.074-.378-.147.091-.105-.01-.177-.046-.26a.26.26 0 0 1-.001-.151c.043-.071.103-.117.186-.128z" fill="#815248"/><path d="M28.289 21.659c-.167.065-.207.322-.439.291-.068-.127-.112-.265-.176-.394-.005-.099.037-.166.134-.194a.46.46 0 0 1 .173.015l.307.282z" fill="#b0dfd0"/><path d="M29.95 9.676c.185.078.239.286.392.395l.115.245c-.038.058-.077.058-.115 0a1.72 1.72 0 0 1-.538-.517c.013-.083.093-.086.145-.122z" fill="#d3bdb4"/><path d="M24.254 22.502l.032-.544c.075-.046.137-.034.189.038.13.29.155.575-.047.846-.03.105-.031.224-.14.292l-.033-.632z" fill="#c3dbd4"/><path d="M16.214 1.328c-.075.14-.119.302-.275.384a.48.48 0 0 1-.125-.129c-.001-.178-.018-.365.225-.408.106-.004.12.097.174.153z" fill="#784c41"/><path d="M24.02 14.318v.711c-.232-.207-.083-.469-.234-.623-.104-.029-.107-.107-.092-.193l.052-.065c.13-.006.177.121.273.17z" fill="#c5a89d"/><path d="M41.322 26.951c.109.058.146.153.112.271-.02.068-.083.117-.147.08-.083-.048-.084-.147-.079-.236.004-.067.018-.13.114-.116z" class="P"/><path d="M15.458 11.183c.087.018.13.02.167.036.095.04.208.068.221.196.002.021-.05.065-.081.068-.143.017-.239-.056-.298-.181-.008-.017-.004-.04-.008-.118z" class="F"/><path d="M29.425 9.134c.178.085.32.205.394.394-.029.031-.05.066-.063.107 0 0-.06.017-.06.017-.12-.091-.249-.177-.268-.346-.042-.056-.045-.114-.003-.172z" fill="#b5baac"/><path d="M17.802 1.455l.128-.135c.177.126.386.21.52.393l.005-.005c-.275.063-.455-.117-.653-.253z" fill="#8e776c"/><path d="M16.219 1.072c.194-.055.36-.235.591-.132-.128.251-.363.258-.595.272-.04-.032-.053-.064-.038-.095s.029-.045.042-.045z" fill="#ccebd9"/><path d="M31.284 17.717c.164.095.328.189.367.477-.243-.112-.359-.248-.367-.477h0z" class="E"/><path d="M43.99 23.939c.008-.145.048-.28.123-.404.129-.017.212.007.142.163-.005.15.002.303-.123.419l-.142-.178z" fill="#623223"/><path d="M30.627 10.576c.129.046.152.144.129.264h0c-.161-.103-.393-.138-.391-.401.046-.043.093-.04.138.001l-.011-.007c.033.058.087.097.134.143z" fill="#a79586"/><path d="M23.485 21.288l-.003.132-.149-.007c.018-.148.061-.304-.116-.395-.003-.233.118-.206.265-.126l.006.265c.029.03.038.06.027.089s-.021.043-.031.043z" fill="#672f20"/><path d="M23.326 14.671l-.048-.003-.048.004c-.029-.193-.073-.389.121-.532l.084-.051.08.058c.043.213-.051.377-.189.525z" fill="#ae9d93"/><path d="M24.542 13.615c.3-.026.374.157.376.407-.054.034-.111.038-.17.014a.58.58 0 0 1-.25-.259c-.018-.063-.002-.116.044-.162z" fill="#9da294"/><path d="M15.159 2.376c-.097.173-.191.349-.403.409l-.008-.012c-.005-.181.084-.307.232-.4.061-.05.12-.049.179.004z" fill="#b6a094"/><path d="M39.314 14.569a.6.6 0 0 0 .048.101l-.144.104c-.121-.034-.255-.044-.327-.176.135-.123.284-.01.423-.029z" fill="#a8d8c6"/><path d="M42.819 18.078a.63.63 0 0 1 .101.036l-.008.526c-.04.061-.081.065-.124.003l-.103-.28c.068-.084-.008-.236.134-.285z" fill="#bea69b"/><path d="M29.961 10.841a.4.4 0 0 1 .264.397l.001-.001c-.176-.074-.264-.206-.265-.396l-.001.001z" class="O"/><path d="M24.812 14.018l.107.004.055.147-.09.29c-.09-.033-.094-.122-.126-.193-.042-.096-.024-.179.054-.248z" fill="#d0b9a8"/><path d="M31.025 11.104c.149.05.218.151.24.357-.202-.086-.247-.202-.247-.35l.007-.007z" fill="#815d4c"/><path d="M27.316 25.915c.108.006.208.026.269.13-.108.14-.232.225-.412.125l.021-.236.123-.02z" class="S"/><path d="M42.169 17.189c.114.103.11.189-.036.256l-.127-.264c.058-.067.112-.065.164.008z" fill="#ab9283"/><path d="M42.168 17.189l-.164-.008-.136-.259c.041-.002.081-.001.122.002.041-.049.092-.058.15-.034.039.051.039.103.006.156l.022.141z" fill="#e9e7df"/><path d="M42.759 17.589c.055.127.05.258.021.39-.038.062-.075.062-.112-.001l-.026-.233.117-.156z" fill="#fbfbfa"/><path d="M20.607 15.936c-.034.017-.068.048-.101.047s-.064-.036-.096-.055c.034-.017.068-.048.102-.047s.064.035.096.055z" fill="#743724"/><path d="M28.904 8.6c.119.01.207.101.205.189-.002.097-.12.057-.194.05a.83.83 0 0 1-.021-.112c-.036-.031-.046-.06-.031-.087s.027-.039.04-.039z" fill="#bfcbb8"/><path d="M42.668 17.978l.112.001c.025.028.038.061.039.099-.029.103-.036.215-.134.285l-.017-.385z" fill="#dbcbc5"/><path d="M19.255 1.981c.105.002.219-.014.261.123.038.034.049.068.035.1s-.027.048-.04.048c-.123-.055-.205-.148-.256-.271z" fill="#a49086"/><path d="M15.828 1.724c-.029.16-.144.218-.286.244-.039-.05-.039-.099.004-.147.039-.128.145-.131.25-.133l.032.036z" fill="#cbbaaf"/><path d="M24.261 14.001c-.01-.148-.037-.304.155-.367.038.044.061.094.067.152.017.128-.02.224-.152.265l-.069-.051z" fill="#9b9e91"/><path d="M20.538 4.505c-.022.048-.059.061-.096.024-.026-.026-.036-.066-.053-.1.035-.009.08-.035.102-.022s.032.064.047.098z" fill="#724937"/><path d="M17.798 4.494c-.029.059-.119.127-.132.095-.065-.152.084-.063.13-.098l.002.002z" fill="#723825"/><path d="M15.02 11.105l.172.049c-.097.122-.125.003-.172-.049h0z" class="F"/><path d="M42.788 18.643a.49.49 0 0 0 .124-.003c-.011.059-.02.169-.033.169-.124.004-.078-.099-.091-.166z" fill="#a97e71"/><path d="M23.496 14.02c.102.008.232-.04.252.128l.005-.006c-.09.081-.18.086-.27 0l.005.006c-.034-.031-.043-.06-.03-.087s.026-.041.038-.041z" fill="#88c0b8"/><path d="M14.584 2.899c-.011.07-.049.114-.123.11-.017-.001-.032-.024-.048-.037l.097-.061.075-.012z" fill="#ad7d6b"/><path d="M14.583 2.899c-.025.006-.05.01-.075.012.04-.115.134-.138.239-.138l.008.012c-.021.093-.089.115-.172.114z" fill="#858777"/><path d="M21.764 17.717c-.059-.029-.127-.119-.097-.131.152-.061.06.087.095.132l.002-.001z" fill="#7f3d2d"/><path d="M28.904 8.6a.46.46 0 0 1-.009.127c-.037-.018-.075-.024-.115-.019l.036-.186.088.078z" fill="#90b4a5"/><path d="M29.951 9.676l-.145.122-.11-.146c.023.02.046.02.068-.001.028-.053.064-.056.107-.018.037-.005.063.009.08.042z" fill="#e9f8f7"/><path d="M28.632 8.017c-.028.14-.13.172-.252.176-.011-.041-.015-.082-.013-.125l.011-.013.254-.038z" fill="#7d5a4a"/><path d="M43.845 23.933l.121-.01c0 .071.046.166-.076.174-.011.001-.03-.106-.045-.163z" fill="#b2837a"/><path d="M30.226 11.238c.057.029.125.118.096.13-.15.06-.06-.086-.095-.131l-.001.001z" class="O"/><path d="M16.219 1.072l-.004.14c.012.039.011.077-.001.116-.085-.02-.139-.076-.174-.153.045-.06.096-.11.18-.103z" fill="#a49588"/><path d="M42.253 30.808c-.026.06-.066.105-.135.102-.014-.001-.026-.045-.038-.069l.179-.028-.006-.006z" fill="#857364"/><path d="M15.159 2.376l-.179-.004c.023-.071.059-.128.142-.138.047-.038.09-.034.13.012l-.093.13z" fill="#bce8db"/><path d="M28.367 8.068l-.167-.06c.013-.016.023-.044.038-.046.073-.012.114.031.14.094z" fill="#735243"/><path d="M19.511 2.251l.005-.148c.07.003.129.022.145.101.03.041.035.085.014.132l-.025.032-.139-.117z" fill="#d8f2ec"/><path d="M41.384 27.801l-.017-.057c.017-.005.044-.017.048-.013.036.05.024.075-.031.07z" class="P"/><path d="M29.425 9.134l.003.172-.131-.051c.001-.084.006-.164.128-.121z" fill="#eef9f5"/><path d="M30.503 10.44a21.19 21.19 0 0 1-.138-.001c-.026-.038-.033-.08-.022-.125.038.004.077.004.115 0l.046.125z" fill="#d4ded6"/><path d="M30.626 10.576l-.135-.143c.086.009.131.056.135.143z" fill="#b2d5bb"/><g class="F"><path d="M14.623 10.84c-.018-.01-.054-.024-.053-.029.01-.044.03-.033.052.03v-.001z"/><path d="M14.624 10.841c.019.01.054.024.053.029-.01.044-.03.033-.052-.03v.001z"/></g><path d="M30.888 10.971c-.09.004-.13-.044-.132-.13h0c.09-.002.13.046.13.132l.002-.002z" fill="#9bab97"/><path d="M12.772 10.972c-.01.019-.024.055-.029.053-.045-.01-.034-.03.03-.052l-.001-.001z" fill="#7c3b26"/><path d="M15.02 11.105c-.018-.01-.054-.024-.053-.03.01-.045.031-.034.053.03h0z" class="F"/><path d="M31.018 11.111c-.079-.014-.129-.054-.131-.14l-.002.002c.083.005.124.055.139.132l-.007.007z" fill="#a77973"/><path d="M14.89 7.01c-.081-.015-.147-.043-.136-.145.095.001.153.038.136.145z" fill="#cadcc3"/><path d="M14.765 6.877c-.101.004-.158-.035-.143-.145.111-.014.143.05.143.145z" fill="#d5f0da"/><path d="M14.501 6.718l.11-.105c.012.027.027.054.034.083.004.014-.008.031-.012.046l-.132-.024z" fill="#e5f3eb"/><path d="M24.411 13.767l.004-.134.127-.019-.008.118c-.03.053-.071.063-.123.034z" fill="#b1dec8"/><path d="M20.349 3.896l.043-.014-.005.038-.038-.024z" fill="#90877b"/><path d="M23.496 14.02c-.015.042-.017.085-.008.128l-.137-.009.145-.119z" fill="#724235"/><path d="M24.267 14.164h-.048l-.047.003c-.015-.079.001-.142.089-.166 0 0 .022.02.022.02.035.053.028.101-.016.144z" fill="#90a398"/><path d="M15.251 2.246l-.13-.012c.017-.08.059-.133.144-.143l.044.045-.059.109z" fill="#d3ecdb"/><path d="M15.428 2c.007.085-.036.127-.117.136 0 0-.044-.044-.045-.045.007-.083.049-.126.135-.121l.027.03z" fill="#cce9d3"/><path d="M15.546 1.821l-.004.147-.052.035L15.428 2c0 0-.026-.029-.026-.029.003-.094.066-.129.145-.149z" fill="#d6f1e7"/><path d="M18.45 1.712l.06.056c-.012-.004-.029-.004-.035-.012-.01-.014-.014-.032-.021-.049l-.005.004z" fill="#6d5242"/><path d="M15.814 1.583c.067.018.117.053.125.129l-.054.015-.056-.003-.032-.035c-.011-.039-.005-.074.018-.106z" fill="#a6ae9c"/><path d="M42.26 30.814l.056-.061c-.004.012-.004.03-.012.036-.014.01-.034.013-.051.02l.006.006z" fill="#726553"/><path d="M42.054 30.641l-.017-.044.043.005-.026.039z" fill="#83a288"/><path d="M27.982 21.377c-.026.009-.053.013-.081.013-.102.012-.119-.021-.052-.099a.87.87 0 0 1 .128-.019c.007.035.008.07.005.105z" class="I"/><path d="M15.959 59.529l-.304.621c-1.028-.442-2.025-.949-2.996-1.501-.922-.524-1.713-1.222-2.418-2.016-.077-.087-.11-.189-.115-.301 1.035.727 2.028 1.523 3.194 2.041l1.983.861c.226.076.438.196.656.296z" fill="#69aaa7"/><path d="M9.477 52.616l2.948 1.983c.879.582 1.746 1.184 2.714 1.617.122.054.285.12.219.27-.088.199-.264.092-.393.023l-1.56-.859c-1.425-.866-2.763-1.858-4.076-2.885-.029-.128.008-.19.148-.149z" fill="#602b27"/><path d="M15.672 52.643c.015-.583-.327-1.045-.536-1.55-.141-.34-.208-.657.019-.979.573 1.106 1.366 2.059 2.115 3.042.038.032.05.063.037.094s-.026.047-.038.047c-.567-.133-1.084-.389-1.597-.655z" fill="#69a9a6"/><path d="M14.754 54.627c-.065-.013-.137-.011-.192-.041-1.091-.575-2.125-1.242-3.15-1.925-.199-.133-.421-.264-.354-.569l-.005.009c.064.014.139.011.192.044l3.517 2.192c.074.099.068.195-.008.29z" fill="#5d2a26"/><path d="M11.719 55.799l3.648 1.776c-.066.278-.246.236-.374.176l-3.24-1.617c-.072-.041-.118-.127-.176-.192-.03-.125 0-.189.142-.144z" fill="#602b27"/><path d="M11.719 55.799l-.142.144c-.657-.207-1.168-.662-1.736-1.019-.294-.185-.552-.426-.882-.553-.029-.11-.174-.212-.021-.334l2.781 1.762z" fill="#6b302a"/><path d="M11.057 52.093c-.099.042-.207.132-.307.052-.538-.431-1.171-.756-1.549-1.368h0c.751.254 1.341.733 1.85 1.325z" fill="#672d28"/><path d="M14.754 54.627l.008-.29c.435.082.749.422 1.165.55.112.034.173.15.117.261-.061.122-.177.09-.28.04-.348-.166-.736-.262-1.01-.561z" fill="#6c312a"/><path d="M9.477 52.616l-.148.149c-.2-.101-.337-.262-.526-.532.337.076.503.233.674.383z" fill="#883a30"/><path d="M17.269 53.298l.001-.141c.092.038.22.092.171.196-.046.099-.129.019-.172-.055z" fill="#957b70"/><path d="M23.188 61.217c-.006.015-.008.04-.018.045-.036.017-.057-.005-.049-.052.002-.014.024-.023.036-.035l.031.042z" fill="#e6715c"/><path d="M3.88 48.144c.152-.177.353-.262.579-.273 1.114-.053 2.215-.29 3.332-.266.364.008.72-.288 1.086-.027.123.324.014.546-.331.544-1.362-.008-2.703.27-4.062.28-.231.002-.504.062-.604-.259z" fill="#893b30"/><path d="M3.414 35.191c.274-.144.565-.022.846-.054.365.111.72.255 1.099.313l.166.012c.199.016.37.082.49.271.011-.229-.03-.462.134-.649.078-.02.118.028.15.087a.48.48 0 0 1 .123.183c.047.642.3 1.274.108 1.929a.35.35 0 0 1-.132.137c-.301-.557-.72-.246-1.054-.141.356.04.746.144 1.074.412.069.163.24.049.343.123.664.619.623.865-.235 1.43.104.024.211.033.312.069.422.274 1.057.179 1.305.754l-.013.519c-.185.19-.519.065-.729.348.309.069.557.192.812.272.405.126.425.373.318.703-.277.262-.623.397-.98.481-.672.158-1.342.34-2.042.323-.14.07-.351.131-.383-.038-.051-.268.285-.083.374-.229l1.682-.292c.358-.08.726-.175 1.013-.435-.067-.243-.257-.28-.452-.333a7.79 7.79 0 0 0-2.211-.272l-1.715.013c-.14-.001-.362.059-.374-.147-.014-.236.218-.23.388-.238l.725-.007c.882.052 1.75-.115 2.626-.151.223-.009.429-.076.587-.249-.541-.475-2.067-.849-3.853-.947-.081-.084-.08-.169-.004-.255.361-.238.768-.096 1.152-.128.511-.043 1.004-.112 1.453-.376.057-.034.114-.066.115-.2-.862-.819-2.155-.718-3.159-1.301.726-.232 1.502-.103 2.159-.507.229-.127.336-.285.133-.522-.574-.287-1.162-.518-1.817-.55-.232-.011-.504-.022-.533-.36z" fill="#542824"/><path d="M5.499 42.448c-.046.137-.229.089-.303.239l.311.028c-.628.221-1.254.156-1.884-.013.284-.19.601-.109.902-.141.325-.034.641-.15.974-.113z" fill="#632e28"/><path d="M3.911 39.135l.004.255-.72.002c-.096-.003-.162-.073-.154-.172s.08-.154.168-.18c.247-.074.457.149.703.095z" fill="#662e28"/><path d="M5.764 36.1c.337.31.324.363-.133.522.089-.163.159-.33.133-.522z" fill="#ac483a"/><path d="M21.772 31.036c-.04.481-.219.92-.402 1.359l-1.583 1.451c-.638.574-1.104 1.285-1.728 1.857l-.004-.144c-.122-.155-.044-.288.045-.421.134-.161.29-.306.383-.499.843-1.162 1.68-2.329 2.739-3.311.155-.144.292-.336.55-.292z" fill="#68a8a6"/><path d="M19.632 40.696c.002.194.079.403-.112.558 0-.194-.042-.396.112-.558zm.144-.371c.003.11-.019.208-.124.269-.006-.111.011-.212.124-.269z" class="H"/><path d="M8 64.679c-.186-.017-.305-.122-.378-.287.196.003.386.015.378.287z" fill="#8dcfc7"/><path d="M9.575 32.908l.458.048-.173.486c.057.073.025.154.022.231.016.087.076.116.159.116.315.016.527-.29.844-.263.058.031.102.075.131.134a5.48 5.48 0 0 1 .074.961c.026.125-.077.28.093.367.054-.003.104.008.154.029.04.042.07.089.089.143.067.38-.009.678-.467.664-.373-.011-.508-.211-.496-.609.003-.102-.203-.483-.572-.487-.261-.003-.751-.28-.664-.344.337-.246-.043-.247-.07-.334-.068-.217-.013-.44-.06-.647-.079-.346-.475-.12-.65-.318-.02-.014-.038-.03-.056-.047.38-.178.787-.111 1.184-.132z" class="B"/><path d="M44.525 21.289l-.01-2.78c.13-.166-.005-.386.114-.554.074-.03.114-.002.127.074l.058 2.287c.004.326.006.659-.161.961-.038.049-.081.052-.128.013z" fill="#6e4537"/><path d="M44.255 23.698l-.142-.163c.081-.361.095-.738.249-1.083.115.064.046.213.136.289-.026.333-.101.654-.243.957z" fill="#593629"/><path d="M44.525 21.289a.82.82 0 0 0 .127-.013c.077.149.061.301.004.453.017.27.023.538-.131.779-.082-.022-.093-.106-.139-.159-.021-.362.072-.709.139-1.059z" fill="#663d31"/><path d="M44.756 18.028a.39.39 0 0 1-.102-.075c-.12-.113-.088-.238-.027-.364l.028-.132c.181.164.102.375.102.572z" fill="#fcfefb"/><path d="M44.656 21.728l-.007-.454c.138.149.144.3.007.454z" fill="#6e4537"/><path d="M44.387 22.348l.139.159-.027.233c-.11-.066-.12-.178-.136-.289-.015-.04-.007-.075.024-.104z" fill="#5b2e24"/><path d="M14.545 22.067c.135-.18.05-.327-.07-.471-.216-.256-.286-.527.033-.856-.687.007-.892-.407-1.035-.878-.029-.097.031-.203-.065-.302-.783-.809-.953-1.894-1.297-2.901.008-.191.104-.217.255-.133.266.149.476.375.755.515.767.384 1.58.618 2.411.802.11.024.213.042.283.139.022.323-.279.416-.441.603-.271.312-.531.62-.493 1.079.2-.599.653-.982 1.12-1.342.482-.372 1.228-.327 1.659.067.783.229 1.578.401 2.384.518-.03.362-.341.268-.544.315-.875.204-1.483.962-1.466 1.864.005.264.007.525-.041.785-.015.158.028.306.085.448.546 1.36.046 2.409-.974 3.307l-.1.018c-.252-.299-.55-.572-.745-.905s-.425-.355-.707-.21c-.398.205-.822.292-1.257.328-.695.057-.826-.073-.868-.794.089-.06.129-.149.151-.25l.742-.89c.174-.246.275-.537.224-.855z" class="D"/><path d="M25.089 27.253c-.778.772-1.79.926-2.808 1.045-.344.04-.697.009-1.045.01-.202.147-.419.046-.631.04-.121-.054-.218-.145-.328-.216l-.119-.099-1.565-.8c-.518-.54-1.158-.96-1.588-1.589 0 0 .049-.03.049-.03.114-.037.198-.19.347-.088.004.13-.01.263.105.363 1.133.994 2.397 1.732 3.903 1.991.235.04.485.044.721.015.815-.1 1.663-.069 2.387-.557.181-.122.374-.097.571-.085z" fill="#c4513f"/><path d="M8.448 33.087l.13-.018c.647-.029.658-.028.652.663-.003.36.211.419.54.391-.142.208-.368.044-.484.232.252.234.591.224.893.277.208.037.184.051.158.254-.036.277.268.05.399.122-.222.53-.133.73.289.692.181-.016.286-.092.288-.281l-.002-.393c-.036-.058-.043-.12-.026-.185.08-.202.225-.313.447-.313.401.458.974.589 1.525.771.056-.206.001-.41-.076-.615-.173-.464.073-.996.552-1.204a1.62 1.62 0 0 0 .15-.105l.081-.044c.448-.066.656.129.771.572.1.38-.032.78.154 1.139.046.22.068.441-.005.661l-.039.049-.061-.01a.11.11 0 0 0-.098-.069.53.53 0 0 1 .104.082.55.55 0 0 1-.043.146c-.094.154-.098.334-.159.496-.026.056-.066.099-.117.133-.429.314-.91.431-1.439.397-.352-.023-.405.243-.472.509-.085.339-.106.751-.633.695.061.345.262.565.505.758.069.069.125.142.078.247.021.483-.104.862-.664.93-.09-.12-.276-.193-.306-.051-.104.496-.464.432-.81.45-.27.014-.509-.072-.752-.18.069-.13.318-.123.26-.332-.085-.306.058-.602.025-.907-.021-.197-.012-.388-.195-.527-.244-.186-.165-.24.1-.276.132-.018.079-.174.018-.265-.116-.173-.295-.159-.472-.143l-.056-.072c-.058-.174-.18-.28-.336-.38-.321-.205-.488-.507-.36-.891.118-.354-.038-.435-.354-.516-.477-.121-.955-.147-1.428-.09-.487.059-.744-.131-.866-.574l-.017-.138c.137-.078.284-.165.195-.351-.065-.136-.172-.267-.344-.265-.105.001-.21.071-.314.07-.194-.001-.358-.122-.383-.295-.022-.153.117-.265.295-.284.292-.031.54-.145.717-.393.035-.049.108-.118.149-.109.448.09.849.068 1.176-.32a.19.19 0 0 1 .301.122c.021.364.248.259.403.174.271-.151-.056-.283-.048-.433z" fill="#040606"/><path d="M8.142 40.067c-.219-.179-.476-.283-.742-.364-.205-.063-.416-.106-.567-.276.35-.328.722-.146 1.089-.048.202.022.401-.154.607-.017.032.032.045.066.041.103s-.011.057-.02.057c-.302-.004-.271.208-.263.405l-.145.139z" fill="#894530"/><path d="M9.715 37.833c.009.252-.198.307-.364.4-.086.051-.141.008-.188-.059-.16-.175-.434-.021-.593-.204-.071-.118-.001-.184.087-.245.37-.112.733-.171 1.062.107l-.004.001z" fill="#806a20"/><path d="M9.081 39.65c-.067-.005-.118-.034-.145-.098-.04-.04-.071-.086-.094-.138-.053-.29-.483-.341-.44-.691.056-.034.107-.03.153.019.329.013.459.293.655.485.087.181.084.334-.129.424z" fill="#674821"/><path d="M12.511 39.135l-.131-.13a.16.16 0 0 1-.054-.13c.024-.097-.002-.206.071-.292.131-.084.255-.092.367.032-.042.219-.097.432.099.623.063.061-.011.148-.095.185-.056-.123-.127-.233-.258-.288z" fill="#57401d"/><path d="M9.212 38.102l.139.132c-.211.231-.55.211-.782.4-.099-.022-.165-.079-.197-.176.06-.267.306-.275.497-.359.114-.002.229-.101.343.004z" fill="#5a431c"/><path d="M9.081 39.65c.069-.133.139-.266.129-.424.158.137.317.273.364.495-.2.197-.338-.001-.493-.071z" fill="#9f7324"/><path d="M8.397 38.466l.172.167-.014.108-.15.007c-.095.006-.164-.024-.167-.133s.066-.142.159-.149z" fill="#996e26"/><path d="M8.934 39.411l.002.141-.386-.029a.42.42 0 0 1 .009-.112.27.27 0 0 1 .144-.094c.093-.009.174.012.231.094z" fill="#ba8421"/><path d="M11.847 40.065l-.03.056-.025-.025.055-.031z" fill="#040606"/><path d="M17.539 31.083c.295-.558.734-.971 1.267-1.305.498-.313 1.002-.634 1.263-1.203.169-.035.182.089.206.202.002.115-.038.22-.083.324a.94.94 0 0 1-.078.143.71.71 0 0 1-.169.166c-.086.055-.177.101-.256.166l-.175.155-.518.405c-.534.244-.726.874-1.261 1.117a.24.24 0 0 1-.161-.081l-.035-.087z" fill="#7d5245"/><path d="M16.886 32.401l-.027-.138c.03-.023.04-.052.028-.088.008-.067.061-.112.084-.172.181-.311.276-.676.566-.92l.028.039c.033.117.159.192.152.328-.211.464-.243 1.021-.705 1.354l-.035-.155c-.042-.079-.034-.176-.093-.248z" fill="#785244"/><path d="M20.188 28.838c-.013-.101-.022-.203-.12-.265-.044-.156.006-.288.105-.407.072-.056.136-.049.194.021.092.258.203.521-.178.651z" fill="#907c75"/><path d="M16.973 32.002c.005.074-.02.132-.084.172l.084-.172z" fill="#f4f2ee"/><path d="M20.286 28.154l-.113.013-.013-.133.154.001c.04.051.028.09-.028.119z" fill="#625050"/><path d="M21.752 4.233c-.094-.017-.228.053-.268-.076-.016-.053.094-.062.158-.063.079.013.114.061.11.14z" fill="#906257"/><path d="M5.359 35.45c-.422.09-.764-.101-1.099-.313l.008-.007a.13.13 0 0 1 .182.039c.345-.042.633.104.91.281z" fill="#743a31"/><path d="M4.449 35.169l-.182-.039c.027-.101.064-.192.179-.222l.003.261z" fill="#542824"/><path d="M11.335 34.904c-.018.039-.026.079-.025.121l-.108.032c-.136-.009-.053.059-.037.103-.074.137-.168.136-.212-.004-.037-.118-.017-.254-.022-.382.039-.042.073-.087.101-.137.046-.2.1-.395.263-.538.068-.18.09-.383.253-.516.063-.037.095-.113.171-.134.138.082.141.217.142.354.03.055.036.114.018.174-.011.156-.314-.293-.223.112.031.137-.055.289-.131.419-.137.096-.126.263-.189.395z" fill="#7b5424"/><path d="M11.833 34.009l.028-.205.474.581.071-.537c.067-.034.13-.028.19.017.249.296.275.601.038.916-.146.093-.185-.218-.342-.092-.283-.14-.579-.27-.459-.681z" fill="#85601f"/><path d="M11.071 34.765l-.14.01-.041-1.187c-.015-.038-.042-.064-.081-.076 0 0-.017-.055-.017-.055.212-.215.348-.193.391.125-.164.383.063.802-.112 1.184z" fill="#785628"/><path d="M9.749 33.729l.113-.287c.16.176.315.334.572.129.095-.076.22-.137.359-.114l-.008-.009c.029.028.041.059.039.092s-.009.051-.016.051c-.302.157-.607.309-.947.37-.064-.064-.056-.163-.111-.232z" fill="#75581c"/><path d="M11.071 34.765c.008-.398-.125-.808.112-1.184.029.175-.064.376.112.519-.01.243-.09.463-.224.665z" fill="#1a120e"/><path d="M12.514 33.852l-.108-.003-.035-.511c.008-.387.02-.389.446-.164-.028.098-.109.171-.127.274-.063.133.107.369-.176.403z" fill="#8a6921"/><path d="M12.527 33.353c.038-.155.168-.16.29-.178.092.005.172.033.222.117l.001.155c-.208.17-.36.036-.513-.094z" fill="#7d5222"/><path d="M11.719 33.45c-.034.073-.093.116-.171.134.048-.056-.02-.262.171-.134z" fill="#cf912b"/><path d="M14.889 35.041c-.056-.024-.162-.048-.162-.072-.002-.356-.022-.692-.175-1.038s-.165-.428-.589-.476c-.105-.003-.192-.04-.251-.132l-.298-.582c.225-.145.494-.032.675-.194l.385-.037c.262 0 .381.127.381.402l.034 2.13z" class="J"/><path d="M14.366 38.22l-.144-.148c-.078-.14-.011-.274.012-.41.012-.054.028-.107.045-.159.064-.177.084-.371.2-.528.087-.106.094-.231.079-.361a.96.96 0 0 1 .109-.307c.059-.057.116-.132.203-.038.055.708-.082 1.367-.504 1.953z" fill="#241b19"/><path d="M14.505 36.393c-.044-.277-.003-.523.25-.691h.001.128l-.006.264a2.36 2.36 0 0 0-.228.413c-.045.036-.093.041-.144.015z" class="J"/><path d="M14.623 36.364c-.013-.196.04-.349.255-.398l-.007.302-.125.092c-.039.056-.08.057-.123.004z" fill="#8c6e29"/><path d="M14.63 36.628c.156.136.152.268-.01.396-.339-.005-.154.328-.292.454-.037.082-.037.17-.048.257-.053.131-.144.184-.283.141-.195-.13-.349-.313-.545-.442-.147-.097-.234-.067-.227.126l.008.177c.006.063.023.122.05.179.091.21.322.403.176.648-.118.199-.334.142-.522.067l-.176-.016c-.142.003-.297-.033-.377.138.026.028.034.055.024.081s-.02.038-.029.038l-.002.133c-.253-.072-.37-.271-.492-.485-.207-.363-.22-.358.231-.487.099-.028.14-.099.165-.179l.155-.566c.111-.521.107-.521.645-.529.262-.004.526.025.782-.062.074-.025.149.006.193-.117.12-.343.133-.338.418-.086.086.005.114.076.153.134z" class="J"/><path d="M12.939 38.631c.527-.077.527-.077.334-.548l-.089-.24c.016-.07.055-.089.119-.056.232.23.279.543.375.835l-.117.124-.512.059c-.143.013-.116-.089-.109-.174z" fill="#776324"/><path d="M13.169 37.555c-.111-.063-.115-.176-.119-.281-.011-.246.131-.261.278-.138.23.193.434.416.649.626.057.068.052.13-.016.187l-.386-.266-.141-.129-.001-.001c-.035-.036-.078-.054-.128-.054l-.135.056z" fill="#714f1f"/><path d="M13.961 37.949l.016-.187c.096.026.177.004.242-.073.034-.058.072-.058.114-.008.014.145-.05.268-.111.392-.112.013-.193-.043-.261-.123z" fill="#9c6520"/><path d="M13.169 37.555l.133-.132c.032.027.044.056.036.087s-.017.047-.027.047c-.019.034-.026.07-.019.109-.035.062-.074.068-.12.01.004-.04.002-.081-.004-.12z" fill="#775734"/><path d="M13.561 38.747l.117-.124c.005.082-.022.135-.117.124z" fill="#ab8627"/><g fill="#190d0c"><path d="M13.174 37.675a.26.26 0 0 0 .12-.01.85.85 0 0 1 .009.123l-.119.055-.01-.169zm.26-.121l.141.129-.141-.129z"/><path d="M13.312 37.556l-.01-.133.13.13-.121.003z"/></g><path d="M43.702 15.624l-.662-.938.012-.06c.02-.037.048-.065.084-.087 0 0 .06-.011.06-.011.3.256.483.592.648.942l-.142.154z" fill="#784c41"/><path d="M43.041 14.685c-.25-.192-.464-.418-.653-.669l.013-.055c.019-.034.045-.06.078-.08 0 0 .056-.008.056-.008a2.22 2.22 0 0 1 .661.653.37.37 0 0 1-.04.054l-.063.062c-.017.016-.034.029-.053.042z" fill="#7d554a"/><path d="M42.388 14.016l-.785-.541c-.016-.123.005-.205.157-.14l.203.055.158.101c.021.07.071.107.141.123l.274.259c-.021.01-.039.023-.056.039l-.054.052-.037.051z" fill="#7b483b"/><path d="M41.759 13.335l-.157.14-.723-.362.185-.134c.253.077.511.145.695.357z" fill="#80574a"/><path d="M44.626 17.588c.055.118.047.241.027.364-.042.186.051.406-.138.556l-.039-.473c.043-.151-.004-.333.149-.447z" fill="#683e31"/><path d="M16.892 34.372c.14-.105.086-.267.12-.404.402.153.35.503.358.827a.3.3 0 0 1-.127.175c-.238-.128-.337-.338-.352-.598z" fill="#795246"/><path d="M17.244 34.969l.044-.228c.279.053.36.271.424.504-.013.102-.075.155-.172.175-.164-.108-.29-.241-.296-.452z" fill="#886055"/><path d="M17.54 35.421l.125-.117c.119-.032.161.017.137.133l-.035-.003-.03.017-.051.044c-.02.015-.028.035-.022.06l-.125-.133z" fill="#754137"/><path d="M13.712 33.322c.105.003.198.029.251.132-.051.037-.09.087-.132.132-.176.009-.349-.002-.396.245-.033.171.152.481-.255.467-.064-.002-.045.106.009.144.443.311.179.742.202 1.153-.306-.363-.753-.316-1.131-.434-.245-.077-.442-.065-.336-.404.022-.07-.121-.102-.208-.111-.063-.09-.198-.038-.259-.131-.017-.178.058-.335.104-.501.099-.35.183-.044.273-.003.06.311.295.482.525.657a.18.18 0 0 1 .143.075c.266-.293.126-.591.013-.889.104-.164-.017-.334.013-.499.191-.078.331.124.513.094.229-.014.494.162.672-.125z" class="B"/><path d="M16.886 32.401c.1.057.114.146.093.248l-.113-.131a.12.12 0 0 1 .019-.117zm.12.393l-.023.128c-.046-.026-.059-.06-.03-.097.012-.015.035-.021.053-.031z" fill="#65372a"/><path d="M17.687 35.494c.014-.018.031-.033.051-.044l-.001.052-.05-.008z" fill="#6d3e33"/><path d="M23.805 42.64c-.035.009-.08.035-.103.023s-.05-.066-.045-.097c.008-.051.055-.062.092-.025.026.026.038.065.056.099z" fill="#acdfd7"/><path d="M27.173 26.171l.412-.125c.044.002.089-.004.13.006 1.048.229 2.109.139 3.166.124.113.02.221.044.171.203-.073.23-.109.48-.223.689-.776 1.428-1.491 2.905-2.768 3.979-.753.634-1.538 1.229-2.44 1.649-.361.168-.668.09-.947-.169.24-.474.101-.982.127-1.475.028-.537.045-1.08-.261-1.564.08-.194.061-.421.272-.569 1.018-.715 1.605-1.804 2.363-2.746l-.002-.001z" class="D"/><path d="M27.176 26.172c-.149.669-.64 1.133-1.044 1.632-.391.483-.705 1.069-1.345 1.313-.147.056-.094.291-.246.37.019-.451-.024-.881-.404-1.196l.002.003.136-.122c1.11-.459 1.985-1.259 2.901-2z" class="S"/><path d="M20.584 28.283c.224-.169.436-.009.653.026.6.154 1.203.266 1.824.147.311-.059.606-.065.81.237.041.247.23.482.057.745l-.181.053c-1.151-.024-2.275-.147-3.221-.905-.037-.112-.027-.215.058-.304z" fill="#3b1b16"/><path d="M20.584 28.562c.85.472 1.792.627 2.731.788.155.026.295.072.431.14l-1.583 1.19c-.178.066-.312.18-.391.355-1.277 1.062-2.203 2.428-3.212 3.722-.334.03-.336-.236-.398-.447-.014-.045-.024-.093-.029-.138.007-.048-.014-.073-.063-.071.038.021.056.054.053.101s-.006.1-.025.148c-.059.065-.123.106-.208.047-.12-.098-.152-.223-.115-.369-.137-.651.005-1.281.146-1.912-.018-.042-.014-.082.014-.119.078-.077.05-.198.118-.278l.049-.12c.017-.05.049-.089.096-.114l.009-.011c.065-.331.298.045.408-.1.034-.067.081-.123.123-.183l.088-.126.155-.165c.065-.062.122-.132.177-.2-.002.002.035-.036.035-.036l-.047.026c-.038.054-.079.102-.123.149l-.105.104-.054.054a1.08 1.08 0 0 0-.103.12l-.053.062a.36.36 0 0 1-.148.074l-.083-.018c-.108-.091-.09-.196-.033-.306l-.003.004c.096-.047.066-.18.157-.231l.023-.018c.015-.05.047-.081.098-.093.008-.042.034-.065.077-.067.126-.014.113-.155.193-.211l.133-.165c.067-.218.297-.275.427-.432.04-.041.082-.079.126-.116l.063-.056c.042-.037.088-.069.135-.098.121-.072.215-.171.289-.291.183-.167.15-.488.421-.591z" class="C"/><path d="M23.611 39.491c-.027.038-.052.109-.093.121-.075.022-.1-.042-.07-.103.024-.05.07-.09.107-.135l.057.116z" fill="#ace2d9"/><path d="M17.797 21.816c.027-.059.089-.128.076-.177-.161-.643.19-1.173.356-1.748.192-.664.766-.693 1.272-.842.179-.053.399.05.543-.142h.264c-.008.149.078.268.133.397-.12.511-.515.366-.848.346-.297-.017-.674-.178-.8.215-.154.484-.723.87-.317 1.508.339.534.54 1.181 1.354 1.113.255.078.327-.14.448-.279.169.274.413-.237.58.055l-.021.084c-.27.511-.785.602-1.271.684-.301.051-.565-.144-.773-.385-.169-.196-.296-.166-.339.102-.497-.114-.301-.718-.658-.931z" class="T"/><path d="M22.679 20.746l.009.147c-.215.312-.485.569-.783.8-.604.925-.44 1.866-.052 2.809.139.338.441.529.71.747.031.126-.003.187-.143.142-.849-.571-1.218-1.383-1.195-2.39l.014-.653-.009-.093c.029-.365.168-.665.505-.846.244-.321.524-.591.943-.663z" class="K"/><path d="M17.797 21.816c.234 0 .334.14.405.346.068.2.088.426.253.585.039.692-.05 1.356-.384 1.979-.17.316-.363.602-.668.8-.114.034-.212.133-.347.088.146-.35.509-.521.679-.865.381-.77.648-1.528.194-2.364-.092-.168-.157-.363-.132-.568z" fill="#b73421"/><path d="M22.42 25.391l.143-.142c.528.317 1.133.412 1.767.591-.217.131-.408.048-.583.076l-.065-.003-.065.001c-.108-.122-.287-.016-.398-.124-.255-.155-.593-.146-.799-.399z" fill="#873c2a"/><path d="M23.22 25.79c.146-.001.298-.021.398.124-.145-.002-.299.026-.398-.124z" fill="#d95840"/><g class="T"><path d="M21.24 22.348l-.269-.002-.017-.094c.142-.107.278-.194.287.096h-.002z"/><path d="M20.971 22.346c-.044.09-.089.09-.133 0l.001-.001c.044-.055.088-.052.132 0l.001.001z"/></g><path d="M20.97 22.345h-.132c-.033-.057-.11-.125-.143-.087-.161.187-.272.08-.389-.044-.14.123-.214.313-.395.395-.367-.013-.787.098-1.039-.262-.263-.377-.476-.79-.689-1.199-.125-.239-.012-.482.107-.688.14-.243.329-.447.335-.759.003-.167.169-.251.336-.257.24-.008.476-.019.715.067.286.103.547.001.765-.207.377.489 1.083.787.926 1.588v.131c.047.041.082.095.131.133.046.116.123.202.237.254l-.495.939c-.089-.132-.179-.144-.271-.003z" fill="#e84348"/><path d="M26.907 16.019c.021-.108.027-.224.144-.283l.135.394c.141.215.155.506.397.661.091.929-.433 1.568-1.026 2.175l-.087.154c-.33.28-.238.762-.513 1.068-.446-.107-.864-.254-1.032-.747.394-.377.896-.632 1.221-1.085.133-.061.05-.165.048-.253.044-.32.255-.541.447-.773.259-.403.27-.856.266-1.312z" fill="#371c15"/><path d="M24.279 17.979c-.415-.391-.926-.706-1.056-1.324.223-.084.295-.316.452-.465.278-.263.575-.472.985-.454.225.01.468.008.536.274.057.222-.162.29-.307.368-.276.148-.442.417-.683.601.226-.167.38-.422.637-.551.155-.078.326-.177.488-.03.154.14.102.314.039.487-.194.536-.658.799-1.09 1.094z" class="S"/><path d="M24.279 17.979c-.005-.187.142-.254.265-.346.193-.143.395-.279.516-.499.112-.203.39-.442.196-.63-.205-.197-.421.093-.595.24-.168.141-.314.309-.471.463-.073.072-.138.162-.375.144.324-.604.776-.979 1.318-1.281-.435-.276-.754-.271-1.135.026-.19.148-.372.312-.496.525-.081.14-.18.073-.278.034.251-.644.68-1.05 1.408-1.06.707-.009 1.051.367.967 1.058-.082.675-.601 1.196-1.32 1.325z" fill="#943d31"/><path d="M21.368 20.891c-.015-.524-.458-.804-.687-1.207l-.239-.381c.325-.158.436.067.514.306.047.143.053.267.227.355.539.276.547.37.185.927z" class="T"/><path d="M26.641 17.331c-.008.108-.181.182-.114.28.169.25.214.358-.175.304-.118-.016-.066.212-.077.331-.049.052-.091.049-.125-.017-.049-.149-.107-.292-.261-.366a.15.15 0 0 1-.21-.022l.039-.232c-.051-.072-.044-.138.021-.198.027 0 .053.006.078.017.113-.023.169-.201.321-.119l-.003-.001c.034.053.076.06.127.023.127-.041.253-.036.38-.001z" fill="#d0e0d7"/><path d="M24.924 19.442c.301.297.688.462 1.047.669.059.033.085.084.082.151-.029.099-.097.154-.196.173-.468-.067-.797-.401-1.189-.616a1.39 1.39 0 0 1-.194-.188c-.039-.047-.07-.099-.095-.154l-.013-.09c.032-.097.08-.162.193-.095l.366.152z" fill="#b5d4c9"/><path d="M23.483 20.891c-.108.002-.205.024-.265.126l-.003.005c-.126.039-.179.006-.129-.13l.002-.262c.061-.097.198-.045.263-.135l.514-.302c.046.162.172.17.308.163.05.081.053.165.019.252a.25.25 0 0 1-.152.09c-.063-.003-.116-.027-.161-.071-.11.122-.41-.044-.397.264z" class="C"/><path d="M24.115 20.626l.004-.258c-.1-.121-.061-.252-.023-.381l-.011-.502c.005-.408.042-.422.474-.194l-.147.138c.025.319.047.637.024.957-.005.096-.022.19-.058.28-.029.057-.073.101-.129.131l-.093-.008c-.05-.045-.062-.1-.04-.164z" fill="#d2afa7"/><path d="M24.267 14.164l.016-.144c.13-.041.128-.147.128-.253a.53.53 0 0 0 .123-.034c.137.052.189.186.277.285l-.054.248c-.168-.016-.354.06-.491-.102z" fill="#622d21"/><path d="M23.483 14.142h.27l.034.263a1 1 0 0 1-.461.265c.011-.189.03-.374.157-.529z" fill="#724235"/><path d="M26.465 16.201c.087.023.16.072.173.162.018.12-.049.215-.162.232-.089.014-.15-.075-.167-.159-.024-.12.042-.198.155-.236z" fill="#dab7ab"/><path d="M24.096 19.986l.023.381c-.202.113-.247-.002-.254-.174l.231-.207z" class="Q"/><path d="M26.137 17.31l-.32.119c.058-.106-.001-.285.14-.326s.154.107.181.207z" fill="#cfc7b6"/><path d="M26.306 15.388c.076.016.107.077.095.138-.011.055-.053.139-.094.147-.114.022-.149-.065-.134-.162.011-.067.059-.114.134-.123z" fill="#d0e4db"/><g class="K"><path d="M23.351 20.495c-.056.106-.155.129-.263.135l-.142-.011c.102-.147.256-.128.405-.124z"/><path d="M22.95 20.616c-.053.119-.155.14-.27.133.054-.116.159-.132.27-.133z"/></g><path d="M26.149 18.23c.043-.005.084 0 .125.017.021.024.066.059.061.069-.045.083-.12.053-.19.041-.008-.043-.006-.085.004-.127z" fill="#8b857d"/><path d="M25.679 17.843l.21.022c-.045.069-.108.121-.192.099-.074-.019-.072-.071-.018-.121z" fill="#dbcabb"/><path d="M25.739 17.412l-.021.198c-.081-.036-.139-.096-.11-.186.024-.077.082-.066.131-.012z" fill="#e1cbc6"/><path d="M26.261 17.332c-.058.083-.101.075-.127-.023.043.002.086.009.127.023z" fill="#cfc7b6"/><path d="M42.775 16.945c-.207-.54-.309-1.12-.634-1.614.057-.085.01-.218.126-.276.389.416.581.918.641 1.477-.116.115.011.308-.133.414z" fill="#6f4639"/><path d="M42.268 15.055c-.016.104-.022.213-.126.277l-.413-.521.166-.149a.74.74 0 0 1 .373.394z" fill="#673728"/><path d="M42.776 16.945c.04-.139-.026-.313.133-.414.027.034.034.071.02.113-.04.137.023.308-.133.408-.026-.032-.032-.068-.021-.107z" class="C"/><path d="M41.86 14.544c-.083-.005-.109-.065-.125-.134l.125.134z" fill="#f8faf7"/><path d="M42.11 16.948a.55.55 0 0 0-.119-.023c-.198-.809-.693-1.398-1.374-1.848l-.386-.246.175-.146c1 .366 1.477 1.188 1.833 2.113-.04.052-.048.133-.129.15z" fill="#76493d"/><path d="M42.111 16.948l.129-.149c.029.031.039.067.032.109l-.124.141c-.026-.028-.038-.061-.036-.1z" fill="#602d22"/><path d="M17.661 18.39c-1.151-.523-2.137.227-2.519 1.248-.058.156-.061.41-.266.388-.291-.032-.278-.31-.235-.522a1.89 1.89 0 0 1 .58-1.008l.594-.512c.639-.251 1.284-.393 1.946-.082.133.063.303.118.268.316-.038.215-.231.145-.368.173z" fill="#612e1f"/><path d="M21.905 21.693c.184-.342.474-.58.783-.8v-.001c.031.028.041.057.032.087s-.019.044-.029.044l-.646.807-.14-.137z" fill="#b44d3c"/><path d="M12.796 19.525c-.012-.026-.018-.052-.019-.081l.064.062-.044.019z" fill="#873729"/><path d="M23.086 20.891l.129.13c-.056.101-.156.123-.257.143-.003-.112.019-.213.128-.273z" class="K"/><path d="M20.055 2.109c-.011-.03-.019-.06-.022-.092l.026-.189c.05.037.112.066.149.113.059.076.199.161.117.252s-.171-.075-.271-.084z" fill="#c7b9ae"/><path d="M22.691 21.023l-.004-.131c.092.041.095.085.004.131z" class="K"/><path d="M27.44 22.186c-.445.405-.918.774-1.411 1.118-.626-.116-1.024-.635-1.07-1.395.044-.155.146-.266.274-.356.241-.17.523-.173.8-.19-.136-.396.226-.384.418-.511a.52.52 0 0 1 .185-.013c.06.021.113.052.16.094s.077.096.105.151c.094.409.536.649.539 1.103z" fill="#4b2419"/><path d="M24.427 22.842l-.026-.891c-.089-.129-.062-.263-.02-.398l.063.02c.048-.01.083.008.119.026.114.054-.033.433.285.229.151.494.365.956.676 1.37.106.141.21.279.078.459a4.99 4.99 0 0 1-1.062.806c-.112-.535.076-1.09-.113-1.62z" fill="#4f291e"/><path d="M25.602 23.656c-.007-.161-.103-.271-.2-.388-.349-.421-.541-.911-.602-1.453-.05-.052-.086-.111-.109-.179a1.59 1.59 0 0 1-.053-.318c.02-.324.009-.842.363-.787.38.058.229.577.198.913-.012.13-.089.246-.127.372.019.689.404 1.143.957 1.489-.124.14-.252.274-.427.352z" fill="#6f3624"/><path d="M27.441 22.186c-.239-.372-.653-.645-.656-1.152.452-.095.699.194.937.5.109.118.38.186.13.416l-.41.236z" class="I"/><path d="M27.846 18.643c-.045.135-.211.331-.025.399.399.145.244.345.061.481-.3.222-.33.555-.247.807.134.406-.029.516-.356.582-.298.117-.435-.1-.59-.282-.145-.244-.215-.5-.126-.783.16-.385.425-.709.624-1.072.113-.206.256-.468.526-.133h.133z" fill="#472218"/><g fill="#3d1d15"><path d="M27.713 18.643c-.186-.098-.317-.071-.389.149-.133.402-.368.742-.666 1.04-.407-.215-.058-.648-.265-.922-.022-.28.287-.157.338-.256.129-.25.389-.437.362-.776-.013-.159.013-.421.329-.25.05.027.159-.157.106-.186-.491-.268-.114-.447.053-.649.395.304.29.771.101 1.021-.217.286-.178.422-.008.645.035.045.027.123.039.186z"/><path d="M27.582 16.792c-.441-.036-.394-.363-.397-.661.266.14.352.389.397.661z"/></g><path d="M13.838 5.291c.018.01.051.023.05.03-.008.043-.029.033-.053-.027l.003-.003z" class="C"/><path d="M13.847 5.146l-.009.145c-.131-.053-.114-.105.001-.156z" fill="#b08173"/><path d="M23.879 20.627l.129.002a.34.34 0 0 1 .111.134l.038-.011c.139.174.099.352.01.53l-.041.792c-.143-.472-.437-.918-.247-1.447z" fill="#3f2017"/><path d="M23.485 21.288l.004-.132c.05.02.069.053.047.095-.009.017-.033.025-.05.038z" class="C"/><path d="M26.789 20.6c.144.135.287.272.491.312l.329.239c.017.05.052.079.103.089l.137.05.053.1-.181.143c-.322-.148-.584-.409-.937-.5l-.01-.007c-.029-.05-.07-.085-.123-.107-.026-.037-.061-.052-.105-.044l-.083.003a.42.42 0 0 1-.162-.041c-.049-.032-.083-.076-.105-.13a.34.34 0 0 1 .016-.17c.049-.079.122-.122.212-.139.17-.021.267.091.365.202z" fill="#accec3"/><path d="M27.712 21.241c-.061.002-.09-.035-.103-.089l.103.089z" class="I"/><path d="M29.871 9.634l-.107.018c-.032-.063-.007-.101.055-.124.032.029.049.064.052.106z" fill="#eef9f9"/><path d="M19.675 2.337l-.014-.132.114.075c-.022.043-.055.062-.1.057z" fill="#e1f5ef"/><path d="M24.8 21.686v.129c-.129.115-.27.289-.267-.077 0-.055-.058-.11-.088-.166l-.057-.415c-.043-.052-.071-.111-.085-.177.005-.132.033-.258.087-.378.21-.078.366-.032.327.218-.028.18.007.345.02.516.011.118-.03.246.064.349z" fill="#3d1e17"/><path d="M24.387 21.02v.137l-.219.124-.01-.53a.71.71 0 0 0 .107-.005c.11.06.051.197.122.274z" fill="#a1a89d"/><path d="M24.381 21.552l.02.398h-.058l-.057.008c-.002-.143-.025-.291.095-.405z" fill="#a9bab4"/><path d="M9.72 37.832a6.21 6.21 0 0 0-1.18-.008l-.065-.063a.66.66 0 0 1-.074-.26 2.62 2.62 0 0 1-.014-.271c-.007-.154.036-.319-.016-.46-.063-.172-.11.011-.166.036-.084.092-.182.158-.304.185-.191.03-.364-.032-.536-.1a1.04 1.04 0 0 1-.215-.13c-.093-.062-.172-.049-.234.05-.078.144-.074.306-.107.459a.49.49 0 0 1-.074.156c-.072.064-.155.078-.246.052l-.07-.055c.087-.711-.18-1.404-.102-2.114.233.356.536.448.972.413.461-.038.964-.155 1.401.153.015.011.041.007.062.007.139.002.288-.261.392-.063.119.227.09.498-.014.755s.068.69.313.693c.534.006.319.313.278.564z" class="B"/><path d="M7.355 36.759l.543.139c.025.031.057.054.095.069.047-.004.084-.024.112-.063.115-.095.229-.116.343-.003.013.057.01.112-.009.167.065.323-.305.768.266.95.114.014.265-.018.23.183-.155.138-.395.102-.538.265-.179.099-.129.191.008.282l.523.457c.063.058.111.134.006.206l-.228-.029c-.304-.085-.591-.127-.694.282-.351-.29-.757-.302-1.178-.237-.238-.07-.535.07-.73-.208l.587-.285c.472-.257.508-.447.15-.84-.077-.085-.139-.162-.15-.276-.008-.081-.011-.161.004-.241.02-.099.097-.198-.004-.295.016-.178-.052-.375.11-.523.095.035.179-.05.274-.026.121.075.156.204.205.324.025.141.126.246.171.377.083.041-.014.356.228.146.026-.094.008-.179-.043-.258-.064-.08-.158-.104-.25-.134-.103-.072-.104-.184-.118-.291.014-.057.044-.103.089-.139z" class="U"/><path d="M6.409 37.81c-.44-.29-.983-.323-1.609-.608.617-.029 1.004-.244 1.396-.484.21.2-.023.532.222.705l.017-.009c.09.138.112.272-.026.395z" fill="#83382d"/><path d="M6.409 37.81l.026-.395.244-.001c.111.052.046.196.136.259l-.125.146c-.094.024-.191.138-.28-.009z" fill="#231310"/><path d="M18.193 34.247c.191.121.111.437.367.512-.028.206-.169.313-.344.39-.132-.24-.303-.463-.324-.751l.17-.152c.044-.061.088-.064.131.001z" fill="#674234"/><path d="M9.749 33.729c.096.049.11.138.111.233-.167-.015-.134-.126-.111-.233z" fill="#a76d2b"/><path d="M11.166 35.16c-.066-.045-.135-.091-.044-.174.003-.003.053.046.081.071-.002.038-.014.072-.037.103z" fill="#aa791f"/><path d="M10.807 33.591l-.022-.143c.065.024.11.063.106.14l-.084.003z" fill="#080808"/><path d="M16.492 19.98c.245-.011.498.238.509.501a.52.52 0 0 1-.469.538c-.223.009-.469-.275-.47-.542-.001-.252.203-.487.43-.497z" fill="#0c090a"/><path d="M17.185 21.881c-.037.003-.075.01-.112.006-.011-.001-.026-.034-.026-.053 0-.055.035-.082.079-.053.029.019.04.066.059.1z" fill="#b74e3b"/><path d="M13.687 19.403c-.048-.021-.063-.058-.028-.096.025-.026.065-.038.099-.056.01.034.038.078.025.101s-.062.034-.096.05z" fill="#c44f37"/><path d="M20.584 28.562c-.095.246-.147.521-.412.661l-.055-.019a.44.44 0 0 0-.048-.105l.119-.261c.188-.206.071-.455.097-.684a.36.36 0 0 0 .028-.119c.183-.019.247.092.27.248-.059.093-.024.186.001.279z" fill="#dad2ca"/><path d="M11.456 34.513c.108.002.204.026.259.131-.201-.021-.255.17-.379.26-.005-.144-.017-.291.12-.391zm1.184 1.057a.15.15 0 0 1 .267-.039c.023.021.037.096.026.104-.117.08-.194-.047-.293-.065h0z" class="B"/><path d="M14.631 36.628c-.087-.004-.128-.06-.154-.134.022-.03.032-.064.029-.101a.76.76 0 0 1 .117-.029l.123-.004-.115.269z" fill="#7c5919"/><path d="M12.64 35.569c-.029.057-.118.125-.131.096-.062-.151.086-.06.131-.095h0z" class="B"/><g class="J"><path d="M14.624 35.57l.133.132h-.001l-.132-.132h0z"/><path d="M14.623 35.569c-.018-.01-.054-.024-.053-.03.01-.044.03-.034.052.03h0z"/></g><path d="M8.011 39.664c.097-.462.124-.473.694-.282l-.147.029c-.252-.066-.392.11-.547.253z" fill="#657723"/><path d="M8.639 38.065c-.186.018-.374.02-.361-.239.014-.278-.06-.57.113-.827.12.059.055.202.126.283l.019.26c-.043.081-.119.165.016.234l-.012.048.146.133c.041.06.023.095-.047.108z" fill="#7c4b1a"/><path d="M8.639 38.065a.8.8 0 0 1 .047-.108l.435-.004c.081.005.168.034.091.149l-.277.1c-.067-.114-.185-.118-.296-.137z" fill="#180a0c"/><path d="M12.381 38.872c-.023-.041-.021-.08.006-.119.055.017.075.049.05.088-.01.016-.036.021-.055.031z" fill="#a97a2d"/><path d="M19.632 29.744c-.099.225-.301.318-.509.404l-.147-.143c.117-.222.366-.257.547-.388l.057.021a.12.12 0 0 1 .053.105z" fill="#c5c1b8"/><path d="M20.172 29.223c-.056.116-.148.192-.264.243-.036-.027-.048-.053-.035-.079s.025-.038.038-.038a.11.11 0 0 1 .098-.139l.052-.038.051.039.061.012z" fill="#e6f6f0"/><path d="M19.911 29.349l-.002.117c-.016.071-.057.118-.132.129-.051-.016-.088-.049-.107-.1.046-.105.132-.144.241-.146z" fill="#dff4ec"/><path d="M17.674 31.221a.13.13 0 0 1-.043.105.16.16 0 0 1-.065-.204l.108.099z" fill="#6f3b30"/><path d="M19.67 29.495l.107.1-.021.016c-.054.064-.11.066-.168.006l-.032-.011-.032.011.147-.122z" fill="#f1faf3"/><path d="M20.111 29.211l-.051.002-.051-.002a.14.14 0 0 1 .061-.111c.045.025.075.056.041.111z" fill="#eef9f7"/><path d="M12.501 34.741c-.078.033-.113-.016-.143-.075l.081-.082.062.157z" fill="#b37729"/><path d="M14.252 37.436c.053-.178.063-.388.169-.526.143-.187.181-.014.2.114-.204.123-.065.406-.252.536-.056-.025-.095-.067-.116-.124z" fill="#6b5222"/><path d="M14.253 37.436l.116.125c-.003.042-.014.083-.035.12l-.114.008.034-.252z" fill="#a9772b"/><path d="M43.093 14.644l.011-.051.052-.011c-.002.039-.023.06-.063.062z" fill="#5b2f18"/><path d="M42.424 13.965c.004-.033.022-.05.054-.052 0 0-.008.046-.008.046l-.046.006z" fill="#572c21"/><g class="L"><path d="M17.923 32.117c.007.641-.186 1.267-.146 1.911-.232-.658-.117-1.29.146-1.911zm.805-.737c-.018.189-.131.309-.274.395-.29.057.249-.518-.245-.3-.016-.223.076-.399.237-.546.02.106.032.216.141.276.091.023.143.078.142.175zm-.672.34c.013.115-.012.214-.118.278-.025-.12.027-.207.118-.278z"/><path d="M18.6 30.702c-.007.108-.043.195-.157.231.007-.107.037-.199.157-.231zm.391-.389c-.011.119-.06.204-.193.211.037-.096.076-.189.193-.211zm-.791 1.173l-.096.114c-.006-.07.028-.106.096-.114z"/><path d="M18.721 30.591l-.098.093c.008-.058.038-.091.098-.093z"/></g><path d="M19.282 30.675c-.082.107-.137.243-.295.266l-.06-.055.026-.077.17-.253c.131-.065.16.006.158.119z" fill="#9a877a"/><path d="M18.062 34.115c-.13-.075-.137-.178-.091-.317.136.088.17.21.222.319-.044.05-.088.048-.13-.003z" fill="#683b2d"/><path d="M19.282 30.676c-.034-.065-.082-.111-.158-.119.054-.115.17-.191.259-.114.131.113-.027.169-.1.233z" class="L"/><path d="M18.728 31.38c-.079-.033-.123-.094-.142-.175l.003-.005c.04-.029.083-.048.131-.057s.092.014.122.055l-.115.181z" fill="#a99582"/><path d="M19.587 29.617l.169-.006-.123.133c-.047-.031-.089-.064-.045-.127z" fill="#f7fcf0"/><path d="M18.062 34.115c.043-.002.087-.001.131.002l.001.13-.066.001-.066-.002v-.131z" fill="#958a79"/><path d="M18.843 31.198l-.152.002c-.011-.046-.005-.09.021-.13l.008-.008.071-.041.064.052c.02.044.016.086-.012.125z" fill="#bbd0c0"/><path d="M18.712 31.07l-.021.13-.051-.006-.051.005.123-.129z" class="L"/><path d="M18.987 30.941c-.009.079-.043.134-.133.132l.004.008c-.03-.029-.042-.06-.037-.093s.013-.05.022-.05l.008-.008c.051-.033.097-.028.139.017l-.003-.006z" fill="#a3a495"/><g class="L"><path d="M18.844 30.938l.014.143-.138-.019.124-.124z"/><path d="M18.991 30.948l-.139-.017.102-.121.037.138z"/></g><path d="M19.912 22.61c.013-.25.141-.386.395-.395-.032.471-.078.516-.395.395z" fill="#b9433e"/><path d="M18.829 20.756c.008.137-.024.214-.126.236-.148.031-.271-.02-.291-.176-.011-.088.084-.153.173-.17.119-.023.209.026.243.11z" fill="#9c3d37"/><path d="M19.481 21.408c-.003.123-.077.205-.19.226-.102.019-.157-.063-.158-.159-.002-.119.059-.223.178-.238.09-.011.147.075.17.17z" fill="#ab403b"/><path d="M19.855 20.281c.084.045.224.052.218.189-.005.096-.105.131-.197.137-.133.008-.207-.06-.204-.193.003-.109.073-.148.183-.133z" fill="#d14444"/><path d="M20.524 20.933c-.029.086-.086.159-.175.169-.101.012-.156-.064-.152-.16s.069-.16.165-.163.158.05.162.153z" fill="#b7413d"/><path d="M26.005 20.216c-.016-.033-.027-.068-.034-.104-.037-.408-.03-.425.419-1.072.109.418.183.838.075 1.27-.2.202-.345.132-.459-.093z" fill="#3f2017"/><path d="M26.388 20.378l.002-1.34.003-.129c.19.011.312.125.226.294-.12.234.031.42.039.628-.045.272.074.515.13.769l-.348-.132c-.059.007-.086-.004-.082-.032.006-.038.016-.057.031-.057z" fill="#5b2c1e"/><path d="M24.674 21.421c-.003-.205-.157-.388-.053-.618.057-.127-.097-.156-.201-.177-.056-.057-.081-.125-.074-.205.122-.246-.284-.724.331-.754l1.174.703c.073.04.161.053.221.119.069.085.095.208.22.241l-.014-.004c.045.123.179.092.261.151l.008-.002c-.086.14-.242.179-.37.259-.14.087-.116.17.021.219.076.027.198-.011.149.134-.029.086-.111.157-.202.108-.422-.228-.742.013-1.071.218-.129-.385.09-.78-.049-1.213-.286.234-.198.542-.223.815-.04.06-.082.064-.127.005z" fill="#411f17"/><path d="M24.676 19.668c-.207.014-.281.146-.287.333l-.009.492c-.036.061-.071.058-.106 0 .051-.354-.116-.736.137-1.064l.003.008c.034.058.084.092.148.107l.114.124z" fill="#a1a89d"/><path d="M25.993 20.531l-.143-.16.155-.155.383.163c.009.035.026.065.051.09l-.183.162c-.131.083-.181-.054-.264-.099z" fill="#a9c1b8"/><path d="M24.562 19.544c-.073-.002-.122-.039-.148-.107l.148.107z" fill="#d2afa7"/><path d="M24.12 20.762l-.111-.134.106-.003.005.137z" class="Q"/><path d="M24.274 20.493h.106l.039.134-.032.394c-.097-.066-.109-.171-.122-.274l.009-.253z" fill="#979f98"/><path d="M26.65 20.92c.07.003.104.046.123.107l-.123-.107z" class="I"/><path d="M24.674 21.422l.127-.005v.269c-.102-.059-.125-.157-.127-.264z" fill="#4f291e"/><g fill="#4b2419"><path d="M25.992 20.531l.264.099c.022.03.033.064.034.101-.168.035-.273-.022-.298-.2z"/><path d="M26.538 20.878c-.122.009-.227-.009-.261-.151.108.014.205.048.261.151z"/></g><path d="M8.517 37.281c-.099-.069-.107-.178-.126-.282-.006-.026-.007-.052-.004-.078-.021-.172-.179-.11-.272-.16.038-.101.066-.207.115-.302.038-.074.083-.157.249-.16.141.308.053.649.037.982z" fill="#78592c"/><path d="M8.116 36.76c.153-.053.327-.141.272.16-.213-.068-.239.179-.383.227l-.108-.11.002-.14.218-.138z" fill="#543c1e"/><path d="M6.967 36.777c-.071.13-.121.072-.169-.018.057-.132.032-.335.223-.357.119-.014.167.117.198.226-.052.104-.195.055-.253.149z" fill="#6c4d21"/><path d="M6.968 36.777c.029-.144.148-.135.253-.149l.135.13-.009.137c-.048.045-.059.128-.141.138l-.238-.256z" fill="#301c13"/><path d="M6.814 37.673c-.121-.047-.114-.16-.135-.259a1.04 1.04 0 0 0 .01-.131c.179.086.123.247.125.39z" fill="#514125"/><path d="M8.552 37.776c-.179-.066-.095-.15-.016-.234l.016.234z" class="U"/><path d="M7.856 37.546c-.056.176-.1.358-.265.484-.23-.161-.257-.377-.241-.609-.071-.096-.008-.137.069-.173.053.004.095.027.122.072.008.035.005.072.004.108-.001.026.008.041.012.046.056.068.116.008.029.018a1.86 1.86 0 0 1-.02-.052c.02-.045.055-.072.102-.083.049.003.09.024.122.06l.064.127z" fill="#744e20"/><path d="M7.448 37.294l-.097.127c-.141-.095-.123-.248-.145-.387l.141-.138c.016.104.029.209.127.275.031.035.038.064.02.089s-.031.033-.045.033z" fill="#603f1c"/><path d="M7.448 37.294c.013-.04.022-.081.025-.122.182-.177.207.018.274.115l-.021.065c-.041.02-.075.048-.104.084l.008-.004a.07.07 0 0 1-.13-.011l-.053-.127z" class="B"/><path d="M7.855 37.546l-.112-.13c-.03-.029-.04-.058-.03-.086s.021-.042.032-.042l.001-.002c.131.047.143.144.109.259z" fill="#655734"/><path d="M7.896 37.038l.108.11c-.095.022-.114-.032-.108-.11z" fill="#997f28"/><g class="U"><path d="M7.5 37.42a1.15 1.15 0 0 1 .129.011c-.019.051-.039.146-.057.145-.108-.002-.075-.09-.073-.156z"/><path d="M7.746 37.288c.002.043.001.085-.002.128a.52.52 0 0 1-.122.019l.124-.147z"/></g></svg>