<svg xmlns="http://www.w3.org/2000/svg" width="48" height="48" fill="none" xmlns:v="https://vecta.io/nano"><style><![CDATA[.B{fill:#ef9d21}.C{fill:#fefefe}.D{fill:#f89a68}.E{fill:#b6b8b6}.F{fill:#c1c2c0}.G{fill:#eeeeec}.H{fill:#eeeeeb}.I{fill:#f78e6b}.J{fill:#1a1b1b}.K{fill:#c6c5c4}.L{fill:#d2d7d4}.M{fill:#daab4a}.N{fill:#cacdcb}.O{fill:#e5e5e3}.P{fill:#dbdcd9}.Q{fill:#e79a21}.R{fill:#8f5434}]]></style><path d="M.257 40.168l.002-.205c-.063-.068-.063-.136-.003-.206l.004-.196c.138-.301-.044-.639.107-.938l-.002-.099c-.065-.067-.064-.136-.006-.207.042-.165.02-.331.007-.496.052-.075.047-.161.046-.246l.114-4.024c.093-.963.174-1.935.552-2.847l.008-.188c.047-.065.039-.151.08-.219l.014-.108c.043-.771.206-1.517.454-2.246.055-.161.104-.328.258-.431.022-.026.028-.055.017-.087.053-.062.038-.152.087-.216.025-.019.032-.044.023-.074.098-.529.332-.987.724-1.359l-.009.004c.019-.046.057-.078.088-.116.024-.015.031-.036.022-.063.607-1.163 1.464-2.124 2.44-2.98.458-.402.924-.808 1.473-1.093.173-.09.347-.249.552-.055l.92 3.919c.12.366.348.714.23 1.13-.154.368-.211.757-.216 1.151-.011.875-.212 1.742-.203 2.608.01.895-.17 1.762-.211 2.641l-.267 4.402c-.05.779-.213 1.557-.03 2.346.066.284-.126.561-.14.856l-.129 1.846c-.004.298-.004.624-.27.853-.45.155-.915.076-1.373.085l-2.703.093-1.875.112c-.794-.011-.934-.147-.943-.923v-1.795c.002-.222-.002-.448.159-.63z" class="B"/><path d="M24.322 6.633l.013.207c.096.124-.015.293.093.414l.013.205c.071.194.036.392.025.589-.04.046-.09.059-.147.039-.087-.146-.004-.317-.072-.506-.005-.029-.048.028-.041.038.14.194.02.447.142.649-.093.586.042 1.206-.268 1.758-.044.027-.093.037-.144.03-.102-.111-.083-.234-.073-.265-.001.079.003.261-.055.43-.11.268-.127.541-.045.821-.02.127-.105.181-.223.198-.885-.146-.885-.146-.925.745-.005.103-.003.206-.032.306-.035.118-.079.239-.23.233-.137-.004-.214-.102-.252-.222-.053-.168-.02-.34-.009-.51.107-1.578-.061-3.147-.125-4.719-.022-.23-.096-.447-.188-.657-.044-.133-.101-.256-.241-.317-.395-.231-.804-.424-1.257-.51-.565-.099-1.114.004-1.662.13-.515.172-1.041.266-1.585.229-.854-.134-1.723-.099-2.576-.233-.453-.034-.904-.178-1.359-.011-.175.028-.344-.005-.511-.047-.446.024-.884.069-1.231.399-.207.18-.412.361-.545.609-.167.241-.272.492-.134.786l.012 3.04c-.03.529-.013 1.058-.001 1.586.003.137 0 .275-.04.407-.05.165-.107.352-.317.347-.191-.005-.208-.195-.26-.336-.042-.113-.069-.229-.086-.346-.058-.21-.174-.398-.193-.627-.047-.57-.072-.579-.61-.39-.08.028-.159.061-.246.059-.182-.091-.161-.284-.22-.438-.027-.09-.022-.185-.045-.275-.015-.044-.017-.088-.005-.133.087-.154.057-.308 0-.462-.144-.611-.253-1.225-.219-1.856.004-.181-.016-.367.032-.541.039-.144 0-.179-.133-.154-.028-.132-.037-.262.029-.386l.008-.105c-.062-.161-.002-.292.104-.41l-.002.001c.11-.28.024-.572.052-.858.008-.082.002-.191.127-.161.073.018.098.104.087.124.076-.899.61-1.667 1.061-2.47.075-.077.202-.087.252-.198.014-.04.033-.077.053-.113a1.1 1.1 0 0 1 .071-.105c.086-.126.199-.225.318-.318s.232-.219.412-.157c.236.127.408-.059.604-.125a2.44 2.44 0 0 1 .355-.14c.054-.019.109-.038.16-.066a.54.54 0 0 0 .079-.081c.051-.13-.007-.311.174-.381.396-.175.768-.102 1.13.1l.192.014c.063.051.151.038.215.085l.301.017c.349.078.698.082 1.046-.002l.412-.02c.065-.04.149-.027.208-.081a.26.26 0 0 0 .094-.005c.363-.183.73-.318 1.131-.112l.621-.001c.255-.154.56-.093.829-.191l.303-.013c.299-.119.626.043.924-.093v.001c.082-.079.181-.12.294-.127.216-.021.421.05.63.082l.309.014c.282-.022.482.136.677.308.836.325 1.473.892 1.975 1.622.156.297.392.561.381.922.008.03.004.061-.014.091.072-.019-.005-.08.031-.113.025-.045.061-.068.11-.076.288.049.141.279.183.431.019.076.025.152-.011.226-.299.01-.172.237-.197.386 0 .051-.015.097-.044.139v.209c.022.022.029.044.022.067s-.014.034-.022.034l.005.108c.05.061.032.152.09.209-.002.034.001.067.012.1.123.296.308.579.191.924z" class="E"/><path d="M8.167 19.183c.027-.024.032-.053.017-.086.08-.095.008-.234.095-.327.029-.025.038-.056.027-.093-.061-.303.077-.53.283-.73l.026-.023-.012-.032c.005-.064.045-.107.086-.15l.002-.003c.175-.454.427-.831.951-.93.237.157.259.418.307.662.04.203.137.375.244.546a.86.86 0 0 1 .064.14c.628 1.743 2.018 2.667 3.633 3.307 2.103.834 4.163.534 6.171-.372 1.793-.809 2.97-2.826 2.91-4.97-.002-.102-.027-.204.002-.306.205-.189.383-.029.548.061.31.169.614.354.851.626l.165.158c.148.155.275.321.312.54-.172.838-.272 1.676-.01 2.516.026.133.049.265.106.39.062.184.15.369-.001.553-.122.087-.263.093-.404.098-.271.012-.545-.029-.811.052-.155.039-.313.044-.471.052-.148 0-.288.06-.436.064-.172-.021-.345-.064-.517.005-.106.016-.213.03-.316.062-.061.018-.123.031-.185.04a.86.86 0 0 0-.235.066l-.105.067c-.05.046-.09.099-.123.158l.419 3.179c.023.202.096.398.059.606-.509.632-1.225.815-1.98.911-.2-.3-.147.124-.255.09-.707.166-1.409.375-2.149.26-.265-.368-.747-.387-1.062-.038-.348.17-.726-.01-1.08.097-1.558-.26-2.968-.862-4.22-1.829-.648-.5-1.275-1.023-1.859-1.599-.171-.169-.342-.333-.45-.551-.065-.132-.144-.238-.317-.156-.325-.154-.299-.469-.345-.751 0-.119.19-.277-.073-.343-.078-.115-.09-.246-.101-.378.021-.414-.108-.847.151-1.231.025-.025.025-.05.002-.077.071-.1.013-.232.084-.332z" class="J"/><path d="M27.097 11.058c.571.473.635 1.096.497 1.763-.067.321-.007.555.274.75.311.216.528.522.726.845.355.578.342 1.149.044 1.744-.269.537-.678.935-1.18 1.244-.242.149-.419.325-.503.611-.1.344-.398.55-.655.77-.297.254-.621.475-.934.71-.107-.076-.136-.193-.142-.31-.037-.695-.371-1.327-.43-2.017.105-.439.408-.782.575-1.192.232-.57.356-1.135.047-1.722-.549-1.043-.529-2.021.354-2.891l-.001.002c.092-.235.34-.212.515-.31.034.001.068-.002.102-.008.204-.068.409-.071.613.002a.59.59 0 0 0 .098.007z" fill="#e0bfc2"/><path d="M9.926 47.166c-.37-.069-.754.029-1.12-.088l-.01-.015c-.031-.686-.069-1.373.302-1.998.083-.026.162-.019.233.034.154.469-.086.943.047 1.412a3.39 3.39 0 0 1 .093-.94c.04-.179.047-.415.297-.411.286.005.273.249.284.455-.127.489-.063.988-.076 1.483l-.049.069z" class="C"/><path d="M24.229 4.273c-.033-.156.074-.38-.204-.417-.265-.277.034-.682-.216-.958.001.004-.013-.036-.013-.036s-.04.011-.04.014c-.005.037-.021.062-.053.081a.2.2 0 0 1-.113.003.33.33 0 0 1-.095-.084c-.44-.77-1.1-1.246-1.95-1.471.013-.289.212-.21.381-.195.007 0 .021-.026.023-.041s-.009-.032-.013-.05c.026-.066.079-.097.143-.114.141-.023.224.059.294.163a.37.37 0 0 0 .093.013l.111.093a.32.32 0 0 0 .092.011.64.64 0 0 1 .115.101l-.001-.001.105.102.102.105-.001-.001c.094.084.239.097.304.222a.32.32 0 0 0 .022.09.32.32 0 0 0 .089.088L23.41 2a.63.63 0 0 0 .094.102l.001.001.1.105-.001-.001.103.106-.002-.002a1.08 1.08 0 0 1 .105.104l-.002-.001c.14.052.16.188.213.302l.001.004c.029.039.066.071.096.107l-.003-.001c.198.164.177.4.206.62l.001.815c-.028.034-.059.039-.094.011z" class="K"/><path d="M8.695 4.169c-.056-.266-.252-.566.172-.72.02-.007.035-.062.033-.093-.054-.77.763-.832 1.071-1.312.104-.161.314-.064.479-.038-.036.293-.338.313-.493.483-.472.31-.707.799-.972 1.269-.081.144-.054.373-.289.411z" class="C"/><path d="M8.693 10.436a.8.8 0 0 1-.099-.012.47.47 0 0 0-.01-.091c-.059-.056-.034-.153-.098-.207a.5.5 0 0 0-.013-.1c-.307-.13-.073-.43-.193-.619l-.009-.105c-.094-.125.015-.294-.091-.416l.001-.907c.151-.183-.105-.489.189-.629l.217-.147v.766c-.115.063-.105-.069-.159-.101.119.719-.001 1.48.373 2.156.225.206-.027.286-.108.412z" class="F"/><path d="M11.78 1.492l.412.002c.044.135.197.275-.019.397-.253-.067-.427.142-.649.185-.102.024-.21.113-.3-.024-.012-.038-.011-.076.001-.108-.047.048.007-.031-.041.023l-.754.336-.401.215c-.108.044-.123-.007-.102-.098l.521-.413c.031-.001.062-.004.093-.01.173-.35.558-.262.832-.402l.202-.018c.06-.046.149-.027.204-.086v.002z" fill="#cac4c4"/><path d="M24.429 10.02l-.413 1.131c-.424-.251-.014-.538-.034-.806.324-.644.257-1.346.297-2.032.005-.085-.017-.177.058-.246l.099.003c.036-.049.068-.046.097.007l.011.923c.048.067.048.134-.002.2l-.009.307c-.109.119.001.288-.091.411-.008.033-.012.067-.012.102z" fill="#c3c5c2"/><path d="M9.929 2.419l.102.098c-.425.366-.765.793-.979 1.319-.062.152-.107.322-.249.432-.033.047-.065.046-.095-.003l-.012-.096c.288-.569.534-1.167 1.03-1.602.063-.055.135-.099.203-.148z" fill="#cfcecc"/><path d="M20.006 1.075l-.305.003c0-.15.074-.306.208-.299.307.014.643-.231.922.083-.199.363-.576.039-.825.213z" class="C"/><path d="M20.005 1.075c.248-.174.566-.079.825-.213l.313-.005c.103-.05.204-.057.304.008l-.005.014c.06.049.065.111.042.179-.027.036-.063.057-.107.065-.118-.043-.239-.06-.363-.036l-.114.034c-.092.017-.197-.024-.276.057-.207-.032-.403-.133-.62-.102z" fill="#cfbfc1"/><path d="M22.374 1.168l-.298-.108c-.104-.068-.329.075-.321-.186.483-.197.563-.159.619.293zm1.948 2.279a1.17 1.17 0 0 1-.206-.62c.398.095.463.291.206.62z" class="C"/><path d="M8.708 4.265l.095.003c.003.273.011.554-.125.794-.057.1-.073-.036-.097-.077l.011-.303c.09-.086.014-.222.092-.311l.024-.106z" fill="#cccdcb"/><path d="M18.472 1.182a1.6 1.6 0 0 1-.829.191c.213-.338.549-.143.829-.191zM8.282 9.407c.173.172.058.435.193.619-.245.014-.335-.1-.274-.334l.081-.284z" class="C"/><path d="M21.754.875l.321.186-.11.112c-.199.086-.369.029-.524-.105l.001-.189.312-.004z" class="L"/><g class="C"><path d="M8.371 7.35c-.193.17.001.458-.189.629-.006-.359-.048-.725.195-1.037l-.006.408zm6.807-5.757c-.348.138-.697.157-1.046.002l1.046-.002zm9.051 2.68l.094-.01c.265.245.253.289-.104.41-.051-.069-.057-.136.005-.203l.005-.197zM19.7 1.077c-.293.174-.616.064-.924.093.293-.183.616-.058.924-.093z"/><path d="M8.49 6.427c.021.151-.034.283-.104.41-.218-.201-.197-.286.104-.41z"/></g><path d="M24.223 4.47l-.005.203h.003l-.092.104a.36.36 0 0 0-.013.092c-.028.042-.062.045-.099.013-.004-.068.007-.142-.014-.204-.08-.239.086-.203.22-.207z" class="K"/><g class="C"><path d="M24.531 8.077c-.032-.005-.064-.007-.097-.007l.007-.611c.168.186.064.411.089.618zm-.509-5.36c-.116-.069-.155-.192-.213-.302.308.02.312.027.213.302zm-.73-.904c-.135-.028-.242-.094-.304-.222.158-.003.312-.002.304.222zm1.136 5.441c-.133-.115-.094-.269-.093-.414.143.113.081.272.093.414zM8.18 8.886c.135.116.084.272.092.416-.143-.114-.081-.273-.092-.416zm16.26 1.033c.01-.142-.046-.298.091-.411-.012.141.049.298-.091.411zM8.683 4.371c.005.114.018.231-.092.311.001-.112-.023-.232.092-.311zM21.446.865l-.305-.008c.105-.12.206-.115.305.008zM8.279 18.771c.005.119.003.237-.095.327-.003-.119-.03-.245.095-.327zm-.111.412c.016.122-.005.235-.084.332-.005-.119-.033-.244.084-.332zM24.12 5.609c-.073-.051-.096-.124-.09-.209.079.049.091.126.09.209z"/><path d="M24.539 9.2l.002-.2c.096.068.095.134-.002.2zm-16.052.927c.079.047.1.122.098.207-.082-.046-.097-.123-.098-.207zm7.31-8.636c-.052.073-.125.092-.208.081.051-.075.128-.084.208-.081zm-1.966.087c-.087.01-.16-.013-.215-.085.085-.005.164.006.215.085zm-2.049-.088c-.048.076-.122.092-.204.086.048-.076.123-.088.204-.086zm11.62.501l-.089-.088.089.088zm.103.112l-.094-.102.094.102zm-.722-.717l-.115-.101.115.101zm1.236 3.495l.099-.012-.093.114c-.006-.034-.008-.068-.006-.102z"/><path d="M24.025 5.292a.28.28 0 0 1 0-.1c.013.024.028.047.036.072.001.005-.024.018-.036.028zM8.689 17.742c-.005.064-.027.118-.086.15.003-.065.03-.116.086-.15zm-.923-5.247l-.023.043-.019-.019.043-.024z"/></g><g class="B"><path d="M32.105 42.859c-.019.12-.034.233-.204.23l-2.535-.036c-.174-.12-.35-.341-.518.007l-1.324.018c-.611 0-1.223-.006-1.834.003l-2.65.035c-.95.002-1.904-.043-2.85-.016l-5.012.044c-.213-.208-.159-.478-.161-.728l-.007-7.094c0-.123-.034-.237-.057-.354a1.32 1.32 0 0 1 .011-.466l.142-3.053.051-2.908c.03-.135.077-.264.153-.381.415-.068.833-.095 1.224.093.268.129.509.198.752-.038.171-.166.305-.089.418.08.057.227.174.308.434.306.499-.005.987-.182 1.507-.015.247.079.453-.325.761-.326.046-.014.094-.024.141-.032.313.029.497-.25.767-.32.19-.049.349-.209.566-.154.078.052.165.061.257.053.096.057.125.152.146.252.041.329.127.649.19.973.055.695.646.631 1.092.771.952.12 1.895-.021 2.838-.099.31-.085.695-.05.779-.494.065-.216.093-.438.12-.661.056-.194.079-.393.101-.593.056-.215.087-.435.111-.656.009-.05.022-.098.038-.145.089-.208.116-.439.223-.641.239-.22.479-.152.719-.003.192.175.049.468.227.649.101.23.352.377.361.658-.048.085-.129.13-.212.173-.099.049-.195.1-.199.232-.127.57.294.805.658 1.071.177.129.38.212.58.3.331.155.701.241.961.526.295.302.413.777.887.905.087.048.176.092.255.155.123.131.052.252-.019.373l.063 4.611c.105 1.192-.075 2.393-.007 3.59.059 1.036-.078 2.074.052 3.108z"/><path d="M38.417 27.212c1.092.769 2.084 1.66 3.087 2.538l2.267 2.141c.595.658 1.173 1.333 1.674 2.069l.941 1.276c.568.858 1.012 1.772 1.228 2.792.056.262.039.509.016.756-.059.624-.091 1.254-.32 1.852-.2.522-.554.941-.882 1.374-.931 1.227-2.272 1.597-3.72 1.728-.315.029-.603-.088-.902-.153-.997-.216-1.912-.625-2.785-1.137l-1.619-.886a11.24 11.24 0 0 1-1.186-.801l-3.738-2.709c-.095-.072-.187-.152-.316-.154-.147-.111-.116-.275-.118-.425L31.938 32c.036-.61.194-.685.715-.352.356.228.588.571.832.898.19.254.402.477.697.58.236.082.423.246.469.441.154.653.735.985 1.058 1.505.066.498.576.626.829.978l.62.79c.216.141.36.363.549.523.908.767 1.552 1.796 2.536 2.497.337.24.657.363 1.038.413a2.72 2.72 0 0 1 .394.122c.287-.026-.019-.163.04-.231-.091-.363-.182-.723-.069-1.1.086-.287-.098-.424-.33-.468-.271-.052-.461-.2-.633-.394-.026-.041-.041-.086-.048-.134-.058-.363-.395-.543-.56-.84-.076-.137-.199-.263-.293-.401-.123-.363-.471-.491-.738-.705a.27.27 0 0 1-.067-.124c.237-.535.214-.587-.351-.872-.15-.075-.265-.216-.444-.236-.045-.018-.081-.047-.111-.085-.469-.584-.952-1.161-1.291-1.835-.084-.166-.23-.178-.36-.243-.107-.346-.525-.498-.56-.891.051-.346.224-.64.389-.94l1.773-3.232c.093-.179.171-.378.392-.448z"/></g><path d="M15.28 28.441l-.136 5.903c-.003.064-.04.126-.061.189-.131-.101-.126-.209-.031-.366-.17.335-.02.695-.18.998.119-.044-.037-.317.209-.245.12.209.041.433.05.651L15.174 39l-.031 3.89c0 .085.024.169.038.254-.014.268-.055.539-.034.805.024.298-.08.523-.279.724-.059.158-.113.319-.281.401l-.254.048-.062-.008c-.105-.041-.195-.028-.261.073-.03.034-.065.059-.104.078-.066.02-.132.019-.198.007-.13-.036-.261-.028-.392-.011-.094 0-.174-.042-.254-.085-.169-.089-.345.01-.516-.019-.122-.016-.192-.146-.322-.146l-.119.024c-.184.057-.399-.042-.564.111l-.062.029c-.044.016-.088.026-.134.033a.96.96 0 0 1-.205.005c-.154-.028-.31-.031-.465-.057l-.247.008c-.172-.014-.342.051-.515.008-.193-.069-.399.114-.587-.032a.4.4 0 0 0-.269.03c-.134-.017-.265.026-.398.027-.071-.001-.136-.019-.195-.061a4.36 4.36 0 0 1-.276-.392c-.123-.061-.154-.154-.144-.292.019-.271.016-.544.012-.816-.002-.165.049-.344-.089-.486-.231-.421-.243-.887-.244-1.346l.291-7.075.009-.154c-.051-2.126.16-4.24.273-6.358.153-1.476.016-2.954.035-4.431.004-.255-.021-.512.052-.762.076-.174.261-.212.261-.024-.002.97.802 1.314 1.389 1.782 1.388 1.105 2.88 2.043 4.66 2.407.264.054.547.111.676.406.095.297-.038.569-.087.851z" class="J"/><path d="M29.055 21.361c.221-.116.301-.42.604-.434.318-.014.606.085.886.207l1.11.53 1.448.745c.463.26.855.597 1.119 1.082.163.299.481.484.752.674.21.146.408.294.586.474.777.789 1.635 1.486 2.467 2.213.038.033.064.079.095.119.081.189-.027.335-.124.471-.917 1.3-1.688 2.689-2.495 4.056-.093.158-.164.346-.376.396-.143.01-.27-.042-.385-.115-1.462-.927-3.139-1.379-4.689-2.11a2.86 2.86 0 0 1-1.114-.71c-.17-.174-.351-.361-.25-.629s.366-.281.602-.314c.182-.026.364-.001.546.044-.495-.156-.888-.431-1.096-.926-.108-.206-.112-.401.057-.579.501-.35 1.059-.277 1.626-.21l-.763-.394c-.3-.177-.606-.348-.794-.66-.286-.556-.081-.888.602-.976.381-.049.743.122 1.216.08-.502-.235-.924-.457-1.296-.759-.181-.186-.375-.384-.24-.665.125-.259.392-.31.653-.319.621-.02 1.237.047 1.783.115-.462-.175-1.06.047-1.569-.272-.152-.122-.275-.27-.394-.423-.036-.056-.063-.118-.104-.171-.062-.084-.111-.177-.18-.255-.101-.089-.308-.076-.282-.288z" class="D"/><path d="M28.535 26.577c-.241.003-.486-.203-.725.011-.05.051-.118.09-.18.058-.244-.125-.246-.124-.395.12s-.196.587-.544.68c-.197-.078-.414-.113-.575-.268-.187-.337-.458.155-.664-.068-.168-.183-.297-.429-.587-.449-.096-.006-.193.076-.29 0-.041-.042-.068-.088-.029-.146l-.103.015c.045.051.04.103.008.158-.224.119-.204.385-.337.553-.114.146-.258.274-.456.311-.074-.004-.132-.041-.182-.092-.079-.131-.19-.151-.325-.09a.29.29 0 0 1-.2-.044c-.172-.164-.333-.299-.613-.296-.44.004-.327-.437-.459-.683a1.71 1.71 0 0 1-.092-.19c-.071-.32-.161-.64-.056-.97-.144-.769-.226-1.546-.312-2.323-.05-.453-.177-.899-.237-1.355-.021-.166-.034-.308.156-.376.046-.042.093-.043.142-.004a1.16 1.16 0 0 1 .119.115c.643.261 1.319.361 2.002.353 1.328-.015 2.663.119 3.981-.156.151-.031.307-.029.44.076.221.243.262.56.239.85-.029.36.021.7.084 1.045.212.25.064.519.033.777-.045.387-.127.769-.216 1.147-.091.387.033.589.438.6.124.015.249.03.348.119.048.063.043.129.007.194-.022.037-.049.071-.078.103l-.044.044c-.028.029-.058.056-.089.082l-.046.038c-.031.025-.066.044-.102.058l-.059.001z" fill="#fff"/><path d="M28.02 21.517c-1.465.312-2.951.237-4.433.241-.619.002-1.216-.157-1.819-.264-.117-.021-.379.025-.323-.259.38-.336.852-.329 1.315-.354l.799-.075.154-.044c.077-.025.157-.033.238-.035l.478-.001c.151.005.304-.014.452.026.139.143.28.169.422.001.145-.061.298-.059.451-.061.321-.008.64.028.959.049.288.073.589.033.879.096.154.046.315.078.438.195.151.093.357.094.457.268-.087.224-.337.09-.468.218z" fill="#6f7475"/><path d="M35.123 31.839c.436-.571.773-1.206 1.109-1.834.486-.904 1.096-1.724 1.63-2.594l.259-.441c.111.065.226.125.297.241l-2.162 3.922c-.122.223-.206.467-.307.701-.1.207-.059.516-.398.549-.221-.12-.443-.24-.427-.546z" fill="#d78254"/><path d="M32.032 31.848l.129 6.052.029 4.469c-.006.167.028.341-.084.49-.249-.097-.161-.314-.162-.487l-.029-5.548-.089-4.872c-.001-.168-.069-.336-.061-.502.006-.127.106-.095.179-.028.11.126-.013.299.088.427z" fill="#825818"/><path d="M28.625 26.064l-.304-.029c-.361-.067-.391-.115-.329-.473l.352-2.151c.195-.277.102-.62.214-.921.119-.318.145-.354.462-.207.242.113.461.295.757.202.024.044.023.085-.009.125-.32.115-.663.201-.731.615-.075.186.02.3.144.432.161.171.403.299.4.586-.272.142-.586.193-.838.379-.273.409-.227.59.265 1.039.036.032.064.07.086.113.008.048 0 .093-.022.136-.109.167-.309.068-.447.153z" fill="#b9832e"/><path d="M24.761 17.101c.031-.004.059.003.085.019.016.1.009.212.052.299.329.654.425 1.359.468 2.077l-.008.302c.172.281.149.551-.041.814-.065.068-.146.092-.237.085-.059-.01-.107-.039-.145-.085l-.096-.501c-.054-.097.045-.242-.097-.312-.228-.761-.332-1.524-.043-2.297.046-.124.043-.266.063-.4z" fill="#887174"/><path d="M25.258 20.61c.097-.263.098-.538.102-.812.222.132.477.172.72.238.608.165 1.154.484 1.743.693.034.058.022.106-.035.142-.368.013-.73-.05-1.094-.093-.172.022-.343-.001-.514-.016-.297-.116-.646.085-.922-.151z" fill="#b98633"/><path d="M14.588 45.073c.111-.121.012-.389.281-.401.171.109.171.31.163.457-.029.575.183 1.125.148 1.697-.01.173.099.453-.108.484-.213.032-.183-.267-.247-.429-.183-.471-.162-.967-.184-1.458-.005-.12-.009-.237-.053-.35z" fill="#eca22c"/><path d="M12.402 45.23c-.023.705.067 1.419-.128 2.153-.385-.409-.439-1.316-.176-2.267.01-.08.037-.152.095-.209v-.001c.185-.06.146.143.232.198.021.047.013.089-.025.125z" fill="#eca532"/><path d="M14.335 45.121l.011 1.543c.021.201.021.413-.089.597-.07.117-.154.114-.226-.009-.09-.154-.072-.329-.098-.496-.2-.305-.136-.645-.137-.977l.01-.152a1.6 1.6 0 0 1 .024-.227c.015-.077.057-.14.108-.197l-.008-.032c.114-.117.238-.184.396-.081l.008.032z" fill="#eca83b"/><path d="M13.32 45.208c.119-.174.249-.127.381-.018.1.14.149.295.132.468-.079.396.111.812-.095 1.198-.011.032-.014.064-.009.096-.091.086-.006.23-.104.313-.181.053-.275-.029-.309-.201-.09-.153-.091-.326-.119-.493l-.01-.687.002-.233a1.22 1.22 0 0 1 .007-.158c.01-.108.042-.208.124-.285z" fill="#e8a333"/><path d="M10.03 45.113c.16-.212.265.04.399.047-.165.378-.187.782-.192 1.182-.003.277-.022.543-.128.8h-.163c-.18-.506-.15-1.014-.016-1.522.121-.152-.03-.356.1-.506z" fill="#eaa536"/><path d="M10.675 45.152c.139-.173.282-.156.428-.01.069.367.094.732-.051 1.089h.001c-.029.023-.037.052-.028.088.008.029.014.043.021.043l.002.164c-.124.194.058.446-.12.63-.117-.01-.169-.073-.194-.191-.125-.602-.115-1.206-.059-1.813z" fill="#e9a535"/><path d="M11.688 45.644c.072.357-.02.713-.009 1.069.004.119-.022.274-.146.302-.186.042-.186-.154-.243-.266-.015-.029-.016-.066-.024-.099-.08-.396-.191-.791-.025-1.192a1.41 1.41 0 0 1 .225-.357v-.013c.035-.017.071-.02.109-.009.049.032.065.092.111.126l-.002-.002c.002.147.072.294.003.441z" fill="#eda431"/><path d="M13.136 47.167l-.018.201c-.012.07-.048.13-.126.136-.104.008-.165-.067-.166-.151-.003-.549-.125-1.104.076-1.644.113.053.171.158.239.254a.56.56 0 0 1 .059.133c.013.074.015.148.016.223l.003.462c.022.139-.033.261-.082.384z" fill="#eda839"/><path d="M11.383 45.412c-.148.402-.115.822-.118 1.238-.174-.087-.044-.33-.214-.419-.016-.365-.104-.733.051-1.089l.283-.022c.04.098.041.195-.003.291z" fill="#f2f3db"/><path d="M13.105 46.034a.35.35 0 0 1-.204-.324c-.024-.064-.067-.128-.068-.193-.004-.314-.161-.384-.433-.287l-.011-.117c.021-.043.05-.051.088-.02.111.017.22.048.312-.06.17-.201.234-.028.309.094a.87.87 0 0 1 .115.488c-.012.146.039.309-.109.419z" fill="#d69f37"/><path d="M29.056 21.361c.06.107.132.171.267.113.066-.028.119.01.138.082-.091.086.021.239-.103.313-.112-.032-.224-.09-.337-.092-.296-.006-.307-.196-.296-.411-.026-.057-.018-.108.025-.154.12.012.212.08.305.149z" fill="#ba823e"/><path d="M13.738 46.856v-1.34c.05-.053.075-.15.182-.098l.005.207c-.019.018-.027.038-.024.059s.007.033.012.033l.02 1.039-.195.101z" fill="#f9edca"/><path d="M29.358 21.87c.02-.109-.012-.236.103-.313l.118.293c.029.039.057.079.095.111l.316.405c-.023.121-.037.251-.216.21.003-.03.003-.06.003-.09-.084-.243-.32-.383-.419-.616z" fill="#8c624b"/><path d="M28.85 43.059c.023-.081.037-.165.071-.241.04-.086.069-.236.182-.2.09.029.265.109.136.291-.008.011.083.093.128.142-.172.042-.345.032-.518.007z" fill="#ed8a2d"/><path d="M11.571 45.114l-.106-.026c.068-.1.168-.08.265-.07.168.017.325-.005.463-.111.005.087-.031.154-.096.209-.135-.016-.271-.023-.404.016-.045.02-.085.013-.122-.017z" fill="#a78627"/><path d="M11.687 45.644c-.02-.147-.118-.293-.003-.441.144.146.092.294.003.441z" class="M"/><path d="M27.818 20.824c.011-.031.013-.063.004-.095.236.04.236.04.213.209-.031.03-.068.04-.109.024-.059-.027-.097-.072-.107-.138z" fill="#dbcea5"/><path d="M27.928 20.931l.108.007a.82.82 0 0 0-.004.094c-.158.015-.312.003-.453-.081.111-.104.229-.085.349-.02z" fill="#e4dcda"/><path d="M28.749 21.213l-.025.154c-.052-.037-.085-.089-.065-.15s.058-.049.09-.004z" fill="#cdac6b"/><path d="M11.571 45.114l.122.017c.005.025.002.05-.008.073l-.114-.091z" class="M"/><g fill="#b8822c"><path d="M8.393 28.254c.071.614-.019 1.225-.057 1.835l-.153 3.64c.005 1.043-.116 2.079-.191 3.118l-.076 1.999-.04 2.508c-.027.603.13 1.192.092 1.792-.31-.002-.62.079-.931.008l.213-2.833a.78.78 0 0 1 .098-.341c.102-.177.14-.343-.015-.516-.114-.127-.1-.295-.071-.442.155-.786.065-1.592.202-2.377.122-.695.083-1.393.101-2.091.003-.118.028-.236.049-.352.057-.315.105-.62.064-.952-.064-.525.026-1.052.209-1.553.055-.149.088-.281.052-.444-.089-.397-.063-.79-.031-1.201l.201-2.418c-.005-.39-.024-.824.265-1.165.114.429.07.868.033 1.297-.014.164.019.326-.012.487z"/><path d="M8.394 28.254c-.042-.108-.136-.209-.092-.333.169-.477.007-.969.072-1.45.037-.501-.258-.912-.379-1.37l-.593-2.52c-.064-.385-.191-.761-.158-1.159.234-.219.531-.337.802-.496.044.108.025.239.121.328.076.05.065.115.029.183.057.294.073.603.28.848.179.193.175.395.029.604l-.031 4.565c-.002.269-.008.538-.08.8z"/></g><path d="M6.434 38.83l.003-7.246.006-.462c.003-.088.027-.18.131-.188s.144.073.15.166l.013.308-.027 5.078c.016.755-.094 1.496-.088 2.246-.049.062-.079.157-.19.099z" fill="#855b18"/><path d="M6.522 29.968c-.071-.808-.004-1.615.001-2.422l.017-3.222c.049-.061.078-.159.19-.099l-.008 6.064c-.361.077-.23-.153-.2-.321z" fill="#845a18"/><path d="M6.434 38.831l.19-.099c.065.485.047.971.027 1.459l-.014 2.099c-.002.158.063.34-.127.485-.118-.089-.086-.213-.084-.317l.039-3.376c.007-.082-.02-.168-.031-.252z" fill="#7c5517"/><path d="M6.732 24.225l-.19.099v-1.863c.294.329.166.698.18 1.051-.054.203-.07.405.011.605l-.001.108z" fill="#905f19"/><path d="M6.523 29.968c.018.138-.015.307.2.321.004.159.073.335-.133.466-.195-.258-.21-.513-.067-.787z" fill="#926419"/><path d="M6.731 24.117c-.155-.199-.145-.401-.011-.605l.011.605z" fill="#845a18"/><path d="M6.637 22.006c.055.014.079.055.077.106-.002.072-.034.134-.115.11-.028-.009-.046-.081-.05-.126-.004-.052.026-.092.088-.09z" fill="#a0681d"/><path d="M23.92 11.459c.184.306.402.592.511.941.24.766.046 1.707-.558 2.146-.354.257-.722.518-1.194.518l-.323.056c-.047-.001-.092-.011-.135-.03-.105-.063-.185-.15-.249-.254-.225-.413-.258-.88-.367-1.325-.126-.194-.389-.255-.475-.488l-.116-.07c-.123-.06-.253-.111-.349-.209a.51.51 0 0 0-.633-.134c-.29.111-.613.085-.747-.3-.007-.033-.011-.067-.014-.101-.02-.186-.016-.388-.25-.452-.112-.031-.202.027-.261.117-.138.207-.095.385.101.531.136.109.399.088.374.362-.053.136-.162.218-.281.29-.092.039-.187.03-.281.013-.031-.002-.056.01-.073.039-.005.033-.005.065.002.098a.38.38 0 0 1 .004.115l-.016.062c-.271.496-.164 1.035-.182 1.56l-.362.732c-.067.087-.141.168-.197.263a1.16 1.16 0 0 1-.073.113 1.51 1.51 0 0 1-.136.159c-.238.27-.551.405-.89.496-1.03.105-1.838-.469-2.229-1.579-.003-.664-.384-1.214-.551-1.829.008-.123.124-.183.173-.293-.134-.004-.231.101-.357.104-.753-.106-1.499-.244-2.253.051-.289.113-.42.25-.492.555-.082.347.008.829-.515.95-.223.026.013.129-.028.185.045.163.099.326-.013.485-.309.061-.453-.121-.551-.371-.157-.154.145-.39-.096-.531-.073-.076-.108-.168-.119-.271.099-.674.158-1.35.129-2.032.057-.114.144-.172.276-.146a1.97 1.97 0 0 0 .188.795c.235-.147.226-.351.226-.553l.008-1.685c.12-.889.089-1.787.166-2.679.033-.38.171-.673.456-.929.561-.505 1.156-.95 1.873-1.21.32-.169.659-.131.997-.085.066-.02.134-.029.203-.02.042.011.083.026.122.045.076.041.162.045.244.066a1.27 1.27 0 0 1 .123.039c.085.029.171.048.258.071l.14.042c.611.243 1.258.293 1.902.356.052.022.092.058.12.108-.391.428-.885.387-1.389.307-.185-.029-.361-.083-.528-.167-.498-.17-.956-.432-1.441-.633l1.409.63c.717.281 1.42.39 2.074-.157.55-.263 1.101-.522 1.719-.583a13.25 13.25 0 0 0 1.567.212c.7.053 1.183.378 1.499.987.052.108.106.215.104.34-.024 1.619.24 3.236.033 4.857-.006.05-.014.102-.007.151.014.094.075.163.168.161.074-.001.107-.072.108-.148l.011-.822c.007-.539.169-.655.686-.484.145.048.286.111.428.168.173.026.232.178.325.293z" class="D"/><path d="M10.124 11.983l-.2.101c-.173.035-.179-.112-.213-.21-.051-.151-.107-.282-.301-.26-.737.23-.957.533-1.001 1.377-.056.529.299.842.615 1.176.088.112.146.269.34.217.188-.043.374-.07.542.059.05.023.186-.004.129.082-.085.129.014.23-.007.341-.17.252-.398.154-.619.103l-.097-.008c-.096-.133-.251-.168-.388-.234-.647-.314-.944-.829-.97-1.549-.031-.852.257-1.53.945-2.035a1.66 1.66 0 0 1 .651-.274c.283-.049.36.02.375.317.006.119.013.24-.002.357-.025.194.083.317.201.441z" fill="#f89a69"/><path d="M13.113 5.806c-.685.31-1.305.71-1.86 1.224-.257.238-.389.478-.41.828l-.214 2.56c-.004.043-.054.082-.083.123l.003-3.286c.292-.713.814-1.186 1.52-1.473.187-.076.378-.149.538-.278.155.103.332.095.506.103.064.067.06.133-.001.199z" fill="#d68459"/><path d="M22.061 6.941c-.2-.107-.341-.284-.487-.447-.221-.246-.498-.339-.81-.377l-1.661-.218c-.045-.006-.085-.052-.127-.079.092-.139.247-.163.388-.211l.146-.039c.267-.041.532-.101.805-.079.505.025.906.312 1.336.524.08.096.129.212.208.308.1.195.225.383.204.618z" fill="#d68357"/><path d="M16.152 4.653c-.623.256-1.19.013-1.762-.19-.434-.154-.824-.402-1.259-.558-.625-.224-.736-.203-1.09.331-.073.111-.169.207-.195.348-.099-.698.513-1.205 1.156-.99.388.13.735.349 1.106.516.654.296 1.316.513 2.044.542z" fill="#c8cbc9"/><path d="M18.977 2.722c-.311.32-.688.545-1.082.743l-.546.268c-.408.242-1.084.115-1.409-.235-.014-.015.007-.061.016-.124.236.003.428.164.667.183.651.051 1.141-.292 1.643-.605.225-.14.439-.258.71-.23h0z" class="N"/><path d="M20.455 3.331c.696-.097 1.242.174 1.597.697.244.36.467.796.307 1.297-.232-1.053-.853-1.711-1.904-1.994z" fill="#cdcecc"/><path d="M12.608 5.504c-.003.142-.102.203-.211.256l-.546.268c-.399.199-.757.448-.965.859-.079.156-.183.282-.336.368-.031-.096-.288-.166-.047-.293.144-.076.044-.318.251-.333.127-.241.391-.37.509-.619.205-.264.459-.425.808-.412.184.007.346-.132.538-.095z" fill="#bbaaa2"/><path d="M19.391 5.701a.85.85 0 0 1-.417.118c-.555.182-1.116.346-1.643.606-.059-.052-.123-.095-.204-.106l-.104-.001c-.062-.068-.06-.142-.019-.219.171-.146.396-.091.587-.16.367-.087.75-.125 1.074-.347.542-.142 1.085-.277 1.646-.101l-.827.203c-.034-.031-.066-.027-.095.007z" fill="#c7aba0"/><path d="M21.699 2.865c.942.044 1.676 1.394 1.556 2.338-.147.001-.147-.112-.159-.21-.057-.463-.188-.893-.471-1.278-.124-.169-.25-.313-.429-.425-.152-.096-.277-.234-.497-.425z" fill="#c9cac8"/><path d="M23.586 6.896c.178.32.378.619.238 1.007-.055.151-.009.339-.01.509-.005.527-.112.877-.471 1.492-.018-.402.198-.683.235-.997.04-.337.008-.683.035-1.022.026-.331-.091-.654-.026-.99z" fill="#c5c6c5"/><path d="M21.549 1.391c1.006.082 1.642.662 2.064 1.532.022.095-.009.138-.11.11l-.783-.858c-.327-.329-.733-.539-1.166-.697-.03-.018-.041-.036-.032-.056s.018-.03.028-.03z" fill="#f7f7f6"/><path d="M14.349 5.604l2.674.211c.033.054.025.101-.024.141-.3.159-.635.043-.945.121a.62.62 0 0 1-.159.006c-.156-.021-.308-.069-.467-.073-.15-.05-.319-.017-.462-.1l.004.002c-.083-.097-.228-.013-.313-.106l.005.003c-.085-.097-.229-.014-.316-.105l.005.004-.042-.051.04-.053z" fill="#d18860"/><path d="M8.801 10.024c-.025.066-.059.219-.124.044-.16-.426-.262-.873-.289-1.329-.018-.319-.004-.639-.004-.965.147.001.099.174.203.196-.062.699.139 1.37.213 2.054z" class="G"/><path d="M23.195 9.511c-.145-.234-.144-.503-.088-.744.154-.672-.002-1.304-.175-1.94-.017-.064-.057-.125-.012-.192.422.526.523 1.578.275 2.875h0z" class="F"/><path d="M17.283 2.16c-.466.225-.931.314-1.39.234-.372-.064-.741-.072-1.2-.09.303-.302.58-.046.826-.086.282-.046.577-.018.866-.009s.553-.195.897-.049z" fill="#c2c3c1"/><path d="M9.779 7.475c.085.759-.144 1.49-.095 2.235-.327-.764-.026-1.502.095-2.235z" fill="#c6c7c7"/><path d="M12.188 2.516c-.565.335-1.058.761-1.542 1.204.306-.499.661-.941 1.206-1.195.117-.054.222-.075.335-.01z" fill="#c4c7c5"/><path d="M23.503 3.033l.11-.11.099.004-.002.002.001-.207h0c.301.229.526.476.281.886-.034.056.021.164.034.248l-.006.101c-.035.046-.07.047-.106.002-.062-.342-.274-.618-.412-.927z" class="O"/><path d="M24.322 8.28c.051.73-.006 1.45-.213 2.154-.055.036-.101.027-.138-.027-.074-.138-.052-.265.043-.383.097-.149.099-.316.11-.487l.107-1.258c.03-.05.061-.048.091 0z" fill="#eaeae7"/><path d="M17.023 5.909v-.094c.563.037 1.102-.104 1.645-.223.061.027.224.062.051.125-.348.126-.7.254-1.073.298-.212-.008-.437.059-.623-.106z" fill="#d3916a"/><path d="M9.205 7.145l-.028 1.582c-.274-.502-.238-1.134.028-1.582h0zm14.81 2.879l.004.413c-.098.176 0 .47-.314.515-.068-.011-.177-.044-.156-.095.082-.203-.014-.449.155-.628.126-.012.092-.193.218-.205h.093z" fill="#c1c5c2"/><path d="M13.113 5.805l.001-.199c.191-.141.424-.235.616-.086.211.163.448-.163.619.084-.046.064-.148.029-.196.099-.349.009-.705-.063-1.039.102z" fill="#d78f63"/><path d="M23.704 10.952c.199-.114.149-.38.314-.515l.091-.004-.163.462c-.035.101-.035.192.069.256l-.095.307c-.131-.072-.245-.164-.325-.293.084-.047.109-.124.109-.213z" fill="#e3e2dd"/><path d="M9.97 9.492c.25.39-.068.697.11.979-.184-.243-.184-.243-.11-.979z" fill="#c1b1a7"/><path d="M11.263 1.898a.49.49 0 0 1-.004.1c-.039.05-.077.101-.129.138a.48.48 0 0 1-.111.061l-.063.006c-.177-.008-.265.159-.412.208l-.112-.109c.221-.251.501-.381.832-.403l-.001-.001z" fill="#e9f6f2"/><path d="M11.054 2.098c.046-.078.122-.096.204-.1.067.12.144.012.216.009a.26.26 0 0 1 .099.099c-.149.185-.376.226-.582.269-.143.03-.034-.109-.037-.172l-.005.003c.036-.034.111-.032.104-.108z" class="P"/><path d="M17.13 4.622c-.256.004-.484.219-.82.09.291-.22.56-.118.82-.09z" fill="#c8cbc9"/><path d="M11.263 6.011c-.013.335-.314.434-.509.619.042-.311.297-.447.509-.619z" fill="#c98f70"/><path d="M23.92 10.024l-.11.268c-.01.023-.034.04-.051.059l-.057-.123.153-.64c.119.143.035.297.065.435z" fill="#e5e8e5"/><path d="M19.492 2.414c-.109.207-.302.275-.514.308h0c.058-.293.29-.294.514-.309h.001z" class="N"/><path d="M12.189 2.516c.143-.271.322-.225.517 0h-.517z" fill="#c4c7c5"/><path d="M11.574 2.106l-.099-.099.381-.146c.113-.047.223-.104.318.029l-.087.011-.109.097-.403.109z" fill="#ededeb"/><path d="M24.322 8.28l-.046-.001-.046.001v-.821c.132.267.075.445.104.609l-.013.213z" fill="#d9dcd9"/><path d="M9.939 3.042a.28.28 0 0 1 .2-.21c.016.086.13.174.021.256-.071.054-.148-.026-.221-.046z" fill="#cfcbc9"/><path d="M23.913 3.96l.106-.002c.031.104.139.191.065.321-.223-.018-.146-.197-.171-.32z" class="K"/><path d="M23.195 9.511v.498c-.109-.172-.155-.34 0-.498h0z" class="F"/><path d="M21.858 6.324c-.135-.059-.201-.163-.208-.308.143.053.208.159.208.308z" fill="#c1a18f"/><path d="M9.206 7.146v-.336c.163.149.097.244 0 .336h0z" fill="#c1c5c2"/><path d="M20.933 1.077l.001.099-.309.002c.073-.123.195-.097.308-.101z" class="L"/><path d="M19.492 2.413c.023-.045.092-.098.102-.074.049.117-.066.048-.101.075h-.001z" class="N"/><path d="M14.293 3.477c-.007-.011-.021-.022-.02-.032.002-.038.022-.049.046-.025.008.007.009.028.005.039s-.02.013-.031.019z" fill="#d2d4d1"/><path d="M8.796 10.638c-.083-.042-.103-.116-.104-.201.081.043.1.118.104.201z" class="F"/><path d="M10.141 2.828l.097-.099-.097.099z" fill="#cfcbc9"/><path d="M8.504 22.889l-.029-.604.037-.284c.197.106.333.224.381.414a.56.56 0 0 0 .231.33c.356.238.614.581.928.863a16.09 16.09 0 0 0 1.987 1.503c.339.22.71.438 1.11.588l2.131.682c.214.38.212.758-.016 1.132-.56-.26-1.185-.302-1.757-.527-.812-.32-1.561-.75-2.308-1.202-.72-.436-1.331-1.001-2.008-1.486-.348-.249-.744-.565-.605-1.124a.28.28 0 0 0-.082-.283zm14.49-7.096c.099.182.147.357.114.582-.065.436-.016.878-.095 1.324-.132.743-.491 1.343-.986 1.872-.478.512-.976 1.005-1.528 1.442-.225.178-.487.256-.741.34-.71.235-1.393.569-2.143.665-.697.089-1.399.078-2.097.005-.559-.059-1.1-.218-1.627-.407-.675-.241-1.307-.567-1.881-1.009-.355-.273-.664-.588-.989-.891-.466-.435-.735-.974-.883-1.584a.19.19 0 0 1 .126-.022 2.42 2.42 0 0 1 .435.154.57.57 0 0 1 .112.077c.117.115.153.278.243.409.441.603.937 1.152 1.54 1.599.494.486 1.135.677 1.768.883l.4.132c.153.056.317.063.475.1.091.023.181.049.277.054l.148.002.234-.005.91-.005c.354-.003.71.024 1.056-.076.785-.157 1.508-.455 2.143-.95.348-.25.674-.526.955-.851.031-.027.066-.052.1-.075l.092-.071.043-.036.079-.073.038-.036.073-.071c-.001 0 .037-.034.036-.035l.069-.071c-.001-.001.032-.037.031-.038.028-.042.05-.086.073-.132a.58.58 0 0 1 .056-.089l.06-.092.024-.052c.029-.078.046-.16.072-.239l.546-1.661.202-.849c.06-.241.192-.345.438-.229l.003.01z" fill="#0a0b0b"/><path d="M15.264 27.512l.016-1.132c.046-.095.103-.171.229-.143.297.065.598.03.898.033.307-.185.616-.205.925-.006.774.05 1.52-.123 2.266-.29.063-.062.131-.062.201-.014.693-.135 1.33-.409 1.931-.772.05.319.143.632.141.958.085.204.055.366-.161.468-.186.088-.361.217-.562.25-1.229.204-2.45.491-3.706.465-.494-.01-.989-.08-1.481-.14-.184-.022-.39-.106-.435.19-.027.256.047.531-.145.755-.006.111.013.231-.1.307l-.017-.929z" fill="#b6832c"/><path d="M10.681 18.341c-.152-.049-.319-.058-.448-.168.034-.07.078-.083.134-.023-.046-.091-.159-.022-.215-.09-.222-.106-.303-.307-.323-.529-.022-.255-.108-.486-.212-.714l.101-.098.202-.216c.043-.035.087-.037.135-.011.201.619.548 1.188.626 1.849z" fill="#151010"/><path d="M17.332 26.264c-.308.044-.617.015-.925.006l-.216-.23c.499-.059.946-.126 1.401-.019-.014.199-.208.133-.26.242z" fill="#0a0909"/><path d="M22.783 20.919c-.455.066-.904.156-1.337.315l-.003-.082c-.026-.024-.034-.047-.023-.069s.021-.031.031-.031c.021-.026.048-.035.08-.026.068-.046.156-.034.225-.078l.161-.032c.112-.053.246-.006.354-.078.171-.078.345-.038.519-.016.03.024.039.046.027.067s-.023.029-.035.029z" fill="#c7d7d1"/><path d="M22.783 20.919l.008-.096.401-.066c.141.061.313-.042.441.083-.273.145-.564.084-.851.079z" fill="#e6bec2"/><path d="M23.711 20.71c.271-.139.555-.093.838-.058.014.048 0 .086-.043.113-.045.007-.091.009-.137.009h-.41c-.069 0-.138.001-.206-.01l-.042-.055z" fill="#6f7475"/><path d="M24.743 19.798c.09.015.216-.032.252.087.034.115-.123.134-.154.225-.106-.081-.102-.197-.098-.312z" fill="#705c61"/><path d="M24.542 20.731c.009-.026.011-.052.006-.078l.387-.041c.03.018.063.025.098.02.043.05.037.094-.016.133-.159.005-.321.047-.475-.033z" fill="#a3e0db"/><path d="M23.633 20.84c-.146-.034-.308.022-.441-.083l.518-.047-.003.043-.002.069c-.022.014-.047.02-.073.018z" fill="#a7e2e1"/><path d="M8.196 21.438l-.029-.183c.049-.08.115-.088.152-.005.048.107-.051.145-.123.188z" fill="#0f0c0c"/><path d="M19.799 25.96l-.201.014c.029-.071.058-.153.154-.133.023.005.032.078.047.119z" fill="#0e0b0c"/><path d="M10.152 18.061l.049-.01c.065-.01.162-.036.177.034s-.085.074-.146.088l-.094-.042.013-.07z" fill="#894f3c"/><path d="M22.273 20.839c-.098.118-.227.091-.354.078a.51.51 0 0 1 .354-.078zm-.517.11c-.056.08-.137.088-.225.078a.34.34 0 0 1 .225-.078zm-.305.104l-.008.099-.107-.018c.022-.05.056-.083.115-.081z" fill="#a7d0c9"/><path d="M24.327 16.636l.089.078-.089-.078z" fill="#281a1b"/><path d="M22.655 16.116c-.063.267-.089.544-.2.799-.273.001-.277-.194-.261-.381l.052-.446c.017-.161.054-.322.029-.486-.007-.046-.011-.092-.014-.138s-.003-.094 0-.141c.006-.097.037-.185.107-.255.102-.133.205-.133.31-.004.053.198-.157.446.114.602-.181.109-.192.269-.138.45z" fill="#d0afa0"/><path d="M22.655 16.116c-.061-.183-.138-.37.138-.45.075.024.152.044.198.116-.243-.021-.299.147-.336.334z" fill="#543e3e"/><path d="M8.189 44.74c.226-.001.29.142.297.336.234.302.13.626.006.915-.093.216-.149.437-.213.658-.027.043-.061.084-.078.13-.038.105-.091.193-.219.159-.096-.025-.114-.117-.123-.204a.47.47 0 0 1-.003-.051c-.006-.668.155-1.307.333-1.943z" fill="#e9a12d"/><path d="M8.699 45.117c.141-.142.257-.104.358.048-.107.63-.081 1.277-.261 1.897-.21.021-.263-.113-.257-.281.007-.184.014-.366-.034-.546-.048-.392-.009-.77.194-1.119z" fill="#eaa83b"/><path d="M8.698 45.117l-.194 1.119c-.189.075-.055.329-.228.413-.012-.535.236-1.036.208-1.573l.214.042z" fill="#f3f3d6"/><path d="M10.023 16.52l-.104-.017c.112-.428-.175-.836-.067-1.267.022-.088-.075-.144-.166-.163-.098-.021-.209-.009-.278-.105.209-.015.427.019.619-.103.038.301.238.405.511.42.027.042.025.083-.005.123-.331.13-.196.381-.156.607.022.063.034.128.031.195-.007.043-.023.083-.047.119-.034.014-.046.03-.036.046s.022.025.034.026c.011.044.007.085-.012.126-.111.167-.217.062-.323-.006z" fill="#e4bba6"/><path d="M9.717 16.72l-.098.093c0-.065.036-.092.098-.093z" class="J"/><path d="M10.03 45.113c-.026.17.065.364-.1.506l-.004-.102c0-.13.051-.299-.162-.298-.171 0-.15.146-.159.264l-.086 1.116c-.01.117.007.241-.065.346-.063.091-.138.093-.197.001-.077-.12-.071-.265-.064-.397.024-.472-.016-.951.131-1.413l.705-.023z" fill="#ebaa40"/><path d="M23.709 2.722c-.046-.023-.098-.096-.075-.104.12-.047.048.068.075.105h0z" class="O"/><path d="M11.263 1.899c.02-.048.091-.1.102-.075.048.117-.063.052-.102.074l.001.001z" fill="#e1f4ee"/><path d="M21.347 1.067l-.414.009c.135-.15.273-.139.414-.009z" class="L"/><path d="M32.032 31.848c-.14-.12-.079-.28-.088-.427.102-.069.097-.136-.003-.202a.31.31 0 0 1-.059-.369c.108-.137.221-.057.31.013.443.348.949.628 1.326 1.046.56.62 1.283 1.056 1.81 1.717.327.41.764.742 1 1.222.26.526.816.771 1.111 1.255.086.14.254.244.193.448-.165.161-.311.106-.447-.04a.22.22 0 0 1-.025-.132c.08-.101-.06-.056-.068-.099-.544-.308-1.085-.62-1.45-1.152-.186-.167-.408-.299-.461-.581-.017-.094-.122-.207-.213-.199-.283.024-.311-.164-.289-.346.042-.349-.219-.533-.41-.717-.075-.072-.328.013-.386-.212-.494-.086-.467-.697-.875-.87-.076-.327-.383-.412-.613-.571s-.268-.133-.362.216z" fill="#d29026"/><path d="M15.38 28.134l.004-.816c.282.066.483.375.82.271.35.01.716-.08 1.022.192.09.08.228.082.343.041.533-.189 1.074-.064 1.613-.054.288.005.59-.124.843-.105.539.042.829-.29 1.19-.548.157-.113.339-.163.52-.033.044.029.01.088.042.125-.001-.032.014-.057.049-.077.084-.053.167-.078.255-.014.145.235.164.468-.011.697-.03.067-.064.09-.11.012-.338-.207-.586.21-.904.134l-.101.086c-.14.104-.325.143-.435.293h-.102c-.678.087-1.353.173-2.041.141-.259-.012-.499-.05-.736-.141-.092-.017-.115-.24-.275-.07-.294.313-.472.34-.82.128-.149-.091-.304-.226-.465-.149-.277.132-.48.003-.699-.114z" fill="#dc9524"/><path d="M22.371 29.059c-.106-.335-.186-.675-.197-1.028.387-.013.773-.036 1.139.142.416.201.807-.122 1.218-.08.147.001.238.124.366.168.112.047.265.09.336.018.264-.269.436-.063.628.085a.82.82 0 0 1 .163.142c.056.081.113.162.047.265-.253-.112-.201.48-.543.243-.026-.018-.076.4-.307.496-.043.014-.089.019-.134.013-.058-.007-.109-.072-.175-.019h-.066a.34.34 0 0 1-.114-.072c-.113-.109-.14-.302-.371-.032-.262.306-.697.135-1.047.033-.16-.047-.311-.166-.479-.096-.299.126-.387-.058-.465-.279z" fill="#e4e4e2"/><path d="M27.507 38.828c-.228.28-.287.653-.519.934-.285.344-.57.683-1.02.819-.139.067-.271.101-.348-.085.098-.367.473-.465.704-.702s.42-.466.545-.777c.347-.864.569-1.743.512-2.682-.038-.629.03-1.258.021-1.888-.002-.177-.005-.402.289-.371.225.245.111.547.139.825.025.253-.041.512.042.762.009.875.044 1.75-.138 2.616-.043.204-.076.398-.228.55z" fill="#382b1a"/><path d="M24.533 28.133c-.161.222-.429.078-.634.176-.08.038-.153.029-.219.128-.098.146-.22.152-.242-.069-.017-.169-.107-.131-.204-.078-.028.016-.052.041-.078.062-.059-.254-.179-.252-.395-.142-.141.073-.295-.176-.484-.079-.014.007-.068-.065-.104-.1-.044-.068-.02-.169-.103-.219-.01-.244.03-.495-.102-.721-.127-.106-.135-.251-.132-.4.034-.139.058-.281.122-.411.184.131.054.36.162.516.055.08.075.168.224.132.326-.079.468.017.646.38.223.368.322.403.925.407.286.002.658-.084.618.418z" fill="#f4f4f1"/><path d="M21.339 32.448c1.208-.152 2.424-.082 3.636-.123l2.441-.088c.235.028.303.142.183.355-.255.167-.549.177-.834.185-1.103.032-2.206.053-3.309-.029-.525-.101-1.057-.019-1.583-.055-.201-.014-.466.073-.534-.245z" fill="#40301c"/><path d="M21.653 39.449c-.361-.518-.499-1.124-.588-1.726-.106-.722-.173-1.451-.074-2.191.072-.538.044-1.089.061-1.634a.14.14 0 0 1 .168.019c.213.225.163.51.17.778.025.921-.04 1.842.1 2.762.094.613.347 1.176.47 1.777-.036.166-.082.318-.307.215z" fill="#372a18"/><path d="M35.125 31.839c.102.198.329.295.411.509a.25.25 0 0 1-.127.074c-.135.015-.242-.045-.342-.124-.651-.575-1.465-.875-2.207-1.296-.104-.053-.216-.078-.328-.105-.203-.056-.384-.175-.597-.202-.095-.017-.186-.05-.278-.079-.298-.114-.593-.234-.841-.443-.291-.213-.631-.33-.95-.491.046-.092.152-.055.219-.102 1.696.716 3.473 1.251 5.039 2.257z" fill="#875235"/><path d="M27.507 38.828c.007-.414.192-.791.25-1.198.094-.665.089-1.326.053-1.991-.013-.032-.032-.064-.031-.096a9.11 9.11 0 0 0-.168-2.121c-.051-.263-.079-.543.054-.802l.06-.068c.059-.011.147-.071.165.016.015.073-.049.159-.06.242-.054.401-.013.473.35.657-.021.124-.193.078-.189.095.063.273-.119.538-.054.789.125.489-.01.964-.005 1.445l-.006.511c-.002.114.02.177.163.195.183.023.159.133.052.247-.285.3-.295.575-.044.861.055.063.239.075.137.21-.118.155-.192-.06-.296-.068-.015-.001-.031.007-.081.018.083.235-.006.475.055.729.075.31-.024.368-.404.328z" class="B"/><path d="M22.369 29.059c.122.164.236.293.479.161.164-.089.313-.035.5.089.248.165.596.144.908.086.044-.008.116-.049.086-.095-.11-.171-.001-.211.129-.233s.233.014.27.166c.02.082.065.158.099.236a.09.09 0 0 1-.001.124 1.44 1.44 0 0 1-1.35.297c-.221.012-.424-.072-.63-.132-.345-.101-.538-.317-.489-.699z" fill="#d1d2cb"/><path d="M26.693 27.411c.202-.165.329-.404.395-.627.079-.27.45-.306.428-.629-.003-.042.117-.016.155.048.052.088-.014.153-.046.23-.093.223.1.129.184.155.021.234-.078.432-.186.627-.095-.086-.115-.192-.083-.312.018-.04.052-.07.076-.106-.036 0-.027.05-.059.054-.206.163-.037.255.067.36.008.245.011.49-.102.718-.082.048-.099.119-.103.212-.011.219-.147.341-.359.353-.157.008-.32-.04-.398-.184-.103-.188-.078-.354.155-.448.047-.019-.025-.083-.038-.128-.033-.048.044-.095 0-.143.002.039-.019.052-.065.038-.08-.065-.089-.138-.022-.217z" fill="#f9f9f6"/><path d="M21.652 39.449c.138-.004.203-.078.209-.213.173-.016.222.133.303.234.538.664 1.218.988 2.086.984.468-.002.941-.131 1.409.004.067.135.193.118.311.122-.158.167-.386.132-.574.16-.657.1-1.324.098-1.983.015-.822-.103-1.389-.581-1.761-1.307z" fill="#402c1b"/><path d="M26.796 27.618c.041.1.12.16.208.216.064.04.093.102.047.171s-.097.055-.168.016c-.198-.111-.201.052-.172.159.054.203.259.235.408.2.092-.021.287-.11.174-.34-.08-.162-.039-.182.232-.11.005.213.003.424-.112.615-.252.445-.605.215-.933.141-.08.096-.081.275-.247.274-.115-.001-.151-.104-.157-.21l-.103-.206-.003-.069c-.09-.337.354-.491.277-.822.005-.186-.518-.31-.069-.549.129.174.441.042.515.308.001.085.019.162.102.206h0z" class="H"/><path d="M30.084 29.582c-.05.082-.134.092-.218.102-.445-.104-.764-.411-1.106-.681-.286-.226-.227-.537-.21-.838.099-.19.315-.169.469-.258.055-.012.115-.061.157.021-.01-.07-.101-.056-.12-.117-.139-.199-.327-.364-.417-.597-.011-.172.064-.185.19-.102.288.606.892.775 1.54 1.007-.246.164-.405.119-.563.079-.251-.063-.503-.09-.756-.014-.334.1-.401.291-.167.555.272.308.585.571.97.734l.231.109z" fill="#845034"/><path d="M17.639 28.338c.192.005.393-.071.571.062.18-.192.351-.129.534.004.035.025.127-.019.19-.042a.83.83 0 0 1 .592-.003c.075.028.176.1.228.003.213-.397.44-.08.662-.025-.149.168-.487.059-.541.394-.018.114-.189.037-.267.002-.254-.112-.476-.119-.768-.061-.326.066-.692.052-1.041.073-.233.014-.267-.081-.128-.264.019-.025-.02-.095-.032-.144z" fill="#e49922"/><path d="M23.49 29.89l.553-.014c.19-.016.382.012.436-.289.04-.226.235-.052.362-.014.068.001.065-.075.108-.101h-.001c.033-.03.065-.031.098 0h0c.363-.168.739-.089 1.112-.06.33-.076.354.131.342.371-.27.197-.599.11-.891.142-.62.069-1.252.033-1.879.039-.087.001-.169-.016-.239-.074z" fill="#c2bfb7"/><path d="M26.498 29.783c-.058-.016-.176-.006-.142-.089.152-.366-.078-.146-.179-.123-.113-.166.001-.24.129-.294.136-.057.28-.093.408-.17.254-.162.431-.036.589.159.003.254-.119.397-.371.435l-.434.082z" fill="#cac6c0"/><path d="M27.304 29.266c-.182.024-.3-.256-.508-.106-.201-.12-.236-.374-.412-.514.23-.298.261-.291.525.149.161-.088.297-.257.503-.251.012.248-.036.486-.108.722z" fill="#e7e4e0"/><path d="M30.815 30.174c.339.01.588.27.91.329.133.205.171.41-.002.615-.292-.09-.556-.2-.632-.549-.035-.158-.302-.177-.276-.394z" fill="#db9523"/><path d="M20.933 27.823c.043-.056.1-.097.168-.065.201.095.371.067.551-.069.15-.115.281-.082.309.135-.338.067-.673.154-.924.404-.16.159-.342.087-.516.11-.013-.185.04-.309.255-.318.053-.003.105-.061.157-.093.027-.023.036-.046.027-.069s-.018-.034-.027-.034z" fill="#e49922"/><path d="M21.338 32.448c.113.147.274.103.421.104l1.316.008c.148.002.307-.037.432.087-.468.301-.989.109-1.483.155-.27.026-.559-.023-.674.317-.072.121-.12.271-.305.258l.003-.542c.017-.18.053-.366.291-.388z" fill="#78511d"/><path d="M27.624 32.559c.012-.159-.072-.257-.207-.322.053-.091.175-.087.244-.142-.08-.213-.294-.105-.395-.218a.18.18 0 0 1-.029-.138c.011-.053.076-.079.117-.05.235.161.469.32.758.372.068.012.051.078.036.125-.028.089-.085.156-.185.121-.259-.088-.235.087-.236.243l-.015.015-.047.027-.042-.034z" class="B"/><path d="M15.081 34.919c-.136.057-.085.208-.225.406.016-.485-.024-.862.073-1.341.185.227.103.405.154.549.027.129.038.258-.002.386z" fill="#070708"/><path d="M28.827 27.112c-.083-.002-.15.023-.19.102-.223-.181-.142-.412-.104-.637l-.001.007c.049-.023.083-.06.103-.11v-.002c.038-.019.079-.024.12-.017.059.031.098.076.109.143-.132.163-.127.335-.037.514z" fill="#9e643f"/><path d="M31.724 31.118l.002-.615.214.098c.06.069.064.138.003.208v.41c-.093.009-.17-.014-.218-.102z" fill="#916519"/><path d="M21.043 33.378l.183-.202c.182.257.258.505-.062.718l-.115.003c-.023-.173-.038-.346-.007-.519z" fill="#5d411a"/><path d="M29.067 27.931l-.518.233c-.011-.222.134-.247.304-.241.074-.057.145-.056.214.008z" fill="#f59156"/><path d="M15.584 42.783c.02.018.054.035.056.055.004.056-.035.082-.085.066-.018-.006-.037-.05-.033-.073s.04-.032.062-.047z" fill="#eba93a"/><path d="M29.067 27.931l-.214-.008c.042-.083.123-.098.203-.112.045.019.128.041.127.057-.004.059-.065.061-.115.063z" fill="#f49d61"/><path d="M15.617 32.928c-.012.005-.026.016-.036.013-.039-.01-.043-.032-.01-.052.009-.005.028 0 .038.007s.005.021.008.032z" fill="#e77642"/><path d="M31.942 30.81l-.003-.209c.238-.025.417.123.618.208.087.095.229.012.318.098.687.306 1.348.659 1.986 1.057.116.072.217.162.28.287.476.985 1.138 1.835 1.898 2.614l2.841 3.35 1.694 1.91c.088.098.202.195.133.356-.148.01-.281-.036-.409-.105-.6-.298-1.062-.787-1.529-1.234-.81-.776-1.598-1.59-2.172-2.574-.226-.376-.453-.756-.848-.978-.321-.181-.411-.528-.588-.802-.217-.333-.479-.618-.751-.893-.239-.242-.52-.442-.667-.763-.045-.1-.124-.16-.217-.206a2.44 2.44 0 0 1-.868-.694c-.317-.412-.757-.677-1.163-.977-.192-.142-.336-.341-.555-.445z" fill="#b8822c"/><path d="M35.442 32.355l.094-.007c.247-.083.222-.385.414-.513.005.102.027.225.118.258.27.101.289.361.398.565.359.176.361.595.587.875l1.059 1.286h0c.467.292.811.678.926 1.234h0c.269.223.592.388.757.719.263.469.481.967.889 1.339a1.55 1.55 0 0 1 .413 1.254c-.091.023-.179.002-.235-.066-.467-.562-1.042-1.037-1.39-1.697.028-.276-.018-.485-.351-.557-.212-.046-.282-.335-.514-.388-.628-.581-1.118-1.284-1.689-1.916-.432-.529-.911-1.023-1.269-1.607-.141-.23-.404-.449-.205-.777zm2.155 4.212c.405.219.577.654.869.976l1.498 1.648c.084.083.169.178.273.226.279.13.499.302.656.581.086.153.267.253.405.378-.392 0-.774-.024-1.018-.401-.691-.259-1.041-.897-1.531-1.378-.228-.224-.296-.646-.739-.61-.029-.184-.21-.253-.295-.388-.174-.276-.406-.495-.633-.721-.034-.186-.24-.405.103-.515.078.188.236.216.413.205z" fill="#d49026"/><path d="M36.982 34.705c.564.54 1.03 1.165 1.537 1.755.033.038.071.072.106.108.332.322.741.577.92 1.036l1.546 1.745c.384.145.564.471.723.816l.134.202c.056.083.124.192.021.256-.129.08-.194-.056-.264-.141-.277-.389-.619-.724-.937-1.076l-3.58-4.129c-.087-.102-.144-.23-.215-.346-.052-.077-.062-.152.008-.224z" fill="#7d5518"/><path d="M41.815 40.164l-.723-.816c-.02-.171-.063-.346-.171-.473-.099-.116-.278-.164-.038-.326.114-.077-.018-.139-.086-.171-.121-.058-.202-.124-.116-.267.243.127.413.383.752.349.103-.011.229.183.342.285.164.148.007.268-.024.407-.048.216-.063.446-.004.664.031.116.069.227.066.348z" fill="#e19823"/><path d="M38.11 34.819c-.367-.353-.785-.633-1.071-1.098-.214-.347-.375-.713-.574-1.063.26-.042.447.049.458.325.013.337.317.458.471.688.061.092.188.149.221.267.078.279.209.515.475.659.107.058.046.144.021.22z" class="Q"/><path d="M37.184 36.362c-.172.144-.077.342-.103.515-.045-.017-.115-.022-.132-.054-.037-.072-.021-.198-.073-.232-.413-.271-.539-.862-1.086-.975-.108-.022-.068-.082-.076-.144-.015-.116-.048-.23-.073-.344.145.079.304.131.403.285.141.219.266.486.614.369.116.225.395.269.526.478.023.023.031.045.023.068s-.015.034-.023.034z" fill="#dd9624"/><path d="M39.036 36.053c-.248-.457-.619-.821-.926-1.234.142.001.305-.127.417.061.076.127.142.209.304.084.059-.046.168.054.179.139.029.233.216.33.376.424-.076.235-.337.295-.35.525z" class="Q"/><path d="M40.683 38.111c-.138-.059-.23-.197-.394-.217-.108-.013-.227-.107-.209-.189.084-.385-.313-.589-.323-.931.034-.044.069-.043.103-.001.164.09.141.399.431.357.063-.009.038.105.04.169.008.18.071.345.264.386.37.08.195.256.088.425z" fill="#e19823"/><path d="M39.859 36.773h-.103c-.224-.256-.545-.415-.72-.721.373.128.709.296.823.72z" class="Q"/><path d="M13.135 45.517c-.01-.13-.115-.252-.034-.39l.218.08-.001.31c-.062.06-.123.062-.183 0z" fill="#eadea7"/><path d="M14.324 45.089l-.396.081c.003-.102.002-.215.122-.249.14-.039.212.063.274.167z" fill="#957b27"/><path d="M13.919 45.418l-.182.098c-.01-.109-.117-.207-.037-.327l.237.012-.018.216z" fill="#eaf5d5"/><path d="M12.479 45.093c-.028.011-.058.017-.088.02l-.197-.207c.156-.081.156-.081.286.187z" fill="#a78627"/><path d="M11.383 45.412l.003-.291c.023-.022.049-.029.079-.019.003.112.024.228-.082.311z" class="M"/><path d="M8.764 31.038c-.011.002-.027.01-.032.006s-.017-.024-.014-.034c.01-.039.032-.043.052-.01.005.008-.004.025-.006.039z" fill="#30332e"/><path d="M28.654 24.532c.291-.158.591-.29.927-.321.076-.087.178-.076.278-.078-.088-.022-.177-.037-.257-.087-.173-.107-.364-.202-.245-.463.047-.025.092-.022.134.011.435.267.876.523 1.342.733.066.03.126.083.113.152-.02.11-.111.107-.201.085-.267-.066-.546-.022-.814-.1-.199-.059-.41-.045-.611.006-.517.132-.594.303-.369.792.099.134.034.2-.099.239-.424-.364-.451-.494-.198-.97z" fill="#824f37"/><path d="M29.49 23.596l-.135.014c-.362.089-.404-.142-.408-.409.13-.401.38-.643.826-.624l.216-.21c.326.169.678.199 1.038.22.391.022.78.087 1.195.136-.096.224-.229.168-.335.172-.614.021-1.215-.155-1.83-.125-.169.008-.345-.003-.506.041-.376.104-.428.263-.218.583.047.071.103.135.155.203z" fill="#87523a"/><path d="M28.864 26.598l-.129-.133c-.024-.031-.023-.062.001-.093l.002-.001.115-.051c.081-.031.151-.08.215-.14.111-.118.369-.038.382-.287.069-.089.151-.083.238-.031l.94.375c.06.024.127.071.088.152-.019.039-.072.084-.112.086-.169.009-.35.042-.505-.005-.437-.133-.833 0-1.236.129z" fill="#905940"/><path d="M29.689 25.862c-.082.007-.163.016-.219.089-.02.039-.051.063-.095.071-.066-.001-.12-.028-.166-.072-.057-.057-.092-.132-.151-.187l.003.003c-.088-.09-.269-.114-.215-.305.084-.04.103-.113.103-.197.208.247.498.393.739.598z" fill="#975e41"/><path d="M21.958 26.28l-.005.411c-.688.489-1.5.601-2.299.737-.354.06-.699.127-1.038.247-.39.137-.789.218-1.153-.083-.098-.081-.2-.131-.327-.081-.301.118-.636.089-.936.209a.69.69 0 0 1-.817-.403c-.017-.221-.036-.39.309-.328.665.119 1.339.169 2.017.201.326.016.597-.161.923-.1.313.059.643.024.957-.099.368-.144.769-.157 1.152-.181s.669-.245 1.007-.352c.142-.045.098-.201.122-.313l.088.134z" fill="#c68928"/><path d="M26.179 27.104c-.135.111-.117.204.014.314.069.058.248.022.192.2-.078.065-.167.085-.265.069a.7.7 0 0 1-.345-.255c-.027.102-.008.245-.146.313-.048.007-.093-.002-.136-.026-.184-.183-.38-.286-.626-.106-.07.051-.169.101-.236.053-.253-.185-.484-.146-.742-.003-.093.052-.279.075-.279-.149l.392-.304c.055-.041.127-.097.101-.156-.13-.298.079-.355.281-.431.029-.011.032-.089.048-.136h.102c.027.063.067.149.133.133.332-.084.631-.029.76.267.115.265.302.194.385.107.238-.252.291-.07.368.112z" fill="#f9f9f8"/><path d="M23.608 27.514c.155.13.274.079.416-.045.182-.159.338-.127.533.06.079.076.122.095.238.002.348-.278.507-.226.767.19a.21.21 0 0 1-.116.059c-.156.025-.315-.146-.468.011-.132.143-.09.322-.104.488l-.033.059c-.16.018-.201-.142-.308-.205-.089-.322-.339-.335-.604-.306-.376.041-.747.084-.976-.325-.023-.041-.177.125-.154-.066.013-.102.104-.119.191-.128l.204-.001c.137-.063.176.159.309.105l.104.102z" class="G"/><path d="M23.504 27.412c-.046.087-.095.191-.208.17-.163-.031.026-.216-.102-.275.037-.077.084-.165.178-.141.113.03.125.143.132.246z" fill="#f4f4f1"/><path d="M29.38 25.964c.03-.007.061-.011.091-.014.034.075.337.151.006.224-.141.031-.287.037-.418.108-.049.048-.11.048-.172.039l-.041-.046.099-.116c.08-.21.295-.119.435-.195z" fill="#efa571"/><path d="M29.38 25.964c-.098.169-.293.123-.435.196-.082-.114-.212-.07-.321-.096.12-.119.316-.074.432-.202.071-.055.139-.049.207.007l.117.096z" fill="#e7f3e2"/><g class="B"><path d="M28.635 26.475c-.011.058-.046.094-.103.109.011-.058.046-.094.103-.109z"/><path d="M28.737 26.372c.004.031.003.062-.001.093 0 0-.05.008-.05.008l-.051-.001c.011-.057.046-.09.102-.1z"/></g><path d="M24.533 26.486l.024-.043.019.019-.043.024zm-.103 0l-.043-.024.019-.019.024.043z" fill="#f9f9f8"/><path d="M28.84 26.375l-.05.001-.05-.005.106-.095.001.047-.007.052z" class="B"/><path d="M25.039 20.718a.12.12 0 0 0-.004-.087l.224-.022c.304.056.626-.06.922.088-.087.138-.226.051-.338.077-.193.031-.401-.067-.584.063-.011.109.021.258-.135.275-.204.022-.161-.156-.183-.275.006-.061.07-.076.098-.119z" fill="#a08d8f"/><path d="M27.927 20.931l-.348.02c-.3-.015-.607.025-.887-.126-.034-.016-.046-.033-.035-.051s.022-.027.033-.027c.383-.068.751.077 1.13.076l.108.107z" fill="#e2e4d8"/><path d="M26.689 20.747l.002.078c-.307.098-.612.003-.918-.011-.037-.017-.05-.036-.039-.055s.023-.03.035-.03l.409-.031.51.049z" fill="#f4f8f6"/><path d="M25.769 20.729l.004.085-.516.023c-.047-.092.016-.107.082-.108h.43z" fill="#edcccd"/><path d="M25.038 20.718l-.098.119-.514-.027.002-.068.115-.011.495-.013z" fill="#e4d3d4"/><path d="M24.428 20.742l-.002.067-.511.002.002-.057c.17.002.339-.066.511-.012z" fill="#faf4f3"/><path d="M23.918 20.755l-.002.057-.209.011c.004-.023.004-.046.002-.069l.209.001z" fill="#e8f7f6"/><path d="M28.948 23.2c.11.162.15.395.408.409.057.355.445.332.65.582-.148.056-.287.036-.425.02-.254-.14-.377-.417-.616-.58-.149-.101-.18-.281-.017-.432z" fill="#eb975f"/><g fill="#dc9357"><path d="M28.847 25.461l.215.305c-.424-.107-.585-.418-.624-.817-.018-.181.026-.338.216-.416-.165.357-.099.666.194.928z"/><path d="M29.263 25.868l-.207-.007.003-.1c.086.001.163.019.204.107z"/></g><path d="M13.913 45.717c-.008-.023-.018-.045-.021-.069-.001-.006.022-.016.033-.024.011.033.007.063-.012.092z" fill="#eaf5d5"/><path d="M13.135 45.517h.183l-.002.105c-.058.064-.059.13-.011.2l.003.833-.175.097-.005-.519c.046-.061.04-.128.024-.197l-.046-.003.028-.516z" fill="#f2daa7"/><path d="M13.304 45.822c-.094-.072-.085-.138.011-.2l-.011.2z" fill="#eadea7"/><path d="M18.875 13.01c.107-.063.148-.223.308-.206.354-.346.622-.165.868.14.034.038-.06.115.026.128.064.009-.02.023 0-.043.054-.147.149-.245.312-.262.076.046.147.022.216-.018a.56.56 0 0 0 .531.158c.156.193.15.506.443.598l.297 1.423c.097.383-.213.638-.309.949-.133.432-.495.416-.748.606-.364-.222-.777-.295-1.181-.403-.537-.144-.88-.484-.945-1.059-.051-.444-.384-.835-.241-1.319.039-.131.067-.261.157-.368.135-.07.26-.149.265-.326z" fill="#f57f6f"/><path d="M10.541 15.366c-.002-.027-.003-.055-.002-.081-.143-.116-.091-.276-.099-.423.072-.069.019-.139.001-.209 0-.062-.117-.199.047-.164.221.048.293.048.302-.222.011-.315.202-.61.173-.944-.01-.115.064-.179.182-.205l1.286-.298c.376-.07.732.115 1.102.144.101.008.2.03.301.046.033.091-.022.137-.09.176-.324.093-.639.047-.957-.043-.453-.129-.839.034-1.191.306-.126.097-.231.233-.219.39.042.52-.071 1.042.022 1.561.056.319.311.485.537.651.202.148.372.293.382.558.355-.131.654-.295.973-.416.454-.171.957-1.023.914-1.5-.011-.121-.023-.251-.126-.325-.273-.193-.274-.49-.321-.772a.26.26 0 0 1-.06-.111c.016-.143.1-.236.224-.3.046-.007.085.005.119.037.058.249.124.488.316.682.161.164.215.382.199.615-.013.189-.005.376.103.543-.134.094.004.248-.077.353-.109.145-.14.336-.278.464-.284.214-.441.51-.563.835-.063.166-.072.381-.299.439-.196-.086-.325-.037-.485.128-.4.416-.706.431-1.183.129-.071-.044-.131-.168-.205-.131-.225.113-.404-.126-.614-.056-.068-.291-.238-.544-.325-.817-.04-.126-.182-.364.042-.552.18-.151-.041-.11-.104-.131-.3-.099-.165-.228-.028-.36z" fill="#f68c6c"/><path d="M9.346 14.5c-.229.077-.315-.048-.351-.246.006-.139-.089-.221-.182-.292-.267-.202-.46-.495-.348-.79.119-.315.505-.29.807-.323.068-.007.126.05.196.051-.311-.161-.598.048-.898.061-.404-.371-.062-.661.113-.96.162-.276.522-.297.724-.527.257-.026.417.064.417.347 0 .1.007.198.1.264 0 .034-.007.07.001.102.182.698.001 1.377-.104 2.06-.116.164-.396.022-.476.254z" fill="#d58255"/><path d="M20.83 16.404c.316.003.056-.279.169-.364.16-.052.225.172.411.092-.061-.258-.081-.527.284-.598.052-.01.107-.048.089-.102-.117-.354.08-.766-.197-1.089-.072-.085-.115-.172-.047-.274.123-.181-.017-.364.01-.544-.028-.097.004-.133.103-.103.214.458.242.97.412 1.442a.58.58 0 0 0 .203.203l.101.002v.308c-.026.024-.034.048-.024.07s.019.034.028.034c.002.034.002.068-.001.101-.103.409-.43.726-.468 1.167-.013.155-.153.261-.305.322-.047.007-.092-.003-.131-.026-.015-.008-.027-.025-.047-.028.029.015.053.037.072.069.031.078.023.15-.013.222-.473.3-.961.128-1.403-.034-.319-.117-.167-.461-.107-.721.239-.318.574-.083.857-.147z" class="I"/><path d="M12.492 10.336c-.068-.001-.137.005-.204-.005-.231-.033-.244-.173-.118-.319.644-.751 1.222-1.061 2.239-.872.151.028.299.06.451.067.128.196.375.236.522.407l-.005.105c-.128.112-.275.11-.431.076-.9-.191-1.699.075-2.455.54z" fill="#b6b6b4"/><path d="M17.852 9.824c-.114-.459.338-.482.543-.585.887-.447 2.193.008 2.727.89.016.027.011.067.016.1-.286.07-.533-.056-.78-.163-.67-.293-1.352-.426-2.073-.205-.142.043-.299.09-.433-.037z" fill="#b7b6b4"/><path d="M16.201 14.344c-.117.046-.228.179-.377.012.089-.171.258-.182.42-.225.429-.114.854-.241 1.217-.514.12-.09.298-.161.253-.344-.041-.169-.226-.204-.372-.23-.201-.036-.408-.032-.612-.047-.587-.043-.787-.322-.703-.935.055-.403.113-.81.257-1.197.082-.222.13-.46.321-.625.17.199.083.418.05.633-.036.237-.143.454-.186.688-.166.902-.006 1.128.866 1.233.274.086.622.114.668.468.05.38-.308.5-.559.657-.35.218-.73.371-1.145.422-.034-.033-.066-.031-.097.005z" fill="#935433"/><path d="M20.828 16.404c-.11.143-.268.092-.411.103s-.302-.04-.411.103c-.056.061-.123.063-.195.038-.152-.146-.19-.483-.529-.316-.143-.007-.173-.118-.208-.225-.021-.06-.044-.12-.076-.175-.063-.089-.14-.166-.202-.255-.094-.16-.241-.259-.401-.342-.119-.109-.076-.236-.037-.362-.131-.609-.182-1.21.208-1.757.089-.022.128.007.103.102-.153.367-.233.736.005 1.099.096.148.078.324.11.48.147.716.523 1.162 1.225 1.154.323-.004.483.124.685.282.039.031.09.048.135.072z" fill="#f68a6c"/><path d="M17.333 12.792l-.356.011c-.572-.014-.674-.172-.69-.73-.015-.509.201-.954.279-1.433.022-.134.047-.265.038-.401.403.239.494.437.397.922l-.221.986c-.111.494-.111.492.375.563.062.009.119.054.178.082z" fill="#c87c56"/><path d="M18.06 7.162c-.005.093.052.157.134.261-.276.036-.5.139-.785.108-.22-.024-.466-.011-.702.015-.558.062-1.112-.084-1.671-.096-.133-.003-.219-.083-.281-.194.21-.119.43-.019.582-.055-.177-.056-.436.056-.673-.05.324-.218.686-.066 1.029-.103.613.081 1.225.199 1.838 0l.227.003c.079.095.234-.014.302.111z" fill="#d98557"/><path d="M22.674 14.232l.008-.597c.017-.213-.049-.386-.187-.54.209-.114.398-.288.653-.273s.556.056.671.303c.124.266-.021.531-.22.737-.13.134-.296.233-.399.396-.048.075-.122.092-.203.093-.118-.012-.248.009-.324-.119z" fill="#d48155"/><path d="M22.589 12.916c-.027-.422-.004-.84.101-1.252.582-.144 1.302.492 1.208 1.068-.026.159-.116.267-.277.207-.346-.129-.686-.094-1.032-.023z" fill="#d78557"/><path d="M22.589 12.916c.294-.273.623-.163.951-.091.249.054.303-.001.257-.234-.107-.536-.505-.868-1.108-.926-.028-.018-.038-.039-.032-.061s.014-.035.022-.035c.119-.151.264-.118.413-.06.583.227.888.664.932 1.276.054.742-.202 1.183-.823 1.473-.07-.055-.058-.116-.001-.168l.306-.267c.19-.17.26-.401.252-.637-.005-.139-.579-.288-.783-.218-.157.054-.293.182-.479.127l.093-.178z" fill="#9c5837"/><path d="M17.852 9.823c.17-.01.348.027.505-.057.57-.305 1.134-.126 1.687.034.375.108.73.284 1.095.429a.36.36 0 0 1-.491.126c-.092-.043-.197-.059-.286-.107-.707-.384-1.453-.435-2.224-.26-.161.036-.271.031-.286-.164z" fill="#a39892"/><path d="M14.363 7.984l2.665-.02c.582.007 1.152-.148 1.734-.102.11.009.231-.045.337.052-.106.143-.257.151-.411.152l-2.603.114c-.544-.018-1.081-.153-1.629-.101-.105.04-.122-.005-.093-.095z" fill="#a45b3a"/><path d="M20.009 13.117c-.252-.409-.334-.44-.826-.314 0-.289-.311-.14-.41-.29.17-.168.381-.226.612-.231.199.265.486.363.689.179.21-.19.355-.157.499.039s.379.268.564.406c-.266.282-.265.281-.523-.082-.014-.02-.064-.013-.098-.019-.032.034-.065.033-.097-.001a.63.63 0 0 0-.311.307c-.032.027-.066.028-.101.005z" class="I"/><path d="M12.491 10.335c.693-.654 1.522-.831 2.435-.677.15.025.297.059.45.061.02.254-.097.345-.338.28-.325-.088-.645-.134-.992-.096a3.4 3.4 0 0 0-1.023.267c-.168.074-.353.111-.531.165z" fill="#a49b93"/><path d="M14.547 15.376c.046-.101-.166-.295.112-.313.339 1.076 1.031 1.571 2.139 1.528l.076.018c.1.038.212.068.142.218-1.086.426-2.478-.392-2.468-1.45z" fill="#935433"/><path d="M19.386 12.282c-.128.278-.386.212-.612.231-.216-.179-.337-.391-.192-.668.093-.175.237-.297.453-.261.188.031.3.156.328.342.018.117.016.237.023.356z" fill="#0f0c0c"/><path d="M14.266 12.102c-.008.32-.091.406-.384.402-.261-.004-.46-.194-.454-.435.007-.268.243-.508.482-.489s.364.202.356.521z" fill="#0c0b0b"/><g fill="#d8a991"><path d="M17.128 6.319c.166-.153.184-.021.204.106-.699.47-1.421.476-2.16.103-.035-.023-.046-.045-.035-.067s.024-.033.036-.033l.681.17c.458.075.902.05 1.275-.279z"/><path d="M14.964 5.91l.516.005c.12.109.293-.008.413.098l.097.004c.349-.004.698-.007 1.035.106l-.001.196c-.72.03-1.417-.05-2.06-.408z"/></g><path d="M17.53 7.048c-.08.193-.25.18-.42.2-.43.051-.853-.125-1.286-.025-.098.023-.125-.087-.132-.174l1.336.006c.097.062.196.055.296.006l.206-.013z" fill="#bb5c3b"/><path d="M15.174 6.428l-.001.1c-.501-.187-1.004-.368-1.444-.692.538.055.967.385 1.445.592z" fill="#e5a583"/><path d="M16.797 16.59c.306-.121.594-.273.832-.508.077.022.119.078.14.153-.081.322-.298.48-.618.514-.088-.084-.214-.078-.316-.128l-.038-.031z" class="R"/><path d="M13.731 13.112l.103-.103c.138-.052.223-.205.39-.201.067.002.139.004.173.067.038.069-.003.134-.057.171-.095.066-.199.118-.299.176l-.105-.004c-.119.063-.209.069-.205-.107z" fill="#df8458"/><path d="M18.357 14.973c.066.095.058.197.027.301.044.206-.03.371-.179.509a.27.27 0 0 1-.133.038c-.045-.016-.083-.042-.113-.079l-.021-.067c.17-.216.108-.57.419-.701z" fill="#9a5536"/><path d="M18.67 13.318l-.103-.102c-.031-.038-.066-.071-.102-.103l.001-.104.102-.1.309.101c.007.015.016.029.021.045.031.097.21.155.087.29-.109.12-.21.005-.313-.028z" fill="#f28163"/><path d="M21.652 13.421l-.103.103c-.393-.035-.298-.396-.412-.617.09.046.246.083.235.172-.029.251.137.229.284.254.01.002.022.03.021.044s-.017.029-.026.043z" class="I"/><path d="M9.345 14.5c-.041-.158.003-.258.182-.259l.293.004.084.196-.56.058z" fill="#975333"/><path d="M22.674 14.232c.118.011.248-.01.324.119l-.006.002c-.044.022-.072.063-.111.092-.066.004-.132.016-.196.009-.085-.01-.226.06-.234-.083-.007-.122.131-.117.223-.139z" fill="#a15637"/><path d="M15.381 9.614c-.236-.057-.437-.157-.522-.407l.452.221c.067.036.164.08.07.186z" fill="#dca78f"/><path d="M14.664 7.151h.704c-.195.139-.41.074-.613.105l-.091-.105z" fill="#aa6f46"/><path d="M17.755 15.898c.015-.113.108-.161.184-.224l.03.032.074.072.041.031c.057.175-.022.266-.187.305-.119-.025-.088-.148-.142-.216z" class="R"/><path d="M18.059 7.162c-.104-.027-.234.015-.302-.111l.557-.016c.065-.001.082.044.039.092-.02.022-.061.026-.092.039-.038.017-.075.017-.111-.003l-.046-.006-.046.005z" fill="#9b5432"/><path d="M15.745 14.928c.131-.07.232.033.404.085a.46.46 0 0 1-.341.036c-.049-.012-.073-.054-.064-.121z" fill="#f8a173"/><path d="M14.363 7.984l.093.095c-.11.144-.267.083-.408.095-.033-.022-.044-.044-.034-.067s.021-.034.033-.034c.1-.05.194-.116.316-.089z" fill="#c47d53"/><path d="M20.68 7.559a.09.09 0 0 1-.096.084c-.069-.002-.134-.029-.111-.111.008-.029.074-.053.116-.058.053-.007.086.03.092.086z" fill="#f08c5d"/><path d="M15.313 14.96c.026-.093.102-.12.185-.127.013-.001.047.049.042.066-.024.085-.077.146-.175.131-.02-.003-.035-.045-.052-.07z" fill="#f8a173"/><path d="M15.477 15.416c.02.018.055.035.056.055.005.057-.035.084-.086.068-.018-.006-.037-.051-.033-.075s.04-.032.063-.048z" fill="#efaf90"/><path d="M15.448 10.34c-.021.018-.042.052-.062.051-.056-.001-.08-.042-.058-.092.008-.019.055-.036.078-.029s.029.045.043.07z" fill="#d87c52"/><path d="M10.441 14.652c.068.036.156.065.126.165-.008.025-.083.03-.127.044-.01-.07-.113-.14.001-.209z" fill="#f7a87f"/><path d="M14.047 8.073a.75.75 0 0 0 .001.101c-.077-.01-.219.026-.216-.04.005-.103.109-.154.215-.061z" fill="#dca68c"/><path d="M16.674 9.309c-.018.02-.035.055-.056.056-.056.004-.084-.035-.066-.086.006-.019.051-.038.074-.033s.032.041.048.063z" fill="#de8054"/><path d="M16.072 9.728c-.017.038-.047.049-.076.02-.02-.02-.029-.052-.043-.079.028-.007.063-.028.082-.018s.025.051.037.078z" fill="#d17b4f"/><path d="M17.324 7.061c-.101.111-.2.109-.296-.006l.296.006z" fill="#b95939"/><path d="M16.043 15.472l-.076-.048c.027-.013.054-.039.08-.038s.05.028.076.044l-.081.041z" fill="#ecae86"/><path d="M14.344 5.704c.114.008.238-.011.316.105-.113-.01-.238.014-.316-.105z" class="E"/><path d="M22.267 15.066c-.135-.001-.203-.068-.203-.203.098.037.167.104.203.203z" fill="#f4a98b"/><path d="M14.655 5.806c.115.002.239-.021.313.106-.116-.001-.239.02-.313-.106z" fill="#cda897"/><path d="M14.152 5.703c.038-.089.119-.097.2-.103l-.001.108-.199-.005z" class="E"/><path d="M16.173 9.225c-.012.003-.028.011-.034.007s-.018-.026-.015-.037c.011-.042.033-.046.055-.011.006.009-.004.028-.006.042z" fill="#cb784e"/><path d="M17.755 15.898c.085.042.085.126.098.203l-.047.034c-.041.001-.074-.014-.097-.048-.004-.04.005-.076.026-.11-.001-.028.006-.054.02-.079z" fill="#632823"/><path d="M17.736 15.977l.007.116.042.056-.031.063-.125-.13.107-.106z" fill="#772f1a"/><path d="M18.151 7.162l.111.003c-.038.049-.075.047-.111-.003z" fill="#d98557"/><path d="M22.883 14.445l.111-.092c-.018.053-.055.084-.111.092z" fill="#d48155"/><path d="M16.202 14.344c.029-.071.06-.087.097-.005l-.048.011-.049-.006z" fill="#4a1a17"/><path d="M22.68 11.568a.51.51 0 0 1 .009.098c-.076-.026-.078-.058-.009-.098z" fill="#d78557"/><path d="M8.586 12.916c.221-.155.49-.138.734-.169.168-.022.354.1.436.301-.119.133-.213.013-.309-.028-.141-.061-.276-.139-.436-.062s-.429.047-.468.25c-.039.209.063.433.225.597.107.108.245.189.337.307s-.043.117-.112.144c-.425-.307-.759-.666-.708-1.245.074-.116.207-.04.3-.094z" fill="#985635"/><path d="M8.585 12.916c-.075.112-.191.09-.3.094-.031-.857.258-1.255 1.121-1.537l.154.175c-.409.021-.685.235-.894.528-.158.221-.29.468-.08.74z" fill="#9f5a39"/><path d="M19.391 5.701c.028-.052.059-.062.095-.007 0 0-.047.007-.047.007h-.048z" class="E"/><path d="M17.026 6.122c-.363.139-.698.008-1.035-.106.325-.214.689-.055 1.031-.107.213.001.43-.019.623.106-.182.179-.413.069-.619.107zm-1.131-.11c-.143-.01-.302.044-.413-.098.143.01.302-.047.413.098z" fill="#f59a67"/><path d="M23.709 2.929c.048.021.098.095.075.104-.119.044-.047-.068-.073-.106l-.002.002z" fill="#c2c3c1"/><path d="M11.055 2.098c.095.161-.057.084-.104.108l.104-.108z" fill="#c2bbba"/><path d="M17.854 16.101c.136-.051.192-.165.231-.292.202-.121.157-.381.301-.535.283-.007.45.125.49.409.127.496.202 1.006.408 1.48a9.65 9.65 0 0 0 .606 1.2l-.481-1.238c-.08-.171-.156-.345-.08-.541.17-.21.321-.084.473.026h.206c.005.595.004.599.667.648.257.019.522.192.772-.026.096-.039.091-.126.098-.206.206-.14.29-.333.298-.583.004-.136-.007-.313.2-.358.07-.015.113-.078.083-.154-.098-.248.12-.266.249-.349.107.137-.009.271-.004.408-.109.13.01.314-.105.442-.126.078-.054.188-.045.289.003 1.133-.377 2.103-1.214 2.879-.259.293-.521.584-.861.79-.715.524-1.512.856-2.378 1.03-.329.16-.711.017-1.04.179-.199-.002-.398.007-.596-.006-.107-.05-.214-.096-.332-.121-.672-.14-1.355-.245-1.958-.607l-.327-.134c-.148-.058-.306-.084-.455-.137a.5.5 0 0 1-.114-.072 1.11 1.11 0 0 0-.169-.111c-.68-.442-1.289-.95-1.659-1.699-.056-.114-.093.084-.168.076-.118-.117-.139-.279-.198-.424-.059-.448-.354-.829-.34-1.308.006-.207-.056-.431-.073-.648v-.001c-.026-.034-.026-.069 0-.103l.001-.001c.065-.067.063-.135.002-.204-.261-.175-.096-.44-.116-.658-.008-.092.207-.042.318-.072.02.084-.246.273.095.241.111-.01.227.031.371.081-.208.062-.18.279-.312.387-.154.126-.002.104.063.124.038.012.126.043.087.062-.311.156-.067.286.032.368.159.132.067.284.087.427.007.051.022.106.08.114.091.013.084-.098.128-.122.145-.075.069.093.122.13.046.032.069.131.14.037.014-.019-.01-.065-.01-.098.001-.157.077-.179.186-.088.05.042.065.122.111.171.429.459.868.387 1.191-.107.157-.241.293-.24.511.03-.012.58-.361 1.021-.605 1.485.719-.803.897-1.902 1.428-2.822.079-.053.102-.132.105-.22.005-.126.081-.178.196-.191.165.506.468.9.925 1.179.496.303 1.011.371 1.558.165.016-.046.044-.054.083-.025.268-.089.491-.235.641-.482a.24.24 0 0 1 .096-.114l.004.002z" class="D"/><path d="M13.014 20.519c.182-.014.356.007.515.105.098.048.169.177.308.101.254.125.585.084.758.393.039.069.21.053.332.053.385 0 .746.155 1.119.234.028.006.039.087.058.134-.129.14-.277-.035-.411.026-.038.016-.073.037-.106.061l-.112-.007c-.068-.025-.146-.017-.208-.063-.185.003-.376.036-.537-.096-.086-.157-.232-.135-.373-.124a4.68 4.68 0 0 1-1.631-.701.51.51 0 0 1-.201-.219c.191-.097.339.012.49.104z" fill="#f3a27b"/><path d="M22.166 16.411c.165-.094.044-.326.204-.422-.002.184.023.368-.059.547-.077.167-.005.292.145.38-.142.605-.322 1.198-.609 1.753-.052.054-.027.146-.095.193l-.007.011c-.026.04-.069.069-.082.118l.005-.006c-.079.035-.055.141-.124.183l-.008.011a.46.46 0 0 1-.089.101l-.005.006c-.031.036-.07.067-.092.111l.003-.003c-.045.024-.077.062-.111.099h.001a.47.47 0 0 1-.111.082l-.012.012c-.057.072-.119.065-.183.009.131-.279.388-.457.551-.726.426-.706.62-1.459.68-2.264-.062-.064-.062-.129-.003-.194z" fill="#dfad93"/><path d="M17.742 21.337c.332-.078.612-.379.996-.23.211-.251.548-.291.802-.473.175-.126.334-.296.57-.32.065.061.055.122-.001.183-.61.576-1.346.889-2.162 1.033-.069-.064-.166-.098-.205-.193z" fill="#e99d7b"/><path d="M13.014 20.519c-.177.032-.324-.081-.49-.104-.667-.406-1.127-1.012-1.575-1.629-.02-.248.104-.365.424-.411-.226.361-.073.549.159.79.351.365.681.745 1.105 1.031.087.059.167.114.273.118.034.035.063.073.102.102l.002.102z" fill="#eaa686"/><path d="M10.338 16.405c.155.175.165.404.199.614.064.389.041.793.347 1.114.116.122.021.215-.133.229a.31.31 0 0 0-.07-.02c-.27-.589-.584-1.161-.657-1.821.084-.094.287.137.314-.115z" fill="#daa58b"/><path d="M17.741 21.337c.121.008.203.058.205.193-.367.133-.748.138-1.131.12-.035-.024-.047-.047-.034-.07s.025-.034.037-.034c-.014-.194.159-.175.241-.159.237.047.455-.045.682-.05z" fill="#d1a197"/><path d="M20.11 20.497l.001-.183.827-.72.183-.009c-.287.36-.58.712-1.011.912z" fill="#d69b85"/><path d="M16.82 21.546l-.002.104c-.344.058-.687.038-1.03-.017-.058-.048-.151-.018-.199-.088.169-.224.344.035.515-.006l.717.008z" fill="#e0b9a7"/><path d="M14.355 21.335c.184-.209.343.001.503.048.033.01-.083.049-.13.076-.139.004-.271-.015-.373-.124z" fill="#e0b29c"/><g class="D"><path d="M15.264 21.555c.077-.006.152-.002.208.063a.22.22 0 0 1-.208-.063z"/><path d="M15.587 21.545c.079.003.152.015.199.088l-.202-.008.002-.081z"/></g><g fill="#d69b85"><path d="M21.542 19.167c.005-.086.033-.156.124-.183a.21.21 0 0 1-.124.183zm.209-.306c-.002-.08.02-.15.095-.193.008.084-.012.154-.095.193zm-.618.712l.111-.082c-.018.053-.058.075-.111.082z"/><path d="M21.242 19.492c.018-.054.054-.088.111-.099-.012.06-.045.098-.111.099z"/><path d="M21.35 19.396c.008-.056.039-.093.092-.111-.006.058-.031.099-.092.111z"/><path d="M21.446 19.279l.089-.101c-.003.057-.03.093-.089.101zm.217-.289c.002-.057.03-.096.082-.118-.001.057-.025.099-.082.118z"/></g><path d="M10.163 17.686l.028-.009-.003.026-.024-.017z" fill="#685446"/><path d="M22.373 15.48c-.068-.032-.075-.067-.004-.104l.004.104z" class="D"/><g fill="#daa58b"><path d="M10.339 16.096c.105.069.104.137-.002.204l.002-.204z"/><path d="M10.337 16.301v.103c-.07-.034-.071-.068 0-.103z"/></g><path d="M37.186 36.362v-.103c.07.034.07.068 0 .103z" fill="#d49026"/><g fill="#d29026"><path d="M16.202 27.721c.297-.243.713-.177 1.025-.397.08-.057.208-.001.306.111.31.356.537.353.97.159.385-.172.786-.348 1.234-.264.03.006.078.007.093-.011.244-.287.607-.127.907-.23.233-.08.485-.101.689-.264.156-.124.344-.126.53-.133l.014.4c-.043.091-.123.113-.213.115-.284-.102-.587-.007-.825.268-.055.064-.092.143-.136.216-.122.206-.234.39-.403.026-.059-.128-.179-.041-.268.001-.39.183-.623.12-1.052.15-.466.032-.947-.173-1.397.065a.46.46 0 0 1-.604-.086c-.258-.26-.581-.077-.87-.125z"/><path d="M21.756 27.205c-.009.102-.034.259-.129.231-.122-.035-.005-.126.043-.18.021-.024.056-.034.086-.051zm-.822.618c.071.034.071.069 0 .103v-.103z"/></g><path d="M26.385 28.646c.335.013.352.281.412.514-.069.151-.189.213-.35.207-.145-.005-.257.033-.268.204-.339-.014-.674-.22-1.019-.02-.017.01-.075-.051-.113-.079.259-.107.412-.265.264-.561-.035-.071-.031-.134.034-.175.081-.052.108.025.149.074.052.063.111.121.21.228.066-.202.114-.431.374-.289.204.189.204.189.309-.103z" class="P"/><path d="M25.459 27.721h.103 0c.074.04.135.092.172.169.15.135.302.271.186.504l-.049.046c-.116-.006-.246.019-.3-.13-.028-.077-.051-.111-.12-.02-.181.24-.394.188-.609.047h0c.075-.139-.07-.358.162-.439.304.329.304-.119.455-.178z" class="H"/><g class="P"><path d="M24.947 29.473c-.026.044.042.188-.108.101l.001-.104.107.003z"/><path d="M25.045 29.472h-.049-.049c.032-.074.065-.074.098 0z"/></g><path d="M25.974 28.544l-.103-.103c.093-.025.139-.002.103.103h0z" class="H"/><path d="M21.167 33.894c.131-.23.079-.476.062-.718.006-.068.021-.136.015-.203-.023-.245.084-.325.327-.321l1.939-.004 2.081-.008 2.034-.08-.007-.007c.068.512.109 1.023-.015 1.534-.136.415-.013.84-.053 1.261-.074.779.048 1.566-.122 2.347-.132.606-.295 1.199-.595 1.735-.197.352-.531.611-.871.841l-.301.188c-.649.191-1.322.155-1.972.093-.831-.079-1.408-.61-1.825-1.315-.336-.721-.519-1.489-.584-2.272-.061-.732-.028-1.472-.035-2.209-.003-.289.046-.583-.076-.861z" class="B"/><path d="M27.601 34.086c-.065-.512.012-1.022.015-1.534l.096.013.099 3.073c-.181-.333-.05-.692-.09-1.037-.02-.177.06-.376-.119-.516z" fill="#4e3617"/><path d="M36.984 34.705l-.008.224c-.754-.719-1.418-1.504-1.826-2.477-.024-.058-.006-.134-.008-.202l.3.105c-.032.223.081.396.202.563.349.483.664.992 1.098 1.409.109.104.238.203.242.377z" fill="#845b19"/><path d="M32.875 30.907c-.116 0-.239.024-.318-.098.116.001.237-.014.318.098z" fill="#a47d47"/><path d="M27.619 26.795l.006.421c-.049-.008-.101-.006-.151-.014-.126-.021-.242-.072-.227-.222.012-.114.111-.163.219-.178.05-.007.102-.005.153-.007z" fill="#fff"/><path d="M26.796 27.618c.008-.014.019-.042.023-.041.035.007.026.023-.023.04h0z" class="H"/><path d="M27.619 26.794l.024-.043.019.019-.043.024z" fill="#fff"/><path d="M25.974 28.544l-.103-.103c.068-.226-.109-.354-.206-.514.073-.12-.005-.49.321-.195a.39.39 0 0 1 .091-.113h.307c-.066.34-.281.614-.41.925z" class="O"/><path d="M39.547 37.603c-.345-.311-.636-.671-.92-1.036.066.008.163-.01.195.027.184.212.346.434.676.432.096-.001.157.126.139.237s-.059.227-.089.34z" fill="#c98827"/><path d="M28.839 26.375c.004-.017.007-.035.008-.052l.212-.04c-.05.085-.13.099-.219.092z" fill="#9e643f"/><path d="M26.075 27.618c-.03.079-.022.292-.088.216-.227-.263-.222.065-.324.092l-.103-.206c.147-.068.056-.252.164-.342.163.014.283.088.351.239z" class="G"/><path d="M25.457 27.721c-.049.209-.089.422-.258.624-.139-.136-.031-.325-.154-.419-.034-.022-.047-.052-.038-.092.011-.029.048-.039.056-.071-.028.007-.057.006-.086-.002l-.034-.043c.009-.087.028-.166.145-.128l.368.129z" fill="#fafaf9"/><path d="M25.047 27.823l-.002.103c-.167.088-.038.324-.205.412-.114-.231-.196-.457.104-.619.029.04.096.043.103.104z" fill="#e4e4e2"/><path d="M21.04 13.355c.019.022.053.044.053.065 0 .059-.044.082-.094.059-.02-.009-.037-.057-.031-.08s.046-.03.072-.044z" fill="#b9614d"/><path d="M21.419 13.938c.012.04-.001.075-.042.079-.03.003-.062-.016-.093-.026.017-.027.029-.061.052-.081.034-.028.066-.014.082.027z" fill="#7d4434"/><path d="M20.11 14.038c-.059.001-.117.098-.175.003-.006-.01.002-.038.013-.047.074-.062.122-.022.162.044h0z" fill="#e8735d"/><path d="M20.498 14.855c-.005.012-.006.032-.014.036-.028.013-.045-.004-.039-.041.002-.011.019-.019.028-.028l.025.033z" fill="#e26e59"/><path d="M20.11 14.038l.139.039c-.077.097-.102.008-.139-.039h0z" fill="#e8735d"/><path d="M20.765 13.663c-.001.012.002.03-.004.034s-.031.014-.041.009c-.044-.021-.042-.044.005-.057.011-.003.027.009.04.014z" fill="#c55f4e"/><path d="M20.044 13.691c-.013.005-.027.016-.037.013-.04-.011-.045-.033-.011-.053.009-.005.029 0 .04.008s.006.021.008.032z" fill="#df6453"/><path d="M19.725 13.458c-.001.011.002.028-.004.032s-.029.013-.038.008c-.041-.019-.039-.041.005-.053.011-.003.025.008.038.013z" fill="#e16a52"/><path d="M20.009 13.117l.101-.005c-.028.098-.061.103-.101.005z" fill="#913e35"/><path d="M20.419 12.804c.032-.004.064-.004.097.001l-.049.071-.048-.072z" fill="#8c3c34"/><path d="M13.731 13.112c.043.084.121.101.205.107l-.204.303.001.001c.049.052.262-.123.17.148-.068.199.054.393.257.533.066.045.077.097.104.155.09.194.105.395.069.601-.088.511-.428.891-.757 1.235-.209.219-.588.275-.892.402-.03.013-.07.002-.101.014a.54.54 0 0 1-.416-.211c-.02-.046-.054-.121-.083-.122-.34-.007-.393-.386-.652-.493-.045-.019-.122-.055-.12-.08.024-.426-.22-.839-.071-1.266.038-.11.145-.194.045-.32-.215-.272-.04-.507.128-.679.393-.403.943-.606 1.508-.386.267.104.54.034.81.057z" fill="#f57e6f"/><path d="M14.247 15.787c-.101.572-.348 1.096-.566 1.626-.154.375-.379.721-.582 1.075-.102.178-.256.312-.466.471-.027-.427.26-.656.394-.947l.397-.887c.139-.138.147-.332.215-.499.134-.329.27-.657.607-.838z" fill="#df8658"/><path d="M10.864 15.067c-.04.058-.092.097-.158.049-.048-.035-.03-.089-.002-.132.059-.091.151-.119.253-.123.067.112-.045.144-.092.206z" fill="#f0ab97"/><path d="M10.864 15.067l.092-.206c.153.151.038.182-.092.206z" class="D"/><path d="M21.452 17.025c-.133.036-.273.188-.389-.018-.017-.03.003-.116.032-.133.182-.111.276.01.356.151l.001-.001z" fill="#f1875f"/><path d="M21.544 17.025c.066.115.084.208-.098.207l.006-.206-.001.001.093-.001z" fill="#e9b39e"/><path d="M22.107 15.524c-.027.009-.061.031-.079.022s-.04-.05-.038-.075c.005-.039.041-.051.071-.024.021.019.031.05.045.076z" fill="#f0aa95"/><path d="M21.65 16.173l-.036-.029c.014-.008.028-.022.041-.021s.024.018.036.028l-.042.022z" class="D"/><path d="M19.388 16.611c-.019.329.196.576.313.853.156.368.155.806.534 1.079-.205.15-.329.05-.393-.048-.533-.816-.927-1.689-1.026-2.673-.005-.044.038-.093.058-.14.098.039.167.107.205.206 0 .069.071.069.103.107.003.113-.016.233.102.308s.03.218.103.307z" fill="#df8658"/><g class="I"><path d="M19.387 16.611c-.118-.074-.099-.195-.103-.307.166-.225.38-.225.49.013.038.084.019.194.026.293-.138.054-.276-.111-.413.001z"/><path d="M19.184 15.996c-.043-.028-.19.046-.103-.107l.103.107z"/></g><path d="M17.113 16.694c-.025.016-.053.024-.083.025-.074-.016-.157-.012-.195-.098.101-.006.206-.031.278.073z" fill="#703324"/><path d="M18.044 15.778l-.074-.072c.046.002.068.029.074.072z" fill="#6a2d18"/><path d="M17.851 16.099c-.006.061-.039.097-.1.104l-.007-.11.107.006z" class="R"/><path d="M15.688 20.93c-.107-.322-.369-.566-.451-.901-.016-.066-.051-.126.041-.199.176.111.2.341.341.481.059.059.09.144.137.215.493.747 1.08.526 1.453-.026.251-.37.494-.737.548-1.195.008-.065.037-.134.149-.142.132.285-.028.564-.088.819-.108.451-.381.839-.741 1.143-.291.245-.736.198-1.176-.093a.27.27 0 0 1-.213-.101z" fill="#e08759"/><path d="M17.966 20.755c.029.018.08.034.103.068.035.053-.007.093-.058.091-.042-.001-.101-.022-.121-.053-.027-.044.006-.087.076-.105z" fill="#f8a77e"/><path d="M11.226 17.554c-.03.047-.079.062-.113.025-.028-.03-.045-.088-.037-.127.011-.056.064-.059.105-.025s.063.073.045.127z" fill="#f4a77f"/><path d="M11.94 18.782c-.002.043-.036.071-.088.077s-.105-.005-.1-.058c.003-.035.051-.079.09-.094.044-.018.089.005.098.076z" fill="#f4a881"/><path d="M14.492 20.514c.02-.017.041-.05.061-.049.054.001.078.041.056.089-.008.018-.053.034-.075.028s-.029-.044-.042-.068z" fill="#f3aa85"/><path d="M20.735 17.883c.018.021.052.042.051.063-.001.056-.043.081-.092.059-.019-.008-.036-.056-.029-.078s.046-.03.07-.044z" fill="#e7b79f"/><path d="M21.275 17.881c-.015.054-.059.064-.105.058s-.088-.037-.059-.092c.012-.024.047-.049.073-.05.049-.001.082.033.091.084z" fill="#ecb299"/><path d="M13.835 20.724c-.174.184-.231.013-.308-.101.117-.012.21.055.308.101z" fill="#e8b8a0"/><path d="M15.687 20.93c.086.001.167.014.213.101-.16.154-.193.041-.213-.101z" fill="#eea984"/><path d="M22.165 16.411l.003.195c-.079-.009-.18-.006-.162-.121.011-.07.095-.072.16-.073z" fill="#e9b59d"/><path d="M20.197 19.66c-.016-.023-.047-.047-.045-.067.006-.054.048-.075.094-.049.019.011.034.058.026.078s-.049.026-.075.038z" fill="#e9b597"/><path d="M10.801 17.046c-.015-.026-.042-.052-.043-.078s.025-.053.039-.08c.015.026.042.052.043.079s-.025.053-.04.08z" fill="#f0af91"/><path d="M21.337 18.336c-.04-.015-.052-.045-.023-.076.019-.021.052-.03.079-.044.009.028.032.063.023.082s-.051.026-.078.038z" fill="#e3bfac"/><path d="M19.417 19.135c-.028.014-.056.04-.083.039s-.052-.03-.077-.046c.028-.014.056-.04.083-.038s.051.029.077.046z" fill="#e9b59a"/><path d="M13.456 20.042c-.001.012.002.029-.004.033s-.03.013-.04.008c-.043-.02-.041-.043.005-.055.011-.003.026.009.039.014z" fill="#e6baa4"/><path d="M14.876 20.702c-.013-.005-.033-.006-.037-.014-.014-.029.003-.046.041-.04.011.002.019.019.029.029l-.034.025z" fill="#e9b599"/><path d="M13.564 19.444c-.011.008-.023.022-.034.021-.04-.002-.05-.022-.026-.047.007-.008.028-.01.04-.005s.013.02.02.031z" fill="#e5b89a"/><path d="M25.047 27.823l-.103-.104c.043.026.188-.049.103.104z" class="G"/><path d="M13.284 13.521c-.019.02-.036.055-.056.057-.057.005-.084-.034-.066-.085.007-.019.051-.038.075-.034s.032.04.048.062z" fill="#d87060"/><path d="M12.34 13.587c.007.027.028.06.018.078s-.05.037-.074.033c-.038-.006-.047-.042-.02-.07.019-.019.05-.028.075-.041z" fill="#db6c59"/><path d="M13.16 14.382c-.008-.012-.023-.024-.022-.036.002-.042.024-.053.05-.027.008.008.01.03.006.042s-.022.014-.034.021z" fill="#c4624e"/><path d="M12.422 14.256l.032.036c-.026.012-.052.027-.079.035-.007.002-.021-.022-.031-.034l.079-.037z" fill="#87523c"/><path d="M13.734 13.523l-.04.136c-.096-.076-.004-.1.039-.137l.001.001z" fill="#e3725b"/><path d="M12.133 14.215l-.01-.028.026.004-.016.024z" fill="#b04438"/><path d="M12.673 13.78l-.029.011.003-.029.026.018z" fill="#914836"/></svg>