<svg xmlns="http://www.w3.org/2000/svg" xmlns:xlink="http://www.w3.org/1999/xlink" width="52" height="53" fill="none" xmlns:v="https://vecta.io/nano"><style><![CDATA[.B{fill:#d9aa54}.C{fill:#fff}.D{fill:#fbc561}.E{fill:#9a826c}]]></style><mask id="A" maskUnits="userSpaceOnUse" x="15" y="14" width="18" height="17"><path d="M15.395 30.858h16.625V14.588H15.395v16.27z" class="C"/></mask><g mask="url(#A)"><path d="M15.395 18.473h4.431v-.264h-4.431v.264zm0 3.208h4.431v-.264h-4.431v.264z" fill="#7fd3be"/></g><path d="M44.787 20.921l-2.932 23.491-16.081 3.969V25.309l19.013-4.387z" class="E"/><mask id="B" maskUnits="userSpaceOnUse" x="25" y="20" width="20" height="29"><path d="M44.788 20.921l-2.933 23.491-16.081 3.969V25.308l19.013-4.387z" class="C"/></mask><g mask="url(#B)"><mask id="C" maskUnits="userSpaceOnUse" x="25" y="42" width="8" height="8"><path d="M25.362 49.237h6.65v-6.65h-6.65v6.65z" class="C"/></mask><g mask="url(#C)" class="B"><use xlink:href="#Be"/><use xlink:href="#Bf"/><use xlink:href="#Bg"/><path d="M30.169 47.296a.33.33 0 0 1 .182-.055c.011 0 .021.001.032.002l-.214.053z"/><use xlink:href="#Bg" y="-3.325"/><use xlink:href="#Bg" x="3.324" y="-3.325"/><use xlink:href="#Bh"/><use xlink:href="#Bi"/></g></g><mask id="D" maskUnits="userSpaceOnUse" x="25" y="20" width="20" height="29"><path d="M44.788 20.921l-2.933 23.491-16.081 3.969V25.308l19.013-4.387z" class="C"/></mask><g mask="url(#D)"><mask id="E" maskUnits="userSpaceOnUse" x="32" y="42" width="7" height="8"><path d="M32.013 49.237h6.65v-6.65h-6.65v6.65z" class="C"/></mask><g mask="url(#E)" class="B"><path d="M35.058 46.089c-.032-.052-.051-.113-.051-.178 0-.184.149-.332.333-.332s.332.149.332.332l-.001.026-.613.151z"/><use xlink:href="#Bj"/><use xlink:href="#Bk"/><use xlink:href="#Bl"/><use xlink:href="#Bh" x="6.65"/><use xlink:href="#Bi" x="6.65"/><use xlink:href="#Bm"/></g></g><mask id="F" maskUnits="userSpaceOnUse" x="25" y="20" width="20" height="29"><path d="M44.788 20.921l-2.933 23.491-16.081 3.969V25.308l19.013-4.387z" class="C"/></mask><g mask="url(#F)"><mask id="G" maskUnits="userSpaceOnUse" x="38" y="42" width="8" height="8"><path d="M38.66 49.237h6.65v-6.65h-6.65v6.65z" class="C"/></mask><g mask="url(#G)" class="B"><use xlink:href="#Bn"/><path d="M41.986 42.919c-.184 0-.332-.149-.332-.333h.424l-.041.329c-.017.002-.034.004-.051.004z"/><use xlink:href="#Bo"/></g></g><mask id="H" maskUnits="userSpaceOnUse" x="25" y="20" width="20" height="29"><path d="M44.788 20.921l-2.933 23.491-16.081 3.969V25.308l19.013-4.387z" class="C"/></mask><g mask="url(#H)"><mask id="I" maskUnits="userSpaceOnUse" x="25" y="35" width="8" height="8"><path d="M25.362 42.586h6.65v-6.651h-6.65v6.651z" class="C"/></mask><g mask="url(#I)" class="B"><use xlink:href="#Bp"/><use xlink:href="#Bq"/><use xlink:href="#Br"/><use xlink:href="#Bs"/><use xlink:href="#Bg" y="-6.651"/><use xlink:href="#Bg" x="3.324" y="-6.651"/><use xlink:href="#Bg" y="-9.976"/><use xlink:href="#Bg" x="3.324" y="-9.976"/><use xlink:href="#Bh" y="-6.651"/><use xlink:href="#Bi" y="-6.651"/></g></g><mask id="J" maskUnits="userSpaceOnUse" x="25" y="20" width="20" height="29"><path d="M44.788 20.921l-2.933 23.491-16.081 3.969V25.308l19.013-4.387z" class="C"/></mask><g mask="url(#J)"><mask id="K" maskUnits="userSpaceOnUse" x="32" y="35" width="7" height="8"><path d="M32.013 42.586h6.65v-6.651h-6.65v6.651z" class="C"/></mask><g mask="url(#K)" class="B"><use xlink:href="#Bp" x="6.65"/><use xlink:href="#Bq" x="6.649"/><use xlink:href="#Br" x="6.65"/><use xlink:href="#Bs" x="6.65"/><use xlink:href="#Bj" y="-3.326"/><use xlink:href="#Bk" y="-3.326"/><use xlink:href="#Bj" y="-6.651"/><use xlink:href="#Bk" y="-6.651"/><use xlink:href="#Bt"/><use xlink:href="#Bu"/><use xlink:href="#Bh" x="6.65" y="-6.651"/><use xlink:href="#Bi" x="6.65" y="-6.651"/><use xlink:href="#Bm" y="-6.651"/></g></g><mask id="L" maskUnits="userSpaceOnUse" x="25" y="20" width="20" height="29"><path d="M44.788 20.921l-2.933 23.491-16.081 3.969V25.308l19.013-4.387z" class="C"/></mask><g mask="url(#L)"><mask id="M" maskUnits="userSpaceOnUse" x="38" y="35" width="8" height="8"><path d="M38.66 42.586h6.65v-6.651h-6.65v6.651z" class="C"/></mask><g mask="url(#M)" class="B"><path d="M42.078 42.586h-.424c0-.184.148-.332.332-.332.047 0 .09.009.131.026l-.038.306z"/><use xlink:href="#Bv"/><use xlink:href="#Bn" y="-3.326"/><use xlink:href="#Bn" y="-6.651"/><use xlink:href="#Bw"/><path d="M38.66 39.594v-.665c.183 0 .332.149.332.333s-.149.333-.332.333z"/><use xlink:href="#Bx"/><use xlink:href="#Bo" y="-6.651"/></g></g><mask id="N" maskUnits="userSpaceOnUse" x="25" y="20" width="20" height="29"><path d="M44.788 20.921l-2.933 23.491-16.081 3.969V25.308l19.013-4.387z" class="C"/></mask><g mask="url(#N)"><mask id="O" maskUnits="userSpaceOnUse" x="25" y="29" width="8" height="7"><path d="M25.362 35.936h6.65v-6.65h-6.65v6.65z" class="C"/></mask><g mask="url(#O)" class="B"><use xlink:href="#By"/><path d="M29.022 35.936h-.665c0-.183.149-.332.333-.332s.332.149.332.332z"/><use xlink:href="#Be" y="-13.3"/><use xlink:href="#Bf" y="-13.3"/><use xlink:href="#Bz"/><use xlink:href="#Bz" x="3.324"/><use xlink:href="#Bg" y="-16.626"/><use xlink:href="#Bg" x="3.324" y="-16.626"/><use xlink:href="#CA"/><path d="M28.689 29.618c-.184 0-.333-.149-.333-.332h.665c0 .184-.149.332-.332.332z"/></g></g><mask id="P" maskUnits="userSpaceOnUse" x="25" y="20" width="20" height="29"><path d="M44.788 20.921l-2.933 23.491-16.081 3.969V25.308l19.013-4.387z" class="C"/></mask><g mask="url(#P)"><mask id="Q" maskUnits="userSpaceOnUse" x="32" y="29" width="7" height="7"><path d="M32.013 35.936h6.65v-6.65h-6.65v6.65z" class="C"/></mask><g mask="url(#Q)" class="B"><use xlink:href="#By" x="6.65"/><path d="M35.671 35.936h-.665c0-.183.149-.332.333-.332s.332.149.332.332z"/><use xlink:href="#Be" x="6.65" y="-13.3"/><use xlink:href="#Bf" x="6.65" y="-13.3"/><use xlink:href="#CB"/><use xlink:href="#CC"/><use xlink:href="#Bj" y="-13.301"/><use xlink:href="#Bk" y="-13.301"/><use xlink:href="#Bt" y="-6.65"/><use xlink:href="#Bl" y="-13.3"/><use xlink:href="#CA" x="6.65"/><path d="M35.339 29.618c-.184 0-.333-.149-.333-.332h.665c0 .184-.149.332-.332.332z"/><use xlink:href="#CD"/></g></g><mask id="R" maskUnits="userSpaceOnUse" x="25" y="20" width="20" height="29"><path d="M44.788 20.921l-2.933 23.491-16.081 3.969V25.308l19.013-4.387z" class="C"/></mask><g mask="url(#R)"><mask id="S" maskUnits="userSpaceOnUse" x="38" y="29" width="8" height="7"><path d="M38.66 35.936h6.65v-6.65h-6.65v6.65z" class="C"/></mask><g mask="url(#S)" class="B"><path d="M42.319 35.936h-.665c0-.183.148-.332.332-.332s.333.149.333.332z"/><use xlink:href="#CE"/><use xlink:href="#Bv" x="-1.663" y="-4.988"/><use xlink:href="#Bn" y="-13.301"/><path d="M43.493 31.243c-.106-.055-.178-.166-.178-.294 0-.157.109-.289.255-.324l-.077.618z"/><use xlink:href="#Bw" y="-6.65"/><use xlink:href="#CF"/><use xlink:href="#CG"/><use xlink:href="#CH"/></g></g><mask id="T" maskUnits="userSpaceOnUse" x="25" y="20" width="20" height="29"><path d="M44.788 20.921l-2.933 23.491-16.081 3.969V25.308l19.013-4.387z" class="C"/></mask><g mask="url(#T)"><mask id="U" maskUnits="userSpaceOnUse" x="25" y="22" width="8" height="8"><path d="M25.362 29.285h6.65v-6.65h-6.65v6.65z" class="C"/></mask><g mask="url(#U)" class="B"><use xlink:href="#Bp" y="-13.301"/><use xlink:href="#Bq" y="-13.301"/><use xlink:href="#Be" y="-19.951"/><use xlink:href="#Bf" y="-19.951"/><use xlink:href="#Bg" y="-19.952"/><use xlink:href="#Bg" x="3.324" y="-19.952"/><path d="M30.351 24.63c-.173 0-.316-.133-.331-.302l.642-.148c.014.037.021.076.021.118 0 .184-.149.333-.332.333z"/></g></g><mask id="V" maskUnits="userSpaceOnUse" x="25" y="20" width="20" height="29"><path d="M44.788 20.921l-2.933 23.491-16.081 3.969V25.308l19.013-4.387z" class="C"/></mask><g mask="url(#V)"><mask id="W" maskUnits="userSpaceOnUse" x="32" y="22" width="7" height="8"><path d="M32.013 29.285h6.65v-6.65h-6.65v6.65z" class="C"/></mask><g mask="url(#W)" class="B"><use xlink:href="#Bp" x="6.65" y="-13.301"/><use xlink:href="#Bq" x="6.649" y="-13.301"/><use xlink:href="#Be" x="6.65" y="-19.951"/><use xlink:href="#Bf" x="6.65" y="-19.951"/><use xlink:href="#Bj" y="-16.627"/><use xlink:href="#Bk" y="-16.627"/><use xlink:href="#CB" y="-9.976"/><use xlink:href="#CC" y="-9.976"/><use xlink:href="#Bt" y="-13.301"/><use xlink:href="#Bl" y="-19.951"/><use xlink:href="#CA" x="6.65" y="-6.651"/></g></g><mask id="X" maskUnits="userSpaceOnUse" x="25" y="20" width="20" height="29"><path d="M44.788 20.921l-2.933 23.491-16.081 3.969V25.308l19.013-4.387z" class="C"/></mask><g mask="url(#X)"><mask id="Y" maskUnits="userSpaceOnUse" x="38" y="22" width="8" height="8"><path d="M38.66 29.285h6.65v-6.65h-6.65v6.65z" class="C"/></mask><g mask="url(#Y)" class="B"><use xlink:href="#CI"/><use xlink:href="#CE" y="-6.651"/><use xlink:href="#Bn" y="-16.627"/><path d="M43.647 27.955c-.184 0-.333-.149-.333-.332s.149-.333.333-.333c.143 0 .265.09.312.217l-.038.304c-.06.087-.161.144-.274.144z"/><use xlink:href="#Bv" x="-1.663" y="-14.964"/><use xlink:href="#CC" x="6.647" y="-9.976"/><use xlink:href="#Bw" y="-13.301"/><use xlink:href="#CF" y="-6.651"/><use xlink:href="#CG" y="-6.651"/><use xlink:href="#CH" y="-6.651"/></g></g><mask id="Z" maskUnits="userSpaceOnUse" x="25" y="20" width="20" height="29"><path d="M44.788 20.921l-2.933 23.491-16.081 3.969V25.308l19.013-4.387z" class="C"/></mask><g mask="url(#Z)"><mask id="a" maskUnits="userSpaceOnUse" x="32" y="15" width="7" height="8"><path d="M32.013 22.635h6.65v-6.651h-6.65v6.651z" class="C"/></mask><g mask="url(#a)" class="B"><path d="M38.664 22.635h-.332c0-.1.044-.19.114-.251l.218-.05v.301z"/></g></g><mask id="b" maskUnits="userSpaceOnUse" x="25" y="20" width="20" height="29"><path d="M44.788 20.921l-2.933 23.491-16.081 3.969V25.308l19.013-4.387z" class="C"/></mask><g mask="url(#b)"><mask id="c" maskUnits="userSpaceOnUse" x="38" y="15" width="8" height="8"><path d="M38.66 22.635h6.65v-6.651h-6.65v6.651z" class="C"/></mask><g mask="url(#c)"><use xlink:href="#CI" y="-6.65" fill="#ffb372"/><path d="M43.649 21.305a.33.33 0 0 1-.209-.074l.511-.118c-.053.113-.168.192-.301.192zm-4.657 1.33h-.332v-.301l.086-.02c.142.038.246.167.246.321z" fill="#ffb372"/></g></g><path d="M44.788 20.921l-19.013 4.387-5.953-1.046v-7.731l24.966 4.39z" fill="#886d57"/><path d="M19.821 24.263l5.953 1.046v23.073l-21.181-5.23-3.785-22.23 19.013 3.341z" fill="#b79a81"/><mask id="d" maskUnits="userSpaceOnUse" x="0" y="20" width="26" height="29"><path d="M19.821 24.263l5.953 1.046v23.073l-21.181-5.23-3.785-22.23 19.013 3.341z" class="C"/></mask><g mask="url(#d)"><mask id="e" maskUnits="userSpaceOnUse" x="-2" y="42" width="8" height="8"><path d="M-1.236 49.237h6.65v-6.65h-6.65v6.65z" class="C"/></mask><g mask="url(#e)" class="B"><use xlink:href="#CJ"/></g></g><mask id="f" maskUnits="userSpaceOnUse" x="0" y="20" width="26" height="29"><path d="M19.821 24.263l5.953 1.046v23.073l-21.181-5.23-3.785-22.23 19.013 3.341z" class="C"/></mask><g mask="url(#f)"><mask id="g" maskUnits="userSpaceOnUse" x="5" y="42" width="8" height="8"><path d="M5.415 49.237h6.65v-6.65h-6.65v6.65z" class="C"/></mask><g mask="url(#g)" class="B"><path d="M10.402 44.582l-.139-.03c-.114-.053-.194-.168-.194-.302 0-.184.149-.333.333-.333s.332.149.332.333-.149.332-.332.332z"/><use xlink:href="#Bh" x="-19.948"/><use xlink:href="#Bx" x="-33.246" y="6.651"/><use xlink:href="#Bm" x="-26.598"/></g></g><mask id="h" maskUnits="userSpaceOnUse" x="0" y="20" width="26" height="29"><path d="M19.821 24.263l5.953 1.046v23.073l-21.181-5.23-3.785-22.23 19.013 3.341z" class="C"/></mask><g mask="url(#h)"><mask id="i" maskUnits="userSpaceOnUse" x="12" y="42" width="7" height="8"><path d="M12.062 49.237h6.65v-6.65h-6.65v6.65z" class="C"/></mask><g mask="url(#i)" class="B"><use xlink:href="#CK"/><path d="M15.719 45.899l-.621-.153c.057-.1.165-.167.288-.167.179 0 .326.142.332.32z"/><use xlink:href="#Bj" x="-19.951"/><use xlink:href="#Bk" x="-19.951"/><use xlink:href="#CJ" x="13.298"/><use xlink:href="#Bx" x="-26.598" y="6.651"/><use xlink:href="#Bo" x="-26.598"/></g></g><mask id="j" maskUnits="userSpaceOnUse" x="0" y="20" width="26" height="29"><path d="M19.821 24.263l5.953 1.046v23.073l-21.181-5.23-3.785-22.23 19.013 3.341z" class="C"/></mask><g mask="url(#j)"><mask id="k" maskUnits="userSpaceOnUse" x="18" y="42" width="8" height="8"><path d="M18.716 49.237h6.65v-6.65h-6.65v6.65z" class="C"/></mask><g mask="url(#k)" class="B"><use xlink:href="#Be" x="-6.647"/><use xlink:href="#CL"/><path d="M23.798 47.893l-.327-.081a.33.33 0 0 1-.1-.238c0-.184.149-.333.332-.333s.333.149.333.333c0 .151-.101.278-.238.319z"/><use xlink:href="#Bg" x="-6.648" y="-3.325"/><use xlink:href="#Bj" x="-9.972"/><use xlink:href="#CM"/><use xlink:href="#Bh" x="-6.647"/><use xlink:href="#Bx" x="-19.944" y="6.651"/><use xlink:href="#Bo" x="-19.944"/></g></g><mask id="l" maskUnits="userSpaceOnUse" x="0" y="20" width="26" height="29"><path d="M19.821 24.263l5.953 1.046v23.073l-21.181-5.23-3.785-22.23 19.013 3.341z" class="C"/></mask><g mask="url(#l)"><mask id="m" maskUnits="userSpaceOnUse" x="25" y="42" width="8" height="8"><path d="M25.363 49.237h6.65v-6.65h-6.65v6.65z" class="C"/></mask><g mask="url(#m)" class="B"><use xlink:href="#Bl" x="-6.65"/><use xlink:href="#Bm" x="-6.65"/></g></g><mask id="n" maskUnits="userSpaceOnUse" x="0" y="20" width="26" height="29"><path d="M19.821 24.263l5.953 1.046v23.073l-21.181-5.23-3.785-22.23 19.013 3.341z" class="C"/></mask><g mask="url(#n)"><mask id="o" maskUnits="userSpaceOnUse" x="-2" y="35" width="8" height="8"><path d="M-1.236 42.586h6.65v-6.651h-6.65v6.651z" class="C"/></mask><g mask="url(#o)" class="B"><use xlink:href="#CN"/><path d="M5.414 39.594c-.184 0-.333-.149-.333-.333s.149-.333.333-.333v.665zM3.75 37.931c-.017 0-.033-.001-.049-.004l-.106-.624c.046-.024.099-.038.155-.038.184 0 .333.149.333.333s-.149.332-.333.332z"/><use xlink:href="#CJ" y="-6.651"/></g></g><mask id="p" maskUnits="userSpaceOnUse" x="0" y="20" width="26" height="29"><path d="M19.821 24.263l5.953 1.046v23.073l-21.181-5.23-3.785-22.23 19.013 3.341z" class="C"/></mask><g mask="url(#p)"><mask id="q" maskUnits="userSpaceOnUse" x="5" y="35" width="8" height="8"><path d="M5.415 42.586h6.65v-6.651h-6.65v6.651z" class="C"/></mask><g mask="url(#q)" class="B"><use xlink:href="#Bp" x="-19.948"/><use xlink:href="#CO"/><use xlink:href="#Br" x="-19.948"/><use xlink:href="#CB" x="-24.935" y="4.988"/><use xlink:href="#Bj" x="-26.598" y="-3.326"/><use xlink:href="#CP"/><use xlink:href="#Bj" x="-26.598" y="-6.651"/><use xlink:href="#CP" y="-3.325"/><use xlink:href="#Bt" x="-26.599"/><use xlink:href="#Bu" x="-26.598"/><use xlink:href="#Bh" x="-19.948" y="-6.651"/><use xlink:href="#Bx" x="-33.246"/><use xlink:href="#Bm" x="-26.598" y="-6.651"/></g></g><mask id="r" maskUnits="userSpaceOnUse" x="0" y="20" width="26" height="29"><path d="M19.821 24.263l5.953 1.046v23.073l-21.181-5.23-3.785-22.23 19.013 3.341z" class="C"/></mask><g mask="url(#r)"><mask id="s" maskUnits="userSpaceOnUse" x="12" y="35" width="7" height="8"><path d="M12.062 42.586h6.65v-6.651h-6.65v6.651z" class="C"/></mask><g mask="url(#s)" class="B"><use xlink:href="#CN" x="13.298"/><use xlink:href="#CO" x="6.647"/><path d="M18.712 39.594c-.184 0-.333-.149-.333-.333s.149-.333.333-.333v.665z"/><use xlink:href="#CB" x="-18.287" y="4.988"/><use xlink:href="#Bj" x="-19.951" y="-3.326"/><use xlink:href="#Bk" x="-19.951" y="-3.326"/><use xlink:href="#Bj" x="-19.951" y="-6.651"/><use xlink:href="#Bk" x="-19.951" y="-6.651"/><use xlink:href="#CQ"/><path d="M12.062 39.594v-.665c.184 0 .332.149.332.333s-.149.333-.332.333z"/><use xlink:href="#CJ" x="13.298" y="-6.651"/><use xlink:href="#Bx" x="-26.598"/><use xlink:href="#Bo" x="-26.598" y="-6.651"/></g></g><mask id="t" maskUnits="userSpaceOnUse" x="0" y="20" width="26" height="29"><path d="M19.821 24.263l5.953 1.046v23.073l-21.181-5.23-3.785-22.23 19.013 3.341z" class="C"/></mask><g mask="url(#t)"><mask id="u" maskUnits="userSpaceOnUse" x="18" y="35" width="8" height="8"><path d="M18.716 42.586h6.65v-6.651h-6.65v6.651z" class="C"/></mask><g mask="url(#u)" class="B"><use xlink:href="#Bp" x="-6.647"/><use xlink:href="#CO" x="13.301"/><use xlink:href="#Br" x="-6.647"/><use xlink:href="#CB" x="-11.633" y="4.988"/><use xlink:href="#Bg" x="-6.648" y="-6.651"/><use xlink:href="#Bj" x="-9.972" y="-3.326"/><use xlink:href="#Bg" x="-6.648" y="-9.976"/><use xlink:href="#Bj" x="-9.972" y="-6.651"/><use xlink:href="#CQ" x="6.654"/><path d="M18.716 39.594v-.665c.184 0 .332.149.332.333s-.149.333-.332.333z"/><use xlink:href="#Bh" x="-6.647" y="-6.651"/><use xlink:href="#Bx" x="-19.944"/><use xlink:href="#Bo" x="-19.944" y="-6.651"/></g></g><mask id="v" maskUnits="userSpaceOnUse" x="0" y="20" width="26" height="29"><path d="M19.821 24.263l5.953 1.046v23.073l-21.181-5.23-3.785-22.23 19.013 3.341z" class="C"/></mask><g mask="url(#v)"><mask id="w" maskUnits="userSpaceOnUse" x="25" y="35" width="8" height="8"><path d="M25.363 42.586h6.65v-6.651h-6.65v6.651z" class="C"/></mask><g mask="url(#w)" class="B"><use xlink:href="#Bt" x="-6.65"/><use xlink:href="#Bu" x="-6.65"/><use xlink:href="#Bm" x="-6.65" y="-6.651"/></g></g><mask id="x" maskUnits="userSpaceOnUse" x="0" y="20" width="26" height="29"><path d="M19.821 24.263l5.953 1.046v23.073l-21.181-5.23-3.785-22.23 19.013 3.341z" class="C"/></mask><g mask="url(#x)"><mask id="y" maskUnits="userSpaceOnUse" x="-2" y="29" width="8" height="7"><path d="M-1.236 35.936h6.65v-6.65h-6.65v6.65z" class="C"/></mask><g mask="url(#y)" class="B"><path d="M5.412 35.936H5.08c0-.183.149-.332.333-.332v.332z"/><use xlink:href="#CK" x="-13.3" y="-13.3"/><use xlink:href="#CC" x="-33.249"/><use xlink:href="#Bk" x="-33.249" y="-13.301"/><use xlink:href="#CR"/><path d="M2.277 29.559l-.047-.273h.19c0 .113-.057.213-.143.273z"/></g></g><mask id="z" maskUnits="userSpaceOnUse" x="0" y="20" width="26" height="29"><path d="M19.821 24.263l5.953 1.046v23.073l-21.181-5.23-3.785-22.23 19.013 3.341z" class="C"/></mask><g mask="url(#z)"><mask id="AA" maskUnits="userSpaceOnUse" x="5" y="29" width="8" height="7"><path d="M5.415 35.936h6.65v-6.65h-6.65v6.65z" class="C"/></mask><g mask="url(#AA)" class="B"><use xlink:href="#By" x="-19.948"/><use xlink:href="#CS"/><use xlink:href="#Be" x="-19.948" y="-13.3"/><use xlink:href="#CL" x="-13.302" y="-13.3"/><use xlink:href="#CB" x="-26.598"/><use xlink:href="#Bs" x="-18.287" y="-4.988"/><use xlink:href="#Bj" x="-26.598" y="-13.301"/><use xlink:href="#CP" y="-9.975"/><use xlink:href="#Bt" x="-26.599" y="-6.65"/><use xlink:href="#Bl" x="-26.598" y="-13.3"/><use xlink:href="#CA" x="-19.948"/><use xlink:href="#CG" x="-33.246"/><use xlink:href="#CD" x="-26.598"/></g></g><mask id="AB" maskUnits="userSpaceOnUse" x="0" y="20" width="26" height="29"><path d="M19.821 24.263l5.953 1.046v23.073l-21.181-5.23-3.785-22.23 19.013 3.341z" class="C"/></mask><g mask="url(#AB)"><mask id="AC" maskUnits="userSpaceOnUse" x="12" y="29" width="7" height="7"><path d="M12.062 35.936h6.65v-6.65h-6.65v6.65z" class="C"/></mask><g mask="url(#AC)" class="B"><path d="M18.712 35.936h-.333c0-.183.149-.332.333-.332v.332z"/><use xlink:href="#CS" x="6.647"/><use xlink:href="#CK" y="-13.3"/><use xlink:href="#CL" x="-6.654" y="-13.3"/><use xlink:href="#CB" x="-19.951"/><use xlink:href="#CC" x="-19.951"/><use xlink:href="#Bj" x="-19.951" y="-13.301"/><use xlink:href="#Bk" x="-19.951" y="-13.301"/><use xlink:href="#CQ" y="-6.65"/><use xlink:href="#CM" x="-6.654" y="-13.3"/><use xlink:href="#CR" x="13.3"/><use xlink:href="#CG" x="-26.598"/><use xlink:href="#CH" x="-26.598"/></g></g><mask id="AD" maskUnits="userSpaceOnUse" x="0" y="20" width="26" height="29"><path d="M19.821 24.263l5.953 1.046v23.073l-21.181-5.23-3.785-22.23 19.013 3.341z" class="C"/></mask><g mask="url(#AD)"><mask id="AE" maskUnits="userSpaceOnUse" x="18" y="29" width="8" height="7"><path d="M18.716 35.936h6.65v-6.65h-6.65v6.65z" class="C"/></mask><g mask="url(#AE)" class="B"><use xlink:href="#By" x="-6.647"/><use xlink:href="#CS" x="13.301"/><use xlink:href="#Be" x="-6.647" y="-13.3"/><use xlink:href="#CL" y="-13.3"/><use xlink:href="#Bz" x="-6.648"/><use xlink:href="#CB" x="-9.972"/><use xlink:href="#Bg" x="-6.648" y="-16.626"/><use xlink:href="#Bj" x="-9.972" y="-13.301"/><use xlink:href="#CQ" x="6.654" y="-6.65"/><use xlink:href="#CM" y="-13.3"/><use xlink:href="#CA" x="-6.647"/><use xlink:href="#CG" x="-19.944"/><use xlink:href="#CH" x="-19.944"/></g></g><mask id="AF" maskUnits="userSpaceOnUse" x="0" y="20" width="26" height="29"><path d="M19.821 24.263l5.953 1.046v23.073l-21.181-5.23-3.785-22.23 19.013 3.341z" class="C"/></mask><g mask="url(#AF)"><mask id="AG" maskUnits="userSpaceOnUse" x="25" y="29" width="8" height="7"><path d="M25.363 35.936h6.65v-6.65h-6.65v6.65z" class="C"/></mask><g mask="url(#AG)" class="B"><use xlink:href="#Bt" x="-6.65" y="-6.65"/><use xlink:href="#Bl" x="-6.65" y="-13.3"/><use xlink:href="#CD" x="-6.65"/></g></g><mask id="AH" maskUnits="userSpaceOnUse" x="0" y="20" width="26" height="29"><path d="M19.821 24.263l5.953 1.046v23.073l-21.181-5.23-3.785-22.23 19.013 3.341z" class="C"/></mask><g mask="url(#AH)"><mask id="AI" maskUnits="userSpaceOnUse" x="-2" y="22" width="8" height="8"><path d="M-1.236 29.286h6.65v-6.65h-6.65v6.65z" class="C"/></mask><g mask="url(#AI)" class="B"><path d="M5.412 29.286H5.08c0-.183.149-.332.333-.332v.332zm-2.992 0h-.19l-.054-.321c.141.039.245.168.245.321z"/><use xlink:href="#CK" x="-13.3" y="-19.951"/><path d="M2.088 26.293c-.184 0-.333-.149-.333-.333s.149-.332.333-.332.333.149.333.332-.149.333-.333.333z"/><use xlink:href="#Bk" x="-33.249" y="-16.626"/><use xlink:href="#CC" x="-33.249" y="-9.976"/><use xlink:href="#CR" y="-6.651"/><path d="M2.088 22.967c-.184 0-.333-.149-.333-.332h.665c0 .184-.149.332-.333.332z"/></g></g><mask id="AJ" maskUnits="userSpaceOnUse" x="0" y="20" width="26" height="29"><path d="M19.821 24.263l5.953 1.046v23.073l-21.181-5.23-3.785-22.23 19.013 3.341z" class="C"/></mask><g mask="url(#AJ)"><mask id="AK" maskUnits="userSpaceOnUse" x="5" y="22" width="8" height="8"><path d="M5.415 29.286h6.65v-6.65h-6.65v6.65z" class="C"/></mask><g mask="url(#AK)" class="B"><use xlink:href="#By" x="-19.948" y="-6.65"/><use xlink:href="#CS" y="-6.65"/><use xlink:href="#Be" x="-19.948" y="-19.951"/><use xlink:href="#CL" x="-13.302" y="-19.951"/><use xlink:href="#Bj" x="-26.598" y="-16.626"/><use xlink:href="#CP" y="-13.3"/><use xlink:href="#CB" x="-26.598" y="-9.976"/><use xlink:href="#Bs" x="-18.287" y="-14.964"/><use xlink:href="#Bt" x="-26.599" y="-13.3"/><use xlink:href="#Bl" x="-26.598" y="-19.951"/><path d="M12.064 22.967c-.099 0-.188-.043-.249-.112l.249.044v.068z"/><use xlink:href="#CG" x="-33.246" y="-6.651"/><use xlink:href="#CD" x="-26.598" y="-6.651"/></g></g><mask id="AL" maskUnits="userSpaceOnUse" x="0" y="20" width="26" height="29"><path d="M19.821 24.263l5.953 1.046v23.073l-21.181-5.23-3.785-22.23 19.013 3.341z" class="C"/></mask><g mask="url(#AL)"><mask id="AM" maskUnits="userSpaceOnUse" x="12" y="22" width="7" height="8"><path d="M12.062 29.285h6.65v-6.65h-6.65v6.65z" class="C"/></mask><g mask="url(#AM)" class="B"><use xlink:href="#CN" x="13.298" y="-13.301"/><use xlink:href="#CO" x="6.647" y="-13.301"/><use xlink:href="#CK" y="-19.951"/><use xlink:href="#CL" x="-6.654" y="-19.951"/><use xlink:href="#Bj" x="-19.951" y="-16.627"/><use xlink:href="#Bk" x="-19.951" y="-16.627"/><use xlink:href="#CB" x="-19.951" y="-9.976"/><use xlink:href="#CC" x="-19.951" y="-9.976"/><use xlink:href="#CQ" y="-13.301"/><use xlink:href="#CM" x="-6.654" y="-19.951"/><path d="M12.062 22.967v-.068l.159.028a.33.33 0 0 1-.159.04z"/></g></g><mask id="AN" maskUnits="userSpaceOnUse" x="0" y="20" width="26" height="29"><path d="M19.821 24.263l5.953 1.046v23.073l-21.181-5.23-3.785-22.23 19.013 3.341z" class="C"/></mask><g mask="url(#AN)"><mask id="AO" maskUnits="userSpaceOnUse" x="18" y="22" width="8" height="8"><path d="M18.716 29.285h6.65v-6.65h-6.65v6.65z" class="C"/></mask><g mask="url(#AO)" class="B"><use xlink:href="#Bp" x="-6.647" y="-13.301"/><use xlink:href="#CO" x="13.301" y="-13.301"/><use xlink:href="#Be" x="-6.647" y="-19.951"/><use xlink:href="#CL" y="-19.951"/><use xlink:href="#Bg" x="-6.648" y="-19.952"/><use xlink:href="#Bj" x="-9.972" y="-16.627"/><path d="M20.378 24.63c-.182 0-.33-.147-.332-.329l.643.113c-.047.126-.169.216-.311.216z"/><use xlink:href="#CQ" x="6.654" y="-13.301"/><use xlink:href="#CM" y="-19.951"/></g></g><mask id="AP" maskUnits="userSpaceOnUse" x="0" y="20" width="26" height="29"><path d="M19.821 24.263l5.953 1.046v23.073l-21.181-5.23-3.785-22.23 19.013 3.341z" class="C"/></mask><g mask="url(#AP)"><mask id="AQ" maskUnits="userSpaceOnUse" x="25" y="22" width="8" height="8"><path d="M25.363 29.286h6.65v-6.65h-6.65v6.65z" class="C"/></mask><g mask="url(#AQ)" class="B"><use xlink:href="#Bt" x="-6.65" y="-13.3"/><use xlink:href="#Bl" x="-6.65" y="-19.951"/></g></g><mask id="AR" maskUnits="userSpaceOnUse" x="0" y="20" width="26" height="29"><path d="M19.821 24.263l5.953 1.046v23.073l-21.181-5.23-3.785-22.23 19.013 3.341z" class="C"/></mask><g mask="url(#AR)"><mask id="AS" maskUnits="userSpaceOnUse" x="-2" y="15" width="8" height="8"><path d="M-1.236 22.635h6.65v-6.651h-6.65v6.651z" class="C"/></mask><g mask="url(#AS)" class="B"><path d="M5.412 22.635H5.08c0-.184.149-.332.333-.332v.332zm-2.992 0h-.665c0-.184.149-.332.333-.332s.333.149.333.332z"/></g></g><mask id="AT" maskUnits="userSpaceOnUse" x="0" y="20" width="26" height="29"><path d="M19.821 24.263l5.953 1.046v23.073l-21.181-5.23-3.785-22.23 19.013 3.341z" class="C"/></mask><g mask="url(#AT)"><mask id="AU" maskUnits="userSpaceOnUse" x="5" y="15" width="8" height="8"><path d="M5.415 22.635h6.65v-6.651h-6.65v6.651z" class="C"/></mask><g mask="url(#AU)" class="B"><path d="M9.073 22.635h-.665c0-.167.123-.305.283-.329l.208.037c.103.056.174.166.174.292z"/><use xlink:href="#Bt" x="-26.599" y="-19.951"/></g></g><path d="M19.821 16.532v7.731L.808 20.921l19.013-4.39z" fill="#886d57"/><path d="M8.225 51.625l9.791-5.16-5.202-1.284-10.428 5.206 2.388-.321-.88.751 2.102-.493-2.153 1.89 3.763-1.397-.472.794 1.33-.644-.24.658zm24.872-3.468l-2.584-.946 5.221-1.289 15.275 2.635-2.92-.41.401 1.174-2.511-.766 1.184 1.51-1.811-.949-.183.679s-9.836-.819-12.072-1.638z" class="D"/><path d="M49.078 13.809l-.606 4.578-19.424 1.856.605-4.578 19.425-1.856z" class="E"/><mask id="AV" maskUnits="userSpaceOnUse" x="29" y="13" width="21" height="8"><path d="M49.072 13.809l-.606 4.578-19.424 1.856.605-4.578 19.425-1.856z" class="C"/></mask><g mask="url(#AV)"><mask id="AW" maskUnits="userSpaceOnUse" x="25" y="15" width="8" height="8"><path d="M25.359 22.635h6.65v-6.651h-6.65v6.651z" class="C"/></mask><g mask="url(#AW)" class="B"><use xlink:href="#CK" x="13.299" y="-26.601"/><use xlink:href="#Bg" x="3.322" y="-29.927"/><use xlink:href="#CR" x="26.599" y="-13.301"/></g></g><mask id="AX" maskUnits="userSpaceOnUse" x="29" y="13" width="21" height="8"><path d="M49.072 13.809l-.606 4.578-19.424 1.856.605-4.578 19.425-1.856z" class="C"/></mask><g mask="url(#AX)"><mask id="AY" maskUnits="userSpaceOnUse" x="32" y="15" width="7" height="8"><path d="M32.009 22.635h6.65v-6.651h-6.65v6.651z" class="C"/></mask><g mask="url(#AY)" class="B"><path d="M38.33 19.356c-.002-.015-.003-.03-.003-.046 0-.184.149-.332.332-.332v.347l-.329.031zm-2.998.287c-.183-.001-.33-.15-.33-.333s.149-.332.333-.332.333.149.333.332c0 .161-.115.296-.267.326l-.069.007zm-1.66-1.663c-.183 0-.332-.149-.332-.332s.149-.333.332-.333.333.149.333.333-.149.332-.333.332z"/><use xlink:href="#Bk" x="-0.004" y="-26.602"/><use xlink:href="#CM" x="13.293" y="-26.601"/><use xlink:href="#CA" x="6.646" y="-13.301"/><path d="M35.335 16.317c-.184 0-.333-.149-.333-.332h.665c0 .184-.149.332-.333.332z"/><use xlink:href="#CH" x="-6.651" y="-13.301"/></g></g><mask id="AZ" maskUnits="userSpaceOnUse" x="29" y="13" width="21" height="8"><path d="M49.072 13.809l-.606 4.578-19.424 1.856.605-4.578 19.425-1.856z" class="C"/></mask><g mask="url(#AZ)"><mask id="Aa" maskUnits="userSpaceOnUse" x="38" y="15" width="8" height="8"><path d="M38.663 22.635h6.65v-6.651h-6.65v6.651z" class="C"/></mask><g mask="url(#Aa)" class="B"><path d="M41.819 19.023a.33.33 0 0 1 .279-.026l-.279.026z"/><use xlink:href="#Bn" x="0.002" y="-26.602"/><use xlink:href="#CP" x="33.248" y="-23.276"/><path d="M38.663 19.325v-.347c.178 0 .323.14.332.316l-.332.032z"/><use xlink:href="#CR" x="39.901" y="-13.301"/><use xlink:href="#CG" x="0.003" y="-13.301"/><use xlink:href="#CH" x="0.003" y="-13.301"/></g></g><mask id="Ab" maskUnits="userSpaceOnUse" x="29" y="13" width="21" height="8"><path d="M49.072 13.809l-.606 4.578-19.424 1.856.605-4.578 19.425-1.856z" class="C"/></mask><g mask="url(#Ab)"><mask id="Ac" maskUnits="userSpaceOnUse" x="45" y="15" width="7" height="8"><path d="M45.314 22.635h6.65v-6.651h-6.65v6.651z" class="C"/></mask><g mask="url(#Ac)" class="B"><use xlink:href="#Bn" x="6.653" y="-26.602"/><path d="M48.639 16.317c-.184 0-.332-.149-.332-.332h.481l-.042.315c-.033.011-.069.017-.107.017z"/><use xlink:href="#CH" x="6.654" y="-13.301"/></g></g><mask id="Ad" maskUnits="userSpaceOnUse" x="29" y="13" width="21" height="8"><path d="M49.072 13.809l-.606 4.578-19.424 1.856.605-4.578 19.425-1.856z" class="C"/></mask><g mask="url(#Ad)"><mask id="Ae" maskUnits="userSpaceOnUse" x="25" y="9" width="8" height="7"><path d="M25.359 15.985h6.65v-6.65h-6.65v6.65z" class="C"/></mask><g mask="url(#Ae)" class="B"><use xlink:href="#Bp" x="-0.003" y="-26.601"/></g></g><mask id="Af" maskUnits="userSpaceOnUse" x="29" y="13" width="21" height="8"><path d="M49.072 13.809l-.606 4.578-19.424 1.856.605-4.578 19.425-1.856z" class="C"/></mask><g mask="url(#Af)"><mask id="Ag" maskUnits="userSpaceOnUse" x="32" y="9" width="7" height="7"><path d="M32.009 15.985h6.65v-6.65h-6.65v6.65z" class="C"/></mask><g mask="url(#Ag)" class="B"><use xlink:href="#Bp" x="6.646" y="-26.601"/><path d="M35.668 15.985h-.665c0-.184.149-.332.333-.332s.333.149.333.332z"/><use xlink:href="#CQ" x="19.948" y="-26.601"/></g></g><mask id="Ah" maskUnits="userSpaceOnUse" x="29" y="13" width="21" height="8"><path d="M49.072 13.809l-.606 4.578-19.424 1.856.605-4.578 19.425-1.856z" class="C"/></mask><g mask="url(#Ah)"><mask id="Ai" maskUnits="userSpaceOnUse" x="38" y="9" width="8" height="7"><path d="M38.663 15.984h6.65v-6.65h-6.65v6.65z" class="C"/></mask><g mask="url(#Ai)" class="B"><use xlink:href="#CN" x="39.899" y="-26.602"/><use xlink:href="#CI" x="0.002" y="-13.301"/><path d="M40.325 14.654c-.018 0-.036-.001-.053-.004l.168-.016a.33.33 0 0 1-.115.02zm3.325 0c-.171 0-.312-.129-.331-.295l.662-.063.001.026c0 .184-.149.332-.333.332z"/><use xlink:href="#CQ" x="26.601" y="-26.602"/></g></g><mask id="Aj" maskUnits="userSpaceOnUse" x="29" y="13" width="21" height="8"><path d="M49.072 13.809l-.606 4.578-19.424 1.856.605-4.578 19.425-1.856z" class="C"/></mask><g mask="url(#Aj)"><mask id="Ak" maskUnits="userSpaceOnUse" x="45" y="9" width="7" height="7"><path d="M45.314 15.984h6.65v-6.65h-6.65v6.65z" class="C"/></mask><g mask="url(#Ak)" class="B"><path d="M48.788 15.984h-.481a.33.33 0 0 1 .517-.276l-.037.276zm-1.812-1.33c-.184 0-.332-.149-.332-.332 0-.131.075-.244.184-.298l.236-.023c.141.039.244.168.244.321 0 .184-.149.332-.333.332z"/><use xlink:href="#CQ" x="33.252" y="-26.602"/></g></g><path d="M49.076 13.81l-19.424 1.856L5.477 8.042l19.424-1.856 24.175 7.623z" class="E"/><mask id="Al" maskUnits="userSpaceOnUse" x="5" y="6" width="45" height="10"><path d="M49.077 13.81l-19.425 1.856L5.478 8.042l19.424-1.856 24.175 7.623z" class="C"/></mask><g mask="url(#Al)"><mask id="Am" maskUnits="userSpaceOnUse" x="5" y="9" width="8" height="7"><path d="M5.411 15.985h6.65v-6.65h-6.65v6.65z" class="C"/></mask><g mask="url(#Am)" class="D"><use xlink:href="#Bh" x="-19.951" y="-33.252"/></g></g><mask id="An" maskUnits="userSpaceOnUse" x="5" y="6" width="45" height="10"><path d="M49.077 13.81l-19.425 1.856L5.478 8.042l19.424-1.856 24.175 7.623z" class="C"/></mask><g mask="url(#An)"><mask id="Ao" maskUnits="userSpaceOnUse" x="12" y="9" width="7" height="7"><path d="M12.061 15.985h6.65v-6.65h-6.65v6.65z" class="C"/></mask><g mask="url(#Ao)" class="D"><use xlink:href="#CP" x="6.646" y="-29.927"/><use xlink:href="#CJ" x="13.297" y="-33.252"/><use xlink:href="#Bx" x="-26.599" y="-26.601"/><use xlink:href="#Bo" x="-26.599" y="-33.252"/></g></g><mask id="Ap" maskUnits="userSpaceOnUse" x="5" y="6" width="45" height="10"><path d="M49.077 13.81l-19.425 1.856L5.478 8.042l19.424-1.856 24.175 7.623z" class="C"/></mask><g mask="url(#Ap)"><mask id="Aq" maskUnits="userSpaceOnUse" x="18" y="9" width="8" height="7"><path d="M18.718 15.985h6.65v-6.65h-6.65v6.65z" class="C"/></mask><g mask="url(#Aq)" class="D"><use xlink:href="#Be" x="-6.645" y="-33.252"/><use xlink:href="#CE" x="-19.942" y="-19.952"/><use xlink:href="#Bj" x="-13.294" y="-33.253"/><use xlink:href="#Bk" x="-13.295" y="-33.253"/><use xlink:href="#Bh" x="-6.645" y="-33.252"/><use xlink:href="#Bx" x="-19.942" y="-26.601"/><use xlink:href="#Bo" x="-19.942" y="-33.252"/></g></g><mask id="Ar" maskUnits="userSpaceOnUse" x="5" y="6" width="45" height="10"><path d="M49.077 13.81l-19.425 1.856L5.478 8.042l19.424-1.856 24.175 7.623z" class="C"/></mask><g mask="url(#Ar)"><mask id="As" maskUnits="userSpaceOnUse" x="25" y="9" width="8" height="7"><path d="M25.362 15.985h6.65v-6.65h-6.65v6.65z" class="C"/></mask><g mask="url(#As)" class="D"><use xlink:href="#Be" x="-0.001" y="-33.252"/><use xlink:href="#CL" x="6.646" y="-33.252"/><use xlink:href="#Bg" x="-0.001" y="-33.252"/><use xlink:href="#Bg" x="3.323" y="-33.252"/><use xlink:href="#Bg" x="-0.001" y="-36.578"/><use xlink:href="#Bg" x="3.323" y="-36.578"/><use xlink:href="#CM" x="6.646" y="-33.252"/><use xlink:href="#Bh" x="-0.001" y="-33.252"/><use xlink:href="#Bx" x="-13.298" y="-26.601"/><use xlink:href="#Bo" x="-13.298" y="-33.252"/></g></g><mask id="At" maskUnits="userSpaceOnUse" x="5" y="6" width="45" height="10"><path d="M49.077 13.81l-19.425 1.856L5.478 8.042l19.424-1.856 24.175 7.623z" class="C"/></mask><g mask="url(#At)"><mask id="Au" maskUnits="userSpaceOnUse" x="32" y="9" width="7" height="7"><path d="M32.01 15.985h6.65v-6.65h-6.65v6.65z" class="C"/></mask><g mask="url(#Au)" class="D"><use xlink:href="#CK" x="19.948" y="-33.252"/><path d="M35.335 12.992c-.184 0-.333-.149-.333-.333s.149-.332.333-.332.333.149.333.332-.149.333-.333.333z"/><use xlink:href="#Bj" x="-0.003" y="-29.928"/><use xlink:href="#CP" x="26.595" y="-26.602"/><use xlink:href="#Bj" x="-0.003" y="-33.253"/><use xlink:href="#CP" x="26.595" y="-29.927"/><use xlink:href="#CM" x="13.294" y="-33.252"/><path d="M35.336 9.667c-.171 0-.311-.128-.33-.293l.578.182a.33.33 0 0 1-.248.111z"/><use xlink:href="#Bo" x="-6.65" y="-33.252"/></g></g><mask id="Av" maskUnits="userSpaceOnUse" x="5" y="6" width="45" height="10"><path d="M49.077 13.81l-19.425 1.856L5.478 8.042l19.424-1.856 24.175 7.623z" class="C"/></mask><g mask="url(#Av)"><mask id="Aw" maskUnits="userSpaceOnUse" x="38" y="9" width="8" height="7"><path d="M38.663 15.985h6.65v-6.65h-6.65v6.65z" class="C"/></mask><g mask="url(#Aw)" class="D"><path d="M45.313 12.992c-.184 0-.333-.149-.333-.333 0-.047.01-.092.027-.132l.305.096v.369z"/><use xlink:href="#CE" x="0.003" y="-19.952"/><path d="M40.272 14.65c-.158-.025-.279-.163-.279-.328 0-.184.148-.333.332-.333s.333.149.333.333c0 .143-.091.265-.218.312l-.168.016zm3.048-.291l-.002-.037c0-.184.149-.333.333-.333.175 0 .318.135.332.306l-.662.063zm-2.995-3.03c-.184 0-.332-.149-.332-.332 0-.017.001-.034.004-.05l.627.198c-.054.11-.168.185-.298.185z"/><use xlink:href="#CM" x="19.947" y="-33.252"/></g></g><mask id="Ax" maskUnits="userSpaceOnUse" x="5" y="6" width="45" height="10"><path d="M49.077 13.81l-19.425 1.856L5.478 8.042l19.424-1.856 24.175 7.623z" class="C"/></mask><g mask="url(#Ax)"><mask id="Ay" maskUnits="userSpaceOnUse" x="45" y="9" width="7" height="7"><path d="M45.314 15.985h6.65v-6.65h-6.65v6.65z" class="C"/></mask><g mask="url(#Ay)" class="D"><path d="M46.828 14.024a.33.33 0 0 1 .148-.034.34.34 0 0 1 .089.012l-.236.023zm-1.514-1.032v-.369l.326.103c-.031.152-.165.266-.326.266z"/></g></g><mask id="Az" maskUnits="userSpaceOnUse" x="5" y="6" width="45" height="10"><path d="M49.077 13.81l-19.425 1.856L5.478 8.042l19.424-1.856 24.175 7.623z" class="C"/></mask><g mask="url(#Az)"><mask id="BA" maskUnits="userSpaceOnUse" x="5" y="2" width="8" height="8"><path d="M5.411 9.334h6.65v-6.65h-6.65v6.65z" class="C"/></mask><g mask="url(#BA)" class="D"><use xlink:href="#By" x="-19.951" y="-26.602"/><path d="M9.02 9.16l-.416-.131a.33.33 0 0 1 .416.132zM7.074 8.004a.33.33 0 0 1-.23-.093l.502-.048c-.06.085-.16.141-.272.141zm3.325 0c-.184 0-.333-.149-.333-.333a.34.34 0 0 1 .007-.069l.632-.06a.33.33 0 0 1 .026.13c0 .184-.149.333-.333.333z"/></g></g><mask id="BB" maskUnits="userSpaceOnUse" x="5" y="6" width="45" height="10"><path d="M49.077 13.81l-19.425 1.856L5.478 8.042l19.424-1.856 24.175 7.623z" class="C"/></mask><g mask="url(#BB)"><mask id="BC" maskUnits="userSpaceOnUse" x="12" y="2" width="7" height="8"><path d="M12.061 9.334h6.65v-6.65h-6.65v6.65z" class="C"/></mask><g mask="url(#BC)" class="D"><path d="M18.711 9.334h-.333c0-.183.149-.332.333-.332v.332z"/><use xlink:href="#CS" x="6.647" y="-26.602"/><use xlink:href="#Bv" x="-28.262" y="-31.59"/><use xlink:href="#Bs" x="-11.641" y="-31.59"/><use xlink:href="#CQ" y="-33.252"/></g></g><mask id="BD" maskUnits="userSpaceOnUse" x="5" y="6" width="45" height="10"><path d="M49.077 13.81l-19.425 1.856L5.478 8.042l19.424-1.856 24.175 7.623z" class="C"/></mask><g mask="url(#BD)"><mask id="BE" maskUnits="userSpaceOnUse" x="18" y="2" width="8" height="8"><path d="M18.718 9.334h6.65v-6.65h-6.65v6.65z" class="C"/></mask><g mask="url(#BE)" class="D"><use xlink:href="#By" x="-6.645" y="-26.602"/><path d="M22.377 9.334h-.665c0-.183.148-.332.332-.332s.333.149.333.332zm2.991-2.992a.33.33 0 0 1-.212-.077l.212.067v.01z"/><use xlink:href="#CB" x="-13.294" y="-26.602"/><use xlink:href="#CC" x="-13.295" y="-26.602"/><use xlink:href="#CQ" x="6.657" y="-33.252"/></g></g><mask id="BF" maskUnits="userSpaceOnUse" x="5" y="6" width="45" height="10"><path d="M49.077 13.81l-19.425 1.856L5.478 8.042l19.424-1.856 24.175 7.623z" class="C"/></mask><g mask="url(#BF)"><mask id="BG" maskUnits="userSpaceOnUse" x="25" y="2" width="8" height="8"><path d="M25.362 9.334h6.65v-6.65h-6.65v6.65z" class="C"/></mask><g mask="url(#BG)" class="D"><use xlink:href="#By" x="-0.001" y="-26.602"/><use xlink:href="#CS" x="19.948" y="-26.602"/><use xlink:href="#Bz" x="-0.001" y="-26.602"/><path d="M30.35 8.004c-.135 0-.251-.08-.303-.195l.472.149a.33.33 0 0 1-.169.046z"/><use xlink:href="#CQ" x="13.301" y="-33.252"/><path d="M25.362 6.342v-.01l.027.009-.027.001z"/></g></g><mask id="BH" maskUnits="userSpaceOnUse" x="5" y="6" width="45" height="10"><path d="M49.077 13.81l-19.425 1.856L5.478 8.042l19.424-1.856 24.175 7.623z" class="C"/></mask><g mask="url(#BH)"><mask id="BI" maskUnits="userSpaceOnUse" x="32" y="2" width="7" height="8"><path d="M32.01 9.334h6.65v-6.65h-6.65v6.65z" class="C"/></mask><g mask="url(#BI)" class="D"><use xlink:href="#CQ" x="19.948" y="-33.252"/></g></g><path d="M29.653 15.665l-.605 4.578-24.175-7.623.606-4.579 24.175 7.623z" fill="#b79a81"/><mask id="BJ" maskUnits="userSpaceOnUse" x="4" y="8" width="26" height="13"><path d="M29.65 15.665l-.605 4.578L4.87 12.621l.606-4.579 24.175 7.623z" class="C"/></mask><g mask="url(#BJ)"><mask id="BK" maskUnits="userSpaceOnUse" x="12" y="15" width="7" height="8"><path d="M12.061 22.635h6.65v-6.651h-6.65v6.651z" class="C"/></mask><g mask="url(#BK)" class="B"><use xlink:href="#CR" x="13.3" y="-13.301"/><path d="M15.715 16.041l-.178-.056h.182c0 .019-.002.038-.005.056z"/></g></g><mask id="BL" maskUnits="userSpaceOnUse" x="4" y="8" width="26" height="13"><path d="M29.65 15.665l-.605 4.578L4.87 12.621l.606-4.579 24.175 7.623z" class="C"/></mask><g mask="url(#BL)"><mask id="BM" maskUnits="userSpaceOnUse" x="18" y="15" width="8" height="8"><path d="M18.714 22.635h6.65v-6.651h-6.65v6.651z" class="C"/></mask><g mask="url(#BM)" class="B"><path d="M25.366 19.083l-.175-.055a.33.33 0 0 1 .175-.05v.105zm-4.658-1.469l-.583-.184a.33.33 0 0 1 .252-.116c.172 0 .315.131.331.3z"/><use xlink:href="#Bj" x="-9.974" y="-26.602"/><use xlink:href="#CA" x="-6.649" y="-13.301"/><use xlink:href="#CG" x="-19.946" y="-13.301"/><use xlink:href="#CH" x="-19.946" y="-13.301"/></g></g><mask id="BN" maskUnits="userSpaceOnUse" x="4" y="8" width="26" height="13"><path d="M29.65 15.665l-.605 4.578L4.87 12.621l.606-4.579 24.175 7.623z" class="C"/></mask><g mask="url(#BN)"><mask id="BO" maskUnits="userSpaceOnUse" x="25" y="15" width="8" height="8"><path d="M25.362 22.635h6.65v-6.651h-6.65v6.651z" class="C"/></mask><g mask="url(#BO)" class="B"><path d="M28.688 19.643c-.184 0-.332-.149-.332-.333s.149-.332.332-.332.332.149.332.332-.149.333-.332.333z"/><use xlink:href="#Bg" x="-0.002" y="-29.927"/><path d="M25.668 19.179l-.306-.096v-.105c.137 0 .255.083.306.202zm3.02-2.862c-.184 0-.332-.149-.332-.332h.665c0 .184-.149.332-.332.332z"/><use xlink:href="#CH" x="-13.298" y="-13.301"/></g></g><mask id="BP" maskUnits="userSpaceOnUse" x="4" y="8" width="26" height="13"><path d="M29.65 15.665l-.605 4.578L4.87 12.621l.606-4.579 24.175 7.623z" class="C"/></mask><g mask="url(#BP)"><mask id="BQ" maskUnits="userSpaceOnUse" x="-2" y="9" width="8" height="7"><path d="M-1.237 15.985h6.65v-6.65h-6.65v6.65z" class="C"/></mask><g mask="url(#BQ)" class="B"><path d="M5.412 12.792l-.331-.105-.001-.028c0-.184.149-.332.333-.332v.465zm-.001-3.125c-.053 0-.103-.012-.148-.034l.039-.298h.108v.333z"/></g></g><mask id="BR" maskUnits="userSpaceOnUse" x="4" y="8" width="26" height="13"><path d="M29.65 15.665l-.605 4.578L4.87 12.621l.606-4.579 24.175 7.623z" class="C"/></mask><g mask="url(#BR)"><mask id="BS" maskUnits="userSpaceOnUse" x="5" y="9" width="8" height="7"><path d="M5.41 15.985h6.65v-6.65H5.41v6.65z" class="C"/></mask><g mask="url(#BS)" class="B"><use xlink:href="#CK" x="-6.652" y="-33.252"/><use xlink:href="#CL" x="-13.306" y="-33.252"/><path d="M10.702 14.46l-.63-.199c.029-.155.164-.272.327-.272.184 0 .332.149.332.333 0 .049-.011.096-.03.138z"/><use xlink:href="#Bj" x="-26.602" y="-33.253"/><use xlink:href="#CP" x="-0.005" y="-29.927"/><path d="M5.666 12.872l-.255-.081v-.465c.184 0 .333.149.333.332 0 .081-.029.155-.077.213z"/><use xlink:href="#Bx" x="-33.25" y="-26.601"/><use xlink:href="#Bm" x="-26.603" y="-33.252"/></g></g><mask id="BT" maskUnits="userSpaceOnUse" x="4" y="8" width="26" height="13"><path d="M29.65 15.665l-.605 4.578L4.87 12.621l.606-4.579 24.175 7.623z" class="C"/></mask><g mask="url(#BT)"><mask id="BU" maskUnits="userSpaceOnUse" x="12" y="9" width="7" height="7"><path d="M12.061 15.985h6.65v-6.65h-6.65v6.65z" class="C"/></mask><g mask="url(#BU)" class="B"><use xlink:href="#CN" x="13.297" y="-26.601"/><path d="M15.718 15.985h-.182l-.451-.142c.053-.112.168-.19.3-.19.184 0 .333.149.333.332z"/><use xlink:href="#CK" x="-0.001" y="-33.252"/><use xlink:href="#CE" x="-26.6" y="-19.952"/><use xlink:href="#Bj" x="-19.952" y="-29.927"/><use xlink:href="#CP" x="6.646" y="-26.601"/><use xlink:href="#Bj" x="-19.952" y="-33.253"/><use xlink:href="#CM" x="-6.655" y="-33.252"/></g></g><mask id="BV" maskUnits="userSpaceOnUse" x="4" y="8" width="26" height="13"><path d="M29.65 15.665l-.605 4.578L4.87 12.621l.606-4.579 24.175 7.623z" class="C"/></mask><g mask="url(#BV)"><mask id="BW" maskUnits="userSpaceOnUse" x="18" y="9" width="8" height="7"><path d="M18.714 15.985h6.65v-6.65h-6.65v6.65z" class="C"/></mask><g mask="url(#BW)" class="B"><use xlink:href="#Bp" x="-6.649" y="-26.601"/><use xlink:href="#CI" x="-19.946" y="-13.3"/><use xlink:href="#Bj" x="-13.298" y="-29.927"/><use xlink:href="#Bj" x="-9.974" y="-29.927"/><use xlink:href="#Bw" x="-19.945" y="-26.601"/><use xlink:href="#CF" x="-19.946" y="-19.952"/></g></g><mask id="BX" maskUnits="userSpaceOnUse" x="4" y="8" width="26" height="13"><path d="M29.65 15.665l-.605 4.578L4.87 12.621l.606-4.579 24.175 7.623z" class="C"/></mask><g mask="url(#BX)"><mask id="BY" maskUnits="userSpaceOnUse" x="25" y="9" width="8" height="7"><path d="M25.362 15.985h6.65v-6.65h-6.65v6.65z" class="C"/></mask><g mask="url(#BY)" class="B"><path d="M29.02 15.985h-.665c0-.184.149-.332.332-.332s.332.149.332.332z"/><use xlink:href="#CQ" x="13.3" y="-26.601"/></g></g><mask id="BZ" maskUnits="userSpaceOnUse" x="4" y="8" width="26" height="13"><path d="M29.65 15.665l-.605 4.578L4.87 12.621l.606-4.579 24.175 7.623z" class="C"/></mask><g mask="url(#BZ)"><mask id="Ba" maskUnits="userSpaceOnUse" x="-2" y="2" width="8" height="8"><path d="M-1.237 9.334h6.65v-6.65h-6.65v6.65z" class="C"/></mask><g mask="url(#Ba)" class="B"><path d="M5.414 9.334h-.108l.043-.326c.021-.004.043-.006.065-.006v.332z"/></g></g><mask id="Bb" maskUnits="userSpaceOnUse" x="4" y="8" width="26" height="13"><path d="M29.65 15.665l-.605 4.578L4.87 12.621l.606-4.579 24.175 7.623z" class="C"/></mask><g mask="url(#Bb)"><mask id="Bc" maskUnits="userSpaceOnUse" x="5" y="2" width="8" height="8"><path d="M5.41 9.334h6.65v-6.65H5.41v6.65z" class="C"/></mask><g mask="url(#Bc)" class="B"><path d="M9.069 9.334h-.665c0-.136.082-.254.2-.305l.416.131a.33.33 0 0 1 .049.174zm-3.326 0H5.41v-.332c.184 0 .333.149.333.332z"/></g></g><path d="M42.288 14.458L16.48 6.99l-2.635.252 25.521 7.495h0l2.922-.279h0z" class="D"/><path d="M39.365 14.738l-.755 5.709.467-.74.305 1.834.796-2.497.145 1.186.579-1.063.602 1.219.784-5.928-2.922.279zm-25.827 2.693l.7-1.009.039 2.054 1.025-1.679.171 1.059.922-1.874.654 1.913.788-5.956-3.43-1.082-.869 6.573z" class="B"/><path d="M35.702 9.591l-2.981-.94-18.314 2.207h0l3.43 1.082h0l17.865-2.348z" class="D"/><path d="M34.476 3.621s.133 5.471-8.679 6.727c5.033-1.724 6.38-6.202 6.38-6.202 1.333-.481 2.298-.525 2.298-.525z" class="B"/><g class="D"><path d="M32.178 4.146c-1.962.709-4.719 2.362-6.38 6.202 0 0 1.217-8.725 5.706-8.679l2.973 1.951s-.966.045-2.298.525z"/><path d="M22.541.484c4.347 1.122 3.256 9.864 3.256 9.864-.605-4.142-2.841-6.453-4.551-7.648-1.164-.811-2.083-1.105-2.083-1.105L22.541.484z"/></g><path d="M21.248 2.7s.137 4.674 4.551 7.648c-8.185-3.505-6.634-8.752-6.634-8.752s.919.294 2.083 1.105z" class="B"/><defs ><path id="Be" d="M32.013 46.244c-.184 0-.332-.149-.332-.333s.149-.332.332-.332v.665z"/><path id="Bf" d="M28.689 46.244c-.184 0-.333-.149-.333-.333s.149-.332.333-.332.332.149.332.332-.149.333-.332.333z"/><path id="Bg" d="M27.026 47.907c-.184 0-.332-.149-.332-.332s.149-.333.332-.333.332.149.332.333-.149.332-.332.332z"/><path id="Bh" d="M32.013 42.919c-.184 0-.332-.149-.332-.333h.332v.333z"/><path id="Bi" d="M28.689 42.919c-.184 0-.333-.149-.333-.333h.665c0 .184-.149.333-.332.333z"/><path id="Bj" d="M33.675 44.582c-.184 0-.332-.149-.332-.332s.149-.333.332-.333.333.149.333.333-.149.332-.333.332z"/><path id="Bk" d="M37 44.582c-.184 0-.333-.149-.333-.332s.149-.333.333-.333.333.149.333.333-.149.332-.333.332z"/><path id="Bl" d="M32.013 46.244v-.665c.184 0 .333.149.333.332s-.149.333-.333.333z"/><path id="Bm" d="M32.013 42.919v-.333h.333c0 .184-.149.333-.333.333z"/><path id="Bn" d="M40.323 44.582c-.184 0-.332-.149-.332-.332s.148-.333.332-.333.333.149.333.333-.149.332-.333.332z"/><path id="Bo" d="M38.66 42.919v-.333h.332c0 .184-.149.333-.332.333z"/><path id="Bp" d="M32.013 42.586h-.332c0-.184.149-.332.332-.332v.332z"/><path id="Bq" d="M29.022 42.586h-.665c0-.184.149-.332.333-.332s.332.149.332.332z"/><path id="Br" d="M32.013 39.594c-.184 0-.332-.149-.332-.333s.149-.333.332-.333v.665z"/><path id="Bs" d="M28.689 39.594c-.184 0-.333-.149-.333-.333s.149-.333.333-.333.332.149.332.333-.149.333-.332.333z"/><path id="Bt" d="M32.346 42.586h-.333v-.332c.184 0 .333.149.333.332z"/><path id="Bu" d="M32.013 39.594v-.665c.184 0 .333.149.333.333s-.149.333-.333.333z"/><path id="Bv" d="M41.986 39.594c-.184 0-.332-.149-.332-.333s.148-.333.332-.333.333.149.333.333-.149.333-.333.333z"/><path id="Bw" d="M38.992 42.586h-.332v-.332c.183 0 .332.149.332.332z"/><path id="Bx" d="M41.986 36.268c-.184 0-.332-.149-.332-.333h.665c0 .184-.149.333-.333.333z"/><path id="By" d="M32.013 35.936h-.332c0-.183.149-.332.332-.332v.332z"/><path id="Bz" d="M27.026 34.606c-.184 0-.332-.149-.332-.333s.149-.333.332-.333.332.149.332.333-.149.333-.332.333z"/><path id="CA" d="M32.013 29.618c-.184 0-.332-.149-.332-.332h.332v.332z"/><path id="CB" d="M33.675 34.606c-.184 0-.332-.149-.332-.333s.149-.333.332-.333.333.149.333.333-.149.333-.333.333z"/><path id="CC" d="M37 34.606c-.184 0-.333-.149-.333-.333s.149-.333.333-.333.333.149.333.333-.149.333-.333.333z"/><path id="CD" d="M32.013 29.618v-.332h.333c0 .184-.149.332-.333.332z"/><path id="CE" d="M41.986 32.944c-.184 0-.332-.149-.332-.333s.148-.332.332-.332.333.149.333.332-.149.333-.333.333z"/><path id="CF" d="M38.66 32.944v-.665c.183 0 .332.149.332.332s-.149.333-.332.333z"/><path id="CG" d="M41.986 29.618c-.184 0-.332-.149-.332-.332h.665c0 .184-.149.332-.333.332z"/><path id="CH" d="M38.66 29.618v-.332h.332c0 .184-.149.332-.332.332z"/><path id="CI" d="M42.319 29.285h-.665c0-.184.148-.332.332-.332s.333.149.333.332z"/><path id="CJ" d="M5.414 42.919c-.184 0-.333-.149-.333-.333h.333v.333z"/><path id="CK" d="M18.712 46.244c-.184 0-.333-.149-.333-.333s.149-.332.333-.332v.665z"/><path id="CL" d="M22.042 46.244c-.184 0-.332-.149-.332-.333s.149-.332.332-.332.333.149.333.332-.149.333-.333.333z"/><path id="CM" d="M18.716 46.244v-.665c.184 0 .332.149.332.332s-.149.333-.332.333z"/><path id="CN" d="M5.414 42.586h-.333c0-.184.149-.332.333-.332v.332z"/><path id="CO" d="M9.073 42.586h-.665c0-.184.149-.332.332-.332s.333.149.333.332z"/><path id="CP" d="M10.402 41.256c-.184 0-.333-.149-.333-.332s.149-.333.333-.333.332.149.332.333-.149.332-.332.332z"/><path id="CQ" d="M12.394 42.586h-.332v-.332c.184 0 .332.149.332.332z"/><path id="CR" d="M5.412 29.618c-.184 0-.333-.149-.333-.332h.333v.332z"/><path id="CS" d="M9.073 35.936h-.665c0-.183.149-.332.332-.332s.333.149.333.332z"/></defs></svg>