<svg width="1500" height="1500" viewBox="0 0 1500 1500" fill="none" xmlns="http://www.w3.org/2000/svg">
<circle cx="750" cy="750" r="750" fill="url(#paint0_linear_550_17458)"/>
<path d="M1000.45 435.784C999.005 484.039 997.562 532.293 996.12 580.549C995.234 580.96 949.927 860.176 949.927 860.176C943.965 878.318 938.003 896.46 932.04 914.601C928.366 925.781 924.252 937.612 915.044 944.939C907.754 950.741 898.278 952.871 889.119 954.577C852.198 961.461 814.502 964.178 776.975 962.661C719.918 963.191 666.158 957.9 613.412 947.477C597.557 944.344 581.173 940.457 568.608 930.294C556.51 920.505 549.231 905.758 545.651 890.613C542.072 875.467 541.858 859.757 541.663 844.196C542.308 840.233 514.042 564.131 514.042 564.131C511.678 524.247 509.313 484.363 509.593 444.6C603.198 472.24 692.817 480.748 790.417 480.822C859.35 480.873 941.546 472.619 1000.45 435.784Z" fill="#E7D6BE"/>
<path d="M506.724 562.733C508.468 592.496 510.212 622.257 513.09 655.16C498.214 672.605 490.287 695.818 491.384 718.719C492.48 741.619 502.59 763.967 518.995 780.409C520.473 797.717 521.95 815.025 520.59 836.492C638.033 865.863 760.777 863.387 881.807 860.73C914.836 860.005 948.16 859.243 980.294 851.57C980.294 851.57 1012.48 584.55 1012.91 582.947C977.014 591.838 567.015 585.01 506.724 562.733Z" fill="#F8A847"/>
<path d="M491.635 301.584C480.03 332.214 476.119 424.123 499.658 439.104C523.196 454.085 653.014 490.894 794.751 482.652C936.49 474.409 992.806 444.761 1004.34 431.034C1015.87 417.307 1042.4 343.179 1013.4 302.838C976.539 251.562 880.693 230.892 755.742 230.148C630.789 229.402 513.95 242.687 491.635 301.584Z" fill="#765D4A"/>
<path d="M505.809 582.299C507.114 592.59 508.419 602.882 510.404 617.797C471.794 623.676 437.722 652.981 426.135 690.277C414.547 727.573 426.013 771.026 453.476 794.178C449.014 803.73 440.799 811.465 431.972 813.187C396.638 779.287 382.155 725.217 395.814 678.195C409.473 631.172 450.668 593.276 505.809 582.299Z" fill="#4C1433"/>
<path d="M1012.8 596.054C1009.16 608.928 1006.57 622.098 1005.54 638.471C1031.66 651.829 1055.2 672.706 1065.31 700.242C1075.41 727.779 1069.2 762.293 1042.37 780.225C1041.84 791.7 1049.59 803.074 1059.96 806.165C1086.95 796.321 1105.33 768.87 1108.6 740.325C1111.87 711.779 1101.62 682.816 1084.83 659.5C1068.04 636.183 1045.11 617.954 1012.8 596.054Z" fill="#4C1433"/>
<path d="M596.926 541.899C585.564 548.337 576.309 558.424 570.872 570.297C577.82 573.502 584.769 576.706 591.734 580.198C583.182 585.148 575.08 590.874 567.66 597.28C567.918 607.137 569.53 616.958 572.032 628.317C586.075 625.906 600.839 627.893 613.746 633.93C620.18 606.67 616.837 577.209 596.926 541.899Z" fill="#4C1433"/>
<path d="M857.225 559.982C842.584 567.579 831.457 581.652 827.439 597.651C835.81 600.034 844.066 602.814 852.171 605.979C844.824 610.746 837.476 615.512 830.034 621.478C827.764 631.45 829.357 642.249 835.753 652.434C850.136 650.189 865.083 651.649 878.759 656.638C884.538 629.668 878.432 600.37 857.225 559.982Z" fill="#4C1433"/>
<path d="M746.449 1100C759.82 1108.8 775.53 1114 791.505 1114.92C791.247 1127.49 790.988 1140.06 790.73 1152.63C768.966 1150.5 748.328 1143.68 729.105 1134.03C727.955 1139.17 726.805 1144.3 725.655 1149.43C709.933 1147.01 696.517 1141.48 687.097 1131.9C688.25 1124.21 689.402 1116.53 690.553 1108.84C648.948 1067.95 626.078 1008.55 629.87 952.309C645.379 953.071 660.887 953.832 679.866 958.944C670.59 997.705 681.684 1040.75 710.804 1070.12C721.893 1031.81 741.239 995.917 768.091 962.757C787.402 961.862 806.712 960.968 828.37 960.625C791.115 999.911 761.6 1046.51 746.449 1100Z" fill="#4C1433"/>
<path d="M596.878 540.13C584.288 546.189 574.726 558.2 571.641 571.827C577.694 574.07 583.747 576.312 591.362 579.572C583.921 584.991 576.481 590.41 568.776 595.349C567.287 605.539 568.023 616.047 571.278 627.083C560.859 627.073 550.447 629.714 540.094 635.301C533.662 610.089 537.041 582.507 549.368 559.592C553.67 551.594 559.211 543.97 566.91 539.156C574.609 534.34 584.785 532.78 596.878 540.13Z" fill="#FFF9EF"/>
<path d="M854.314 558.624C841.668 566.874 832.552 580.357 830.422 595.996C837.903 599.042 845.384 602.09 852.865 605.136C844.963 609.458 837.728 615 832.271 620.713C830.351 630.756 831.752 641.405 836.192 651.803C821.647 654.236 807.714 660.255 796.288 668.864C786.46 636.588 791.222 600.166 809.018 571.501C813.699 563.962 819.513 556.71 827.499 552.837C835.485 548.965 846.042 549.306 854.314 558.624Z" fill="#FFF9EF"/>
<path d="M1062.47 803.844L1087.07 787.62C1090.13 790.35 1090.99 794.786 1091.03 798.885C1091.16 813.348 1082.65 827.56 1069.84 834.272C1076.81 838.912 1081.13 842.561 1082.79 847.619C1084.5 852.83 1082.89 858.866 1079.15 862.874C1075.4 866.88 1069.75 868.88 1064.27 868.613C1061.52 876.369 1052.23 879.539 1044.94 876.527C1032.02 883.141 1017.23 883.895 1003.9 879.753C990.565 875.613 978.802 866.609 971.321 854.823C970.92 854.347 978.162 852.334 978.162 852.334L989.77 779.649C994.646 773.68 1002.69 770.462 1010.33 771.42C1012.47 759.109 1022.09 749.947 1033.3 748.042C1044.51 746.137 1056.62 751.607 1062.6 761.279C1058.74 768.781 1052.48 775.779 1043.76 782.075C1042.74 787.207 1044.04 792.753 1047.23 796.899C1050.42 801.046 1055.45 803.723 1062.47 803.844Z" fill="#FFF9EF"/>
<path d="M540.482 838.796C535.146 837.692 529.81 836.59 524.475 835.487C522.122 820.814 520.471 806.03 519.529 791.2C511.076 787.296 501.877 787.572 494.845 791.757C491.226 780.853 482.716 771.258 472.052 768.31C461.389 765.363 449.158 769.224 442.122 777.761C447.532 783.093 451.773 789.256 455.559 795.686C451.617 805.944 442.042 812.779 431.773 813.579C427.914 807.971 423.09 802.66 421.806 798.64C411.339 806.228 407.424 821.61 412.988 833.279C418.553 844.947 432.97 851.586 447.95 846.277C448.613 854.902 453.262 863.137 460.304 868.16C467.344 873.184 476.644 874.903 485.016 872.726C481.798 876.187 477.722 878.701 473.89 881.466C470.057 884.231 466.323 887.414 464.255 891.663C462.186 895.911 462.164 901.457 465.313 904.982C468.049 908.043 472.455 908.95 476.557 909.129C484.784 909.487 493.098 907.577 502.628 902.953C517.929 906.513 535.115 899.485 545.201 885.796C542.1 872.954 541.192 859.585 540.482 838.796Z" fill="#FFF9EF"/>
<path d="M730.922 1252.63C727.252 1242.25 731.793 1226.16 737.833 1216.95C743.871 1207.74 753.135 1201.02 763.079 1196.3C762.109 1187.1 760.007 1179.58 755.894 1173.38C757.557 1171.53 759.221 1169.69 760.885 1167.84C759.738 1160.35 760.212 1152.89 761.823 1145.68C750.095 1143.68 739.341 1139.73 729.918 1133.7C727.742 1138.12 726.017 1143.3 724.292 1148.48C709.548 1148.78 694.762 1143.29 683.779 1133.45C687.196 1124.17 690.614 1114.9 694.032 1105.62C689.157 1105.25 684.472 1102.82 681.926 1099.77C672.58 1106.95 663.882 1115.46 658.847 1126.12C653.811 1136.78 652.932 1149.91 659.69 1161.06C652.232 1161.42 645.015 1165.29 640.47 1171.98C629.669 1163.26 614.69 1160.26 601.161 1163.37C587.632 1166.49 575.706 1175.44 568.231 1187.14C558.141 1202.94 556.712 1225.04 568.107 1239.92C573.735 1247.27 582.124 1251.85 590.558 1255.66C620.83 1269.35 682.229 1265.66 730.922 1252.63Z" fill="#D25F4A"/>
<path d="M830.711 1092.96C823.756 1080.73 808.491 1073.85 794.72 1076.75C780.95 1079.65 769.751 1092.09 768.319 1106.09C774.967 1108.66 782.196 1110.27 789.426 1111.88C792.563 1123.61 792.672 1134.97 789.744 1145.51C788.977 1148.27 787.7 1151.3 785.006 1152.26C783.483 1152.8 781.808 1152.56 780.211 1152.31C773.029 1151.18 765.846 1150.05 759.513 1148.23C757.405 1156.34 758.339 1165.19 762.091 1172.68C765.843 1180.17 772.38 1186.22 783.005 1190.04C772.896 1192.35 762.684 1194.69 753.372 1199.25C744.06 1203.81 735.592 1210.86 731.336 1220.32C727.08 1229.77 727.779 1241.81 734.704 1249.53C739.104 1254.43 745.401 1257.15 751.598 1259.39C770.272 1266.14 790.199 1269.93 810.018 1268.7C829.837 1267.46 849.552 1261.03 865.276 1248.9C880.849 1236.89 892.019 1219.68 898.287 1201.04C904.555 1182.4 906.09 1162.38 904.48 1142.78C903.468 1130.45 901.168 1118.04 895.592 1107.01C890.015 1095.97 880.844 1086.37 869.19 1082.25C857.536 1078.12 843.381 1080.25 830.711 1092.96Z" fill="#D25F4A"/>
<path d="M644.71 292.132C624.073 289.308 602.85 297.786 584.944 307.616C579.908 310.548 575.113 313.878 570.542 317.49C569.465 318.563 568.84 320.062 568.847 321.582C568.685 326.559 575.309 329.312 578.726 325.674C591.171 315.485 613.396 305.594 634.727 302.205C640.568 300.553 641.48 302.226 645.665 299.542C647.841 297.466 647.313 293.611 644.71 292.132Z" fill="#FFF9EF"/>
<path d="M676.937 287.213C673.298 287.574 669.408 287.346 665.922 288.428C660.105 290.497 662.037 299.806 668.167 299.578C673.522 298.253 685.792 299.863 685.13 291.745C684.788 287.664 680.318 286.783 676.937 287.213Z" fill="#FFF9EF"/>
<path d="M982.354 658.257C980.284 652.458 970.978 654.359 971.204 660.501C970.337 677.356 968.967 694.192 968.457 711.062C968.438 715.085 968.458 719.11 968.678 723.129C968.645 724.803 969.608 726.307 971.001 727.181C972.808 728.263 975.196 727.909 976.686 726.447C978.644 724.319 978.195 721.055 978.791 718.387C980.812 703.79 981.033 689.023 982.046 674.338C981.945 669.04 983.581 663.392 982.354 658.257Z" fill="#FFF9EF"/>
<path d="M974.486 746.223C971.064 742.558 964.374 745.326 964.54 750.342C964.368 754.297 962.493 759.164 965.541 762.428C968.389 765.391 973.799 763.989 974.799 759.984C975.503 756.057 977.604 749.295 974.486 746.223Z" fill="#FFF9EF"/>
<path d="M628.888 917.531C627.085 915.884 624.421 915.774 622.218 914.893C599.489 909.045 583.121 898.943 581.943 883.663C581.231 878.477 583.505 879.872 581.543 874.421C579.177 870.046 572.061 870.962 570.894 875.813C566.057 900.689 590.317 919.33 612.432 923.496C617.005 923.986 623.744 926.644 627.923 925.024C630.579 923.545 631.058 919.647 628.888 917.531Z" fill="#FFF9EF"/>
<path d="M763.564 1217.29C755.657 1220.6 748.018 1228.41 747.549 1237.25C748.001 1243.17 757.124 1243.74 758.484 1238C760.38 1232.23 764.222 1228.42 771.709 1226.09C775.039 1224.61 779.04 1226.88 780.523 1221.25C781.038 1213.3 768.231 1215.21 763.564 1217.29Z" fill="#FFF9EF"/>
<path d="M797.895 1214.7C794.925 1216.31 795.554 1221.13 798.838 1221.92C801.425 1223.22 805.186 1223.34 806.088 1219.96C807.26 1215.74 801.132 1213.14 797.895 1214.7Z" fill="#FFF9EF"/>
<path d="M607.246 1233.74C605.426 1232.07 602.768 1232.08 600.514 1231.2C596.012 1228.97 596.836 1229.47 593.572 1226.19C590.891 1223.72 588.815 1216.15 590.096 1212.43C592 1205.42 581.342 1202.49 579.363 1209.47C576.182 1222.1 583.255 1236.3 595.721 1240.58C599.529 1241.72 605.362 1243.7 608.004 1239.61C609.124 1237.75 608.755 1235.28 607.246 1233.74Z" fill="#FFF9EF"/>
<path d="M636.379 1235.97C632.816 1235.58 633.159 1236.14 632.127 1236.43C631.876 1236.45 631.527 1236.45 631.124 1236.45C631.027 1236.43 630.926 1236.42 630.831 1236.39C630.687 1236.34 630.586 1236.31 630.485 1236.28C629.154 1235.66 627.695 1235.32 626.244 1235.77C621.561 1236.89 620.666 1243.76 624.899 1246.06C629.247 1248.38 635.778 1248.5 639.237 1244.6C641.757 1241.78 639.991 1236.84 636.379 1235.97Z" fill="#FFF9EF"/>
<path d="M865.658 304.159C855.1 303.306 844.4 304.249 834.155 306.937C829.226 308.23 824.197 310.053 820.713 313.771C817.229 317.489 815.811 323.572 818.716 327.758C821.018 331.078 825.258 332.37 829.221 333.159C845.275 336.352 862.242 334.813 877.461 328.784C879.914 327.813 882.429 326.644 884.016 324.538C886.535 321.191 885.941 316.228 883.548 312.791C881.154 309.355 877.681 305.13 865.658 304.159Z" fill="#4C1433"/>
<path d="M820.426 344.104C800.859 340.383 796.585 323.757 809.26 310.968C814.963 305.254 821.119 303.483 830.234 300.242C833.388 298.086 830.737 292.797 827.098 293.947C816.844 296.652 806.293 301.227 799.895 310.052C787.101 328.145 797.612 348.417 818.882 351.538C822.514 351.713 829.331 354.94 830.423 349.672C830.801 344.536 823.75 345.512 820.426 344.104Z" fill="#4C1433"/>
<path d="M900.613 296.226C888.505 290.391 874.646 288.854 861.335 289.26C856.111 289.487 850.902 290.116 845.767 291.102C844.919 291.328 844.186 291.906 843.742 292.658C842.187 295.153 844.751 298.501 847.569 297.636C864.818 294.753 891.473 296.823 902.84 307.778C919.577 324.922 899.304 340.243 869.871 346.2C863.907 347.455 859.915 347.48 852.015 347.999C848.437 347.773 845.016 350.323 846.936 354.086C848.878 356.976 853.107 356.198 856.151 356.303C867.231 355.688 878.216 353.329 888.513 349.178C899.213 344.665 911.529 339.121 915.97 327.552C920.585 315.04 911.942 301.577 900.613 296.226Z" fill="#4C1433"/>
<path d="M1022.63 394.94C1021.26 391.679 1017.11 392.295 1015.39 394.923C1011.85 398.411 1008.23 401.826 1004.41 405.009C994.059 414.303 972.707 426.245 960.077 431.12C857.385 471.016 663.71 459.855 557.392 430.561C537.672 424.944 516.809 415.188 502.91 403.991C496.786 399.094 491.164 393.56 486.259 387.44C485.505 386.693 484.486 386.261 483.42 386.264C480.043 386.155 478.004 390.746 480.582 393.117C520.312 440.648 587.072 446.845 644.455 455.941C736.263 467.612 872.064 471.357 958.891 439.249C980.503 430.969 1000.89 419.121 1017.76 403.181C1019.84 400.795 1024.05 398.532 1022.63 394.94Z" fill="#4C1433"/>
<path d="M564.699 804.003C564.508 804.003 564.317 803.991 564.121 803.962C524.96 798.509 491.712 764.804 486.788 725.574C481.864 686.344 505.748 645.468 542.343 630.496C578.939 615.528 624.625 627.941 648.602 659.389C649.999 661.221 649.648 663.837 647.816 665.234C645.984 666.639 643.36 666.277 641.971 664.448C620.205 635.904 578.726 624.622 545.504 638.218C512.276 651.809 490.592 688.917 495.064 724.532C499.536 760.154 529.717 790.75 565.27 795.702C567.551 796.02 569.143 798.125 568.825 800.406C568.536 802.492 566.749 804.003 564.699 804.003Z" fill="#4C1433"/>
<path d="M799.052 815.301C798.502 815.301 797.94 815.19 797.403 814.958C763.064 800.129 742.511 757.285 751.581 719.456C760.298 683.105 793.529 653.927 832.389 648.497C868.487 643.459 908.215 659.096 933.601 688.347C935.113 690.087 934.925 692.722 933.186 694.228C931.446 695.743 928.811 695.556 927.305 693.813C903.723 666.639 866.899 652.106 833.546 656.757C797.997 661.722 767.629 688.307 759.694 721.403C751.524 755.469 769.922 794.003 800.71 807.302C802.823 808.213 803.797 810.67 802.884 812.784C802.204 814.359 800.669 815.301 799.052 815.301Z" fill="#4C1433"/>
<path d="M698.451 869.537C698.098 869.537 697.739 869.533 697.385 869.525C695.083 869.464 693.263 867.545 693.324 865.244C693.385 862.98 695.237 861.183 697.49 861.183H697.604C707.408 861.436 717.492 856.988 723.904 849.559C725.403 847.808 728.038 847.624 729.785 849.128C731.527 850.631 731.724 853.266 730.216 855.008C722.326 864.156 710.515 869.537 698.451 869.537Z" fill="#4C1433"/>
<path d="M540.024 638.76C538.07 638.76 536.326 637.379 535.935 635.387C531.377 612.062 533.764 587.082 542.66 565.052C547.485 553.102 553.417 544.504 560.78 538.769C570.583 531.132 583.336 528.998 593.27 533.352C602.964 537.592 609.892 547.229 614.441 562.816C621.089 585.624 622.241 610.004 617.773 633.335C617.337 635.595 615.134 637.057 612.889 636.646C610.628 636.21 609.146 634.027 609.578 631.762C613.801 609.729 612.714 586.696 606.433 565.154C602.617 552.087 597.216 544.183 589.926 540.993C582.757 537.856 573.329 539.571 565.904 545.351C559.729 550.161 554.659 557.627 550.394 568.175C542.097 588.723 539.869 612.03 544.121 633.791C544.562 636.051 543.087 638.242 540.827 638.683C540.558 638.735 540.289 638.76 540.024 638.76Z" fill="#4C1433"/>
<path d="M571.612 629.933C569.69 629.933 567.962 628.597 567.539 626.642C565.259 616.085 564.655 605.283 565.747 594.54C565.87 593.362 566.481 592.291 567.437 591.59C573.152 587.415 578.699 583.994 584.209 581.257L569.975 575.355C568.117 574.585 567.075 572.602 567.49 570.635C570.488 556.551 581.195 544.34 594.763 539.522C596.937 538.756 599.316 539.885 600.091 542.056C600.859 544.227 599.728 546.612 597.557 547.382C587.736 550.869 579.786 559.17 576.548 569.05L596.534 577.335C598.127 577.994 599.149 579.563 599.108 581.285C599.067 583.009 597.972 584.528 596.355 585.11C588.975 587.774 581.607 591.749 573.876 597.231C573.12 606.493 573.731 615.788 575.693 624.882C576.178 627.135 574.748 629.354 572.496 629.84C572.198 629.905 571.905 629.933 571.612 629.933Z" fill="#4C1433"/>
<path d="M794.086 669.315C792.139 669.315 790.397 667.943 790.001 665.959C784.397 637.84 787.896 608.001 799.857 581.942C805.092 570.534 810.822 562.718 817.901 557.333C827.473 550.055 839.415 547.982 849.084 551.941C858.92 555.969 864.76 565.169 868.755 572.737C881.969 597.794 887.345 627.074 883.895 655.19C883.618 657.475 881.61 659.124 879.248 658.819C876.963 658.542 875.337 656.46 875.619 654.172C878.86 627.73 873.802 600.194 861.375 576.63C858.044 570.31 853.274 562.669 845.922 559.663C839.088 556.865 830.075 558.564 822.951 563.972C817.009 568.494 812.076 575.308 807.442 585.42C796.204 609.899 792.918 637.92 798.18 664.33C798.632 666.585 797.165 668.786 794.905 669.233C794.632 669.29 794.355 669.315 794.086 669.315Z" fill="#4C1433"/>
<path d="M834.502 652.03C832.767 652.03 831.147 650.938 830.556 649.207C827.252 639.543 826.169 629.07 827.424 618.933C827.595 617.519 828.474 616.297 829.757 615.683C835.663 612.844 841.325 609.499 846.652 605.696C841.068 604.185 835.39 603.044 829.684 602.299C827.517 602.018 825.937 600.108 826.064 597.925C827.045 580.904 837.427 564.767 852.504 556.808C854.55 555.737 857.062 556.511 858.141 558.552C859.217 560.588 858.434 563.113 856.399 564.188C844.974 570.216 836.787 581.885 834.795 594.618C842.298 595.828 849.735 597.672 856.953 600.116C858.386 600.6 859.445 601.826 859.718 603.314C859.99 604.8 859.437 606.319 858.272 607.284C851.259 613.067 843.597 618.07 835.472 622.166C834.775 630.362 835.794 638.736 838.449 646.511C839.194 648.69 838.029 651.06 835.851 651.806C835.403 651.957 834.951 652.03 834.502 652.03Z" fill="#4C1433"/>
<path d="M634.463 861.557C634.381 861.557 634.301 861.553 634.219 861.548C595.644 859.325 557.647 851.566 521.293 838.484C519.765 837.931 518.694 836.545 518.552 834.924L513.966 783.01C513.762 780.717 515.46 778.693 517.754 778.49C520.112 778.318 522.07 779.98 522.274 782.277L526.624 831.527C561.464 843.8 597.811 851.098 634.699 853.224C637.001 853.355 638.757 855.325 638.622 857.627C638.496 859.842 636.654 861.557 634.463 861.557Z" fill="#4C1433"/>
<path d="M843.333 865.129C820.798 865.129 798.359 864.49 776.072 863.207C773.775 863.077 772.016 861.106 772.15 858.805C772.28 856.503 774.317 854.74 776.552 854.881C841.741 858.629 908.316 856.841 974.482 849.587C986.602 764.165 999.082 675.938 1008.29 584.695C980.501 590.076 933.475 592.104 909.469 591.118C907.167 591.025 905.38 589.082 905.473 586.781C905.563 584.536 907.412 582.781 909.636 582.781C909.693 582.781 909.75 582.781 909.811 582.785C935.026 583.807 986.163 581.486 1012.05 575.365C1013.35 575.067 1014.74 575.397 1015.75 576.285C1016.77 577.173 1017.29 578.497 1017.16 579.837C1007.77 674.414 994.814 765.689 982.284 853.961C982.016 855.843 980.51 857.306 978.62 857.522C933.545 862.587 888.257 865.129 843.333 865.129Z" fill="#4C1433"/>
<path d="M511.899 660.916C509.745 660.916 507.915 659.258 507.745 657.071L500.503 564.619C500.406 563.357 500.886 562.119 501.806 561.251C502.732 560.388 503.977 559.977 505.253 560.164L530.769 563.809C533.049 564.134 534.634 566.248 534.309 568.529C533.982 570.806 531.897 572.403 529.588 572.069L509.228 569.157L516.062 656.419C516.241 658.717 514.526 660.725 512.23 660.904C512.119 660.912 512.01 660.916 511.899 660.916Z" fill="#4C1433"/>
<path d="M513.457 564.909C511.282 564.909 509.449 563.223 509.298 561.023L501.234 443.506C501.079 441.21 502.814 439.218 505.111 439.059C507.514 439.011 509.4 440.644 509.559 442.936L517.623 560.453C517.778 562.751 516.044 564.742 513.746 564.9C513.648 564.905 513.55 564.909 513.457 564.909Z" fill="#4C1433"/>
<path d="M767.648 967.372C716.96 967.372 666.338 962.713 616.265 953.41C598.328 950.078 577.963 945.419 563.285 932.211C539.621 910.917 537.893 875.536 538.134 844.043C538.15 841.742 539.881 839.942 542.337 839.905C544.638 839.921 546.492 841.803 546.475 844.109C546.247 873.785 547.775 907.036 568.864 926.012C581.934 937.77 600.197 941.941 617.788 945.207C701.202 960.704 786.188 963.181 870.376 952.571C884.994 950.73 900.166 948.168 910.893 939.029C931.816 921.202 939.294 878.83 943.31 856.067C943.71 853.798 945.872 852.275 948.141 852.686C950.41 853.085 951.925 855.248 951.521 857.517C945.713 890.459 937.718 927.135 916.303 945.379C903.823 956.009 887.286 958.848 871.419 960.847C836.912 965.198 802.264 967.368 767.648 967.372Z" fill="#4C1433"/>
<path d="M995.081 583.674C994.951 583.674 994.82 583.67 994.69 583.658C992.397 583.442 990.711 581.41 990.922 579.116C995.349 531.756 997.806 483.614 998.222 436.021C998.242 433.724 1000.12 431.864 1002.43 431.887C1004.73 431.908 1006.58 433.79 1006.56 436.095C1006.14 483.919 1003.67 532.303 999.232 579.89C999.028 582.053 997.211 583.674 995.081 583.674Z" fill="#4C1433"/>
<path d="M745.937 235.522C541.817 239.538 504.468 275.832 494.131 302.786C484.079 329.009 481.276 413.697 495.699 429.464C504.399 438.969 517.53 443.198 530.233 446.712C591.055 463.549 653.2 469.924 705.973 473.94C796.18 480.806 891.234 481.987 975.179 444.472C984.725 440.203 994.549 435.197 1001.71 427.541C1026.5 401.051 1023.93 342.571 1012.67 312.281C1009.22 302.978 992.443 282.617 951.481 265.291C901.515 244.153 830.437 233.84 745.937 235.522ZM792.294 486.048C763.136 486.048 733.995 484.44 705.337 482.257C652.169 478.212 589.519 471.78 528.009 454.752C514.745 451.078 499.735 446.231 489.548 435.092C471.453 415.318 476.011 326.752 486.343 299.797C509.465 239.506 637.136 229.319 745.774 227.18C832.658 225.49 902.96 235.709 954.733 257.605C995.482 274.842 1015.63 296.265 1020.49 309.372C1032.79 342.478 1035.22 403.938 1007.81 433.243C999.627 441.979 988.929 447.462 978.583 452.088C919.819 478.351 856.036 486.048 792.294 486.048Z" fill="#4C1433"/>
<path d="M767.701 402.187C717.465 402.187 667.323 397.283 617.752 387.488C575.784 379.195 516.351 362.895 484.913 317.278C483.606 315.38 484.083 312.786 485.98 311.478C487.882 310.175 490.472 310.656 491.78 312.546C521.497 355.662 578.826 371.294 619.365 379.302C701.366 395.507 784.967 398.192 867.847 387.263C870.201 386.958 872.225 388.575 872.527 390.852C872.828 393.136 871.219 395.23 868.939 395.532C835.263 399.972 801.458 402.187 767.701 402.187Z" fill="#4C1433"/>
<path d="M904.882 387.533C902.748 387.533 900.932 385.904 900.732 383.742C900.525 381.448 902.215 379.416 904.507 379.208C948.451 375.209 990.219 349.442 1013.5 311.964C1014.72 310.004 1017.29 309.411 1019.25 310.619C1021.21 311.837 1021.8 314.408 1020.59 316.363C995.949 356.021 951.762 383.285 905.265 387.517C905.134 387.529 905.009 387.533 904.882 387.533Z" fill="#4C1433"/>
<path d="M967.675 313.833C966.604 313.833 965.537 313.426 964.722 312.607C932.766 280.561 883.863 272.782 840.241 269.398C772.52 264.139 704.03 265.93 636.692 274.692C598.736 279.637 559.786 287.652 532.079 312.643C530.364 314.187 527.732 314.053 526.188 312.343C524.645 310.631 524.779 307.992 526.49 306.453C555.9 279.926 596.317 271.54 635.616 266.423C703.533 257.586 772.602 255.785 840.885 261.08C886.033 264.583 936.749 272.741 970.628 306.717C972.253 308.346 972.249 310.99 970.62 312.615C969.805 313.426 968.742 313.833 967.675 313.833Z" fill="#4C1433"/>
<path d="M853.444 310.285C852.939 310.285 852.429 310.289 851.917 310.297C833.491 310.569 821.113 315.788 821.113 320.483C821.113 321.579 821.113 324.907 826.228 327.794C838.733 334.849 866.792 332.189 878.598 325.062C880.39 323.978 883.384 321.82 883.315 319.518C883.181 314.968 871.214 310.285 853.444 310.285ZM847.241 340.238C837.69 340.238 828.517 338.662 822.128 335.06C814.397 330.695 812.771 324.723 812.771 320.483C812.771 307.239 833.793 302.225 851.791 301.956C870.074 301.683 891.257 306.058 891.656 319.266C891.758 322.695 890.325 327.721 882.912 332.202C874.733 337.142 860.621 340.238 847.241 340.238Z" fill="#4C1433"/>
<path d="M707.93 588.345C686.303 588.345 664.683 587.542 643.207 585.938C640.91 585.767 639.187 583.766 639.357 581.47C639.529 579.169 641.537 577.462 643.826 577.621C687.516 580.882 731.813 580.789 775.504 577.355C777.781 577.221 779.809 578.892 779.988 581.189C780.167 583.485 778.453 585.49 776.156 585.672C753.523 587.452 730.722 588.345 707.93 588.345Z" fill="#4C1433"/>
<path d="M788.038 1157.68C787.851 1157.68 787.656 1157.66 787.465 1157.64C740.271 1151.12 696.165 1126.02 666.456 1088.77C636.753 1051.52 622.091 1002.95 626.232 955.483C626.432 953.19 628.533 951.463 630.749 951.692C633.043 951.891 634.74 953.915 634.542 956.209C630.586 1001.56 644.597 1047.98 672.981 1083.57C701.365 1119.16 743.508 1143.14 788.605 1149.38C790.885 1149.69 792.482 1151.79 792.164 1154.08C791.879 1156.16 790.091 1157.68 788.038 1157.68Z" fill="#4C1433"/>
<path d="M788.783 1117.99C788.384 1117.99 787.977 1117.93 787.57 1117.81C756.004 1108.22 723.828 1095.05 702.319 1063.92C681.823 1034.28 671.853 998.148 674.24 962.183C674.394 959.882 676.382 958.163 678.678 958.297C680.976 958.453 682.716 960.44 682.564 962.737C680.3 996.828 689.754 1031.08 709.178 1059.18C729.236 1088.21 759.873 1100.68 789.996 1109.83C792.201 1110.5 793.442 1112.83 792.774 1115.03C792.229 1116.83 790.571 1117.99 788.783 1117.99Z" fill="#4C1433"/>
<path d="M784.543 1164.2C783.687 1164.2 782.824 1163.94 782.083 1163.39C780.226 1162.03 779.822 1159.42 781.182 1157.56C790.75 1144.5 792.095 1125.41 784.45 1111.14C783.362 1109.12 784.127 1106.59 786.16 1105.5C788.18 1104.41 790.714 1105.18 791.805 1107.21C801.051 1124.47 799.486 1146.69 787.911 1162.49C787.092 1163.61 785.826 1164.2 784.543 1164.2Z" fill="#4C1433"/>
<path d="M837.226 1139.15C837.166 1139.15 837.105 1139.15 837.043 1139.15C834.741 1139.05 832.958 1137.1 833.056 1134.8C833.459 1125.36 833.426 1114.38 830.139 1104.52C826.82 1094.57 820.12 1086.71 812.21 1083.49C804.643 1080.41 795.348 1081.3 787.953 1085.81C780.796 1090.16 775.464 1097.66 773.318 1106.39C772.772 1108.62 770.54 1110.01 768.271 1109.44C766.036 1108.89 764.671 1106.63 765.221 1104.39C767.885 1093.55 774.589 1084.18 783.61 1078.68C793.227 1072.82 805.392 1071.7 815.355 1075.77C825.643 1079.95 833.916 1089.47 838.05 1101.89C841.768 1113.03 841.825 1124.95 841.389 1135.16C841.295 1137.4 839.446 1139.15 837.226 1139.15Z" fill="#4C1433"/>
<path d="M794.909 1197.1C784.746 1197.1 774.605 1193.07 767.409 1185.8C758 1176.32 754.15 1161.84 757.6 1148.93C758.195 1146.7 760.513 1145.38 762.704 1145.97C764.932 1146.57 766.251 1148.85 765.656 1151.08C762.96 1161.18 765.971 1172.51 773.33 1179.93C780.694 1187.36 791.993 1190.46 802.114 1187.86C812.239 1185.24 820.622 1177.05 823.472 1166.99C824.095 1164.77 826.417 1163.47 828.621 1164.12C830.836 1164.74 832.123 1167.05 831.495 1169.26C827.854 1182.13 817.138 1192.59 804.199 1195.93C801.157 1196.72 798.033 1197.1 794.909 1197.1Z" fill="#4C1433"/>
<path d="M809.266 1272.52C791.736 1272.52 774.189 1269.37 758.949 1266.38C746.384 1263.91 733.949 1260.13 728.117 1249.3C721.837 1237.64 726.924 1223.63 733.778 1214.41C745.737 1198.32 765.621 1188.32 785.668 1188.32H785.679C805.734 1188.33 825.615 1198.34 837.561 1214.45C838.933 1216.29 838.547 1218.91 836.698 1220.28C834.852 1221.65 832.237 1221.27 830.865 1219.42C820.459 1205.39 803.145 1196.67 785.679 1196.66H785.668C768.207 1196.66 750.888 1205.37 740.474 1219.39C735.146 1226.55 731.037 1237.13 735.464 1245.35C739.652 1253.13 750 1256.12 760.557 1258.19C777.228 1261.47 795.007 1264.67 812.968 1264.12C832.042 1263.59 848.876 1258.69 861.648 1249.96C875.134 1240.74 886.07 1225.77 892.439 1207.81C897.738 1192.87 900.272 1175.39 900.182 1154.37C900.138 1143.06 899.416 1128.37 894.228 1115.05C889.137 1101.99 880.079 1091.92 869.375 1087.41C857.539 1082.43 843.414 1084.95 835.785 1093.39C834.241 1095.1 831.602 1095.24 829.896 1093.69C828.189 1092.14 828.054 1089.51 829.603 1087.8C839.696 1076.64 857.392 1073.31 872.609 1079.72C885.385 1085.1 896.098 1096.87 901.999 1112.02C907.689 1126.62 908.474 1142.31 908.524 1154.34C908.617 1176.33 905.925 1194.74 900.3 1210.59C893.345 1230.21 881.289 1246.64 866.356 1256.84C852.26 1266.48 833.879 1271.88 813.205 1272.46C811.893 1272.5 810.578 1272.52 809.266 1272.52Z" fill="#4C1433"/>
<path d="M712.87 1067.97C712.402 1067.97 711.929 1067.9 711.46 1067.73C709.293 1066.95 708.166 1064.57 708.943 1062.39C721.467 1027.47 739.026 994.653 761.134 964.855C762.511 963.006 765.122 962.624 766.967 963.992C768.816 965.364 769.202 967.975 767.83 969.824C746.215 998.966 729.044 1031.06 716.795 1065.21C716.186 1066.91 714.58 1067.97 712.87 1067.97Z" fill="#4C1433"/>
<path d="M746.645 1096.97C746.091 1096.97 745.528 1096.85 744.987 1096.62C742.873 1095.7 741.903 1093.25 742.825 1091.13C762.989 1044.72 789.088 1001.02 820.394 961.255C821.815 959.443 824.446 959.132 826.25 960.554C828.063 961.98 828.373 964.603 826.951 966.411C796.086 1005.62 770.357 1048.7 750.474 1094.46C749.793 1096.03 748.258 1096.97 746.645 1096.97Z" fill="#4C1433"/>
<path d="M687.79 1134.92H687.655C685.354 1134.84 683.546 1132.92 683.619 1130.62C683.839 1123.56 685.297 1116.67 687.952 1110.13C688.82 1107.99 691.264 1106.97 693.385 1107.83C695.52 1108.7 696.551 1111.14 695.683 1113.26C693.398 1118.89 692.144 1124.81 691.952 1130.88C691.883 1133.13 690.03 1134.92 687.79 1134.92Z" fill="#4C1433"/>
<path d="M722.705 1152.59C722.367 1152.59 722.024 1152.55 721.683 1152.46C719.451 1151.9 718.094 1149.64 718.656 1147.4L722.114 1133.64C722.676 1131.4 724.945 1130.05 727.177 1130.61C729.409 1131.17 730.766 1133.44 730.203 1135.68L726.745 1149.44C726.269 1151.33 724.57 1152.59 722.705 1152.59Z" fill="#4C1433"/>
<path d="M733.951 1154.57H733.882C723.712 1154.39 713.196 1154.22 702.996 1151.05C691.128 1147.37 681.935 1139.87 677.769 1130.48C676.836 1128.38 677.785 1125.91 679.891 1124.98C682.005 1124.04 684.461 1125 685.394 1127.1C688.583 1134.29 695.901 1140.12 705.465 1143.09C714.527 1145.9 724.437 1146.06 734.021 1146.22C736.326 1146.26 738.159 1148.16 738.121 1150.46C738.085 1152.74 736.224 1154.57 733.951 1154.57Z" fill="#4C1433"/>
<path d="M688.028 1185.48C687.703 1185.48 687.376 1185.44 687.047 1185.36C668.237 1180.82 653.355 1162.83 652.431 1143.5C651.506 1124.18 664.6 1104.84 682.888 1098.53C685.046 1097.78 687.433 1098.93 688.191 1101.11C688.944 1103.28 687.787 1105.66 685.609 1106.41C670.689 1111.56 660.006 1127.34 660.764 1143.1C661.518 1158.87 673.658 1173.55 689.002 1177.25C691.242 1177.79 692.618 1180.04 692.076 1182.28C691.616 1184.19 689.909 1185.48 688.028 1185.48Z" fill="#4C1433"/>
<path d="M720.711 1190.42C719.346 1190.42 717.978 1190.36 716.609 1190.24C714.317 1190.05 712.614 1188.03 712.81 1185.74C713.002 1183.44 714.98 1181.67 717.318 1181.94C732.131 1183.21 747.259 1176.14 755.811 1163.97C757.135 1162.08 759.742 1161.62 761.623 1162.95C763.506 1164.28 763.962 1166.88 762.638 1168.76C753.197 1182.2 737.08 1190.42 720.711 1190.42Z" fill="#4C1433"/>
<path d="M650.088 1267.69C642.593 1267.69 635.23 1267.54 628.062 1267.41C613.46 1267.12 596.912 1266.8 582.591 1259.19C561.611 1248.04 550.308 1221.21 556.862 1198.11C563.286 1175.47 585.948 1158.54 609.725 1158.54C609.908 1158.54 610.096 1158.55 610.278 1158.55C633.971 1158.81 656.43 1175.58 663.688 1198.42C664.384 1200.62 663.17 1202.96 660.975 1203.66C658.767 1204.37 656.434 1203.14 655.737 1200.95C649.538 1181.43 630.383 1167.11 610.189 1166.89C610.03 1166.89 609.872 1166.89 609.717 1166.89C589.539 1166.89 570.327 1181.21 564.886 1200.39C559.367 1219.85 568.862 1242.44 586.509 1251.82C599.067 1258.5 614.555 1258.8 628.225 1259.06C660.543 1259.7 697.176 1260.4 728.9 1247.33C731.022 1246.47 733.47 1247.47 734.345 1249.59C735.221 1251.72 734.206 1254.16 732.076 1255.04C705.956 1265.81 677.234 1267.69 650.088 1267.69Z" fill="#4C1433"/>
<path d="M761.973 1198.89C759.786 1198.89 757.949 1197.19 757.814 1194.98C757.411 1188.42 755.513 1181.91 752.323 1176.17C751.203 1174.16 751.929 1171.62 753.945 1170.5C755.953 1169.38 758.494 1170.11 759.615 1172.12C763.406 1178.94 765.662 1186.67 766.139 1194.46C766.282 1196.76 764.531 1198.74 762.234 1198.88C762.144 1198.89 762.059 1198.89 761.973 1198.89Z" fill="#4C1433"/>
<path d="M640.836 1173.91C639.907 1173.91 638.967 1173.6 638.192 1172.96C636.413 1171.5 636.157 1168.87 637.618 1167.09C642.726 1160.87 650.566 1157.17 658.606 1157.17H658.717C661.021 1157.18 662.879 1159.05 662.871 1161.35C662.862 1163.65 660.997 1165.51 658.7 1165.51C658.672 1165.52 658.638 1165.51 658.611 1165.51C653.119 1165.51 647.552 1168.14 644.061 1172.38C643.239 1173.39 642.042 1173.91 640.836 1173.91Z" fill="#4C1433"/>
<path d="M1058.93 807.832C1057.12 807.832 1055.46 806.651 1054.92 804.83C1054.27 802.619 1055.55 800.305 1057.76 799.658C1083.01 792.278 1102.28 766.468 1104.62 736.89C1106.66 711.067 1096.91 683.167 1077.16 658.334C1058.54 634.936 1033.5 616.766 1011.49 601.574C1009.6 600.263 1009.12 597.669 1010.43 595.77C1011.74 593.867 1014.33 593.404 1016.23 594.707C1038.73 610.241 1064.36 628.851 1083.68 653.138C1104.76 679.636 1115.15 709.614 1112.94 737.55C1110.33 770.504 1088.6 799.336 1060.09 807.666C1059.7 807.779 1059.31 807.832 1058.93 807.832Z" fill="#4C1433"/>
<path d="M1043.45 786.673C1042.02 786.673 1040.62 785.931 1039.84 784.604C1038.68 782.612 1039.36 780.059 1041.34 778.897C1056.3 770.182 1066.55 752.15 1067.47 732.963C1068.3 715.519 1062.08 696.897 1049.96 680.533C1039.91 666.965 1025.8 654.616 1006.81 642.772C1004.86 641.55 1004.26 638.979 1005.48 637.025C1006.7 635.07 1009.27 634.475 1011.23 635.693C1031.12 648.104 1045.98 661.144 1056.66 675.563C1069.93 693.472 1076.73 714 1075.8 733.362C1074.73 755.637 1063.14 775.847 1045.55 786.107C1044.89 786.489 1044.16 786.673 1043.45 786.673Z" fill="#4C1433"/>
<path d="M1067.54 811.106C1058.3 811.106 1049.19 806.663 1043.53 799.356C1037.67 791.784 1035.72 781.382 1038.44 772.201C1039.1 769.994 1041.41 768.724 1043.63 769.387C1045.83 770.043 1047.09 772.365 1046.44 774.572C1044.47 781.223 1045.88 788.766 1050.13 794.248C1054.37 799.731 1061.32 802.985 1068.25 802.752C1070.63 802.651 1072.48 804.471 1072.56 806.772C1072.64 809.074 1070.84 811.008 1068.54 811.087C1068.21 811.098 1067.87 811.106 1067.54 811.106Z" fill="#4C1433"/>
<path d="M1018.52 809.099C1017.39 809.099 1016.27 808.643 1015.45 807.75C1006.51 798.02 1002.52 784.368 1005.02 772.124C1007.72 758.928 1017.95 747.996 1030.47 744.925C1043.7 741.671 1058.45 747.935 1064.75 759.498C1065.86 761.523 1065.11 764.052 1063.09 765.155C1061.05 766.268 1058.53 765.51 1057.43 763.49C1052.96 755.283 1041.98 750.672 1032.46 753.022C1023.15 755.312 1015.23 763.852 1013.19 773.795C1011.22 783.464 1014.44 794.314 1021.59 802.109C1023.15 803.803 1023.03 806.444 1021.34 808C1020.54 808.736 1019.53 809.099 1018.52 809.099Z" fill="#4C1433"/>
<path d="M1058.87 837.536C1051.29 837.536 1043.72 835.324 1037.59 830.873C1035.72 829.521 1035.31 826.909 1036.66 825.047C1038.02 823.182 1040.62 822.764 1042.48 824.12C1052.28 831.227 1066.82 830.921 1076.3 823.419C1085.79 815.916 1089.43 801.837 1084.77 790.672C1083.88 788.546 1084.89 786.106 1087.01 785.218C1089.12 784.335 1091.58 785.332 1092.47 787.463C1098.51 801.95 1093.79 820.221 1081.47 829.96C1075.1 834.998 1066.98 837.536 1058.87 837.536Z" fill="#4C1433"/>
<path d="M989.359 785.158C988.455 785.158 987.543 784.865 986.778 784.263C984.973 782.832 984.664 780.209 986.088 778.401C990.781 772.463 997.762 768.414 1005.24 767.29C1007.57 766.997 1009.65 768.521 1009.99 770.797C1010.33 773.074 1008.76 775.2 1006.48 775.542C1001.07 776.352 996.027 779.277 992.638 783.574C991.816 784.613 990.594 785.158 989.359 785.158Z" fill="#4C1433"/>
<path d="M1023.28 888.219C1001.93 888.219 980.468 876.916 969.198 858.718C967.988 856.76 968.591 854.189 970.55 852.976C972.505 851.762 975.079 852.368 976.293 854.328C987.893 873.063 1011.96 883.375 1033.54 878.826C1036.14 878.276 1040.66 876.925 1041.57 874.061C1042.44 871.299 1039.7 867.753 1036.85 865.357C1030.44 859.965 1021.92 856.027 1008.36 852.181C1006.46 851.643 1005.19 849.847 1005.33 847.88C1005.47 845.909 1006.97 844.305 1008.93 844.039C1012.4 843.559 1015.64 841.059 1016.97 837.812C1018.31 834.562 1017.78 830.509 1015.64 827.723C1014.24 825.894 1014.58 823.276 1016.41 821.874C1018.25 820.477 1020.86 820.824 1022.26 822.649C1026.2 827.797 1027.16 834.993 1024.69 840.985C1023.71 843.347 1022.24 845.47 1020.41 847.225C1028.03 849.921 1035.76 853.542 1042.22 858.971C1048.68 864.405 1051.34 870.819 1049.52 876.574C1048.38 880.195 1044.97 884.94 1035.26 886.989C1031.32 887.82 1027.3 888.219 1023.28 888.219Z" fill="#4C1433"/>
<path d="M1050.03 882.037C1048.66 882.037 1047.24 881.935 1045.76 881.727C1043.47 881.409 1041.89 879.303 1042.2 877.018C1042.52 874.738 1044.57 873.121 1046.91 873.468C1049.99 873.895 1054.21 873.943 1056.8 871.715C1059.81 869.134 1059.76 863.904 1058.19 860.291C1056.17 855.636 1052.04 851.896 1048.05 848.284C1046.34 846.736 1046.21 844.097 1047.76 842.391C1049.3 840.68 1051.95 840.558 1053.65 842.102C1058.08 846.113 1063.09 850.663 1065.84 856.963C1068.58 863.268 1068.63 872.555 1062.23 878.045C1059.16 880.684 1054.99 882.037 1050.03 882.037Z" fill="#4C1433"/>
<path d="M1068.51 873.051C1066.97 873.051 1065.42 872.867 1063.9 872.485C1061.66 871.927 1060.31 869.662 1060.87 867.427C1061.43 865.186 1063.7 863.83 1065.93 864.397C1069.47 865.28 1073.44 864.234 1076.07 861.728C1078.71 859.223 1079.95 855.305 1079.25 851.738C1078.14 846.15 1072.9 841.853 1067.17 837.58C1065.33 836.204 1064.95 833.588 1066.32 831.744C1067.7 829.899 1070.31 829.52 1072.16 830.892C1078.96 835.963 1085.75 841.628 1087.43 850.116C1088.69 856.514 1086.55 863.28 1081.82 867.773C1078.23 871.19 1073.4 873.051 1068.51 873.051Z" fill="#4C1433"/>
<path d="M452.753 795.233C451.702 795.233 450.648 794.838 449.837 794.044C422.332 767.135 411.253 724.283 422.271 687.419C433.289 650.55 466.06 620.801 503.815 613.389C506.06 612.945 508.267 614.416 508.712 616.68C509.155 618.94 507.681 621.132 505.421 621.575C470.621 628.405 440.416 655.825 430.263 689.805C420.109 723.786 430.32 763.281 455.669 788.081C457.314 789.695 457.343 792.334 455.735 793.979C454.916 794.814 453.836 795.233 452.753 795.233Z" fill="#4C1433"/>
<path d="M432.903 816.29C431.881 816.29 430.854 815.915 430.051 815.161C392.618 780.061 377.678 723.545 392.878 674.532C408.074 625.514 452.368 587.362 503.092 579.599C505.426 579.233 507.498 580.812 507.845 583.09C508.195 585.366 506.631 587.496 504.354 587.843C456.713 595.137 415.115 630.967 400.845 676.999C386.568 723.032 400.6 776.111 435.754 809.077C437.436 810.653 437.521 813.292 435.945 814.97C435.122 815.845 434.014 816.29 432.903 816.29Z" fill="#4C1433"/>
<path d="M426.716 822.176C425.119 822.176 423.596 821.259 422.903 819.708C421.963 817.606 422.907 815.138 425.009 814.197C431.774 811.17 438.772 808.043 444.348 803.395C450.135 798.569 453.633 792.435 453.935 786.574C454.057 784.273 455.959 782.486 458.318 782.623C460.619 782.745 462.386 784.705 462.268 787.006C461.844 795.18 457.258 803.489 449.687 809.802C443.228 815.187 435.697 818.554 428.414 821.813C427.861 822.058 427.282 822.176 426.716 822.176Z" fill="#4C1433"/>
<path d="M437.614 852.134C424.736 852.134 413.135 844.832 409.217 834.16C405.698 824.568 408.077 813.335 416.296 800.774C417.555 798.844 420.149 798.31 422.067 799.564C423.998 800.827 424.539 803.409 423.276 805.335C418.675 812.378 413.857 822.593 417.046 831.284C420.157 839.76 429.997 843.951 438.245 843.785C446.443 843.585 455.055 840.058 464.56 833.003C466.402 831.63 469.016 832.013 470.393 833.867C471.765 835.716 471.378 838.327 469.529 839.699C458.594 847.816 448.428 851.882 438.448 852.125C438.171 852.13 437.891 852.134 437.614 852.134Z" fill="#4C1433"/>
<path d="M487.883 817.375C487.479 817.375 487.068 817.317 486.661 817.191C484.458 816.515 483.22 814.182 483.895 811.982C485.512 806.703 487.186 801.25 487.626 795.881C487.948 791.96 487.715 786.31 484.767 781.66C481.337 776.254 474.198 772.67 466.715 772.955C460.036 773.061 452.913 775.619 445.553 780.552C443.635 781.826 441.048 781.32 439.765 779.407C438.486 777.492 438.995 774.902 440.909 773.618C449.63 767.778 458.264 764.748 466.585 764.614C477.176 764.292 486.795 769.269 491.813 777.195C495.124 782.421 496.554 789.121 495.943 796.566C495.426 802.835 493.618 808.727 491.871 814.426C491.32 816.222 489.668 817.375 487.883 817.375Z" fill="#4C1433"/>
<path d="M476.466 913.235C473.537 913.235 470.348 912.865 467.298 911.602C461.71 909.289 457.986 904.34 457.82 898.996C457.649 893.852 460.72 889.632 463.045 886.904C466.43 882.925 470.389 879.377 474.734 876.391C470.641 875.895 466.557 874.946 462.63 873.227C452.989 869.02 444.024 858.198 446.395 846.435C446.847 844.179 449.05 842.704 451.306 843.169C453.568 843.625 455.03 845.824 454.574 848.081C453.12 855.29 459.225 862.641 465.969 865.586C473.871 869.04 483.467 868.657 491.95 868.314C494.219 868.209 495.873 869.716 496.227 871.769C496.586 873.83 495.359 875.838 493.36 876.461C484.155 879.341 475.643 884.969 469.396 892.312C467.127 894.972 466.1 897.009 466.153 898.723C466.226 900.972 468.388 903.025 470.491 903.896C473.521 905.151 477.268 904.967 480.209 904.683C489.853 903.716 498.354 900.666 504.796 895.864C511.941 890.541 516.702 882.696 517.537 874.873C518.43 866.511 514.69 858.112 508.239 853.978C506.3 852.736 505.738 850.158 506.98 848.215C508.218 846.272 510.788 845.706 512.743 846.957C521.789 852.752 527.047 864.328 525.83 875.761C524.738 886 518.889 895.766 509.782 902.552C502.129 908.258 492.188 911.867 481.039 912.983C479.642 913.121 478.095 913.235 476.466 913.235Z" fill="#4C1433"/>
<path d="M511.04 908.547C508.373 908.547 505.705 908.254 503.086 907.655C500.837 907.146 499.433 904.909 499.945 902.665C500.455 900.418 502.699 898.996 504.935 899.525C511.993 901.122 519.87 899.774 525.988 895.905C532.106 892.027 536.696 885.494 538.26 878.424C538.756 876.175 540.984 874.765 543.233 875.251C545.485 875.748 546.903 877.976 546.406 880.223C544.341 889.555 538.524 897.839 530.452 902.951C524.648 906.624 517.863 908.547 511.04 908.547Z" fill="#4C1433"/>
<path d="M518.31 796.045C517.825 796.045 517.332 795.959 516.852 795.78C509.593 793.068 501.569 792.929 494.23 795.381C492.027 796.098 489.677 794.925 488.956 792.742C488.227 790.555 489.408 788.193 491.591 787.467C500.747 784.409 510.751 784.596 519.768 787.968C521.926 788.775 523.023 791.178 522.216 793.333C521.588 795.01 520 796.045 518.31 796.045Z" fill="#4C1433"/>
<path d="M532.51 694.372C524.336 694.4 524.355 706.833 532.51 706.884C540.685 706.855 540.667 694.424 532.51 694.372Z" fill="#4C1433"/>
<path d="M569.973 678.761C561.799 678.79 561.818 691.222 569.973 691.273C578.148 691.244 578.13 678.813 569.973 678.761Z" fill="#4C1433"/>
<path d="M560.606 722.468C552.432 722.496 552.451 734.929 560.606 734.979C568.781 734.951 568.763 722.52 560.606 722.468Z" fill="#4C1433"/>
<path d="M804.112 716.224C795.938 716.253 795.956 728.685 804.112 728.736C812.287 728.708 812.268 716.277 804.112 716.224Z" fill="#4C1433"/>
<path d="M857.186 703.737C849.012 703.765 849.03 716.198 857.187 716.249C865.361 716.22 865.342 703.789 857.186 703.737Z" fill="#4C1433"/>
<path d="M835.334 750.564C827.16 750.593 827.179 763.025 835.334 763.076C843.51 763.048 843.491 750.616 835.334 750.564Z" fill="#4C1433"/>
<path d="M580.473 483.516C566.107 482.888 549.772 491.281 544.717 505.167C543.405 511.916 553.428 515.311 556.662 509.294C562.114 500.688 569.264 496.505 581.237 496.811C586.238 496.56 586.17 498.738 590.89 495.432C596.898 487.888 586.992 483.628 580.473 483.516Z" fill="#4C1433"/>
<path d="M887.133 504.504C880.245 497.631 868.341 493.267 859.266 498.02C853.977 501.655 858.43 510.463 864.517 508.556C870.285 506.894 877.428 510.026 881.074 516.058C882.784 516.865 881.954 527.363 889.399 526.442C899.516 524.018 891.941 509.091 887.133 504.504Z" fill="#4C1433"/>
<path d="M664.451 716.109C664.32 715.67 664.581 716.658 664.581 716.548V716.438C664.451 716.328 664.451 716.218 664.451 716.109Z" fill="#4C1433"/>
<path d="M667.578 722.475C667.709 722.695 667.969 722.914 667.578 722.475C667.318 722.256 667.448 722.256 667.578 722.475Z" fill="#4C1433"/>
<path d="M665.494 719.512C665.103 718.744 665.754 720.061 665.494 719.512V719.512Z" fill="#4C1433"/>
<path d="M670.967 725.328C670.967 725.328 670.837 725.218 670.707 725.218L670.576 725.108C670.185 724.889 670.967 725.328 670.967 725.328Z" fill="#4C1433"/>
<path d="M681.785 728.84C681.785 728.84 681.394 728.731 681.264 728.84C681.394 728.84 681.655 728.84 681.785 728.84Z" fill="#4C1433"/>
<path d="M675.53 727.523C675.399 727.523 675.269 727.414 675.269 727.414C675.269 727.414 675.269 727.414 675.139 727.414C675.139 727.414 676.051 727.743 675.53 727.523Z" fill="#4C1433"/>
<path d="M664.449 713.475C664.449 713.365 664.449 713.146 664.449 713.036C664.579 712.597 664.449 713.475 664.449 713.475Z" fill="#4C1433"/>
<path d="M668.753 706.781C668.753 706.781 668.622 706.781 668.622 706.89C668.101 707.11 668.492 707 668.753 706.781Z" fill="#4C1433"/>
<path d="M686.74 708.756C686.48 708.536 686.48 708.646 686.74 708.756V708.756Z" fill="#4C1433"/>
<path d="M677.224 705.024C676.573 704.914 678.137 705.134 677.224 705.024V705.024Z" fill="#4C1433"/>
<path d="M681.396 706.122H681.526C682.178 706.341 680.874 705.793 681.396 706.122Z" fill="#4C1433"/>
<path d="M682.829 697.891C676.051 696.025 668.491 696.793 662.756 700.525C657.282 704.037 654.414 709.963 654.675 715.67C655.066 721.158 658.064 726.426 662.886 730.157C669.012 734.877 677.094 737.181 685.305 737.181C687.782 737.181 690.258 735.316 690.128 733.121C689.998 730.926 688.043 729.06 685.305 729.06C684.523 729.06 683.741 729.06 683.09 729.06C682.698 729.06 682.177 729.06 681.786 728.95C681.786 728.95 681.656 728.95 681.525 728.95H681.395C679.961 728.731 678.527 728.511 677.224 728.072C676.703 727.962 676.051 727.633 675.399 727.523C675.53 727.523 675.66 727.633 675.66 727.633C676.181 727.853 675.269 727.523 675.269 727.523C675.269 727.523 675.269 727.523 675.399 727.523H675.269C674.878 727.414 674.617 727.194 674.226 727.084C673.053 726.536 672.01 725.987 670.837 725.328C670.968 725.438 671.098 725.438 671.098 725.438C671.098 725.438 670.316 724.999 670.707 725.218C670.446 724.999 670.185 724.889 670.055 724.67C669.534 724.231 669.012 723.901 668.621 723.462C668.361 723.243 668.23 723.133 667.97 722.914C667.97 722.804 667.709 722.694 667.579 722.585C667.709 722.804 667.97 723.024 667.579 722.694C667.318 722.475 667.448 722.475 667.579 722.585C667.448 722.475 667.448 722.475 667.448 722.365C667.318 722.145 667.057 721.926 666.927 721.597C666.536 721.158 666.275 720.719 666.015 720.17C665.884 719.95 665.754 719.731 665.623 719.511C665.232 718.743 665.884 720.06 665.623 719.511C665.232 718.524 664.841 717.536 664.581 716.548V716.658C664.581 716.658 664.45 715.78 664.45 716.219C664.45 716.329 664.45 716.439 664.581 716.548C664.581 716.329 664.581 716.109 664.45 716C664.45 715.451 664.45 714.902 664.45 714.353C664.45 714.134 664.45 713.804 664.45 713.585C664.45 713.585 664.581 712.707 664.45 713.146C664.45 713.256 664.45 713.365 664.45 713.585C664.581 713.475 664.841 712.158 664.841 711.939C664.972 711.5 665.363 710.951 665.493 710.512C665.493 710.622 665.363 710.731 665.363 710.841C665.102 711.17 665.493 710.512 665.493 710.402V710.512C665.623 710.292 665.754 709.963 666.015 709.744C666.275 709.414 666.536 709.085 666.797 708.756L666.666 708.866C666.666 708.866 667.318 708.207 666.927 708.536C666.797 708.646 666.797 708.756 666.666 708.756C666.797 708.646 666.927 708.536 666.927 708.427C667.188 708.207 667.318 707.988 667.579 707.768C667.839 707.549 667.97 707.439 668.23 707.219C668.361 707.11 669.012 706.78 668.621 706.89C668.361 707 667.97 707.219 668.491 707L668.621 706.89C668.752 706.89 668.752 706.78 668.752 706.78C669.012 706.561 669.403 706.451 669.664 706.232C669.925 706.122 670.185 706.012 670.446 705.902C670.446 705.902 670.577 705.902 670.577 705.793C670.446 705.793 670.446 705.793 670.707 705.683C671.228 705.463 670.837 705.683 670.577 705.793C670.707 705.793 670.967 705.683 671.098 705.573C671.489 705.463 671.75 705.354 672.141 705.354C672.401 705.244 672.662 705.244 673.053 705.134C673.183 705.134 673.444 705.024 673.574 705.024C673.053 705.024 673.314 705.024 673.574 705.024C673.835 705.024 673.965 705.024 673.574 705.024C673.705 705.024 673.965 705.024 673.965 705.024C674.356 705.024 674.747 705.024 675.008 705.024C675.66 705.024 676.312 705.024 676.963 705.134C676.181 705.024 677.745 705.244 676.963 705.134C676.963 705.134 677.094 705.134 677.224 705.134C677.615 705.244 678.006 705.244 678.397 705.354C679.179 705.573 679.961 705.683 680.743 706.012C680.874 706.012 681.004 706.122 681.134 706.122C680.613 705.902 681.916 706.341 681.265 706.122H681.134C681.656 706.341 682.047 706.451 682.568 706.671C683.35 707 684.263 707.439 685.045 707.878C685.436 708.097 685.827 708.317 686.218 708.536C686.218 708.536 686.218 708.536 686.348 708.646C686.218 708.536 686.218 708.536 686.348 708.646C686.478 708.756 686.739 708.866 686.348 708.646C686.478 708.756 686.739 708.866 686.739 708.866C689.867 711.061 692.735 713.585 695.472 716.109C697.167 717.646 700.555 717.646 702.38 716.109C704.205 714.463 704.205 712.048 702.38 710.292C696.906 705.244 690.91 700.086 682.829 697.891Z" fill="#4C1433"/>
<path d="M666.666 708.536C666.796 708.317 666.927 708.317 666.927 708.207C667.318 707.878 666.666 708.536 666.666 708.536Z" fill="#4C1433"/>
<path d="M665.365 710.622C665.365 710.512 665.495 710.402 665.495 710.292V710.183C665.495 710.183 665.104 710.951 665.365 710.622Z" fill="#4C1433"/>
<path d="M671.097 705.682C670.706 705.792 670.836 705.792 670.966 705.792C671.227 705.682 671.618 705.463 671.097 705.682Z" fill="#4C1433"/>
<path d="M673.836 705.025C673.315 705.135 673.575 705.135 673.836 705.025C674.097 705.025 674.227 705.025 673.836 705.025Z" fill="#4C1433"/>
<path d="M638.259 770.633C636.434 785.778 646.47 800.924 661.33 808.168C676.189 815.411 695.219 814.862 710.6 808.058C725.98 801.253 735.756 790.388 740.97 773.706C707.602 783.474 670.584 782.376 638.259 770.633Z" fill="white"/>
<path d="M737.843 775.133C734.324 778.755 729.762 781.609 725.07 784.023C718.944 787.096 712.166 789.511 705.258 791.157C701.087 792.145 696.785 792.803 692.354 793.242C691.05 793.352 689.877 794.12 689.877 795.328C689.877 796.315 691.05 797.523 692.354 797.413C707.473 796.096 722.593 791.486 734.585 783.584C737.061 781.938 739.408 780.182 741.363 778.207C742.145 777.329 742.405 776.121 741.363 775.353C740.45 774.365 738.756 774.255 737.843 775.133Z" fill="#4C1433"/>
<path d="M665.502 792.144C656.639 791.266 647.775 787.535 641.258 782.376C639.042 780.511 635.523 783.474 637.869 785.23C645.299 791.266 655.335 795.217 665.502 796.205C666.806 796.315 667.978 795.217 667.978 794.12C667.848 792.913 666.806 792.254 665.502 792.144Z" fill="#4C1433"/>
<path d="M732.758 781.608C732.758 781.608 732.758 781.718 732.628 781.718C732.628 782.047 732.367 782.486 732.758 781.608Z" fill="#4C1433"/>
<path d="M716.466 800.156C715.684 800.595 717.248 799.607 716.466 800.156V800.156Z" fill="#4C1433"/>
<path d="M725.068 792.802C725.329 792.583 725.72 792.363 725.068 792.802V792.802Z" fill="#4C1433"/>
<path d="M638.261 766.572H638.131C638.913 766.572 639.695 766.791 640.477 767.011C639.825 766.681 639.043 766.462 638.261 766.572Z" fill="#4C1433"/>
<path d="M712.425 775.242C711.513 775.352 713.338 775.132 712.425 775.242V775.242Z" fill="#4C1433"/>
<path d="M641.52 767.34C640.998 767.23 641.129 767.23 641.52 767.34V767.34Z" fill="#4C1433"/>
<path d="M704.996 805.753C704.865 805.753 704.865 805.753 704.735 805.863C704.474 805.972 704.344 805.972 704.996 805.753Z" fill="#4C1433"/>
<path d="M736.278 772.498C735.626 774.693 734.845 776.778 733.932 778.973C733.802 779.303 733.671 779.522 733.541 779.851C736.409 779.193 739.406 778.425 742.274 777.547C740.319 775.9 738.364 774.144 736.278 772.498Z" fill="#4C1433"/>
<path d="M638.131 766.572C637.74 766.572 637.349 766.572 636.958 766.682C635.785 766.902 634.612 767.67 634.09 768.548C633.829 768.877 633.699 769.316 633.699 769.645C634.221 767.889 635.785 766.682 638.131 766.572Z" fill="#4C1433"/>
<path d="M646.213 787.534C645.691 786.656 646.474 788.192 646.213 787.534V787.534Z" fill="#4C1433"/>
<path d="M635.783 774.145C638.129 775.023 640.606 775.791 642.952 776.56C642.822 774.584 642.822 772.609 643.082 770.633C643.213 769.206 642.04 767.78 640.476 767.011C639.694 766.682 638.912 766.572 638.129 766.572C635.783 766.682 634.219 767.889 633.698 769.645C633.176 771.292 633.828 773.377 635.783 774.145Z" fill="#4C1433"/>
<path d="M739.667 769.645C733.15 771.511 726.503 773.047 719.725 774.145C718.161 774.364 716.597 774.584 715.033 774.803C714.251 774.913 713.338 775.023 712.556 775.133C712.426 775.133 712.426 775.133 712.426 775.133C711.513 775.242 713.338 775.023 712.426 775.133C712.426 775.133 712.295 775.133 712.165 775.133C711.774 775.133 711.253 775.242 710.862 775.242C707.473 775.572 704.084 775.791 700.695 775.901C694.047 776.12 687.269 776.011 680.622 775.462C678.927 775.352 677.233 775.133 675.669 775.023C675.669 775.023 675.799 775.023 675.93 775.023C676.06 775.023 676.321 775.023 675.93 775.023C675.799 775.023 675.799 775.023 675.669 775.023C675.669 775.023 675.669 775.023 675.799 775.023C675.408 775.023 675.017 774.913 674.496 774.913C673.453 774.803 672.541 774.694 671.498 774.474C668.109 774.035 664.85 773.377 661.461 772.718C657.812 771.95 654.292 771.072 650.773 770.084C649.079 769.535 647.254 769.096 645.559 768.548C644.647 768.218 643.735 767.889 642.822 767.67C642.431 767.56 642.04 767.45 641.649 767.231H641.519C641.519 767.231 641.519 767.231 641.649 767.231C641.258 767.121 641.128 767.121 641.519 767.231C641.258 767.121 640.997 767.011 640.867 767.011C640.737 767.011 640.737 767.011 640.606 766.901C642.17 767.56 643.343 768.987 643.213 770.523C642.952 772.499 642.952 774.474 643.083 776.45C667.457 784.022 693.786 786.108 719.464 782.486C724.287 781.827 728.979 780.84 733.541 779.742C733.672 779.413 733.802 779.193 733.932 778.864C734.845 776.779 735.627 774.584 736.279 772.389C738.234 774.035 740.189 775.681 742.274 777.437C739.407 778.315 736.539 778.974 733.541 779.742C733.281 780.401 732.89 781.059 732.629 781.718C732.629 781.718 732.629 781.608 732.759 781.608C732.368 782.486 732.629 781.937 732.629 781.718C732.499 781.937 732.499 782.047 732.368 782.266C732.108 782.705 731.847 783.254 731.586 783.693C730.543 785.449 729.501 787.205 728.197 788.961C727.676 789.729 727.024 790.388 726.503 791.156C726.242 791.486 725.851 791.925 725.59 792.254C725.46 792.364 725.33 792.583 725.199 792.693C725.46 792.473 725.851 792.144 725.069 792.803C725.069 792.803 725.069 792.803 725.199 792.693L725.069 792.803C723.635 794.229 722.201 795.656 720.637 796.973C719.855 797.522 719.204 798.18 718.422 798.729C718.031 798.949 717.639 799.278 717.379 799.497C717.118 799.717 716.857 799.827 716.597 800.046C715.815 800.595 717.509 799.497 716.597 800.046C714.772 801.144 712.947 802.241 710.992 803.229C710.079 803.668 709.167 804.107 708.255 804.546C707.733 804.765 707.212 804.985 706.691 805.204C706.3 805.314 705.908 805.534 705.648 805.643C705.648 805.643 705.257 805.753 705.126 805.863C705.257 805.863 705.257 805.863 705.387 805.753C704.866 805.973 704.866 805.863 705.126 805.863C702.65 806.741 700.173 807.399 697.567 807.948C696.393 808.168 695.09 808.387 693.917 808.607C693.265 808.716 692.613 808.826 691.962 808.826C692.222 808.826 692.353 808.826 692.483 808.826C692.353 808.826 691.831 808.826 691.701 808.936C691.31 808.936 690.919 809.046 690.528 809.046C687.791 809.265 685.054 809.265 682.447 809.155C681.795 809.155 681.274 809.046 680.622 809.046C680.231 809.046 679.97 809.046 679.579 808.936C679.84 808.936 680.361 809.046 679.449 808.936H679.579C678.145 808.716 676.712 808.497 675.278 808.277C673.974 808.058 672.671 807.729 671.498 807.399C670.846 807.18 670.194 807.07 669.673 806.851C669.412 806.741 669.152 806.741 668.891 806.631C668.761 806.631 668.76 806.631 668.63 806.521C668.109 806.412 669.282 806.741 668.63 806.521C668.63 806.521 668.63 806.521 668.5 806.521C666.023 805.643 663.677 804.546 661.592 803.339C661.07 803.009 660.679 802.79 660.158 802.461C660.027 802.351 659.897 802.241 659.637 802.131C659.897 802.351 660.288 802.57 659.506 802.022C659.506 802.022 659.637 802.022 659.637 802.131C659.506 802.022 659.376 802.022 659.376 801.912C658.463 801.253 657.551 800.595 656.639 799.936C655.726 799.278 654.944 798.51 654.162 797.741C653.771 797.412 653.38 796.973 652.989 796.644C652.859 796.424 652.598 796.205 652.468 796.095C652.337 795.985 652.337 795.985 652.337 795.876C651.946 795.437 652.598 796.205 652.337 795.876C652.337 795.876 652.337 795.876 652.207 795.766C650.512 793.9 649.079 791.925 647.775 789.839C647.514 789.291 647.124 788.852 646.863 788.303C646.732 788.083 646.602 787.864 646.472 787.644C646.081 786.876 646.732 788.303 646.472 787.644V787.535C645.95 786.437 645.429 785.23 645.038 784.022C644.647 782.925 644.386 781.827 643.995 780.73C643.865 780.181 643.735 779.523 643.604 778.864C643.604 778.645 643.474 778.535 643.474 778.315C643.474 778.645 643.604 779.084 643.474 778.206C643.474 778.206 643.474 778.206 643.474 778.315C643.474 778.206 643.474 777.986 643.474 777.986C643.474 777.547 643.344 777.108 643.344 776.669C640.867 775.901 638.521 775.133 636.175 774.255C634.22 773.486 633.568 771.511 633.959 769.755C633.828 770.084 633.828 770.413 633.698 770.743C632.655 780.071 635.784 789.73 641.779 797.632C648.036 805.863 657.29 812.119 668.37 815.301C689.746 821.447 714.772 815.082 729.892 801.144C737.973 793.79 742.926 784.462 746.054 774.913C746.576 771.84 743.317 768.657 739.667 769.645Z" fill="#4C1433"/>
<path d="M679.056 808.936H678.926C679.969 809.045 679.317 808.936 679.056 808.936Z" fill="#4C1433"/>
<path d="M668.24 806.411C667.719 806.301 668.762 806.63 668.24 806.411V806.411Z" fill="#4C1433"/>
<path d="M651.945 795.765C651.554 795.436 652.205 796.204 651.945 795.765V795.765Z" fill="#4C1433"/>
<path d="M659.243 802.021C659.504 802.24 659.765 802.46 659.243 802.021V802.021Z" fill="#4C1433"/>
<path d="M735.105 773.376C735.236 773.376 735.236 773.486 735.105 773.376C734.454 772.937 736.018 773.925 735.105 773.376Z" fill="#4C1433"/>
<path d="M730.283 770.962C730.544 771.072 731.196 771.401 730.283 770.962V770.962Z" fill="#4C1433"/>
<path d="M739.274 776.888C739.404 776.888 739.404 776.998 739.274 776.888C739.404 776.998 739.404 776.998 739.404 777.108C739.925 777.437 738.882 776.34 739.274 776.888Z" fill="#4C1433"/>
<path d="M742.272 781.059C742.011 780.401 742.272 781.059 742.402 781.169C742.402 781.389 742.402 781.389 742.272 781.059Z" fill="#4C1433"/>
<path d="M745.401 770.303C742.012 767.01 737.58 764.596 732.757 763.059C731.715 762.73 730.02 762.95 728.977 763.499C727.935 764.047 727.022 764.925 726.761 765.913C726.11 768.218 727.674 770.083 730.15 770.961C730.15 770.961 730.02 770.962 730.02 770.852C730.281 770.962 730.541 771.071 730.802 771.181C731.193 771.401 731.715 771.51 732.106 771.73C733.018 772.169 733.8 772.608 734.712 773.047C734.843 773.157 734.973 773.266 735.234 773.376C734.582 772.937 736.146 773.925 735.364 773.486C735.364 773.486 735.364 773.486 735.234 773.376C735.625 773.705 736.016 773.925 736.407 774.254C737.189 774.803 737.841 775.461 738.492 776.12C738.753 776.339 739.014 776.669 739.274 776.998C738.753 776.449 739.796 777.547 739.405 777.217L739.274 777.108C739.405 777.327 739.535 777.437 739.665 777.656C740.187 778.315 740.708 779.083 741.23 779.851C741.49 780.29 741.751 780.62 742.012 781.059C742.012 781.168 742.142 781.278 742.142 781.388C742.012 781.278 741.751 780.62 742.012 781.278C742.142 781.607 742.142 781.607 742.142 781.498C742.533 782.376 742.924 783.254 743.185 784.132C743.836 786.217 746.704 787.644 749.181 786.985C751.657 786.327 753.221 784.241 752.569 781.937C751.396 777.437 748.789 773.596 745.401 770.303Z" fill="#4C1433"/>
<defs>
<linearGradient id="paint0_linear_550_17458" x1="-765.5" y1="-323" x2="983.5" y2="1119" gradientUnits="userSpaceOnUse">
<stop stop-color="#B79A81"/>
<stop offset="1" stop-color="#EBD3C1"/>
</linearGradient>
</defs>
</svg>
