<svg width="1500" height="1500" viewBox="0 0 1500 1500" fill="none" xmlns="http://www.w3.org/2000/svg">
<circle cx="750" cy="750" r="750" fill="url(#paint0_linear_550_17462)"/>
<path d="M1064.71 434.658C1087.12 444.232 1102.2 468.775 1100.6 493.099C1099.01 517.423 1080.85 539.785 1057.37 546.346C1033.9 552.906 1006.78 543.194 992.804 523.222C972.353 545.083 945.071 547.976 925.251 536.329C915.375 554.283 897.945 563.692 879.953 564.459C861.962 565.225 843.794 557.335 832.075 543.662C811.044 554.245 784.829 545.942 773.001 527.058C758.565 546.545 738.805 554.654 719.195 553.952C699.585 553.249 680.456 543.747 668.05 528.544C652.442 536.279 638.095 540.537 623.529 539.81C608.963 539.084 594.024 532.61 586.265 520.261C567.194 538.86 533.548 545.319 507.043 532.956C480.536 520.593 463.712 489.416 469.508 460.749C475.304 432.083 504.264 409.553 534.526 411.282C530.62 395.948 537.532 378.48 551.516 370.526C541.201 328.8 565.889 281.32 605.973 265.8C646.056 250.279 696.281 268.751 718.517 311.03C729.159 302.456 743.206 298.235 755.968 301.099C756.028 277.484 769.865 254.404 790.664 243.221C811.462 232.04 838.347 233.227 862.822 251.603C879.677 232.91 909.511 227.465 931.882 239C954.253 250.534 967.121 277.994 961.503 302.842C974.493 305.517 986.441 312.975 994.548 323.468C1002.66 333.963 1006.86 347.406 1010.16 357.289C1028.56 356.055 1047.31 365.173 1057.7 380.407C1068.1 395.641 1069.74 416.429 1064.71 434.658Z" fill="#F8A847"/>
<path d="M1045.54 547.11C1025.72 549.421 1004.96 540.331 993.208 524.192C972.122 539.951 948.446 544.183 926.689 539.265C921.164 554.207 902.645 564.962 883.394 565.89C864.143 566.818 844.674 557.895 832.809 542.708C811.219 550.323 787.377 543.309 775.978 526.509C758.69 545.917 739.425 553.127 720.536 551.932C701.648 550.737 683.444 541.155 671.765 526.262C659.587 536.787 644.313 540.253 629.671 538.366C615.028 536.479 601.134 529.252 591.18 518.348C560.941 537.105 531.798 540.693 508.798 531.266C508.437 578.413 512.773 625.594 523.723 673.969C494.169 685.481 474.581 718.433 478.589 749.895C482.596 781.356 509.821 808.347 543.302 813.011C543.674 837.777 544.903 864.862 561.346 883.388C580.386 904.841 612.561 907.001 641.238 907.626C715.863 909.251 790.485 910.877 865.108 912.502C893.38 913.118 923.649 913.185 947.205 897.539C975.246 878.913 985.899 843.524 994.573 810.998C1004.89 772.32 1052.06 595.359 1045.54 547.11Z" fill="#B5E4CD"/>
<path d="M724.655 760.012C715.087 760.341 710.688 767.27 700.46 768.48C696.17 769.03 690.891 768.59 683.743 766.17C677.474 764.081 657.018 756.492 648.659 769.14C641.4 780.028 650.199 802.794 674.724 809.172C686.932 812.362 703.539 811.812 714.207 807.523C732.683 800.264 739.062 788.276 739.722 778.158C740.272 768.04 734.003 759.572 724.655 760.012Z" fill="black"/>
<path d="M724.655 760.011C715.087 760.341 710.687 767.27 700.459 768.48C696.17 769.03 690.891 768.59 683.742 766.17C679.563 764.74 668.895 760.891 659.877 762.321C659.877 767.05 661.307 771.669 665.266 774.858C672.415 780.797 712.997 782.777 722.675 771.449C724.985 768.81 725.975 763.861 725.095 760.011C724.875 760.011 724.765 760.011 724.655 760.011Z" fill="white"/>
<path d="M714.317 803.123C714.207 803.123 714.207 803.233 714.097 803.233C714.207 803.123 714.317 803.123 714.317 803.123Z" fill="black"/>
<path d="M701.339 806.532C701.669 806.532 701.999 806.422 701.339 806.532V806.532Z" fill="black"/>
<path d="M724.875 797.074C724.215 797.624 724.545 797.294 724.875 797.074V797.074Z" fill="black"/>
<path d="M733.784 785.637C733.784 785.747 733.674 785.747 733.674 785.857C733.454 786.626 734.114 784.867 733.784 785.637Z" fill="black"/>
<path d="M682.203 806.533C681.323 806.423 682.973 806.643 682.203 806.533V806.533Z" fill="black"/>
<path d="M670.325 803.453C670.325 803.453 670.215 803.453 670.215 803.343C669.775 803.233 669.445 803.123 670.325 803.453Z" fill="black"/>
<path d="M735.432 779.587C735.432 779.807 735.432 779.917 735.432 780.027C735.322 780.467 735.652 778.817 735.432 779.587Z" fill="black"/>
<path d="M732.684 767.6C732.794 767.71 732.794 767.82 732.903 767.82C733.123 768.15 733.014 768.04 732.684 767.6Z" fill="black"/>
<path d="M726.194 764.08H726.304C726.414 764.08 726.414 764.08 726.524 764.08C726.964 764.19 726.854 764.08 726.194 764.08Z" fill="black"/>
<path d="M730.704 765.73C730.814 765.84 730.924 765.95 731.034 766.06C731.034 765.95 730.924 765.84 730.704 765.73Z" fill="black"/>
<path d="M735.543 774.418C735.433 773.428 735.653 775.188 735.543 774.418V774.418Z" fill="black"/>
<path d="M728.835 764.74C728.945 764.74 728.945 764.74 728.835 764.74C728.065 764.3 729.604 764.96 728.835 764.74Z" fill="black"/>
<path d="M706.177 762.651H706.067C705.738 762.871 705.408 763.091 706.177 762.651Z" fill="black"/>
<path d="M720.586 760.011C720.696 762.211 722.346 764.191 724.656 764.081C726.745 763.971 728.835 762.321 728.725 760.011C728.615 757.922 726.965 755.832 724.656 755.942C722.456 755.942 720.476 757.702 720.586 760.011Z" fill="black"/>
<path d="M730.264 791.685C730.484 791.355 730.704 790.805 730.264 791.685V791.685Z" fill="black"/>
<path d="M693.311 764.3C693.201 764.3 693.201 764.3 693.091 764.3C693.751 764.41 693.751 764.41 693.311 764.3Z" fill="black"/>
<path d="M731.584 757.042C729.384 756.162 726.964 755.832 724.655 755.832C726.964 755.722 728.614 757.812 728.724 759.901C728.834 762.211 726.745 763.861 724.655 763.971C725.205 763.971 725.755 763.971 726.305 763.971C726.305 763.971 726.305 763.971 726.415 763.971H726.305C726.964 764.081 727.075 764.081 726.635 763.971C726.525 763.971 726.525 763.971 726.415 763.971C726.525 763.971 726.745 763.971 726.745 763.971C727.294 764.081 727.734 764.19 728.174 764.3C728.394 764.41 728.614 764.41 728.834 764.52C728.064 764.191 729.604 764.74 728.944 764.52C729.384 764.74 729.824 764.96 730.154 765.18C730.374 765.29 730.814 765.73 731.144 765.84C731.034 765.73 730.924 765.62 730.814 765.51C730.924 765.62 731.144 765.73 731.254 765.84C731.474 765.95 731.584 766.17 731.804 766.28C732.134 766.61 732.463 766.94 732.793 767.38C732.793 767.38 732.793 767.38 732.793 767.27C733.233 767.71 733.233 767.82 733.013 767.49C733.013 767.38 732.903 767.38 732.903 767.27C733.013 767.49 733.233 767.71 733.343 767.82C733.563 768.15 733.783 768.48 734.003 768.92C734.223 769.36 734.443 769.689 734.663 770.129V770.019C734.663 770.019 734.663 770.129 734.773 770.239C734.883 770.569 734.883 770.459 734.773 770.349C734.883 770.679 734.993 771.009 734.993 771.009C735.323 771.999 735.543 772.989 735.763 773.979C735.763 773.979 735.763 773.979 735.763 774.089C735.653 773.099 735.983 774.858 735.763 774.089C735.763 774.309 735.763 774.419 735.763 774.639C735.873 775.298 735.873 775.958 735.873 776.618C735.873 777.498 735.763 778.268 735.763 779.148V779.258C735.763 779.258 735.763 779.258 735.763 779.148C735.873 778.378 735.653 780.137 735.763 779.588C735.763 779.478 735.763 779.368 735.763 779.258C735.653 779.698 735.653 780.138 735.543 780.577C735.213 782.117 734.773 783.547 734.223 784.977C734.223 785.087 734.113 785.197 734.113 785.417C734.113 785.417 734.113 785.416 734.113 785.306C734.443 784.537 733.783 786.296 734.003 785.527V785.417C733.893 785.747 733.673 786.076 733.563 786.406C733.233 787.176 732.793 787.946 732.353 788.716C731.914 789.486 731.474 790.146 730.924 790.805C730.814 791.025 730.594 791.135 730.484 791.355C730.154 791.685 729.824 792.125 729.494 792.455C728.174 793.995 726.635 795.425 725.095 796.634L724.985 796.744C724.985 796.744 725.095 796.744 725.095 796.634C724.435 797.184 724.765 796.854 724.985 796.744C724.765 796.854 724.545 797.074 724.325 797.184C723.885 797.514 723.555 797.734 723.115 798.064C722.125 798.724 721.026 799.384 720.036 800.044C719.046 800.594 717.946 801.254 716.846 801.693C716.296 801.913 715.857 802.133 715.307 802.463C715.087 802.573 714.867 802.683 714.537 802.793C714.537 802.793 714.427 802.793 714.317 802.903C714.427 802.903 714.427 802.793 714.537 802.793C714.867 802.683 713.767 803.123 713.657 803.123C711.567 804.003 709.478 804.553 707.278 805.103C706.178 805.323 705.079 805.543 703.979 805.763C703.429 805.873 702.989 805.983 702.439 805.983C702.109 805.983 701.889 806.093 701.559 806.093C701.889 806.093 702.219 805.983 701.449 806.093C701.449 806.093 701.449 806.093 701.559 806.093C701.339 806.093 701.229 806.093 701.119 806.093C698.7 806.423 696.17 806.533 693.751 806.643C691.221 806.643 688.692 806.643 686.162 806.423C684.952 806.313 683.743 806.203 682.643 806.093C682.643 806.093 682.643 806.093 682.533 806.093C681.653 805.983 683.303 806.203 682.533 806.093H682.423C682.093 806.093 681.763 805.983 681.433 805.983C680.773 805.873 680.223 805.763 679.563 805.653C677.254 805.213 675.054 804.663 672.855 803.893C672.415 803.783 671.975 803.563 671.425 803.343C671.205 803.233 670.875 803.123 670.655 803.013C670.655 803.013 670.545 803.013 670.435 802.903C670.435 802.903 670.545 802.903 670.545 803.013C669.775 802.793 670.105 802.903 670.435 802.903C669.445 802.573 668.455 802.023 667.576 801.474C665.816 800.484 664.056 799.494 662.407 798.284C662.297 798.174 662.187 798.064 662.077 798.064C661.307 797.514 662.736 798.614 662.077 798.064C661.637 797.734 661.307 797.404 660.867 797.074C660.097 796.414 659.437 795.865 658.777 795.095C658.117 794.435 657.567 793.775 657.018 793.115C656.688 792.785 656.468 792.455 656.248 792.125C656.248 792.125 656.248 792.235 656.358 792.235C656.908 792.895 655.698 791.465 656.248 792.125C656.138 792.015 656.028 791.795 655.918 791.685C654.928 790.256 654.048 788.826 653.278 787.286C653.058 786.956 652.948 786.516 652.728 786.076C652.618 785.746 652.178 784.537 652.618 785.856C652.398 785.087 652.068 784.317 651.738 783.547C651.519 782.887 651.299 782.117 651.189 781.457C651.079 781.127 651.079 780.797 650.969 780.357C650.969 780.247 650.969 780.028 650.859 779.918V780.028C650.969 780.687 650.639 778.818 650.859 779.918C650.749 778.598 650.639 777.278 650.749 775.848C650.749 775.518 650.859 775.298 650.859 774.969C650.859 775.408 650.859 775.628 650.859 775.738C650.859 775.628 650.859 775.078 650.969 774.858C651.079 774.199 651.299 773.539 651.519 772.879C651.629 772.659 651.629 772.549 651.738 772.329C651.738 772.329 651.739 772.439 651.629 772.439C651.629 772.329 651.738 772.219 651.738 772.219V772.109C651.848 771.889 651.958 771.779 651.958 771.779C652.178 771.339 652.398 770.899 652.728 770.459C652.838 770.349 652.948 770.129 653.058 770.019C652.508 770.569 653.608 769.249 653.058 769.909C653.058 769.909 653.058 769.909 653.058 770.019C653.278 769.689 653.608 769.359 653.828 769.14C654.158 768.81 654.488 768.48 654.818 768.15C654.818 768.15 654.708 768.15 654.708 768.26C654.048 768.7 655.478 767.6 654.818 768.15C654.928 768.04 655.148 767.93 655.258 767.82C655.918 767.38 656.578 767.05 657.347 766.72C656.578 767.05 658.227 766.28 657.457 766.61H657.347C657.567 766.5 657.787 766.5 657.897 766.39C658.337 766.28 658.777 766.06 659.217 765.95C659.657 765.84 660.097 765.73 660.537 765.62C660.867 765.51 662.187 765.4 660.867 765.51C661.857 765.4 662.736 765.29 663.616 765.29C665.486 765.29 667.246 765.51 669.005 765.62C667.576 765.51 669.005 765.62 669.335 765.62C669.775 765.73 670.215 765.73 670.655 765.84C671.535 766.06 672.415 766.17 673.294 766.39C676.044 767.05 678.793 767.82 681.433 768.81C685.832 770.239 690.231 771.449 694.85 771.779C699.36 772.109 704.089 771.559 708.378 769.799C710.578 768.92 712.667 767.82 714.757 766.72C715.637 766.28 716.516 765.84 717.396 765.4C717.836 765.18 718.166 764.96 718.606 764.85C718.716 764.85 719.266 764.52 719.376 764.52C718.826 764.74 718.716 764.74 719.156 764.63C719.376 764.52 719.486 764.52 719.706 764.41C720.586 764.08 721.575 763.751 722.455 763.531C722.895 763.421 723.335 763.311 723.775 763.201C723.445 763.201 723.225 763.201 723.995 763.201C723.885 763.201 723.885 763.201 723.775 763.201C723.885 763.201 723.995 763.201 724.105 763.201C724.435 763.201 724.765 763.201 724.985 763.091C722.675 763.201 721.026 761.221 720.916 759.021C720.806 756.822 722.895 754.952 724.985 754.952C719.816 755.172 715.307 757.152 710.907 759.571C710.028 760.011 709.038 760.561 708.158 761.001C707.608 761.221 707.168 761.441 706.618 761.771C706.618 761.771 706.508 761.771 706.398 761.881H706.508C705.738 762.321 706.068 762.101 706.398 761.881C706.068 761.991 705.738 762.101 705.408 762.211C704.419 762.541 703.319 762.871 702.219 763.201C701.669 763.311 701.009 763.531 700.459 763.531C700.679 763.531 701.009 763.531 700.349 763.531H700.459C700.349 763.531 700.349 763.531 700.239 763.531C699.91 763.531 699.58 763.641 699.25 763.641C698.37 763.751 697.38 763.751 696.5 763.641C695.95 763.641 695.4 763.641 694.85 763.531C694.521 763.531 694.301 763.531 693.971 763.421C693.861 763.421 693.751 763.421 693.531 763.421C693.971 763.531 693.971 763.531 693.311 763.421C693.421 763.421 693.421 763.421 693.531 763.421C690.781 762.981 688.032 762.321 685.392 761.441C682.753 760.561 680.113 759.681 677.474 759.021C669.665 756.932 660.977 755.832 653.278 759.241C646.24 762.321 642.28 769.579 642.28 777.058C642.28 784.647 645.58 791.795 650.199 797.624C655.808 804.663 663.946 809.502 672.635 812.032C682.973 815.001 694.301 815.111 704.969 813.461C715.087 811.922 724.985 807.412 732.683 800.594C738.402 795.425 742.582 788.276 743.681 780.577C744.451 775.628 744.011 770.679 741.922 766.06C739.722 762.321 736.093 758.911 731.584 757.042Z" fill="black"/>
<path d="M661.637 798.504C660.867 797.954 662.297 798.944 661.637 798.504V798.504Z" fill="black"/>
<path d="M651.408 772.439C651.408 772.549 651.298 772.659 651.298 772.659C651.298 772.769 651.188 772.769 651.188 772.879V772.989C651.408 772.549 651.408 772.439 651.408 772.439Z" fill="black"/>
<path d="M650.418 780.578V780.468C650.198 779.478 650.528 781.348 650.418 780.578Z" fill="black"/>
<path d="M655.807 792.675C655.807 792.565 655.807 792.565 655.807 792.675C655.257 791.906 656.357 793.335 655.807 792.675Z" fill="black"/>
<path d="M652.508 770.569C651.958 771.119 653.058 769.799 652.508 770.569V770.569Z" fill="black"/>
<path d="M656.908 767.27C657.018 767.27 657.018 767.27 657.018 767.16C657.787 766.83 656.138 767.49 656.908 767.27Z" fill="black"/>
<path d="M654.267 768.81C654.267 768.7 654.377 768.7 654.267 768.81C654.377 768.7 654.377 768.7 654.267 768.81C655.037 768.15 653.608 769.25 654.267 768.81Z" fill="black"/>
<path d="M635.018 545.558C635.005 538.44 624.076 538.346 624.029 545.558C624.336 577.559 624.44 609.564 625.298 641.557C625.635 650.581 625.474 659.645 626.425 668.634C626.418 669.722 626.868 670.783 627.634 671.55C629.448 673.451 632.819 672.99 634.111 670.714C635.086 668.651 634.738 666.185 635.036 663.956C635.867 624.497 635.3 585.021 635.018 545.558Z" fill="#80C6AB"/>
<path d="M596.82 888.26C593.292 867.861 591.242 850.587 590.058 828.34C590.048 822.563 581.198 822.516 581.163 828.34C582.297 850.179 584.882 871.948 588.925 893.441C589.212 895.851 590.152 898.597 592.731 899.337C599.446 900.312 597.782 892.339 596.82 888.26Z" fill="#80C6AB"/>
<path d="M684.143 548.49C684.222 580.181 681.437 612.188 683.317 643.742C684.204 646.254 687.771 646.88 689.58 644.984C690.954 643.607 690.809 641.468 691.083 639.67C692.362 609.298 692.352 578.879 693.069 548.49C693.058 542.709 684.181 542.632 684.143 548.49Z" fill="#80C6AB"/>
<path d="M754.383 545.322C754.024 544.247 753.102 543.334 752.031 542.971C749.287 541.612 745.768 543.995 745.871 547.036C745.026 582.143 741.605 617.523 742.535 652.529C745.004 657.311 750.59 654.099 750.084 649.342C751.923 622.903 752.603 596.383 753.835 569.908C753.791 561.762 755.267 553.343 754.383 545.322Z" fill="#80C6AB"/>
<path d="M923.231 542.611C920.76 539.991 915.942 541.948 916.057 545.582C913.763 582.177 909.039 618.979 908.319 655.513C910.057 659.735 916.192 657.682 915.836 653.333C918.547 625.39 920.432 597.369 922.64 569.382C923.247 561.448 923.854 553.515 924.461 545.582C924.469 544.469 924.008 543.396 923.231 542.611Z" fill="#80C6AB"/>
<path d="M977.997 539.693C970.867 658.85 952.963 770.013 917.971 887.387C917.172 892.309 912.769 899.085 914.445 903.603C916.172 906.728 921.296 906.137 922.154 902.596C951.599 804.723 972.222 704.08 982.787 602.403C984.486 580.969 987.619 559.184 987.364 537.807C985.612 533.015 977.818 534.475 977.997 539.693Z" fill="#80C6AB"/>
<path d="M896.736 748.091C889.818 801.132 878.157 853.561 864.908 905.224C865.257 909.718 872.223 910.205 873.267 905.794C884.083 865.829 893.117 825.357 899.715 784.477C901.197 772.262 904.514 759.769 904.542 747.595C903.263 744.023 897.61 744.377 896.736 748.091Z" fill="#80C6AB"/>
<path d="M813.566 846.268C810.917 865.565 808.194 884.851 805.602 904.156C805.325 906.316 804.599 908.856 806.424 910.545C815.005 916.132 814.058 901.841 815.231 896.909C817.427 880.229 820.296 863.526 822.164 846.854C821.809 842.214 814.635 841.742 813.566 846.268Z" fill="#80C6AB"/>
<path d="M807.065 555.546C807.074 554.27 806.546 553.028 805.65 552.129C802.811 549.102 797.264 551.375 797.4 555.546C798.022 575.686 797.414 595.876 795.544 615.94C796.182 621.656 790.08 634.795 797.575 636.705C804.908 637.438 803.077 622.951 804.492 617.993C806.857 597.273 807.737 576.39 807.065 555.546Z" fill="#80C6AB"/>
<path d="M619.741 405.982C622.536 431.386 683.872 411.485 676.474 386.36C669.078 361.233 617.182 382.713 619.741 405.982Z" fill="#4C1433"/>
<path d="M813.433 441.955C804.352 438.454 793.951 438.508 784.906 442.102C782.612 430.507 774.351 420.262 763.615 415.942C766.613 410.152 774.076 408.611 780.573 408.073C787.34 407.511 794.251 407.332 800.822 409.044C807.394 410.755 813.659 414.575 817.048 420.46C820.438 426.344 820.357 434.417 813.433 441.955Z" fill="#4C1433"/>
<path d="M870.724 331.412C857.56 331.673 843.491 333.312 833.438 341.813C828.857 345.686 825.217 351.859 827.185 357.527C828.877 362.404 834.049 365.101 838.953 366.72C845.619 368.921 852.645 370.026 859.664 369.978C866.766 369.931 874.064 368.624 880.027 364.766C885.99 360.908 890.388 354.151 890.055 347.057C889.722 339.962 883.779 333.161 870.724 331.412Z" fill="#4C1433"/>
<path d="M973.459 415.943C964.203 412.885 953.795 412.471 944.875 416.401C935.955 420.332 928.907 429.066 928.495 438.806C928.284 443.784 929.978 449.09 933.94 452.112C936.919 454.384 940.78 455.12 944.512 455.454C951.449 456.076 958.599 455.51 965.041 452.866C971.482 450.22 977.165 445.349 979.929 438.957C982.691 432.565 985.168 419.815 973.459 415.943Z" fill="#4C1433"/>
<path d="M589.951 601.766C579.183 604.342 570.524 614.094 569.079 626.251C573.957 628.082 578.714 630.234 583.082 633.431C576.027 638.052 568.971 642.672 561.874 647.844C561.135 654.238 562.067 660.816 565.081 666.916C576.854 665.788 588.983 668.775 598.888 675.242C602.736 651.818 601.674 627.599 589.951 601.766Z" fill="#4C1433"/>
<path d="M839.902 670.269C837.399 664.382 836.6 657.783 837.625 651.469C844.307 646.58 850.161 642.288 856.015 637.996C851.33 634.57 846.645 631.145 841.96 627.718C846.073 618.931 853.103 611.54 862.719 606.164C874.113 626.965 876.322 652.592 868.651 675.035C861.79 672.733 854.458 671.843 839.902 670.269Z" fill="#4C1433"/>
<path d="M1129.96 893.026C1121.19 898.826 1109.37 899.706 1099.83 895.273C1106.67 861.775 1101.21 826.412 1086.91 795.023C1072.62 763.633 1049.52 736.307 1018.5 713.318C1023.41 702.501 1026.88 691.041 1028.82 679.323C1060.54 686.076 1096.45 743.679 1106.82 761.715C1128.22 798.903 1137.95 842.691 1129.96 893.026Z" fill="#4C1433"/>
<path d="M478.149 721.705C475.466 733.002 475.799 745 478.995 757.155C450.665 769.162 424.667 786.203 400.74 805.552C393.068 811.756 385.181 818.849 382.837 828.433C379.929 840.315 386.714 852.877 396.382 860.373C406.048 867.869 418.142 871.359 430.968 876.331C432.817 883.65 432.184 891.572 429.198 898.505C426.214 905.438 420.893 911.34 411.997 913.801C392.381 909.91 372.503 904.851 355.89 893.717C339.277 882.583 326.297 864.254 326.404 844.256C326.517 823.226 340.524 804.906 355.617 790.263C387.08 759.74 426.405 737.389 478.149 721.705Z" fill="#4C1433"/>
<path d="M692.155 1082.53L693.028 1083.21C695.734 1070.84 693.999 1057.56 688.21 1046.3C670.327 1047.93 653.053 1042.08 638.902 1031.84C629.403 1024.97 621.083 1015.77 617.76 1004.53C614.601 993.845 616.206 982.334 618.926 971.529C625.042 947.225 636.742 924.347 652.865 905.16C634.936 903.927 617.575 902.008 602.197 899.915C592.038 916.221 581.823 932.633 574.686 950.47C567.548 968.308 563.58 987.83 566.43 1006.83C570.291 1032.57 586.885 1055.68 609.053 1069.32C631.221 1082.96 658.46 1087.42 692.155 1082.53Z" fill="#4C1433"/>
<path d="M952.397 1102.93C979.861 1040.06 970.929 962.752 929.851 907.802C913.671 908.704 896.35 909.934 881.998 913.55C905.218 935.968 921.356 965.617 927.575 997.288C933.794 1028.96 930.068 1062.51 917.049 1092.05C925.378 1103.03 939.773 1109.09 952.397 1102.93Z" fill="#4C1433"/>
<path d="M585.664 600.451C574.574 605.529 566.153 616.078 563.658 628.018C568.747 630.01 573.836 632.003 578.925 633.995C572.86 636.933 567.147 640.599 560.656 644.135C559.208 651.622 559.551 659.45 561.646 666.782L561.454 666.761L561.986 665.43C561.986 665.43 561.189 666.229 560.909 666.27C554.913 664.229 548.224 664.286 540.766 667.669C539.444 656.882 538.119 645.99 539.177 635.174C540.235 624.358 543.891 613.471 551.349 605.566C558.806 597.659 570.489 593.28 585.664 600.451Z" fill="#FFF9EF"/>
<path d="M859.395 603.349C850.652 609.958 844.017 619.312 840.669 629.747C844.992 632.52 849.315 635.292 853.638 638.063C848.138 641.732 842.637 645.401 837.418 647.785C835.717 655.566 836.169 663.806 838.291 674.802C827.948 673.782 817.359 675.327 807.533 678.49C807.516 666.331 807.507 654.073 809.912 642.154C812.318 630.236 817.337 618.529 826.068 610.065C834.799 601.603 847.617 596.846 859.395 603.349Z" fill="#FFF9EF"/>
<path d="M514.996 939.291C513.325 952.912 502.875 965.04 489.651 968.709C485.489 969.863 480.444 970.007 477.47 966.875C475.327 964.62 474.861 961.166 475.505 958.122C476.15 955.079 477.751 952.337 479.328 949.655C467.148 953.268 453.312 949.202 445.408 939.708C435.257 946.982 420.78 947.419 410.231 940.849C399.683 934.28 393.689 921.096 395.673 908.828C401.864 911.642 407.316 913.942 413.503 915.06C420.38 911.57 426.043 905.741 429.334 898.767C432.623 891.791 433.52 883.714 431.84 876.187C431.84 876.187 411.448 870.66 410.192 867.972C412.245 855.187 424.182 844.721 437.125 844.356C450.069 843.993 462.577 853.77 465.502 865.626C474.123 862.667 483.212 860.638 492.308 861.224C501.404 861.811 510.55 865.229 516.804 871.858C523.058 878.488 525.937 888.558 522.819 897.123C529.318 903.024 534.402 911.161 534.339 919.939C534.275 928.716 527.754 937.679 514.996 939.291Z" fill="#FFF9EF"/>
<path d="M1147.93 913.248C1153.39 906.909 1155.39 897.773 1153.09 889.735C1150.8 881.696 1144.27 874.996 1136.3 872.488C1135.03 881.221 1133.56 889.377 1131.35 897.328C1119.73 903.032 1108.21 902.778 1098.82 898.049C1101.62 890.9 1102.57 883.038 1101.84 876.495C1092.35 877.605 1083.73 884.359 1080.39 893.314C1077.05 902.269 1079.13 913.015 1085.75 921.299C1075.13 925.328 1066.81 934.923 1064.32 946.003C1063.31 950.495 1063.3 955.489 1065.76 959.375C1068.27 963.34 1073.12 965.502 1077.81 965.387C1082.51 965.275 1087 963.101 1090.27 958.356C1090.36 964.054 1090.45 969.753 1090.54 975.453C1086.14 973.938 1081.01 974.693 1077.29 977.487C1073.56 980.28 1071.4 985.055 1071.84 989.687C1072.46 996.06 1077.81 1001.32 1083.95 1003.13C1090.09 1004.95 1096.79 1003.78 1103.8 999.066C1109.81 1003.85 1118.1 1005.63 1125.55 1003.75C1133 1001.86 1139.44 996.339 1141.02 989.234C1146.61 993.208 1154.83 991.659 1159.95 987.106C1165.08 982.552 1167.6 975.711 1168.79 968.958C1172.36 948.722 1165.04 926.89 1147.93 913.248Z" fill="#FFF9EF"/>
<path d="M668.067 1088.76C675.503 1088.41 682.89 1087.03 689.945 1084.65C691.721 1084.05 693.604 1083.29 694.598 1081.7C695.71 1079.93 695.391 1077.64 695.035 1075.57C693.668 1067.66 692.302 1059.75 690.693 1051.73C684.436 1050.45 678.179 1049.17 669.039 1046.2C668.292 1033.08 678.059 1020.15 690.878 1017.28C703.696 1014.41 718.041 1021.95 725.018 1031.84C741.408 1024.34 762.231 1025.51 775.958 1037.2C784.371 1044.36 789.528 1054.66 792.882 1065.19C802.315 1094.79 798.445 1128.56 781.696 1154.73C764.947 1180.9 735.399 1198.69 704.372 1200.25C691.312 1200.91 677.721 1198.66 666.83 1191.43C655.938 1184.19 648.267 1171.36 649.505 1158.34C650.48 1148.09 656.743 1138.87 664.804 1132.47C672.865 1126.06 682.613 1122.16 692.432 1119.06C680.104 1116.53 670.567 1104.23 668.067 1088.76Z" fill="#EE5274"/>
<path d="M978.061 1160.82C980.07 1150.33 978.407 1139.18 973.429 1129.73C983.16 1122.73 987.811 1109.5 985.088 1097.65C982.363 1085.8 972.401 1075.94 960.527 1073.33C957.961 1084.58 954.248 1095.57 949.463 1106.07C939.669 1106.8 928.164 1102.07 919.037 1094.45C921.86 1085.19 923.948 1075.7 925.212 1066.8C912.284 1063.48 897.55 1069.15 890.181 1080.28C882.813 1091.41 883.345 1107.19 890.348 1118.5C880.802 1130.5 872.668 1143.62 866.171 1157.5C861.202 1168.12 857.155 1179.32 856.001 1190.99C854.849 1202.66 856.768 1214.88 862.997 1224.81C870.183 1236.26 882.277 1243.65 894.369 1249.7C913.71 1259.38 934.595 1266.82 956.209 1267.62C977.82 1268.42 1000.31 1261.98 1015.87 1246.96C1020.53 1242.46 1024.59 1237.11 1026.39 1230.89C1028.67 1222.97 1027.09 1214.51 1025.43 1206.43C1023.49 1196.98 1021.3 1187.19 1015.37 1179.59C1007.38 1169.36 994.21 1164.97 978.061 1160.82Z" fill="#EE5274"/>
<path d="M525.025 498.352C524.197 495.539 521.222 494.201 519.513 491.958C518.982 491.432 517.896 490.089 517.563 489.68C517.539 489.65 517.52 489.624 517.497 489.596C506.069 473.579 507.951 457.935 519.67 445.625C525.166 440.108 516.774 431.701 511.227 437.18C495.485 451.37 491.955 477.251 505.187 494.252C507.876 498.016 511.303 501.189 515.187 503.695C517.284 505.298 520.043 506.112 522.452 504.678C524.64 503.43 525.65 500.764 525.025 498.352Z" fill="#FFF9EF"/>
<path d="M554.714 505.703C550.103 504.873 544.066 502.366 540.187 506.084C535.86 510.124 539.128 518.024 545.051 517.829C549.716 518.244 556.096 519.731 559.068 515.034C561.357 511.319 558.634 506.766 554.714 505.703Z" fill="#FFF9EF"/>
<path d="M677.651 290.631C666.078 276.13 637.855 280.103 624.815 291.128C621.946 293.703 617.816 296.377 617.645 300.578C617.472 305.797 624.421 308.675 627.998 304.866C638.385 294.168 649.699 291.272 664.723 296.309C667.273 296.968 666.833 297.839 672.236 298.84C676.268 298.988 679.466 294.277 677.651 290.631Z" fill="#FFF9EF"/>
<path d="M979.897 344.113C971.831 326.902 949.14 316.454 931.376 324.224C925.811 328.054 930.491 337.325 936.904 335.318C948.285 332.379 960.982 337.354 966.824 347.808C969.234 352.35 968.178 350.119 970.147 356.111C970.98 359.054 972.247 362.34 975.472 363.26C986.433 364.729 983.387 350.037 979.897 344.113Z" fill="#FFF9EF"/>
<path d="M1061.42 465.395C1059.94 463.457 1059.04 460.634 1056.47 459.949C1052.63 458.753 1049.1 463.351 1051.23 466.753C1053.56 469.569 1054.95 473.856 1058.46 475.316C1060.74 475.993 1063.34 474.51 1063.93 472.208C1064.64 469.608 1062.64 467.491 1061.42 465.395Z" fill="#FFF9EF"/>
<path d="M1067.88 496.167C1065.63 489.871 1055.56 491.957 1055.8 498.598C1055.2 504.09 1052.02 512.711 1043.98 519.264C1043.32 519.837 1042.65 520.405 1041.97 520.947C1041.79 521.084 1041.61 521.22 1041.4 521.384C1041.31 521.45 1041.23 521.518 1041.14 521.584C1040.88 521.711 1039.01 523.003 1038.64 523.713C1037.37 525.16 1037.05 527.574 1037.92 529.297C1042.7 538.129 1054.06 527.48 1058.3 522.814C1064.03 515.573 1069.53 505.575 1067.88 496.167Z" fill="#FFF9EF"/>
<path d="M765.759 1054.02C758.106 1049.59 751.327 1061.19 758.923 1065.71C761.614 1067.12 769.682 1077.45 770.66 1082.63C774.477 1094.74 772.421 1092.21 774.172 1099.19C775.425 1102.74 780.464 1103.63 783.027 1100.95C790.864 1084.73 779.326 1063.76 765.759 1054.02Z" fill="#FFF9EF"/>
<path d="M769.195 1117.05C764.793 1127.5 777.524 1134.17 781.757 1122.97C786.557 1113.55 772.777 1107.04 769.195 1117.05Z" fill="#FFF9EF"/>
<path d="M1001.79 1191.07C995.909 1188.19 990.322 1196.58 995.085 1201.02C1004.22 1209.04 1002.48 1220.51 996.122 1228.41C988.828 1234 997.468 1246.85 1007.74 1233.71C1018.43 1221.44 1015.36 1199.89 1001.79 1191.07Z" fill="#FFF9EF"/>
<path d="M977.354 782.775C973.642 780.926 968.881 784.169 969.019 788.274C967.942 799.041 962.584 823.261 956.443 838.585C954.932 843.805 951.652 848.932 951.407 854.343C951.69 858.257 956.54 860.503 959.829 858.48C966.554 850.948 968.744 839.861 972.214 830.485C975.921 818.406 978.679 806.032 980.374 793.509C981.056 789.692 981.974 784.402 977.354 782.775Z" fill="#FFF9EF"/>
<path d="M979.522 743.366C977.346 748.928 972.348 760.098 981.214 762.011C985.715 762.725 988.605 757.807 990.087 754.229C990.976 750.953 993.398 747.752 992.912 744.281C992.365 737.025 981.183 736.338 979.522 743.366Z" fill="#FFF9EF"/>
<path d="M560.786 822.326C560.613 822.326 560.44 822.316 560.267 822.297C537.962 819.955 518.066 812.314 502.729 800.194C485.151 786.309 474.012 766.668 472.175 746.31C469.318 714.776 490.109 682.39 521.619 669.309C549.979 657.55 584.526 660.922 614.025 678.35C616.367 679.736 617.141 682.755 615.761 685.098C614.381 687.44 611.365 688.214 609.014 686.834C582.568 671.208 550.533 667.981 525.395 678.408C497.76 689.879 479.504 718.061 481.985 745.426C483.582 763.104 493.369 780.249 508.836 792.465C522.705 803.43 540.846 810.356 561.296 812.506C563.999 812.789 565.961 815.208 565.676 817.917C565.413 820.446 563.277 822.326 560.786 822.326Z" fill="#4C1433"/>
<path d="M820.185 821.091C798.649 821.091 776.593 810.212 764.079 791.692C748.108 768.064 748.18 733.923 764.252 708.669C779.388 684.893 807.387 669.339 837.325 668.083C864.844 666.944 893.512 677.549 915.937 697.247C917.981 699.04 918.184 702.152 916.384 704.196C914.591 706.236 911.479 706.437 909.435 704.643C888.895 686.604 862.747 676.908 837.739 677.923C810.97 679.049 785.996 692.857 772.563 713.96C758.53 736.005 758.395 765.703 772.236 786.181C786.654 807.495 815.784 816.99 838.58 807.784C841.106 806.765 843.971 807.982 844.992 810.501C846.011 813.026 844.794 815.893 842.274 816.912C835.266 819.745 827.76 821.091 820.185 821.091Z" fill="#4C1433"/>
<path d="M537.985 543.556C515.748 543.561 493.649 533.571 479.966 516.869C463.874 497.224 459.878 468.906 470.011 446.399C480.428 423.261 505.893 407.746 530.598 409.55C533.311 409.742 535.35 412.104 535.152 414.816C534.956 417.533 532.614 419.592 529.886 419.37C509.254 417.946 487.776 430.941 478.994 450.439C470.357 469.623 473.81 493.809 487.584 510.627C500.911 526.902 523.534 535.774 545.213 533.299C566.461 530.85 586.294 518.158 598.275 499.349C599.737 497.055 602.791 496.387 605.074 497.838C607.369 499.3 608.047 502.345 606.585 504.64C593.028 525.93 570.506 540.301 546.339 543.08C543.564 543.402 540.774 543.556 537.985 543.556Z" fill="#4C1433"/>
<path d="M722.939 557.118C689.495 557.118 658.235 532.104 651.199 499.309C650.627 496.651 652.319 494.029 654.979 493.462C657.658 492.871 660.26 494.588 660.827 497.242C666.939 525.741 695.742 548.095 724.767 547.239C753.907 546.297 781.083 522.072 785.349 493.231C785.749 490.542 788.235 488.7 790.943 489.08C793.631 489.48 795.492 491.98 795.093 494.674C790.083 528.566 759.326 555.978 725.085 557.08C724.368 557.103 723.651 557.118 722.939 557.118Z" fill="#4C1433"/>
<path d="M818.039 553.396C800.643 553.396 783.335 545.407 772.562 531.493C770.899 529.344 771.292 526.253 773.443 524.584C775.601 522.924 778.684 523.308 780.353 525.464C791.78 540.227 813.047 547.052 830.933 541.685C833.545 540.911 836.285 542.383 837.064 544.989C837.844 547.596 836.367 550.337 833.76 551.121C828.634 552.659 823.33 553.396 818.039 553.396Z" fill="#4C1433"/>
<path d="M876.43 570.185C869.672 570.185 862.968 569.069 856.643 566.788C836.878 559.662 822.364 541.333 820.526 521.182C820.281 518.475 822.277 516.08 824.984 515.83C827.731 515.56 830.091 517.581 830.338 520.288C831.809 536.447 844 551.759 859.981 557.527C875.424 563.077 894.402 560.056 908.363 549.812C921.772 539.958 930.968 523.549 932.949 505.918C933.251 503.214 935.675 501.258 938.398 501.575C941.1 501.883 943.043 504.321 942.74 507.024C940.451 527.334 929.778 546.297 914.192 557.748C903.083 565.909 889.665 570.185 876.43 570.185Z" fill="#4C1433"/>
<path d="M632.539 544.676C630.115 544.676 627.686 544.533 625.271 544.248C609.66 542.396 594.839 534.491 584.609 522.548C582.834 520.485 583.074 517.379 585.143 515.609C587.211 513.839 590.318 514.07 592.082 516.143C600.73 526.223 613.248 532.903 626.435 534.466C639.612 536.033 653.358 532.461 664.116 524.675C666.31 523.082 669.392 523.573 670.993 525.78C672.586 527.983 672.09 531.061 669.888 532.658C659.12 540.449 645.827 544.676 632.539 544.676Z" fill="#4C1433"/>
<path d="M953.081 547.999C943.636 547.999 934.181 545.767 925.865 541.333C923.466 540.05 922.556 537.067 923.835 534.668C925.12 532.273 928.086 531.369 930.501 532.639C943.549 539.597 959.973 540.02 973.357 533.735C986.74 527.453 996.908 514.551 999.894 500.06C1000.44 497.401 1003.02 495.697 1005.71 496.232C1008.38 496.781 1010.09 499.387 1009.54 502.051C1005.94 519.519 993.681 535.076 977.54 542.651C969.933 546.225 961.507 547.999 953.081 547.999Z" fill="#4C1433"/>
<path d="M1041.67 553.18C1022.32 553.18 1002.94 544.532 990.901 529.09C989.232 526.944 989.612 523.847 991.757 522.174C993.897 520.505 996.998 520.885 998.673 523.031C1013.03 541.459 1041.04 548.505 1062.42 539.06C1083.79 529.613 1097.44 504.173 1093.49 481.136C1089.53 458.105 1068.19 438.67 1044.88 436.89C1042.17 436.683 1040.14 434.318 1040.35 431.605C1040.56 428.893 1042.84 426.888 1045.64 427.07C1073.69 429.211 1098.44 451.742 1103.2 479.473C1107.95 507.208 1092.14 536.697 1066.4 548.072C1058.57 551.526 1050.12 553.18 1041.67 553.18Z" fill="#4C1433"/>
<path d="M536.806 437.169C534.883 437.169 533.055 436.034 532.262 434.148C525.394 417.749 526.366 398.632 534.853 383.006C543.347 367.386 558.862 356.171 576.358 353.011C579.065 352.515 581.596 354.309 582.081 356.984C582.562 359.663 580.782 362.222 578.109 362.707C563.738 365.3 550.479 374.879 543.511 387.71C536.537 400.541 535.71 416.874 541.351 430.34C542.399 432.85 541.216 435.736 538.711 436.789C538.085 437.049 537.441 437.169 536.806 437.169Z" fill="#4C1433"/>
<path d="M550.749 370.021C548.407 370.021 546.333 368.348 545.905 365.962C537.831 320.86 566.72 272.676 610.306 258.546C653.889 244.417 705.565 266.482 725.485 307.751C726.667 310.198 725.644 313.141 723.191 314.324C720.748 315.508 717.805 314.478 716.617 312.031C698.75 275.037 652.412 255.246 613.346 267.915C574.267 280.583 548.363 323.789 555.601 364.23C556.082 366.905 554.297 369.464 551.62 369.945C551.325 369.998 551.037 370.021 550.749 370.021Z" fill="#4C1433"/>
<path d="M697.831 338.969C697.067 338.969 696.291 338.791 695.565 338.416C693.152 337.161 692.213 334.188 693.464 331.775C702.548 314.292 719.526 301.649 738.878 297.96C758.251 294.261 778.67 299.782 793.545 312.7C795.6 314.484 795.82 317.592 794.037 319.645C792.256 321.708 789.13 321.929 787.092 320.136C774.655 309.339 756.875 304.544 740.724 307.636C724.552 310.719 709.797 321.708 702.207 336.315C701.327 338.002 699.611 338.969 697.831 338.969Z" fill="#4C1433"/>
<path d="M757.559 306.178C754.876 306.178 752.678 304.028 752.635 301.334C752.222 276.649 765.745 252.688 787.088 240.29C808.433 227.883 835.947 227.998 857.185 240.584C859.527 241.969 860.296 244.99 858.911 247.331C857.531 249.673 854.514 250.452 852.164 249.057C834.224 238.433 810.058 238.338 792.033 248.802C774.012 259.278 762.133 280.324 762.484 301.171C762.527 303.889 760.363 306.129 757.641 306.178H757.559Z" fill="#4C1433"/>
<path d="M964.267 301.499C964.166 301.499 964.06 301.494 963.959 301.488C961.242 301.321 959.178 298.984 959.347 296.271C960.963 270.075 941.47 243.979 915.895 238.098C890.353 232.23 861.386 247.177 851.397 271.449C850.359 273.966 847.488 275.153 844.967 274.128C842.452 273.094 841.254 270.214 842.289 267.698C854.028 239.169 888.069 221.602 918.097 228.499C948.166 235.41 971.081 266.088 969.178 296.876C969.018 299.488 966.849 301.499 964.267 301.499Z" fill="#4C1433"/>
<path d="M1004.57 396.501C1003.92 396.501 1003.27 396.376 1002.64 396.107C1000.14 395.035 998.976 392.138 1000.04 389.638C1009.35 367.9 1004.3 340.906 987.785 323.986C971.269 307.063 944.39 301.369 922.45 310.141C919.931 311.145 917.06 309.919 916.049 307.394C915.039 304.869 916.271 302.002 918.796 300.993C944.338 290.778 975.617 297.415 994.836 317.109C1014.05 336.794 1019.92 368.213 1009.1 393.514C1008.3 395.381 1006.48 396.501 1004.57 396.501Z" fill="#4C1433"/>
<path d="M1062.54 435.837C1061.84 435.837 1061.12 435.683 1060.44 435.36C1057.98 434.197 1056.93 431.259 1058.1 428.801C1065.19 413.853 1063.35 394.861 1053.54 381.55C1043.71 368.238 1026.13 360.85 1009.74 363.225C1007 363.601 1004.55 361.74 1004.16 359.052C1003.77 356.358 1005.64 353.863 1008.33 353.473C1028.19 350.626 1049.54 359.546 1061.46 375.702C1073.37 391.851 1075.6 414.888 1067 433.023C1066.16 434.799 1064.39 435.837 1062.54 435.837Z" fill="#4C1433"/>
<path d="M657.054 378H656.963C643.332 378.048 627.265 386.772 625.071 399.7C623.706 407.737 627.405 410.146 628.616 410.94C635.97 415.714 652.61 413.161 664.249 405.471C667.711 403.182 675.618 397.05 674.295 389.533C672.458 379.15 661.699 378 657.054 378ZM638.932 423.227C633.05 423.232 627.563 422.005 623.24 419.187C619.382 416.676 613.226 410.583 615.357 398.046C618.483 379.654 639.37 368.209 656.929 368.152H657.064C671.54 368.152 681.85 375.677 683.991 387.82C685.641 397.161 680.422 406.587 669.678 413.691C661.104 419.355 649.397 423.227 638.932 423.227Z" fill="#4C1433"/>
<path d="M958.279 416.873C948.267 416.873 936.666 423 932.516 434.538H932.51C930.645 439.727 931.27 443.622 934.43 446.436C940.782 452.101 956.052 452.558 966.488 447.402C971.25 445.046 976.804 440.679 976.232 433.244C975.275 420.797 966.507 417.772 961.366 417.08C960.362 416.945 959.328 416.873 958.279 416.873ZM950.229 460.887C941.432 460.887 933.126 458.474 927.875 453.79C921.647 448.235 920.002 440.213 923.249 431.2C929.755 413.108 948.429 405.384 962.684 407.317C976.04 409.121 984.995 418.768 986.053 432.489C986.818 442.419 981.277 451.073 970.861 456.227C964.536 459.359 957.226 460.887 950.229 460.887Z" fill="#4C1433"/>
<path d="M694.595 471.791C694.369 471.791 694.137 471.776 693.902 471.743C691.209 471.363 689.333 468.871 689.713 466.179C692.036 449.692 699.586 434.999 710.976 424.805C723.503 413.588 740.26 408.506 755.797 411.198C772.453 414.084 786.803 426.362 791.497 441.748C792.296 444.349 790.828 447.1 788.227 447.893C785.611 448.701 782.87 447.22 782.081 444.623C778.44 432.701 767.2 423.168 754.114 420.904C741.716 418.754 727.688 423.063 717.545 432.143C707.887 440.79 701.468 453.367 699.466 467.555C699.12 470.011 697.008 471.791 694.595 471.791Z" fill="#4C1433"/>
<path d="M836.615 467.751C834.98 467.751 833.383 466.939 832.444 465.458C825.895 455.093 814.238 447.99 802.017 446.922C789.81 445.845 777.081 450.842 768.832 459.916C767.001 461.932 763.889 462.072 761.873 460.249C759.864 458.416 759.714 455.304 761.541 453.289C771.824 441.992 787.68 435.784 802.873 437.111C818.094 438.438 832.613 447.287 840.775 460.196C842.227 462.494 841.539 465.538 839.241 466.991C838.423 467.506 837.514 467.751 836.615 467.751Z" fill="#4C1433"/>
<path d="M812.856 445.913C811.048 445.913 809.312 444.917 808.447 443.191C807.229 440.763 808.215 437.8 810.649 436.582C813.327 435.247 815.025 431.591 814.602 428.089C814.168 424.511 811.86 420.918 808.268 418.231C805.152 415.903 801.063 414.138 795.399 412.671C788.669 410.931 783.351 410.526 778.676 411.382C773.328 412.359 768.826 415.239 766.638 419.087C765.292 421.443 762.282 422.27 759.921 420.929C757.558 419.583 756.731 416.576 758.077 414.21C761.691 407.866 768.726 403.187 776.902 401.697C783.038 400.562 789.694 401.028 797.861 403.138C802.232 404.269 808.681 406.246 814.164 410.344C819.902 414.633 823.624 420.669 824.383 426.907C825.307 434.582 821.47 442.181 815.054 445.394C814.347 445.744 813.597 445.913 812.856 445.913Z" fill="#4C1433"/>
<path d="M863.07 335.534C854.076 335.534 844.207 338.255 837.878 343.07C835.214 345.095 832.151 348.341 832.661 352.314C834.108 363.639 849.393 368.573 863.373 366.799C873.938 365.457 885.774 359.892 884.356 348.629C883.711 343.517 880.82 339.949 875.521 337.722C871.981 336.236 867.639 335.534 863.07 335.534ZM857.813 376.999C841.317 376.999 824.927 369.463 822.887 353.563C822.027 346.827 825.229 340.314 831.915 335.23C844.298 325.819 865.57 322.857 879.335 328.642C887.799 332.192 893.05 338.857 894.128 347.398C896.014 362.364 884.153 374.09 864.614 376.571C862.367 376.855 860.088 376.999 857.813 376.999Z" fill="#4C1433"/>
<path d="M520.9 678.062C518.519 678.062 516.424 676.33 516.042 673.906C509.401 631.854 504.846 580.145 503.534 532.037C503.462 529.32 505.607 527.054 508.325 526.978C510.979 526.949 513.306 529.046 513.384 531.767C514.682 579.472 519.194 630.719 525.767 672.368C526.196 675.056 524.358 677.577 521.675 677.999C521.415 678.043 521.156 678.062 520.9 678.062Z" fill="#4C1433"/>
<path d="M563.729 667.809C561.181 667.809 559.027 665.847 558.824 663.264L557.612 647.649C557.458 645.666 558.512 643.782 560.286 642.881L575.06 635.35C572.261 633.922 569.189 633.008 566.01 632.696C563.474 632.447 561.55 630.301 561.571 627.753C561.685 614.07 572.333 601.473 585.809 599.079C588.469 598.589 591.047 600.391 591.517 603.066C591.994 605.745 590.209 608.298 587.53 608.775C580.081 610.097 573.761 616.422 571.944 623.751C577.936 625.227 583.476 628.261 587.895 632.542C589.041 633.653 589.579 635.24 589.344 636.812C589.108 638.385 588.127 639.746 586.708 640.468L567.687 650.163L568.645 662.505C568.856 665.216 566.826 667.583 564.114 667.794C563.984 667.804 563.854 667.809 563.729 667.809Z" fill="#4C1433"/>
<path d="M840.286 674.272C838.497 674.272 836.776 673.296 835.9 671.599C832.413 664.808 831.976 656.503 834.732 649.385C835.078 648.499 835.67 647.729 836.439 647.172C841.046 643.839 844.97 641.343 848.597 639.174C845.765 637.246 842.985 636.014 840.484 635.038C838.301 634.192 837.021 631.926 837.415 629.618C839.373 618.196 847.52 607.89 858.176 603.355C860.683 602.287 863.568 603.45 864.636 605.956C865.703 608.458 864.535 611.352 862.035 612.416C855.552 615.175 850.362 620.903 848.073 627.58C851.963 629.421 856.374 632.12 860.64 636.486C861.702 637.573 862.203 639.097 861.991 640.607C861.779 642.117 860.885 643.44 859.562 644.2C854.425 647.138 849.645 649.87 843.47 654.252C842.229 658.474 842.647 663.178 844.662 667.097C845.904 669.515 844.951 672.483 842.533 673.728C841.812 674.099 841.042 674.272 840.286 674.272Z" fill="#4C1433"/>
<path d="M808.205 915.791C741.23 915.791 674.31 911.082 608.892 906.475C596.553 905.61 582.566 904.624 570.438 897.977C557.708 891.003 547.685 877.904 542.202 861.086C537.445 846.479 536.485 831.287 535.555 816.594C535.382 813.877 537.445 811.539 540.158 811.366C542.875 811.227 545.213 813.252 545.386 815.969C546.276 830.055 547.2 844.614 551.571 858.036C556.269 872.459 564.653 883.573 575.17 889.34C585.41 894.952 598.255 895.857 609.586 896.655C705.339 903.388 804.357 910.361 901.601 902.359C918.568 900.964 936.243 898.8 949.464 889.205C963.968 878.687 971.442 860.586 977.858 842.949C1011.76 749.798 1032.79 652.457 1040.38 553.621C1040.59 550.91 1042.94 548.865 1045.66 549.087C1048.38 549.294 1050.41 551.659 1050.2 554.372C1042.54 654.103 1021.32 752.328 987.111 846.316C980.176 865.39 972.005 885.026 955.244 897.18C939.97 908.264 920.766 910.669 902.409 912.179C871.106 914.753 839.643 915.791 808.205 915.791Z" fill="#4C1433"/>
<path d="M597.934 676.835C597.67 676.835 597.405 676.816 597.136 676.772C594.451 676.335 592.629 673.8 593.067 671.117C595.616 655.496 595.352 639.708 592.278 624.193C591.308 619.282 589.782 612.983 586.58 607.842C583.578 603.022 579.302 599.709 574.85 598.751C570.015 597.726 564.385 599.348 559.777 603.108C555.689 606.441 552.318 611.304 549.471 617.974C543.252 632.499 542.151 648.883 546.364 664.119C547.09 666.741 545.552 669.454 542.93 670.179C540.343 670.905 537.601 669.376 536.871 666.745C532.065 649.364 533.32 630.67 540.415 614.103C543.902 605.932 548.201 599.838 553.549 595.477C560.446 589.845 569.155 587.465 576.912 589.123C583.968 590.633 590.538 595.563 594.938 602.637C598.983 609.135 600.805 616.546 601.94 622.278C605.24 638.953 605.529 655.92 602.792 672.705C602.398 675.118 600.305 676.835 597.934 676.835Z" fill="#4C1433"/>
<path d="M808.678 683.492H808.668C805.946 683.487 803.748 681.279 803.754 678.557C803.777 666.028 803.801 653.077 806.326 640.284C809.227 625.631 815.262 613.276 823.779 604.551C828.112 600.117 837.023 592.822 848.335 593.836C855.881 594.515 863.075 598.969 868.073 606.053C871.723 611.228 874.205 617.629 875.887 626.194C878.995 642.05 878.379 658.666 874.094 674.253C873.377 676.878 870.655 678.408 868.044 677.697C865.419 676.979 863.879 674.268 864.6 671.646C868.478 657.516 869.039 642.459 866.221 628.088C864.818 620.932 862.845 615.734 860.022 611.728C856.746 607.081 852.048 604.062 847.451 603.648C842.217 603.182 836.129 606.013 830.829 611.435C823.65 618.787 818.518 629.421 815.992 642.194C813.651 654.049 813.627 666.52 813.602 678.576C813.598 681.294 811.395 683.492 808.678 683.492Z" fill="#4C1433"/>
<path d="M664.242 1091.52C642.832 1091.52 621.67 1085.53 604.352 1074.11C578.257 1056.9 561.265 1027.49 560.005 997.346C558.548 962.643 576.199 931.291 595.489 902.575C597.008 900.319 600.063 899.714 602.322 901.233C604.578 902.748 605.179 905.811 603.664 908.066C585.312 935.388 568.509 965.067 569.845 996.933C570.975 1023.97 586.279 1050.39 609.778 1065.89C632.376 1080.79 662.257 1085.51 689.693 1078.5C692.319 1077.82 695.007 1079.42 695.68 1082.06C696.354 1084.69 694.762 1087.37 692.127 1088.05C682.984 1090.38 673.586 1091.52 664.242 1091.52Z" fill="#4C1433"/>
<path d="M687.068 1054.34H686.938C655.962 1053.54 631.127 1042.18 618.796 1023.16C607.994 1006.5 606.444 983.01 614.65 960.31C621.859 940.381 634.686 923.649 647.093 907.47C648.753 905.316 651.84 904.907 654 906.557C656.16 908.215 656.567 911.303 654.913 913.463C642.958 929.05 630.602 945.161 623.912 963.658C616.752 983.476 617.925 1003.72 627.058 1017.8C642.025 1040.88 674.098 1044.16 687.188 1044.49C689.91 1044.56 692.055 1046.82 691.988 1049.54C691.916 1052.22 689.728 1054.34 687.068 1054.34Z" fill="#4C1433"/>
<path d="M690.888 1100.3C690.263 1100.3 689.628 1100.18 689.017 1099.93C686.502 1098.89 685.299 1096.02 686.333 1093.5C693.061 1077.13 690.936 1057.13 680.918 1042.54C679.38 1040.3 679.947 1037.24 682.188 1035.7C684.439 1034.16 687.502 1034.72 689.036 1036.97C700.886 1054.23 703.402 1077.89 695.442 1097.24C694.658 1099.15 692.821 1100.3 690.888 1100.3Z" fill="#4C1433"/>
<path d="M726.379 1056.29C723.883 1056.29 721.742 1054.4 721.483 1051.86C720.531 1042.42 716.217 1034.04 709.652 1028.86C702.78 1023.44 693.253 1021.92 685.928 1025.08C678.372 1028.34 673.564 1036.78 674.982 1044.28C675.486 1046.95 673.731 1049.53 671.058 1050.03C668.398 1050.55 665.811 1048.79 665.305 1046.11C663.026 1034.07 670.216 1021.14 682.023 1016.04C692.724 1011.41 705.968 1013.41 715.75 1021.13C724.398 1027.95 730.062 1038.79 731.284 1050.87C731.558 1053.58 729.587 1055.99 726.879 1056.27C726.71 1056.28 726.543 1056.29 726.379 1056.29Z" fill="#4C1433"/>
<path d="M699.438 1123.27C692.966 1123.27 686.496 1121.58 680.869 1118.23C670.606 1112.13 663.83 1100.93 663.191 1089C663.047 1086.28 665.129 1083.97 667.846 1083.82C670.506 1083.68 672.882 1085.75 673.03 1088.47C673.488 1097.03 678.542 1105.39 685.901 1109.76C693.274 1114.15 703.027 1114.58 710.75 1110.9C718.488 1107.21 724.284 1099.36 725.52 1090.88C725.908 1088.19 728.385 1086.28 731.102 1086.72C733.792 1087.11 735.657 1089.61 735.262 1092.3C733.541 1104.12 725.775 1114.65 714.987 1119.79C710.115 1122.11 704.778 1123.27 699.438 1123.27Z" fill="#4C1433"/>
<path d="M706.406 1204.92C697.826 1204.92 689.295 1203.75 681.11 1201.32C662.401 1195.76 649.33 1183.91 646.14 1169.61C643.501 1157.73 647.699 1144.38 657.37 1133.89C667.321 1123.09 681.441 1116.65 696.109 1116.2C710.83 1115.85 725.264 1121.33 735.849 1131.5C737.811 1133.38 737.874 1136.5 735.994 1138.46C734.108 1140.43 730.986 1140.49 729.03 1138.61C720.473 1130.39 708.392 1125.63 696.408 1126.05C684.544 1126.41 672.66 1131.83 664.614 1140.56C657.237 1148.57 653.845 1158.87 655.76 1167.47C659.309 1183.41 678.209 1190.18 683.913 1191.87C713.419 1200.64 748.078 1191.09 770.149 1168.13C791.733 1145.67 800.88 1112.07 794.013 1080.43C790.074 1062.32 781.326 1047.68 769.37 1039.23C755.793 1029.64 737.431 1028.89 725.716 1037.45C723.518 1039.06 720.44 1038.57 718.834 1036.37C717.233 1034.18 717.708 1031.1 719.906 1029.49C734.935 1018.51 758.135 1019.23 775.054 1031.19C789.026 1041.06 799.178 1057.81 803.64 1078.34C811.192 1113.14 801.078 1150.16 777.248 1174.96C758.793 1194.17 732.382 1204.92 706.406 1204.92Z" fill="#4C1433"/>
<path d="M920.683 1094.97C920.111 1094.97 919.525 1094.87 918.957 1094.66C916.407 1093.71 915.118 1090.87 916.071 1088.32C938.252 1029.04 921.251 957.661 874.725 914.746C872.725 912.9 872.6 909.784 874.442 907.788C876.288 905.782 879.4 905.672 881.401 907.504C930.793 953.063 948.842 1028.83 925.295 1091.77C924.554 1093.75 922.679 1094.97 920.683 1094.97Z" fill="#4C1433"/>
<path d="M949.715 1108.66C949.041 1108.66 948.354 1108.52 947.695 1108.23C945.213 1107.11 944.111 1104.19 945.232 1101.71C972.843 1040.51 965.518 965.625 926.576 910.933C925 908.715 925.515 905.643 927.732 904.065C929.949 902.492 933.021 903.002 934.599 905.219C975.536 962.709 983.23 1041.43 954.206 1105.76C953.389 1107.58 951.594 1108.66 949.715 1108.66Z" fill="#4C1433"/>
<path d="M945.93 1111.33C940.539 1111.33 935.147 1110.28 930.189 1108.18C919.802 1103.77 911.428 1094.76 907.787 1084.09C906.908 1081.51 908.283 1078.71 910.855 1077.83C913.433 1076.94 916.232 1078.33 917.108 1080.9C919.859 1088.97 926.188 1095.78 934.036 1099.12C941.881 1102.44 951.181 1102.29 958.9 1098.65C961.377 1097.49 964.296 1098.56 965.45 1101.02C966.604 1103.48 965.547 1106.42 963.085 1107.57C957.746 1110.08 951.836 1111.33 945.93 1111.33Z" fill="#4C1433"/>
<path d="M911.191 1134.42C910.935 1134.42 910.676 1134.4 910.416 1134.35C897.494 1132.3 885.936 1122.62 881.662 1110.26C877.386 1097.89 880.493 1083.14 889.385 1073.55C898.277 1063.96 912.763 1059.75 925.407 1063.07C928.038 1063.77 929.606 1066.46 928.913 1069.09C928.22 1071.72 925.536 1073.29 922.897 1072.6C913.653 1070.17 903.092 1073.24 896.609 1080.24C890.116 1087.24 887.851 1098.01 890.972 1107.04C894.094 1116.06 902.524 1123.13 911.955 1124.63C914.644 1125.05 916.475 1127.58 916.049 1130.26C915.663 1132.69 913.57 1134.42 911.191 1134.42Z" fill="#4C1433"/>
<path d="M951.272 1142.05C944.568 1142.05 937.781 1140.55 931.597 1137.55C929.148 1136.36 928.129 1133.42 929.317 1130.97C930.505 1128.53 933.448 1127.5 935.897 1128.69C945.717 1133.46 957.404 1133.39 966.417 1128.54C975.752 1123.52 981.788 1113.4 981.446 1103.36C981.1 1093.18 973.75 1083.61 964.354 1081.1C961.723 1080.39 960.164 1077.7 960.867 1075.07C961.569 1072.44 964.301 1070.89 966.892 1071.58C980.537 1075.22 990.794 1088.45 991.285 1103.03C991.756 1116.72 983.638 1130.46 971.086 1137.21C965.099 1140.44 958.231 1142.05 951.272 1142.05Z" fill="#4C1433"/>
<path d="M964.757 1272.52C952.484 1272.52 940.412 1270.66 929.486 1268.59C916.909 1266.2 902.265 1262.88 889.011 1256.38C878.868 1251.41 865.066 1242.29 856.923 1227.11C847.892 1210.25 847.459 1188.1 855.74 1166.32C862.973 1147.28 875.208 1131.13 887.044 1115.52C888.673 1113.35 891.762 1112.91 893.941 1114.56C896.11 1116.2 896.538 1119.3 894.892 1121.46C883.48 1136.53 871.678 1152.1 864.944 1169.82C857.678 1188.93 857.919 1208.11 865.604 1222.45C872.505 1235.33 884.5 1243.2 893.348 1247.53C905.521 1253.5 918.795 1256.53 931.324 1258.92C948.175 1262.11 967.825 1264.76 985.898 1260.27C1004.44 1255.63 1019.21 1242.92 1023.53 1227.87C1028.43 1210.76 1019.87 1190.07 1003.16 1178.67C988.352 1168.57 968.129 1165.06 946.193 1168.79C925.267 1172.35 909.523 1182.65 904.074 1196.34C903.073 1198.87 900.202 1200.11 897.682 1199.09C895.152 1198.09 893.916 1195.23 894.926 1192.7C904.622 1168.32 932.853 1161.07 944.539 1159.08C968.989 1154.92 991.78 1158.99 1008.71 1170.53C1028.82 1184.26 1039.03 1209.51 1032.99 1230.58C1027.64 1249.23 1010.51 1264.27 988.284 1269.82C980.527 1271.76 972.601 1272.52 964.757 1272.52Z" fill="#4C1433"/>
<path d="M976.161 1165.13C975.863 1165.13 975.56 1165.11 975.256 1165.05C972.583 1164.56 970.817 1161.98 971.313 1159.31C972.693 1151.88 971.222 1143.92 967.277 1137.47C965.855 1135.15 966.585 1132.12 968.908 1130.7C971.216 1129.27 974.256 1130.02 975.675 1132.33C980.874 1140.83 982.817 1151.32 980.998 1161.11C980.557 1163.48 978.488 1165.13 976.161 1165.13Z" fill="#4C1433"/>
<path d="M1100.83 902.796C1100.52 902.796 1100.2 902.767 1099.88 902.705C1097.22 902.184 1095.47 899.598 1095.99 896.929C1109.04 830.104 1076.1 756.242 1017.66 721.308C1015.33 719.913 1014.57 716.888 1015.96 714.555C1017.36 712.217 1020.39 711.462 1022.71 712.852C1084.59 749.845 1119.48 828.054 1105.66 898.813C1105.2 901.165 1103.14 902.796 1100.83 902.796Z" fill="#4C1433"/>
<path d="M1129.84 898.074C1129.59 898.074 1129.34 898.055 1129.09 898.017C1126.4 897.607 1124.56 895.097 1124.97 892.409C1137 813.357 1098.51 727.815 1031.38 684.382C1029.09 682.905 1028.44 679.857 1029.91 677.572C1031.39 675.287 1034.44 674.638 1036.72 676.11C1107.01 721.581 1147.3 811.136 1134.7 893.89C1134.33 896.327 1132.23 898.074 1129.84 898.074Z" fill="#4C1433"/>
<path d="M1113.98 906.379C1105.78 906.379 1097.58 903.907 1090.86 899.179C1088.64 897.616 1088.1 894.544 1089.67 892.322C1091.23 890.09 1094.31 889.556 1096.53 891.128C1104.23 896.548 1114.55 898.029 1123.46 894.991C1126.61 893.917 1130.02 891.643 1130.1 889.185C1130.18 886.517 1132.37 884.405 1135.02 884.405H1135.17C1137.88 884.487 1140.02 886.757 1139.95 889.474C1139.72 897.145 1132.92 902.17 1126.64 904.311C1122.57 905.701 1118.28 906.379 1113.98 906.379Z" fill="#4C1433"/>
<path d="M1104.09 933.618C1093.76 933.618 1083.72 928 1078.34 919.171C1072.84 910.134 1072.58 898.318 1077.66 889.056C1082.74 879.797 1092.85 873.666 1103.42 873.439H1103.52C1106.2 873.439 1108.39 875.575 1108.44 878.259C1108.5 880.98 1106.34 883.231 1103.63 883.289C1096.62 883.438 1089.66 887.66 1086.3 893.792C1082.93 899.929 1083.11 908.066 1086.75 914.049C1090.39 920.022 1097.39 923.88 1104.53 923.764C1107.49 923.658 1109.51 925.851 1109.58 928.568C1109.64 931.291 1107.49 933.546 1104.77 933.614C1104.54 933.618 1104.31 933.618 1104.09 933.618Z" fill="#4C1433"/>
<path d="M1125.02 931.214C1124.47 931.214 1123.92 931.199 1123.37 931.165C1120.65 931.017 1118.57 928.689 1118.73 925.977C1118.87 923.259 1121.19 921.206 1123.92 921.336C1134.26 921.932 1144.66 914.242 1147.17 904.229C1149.68 894.221 1144.12 882.525 1134.77 878.163C1132.31 877.013 1131.24 874.085 1132.39 871.617C1133.55 869.155 1136.48 868.097 1138.94 869.237C1152.58 875.599 1160.39 892.027 1156.72 906.628C1153.18 920.695 1139.46 931.214 1125.02 931.214Z" fill="#4C1433"/>
<path d="M1088.17 1008.31C1081.53 1008.31 1075.72 1006.05 1071.85 1001.86C1066.02 995.538 1065.76 985.021 1071.28 978.412C1074.95 974.017 1080.79 971.862 1086.44 972.218L1086.06 966.389C1084.05 967.731 1081.79 968.9 1079.3 969.665C1072 971.915 1064.18 969.938 1059.85 964.71C1055.62 959.588 1054.91 952.115 1057.85 943.665C1062.05 931.57 1071.07 921.433 1082.58 915.853C1085.04 914.67 1087.98 915.684 1089.16 918.133C1090.35 920.581 1089.33 923.528 1086.89 924.711C1077.7 929.165 1070.5 937.255 1067.15 946.902C1065.44 951.827 1065.55 956.141 1067.44 958.43C1069.43 960.835 1073.45 961.166 1076.39 960.257C1079.69 959.238 1082.86 956.925 1086.7 952.755C1088.04 951.303 1090.09 950.788 1091.96 951.442C1093.82 952.101 1095.11 953.803 1095.24 955.77L1096.73 978.634C1096.85 980.486 1095.93 982.245 1094.33 983.193C1092.74 984.131 1090.75 984.106 1089.18 983.116C1086.05 981.129 1081.22 981.88 1078.84 984.727C1076.46 987.574 1076.58 992.46 1079.1 995.188C1081.48 997.766 1085.88 998.924 1090.84 998.285C1098.74 997.274 1106.12 992.35 1110.09 985.433C1114.06 978.524 1114.59 969.67 1111.47 962.335C1110.4 959.834 1111.57 956.944 1114.08 955.881C1116.56 954.814 1119.47 955.982 1120.53 958.488C1124.83 968.596 1124.1 980.802 1118.63 990.34C1113.16 999.871 1102.99 1006.66 1092.09 1008.06C1090.76 1008.23 1089.45 1008.31 1088.17 1008.31Z" fill="#4C1433"/>
<path d="M1117.63 1008.81C1111.6 1008.81 1105.88 1006.33 1102.42 1001.99C1100.73 999.856 1101.08 996.759 1103.21 995.067C1105.34 993.379 1108.44 993.74 1110.13 995.86C1112.2 998.468 1116.45 999.611 1120.52 998.611C1124.35 997.673 1128.14 995.162 1132.1 990.93C1136.71 985.992 1139.82 980.581 1141.08 975.291C1142.46 969.492 1141.58 963.46 1138.73 959.165C1137.23 956.895 1137.85 953.841 1140.11 952.336C1142.38 950.836 1145.43 951.456 1146.94 953.721C1151.33 960.349 1152.69 969.039 1150.66 977.57C1148.98 984.626 1145.15 991.383 1139.29 997.654C1133.99 1003.33 1128.61 1006.77 1122.85 1008.18C1121.12 1008.6 1119.36 1008.81 1117.63 1008.81Z" fill="#4C1433"/>
<path d="M1150.94 997.692C1147.3 997.692 1143.75 996.769 1140.76 994.859C1138.47 993.397 1137.8 990.353 1139.26 988.064C1140.72 985.771 1143.77 985.098 1146.05 986.56C1150.41 989.319 1156.69 987.458 1160.25 984.043C1165.05 979.45 1166.7 972.343 1167.25 967.191C1169.04 950.249 1161.69 932.31 1148.53 921.49C1146.43 919.762 1146.13 916.655 1147.85 914.558C1149.57 912.457 1152.68 912.149 1154.78 913.881C1170.67 926.948 1179.2 947.772 1177.04 968.231C1176.01 977.959 1172.56 985.891 1167.06 991.157C1162.6 995.433 1156.65 997.692 1150.94 997.692Z" fill="#4C1433"/>
<path d="M416.146 917.613C415.789 917.613 415.424 917.575 415.059 917.493C396.043 913.223 374.493 908.375 356.342 897.213C335.754 884.555 322.6 864.311 322.022 844.377C321.368 821.682 335.066 799.838 363.907 777.59C397.76 751.486 435.474 731.393 476.011 717.868C478.585 717.003 481.384 718.402 482.241 720.98C483.101 723.558 481.711 726.347 479.129 727.208C439.639 740.386 402.895 759.96 369.919 785.391C343.756 805.571 331.309 824.774 331.872 844.088C332.445 863.995 347.555 880.25 361.498 888.825C378.253 899.126 398.062 903.58 417.224 907.884C419.873 908.481 421.542 911.116 420.945 913.771C420.431 916.06 418.397 917.613 416.146 917.613Z" fill="#4C1433"/>
<path d="M431.842 882.843C431.448 882.843 431.049 882.794 430.654 882.699C418.319 879.645 404.338 876.182 392.968 867.77C381.955 859.639 372.587 844.498 376.477 829.022C379.287 817.849 387.968 809.986 395.879 803.489C420.285 783.473 447.164 766.568 475.775 753.246C478.252 752.098 481.176 753.165 482.315 755.632C483.465 758.094 482.397 761.024 479.931 762.173C452.07 775.148 425.893 791.615 402.126 811.107C395.432 816.6 388.107 823.159 386.029 831.427C383.263 842.42 390.723 853.867 398.822 859.85C408.613 867.092 421.022 870.166 433.021 873.138C435.661 873.792 437.272 876.461 436.618 879.101C436.059 881.343 434.049 882.843 431.842 882.843Z" fill="#4C1433"/>
<path d="M410.644 923.74C408.821 923.74 407.075 922.73 406.22 920.985C405.022 918.546 406.028 915.593 408.471 914.396C416.477 910.462 422.941 903.439 426.202 895.129C429.458 886.819 429.487 877.278 426.279 868.948C425.302 866.409 426.568 863.561 429.107 862.58C431.637 861.624 434.493 862.864 435.474 865.409C439.552 876.008 439.514 888.151 435.369 898.726C431.228 909.298 423.004 918.23 412.808 923.236C412.11 923.577 411.37 923.74 410.644 923.74Z" fill="#4C1433"/>
<path d="M465.32 896.011C464.993 896.011 464.656 895.977 464.325 895.91C461.66 895.361 459.943 892.76 460.492 890.095C462.671 879.486 461.103 869.29 456.188 862.13C450.83 854.314 440.865 850.4 433.049 852.991C424.739 855.752 419.455 864.442 414.337 873.868C413.033 876.254 410.056 877.144 407.657 875.845C405.267 874.547 404.381 871.556 405.681 869.165C411.537 858.383 418.233 847.533 429.948 843.643C442.005 839.645 456.438 845.08 464.306 856.556C470.731 865.91 472.856 878.861 470.139 892.076C469.658 894.409 467.609 896.011 465.32 896.011Z" fill="#4C1433"/>
<path d="M425.944 948.936C424.136 948.936 422.347 948.792 420.596 948.499C404.172 945.733 391.778 928.842 394.073 912.351C394.447 909.659 396.938 907.783 399.628 908.153C402.32 908.528 404.201 911.015 403.826 913.707C402.263 924.947 411.035 936.903 422.226 938.784C429.272 939.966 437.23 937.711 444.089 932.614C449.909 928.299 454.991 922.148 460.09 913.266C461.441 910.904 464.447 910.091 466.814 911.448C469.17 912.798 469.987 915.809 468.63 918.171C462.835 928.27 456.901 935.373 449.962 940.519C442.593 945.993 434.085 948.936 425.944 948.936Z" fill="#4C1433"/>
<path d="M484.477 974.118C480.215 974.118 476.776 972.675 474.546 969.886C471.361 965.908 472.015 960.72 472.232 959.011C472.496 956.944 472.924 954.895 473.511 952.889C471.857 953.284 470.173 953.553 468.481 953.688C458.95 954.444 449.142 950.961 442.222 944.372C440.25 942.497 440.174 939.375 442.049 937.408C443.94 935.442 447.051 935.37 449.013 937.235C453.942 941.934 460.92 944.387 467.702 943.868C472.574 943.482 477.31 941.535 481.12 938.457C482.538 936.721 484.101 935.105 485.795 933.638C487.698 931.974 490.546 932.037 492.392 933.763C494.235 935.49 494.47 938.332 492.936 940.343C491.542 942.17 489.955 943.853 488.213 945.359C484.881 949.657 482.688 954.857 482.004 960.248C481.682 962.806 482.101 963.562 482.236 963.73C482.601 964.182 484.274 964.606 487.362 963.912C495.495 962.1 502.588 957.737 506.835 951.948C511.375 945.752 512.678 937.606 510.163 931.189C507.6 924.674 500.512 920.008 494.187 920.687C491.459 920.951 489.074 918.974 488.805 916.267C488.54 913.559 490.517 911.15 493.225 910.886C504.094 909.785 515.107 916.839 519.33 927.588C523.11 937.221 521.364 948.783 514.78 957.766C509.062 965.572 500.083 971.171 489.508 973.526C487.732 973.92 486.05 974.118 484.477 974.118Z" fill="#4C1433"/>
<path d="M517.926 942.492C515.964 942.492 514.107 941.309 513.343 939.376C512.348 936.847 513.588 933.984 516.118 932.984C521.149 931.003 525.808 928.925 527.569 925.352C528.934 922.571 528.419 918.989 527.742 916.474C524.803 905.546 514.063 896.808 502.762 896.145C500.049 895.985 497.977 893.658 498.135 890.941C498.294 888.228 500.511 886.103 503.34 886.315C518.93 887.224 533.195 898.833 537.254 913.915C538.851 919.864 538.558 925.324 536.408 929.699C532.82 936.986 524.943 940.092 519.734 942.151C519.137 942.381 518.527 942.492 517.926 942.492Z" fill="#4C1433"/>
<path d="M522.548 901.892C522.077 901.892 521.59 901.824 521.115 901.68C518.512 900.887 517.046 898.136 517.835 895.533C519.792 889.103 517.758 881.38 512.645 875.85C507.898 870.713 500.497 867.323 492.335 866.549C485.165 865.88 477.331 867 468.391 870.006C465.813 870.872 463.022 869.481 462.153 866.903C461.288 864.327 462.676 861.536 465.254 860.667C475.522 857.218 484.675 855.925 493.268 856.747C503.964 857.762 513.415 862.171 519.879 869.165C527.319 877.215 530.218 888.69 527.261 898.4C526.611 900.526 524.659 901.892 522.548 901.892Z" fill="#4C1433"/>
<path d="M581.769 554.388C573.452 547.089 560.422 545.614 551.15 551.975C544.384 556.467 539.637 564.191 539.549 572.402C539.501 578.561 548.557 579.796 550.158 573.838C552.305 563.061 559.785 558.759 569.084 562.079C572.779 563.976 571.05 562.916 574.106 565.758C574.172 565.831 574.231 565.909 574.295 565.984C574.737 566.648 575.791 568.135 576.29 568.706C579.162 572.206 584.837 572.02 587.166 568.028C589.978 562.947 585.469 557.623 581.769 554.388Z" fill="#4C1433"/>
<path d="M866.961 569.951C857.159 560.243 838.089 560.613 830.179 572.369C827.322 578.211 835.656 583.752 840.058 579.026C844.985 574.35 853.021 574.059 857.809 579.102C859.758 581.199 858.972 580.254 861.623 584.936C863.277 587.836 867.329 589.163 870.332 587.426C877.186 582.906 871.43 574.084 866.961 569.951Z" fill="#4C1433"/>
<path d="M521.113 714.632C511.462 714.666 511.484 729.346 521.113 729.406C530.767 729.373 530.745 714.692 521.113 714.632Z" fill="#4C1433"/>
<path d="M562.689 702.622C553.037 702.655 553.059 717.335 562.689 717.396C572.342 717.362 572.32 702.683 562.689 702.622Z" fill="#4C1433"/>
<path d="M554.372 740.501C544.72 740.535 544.742 755.215 554.372 755.275C564.025 755.241 564.003 740.563 554.372 740.501Z" fill="#4C1433"/>
<path d="M803.822 716.479C794.171 716.513 794.193 731.193 803.822 731.253C813.476 731.22 813.454 716.541 803.822 716.479Z" fill="#4C1433"/>
<path d="M853.714 709.088C844.062 709.122 844.082 723.801 853.714 723.862C863.367 723.829 863.345 709.149 853.714 709.088Z" fill="#4C1433"/>
<path d="M835.235 745.121C825.584 745.154 825.605 759.834 835.237 759.895C844.889 759.861 844.867 745.181 835.235 745.121Z" fill="#4C1433"/>
<path d="M940.283 509.404C930.409 509.404 920.762 505.263 913.999 497.997C912.144 496.006 912.254 492.89 914.245 491.038C916.231 489.186 919.357 489.297 921.205 491.283C926.532 497.016 934.665 500.156 942.49 499.459C950.281 498.776 957.765 494.27 962.012 487.7C963.493 485.416 966.537 484.762 968.822 486.238C971.105 487.715 971.759 490.763 970.284 493.048C964.329 502.248 954.263 508.312 943.346 509.269C942.327 509.36 941.302 509.404 940.283 509.404Z" fill="#4C1433"/>
<path d="M1028.15 457.69C1026.46 457.69 1024.81 456.815 1023.89 455.243C1022.52 452.89 1023.32 449.876 1025.67 448.509C1030.95 445.441 1033.26 438.79 1033.67 433.585C1034.2 426.896 1032.46 419.889 1030.78 413.107C1030.13 410.472 1031.74 407.799 1034.38 407.145C1036.97 406.504 1039.68 408.092 1040.34 410.742C1042.13 417.927 1044.15 426.079 1043.49 434.36C1042.71 444.321 1037.9 452.794 1030.63 457.021C1029.85 457.473 1029 457.69 1028.15 457.69Z" fill="#4C1433"/>
<path d="M720.619 359.234C718.853 359.234 717.151 358.287 716.267 356.618C712.583 349.688 705.835 344.422 698.223 342.537C690.59 340.657 682.179 342.157 675.69 346.572C673.439 348.106 670.376 347.515 668.846 345.268C667.317 343.018 667.899 339.954 670.15 338.425C678.918 332.465 690.297 330.427 700.588 332.976C710.881 335.524 719.988 342.638 724.962 352.001C726.241 354.401 725.327 357.382 722.923 358.658C722.186 359.051 721.397 359.234 720.619 359.234Z" fill="#4C1433"/>
<path d="M617.53 507.211C602.423 507.211 587.367 499.15 579.797 485.828C578.449 483.463 579.276 480.457 581.643 479.115C584.019 477.769 587.02 478.6 588.358 480.961C595.773 494.009 613.351 500.637 627.519 495.716C630.087 494.832 632.891 496.192 633.785 498.762C634.675 501.334 633.31 504.137 630.741 505.027C626.461 506.509 621.994 507.211 617.53 507.211Z" fill="#4C1433"/>
<path d="M694.066 698.029C692.791 698.029 691.517 697.54 690.551 696.553C687.703 693.654 684.475 690.363 682.34 686.078C679.676 680.726 679.494 674.805 681.85 670.241C683.749 666.558 687.313 663.648 691.878 662.045C695.485 660.777 699.192 660.463 702.462 660.185C705.242 659.929 707.555 661.959 707.787 664.672C708.017 667.385 706.006 669.765 703.299 669.996C700.481 670.237 697.567 670.486 695.143 671.338C692.988 672.093 691.334 673.338 690.603 674.758C689.694 676.517 689.905 679.171 691.156 681.688C692.593 684.572 695.129 687.156 697.58 689.656C699.485 691.599 699.457 694.715 697.513 696.62C696.557 697.559 695.311 698.029 694.066 698.029Z" fill="#4C1433"/>
<defs>
<linearGradient id="paint0_linear_550_17462" x1="-765.5" y1="-323" x2="983.5" y2="1119" gradientUnits="userSpaceOnUse">
<stop stop-color="#B79A81"/>
<stop offset="1" stop-color="#EBD3C1"/>
</linearGradient>
</defs>
</svg>
