<svg width="1500" height="1500" viewBox="0 0 1500 1500" fill="none" xmlns="http://www.w3.org/2000/svg">
<circle cx="750" cy="750" r="750" fill="url(#paint0_linear_550_17461)"/>
<path d="M1239.64 818.399C1230.22 825.3 1217.46 827.393 1206.33 823.86C1190.48 768.514 1148.32 723.772 1096.08 704.55C1093.76 691.985 1091.19 680.73 1085.48 668.707C1092.17 664.01 1098.03 658.146 1104.57 651.903C1172.3 678.696 1224.3 741.983 1239.64 818.399Z" fill="#4C1433"/>
<path d="M894.753 1107.44C883.313 1108.33 871.572 1103.42 864.17 1094.65C890.67 1061.11 906.771 1019.47 909.724 976.829C912.679 934.186 902.474 890.722 880.853 853.848C880.993 848.11 885.737 842.582 890.481 837.054C903.234 848.031 922.303 851.062 937.185 846.001C955.207 886.611 961.722 932.254 955.782 976.285C949.842 1020.32 931.468 1062.6 894.753 1107.44Z" fill="#4C1433"/>
<path d="M577.793 833.106C586.58 850.893 607.57 861.77 630.621 860.839C618.108 871.85 605.486 882.981 595.693 896.469C585.9 909.956 579.039 926.194 579.628 942.851C580.329 962.631 591.756 981.17 607.687 992.917C623.616 1004.66 643.598 1010.08 662.336 1009.78C669.437 1022.96 671.232 1042.39 659.282 1051.69C628.351 1053.01 593.348 1044.65 567.166 1028.13C540.985 1011.61 521.051 984.09 517.353 953.352C514.758 931.785 520.103 909.757 529.831 890.334C539.559 870.912 553.505 853.885 577.793 833.106Z" fill="#4C1433"/>
<path d="M297.734 514.998C332.867 562.905 386.541 596.84 446.097 607.311C450.274 601.392 454.451 595.474 458.628 589.557C448.304 580.502 441.878 567.144 439.424 553.642C392.587 546.378 348.661 521.674 318.127 485.421C307.689 491.206 300.96 503.115 297.734 514.998Z" fill="#4C1433"/>
<path d="M1039.79 380.319C1040.6 361.188 1032.77 341.857 1018.88 328.676C1004.99 315.495 985.278 308.689 966.215 310.495C963.333 292.44 951.217 278.27 935.761 270.458C920.308 262.646 901.711 261.294 885.29 266.788C874.985 250.016 858.353 236.337 839.387 232.213C820.422 228.091 799.612 233.63 785.207 246.637C770.747 235.679 753.466 229.693 736.743 231.251C720.022 232.81 704.145 241.887 694.317 255.506C676.958 253.612 659.815 253.827 644.705 260.177C629.595 266.529 616.849 279.643 613.502 295.689C598.395 307.044 587.581 320.086 582.947 335.132C566.001 335.077 545.149 342.76 531.067 357.295C516.987 371.828 509.966 392.911 512.524 412.985C495.665 413.967 477.938 427.095 470.479 444.953C463.02 462.813 466.142 484.65 478.309 499.701C463.128 504.721 449.982 519.744 445.608 537.204C441.234 554.663 445.743 574.11 461.884 590.012C446.644 604.578 438.83 626.544 441.445 647.461C444.062 668.38 457.044 687.744 478.056 698.03C473.365 714.337 481.829 733.412 501.221 744.033C494.492 763.528 499.754 786.638 514.26 801.298C528.766 815.96 551.818 821.465 572.046 815.684C575.42 836.597 594.768 852.463 615.553 856.555C636.338 860.647 657.967 854.816 678.267 843.982C687.895 862.916 707.78 876.225 728.956 877.907C750.131 879.59 771.867 869.589 781.178 850.908C794.208 867.899 816.57 877.23 837.813 874.54C859.056 871.851 878.386 857.24 889.514 835.275C903.175 847.05 919.946 849.295 937.777 846.592C955.609 843.891 974.185 836.29 983.863 817.435C1012.94 818.741 1041.57 798.06 1051.36 769.964C1066.77 757.972 1081.41 744.042 1089.51 726.274C1097.6 708.503 1097.99 686.18 1083.07 673.294C1098.07 663.436 1108.36 646.709 1110.39 628.871C1112.41 611.034 1106.14 592.424 1090.55 580.145C1102.74 563.452 1111.36 543.363 1110.74 522.699C1110.11 502.033 1098.9 481.042 1076.29 471.114C1087.32 456.215 1090.19 435.64 1083.65 418.293C1077.12 400.948 1061.39 387.377 1039.79 380.319Z" fill="#EF9660"/>
<path d="M959.423 346.553C922.778 308.827 859.493 279.652 807.488 271.819C755.482 263.986 702.004 270.437 651.521 285.183C637.268 289.347 623.043 294.242 610.543 302.259C598.042 310.274 587.278 321.727 582.514 335.793C590.093 335.974 597.613 338.187 604.084 342.138C614.472 322.255 633.601 303.624 657.123 297.195C680.645 290.766 708.161 298.07 723.115 317.332C744.211 293.702 771.279 284.645 796.09 289.497C820.9 294.35 842.562 312.937 851.126 336.723C873.943 321.82 902.505 323.648 921.494 338.805C940.484 353.96 948.598 381.406 940.902 404.452C965.735 402.995 986.971 415.189 997.478 433.554C1007.99 451.92 1008.07 475.396 999.32 494.661C1021.69 501.395 1038.41 518.283 1043.1 538.462C1047.79 558.64 1040.23 581.168 1024.33 594.441C1045.92 605.034 1059.41 628.469 1056.73 650.92C1054.04 673.37 1035.4 692.962 1013.12 696.763C1017.55 711.442 1019.64 723.702 1018.54 735.86C1017.44 748.016 1012.96 760.11 1004.55 768.962C996.144 777.813 983.573 783.024 971.513 781.136C972.912 794.066 971.375 805.641 968.908 817.323C1045.36 783.954 1078.6 672.858 1072.73 584.166C1066.86 495.474 1031.92 421.184 959.423 346.553Z" fill="#FDE5B9"/>
<path d="M851.035 490.416C842.973 501.072 837.429 513.62 834.977 526.755C843.665 526.864 852.302 529.59 859.477 534.489C848.886 538.664 839.27 545.287 829.373 555.326C829.333 565.777 829.293 576.229 829.31 586.413C813.021 585.842 796.604 589.36 782.737 598.454C780.503 575.382 783.352 551.833 791.022 529.959C795.515 517.144 801.951 504.513 812.494 495.956C823.04 487.398 838.407 483.764 851.035 490.416Z" fill="#FFF9EF"/>
<path d="M504.89 563.619C505.177 541.949 509.855 520.345 518.558 500.498C523.592 489.021 530.47 477.609 541.407 471.493C552.345 465.377 568.14 466.548 579.679 476.255C569.246 480.479 560.983 489.726 557.95 500.033C564.638 505.895 571.326 511.758 578.014 517.621C569.075 519.94 560.518 523.72 551.913 528.766C549.459 539.434 548.812 550.515 550.012 561.395C536.788 558.698 523.104 558.274 504.89 563.619Z" fill="#FFF9EF"/>
<path d="M854.556 489.573C844.212 499.976 836.507 512.983 832.352 527.052L858.908 533.584C849.698 540.359 840.487 547.133 831.041 553.151C828.473 563.52 828.173 574.445 829.315 589.449C845.823 587.593 862.637 588.494 878.851 592.104C882.304 574.252 885.772 556.117 884.177 538.004C882.58 519.89 875.219 501.477 854.556 489.573Z" fill="#4C1433"/>
<path d="M586.316 474.78C573.191 477.452 561.919 487.779 557.7 501.192C563.356 506.263 569.013 511.333 574.669 516.404C566.923 519.171 559.178 521.941 551.502 524.852C549.357 535.578 548.757 546.612 548.034 559.841C565.176 562.339 582.029 566.804 598.16 573.12C604.748 552.51 606.187 530.274 602.309 508.987C600.174 497.265 596.012 485.169 586.316 474.78Z" fill="#4C1433"/>
<path d="M753.917 709.084C742.712 694.414 737.927 675.01 741.027 656.812C699.827 662.378 658.508 661.25 617.593 656.588C609.832 688.208 604.787 715.386 600.776 747.313C642.856 717.577 695.728 703.477 753.917 709.084Z" fill="#4C1433"/>
<path d="M1276.53 844.115C1286.35 852.021 1294.78 861.971 1299.41 873.695C1304.05 885.421 1304.6 899.026 1299.4 910.512C1294.2 921.996 1282.83 930.87 1270.25 931.621C1266.67 938.466 1261.24 943.841 1254.66 946.041C1248.09 948.241 1240.51 947.216 1234.76 943.347C1224.87 947.519 1216.3 949.767 1207.61 950.336C1202.07 950.701 1195.63 949.944 1192.51 945.347C1189.16 940.424 1191.55 933.287 1196.12 929.472C1200.7 925.659 1206.78 924.329 1212.61 923.121C1211.13 914.799 1207.96 908.433 1203.68 902.916C1199.41 908.21 1195.19 912.794 1189.72 915.348C1184.25 917.904 1177.24 917.999 1172.63 914.111C1169.23 911.248 1167.63 906.665 1167.56 902.224C1167.48 897.782 1168.77 893.431 1170.32 889.269C1175.05 876.628 1182.39 864.973 1191.76 855.257C1180.18 848.367 1173.9 836.653 1175.57 825.682C1177.25 814.711 1186.76 805.415 1197.76 803.978C1200.84 811.012 1203.81 817.711 1206.48 824.63C1217.68 828.32 1230.68 825.965 1240.03 818.373C1238.66 811.788 1237.3 805.204 1236.59 798.419C1248.25 797.194 1260.39 802.011 1268.04 810.9C1275.69 819.789 1278.65 832.507 1276.53 844.115Z" fill="#FFF9EF"/>
<path d="M326.7 462.556C338.307 462.582 349.573 469.974 354.216 480.612C358.86 491.248 356.62 504.536 348.747 513.064C338.306 504.823 328.603 495.499 320.173 485.138C305.837 492.087 297.024 505.582 295.324 520.082C304.531 528.178 311.572 535.864 318.614 543.55C308.943 550.841 296.615 551.225 286.965 546.122C277.316 541.017 270.697 530.61 268.501 519.718C241.997 518.652 216.362 504.284 201.62 482.235C197.425 475.959 194.094 467.575 198.042 461.142C200.604 456.968 205.698 454.884 210.593 454.701C215.487 454.518 220.284 455.944 225.325 457.726C218.256 451.506 212.71 443.567 209.302 434.789C206.402 427.318 205.403 417.922 210.886 412.077C215.976 406.655 224.93 406.6 231.583 409.924C238.235 413.25 243.121 419.203 249.722 426.5C244.625 416.465 242.126 405.126 242.532 393.879C242.661 390.283 243.101 386.626 244.601 383.353C246.1 380.08 248.794 377.211 252.25 376.201C257.072 374.793 262.314 377.276 265.772 380.921C269.229 384.566 271.349 389.236 273.8 393.623C278.943 402.827 285.782 411.081 295.008 420.379C295.583 411.774 298.366 402.809 304.97 397.262C311.576 391.714 322.633 391.039 328.33 397.515C331.918 401.593 332.714 407.377 332.947 412.803C333.65 429.152 330.619 445.651 326.7 462.556Z" fill="#FFF9EF"/>
<path d="M914.914 1146.56C926.496 1141.09 934.504 1128.76 934.785 1115.96C935.065 1103.16 927.608 1090.49 916.278 1084.52C909.369 1092.23 902.459 1099.94 895.55 1107.64C887.016 1107.36 875.131 1102.36 866.423 1093.98C872.325 1086.46 877.065 1078 880.22 1068.61C872.847 1068.26 865.392 1068.24 858.16 1069.73C850.929 1071.21 843.879 1074.29 838.595 1079.45C829.28 1088.53 826.884 1103.92 833.01 1119.85C809.093 1135.63 797.342 1166.83 802.411 1195.03C807.482 1223.23 827.99 1247.56 853.881 1259.83C871.357 1268.12 891.9 1271.23 910.247 1265.11C928.593 1258.99 943.957 1242.57 945.75 1223.31C947.542 1204.06 933.379 1183.75 914.17 1181.5C917.216 1169.98 913.192 1156.88 904.201 1149.05C907.011 1148.55 910.113 1148.82 914.914 1146.56Z" fill="#77D0EB"/>
<path d="M702.463 998.299C713.251 988.682 731.049 988.199 742.341 997.22C749.905 1003.26 754.217 1012.5 756.949 1021.79C766.662 1054.81 758.398 1092.53 735.774 1118.47C713.149 1144.4 676.893 1157.71 642.864 1152.56C636.522 1151.61 630.026 1149.93 625.102 1145.82C614.59 1137.05 615.337 1119.33 624.229 1108.92C633.119 1098.5 647.692 1094.53 661.382 1094.81C652.194 1092.28 643.366 1087.11 638.375 1079.35C633.385 1071.58 632.357 1061.4 634.401 1051.51C643.212 1051.7 652.022 1051.89 659.914 1053.15C665.156 1048.83 667.535 1041.79 667.714 1035C667.894 1028.22 666.144 1021.54 664.489 1013.25C655.614 1013.14 646.763 1011.34 638.558 1007.95C641.391 994.801 652.841 983.953 666.123 981.835C679.404 979.716 693.66 986.463 702.463 998.299Z" fill="#77D0EB"/>
<path d="M655.664 741.064C653.216 734.168 643.307 738.971 638.555 740.745C633.229 743.217 628.342 746.533 623.835 750.28C622.727 751.384 622.08 752.93 622.089 754.495C621.914 759.626 628.753 762.457 632.266 758.711C633.73 757.22 641.466 752.204 647.526 749.589C650.934 747.608 657.05 746.242 655.664 741.064Z" fill="#FFF9EF"/>
<path d="M997.418 710.201C997.429 708.633 996.776 707.09 995.672 705.986C992.17 702.239 985.326 705.064 985.494 710.201C986.095 721.668 985.001 724.64 978.064 734.838C980.951 731.015 974.546 739.589 977.318 735.959C975.577 738.786 972.602 739.795 975.334 744.638C980.626 750.555 988.051 741.278 991.06 736.945C995.996 729.054 998.459 719.487 997.418 710.201Z" fill="#FFF9EF"/>
<path d="M958.166 753.441C955.123 756.313 951.037 761.343 954.829 765.209C959.189 769.347 965.593 763.995 967.829 759.954C970.634 754.24 962.468 748.817 958.166 753.441Z" fill="#FFF9EF"/>
<path d="M664.813 321.896C647.866 325.405 633.141 337.35 623.873 351.709C619.982 358.441 630.185 364.42 634.168 357.728C640.026 348.877 646.122 342.859 657.408 336.949C658.567 336.155 668.699 332.355 666.697 333.091C668.402 332.469 670.209 331.788 671.109 330.085C673.682 326 669.437 320.461 664.813 321.896Z" fill="#FFF9EF"/>
<path d="M476.323 658.173C478.501 661.124 474.174 655.188 473.716 653.785C472.531 652.22 472.906 650.153 470.523 645.71C466.932 640.472 458.199 644.884 460.093 650.908C462.436 660.24 468.047 669.061 476.377 674.093C479.935 676.33 485 673.422 484.866 669.222C484.473 664.255 478.693 662.214 476.323 658.173Z" fill="#FFF9EF"/>
<path d="M902.677 1237.95C899.65 1232.5 894.974 1236.06 892.704 1235.65C879.18 1236.31 874.21 1235.47 863.762 1228.9C857.395 1225.21 851.734 1234.88 858.066 1238.65C868.107 1245.84 881.236 1249.19 893.411 1246.6C897.625 1245.68 905.038 1243.7 902.677 1237.95Z" fill="#FFF9EF"/>
<path d="M851.795 1223.12C851.307 1221.13 849.816 1219.61 848.407 1218.21C846.408 1216.51 844.548 1214.09 841.667 1214.2C836.534 1214.02 833.705 1220.87 837.45 1224.38C839.827 1226.37 842.038 1228.99 845.133 1229.78C849.023 1230.98 853 1227.01 851.795 1223.12Z" fill="#FFF9EF"/>
<path d="M743.208 1022.79C738.76 1018.94 731.988 1024.95 735.114 1029.89C737.41 1032.95 738.745 1045.48 737.678 1049.11C738.332 1049.95 733.816 1057.38 739.221 1059.84C747.049 1062.52 748.719 1046.9 748.817 1041.69C748.356 1035.3 747.572 1027.71 743.208 1022.79Z" fill="#FFF9EF"/>
<path d="M731.943 1070.18C731.437 1072.21 730.744 1074.5 731.944 1076.42C733.996 1080.21 740.145 1079.41 741.159 1075.22C744.98 1067.83 735.125 1062.4 731.943 1070.18Z" fill="#FFF9EF"/>
<path d="M510.274 711.872C479.974 711.872 449.512 690.796 440.179 660.812C429.568 626.703 446.552 586.112 478.845 568.403C512.678 549.86 568.873 552.549 609.572 574.634C611.644 575.759 612.411 578.347 611.285 580.423C610.161 582.49 607.572 583.257 605.497 582.136C572.424 564.177 517.534 556.929 482.945 575.888C454.088 591.714 438.883 627.902 448.331 658.278C458.001 689.345 493.311 709.592 523.845 701.623C526.125 701.044 528.458 702.394 529.054 704.674C529.65 706.958 528.284 709.289 526.003 709.885C520.84 711.23 515.559 711.872 510.274 711.872Z" fill="#4C1433"/>
<path d="M733.8 883.332C732.278 883.336 730.757 883.273 729.24 883.149C708.588 881.44 688.441 868.136 676.809 848.835C663.126 856.495 650.373 861.067 637.939 862.784C621.161 865.114 605.026 861.943 592.556 853.878C580.828 846.293 571.721 833.373 568.5 820.102C547.139 823.02 527.913 818.985 513.976 808.624C496.587 795.691 489.79 771.693 496.551 748.103C481.612 737.525 472.639 718.84 473.998 700.547C474.173 698.197 476.107 696.421 478.57 696.609C480.921 696.784 482.684 698.83 482.508 701.181C481.3 717.478 489.857 734.152 503.807 742.668C505.507 743.71 506.266 745.789 505.624 747.681C498.48 768.741 503.882 790.481 519.069 801.772C536.511 814.747 559.201 813.158 571.163 811.049C572.297 810.849 573.463 811.12 574.401 811.796C575.334 812.471 575.956 813.496 576.122 814.637C577.899 826.82 586.362 839.708 597.191 846.71C607.939 853.661 621.985 856.367 636.772 854.332C649.193 852.615 662.101 847.701 676.233 839.311C677.246 838.719 678.46 838.565 679.581 838.878C680.705 839.198 681.652 839.969 682.197 841.008C691.892 859.567 711.081 873.083 729.94 874.638C749.821 876.284 770.297 865.231 779.838 847.768C780.588 846.396 782.025 845.546 783.585 845.546H783.61C785.181 845.555 786.618 846.425 787.356 847.814C800.273 872.167 824.013 870.865 837.021 867.907C856.017 863.605 873.326 851.048 883.321 834.327C883.941 833.285 884.979 832.559 886.168 832.326C887.363 832.093 888.592 832.384 889.556 833.11C909.749 848.368 931.276 843.295 944.683 833.455C960.217 822.061 969.078 802.3 967.26 783.125C967.14 781.853 967.589 780.599 968.494 779.699C969.399 778.803 970.682 778.348 971.924 778.474C987.971 780.057 1004.24 769.304 1012.29 751.712C1019.82 735.262 1018.53 714.701 1009 699.331C1008.28 698.172 1008.16 696.735 1008.67 695.471C1009.19 694.204 1010.28 693.261 1011.61 692.937C1028.91 688.707 1048.83 671.523 1052.22 650.087C1055.52 629.174 1042.61 606.9 1022.82 599.382C1021.47 598.869 1020.47 597.706 1020.17 596.293C1019.86 594.881 1020.29 593.409 1021.31 592.384C1043.67 569.92 1042.01 548.23 1036.68 533.993C1029.94 515.992 1014.23 501.675 995.686 496.633C994.384 496.278 993.322 495.327 992.83 494.069C992.338 492.81 992.472 491.393 993.188 490.247C1004.95 471.471 1005.21 448.336 993.835 431.309C982.864 414.893 961.618 405.523 942.061 408.57C940.578 408.796 939.094 408.237 938.136 407.09C937.173 405.944 936.885 404.377 937.373 402.964C944.9 381.1 936.752 355.276 917.997 341.56C899.646 328.135 872.547 327.481 853.57 340.005C852.488 340.718 851.124 340.897 849.899 340.502C848.661 340.097 847.678 339.151 847.223 337.933C833.931 302.315 809.1 292.846 790.611 291.175C767.342 289.033 743.102 298.501 727.386 315.798C725.865 317.473 723.301 317.67 721.541 316.244C703.258 301.461 678.497 295.377 656.887 300.394C634.831 305.509 615.813 321.713 607.261 342.685C606.423 344.743 604.155 345.824 602.008 345.136C578.977 337.767 556.479 342.372 540.292 357.757C525.271 372.035 517.727 393.654 520.603 414.176C520.766 415.343 520.44 416.526 519.702 417.444C518.96 418.36 517.877 418.936 516.702 419.023C497.818 420.466 481.892 431.722 475.144 448.407C468.646 464.47 471.356 483.661 482.046 497.295C482.879 498.358 483.159 499.754 482.801 501.059C482.442 502.363 481.488 503.421 480.23 503.909C465.058 509.785 453.214 523.252 449.312 539.044C445.411 554.844 449.633 572.275 460.324 584.535C461.87 586.312 461.686 589.009 459.911 590.559C458.135 592.1 455.439 591.921 453.888 590.146C441.398 575.821 436.471 555.457 441.027 537.002C445.148 520.301 456.876 505.831 472.202 498.141C462.308 482.586 460.289 462.373 467.233 445.206C474.674 426.808 491.47 414.001 511.68 411.004C509.996 389.135 518.49 366.704 534.415 351.571C552.053 334.799 576.105 329.181 600.913 335.916C611.12 314.148 631.505 297.518 654.961 292.075C678.189 286.691 703.65 292.338 723.797 307.2C741.277 289.795 766.825 280.443 791.378 282.672C819.428 285.21 841.263 302.032 853.325 330.214C874.805 318.625 903.306 320.237 923.04 334.666C943.317 349.5 952.74 375.419 947.226 399.501C968.178 398.613 989.188 408.992 1000.93 426.567C1013.22 444.964 1013.93 469.35 1003.13 490.047C1021.98 496.891 1037.63 512.178 1044.67 531C1052.81 552.727 1048.12 574.887 1031.5 593.963C1051.68 604.662 1064.24 628.719 1060.65 651.422C1056.92 675.019 1037.32 692.978 1018.93 699.622C1027.59 716.823 1028.1 737.666 1020.05 755.263C1011.28 774.423 994.022 786.722 976.021 787.151C976.326 807.69 966.335 828.159 949.735 840.341C930.721 854.29 907.515 855.012 888.184 842.558C876.76 859.312 858.647 871.757 838.904 876.234C815.343 881.569 795.547 874.896 783.526 857.866C772.224 873.441 753.042 883.332 733.8 883.332Z" fill="#4C1433"/>
<path d="M940.457 850.534C936.809 850.538 933.155 850.126 929.558 849.267C927.262 848.721 925.849 846.421 926.395 844.128C926.94 841.832 929.258 840.427 931.538 840.965C951.088 845.62 973.621 833.667 980.713 814.845C981.38 813.07 983.068 811.907 985.04 812.095C1000.01 813.278 1013.99 809.014 1025.46 799.795C1036.28 791.092 1044.09 778.302 1046.9 764.707C1047.21 763.189 1048.32 761.959 1049.79 761.493C1068.33 755.646 1082.27 742.137 1088.02 724.432C1093.52 707.541 1090.75 687.902 1080.79 673.181C1079.55 671.351 1079.91 668.875 1081.63 667.479C1097.2 654.783 1105.94 639.354 1106.92 622.862C1107.85 606.916 1101.63 590.699 1090.27 579.483C1088.91 578.141 1088.6 576.066 1089.52 574.395C1102.13 551.368 1107.3 533.646 1106.29 516.929C1105.09 497.106 1093.32 479.397 1077.66 473.854C1076.55 473.462 1075.65 472.625 1075.18 471.545C1074.7 470.462 1074.7 469.232 1075.17 468.148C1083.9 447.788 1084.41 429.233 1076.63 414.487C1069.12 400.234 1053.91 389.931 1037.88 388.235C1035.76 388.01 1034.13 386.251 1034.06 384.116C1033.32 358.738 1026.77 341.409 1013.46 329.577C1001.17 318.644 984.04 313.139 967.685 314.843C965.363 315.002 963.309 313.443 963.013 311.146C960.925 295.113 949.735 280.529 934.509 273.991C921.351 268.343 905.226 267.539 886.571 271.598C884.867 271.973 883.141 271.281 882.157 269.864C868.804 250.646 853.028 239.368 835.264 236.354C817.752 233.371 799.308 238.576 785.922 250.242C784.397 251.571 782.141 251.65 780.528 250.417C765.97 239.318 749.887 234.292 735.275 236.154C720.421 238.088 706.42 247.278 698.739 260.14C697.793 261.732 695.922 262.533 694.109 262.107C674.466 257.54 657.035 259.482 642.303 267.897C628.087 276.011 617.254 289.661 612.578 305.349C611.91 307.607 609.535 308.9 607.272 308.221C605.014 307.549 603.725 305.174 604.4 302.914C609.693 285.139 621.968 269.676 638.069 260.486C653.973 251.405 672.477 248.942 693.075 253.147C702.336 239.472 717.812 229.819 734.175 227.694C750.091 225.597 767.312 230.548 782.963 241.618C797.992 229.837 817.835 224.739 836.69 227.935C855.779 231.179 873.305 243.174 887.525 262.687C906.797 258.906 923.723 260.069 937.877 266.146C954.823 273.423 967.147 288.491 970.802 306.062C988.207 305.395 1006.07 311.587 1019.13 323.2C1033.65 336.108 1041.11 354.3 1042.45 380.257C1060.06 383.308 1075.82 394.645 1084.18 410.503C1092.68 426.599 1092.82 446.234 1084.64 467.506C1103.95 476.592 1113.71 498.107 1114.81 516.412C1115.88 534.129 1110.84 552.525 1098.5 575.733C1110.16 588.511 1116.45 606.075 1115.43 623.363C1114.38 641.234 1105.58 657.855 1089.91 671.647C1099.62 688.068 1102.04 708.949 1096.14 727.074C1089.86 746.376 1074.48 761.835 1054.71 768.849C1051.11 783.616 1042.69 796.895 1030.81 806.447C1018.42 816.412 1003.47 821.322 987.483 820.78C979.276 838.714 960.021 850.534 940.457 850.534Z" fill="#4C1433"/>
<path d="M966.253 822.627C964.586 822.627 963.006 821.647 962.319 820.018C961.402 817.851 962.419 815.345 964.59 814.429C965.052 814.228 1011.42 794.161 1033.3 746.735C1057.55 694.187 1081.66 630.227 1060.51 535.88C1038.65 438.345 987.459 364.599 904.003 310.429C805.767 246.658 681.54 279.671 645.806 291.3C588.71 309.888 587.393 337.842 587.39 338.121C587.335 340.46 585.609 342.314 583.071 342.318C580.737 342.288 578.854 340.418 578.854 338.079C578.854 336.692 579.558 303.895 643.163 283.181C679.806 271.257 807.239 237.443 908.654 303.27C994.07 358.715 1046.47 434.194 1068.84 534.013C1090.57 630.96 1065.89 696.496 1041.05 750.311C1017.74 800.825 969.93 821.439 967.908 822.294C967.366 822.519 966.803 822.627 966.253 822.627Z" fill="#4C1433"/>
<path d="M814.909 747.294C794.028 747.294 773.038 737.979 758.568 722.232C744.201 706.595 736.378 685.135 737.104 663.354C737.704 645.173 744.159 627.907 755.292 614.736C771.181 595.931 797.579 584.711 827.721 583.956C854.304 583.298 880.161 590.059 905.126 596.602C907.406 597.202 908.768 599.536 908.172 601.816C907.572 604.1 905.239 605.434 902.959 604.862C878.569 598.465 853.291 591.775 827.937 592.492C800.23 593.185 776.128 603.299 761.811 620.247C751.916 631.957 746.169 647.366 745.631 663.637C744.982 683.201 751.988 702.452 764.853 716.457C777.732 730.468 796.378 738.758 814.9 738.758C815.247 738.758 815.605 738.767 815.934 738.75C818.26 738.75 820.165 740.617 820.202 742.952C820.24 745.31 818.355 747.248 816.001 747.285C815.638 747.29 815.271 747.294 814.909 747.294Z" fill="#4C1433"/>
<path d="M646.351 799.918C641.433 799.918 636.507 799.618 631.605 799.006C622.124 797.826 599.4 793.049 593.087 774.295C590.144 765.554 591.886 756.193 593.286 748.674L610.77 655.053C611.2 652.76 613.392 651.235 615.684 651.63C656.721 658.612 698.499 659.729 739.848 654.945C742.187 654.656 744.308 656.353 744.578 658.691C744.85 661.033 743.174 663.15 740.832 663.421C700.075 668.139 658.897 667.231 618.394 660.729L601.68 750.242C600.397 757.127 598.938 764.933 601.172 771.569C605.944 785.74 624.783 789.553 632.66 790.537C657.705 793.645 683.341 788.111 704.855 774.944C726.515 761.682 745.238 738.947 753.71 715.603C754.524 713.39 756.957 712.26 759.184 713.048C761.396 713.857 762.542 716.303 761.738 718.52C752.631 743.59 732.542 768 709.315 782.221C690.368 793.821 668.453 799.918 646.351 799.918Z" fill="#4C1433"/>
<path d="M709.445 825.257C707.316 825.257 705.478 823.668 705.211 821.505C704.928 819.163 706.595 817.037 708.933 816.75C720.378 815.362 731.377 809.053 738.357 799.875C739.783 797.999 742.463 797.632 744.339 799.062C746.214 800.488 746.577 803.168 745.151 805.043C736.677 816.183 723.854 823.54 709.966 825.228C709.791 825.248 709.617 825.257 709.445 825.257Z" fill="#4C1433"/>
<path d="M598.837 751.733C597.524 751.733 596.228 751.128 595.391 749.991C593.998 748.09 594.407 745.419 596.307 744.022C640.865 711.335 699.961 697.464 754.418 706.899C756.74 707.305 758.298 709.513 757.894 711.835C757.493 714.156 755.264 715.706 752.959 715.311C700.762 706.258 644.083 719.558 601.358 750.909C600.596 751.467 599.713 751.733 598.837 751.733Z" fill="#4C1433"/>
<path d="M596.476 572.44C596.217 572.44 595.955 572.42 595.692 572.369C593.376 571.936 591.845 569.711 592.275 567.393C594.992 552.781 597.798 537.676 597.259 522.781C596.847 511.419 594.155 495.244 583.668 482.703C575.658 473.117 564.197 468.228 554.439 470.237C546.541 471.866 539.069 477.81 531.583 488.409C516.503 509.768 508.485 535.93 509.006 562.071C509.051 564.425 507.181 566.376 504.821 566.422H504.738C502.42 566.422 500.517 564.568 500.47 562.237C499.916 534.292 508.49 506.322 524.61 483.483C533.4 471.037 542.594 463.968 552.714 461.877C565.48 459.226 580.209 465.265 590.216 477.227C602.252 491.622 605.329 509.777 605.787 522.472C606.362 538.31 603.466 553.885 600.669 568.952C600.286 571.007 598.493 572.44 596.476 572.44Z" fill="#4C1433"/>
<path d="M780.921 602.836C778.729 602.836 776.866 601.161 776.674 598.938C774.207 570.61 779.37 542.078 791.612 516.424C800.039 498.753 810.213 487.937 822.72 483.361C838.604 477.551 857.914 482.936 870.77 496.744C881.232 507.993 887.48 524.543 888.356 543.345C889.118 559.87 886.034 576.099 883.049 591.791C882.612 594.104 880.378 595.609 878.061 595.188C875.743 594.746 874.222 592.512 874.664 590.199C877.556 574.991 880.544 559.261 879.827 543.74C879.048 526.956 873.609 512.332 864.519 502.562C854.137 491.4 838.141 486.808 825.654 491.38C815.347 495.148 806.732 504.542 799.313 520.1C787.731 544.378 782.842 571.386 785.177 598.198C785.38 600.547 783.643 602.615 781.296 602.819C781.171 602.832 781.046 602.836 780.921 602.836Z" fill="#4C1433"/>
<path d="M549.304 561.059C546.982 561.059 545.082 559.205 545.037 556.874C544.836 546.475 545.757 536.039 547.779 525.845C548.059 524.415 549.05 523.232 550.408 522.699C558.061 519.706 564.416 517.556 570.294 515.688C565.325 511.921 560.203 509.053 554.864 506.069C553.097 505.076 552.268 502.981 552.88 501.05C556.815 488.684 566.13 477.927 577.799 472.272C579.922 471.246 582.48 472.126 583.501 474.248C584.531 476.369 583.642 478.923 581.525 479.949C572.952 484.104 565.925 491.606 562.208 500.405C568.755 504.114 575.437 508.206 581.905 514.375C583.001 515.422 583.459 516.967 583.114 518.443C582.763 519.918 581.659 521.097 580.213 521.543C572.881 523.799 565.317 526.125 555.714 529.8C554.118 538.661 553.397 547.702 553.573 556.708C553.618 559.066 551.743 561.013 549.388 561.059H549.304Z" fill="#4C1433"/>
<path d="M829.97 589.12C827.915 589.12 826.107 587.636 825.765 585.548C823.944 574.507 824.131 563.347 826.328 552.376C826.553 551.248 827.224 550.259 828.191 549.634C836.501 544.249 843.866 539.794 850.863 535.651C844.216 533.176 838.31 532.329 833.2 531.863C832.025 531.755 830.95 531.166 830.224 530.237C829.498 529.307 829.191 528.12 829.37 526.952C831.5 513.295 837.214 500.387 845.896 489.626C847.371 487.791 850.063 487.5 851.896 488.983C853.731 490.464 854.019 493.152 852.539 494.985C845.733 503.421 840.973 513.337 838.63 523.881C845.399 524.806 853.24 526.686 862.125 531.362C863.496 532.084 864.367 533.488 864.405 535.039C864.438 536.585 863.634 538.035 862.299 538.818C853.651 543.9 844.72 549.151 834.363 555.807C832.692 565.197 832.63 574.724 834.184 584.156C834.566 586.482 832.996 588.678 830.67 589.062C830.433 589.104 830.199 589.12 829.97 589.12Z" fill="#4C1433"/>
<path d="M689.032 600.271C688.924 600.271 688.814 600.267 688.706 600.258C682.026 599.753 675.782 595.274 673.165 589.105C670.552 582.928 671.673 575.322 675.953 570.175C680.229 565.018 687.507 562.535 694.041 563.969C696.347 564.477 697.8 566.753 697.292 569.053C696.789 571.355 694.5 572.792 692.208 572.304C688.752 571.541 684.772 572.913 682.518 575.631C680.258 578.348 679.646 582.516 681.026 585.774C682.405 589.025 685.827 591.48 689.348 591.747C691.699 591.923 693.462 593.972 693.283 596.323C693.116 598.566 691.244 600.271 689.032 600.271Z" fill="#4C1433"/>
<path d="M867.591 1099.08C866.795 1099.08 865.991 1098.86 865.274 1098.39C863.298 1097.11 862.731 1094.47 864.015 1092.49C889.489 1053.18 899.232 1027.8 905.726 983.882C912.937 935.135 901.846 888.455 875.297 855.813C873.809 853.983 874.084 851.294 875.914 849.811C877.748 848.319 880.436 848.603 881.915 850.427C909.973 884.921 921.731 934.018 914.171 985.133C907.472 1030.46 897.424 1056.63 871.176 1097.13C870.358 1098.39 868.991 1099.08 867.591 1099.08Z" fill="#4C1433"/>
<path d="M892.905 1112.17C891.83 1112.17 890.755 1111.76 889.922 1110.95C888.238 1109.3 888.205 1106.6 889.854 1104.91C922.869 1071.13 936.751 1044.23 946.983 994.197C956.724 946.566 952.389 895.377 934.78 850.052C933.93 847.856 935.017 845.379 937.213 844.525C939.402 843.688 941.882 844.763 942.74 846.959C960.933 893.793 965.409 946.692 955.344 995.905C944.866 1047.16 929.878 1076.17 895.957 1110.88C895.123 1111.74 894.014 1112.17 892.905 1112.17Z" fill="#4C1433"/>
<path d="M898.741 1113.88C882.473 1113.88 866.328 1105.59 857.159 1092.08C855.834 1090.13 856.342 1087.47 858.293 1086.15C860.243 1084.83 862.898 1085.33 864.218 1087.28C872.787 1099.9 888.693 1107.04 903.813 1105.01C906.109 1104.68 908.294 1106.34 908.606 1108.67C908.919 1111.01 907.277 1113.15 904.939 1113.47C902.88 1113.74 900.809 1113.88 898.741 1113.88Z" fill="#4C1433"/>
<path d="M855.971 1143.17C855.359 1143.17 854.733 1143.04 854.141 1142.76C845.747 1138.76 834.356 1131.36 827.763 1118.82C821.528 1106.95 821.441 1093.08 827.538 1082.6C832.41 1074.21 841.192 1068 851.624 1065.57C860.355 1063.53 870.283 1064.11 880.353 1067.22C882.603 1067.92 883.863 1070.3 883.166 1072.56C882.47 1074.81 880.082 1076.07 877.826 1075.37C869.208 1072.71 860.827 1072.2 853.567 1073.88C845.53 1075.76 838.557 1080.62 834.915 1086.88C830.355 1094.73 830.514 1105.7 835.315 1114.85C840.821 1125.32 850.585 1131.61 857.809 1135.05C859.939 1136.06 860.843 1138.61 859.831 1140.74C859.097 1142.28 857.567 1143.17 855.971 1143.17Z" fill="#4C1433"/>
<path d="M898.846 1153.4C893.062 1153.4 886.751 1152.62 879.546 1151.02C877.244 1150.51 875.79 1148.23 876.299 1145.93C876.807 1143.63 879.087 1142.19 881.387 1142.69C891.433 1144.91 899.417 1145.41 906.515 1144.28C915.034 1142.92 922.44 1138.87 926.837 1133.18C931.997 1126.49 933.497 1116.56 930.66 1107.87C927.947 1099.57 921.515 1092.17 913.017 1087.58C910.942 1086.47 910.166 1083.88 911.288 1081.8C912.405 1079.73 915.005 1078.95 917.069 1080.07C927.479 1085.69 935.39 1094.86 938.77 1105.22C942.521 1116.69 940.538 1129.4 933.594 1138.4C927.797 1145.9 918.661 1150.98 907.865 1152.71C904.977 1153.17 901.989 1153.4 898.846 1153.4Z" fill="#4C1433"/>
<path d="M886.379 1272.52C853.67 1272.52 821.407 1254.06 806.136 1224.64C787.71 1189.13 796.596 1142.57 826.809 1116.34C828.579 1114.81 831.285 1114.98 832.827 1116.77C834.373 1118.55 834.181 1121.24 832.402 1122.79C805.536 1146.11 797.325 1189.13 813.714 1220.71C830.106 1252.28 870.008 1270.32 904.539 1261.8C915.175 1259.17 924.29 1254.47 930.9 1248.22C938.352 1241.17 942.766 1231.94 943.012 1222.88C943.437 1207.22 930.645 1191.6 913.258 1186.53C894.278 1181.01 874.823 1187.21 861.835 1193.39C859.696 1194.39 857.159 1193.49 856.146 1191.36C855.133 1189.23 856.038 1186.69 858.168 1185.67C872.492 1178.86 894.089 1172.05 915.642 1178.34C936.64 1184.45 952.072 1203.7 951.548 1223.11C951.239 1234.42 945.851 1245.83 936.768 1254.42C929.087 1261.68 918.652 1267.1 906.589 1270.08C899.934 1271.73 893.144 1272.52 886.379 1272.52Z" fill="#4C1433"/>
<path d="M911.658 1183.78C910.837 1183.78 910.007 1183.54 909.274 1183.05C907.319 1181.73 906.806 1179.08 908.124 1177.12C912.683 1170.37 910.89 1159.76 904.368 1154.88C902.48 1153.46 902.096 1150.79 903.509 1148.9C904.926 1147.02 907.594 1146.63 909.486 1148.04C919.768 1155.75 922.386 1171.25 915.201 1181.9C914.375 1183.12 913.029 1183.78 911.658 1183.78Z" fill="#4C1433"/>
<path d="M665.474 1018.9C665.157 1018.9 664.836 1018.86 664.516 1018.79C648.252 1015.05 631.435 1011.19 615.993 1003.37C598.405 994.459 585.489 981.294 579.625 966.289C572.377 947.742 575.127 925.015 587.177 903.93C597.693 885.53 613.105 871.041 628.013 857.038C629.726 855.424 632.435 855.504 634.044 857.225C635.661 858.942 635.573 861.644 633.856 863.256C619.411 876.835 604.469 890.872 594.587 908.165C583.985 926.72 581.363 947.288 587.577 963.18C592.675 976.23 604.136 987.795 619.853 995.752C634.361 1003.11 650.661 1006.85 666.424 1010.47C668.721 1011 670.158 1013.29 669.629 1015.58C669.174 1017.56 667.416 1018.9 665.474 1018.9Z" fill="#4C1433"/>
<path d="M660.795 1055.42H660.729C624.709 1054.86 593.793 1046.74 568.844 1031.29C539.382 1013.05 519.376 983.942 515.321 953.434C511.646 925.818 520.798 901.248 529.12 885.502C538.649 867.468 552.31 850.363 572.112 831.679C573.825 830.065 576.525 830.142 578.147 831.854C579.764 833.572 579.684 836.272 577.971 837.889C558.87 855.911 545.746 872.307 536.664 889.491C528.925 904.137 520.405 926.926 523.782 952.308C527.504 980.313 546.03 1007.12 573.337 1024.03C596.961 1038.66 626.405 1046.35 660.861 1046.89C663.217 1046.93 665.1 1048.86 665.062 1051.22C665.025 1053.56 663.12 1055.42 660.795 1055.42Z" fill="#4C1433"/>
<path d="M656.064 1063.54C654.898 1063.54 653.73 1063.06 652.889 1062.12C651.313 1060.36 651.459 1057.66 653.214 1056.09C666.367 1044.29 668.935 1022.09 658.819 1007.6C657.474 1005.66 657.944 1003 659.878 1001.65C661.807 1000.31 664.474 1000.79 665.822 1002.71C678.495 1020.87 675.394 1047.67 658.915 1062.44C658.099 1063.18 657.081 1063.54 656.064 1063.54Z" fill="#4C1433"/>
<path d="M701.535 1026.78C701.076 1026.78 700.614 1026.71 700.156 1026.55C697.926 1025.79 696.734 1023.37 697.496 1021.13C700.672 1011.83 698.28 1000.76 691.549 993.582C684.814 986.41 673.906 983.322 664.429 985.905C654.938 988.485 647.099 996.663 644.927 1006.25C644.407 1008.55 642.106 1009.99 639.822 1009.47C637.521 1008.95 636.08 1006.67 636.601 1004.37C639.455 991.783 649.737 981.054 662.187 977.67C674.665 974.29 688.94 978.332 697.776 987.739C706.607 997.15 709.742 1011.68 705.574 1023.89C704.97 1025.66 703.31 1026.78 701.535 1026.78Z" fill="#4C1433"/>
<path d="M661.362 1094.82C660.624 1094.82 659.887 1094.8 659.154 1094.77C648.667 1094.25 639.807 1089.94 634.842 1082.95C628.386 1073.87 629.379 1062.15 630.812 1051.87C631.134 1049.55 633.271 1047.9 635.63 1048.24C637.964 1048.57 639.59 1050.72 639.264 1053.06C638.001 1062.1 637.156 1071.48 641.804 1078.01C645.192 1082.78 651.835 1085.86 659.571 1086.24C668.844 1086.7 678.292 1083.62 685.507 1077.77C692.717 1071.94 697.706 1063.34 699.189 1054.18C699.569 1051.85 701.728 1050.28 704.087 1050.65C706.413 1051.02 707.992 1053.22 707.617 1055.54C705.8 1066.75 699.699 1077.27 690.874 1084.41C682.623 1091.09 671.979 1094.82 661.362 1094.82Z" fill="#4C1433"/>
<path d="M661.324 1159.25C653.777 1159.25 646.287 1158.37 639.04 1156.55C626.231 1153.32 617.662 1147.51 613.565 1139.27C606.976 1126.02 614.103 1110.18 624.543 1101.39C643.374 1085.52 674.045 1086.78 691.52 1104.12C693.196 1105.78 693.204 1108.48 691.545 1110.15C689.887 1111.83 687.178 1111.84 685.51 1110.18C671.29 1096.07 645.371 1095.02 630.045 1107.91C622.342 1114.4 616.629 1126.26 621.209 1135.46C624.143 1141.37 630.845 1145.68 641.124 1148.27C669.857 1155.5 702.965 1146.5 725.467 1125.35C747.287 1104.84 759.244 1073.87 757.456 1042.5C756.856 1032 753.817 1012.9 740.168 1002.93C730.523 995.888 716.09 994.559 703.398 999.556C701.215 1000.41 698.73 999.343 697.864 997.146C697.001 994.954 698.081 992.475 700.273 991.612C715.856 985.473 733.065 987.182 745.202 996.038C757.417 1004.96 764.794 1021.29 765.975 1042.01C767.908 1075.87 754.951 1109.35 731.311 1131.57C712.402 1149.35 686.573 1159.25 661.324 1159.25Z" fill="#4C1433"/>
<path d="M1238.74 824.129C1236.67 824.129 1234.85 822.62 1234.53 820.511C1223.26 747.52 1171.58 682.873 1102.86 655.811C1100.67 654.948 1099.59 652.469 1100.45 650.277C1101.32 648.083 1103.8 647.008 1105.99 647.867C1177.47 676.02 1231.24 743.277 1242.96 819.211C1243.32 821.54 1241.72 823.721 1239.39 824.079C1239.17 824.112 1238.96 824.129 1238.74 824.129Z" fill="#4C1433"/>
<path d="M1206.45 825.191C1204.71 825.191 1203.07 824.116 1202.44 822.377C1183.89 771.214 1144.94 728.723 1095.58 705.808C1093.44 704.815 1092.51 702.277 1093.5 700.14C1094.5 697.997 1097.04 697.063 1099.17 698.063C1150.58 721.933 1191.14 766.182 1210.46 819.468C1211.27 821.686 1210.12 824.132 1207.91 824.937C1207.43 825.107 1206.93 825.191 1206.45 825.191Z" fill="#4C1433"/>
<path d="M1217.1 829.424C1209.04 829.424 1200.98 827.607 1193.77 823.906C1191.68 822.826 1190.85 820.255 1191.93 818.158C1193.01 816.066 1195.57 815.233 1197.67 816.312C1211.84 823.597 1229.97 822.138 1242.79 812.69C1244.69 811.286 1247.37 811.694 1248.76 813.595C1250.16 815.491 1249.75 818.162 1247.85 819.559C1239.01 826.077 1228.05 829.424 1217.1 829.424Z" fill="#4C1433"/>
<path d="M1216.23 862.368C1216.14 862.368 1216.05 862.364 1215.96 862.361C1208.89 861.926 1201.58 861.476 1194.44 859.264C1186.05 856.658 1179.33 851.815 1175.51 845.622C1170.31 837.186 1170.31 825.916 1175.52 816.914C1180.28 808.683 1189.08 802.764 1199.06 801.08C1201.35 800.697 1203.58 802.259 1203.97 804.581C1204.37 806.903 1202.8 809.107 1200.47 809.499C1192.98 810.762 1186.41 815.134 1182.91 821.19C1179.3 827.412 1179.26 835.431 1182.78 841.142C1185.51 845.581 1190.55 849.119 1196.97 851.111C1203.12 853.02 1209.92 853.437 1216.49 853.841C1218.84 853.987 1220.63 856.008 1220.48 858.363C1220.35 860.626 1218.47 862.368 1216.23 862.368Z" fill="#4C1433"/>
<path d="M1261.92 860.545C1260.31 860.545 1258.77 859.636 1258.05 858.09C1257.05 855.956 1257.97 853.414 1260.1 852.413C1267.44 848.97 1272.54 840.931 1272.81 832.404C1273.07 824.122 1268.92 815.625 1261.97 810.222C1255.26 805.013 1246.23 802.675 1237.15 803.776C1234.76 804.087 1232.68 802.399 1232.39 800.061C1232.11 797.719 1233.77 795.594 1236.11 795.306C1247.41 793.914 1258.73 796.898 1267.2 803.479C1276.27 810.527 1281.69 821.713 1281.34 832.671C1280.98 844.332 1273.9 855.369 1263.73 860.141C1263.14 860.415 1262.52 860.545 1261.92 860.545Z" fill="#4C1433"/>
<path d="M1205.44 954.405C1197.24 954.405 1191.47 951.992 1188.26 947.211C1183.29 939.814 1187.07 929.594 1193.72 924.693C1198.34 921.283 1203.85 919.888 1208.93 919.067C1207.76 915.749 1206.05 912.69 1203.82 909.906C1199.2 917.082 1191.49 921.621 1182.84 921.892C1176.93 922.063 1171.53 920.133 1168.08 916.549C1164.44 912.76 1162.72 907.084 1163.1 900.132C1163.59 891.283 1166.84 882.185 1172.77 873.087C1177.88 865.269 1184.24 858.486 1190.39 851.931C1191.99 850.209 1194.7 850.122 1196.42 851.734C1198.14 853.348 1198.22 856.049 1196.61 857.766C1190.71 864.059 1184.62 870.561 1179.92 877.754C1174.81 885.577 1172.03 893.263 1171.62 900.598C1171.45 903.757 1171.76 908.063 1174.23 910.635C1176.01 912.476 1179.09 913.478 1182.57 913.365C1189.85 913.131 1196.16 908.334 1198.65 901.141C1199.13 899.79 1200.23 898.764 1201.62 898.406C1203 898.048 1204.46 898.406 1205.53 899.353C1212.38 905.476 1216.75 913.023 1218.51 921.793C1218.74 922.95 1218.48 924.159 1217.78 925.122C1217.09 926.085 1216.03 926.714 1214.86 926.864C1209.37 927.561 1203.15 928.347 1198.79 931.561C1195.39 934.066 1193.2 939.251 1195.35 942.448C1197.12 945.081 1201.3 946.186 1207.82 945.79C1215.43 945.308 1221.28 944.019 1226.24 941.73C1232.07 939.039 1236.51 934.874 1238.73 930.002C1241.89 923.071 1240.84 914.703 1239.27 905.279C1238.88 902.953 1240.44 900.753 1242.77 900.366C1245.08 899.949 1247.29 901.545 1247.68 903.87C1249.08 912.227 1251 923.672 1246.5 933.545C1243.43 940.276 1237.5 945.937 1229.81 949.483C1223.87 952.226 1217.05 953.76 1208.36 954.31C1207.35 954.372 1206.38 954.405 1205.44 954.405Z" fill="#4C1433"/>
<path d="M1246.32 950.871C1241 950.871 1235.78 949.382 1231.47 946.441C1229.53 945.11 1229.02 942.455 1230.35 940.51C1231.69 938.559 1234.34 938.063 1236.28 939.389C1241.62 943.031 1249.42 943.289 1255.7 940.051C1261.66 936.971 1266.45 930.798 1268.52 923.538C1270.42 916.852 1270.22 909.142 1267.94 901.236C1267.28 898.974 1268.59 896.606 1270.86 895.952C1273.13 895.314 1275.49 896.61 1276.14 898.869C1278.87 908.313 1279.07 917.649 1276.73 925.873C1273.99 935.5 1267.75 943.431 1259.62 947.636C1255.43 949.799 1250.83 950.871 1246.32 950.871Z" fill="#4C1433"/>
<path d="M1273.68 935.146C1271.59 935.146 1269.77 933.615 1269.46 931.491C1269.12 929.156 1270.74 926.993 1273.07 926.655C1283.33 925.163 1292.75 917.437 1297.08 906.967C1301.12 897.193 1300.88 885.252 1296.43 874.216C1292.47 864.401 1285.17 855.052 1275.29 847.179C1273.45 845.708 1273.15 843.024 1274.61 841.182C1276.09 839.34 1278.77 839.04 1280.61 840.502C1291.63 849.296 1299.84 859.849 1304.35 871.023C1309.62 884.115 1309.85 898.401 1304.97 910.226C1299.52 923.425 1287.48 933.186 1274.3 935.1C1274.09 935.133 1273.88 935.146 1273.68 935.146Z" fill="#4C1433"/>
<path d="M440.112 554.72C440.012 554.72 439.908 554.716 439.804 554.707C391.424 551.273 345.082 526.116 315.849 487.409C314.427 485.53 314.802 482.853 316.682 481.432C318.563 480.003 321.238 480.383 322.658 482.266C350.429 519.034 394.45 542.933 440.412 546.196C442.763 546.363 444.531 548.401 444.363 550.756C444.206 553.003 442.334 554.72 440.112 554.72Z" fill="#4C1433"/>
<path d="M446.907 610.298C446.72 610.298 446.529 610.285 446.337 610.26C386.62 602.263 329.641 568.515 293.919 519.993C292.522 518.097 292.926 515.426 294.828 514.026C296.732 512.633 299.4 513.033 300.795 514.934C335.172 561.63 390.004 594.101 447.47 601.8C449.805 602.113 451.447 604.259 451.134 606.597C450.845 608.739 449.012 610.298 446.907 610.298Z" fill="#4C1433"/>
<path d="M295.206 535.277C293.018 535.277 291.155 533.602 290.959 531.379C289.846 518.706 293.522 505.548 301.037 495.278C308.556 485.013 319.988 477.535 332.404 474.764C334.7 474.248 336.984 475.698 337.497 477.998C338.015 480.299 336.563 482.579 334.263 483.091C323.839 485.421 314.237 491.702 307.922 500.321C301.612 508.945 298.528 519.993 299.462 530.638C299.666 532.984 297.932 535.056 295.581 535.26C295.457 535.273 295.331 535.277 295.206 535.277Z" fill="#4C1433"/>
<path d="M303.352 552.835C293.562 552.835 283.717 549.172 276.716 542.299C265.708 531.505 262.487 513.546 269.047 499.591C270.051 497.458 272.59 496.545 274.727 497.545C276.861 498.549 277.775 501.092 276.773 503.226C271.705 514 274.194 527.871 282.693 536.206C291.191 544.541 305.102 546.78 315.785 541.504C317.894 540.453 320.461 541.328 321.499 543.442C322.545 545.554 321.679 548.113 319.561 549.155C314.534 551.64 308.954 552.835 303.352 552.835Z" fill="#4C1433"/>
<path d="M348.958 517.546C347.938 517.546 346.916 517.184 346.099 516.45C344.349 514.87 344.21 512.175 345.786 510.42C354.051 501.25 354.531 485.929 346.85 476.264C339.181 466.599 324.151 463.589 313.336 469.562C311.269 470.712 308.68 469.95 307.537 467.891C306.396 465.827 307.146 463.231 309.21 462.094C323.739 454.058 343.21 457.947 353.534 470.954C363.862 483.954 363.246 503.801 352.13 516.137C351.284 517.071 350.125 517.546 348.958 517.546Z" fill="#4C1433"/>
<path d="M268.327 525.206C268.235 525.206 268.144 525.202 268.047 525.197C243.399 523.613 219.542 512.393 202.601 494.409C198.603 490.171 193.101 483.582 191.456 475.309C189.659 466.318 193.293 457.262 200.295 453.286C204.713 450.768 210.11 450.251 216.724 451.714C210.197 444.45 205.609 435.385 204.067 425.899C203.054 419.675 203.742 414.763 206.164 410.881C211.215 402.8 222.035 401.888 229.645 405.102C234.084 406.981 237.76 409.986 241.007 413.225C238.647 405.998 237.789 398.433 238.664 391.14C239.272 386.063 240.619 381.991 242.786 378.689C245.72 374.226 250.3 371.283 255.044 370.813C260.953 370.225 267.288 373.501 271.519 379.369C273.937 382.712 275.479 386.363 276.971 389.893C277.483 391.105 277.996 392.319 278.541 393.511C281.931 400.888 286.757 407.494 292.704 412.949C294.088 403.168 298.714 395.303 305.812 391.11C311.071 388.013 317.887 387.28 324.034 389.163C329.698 390.893 334.1 394.535 336.425 399.42C338.859 404.539 338.838 410.141 338.451 415.425C337.312 431.175 333.561 446.517 327.297 461.03C326.359 463.193 323.851 464.18 321.688 463.255C319.525 462.321 318.528 459.813 319.463 457.645C325.343 444.016 328.869 429.604 329.939 414.808C330.239 410.686 330.299 406.415 328.714 403.088C327.434 400.396 324.884 398.345 321.542 397.325C317.636 396.136 313.38 396.557 310.155 398.462C303.908 402.15 300.343 410.907 300.857 421.314C300.935 422.939 300.085 424.469 298.661 425.257C297.235 426.049 295.489 425.953 294.154 425.023C284.019 417.959 275.937 408.298 270.786 397.074C270.202 395.807 269.656 394.511 269.111 393.219C267.743 389.981 266.451 386.926 264.601 384.366C262.758 381.816 259.27 378.947 255.889 379.307C253.714 379.523 251.43 381.082 249.922 383.374C248.496 385.545 247.587 388.417 247.141 392.156C245.516 405.672 251.413 421.001 262.167 431.204C263.613 432.575 263.917 434.764 262.9 436.477C261.884 438.19 259.812 438.969 257.924 438.365C250.534 435.989 245.104 430.4 240.169 424.882L239.744 424.407C235.493 419.642 231.475 415.145 226.319 412.962C221.98 411.128 215.812 411.541 213.402 415.404C212.124 417.45 211.828 420.439 212.494 424.527C214.799 438.715 225.293 451.777 238.61 457.024C240.477 457.761 241.577 459.699 241.256 461.679C240.932 463.663 239.272 465.151 237.268 465.259C231.591 465.551 226.511 463.796 221.584 462.092C220.534 461.729 219.488 461.367 218.437 461.025C212.227 459.021 207.669 458.917 204.513 460.705C200.224 463.142 198.908 469.056 199.824 473.636C200.754 478.296 203.608 483.035 208.81 488.558C224.289 504.983 246.079 515.232 268.597 516.678C270.948 516.828 272.732 518.858 272.583 521.213C272.436 523.472 270.561 525.206 268.327 525.206Z" fill="#4C1433"/>
<path d="M291.329 463.731C290.116 463.731 288.915 463.219 288.073 462.227C285.71 459.448 282.284 457.559 278.671 457.046C275.057 456.517 271.243 457.388 268.194 459.406C266.234 460.697 263.579 460.155 262.279 458.192C260.983 456.225 261.524 453.579 263.492 452.279C268.26 449.131 274.227 447.776 279.875 448.594C285.518 449.394 290.882 452.349 294.575 456.7C296.105 458.497 295.884 461.189 294.087 462.715C293.283 463.398 292.303 463.731 291.329 463.731Z" fill="#4C1433"/>
<path d="M500.757 608.701C492.393 608.73 492.412 621.451 500.757 621.504C509.123 621.475 509.104 608.753 500.757 608.701Z" fill="#4C1433"/>
<path d="M551.673 596.952C543.309 596.981 543.328 609.703 551.673 609.755C560.039 609.726 560.02 597.005 551.673 596.952Z" fill="#4C1433"/>
<path d="M532.091 636.116C523.725 636.145 523.746 648.867 532.091 648.919C540.457 648.89 540.436 636.169 532.091 636.116Z" fill="#4C1433"/>
<path d="M788.617 632.2C780.252 632.229 780.271 644.951 788.617 645.003C796.982 644.974 796.963 632.253 788.617 632.2Z" fill="#4C1433"/>
<path d="M833.83 626.622C825.465 626.651 825.484 639.372 833.83 639.425C842.195 639.396 842.175 626.674 833.83 626.622Z" fill="#4C1433"/>
<path d="M820.92 658.892C812.556 658.921 812.575 671.642 820.92 671.695C829.286 671.666 829.267 658.944 820.92 658.892Z" fill="#4C1433"/>
<path d="M556.726 413.149C543.203 412.561 529.193 423.36 527.9 437.047C528.285 442.043 535.979 442.523 537.13 437.677C539.302 426.611 552.363 421.228 559.212 423.224C562.82 424.063 563.994 424.491 566.158 425.654C567.961 426.87 570.186 427.61 572.196 426.4C580.948 418.563 562.745 412.915 556.726 413.149Z" fill="#4C1433"/>
<path d="M889.91 445.378C880.518 433.153 860.369 429.757 848.134 439.391C844.759 443.305 850.036 449.249 854.38 446.505C865.154 440.603 878.729 443.136 885.333 456.131C885.655 456.791 886.159 457.946 885.632 456.718C886.63 458.547 887.742 464.196 887.596 463.548C887.755 465.277 887.68 467.195 889.081 468.463C890.772 470.231 893.861 470.222 895.559 468.463C899.567 461.734 894.33 450.991 889.91 445.378Z" fill="#4C1433"/>
<defs>
<linearGradient id="paint0_linear_550_17461" x1="-765.5" y1="-323" x2="983.5" y2="1119" gradientUnits="userSpaceOnUse">
<stop stop-color="#B79A81"/>
<stop offset="1" stop-color="#EBD3C1"/>
</linearGradient>
</defs>
</svg>
