<svg xmlns="http://www.w3.org/2000/svg" width="1500" height="1500" fill="none" xmlns:v="https://vecta.io/nano"><circle cx="750" cy="750" r="750" fill="url(#A)"/><path d="M1239.64 818.399c-9.42 6.901-22.18 8.994-33.31 5.461-15.85-55.346-58.01-100.088-110.25-119.31-2.32-12.565-4.89-23.82-10.6-35.843 6.69-4.697 12.55-10.561 19.09-16.804 67.73 26.793 119.73 90.08 135.07 166.496zM894.753 1107.44c-11.44.89-23.181-4.02-30.583-12.79 26.5-33.54 42.601-75.18 45.554-117.821s-7.25-86.107-28.871-122.981c.14-5.738 4.884-11.266 9.628-16.794 12.753 10.977 31.822 14.008 46.704 8.947 18.022 40.61 24.537 86.253 18.597 130.284s-24.314 86.315-61.029 131.155zm-316.96-274.334c8.787 17.787 29.777 28.664 52.828 27.733-12.513 11.011-25.135 22.142-34.928 35.63s-16.654 29.725-16.065 46.382c.701 19.78 12.128 38.319 28.059 50.066s35.911 17.163 54.649 16.863c7.101 13.18 8.896 32.61-3.054 41.91-30.931 1.32-65.934-7.04-92.116-23.56s-46.115-44.04-49.813-74.778c-2.595-21.567 2.75-43.595 12.478-63.018s23.674-36.449 47.962-57.228zM297.734 514.998c35.133 47.907 88.807 81.842 148.363 92.313l12.531-17.754c-10.324-9.055-16.75-22.413-19.204-35.915-46.837-7.264-90.763-31.968-121.297-68.221-10.438 5.785-17.167 17.694-20.393 29.577z" fill="#4c1433"/><path d="M1039.79 380.319c.81-19.131-7.02-38.462-20.91-51.643s-33.602-19.987-52.665-18.181c-2.882-18.055-14.998-32.225-30.454-40.037s-34.05-9.164-50.471-3.67c-10.305-16.772-26.937-30.451-45.903-34.575s-39.775 1.417-54.18 14.424c-14.46-10.958-31.741-16.944-48.464-15.386s-32.598 10.636-42.426 24.255c-17.359-1.894-34.502-1.679-49.612 4.671s-27.856 19.466-31.203 35.512c-15.107 11.355-25.921 24.397-30.555 39.443-16.946-.055-37.798 7.628-51.88 22.163s-21.101 35.616-18.543 55.69c-16.859.982-34.586 14.11-42.045 31.968s-4.337 39.697 7.83 54.748c-15.181 5.02-28.327 20.043-32.701 37.503s.135 36.906 16.276 52.808c-15.24 14.566-23.054 36.532-20.439 57.449s15.599 40.283 36.611 50.569c-4.691 16.307 3.773 35.382 23.165 46.003-6.729 19.495-1.467 42.605 13.039 57.265s37.558 20.167 57.786 14.386c3.374 20.913 22.722 36.779 43.507 40.871s42.414-1.739 62.714-12.573c9.628 18.934 29.513 32.243 50.689 33.925s42.911-8.318 52.222-26.999c13.03 16.991 35.392 26.322 56.635 23.632s40.573-17.3 51.701-39.265c13.661 11.775 30.432 14.02 48.263 11.317s36.408-10.302 46.086-29.157c29.077 1.306 57.707-19.375 67.497-47.471 15.41-11.992 30.05-25.922 38.15-43.69 8.09-17.771 8.48-40.094-6.44-52.98 15-9.858 25.29-26.585 27.32-44.423 2.02-17.837-4.25-36.447-19.84-48.726 12.19-16.693 20.81-36.782 20.19-57.446-.63-20.666-11.84-41.657-34.45-51.585 11.03-14.899 13.9-35.474 7.36-52.821-6.53-17.345-22.26-30.916-43.86-37.974z" fill="#ef9660"/><path d="M959.423 346.553c-36.645-37.726-99.93-66.901-151.935-74.734s-105.484-1.382-155.967 13.364c-14.253 4.164-28.478 9.059-40.978 17.076s-23.265 19.468-28.029 33.534a43.62 43.62 0 0 1 21.57 6.345c10.388-19.883 29.517-38.514 53.039-44.943s51.038.875 65.992 20.137c21.096-23.63 48.164-32.687 72.975-27.835s46.472 23.44 55.036 47.226c22.817-14.903 51.379-13.075 70.368 2.082s27.104 42.601 19.408 65.647c24.833-1.457 46.069 10.737 56.576 29.102 10.512 18.366 10.592 41.842 1.842 61.107 22.37 6.734 39.09 23.622 43.78 43.801s-2.87 42.706-18.77 55.979c21.59 10.593 35.08 34.028 32.4 56.479-2.69 22.45-21.33 42.042-43.61 45.843 4.43 14.679 6.52 26.939 5.42 39.097s-5.58 24.25-13.99 33.102-20.977 14.062-33.037 12.174c1.399 12.93-.138 24.505-2.605 36.187 76.452-33.369 109.692-144.465 103.822-233.157s-40.81-162.982-113.307-237.613z" fill="#fde5b9"/><path d="M851.035 490.416c-8.062 10.656-13.606 23.204-16.058 36.339 8.688.109 17.325 2.835 24.5 7.734-10.591 4.175-20.207 10.798-30.104 20.837l-.063 31.087c-16.289-.571-32.706 2.947-46.573 12.041-2.234-23.072.615-46.621 8.285-68.495 4.493-12.815 10.929-25.446 21.472-34.003s25.913-12.192 38.541-5.54zM504.89 563.619c.287-21.67 4.965-43.274 13.668-63.121 5.034-11.477 11.912-22.889 22.849-29.005s26.733-4.945 38.272 4.762c-10.433 4.224-18.696 13.471-21.729 23.778l20.064 17.588c-8.939 2.319-17.496 6.099-26.101 11.145-2.454 10.668-3.101 21.749-1.901 32.629-13.224-2.697-26.908-3.121-45.122 2.224z" fill="#fff9ef"/><path d="M854.556 489.573a89.29 89.29 0 0 0-22.204 37.479l26.556 6.532c-9.21 6.775-18.421 13.549-27.867 19.567-2.568 10.369-2.868 21.294-1.726 36.298a150.88 150.88 0 0 1 49.536 2.655c3.453-17.852 6.921-35.987 5.326-54.1s-8.958-36.527-29.621-48.431zm-268.24-14.793c-13.125 2.672-24.397 12.999-28.616 26.412l16.969 15.212-23.167 8.448c-2.145 10.726-2.745 21.76-3.468 34.989a227.68 227.68 0 0 1 50.126 13.279 133.24 133.24 0 0 0 4.149-64.133c-2.135-11.722-6.297-23.818-15.993-34.207zm167.601 234.304c-11.205-14.67-15.99-34.074-12.89-52.272-41.2 5.566-82.519 4.438-123.434-.224-7.761 31.62-12.806 58.798-16.817 90.725 42.08-29.736 94.952-43.836 153.141-38.229z" fill="#4c1433"/><path d="M1276.53 844.115c9.82 7.906 18.25 17.856 22.88 29.58 4.64 11.726 5.19 25.331-.01 36.817s-16.57 20.358-29.15 21.109c-3.58 6.845-9.01 12.22-15.59 14.42-6.57 2.2-14.15 1.175-19.9-2.694-9.89 4.172-18.46 6.42-27.15 6.989-5.54.365-11.98-.392-15.1-4.989-3.35-4.923-.96-12.06 3.61-15.875 4.58-3.813 10.66-5.143 16.49-6.351-1.48-8.322-4.65-14.688-8.93-20.205-4.27 5.294-8.49 9.878-13.96 12.432s-12.48 2.651-17.09-1.237c-3.4-2.863-5-7.446-5.07-11.887-.08-4.442 1.21-8.793 2.76-12.955 4.73-12.641 12.07-24.296 21.44-34.012-11.58-6.89-17.86-18.604-16.19-29.575 1.68-10.971 11.19-20.267 22.19-21.704 3.08 7.034 6.05 13.733 8.72 20.652 11.2 3.69 24.2 1.335 33.55-6.257-1.37-6.585-2.73-13.169-3.44-19.954 11.66-1.225 23.8 3.592 31.45 12.481s10.61 21.607 8.49 33.215zM326.7 462.556c11.607.026 22.873 7.418 27.516 18.056s2.404 23.924-5.469 32.452c-10.441-8.241-20.144-17.565-28.574-27.926-14.336 6.949-23.149 20.444-24.849 34.944 9.207 8.096 16.248 15.782 23.29 23.468-9.671 7.291-21.999 7.675-31.649 2.572s-16.268-15.512-18.464-26.404c-26.504-1.066-52.139-15.434-66.881-37.483-4.195-6.276-7.526-14.66-3.578-21.093 2.562-4.174 7.656-6.258 12.551-6.441s9.691 1.243 14.732 3.025c-7.069-6.22-12.615-14.159-16.023-22.937-2.9-7.471-3.899-16.867 1.584-22.712 5.09-5.422 14.044-5.477 20.697-2.153s11.538 9.279 18.139 16.576c-5.097-10.035-7.596-21.374-7.19-32.621.129-3.596.569-7.253 2.069-10.526s4.193-6.142 7.649-7.152c4.822-1.408 10.064 1.075 13.522 4.72s5.577 8.315 8.028 12.702c5.143 9.204 11.982 17.458 21.208 26.756.575-8.605 3.358-17.57 9.962-23.117s17.663-6.223 23.36.253c3.588 4.078 4.384 9.862 4.617 15.288.703 16.349-2.328 32.848-6.247 49.753z" fill="#fff9ef"/><path d="M914.914 1146.56c11.582-5.47 19.59-17.8 19.871-30.6s-7.177-25.47-18.507-31.44l-20.728 23.12c-8.534-.28-20.419-5.28-29.127-13.66 5.902-7.52 10.642-15.98 13.797-25.37-7.373-.35-14.828-.37-22.06 1.12-7.231 1.48-14.281 4.56-19.565 9.72-9.315 9.08-11.711 24.47-5.585 40.4-23.917 15.78-35.668 46.98-30.599 75.18s25.579 52.53 51.47 64.8c17.476 8.29 38.019 11.4 56.366 5.28s33.71-22.54 35.503-41.8c1.792-19.25-12.371-39.56-31.58-41.81 3.046-11.52-.978-24.62-9.969-32.45 2.81-.5 5.912-.23 10.713-2.49zM702.463 998.299c10.788-9.617 28.586-10.1 39.878-1.079 7.564 6.04 11.876 15.28 14.608 24.57 9.713 33.02 1.449 70.74-21.175 96.68-22.625 25.93-58.881 39.24-92.91 34.09-6.342-.95-12.838-2.63-17.762-6.74-10.512-8.77-9.765-26.49-.873-36.9 8.89-10.42 23.463-14.39 37.153-14.11-9.188-2.53-18.016-7.7-23.007-15.46-4.99-7.77-6.018-17.95-3.974-27.84 8.811.19 17.621.38 25.513 1.64 5.242-4.32 7.621-11.36 7.8-18.15.18-6.78-1.57-13.46-3.225-21.75-8.875-.11-17.726-1.91-25.931-5.3 2.833-13.149 14.283-23.997 27.565-26.115s27.537 4.628 36.34 16.464z" fill="#77d0eb"/><path d="M655.664 741.064c-2.448-6.896-12.357-2.093-17.109-.319-5.326 2.472-10.213 5.788-14.72 9.535a5.97 5.97 0 0 0-1.746 4.215c-.175 5.131 6.664 7.962 10.177 4.216 1.464-1.491 9.2-6.507 15.26-9.122 3.408-1.981 9.524-3.347 8.138-8.525zm341.754-30.863c.011-1.568-.642-3.111-1.746-4.215-3.502-3.747-10.346-.922-10.178 4.215.601 11.467-.493 14.439-7.43 24.637 2.887-3.823-3.518 4.751-.746 1.121-1.741 2.827-4.716 3.836-1.984 8.679 5.292 5.917 12.717-3.36 15.726-7.693 4.936-7.891 7.399-17.458 6.358-26.744zm-39.252 43.24c-3.043 2.872-7.129 7.902-3.337 11.768 4.36 4.138 10.764-1.214 13-5.255 2.805-5.714-5.361-11.137-9.663-6.513zM664.813 321.896c-16.947 3.509-31.672 15.454-40.94 29.813-3.891 6.732 6.312 12.711 10.295 6.019 5.858-8.851 11.954-14.869 23.24-20.779 1.159-.794 11.291-4.594 9.289-3.858 1.705-.622 3.512-1.303 4.412-3.006 2.573-4.085-1.672-9.624-6.296-8.189zm-188.49 336.277c2.178 2.951-2.149-2.985-2.607-4.388-1.185-1.565-.81-3.632-3.193-8.075-3.591-5.238-12.324-.826-10.43 5.198 2.343 9.332 7.954 18.153 16.284 23.185 3.558 2.237 8.623-.671 8.489-4.871-.393-4.967-6.173-7.008-8.543-11.049zm426.354 579.777c-3.027-5.45-7.703-1.89-9.973-2.3-13.524.66-18.494-.18-28.942-6.75-6.367-3.69-12.028 5.98-5.696 9.75 10.041 7.19 23.17 10.54 35.345 7.95 4.214-.92 11.627-2.9 9.266-8.65zm-50.882-14.83c-.488-1.99-1.979-3.51-3.388-4.91-1.999-1.7-3.859-4.12-6.74-4.01-5.133-.18-7.962 6.67-4.217 10.18 2.377 1.99 4.588 4.61 7.683 5.4 3.89 1.2 7.867-2.77 6.662-6.66zm-108.587-200.33c-4.448-3.85-11.22 2.16-8.094 7.1 2.296 3.06 3.631 15.59 2.564 19.22.654.84-3.862 8.27 1.543 10.73 7.828 2.68 9.498-12.94 9.596-18.15-.461-6.39-1.245-13.98-5.609-18.9zm-11.265 47.39c-.506 2.03-1.199 4.32.001 6.24 2.052 3.79 8.201 2.99 9.215-1.2 3.821-7.39-6.034-12.82-9.216-5.04z" fill="#fff9ef"/><g fill="#4c1433"><path d="M510.274 711.872c-30.3 0-60.762-21.076-70.095-51.06-10.611-34.109 6.373-74.7 38.666-92.409 33.833-18.543 90.028-15.854 130.727 6.231 2.072 1.125 2.839 3.713 1.713 5.789-1.124 2.067-3.713 2.834-5.788 1.713-33.073-17.959-87.963-25.207-122.552-6.248-28.857 15.826-44.062 52.014-34.614 82.39 9.67 31.067 44.98 51.314 75.514 43.345 2.28-.579 4.613.771 5.209 3.051a4.27 4.27 0 0 1-3.051 5.211c-5.163 1.345-10.444 1.987-15.729 1.987z"/><path d="M733.8 883.332a54.22 54.22 0 0 1-4.56-.183c-20.652-1.709-40.799-15.013-52.431-34.314-13.683 7.66-26.436 12.232-38.87 13.949-16.778 2.33-32.913-.841-45.383-8.906-11.728-7.585-20.835-20.505-24.056-33.776-21.361 2.918-40.587-1.117-54.524-11.478-17.389-12.933-24.186-36.931-17.425-60.521-14.939-10.578-23.912-29.263-22.553-47.556.175-2.35 2.109-4.126 4.572-3.938 2.351.175 4.114 2.221 3.938 4.572-1.208 16.297 7.349 32.971 21.299 41.487a4.27 4.27 0 0 1 1.817 5.013c-7.144 21.06-1.742 42.8 13.445 54.091 17.442 12.975 40.132 11.386 52.094 9.277a4.27 4.27 0 0 1 3.238.747c.933.675 1.555 1.7 1.721 2.841 1.777 12.183 10.24 25.071 21.069 32.073 10.748 6.951 24.794 9.657 39.581 7.622 12.421-1.717 25.329-6.631 39.461-15.021a4.34 4.34 0 0 1 3.348-.433c1.124.32 2.071 1.091 2.616 2.13 9.695 18.559 28.884 32.075 47.743 33.63 19.881 1.646 40.357-9.407 49.898-26.87a4.27 4.27 0 0 1 3.747-2.222h.025a4.27 4.27 0 0 1 3.746 2.268c12.917 24.353 36.657 23.051 49.665 20.093 18.996-4.302 36.305-16.859 46.3-33.58.62-1.042 1.658-1.768 2.847-2.001a4.27 4.27 0 0 1 3.388.784c20.193 15.258 41.72 10.185 55.127.345 15.534-11.394 24.395-31.155 22.577-50.33-.12-1.272.329-2.526 1.234-3.426s2.188-1.351 3.43-1.225c16.047 1.583 32.316-9.17 40.366-26.762 7.53-16.45 6.24-37.011-3.29-52.381-.72-1.159-.84-2.596-.33-3.86.52-1.267 1.61-2.21 2.94-2.534 17.3-4.23 37.22-21.414 40.61-42.85 3.3-20.913-9.61-43.187-29.4-50.705a4.25 4.25 0 0 1-1.51-6.998c22.36-22.464 20.7-44.154 15.37-58.391-6.74-18.001-22.45-32.318-40.994-37.36-1.302-.355-2.364-1.306-2.856-2.564s-.358-2.676.358-3.822c11.762-18.776 12.022-41.911.647-58.938-10.971-16.416-32.217-25.786-51.774-22.739-1.483.226-2.967-.333-3.925-1.48s-1.251-2.713-.763-4.126c7.527-21.864-.621-47.688-19.376-61.404-18.351-13.425-45.45-14.079-64.427-1.555-1.082.713-2.446.892-3.671.497-1.238-.405-2.221-1.351-2.676-2.569-13.292-35.618-38.123-45.087-56.612-46.758-23.269-2.142-47.509 7.326-63.225 24.623-1.521 1.675-4.085 1.872-5.845.446-18.283-14.783-43.044-20.867-64.654-15.85-22.056 5.115-41.074 21.319-49.626 42.291a4.25 4.25 0 0 1-5.253 2.451c-23.031-7.369-45.529-2.764-61.716 12.621-15.021 14.278-22.565 35.897-19.689 56.419.163 1.167-.163 2.35-.901 3.268s-1.825 1.492-3 1.579c-18.884 1.443-34.81 12.699-41.558 29.384-6.498 16.063-3.788 35.254 6.902 48.888a4.27 4.27 0 0 1 .755 3.764c-.359 1.304-1.313 2.362-2.571 2.85-15.172 5.876-27.016 19.343-30.918 35.135-3.901 15.8.321 33.231 11.012 45.491 1.546 1.777 1.362 4.474-.413 6.024a4.28 4.28 0 0 1-6.023-.413c-12.49-14.325-17.417-34.689-12.861-53.144 4.121-16.701 15.849-31.171 31.175-38.861-9.894-15.555-11.913-35.768-4.969-52.935 7.441-18.398 24.237-31.205 44.447-34.202-1.684-21.869 6.81-44.3 22.735-59.433 17.638-16.772 41.69-22.39 66.498-15.655 10.207-21.768 30.592-38.398 54.048-43.841 23.228-5.384 48.689.263 68.836 15.125 17.48-17.405 43.028-26.757 67.581-24.528 28.05 2.538 49.885 19.36 61.947 47.542 21.48-11.589 49.981-9.977 69.715 4.452 20.277 14.834 29.7 40.753 24.186 64.835 20.952-.888 41.962 9.491 53.704 27.066 12.29 18.397 13 42.783 2.2 63.48 18.85 6.844 34.5 22.131 41.54 40.953 8.14 21.727 3.45 43.887-13.17 62.963 20.18 10.699 32.74 34.756 29.15 57.459-3.73 23.597-23.33 41.556-41.72 48.2 8.66 17.201 9.17 38.044 1.12 55.641-8.77 19.16-26.028 31.459-44.029 31.888.305 20.539-9.686 41.008-26.286 53.19-19.014 13.949-42.22 14.671-61.551 2.217-11.424 16.754-29.537 29.199-49.28 33.676-23.561 5.335-43.357-1.338-55.378-18.368-11.302 15.575-30.484 25.466-49.726 25.466z"/><path d="M940.457 850.534c-3.648.004-7.302-.408-10.899-1.267-2.296-.546-3.709-2.846-3.163-5.139s2.863-3.701 5.143-3.163c19.55 4.655 42.083-7.298 49.175-26.12.667-1.775 2.355-2.938 4.327-2.75 14.97 1.183 28.95-3.081 40.42-12.3 10.82-8.703 18.63-21.493 21.44-35.088a4.27 4.27 0 0 1 2.89-3.214c18.54-5.847 32.48-19.356 38.23-37.061 5.5-16.891 2.73-36.53-7.23-51.251-1.24-1.83-.88-4.306.84-5.702 15.57-12.696 24.31-28.125 25.29-44.617.93-15.946-5.29-32.163-16.65-43.379a4.26 4.26 0 0 1-.75-5.088c12.61-23.027 17.78-40.749 16.77-57.466-1.2-19.823-12.97-37.532-28.63-43.075a4.25 4.25 0 0 1-2.48-2.309c-.48-1.083-.48-2.313-.01-3.397 8.73-20.36 9.24-38.915 1.46-53.661-7.51-14.253-22.72-24.556-38.75-26.252a4.28 4.28 0 0 1-3.82-4.119c-.74-25.378-7.29-42.707-20.6-54.539-12.29-10.933-29.42-16.438-45.775-14.734-2.322.159-4.376-1.4-4.672-3.697-2.088-16.033-13.278-30.617-28.504-37.155-13.158-5.648-29.283-6.452-47.938-2.393-1.704.375-3.43-.317-4.414-1.734-13.353-19.218-29.129-30.496-46.893-33.51-17.512-2.983-35.956 2.222-49.342 13.888a4.27 4.27 0 0 1-5.394.175c-14.558-11.099-30.641-16.125-45.253-14.263-14.854 1.934-28.855 11.124-36.536 23.986-.946 1.592-2.817 2.393-4.63 1.967-19.643-4.567-37.074-2.625-51.806 5.79-14.216 8.114-25.049 21.764-29.725 37.452a4.26 4.26 0 0 1-5.306 2.872c-2.258-.672-3.547-3.047-2.872-5.307 5.293-17.775 17.568-33.238 33.669-42.428 15.904-9.081 34.408-11.544 55.006-7.339 9.261-13.675 24.737-23.328 41.1-25.453 15.916-2.097 33.137 2.854 48.788 13.924 15.029-11.781 34.872-16.879 53.727-13.683 19.089 3.244 36.615 15.239 50.835 34.752 19.272-3.781 36.198-2.618 50.352 3.459 16.946 7.277 29.27 22.345 32.925 39.916 17.405-.667 35.268 5.525 48.328 17.138 14.52 12.908 21.98 31.1 23.32 57.057 17.61 3.051 33.37 14.388 41.73 30.246 8.5 16.096 8.64 35.731.46 57.003 19.31 9.086 29.07 30.601 30.17 48.906 1.07 17.717-3.97 36.113-16.31 59.321 11.66 12.778 17.95 30.342 16.93 47.63-1.05 17.871-9.85 34.492-25.52 48.284 9.71 16.421 12.13 37.302 6.23 55.427-6.28 19.302-21.66 34.761-41.43 41.775a69.45 69.45 0 0 1-23.9 37.598c-12.39 9.965-27.34 14.875-43.327 14.333-8.207 17.934-27.462 29.754-47.026 29.754z"/><path d="M966.253 822.627c-1.667 0-3.247-.98-3.934-2.609-.917-2.167.1-4.673 2.271-5.589.462-.201 46.83-20.268 68.71-67.694 24.25-52.548 48.36-116.508 27.21-210.855-21.86-97.535-73.051-171.281-156.507-225.451-98.236-63.771-222.463-30.758-258.197-19.129-57.096 18.588-58.413 46.542-58.416 46.821-.055 2.339-1.781 4.193-4.319 4.197-2.334-.03-4.217-1.9-4.217-4.239 0-1.387.704-34.184 64.309-54.898 36.643-11.924 164.076-45.738 265.491 20.089 85.416 55.445 137.816 130.924 160.186 230.743 21.73 96.947-2.95 162.483-27.79 216.298-23.31 50.514-71.12 71.128-73.142 71.983-.542.225-1.105.333-1.655.333zm-151.344-75.333c-20.881 0-41.871-9.315-56.341-25.062-14.367-15.637-22.19-37.097-21.464-58.878.6-18.181 7.055-35.447 18.188-48.618 15.889-18.805 42.287-30.025 72.429-30.78 26.583-.658 52.44 6.103 77.405 12.646 2.28.6 3.642 2.934 3.046 5.214s-2.933 3.618-5.213 3.046c-24.39-6.397-49.668-13.087-75.022-12.37-27.707.693-51.809 10.807-66.126 27.755-9.895 11.71-15.642 27.119-16.18 43.39-.649 19.564 6.357 38.815 19.222 52.82 12.879 14.011 31.525 22.301 50.047 22.301.347 0 .705.009 1.034-.008a4.27 4.27 0 0 1 4.268 4.202 4.27 4.27 0 0 1-4.201 4.333l-1.092.009z"/><path d="M646.351 799.918c-4.918 0-9.844-.3-14.746-.912-9.481-1.18-32.205-5.957-38.518-24.711-2.943-8.741-1.201-18.102.199-25.621l17.484-93.621a4.27 4.27 0 0 1 4.914-3.423c41.037 6.982 82.815 8.099 124.164 3.315 2.339-.289 4.46 1.408 4.73 3.746a4.27 4.27 0 0 1-3.746 4.73c-40.757 4.718-81.935 3.81-122.438-2.692l-16.714 89.513c-1.283 6.885-2.742 14.691-.508 21.327 4.772 14.171 23.611 17.984 31.488 18.968 25.045 3.108 50.681-2.426 72.195-15.593 21.66-13.262 40.383-35.997 48.855-59.341a4.29 4.29 0 0 1 5.474-2.555c2.212.809 3.358 3.255 2.554 5.472-9.107 25.07-29.196 49.48-52.423 63.701-18.947 11.6-40.862 17.697-62.964 17.697zm63.094 25.339c-2.129 0-3.967-1.589-4.234-3.752-.283-2.342 1.384-4.468 3.722-4.755 11.445-1.388 22.444-7.697 29.424-16.875a4.27 4.27 0 0 1 5.982-.813 4.27 4.27 0 0 1 .812 5.981c-8.474 11.14-21.297 18.497-35.185 20.185-.175.02-.349.029-.521.029z"/><path d="M598.837 751.733a4.27 4.27 0 0 1-3.446-1.742c-1.393-1.901-.984-4.572.916-5.969 44.558-32.687 103.654-46.558 158.111-37.123 2.322.406 3.88 2.614 3.476 4.936s-2.63 3.871-4.935 3.476c-52.197-9.053-108.876 4.247-151.601 35.598a4.25 4.25 0 0 1-2.521.824zm-2.361-179.293c-.259 0-.521-.02-.784-.071a4.27 4.27 0 0 1-3.417-4.976c2.717-14.612 5.523-29.717 4.984-44.612-.412-11.362-3.104-27.537-13.591-40.078-8.01-9.586-19.471-14.475-29.229-12.466-7.898 1.629-15.37 7.573-22.856 18.172-15.08 21.359-23.098 47.521-22.577 73.662a4.27 4.27 0 0 1-4.185 4.351h-.083a4.27 4.27 0 0 1-4.268-4.185c-.554-27.945 8.02-55.915 24.14-78.754 8.79-12.446 17.984-19.515 28.104-21.606 12.766-2.651 27.495 3.388 37.502 15.35 12.036 14.395 15.113 32.55 15.571 45.245.575 15.838-2.321 31.413-5.118 46.48a4.27 4.27 0 0 1-4.193 3.488zm184.445 30.396c-2.192 0-4.055-1.675-4.247-3.898-2.467-28.328 2.696-56.86 14.938-82.514 8.427-17.671 18.601-28.487 31.108-33.063 15.884-5.81 35.194-.425 48.05 13.383 10.462 11.249 16.71 27.799 17.586 46.601.762 16.525-2.322 32.754-5.307 48.446-.437 2.313-2.671 3.818-4.988 3.397-2.318-.442-3.839-2.676-3.397-4.989 2.892-15.208 5.88-30.938 5.163-46.459-.779-16.784-6.218-31.408-15.308-41.178-10.382-11.162-26.378-15.754-38.865-11.182-10.307 3.768-18.922 13.162-26.341 28.72-11.582 24.278-16.471 51.286-14.136 78.098a4.27 4.27 0 0 1-3.881 4.621 3.62 3.62 0 0 1-.375.017z"/><path d="M549.304 561.059c-2.322 0-4.222-1.854-4.267-4.185a145.3 145.3 0 0 1 2.742-31.029 4.26 4.26 0 0 1 2.629-3.146c7.653-2.993 14.008-5.143 19.886-7.011-4.969-3.767-10.091-6.635-15.43-9.619-1.767-.993-2.596-3.088-1.984-5.019 3.935-12.366 13.25-23.123 24.919-28.778 2.123-1.026 4.681-.146 5.702 1.976a4.27 4.27 0 0 1-1.976 5.701c-8.573 4.155-15.6 11.657-19.317 20.456 6.547 3.709 13.229 7.801 19.697 13.97 1.096 1.047 1.554 2.592 1.209 4.068a4.28 4.28 0 0 1-2.901 3.1c-7.332 2.256-14.896 4.582-24.499 8.257a136.94 136.94 0 0 0-2.141 26.908 4.27 4.27 0 0 1-4.185 4.351h-.084zM829.97 589.12c-2.055 0-3.863-1.484-4.205-3.572-1.821-11.041-1.634-22.201.563-33.172.225-1.128.896-2.117 1.863-2.742 8.31-5.385 15.675-9.84 22.672-13.983-6.647-2.475-12.553-3.322-17.663-3.788a4.27 4.27 0 0 1-2.976-1.626 4.28 4.28 0 0 1-.854-3.285 78.88 78.88 0 0 1 16.526-37.326c1.475-1.835 4.167-2.126 6-.643a4.27 4.27 0 0 1 .643 6.002c-6.806 8.436-11.566 18.352-13.909 28.896 6.769.925 14.61 2.805 23.495 7.481a4.27 4.27 0 0 1 2.28 3.677c.033 1.546-.771 2.996-2.106 3.779l-27.936 16.989a83.67 83.67 0 0 0-.179 28.349 4.27 4.27 0 0 1-3.514 4.906 4 4 0 0 1-.7.058zm-140.938 11.151c-.108 0-.218-.004-.326-.013-6.68-.505-12.924-4.984-15.541-11.153-2.613-6.177-1.492-13.783 2.788-18.93 4.276-5.157 11.554-7.64 18.088-6.206 2.306.508 3.759 2.784 3.251 5.084s-2.792 3.739-5.084 3.251c-3.456-.763-7.436.609-9.69 3.327-2.26 2.717-2.872 6.885-1.492 10.143 1.379 3.251 4.801 5.706 8.322 5.973 2.351.176 4.114 2.225 3.935 4.576-.167 2.243-2.039 3.948-4.251 3.948zm178.559 498.809c-.796 0-1.6-.22-2.317-.69-1.976-1.28-2.543-3.92-1.259-5.9 25.474-39.31 35.217-64.69 41.711-108.608 7.211-48.747-3.88-95.427-30.429-128.069-1.488-1.83-1.213-4.519.617-6.002 1.834-1.492 4.522-1.208 6.001.616 28.058 34.494 39.816 83.591 32.256 134.706-6.699 45.327-16.747 71.497-42.995 111.997-.818 1.26-2.185 1.95-3.585 1.95zm25.314 13.09a4.27 4.27 0 0 1-2.983-1.22c-1.684-1.65-1.717-4.35-.068-6.04 33.015-33.78 46.897-60.68 57.129-110.713 9.741-47.631 5.406-98.82-12.203-144.145-.85-2.196.237-4.673 2.433-5.527 2.189-.837 4.669.238 5.527 2.434 18.193 46.834 22.669 99.733 12.604 148.946-10.478 51.255-25.466 80.265-59.387 114.975-.834.86-1.943 1.29-3.052 1.29z"/><path d="M898.741 1113.88c-16.268 0-32.413-8.29-41.582-21.8a4.27 4.27 0 0 1 1.134-5.93c1.95-1.32 4.605-.82 5.925 1.13 8.569 12.62 24.475 19.76 39.595 17.73 2.296-.33 4.481 1.33 4.793 3.66.313 2.34-1.329 4.48-3.667 4.8-2.059.27-4.13.41-6.198.41zm-42.77 29.29c-.612 0-1.238-.13-1.83-.41-8.394-4-19.785-11.4-26.378-23.94-6.235-11.87-6.322-25.74-.225-36.22 4.872-8.39 13.654-14.6 24.086-17.03 8.731-2.04 18.659-1.46 28.729 1.65 2.25.7 3.51 3.08 2.813 5.34-.696 2.25-3.084 3.51-5.34 2.81-8.618-2.66-16.999-3.17-24.259-1.49-8.037 1.88-15.01 6.74-18.652 13-4.56 7.85-4.401 18.82.4 27.97 5.506 10.47 15.27 16.76 22.494 20.2a4.27 4.27 0 0 1 2.022 5.69c-.734 1.54-2.264 2.43-3.86 2.43zm42.875 10.23c-5.784 0-12.095-.78-19.3-2.38a4.27 4.27 0 0 1-3.247-5.09c.508-2.3 2.788-3.74 5.088-3.24 10.046 2.22 18.03 2.72 25.128 1.59 8.519-1.36 15.925-5.41 20.322-11.1 5.16-6.69 6.66-16.62 3.823-25.31-2.713-8.3-9.145-15.7-17.643-20.29a4.26 4.26 0 0 1-1.729-5.78c1.117-2.07 3.717-2.85 5.781-1.73 10.41 5.62 18.321 14.79 21.701 25.15 3.751 11.47 1.768 24.18-5.176 33.18-5.797 7.5-14.933 12.58-25.729 14.31-2.888.46-5.876.69-9.019.69z"/><path d="M886.379 1272.52c-32.709 0-64.972-18.46-80.243-47.88-18.426-35.51-9.54-82.07 20.673-108.3 1.77-1.53 4.476-1.36 6.018.43a4.27 4.27 0 0 1-.425 6.02c-26.866 23.32-35.077 66.34-18.688 97.92 16.392 31.57 56.294 49.61 90.825 41.09 10.636-2.63 19.751-7.33 26.361-13.58 7.452-7.05 11.866-16.28 12.112-25.34.425-15.66-12.367-31.28-29.754-36.35-18.98-5.52-38.435.68-51.423 6.86a4.28 4.28 0 0 1-5.689-2.03c-1.013-2.13-.108-4.67 2.022-5.69 14.324-6.81 35.921-13.62 57.474-7.33 20.998 6.11 36.43 25.36 35.906 44.77-.309 11.31-5.697 22.72-14.78 31.31-7.681 7.26-18.116 12.68-30.179 15.66-6.655 1.65-13.445 2.44-20.21 2.44z"/><path d="M911.658 1183.78c-.821 0-1.651-.24-2.384-.73-1.955-1.32-2.468-3.97-1.15-5.93 4.559-6.75 2.766-17.36-3.756-22.24-1.888-1.42-2.272-4.09-.859-5.98a4.28 4.28 0 0 1 5.977-.86c10.282 7.71 12.9 23.21 5.715 33.86a4.27 4.27 0 0 1-3.543 1.88zM665.474 1018.9a4.49 4.49 0 0 1-.958-.11c-16.264-3.74-33.081-7.6-48.523-15.42-17.588-8.911-30.504-22.076-36.368-37.081-7.248-18.547-4.498-41.274 7.552-62.359 10.516-18.4 25.928-32.889 40.836-46.892 1.713-1.614 4.422-1.534 6.031.187 1.617 1.717 1.529 4.419-.188 6.031-14.445 13.579-29.387 27.616-39.269 44.909-10.602 18.555-13.224 39.123-7.01 55.015 5.098 13.05 16.559 24.615 32.276 32.572 14.508 7.358 30.808 11.098 46.571 14.718 2.297.53 3.734 2.82 3.205 5.11-.455 1.98-2.213 3.32-4.155 3.32zm-4.679 36.52h-.066c-36.02-.56-66.936-8.68-91.885-24.13-29.462-18.24-49.468-47.348-53.523-77.856-3.675-27.616 5.477-52.186 13.799-67.932 9.529-18.034 23.19-35.139 42.992-53.823 1.713-1.614 4.413-1.537 6.035.175 1.617 1.718 1.537 4.418-.176 6.035-19.101 18.022-32.225 34.418-41.307 51.602-7.739 14.646-16.259 37.435-12.882 62.817 3.722 28.005 22.248 54.812 49.555 71.722 23.624 14.63 53.068 22.32 87.524 22.86 2.356.04 4.239 1.97 4.201 4.33-.037 2.34-1.942 4.2-4.267 4.2z"/><path d="M656.064 1063.54c-1.166 0-2.334-.48-3.175-1.42a4.27 4.27 0 0 1 .325-6.03c13.153-11.8 15.721-34 5.605-48.49a4.28 4.28 0 0 1 1.059-5.95c1.929-1.34 4.596-.86 5.944 1.06 12.673 18.16 9.572 44.96-6.907 59.73a4.22 4.22 0 0 1-2.851 1.1zm45.471-36.76c-.459 0-.921-.07-1.379-.23-2.23-.76-3.422-3.18-2.66-5.42 3.176-9.3.784-20.37-5.947-27.548-6.735-7.172-17.643-10.26-27.12-7.677-9.491 2.58-17.33 10.758-19.502 20.345-.52 2.3-2.821 3.74-5.105 3.22a4.26 4.26 0 0 1-3.221-5.1c2.854-12.587 13.136-23.316 25.586-26.7 12.478-3.38 26.753.662 35.589 10.069s11.966 23.941 7.798 36.151c-.604 1.77-2.264 2.89-4.039 2.89zm-40.173 68.04c-.738 0-1.475-.02-2.208-.05-10.487-.52-19.347-4.83-24.312-11.82-6.456-9.08-5.463-20.8-4.03-31.08a4.25 4.25 0 0 1 4.818-3.63 4.27 4.27 0 0 1 3.634 4.82c-1.263 9.04-2.108 18.42 2.54 24.95 3.388 4.77 10.031 7.85 17.767 8.23 9.273.46 18.721-2.62 25.936-8.47 7.21-5.83 12.199-14.43 13.682-23.59.38-2.33 2.539-3.9 4.898-3.53 2.326.37 3.905 2.57 3.53 4.89-1.817 11.21-7.918 21.73-16.743 28.87-8.251 6.68-18.895 10.41-29.512 10.41z"/><path d="M661.324 1159.25c-7.547 0-15.037-.88-22.284-2.7-12.809-3.23-21.378-9.04-25.475-17.28-6.589-13.25.538-29.09 10.978-37.88 18.831-15.87 49.502-14.61 66.977 2.73a4.26 4.26 0 0 1 .025 6.03c-1.658 1.68-4.367 1.69-6.035.03-14.22-14.11-40.139-15.16-55.465-2.27-7.703 6.49-13.416 18.35-8.836 27.55 2.934 5.91 9.636 10.22 19.915 12.81 28.733 7.23 61.841-1.77 84.343-22.92 21.82-20.51 33.777-51.48 31.989-82.85-.6-10.5-3.639-29.6-17.288-39.57-9.645-7.042-24.078-8.371-36.77-3.374a4.28 4.28 0 0 1-5.534-2.41 4.27 4.27 0 0 1 2.409-5.534c15.583-6.139 32.792-4.43 44.929 4.426 12.215 8.922 19.592 25.252 20.773 45.972 1.933 33.86-11.024 67.34-34.664 89.56-18.909 17.78-44.738 27.68-69.987 27.68zm577.416-335.121c-2.07 0-3.89-1.509-4.21-3.618-11.27-72.991-62.95-137.638-131.67-164.7-2.19-.863-3.27-3.342-2.41-5.534.87-2.194 3.35-3.269 5.54-2.41 71.48 28.153 125.25 95.41 136.97 171.344a4.27 4.27 0 0 1-3.57 4.868 4.31 4.31 0 0 1-.65.05zm-32.29 1.062c-1.74 0-3.38-1.075-4.01-2.814-18.55-51.163-57.5-93.654-106.86-116.569a4.27 4.27 0 0 1-2.08-5.668c1-2.143 3.54-3.077 5.67-2.077 51.41 23.87 91.97 68.119 111.29 121.405.81 2.218-.34 4.664-2.55 5.469a4.4 4.4 0 0 1-1.46.254z"/><path d="M1217.1 829.424c-8.06 0-16.12-1.817-23.33-5.518-2.09-1.08-2.92-3.651-1.84-5.748a4.26 4.26 0 0 1 5.74-1.846c14.17 7.285 32.3 5.826 45.12-3.622 1.9-1.404 4.58-.996 5.97.905 1.4 1.896.99 4.567-.91 5.964-8.84 6.518-19.8 9.865-30.75 9.865zm-.87 32.944c-.09 0-.18-.004-.27-.007-7.07-.435-14.38-.885-21.52-3.097-8.39-2.606-15.11-7.449-18.93-13.642-5.2-8.436-5.2-19.706.01-28.708 4.76-8.231 13.56-14.15 23.54-15.834a4.29 4.29 0 0 1 4.91 3.501 4.26 4.26 0 0 1-3.5 4.918c-7.49 1.263-14.06 5.635-17.56 11.691-3.61 6.222-3.65 14.241-.13 19.952 2.73 4.439 7.77 7.977 14.19 9.969 6.15 1.909 12.95 2.326 19.52 2.73a4.26 4.26 0 0 1 3.99 4.522c-.13 2.263-2.01 4.005-4.25 4.005zm45.69-1.823c-1.61 0-3.15-.909-3.87-2.455-1-2.134-.08-4.676 2.05-5.677 7.34-3.443 12.44-11.482 12.71-20.009.26-8.282-3.89-16.779-10.84-22.182-6.71-5.209-15.74-7.547-24.82-6.446-2.39.311-4.47-1.377-4.76-3.715-.28-2.342 1.38-4.467 3.72-4.755 11.3-1.392 22.62 1.592 31.09 8.173 9.07 7.048 14.49 18.234 14.14 29.192-.36 11.661-7.44 22.698-17.61 27.47a4.3 4.3 0 0 1-1.81.404z"/><path d="M1205.44 954.405c-8.2 0-13.97-2.413-17.18-7.194-4.97-7.397-1.19-17.617 5.46-22.518 4.62-3.41 10.13-4.805 15.21-5.626-1.17-3.318-2.88-6.377-5.11-9.161-4.62 7.176-12.33 11.715-20.98 11.986-5.91.171-11.31-1.759-14.76-5.343-3.64-3.789-5.36-9.465-4.98-16.417.49-8.849 3.74-17.947 9.67-27.045 5.11-7.818 11.47-14.601 17.62-21.156 1.6-1.722 4.31-1.809 6.03-.197a4.27 4.27 0 0 1 .19 6.032c-5.9 6.293-11.99 12.795-16.69 19.988-5.11 7.823-7.89 15.509-8.3 22.844-.17 3.159.14 7.465 2.61 10.037 1.78 1.841 4.86 2.843 8.34 2.73 7.28-.234 13.59-5.031 16.08-12.224.48-1.351 1.58-2.377 2.97-2.735 1.38-.358 2.84 0 3.91.947 6.85 6.123 11.22 13.67 12.98 22.44.23 1.157-.03 2.366-.73 3.329a4.26 4.26 0 0 1-2.92 1.742c-5.49.697-11.71 1.483-16.07 4.697-3.4 2.505-5.59 7.69-3.44 10.887 1.77 2.633 5.95 3.738 12.47 3.342 7.61-.482 13.46-1.771 18.42-4.06 5.83-2.691 10.27-6.856 12.49-11.728 3.16-6.931 2.11-15.299.54-24.723-.39-2.326 1.17-4.526 3.5-4.913 2.31-.417 4.52 1.179 4.91 3.504 1.4 8.357 3.32 19.802-1.18 29.675-3.07 6.731-9 12.392-16.69 15.938-5.94 2.743-12.76 4.277-21.45 4.827a47.66 47.66 0 0 1-2.92.095z"/><path d="M1246.32 950.871c-5.32 0-10.54-1.489-14.85-4.43-1.94-1.331-2.45-3.986-1.12-5.931a4.27 4.27 0 0 1 5.93-1.121c5.34 3.642 13.14 3.9 19.42.662 5.96-3.08 10.75-9.253 12.82-16.513 1.9-6.686 1.7-14.396-.58-22.302-.66-2.262.65-4.63 2.92-5.284 2.27-.638 4.63.658 5.28 2.917 2.73 9.444 2.93 18.78.59 27.004-2.74 9.627-8.98 17.558-17.11 21.763a29.09 29.09 0 0 1-13.3 3.235z"/><path d="M1273.68 935.146a4.27 4.27 0 0 1-4.22-3.655c-.34-2.335 1.28-4.498 3.61-4.836 10.26-1.492 19.68-9.218 24.01-19.688 4.04-9.774 3.8-21.715-.65-32.751-3.96-9.815-11.26-19.164-21.14-27.037a4.28 4.28 0 0 1-.68-5.997 4.28 4.28 0 0 1 6-.68c11.02 8.794 19.23 19.347 23.74 30.521 5.27 13.092 5.5 27.378.62 39.203-5.45 13.199-17.49 22.96-30.67 24.874a4.01 4.01 0 0 1-.62.046zM440.112 554.72a3.59 3.59 0 0 1-.308-.013c-48.38-3.434-94.722-28.591-123.955-67.298-1.422-1.879-1.047-4.556.833-5.977 1.881-1.429 4.556-1.049 5.976.834 27.771 36.768 71.792 60.667 117.754 63.93 2.351.167 4.119 2.205 3.951 4.56-.157 2.247-2.029 3.964-4.251 3.964zm6.795 55.578c-.187 0-.378-.013-.57-.038-59.717-7.997-116.696-41.745-152.418-90.267-1.397-1.896-.993-4.567.909-5.967 1.904-1.393 4.572-.993 5.967.908 34.377 46.696 89.209 79.167 146.675 86.866a4.27 4.27 0 0 1 3.664 4.797c-.289 2.142-2.122 3.701-4.227 3.701z"/><path d="M295.206 535.277a4.27 4.27 0 0 1-4.247-3.898c-1.113-12.673 2.563-25.831 10.078-36.101s18.951-17.743 31.367-20.514c2.296-.516 4.58.934 5.093 3.234a4.26 4.26 0 0 1-3.234 5.093c-10.424 2.33-20.026 8.611-26.341 17.23s-9.394 19.672-8.46 30.317a4.27 4.27 0 0 1-3.881 4.622c-.124.013-.25.017-.375.017zm8.146 17.558c-9.79 0-19.635-3.663-26.636-10.536-11.008-10.794-14.229-28.753-7.669-42.708 1.004-2.133 3.543-3.046 5.68-2.046a4.27 4.27 0 0 1 2.046 5.681c-5.068 10.774-2.579 24.645 5.92 32.98s22.409 10.574 33.092 5.298a4.266 4.266 0 0 1 3.776 7.651c-5.027 2.485-10.607 3.68-16.209 3.68zm45.606-35.289c-1.02 0-2.042-.362-2.859-1.096-1.75-1.58-1.889-4.275-.313-6.03 8.265-9.17 8.745-24.491 1.064-34.156-7.669-9.665-22.699-12.675-33.514-6.702-2.067 1.15-4.656.388-5.799-1.671-1.141-2.064-.391-4.66 1.673-5.797 14.529-8.036 34-4.147 44.324 8.86 10.328 13 9.712 32.847-1.404 45.183-.846.934-2.005 1.409-3.172 1.409z"/><path d="M268.327 525.206a5.41 5.41 0 0 1-.28-.009c-24.648-1.584-48.505-12.804-65.446-30.788-3.998-4.238-9.5-10.827-11.145-19.1-1.797-8.991 1.837-18.047 8.839-22.023 4.418-2.518 9.815-3.035 16.429-1.572-6.527-7.264-11.115-16.329-12.657-25.815-1.013-6.224-.325-11.136 2.097-15.018 5.051-8.081 15.871-8.993 23.481-5.779 4.439 1.879 8.115 4.884 11.362 8.123-2.36-7.227-3.218-14.792-2.343-22.085.608-5.077 1.955-9.149 4.122-12.451 2.934-4.463 7.514-7.406 12.258-7.876 5.909-.588 12.244 2.688 16.475 8.556 2.418 3.343 3.96 6.994 5.452 10.524l1.57 3.618a60.88 60.88 0 0 0 14.163 19.438c1.384-9.781 6.01-17.646 13.108-21.839 5.259-3.097 12.075-3.83 18.222-1.947 5.664 1.73 10.066 5.372 12.391 10.257 2.434 5.119 2.413 10.721 2.026 16.005a140.35 140.35 0 0 1-11.154 45.605c-.938 2.163-3.446 3.15-5.609 2.225-2.163-.934-3.16-3.442-2.225-5.61a131.9 131.9 0 0 0 10.476-42.837c.3-4.122.36-8.393-1.225-11.72-1.28-2.692-3.83-4.743-7.172-5.763-3.906-1.189-8.162-.768-11.387 1.137-6.247 3.688-9.812 12.445-9.298 22.852a4.27 4.27 0 0 1-2.196 3.943 4.26 4.26 0 0 1-4.507-.234c-10.135-7.064-18.217-16.725-23.368-27.949-.584-1.267-1.13-2.563-1.675-3.855-1.368-3.238-2.66-6.293-4.51-8.853-1.843-2.55-5.331-5.419-8.712-5.059-2.175.216-4.459 1.775-5.967 4.067-1.426 2.171-2.335 5.043-2.781 8.782-1.625 13.516 4.272 28.845 15.026 39.048 1.446 1.371 1.75 3.56.733 5.273a4.28 4.28 0 0 1-4.976 1.888c-7.39-2.376-12.82-7.965-17.755-13.483l-.425-.475c-4.251-4.765-8.269-9.262-13.425-11.445-4.339-1.834-10.507-1.421-12.917 2.442-1.278 2.046-1.574 5.035-.908 9.123 2.305 14.188 12.799 27.25 26.116 32.497a4.27 4.27 0 0 1 2.646 4.655c-.324 1.984-1.984 3.472-3.988 3.58-5.677.292-10.757-1.463-15.684-3.167l-3.147-1.067c-6.21-2.004-10.768-2.108-13.924-.32-4.289 2.437-5.605 8.351-4.689 12.931.93 4.66 3.784 9.399 8.986 14.922 15.479 16.425 37.269 26.674 59.787 28.12a4.27 4.27 0 0 1-.27 8.528zm23.002-61.475c-1.213 0-2.414-.512-3.256-1.504a15.33 15.33 0 0 0-9.402-5.181c-3.614-.529-7.428.342-10.477 2.36-1.96 1.291-4.615.749-5.915-1.214a4.27 4.27 0 0 1 1.213-5.913c4.768-3.148 10.735-4.503 16.383-3.685a23.95 23.95 0 0 1 14.7 8.106c1.53 1.797 1.309 4.489-.488 6.015-.804.683-1.784 1.016-2.758 1.016zm209.428 144.97c-8.364.029-8.345 12.75 0 12.803 8.366-.029 8.347-12.751 0-12.803zm50.916-11.749c-8.364.029-8.345 12.751 0 12.803 8.366-.029 8.347-12.75 0-12.803zm-19.582 39.164c-8.366.029-8.345 12.751 0 12.803 8.366-.029 8.345-12.75 0-12.803zm256.526-3.916c-8.365.029-8.346 12.751 0 12.803 8.365-.029 8.346-12.75 0-12.803zm45.213-5.578c-8.365.029-8.346 12.75 0 12.803 8.365-.029 8.345-12.751 0-12.803zm-12.91 32.27c-8.364.029-8.345 12.75 0 12.803 8.366-.029 8.347-12.751 0-12.803zM556.726 413.149c-13.523-.588-27.533 10.211-28.826 23.898.385 4.996 8.079 5.476 9.23.63 2.172-11.066 15.233-16.449 22.082-14.453 3.608.839 4.782 1.267 6.946 2.43 1.803 1.216 4.028 1.956 6.038.746 8.752-7.837-9.451-13.485-15.47-13.251zm333.184 32.229c-9.392-12.225-29.541-15.621-41.776-5.987-3.375 3.914 1.902 9.858 6.246 7.114 10.774-5.902 24.349-3.369 30.953 9.626.322.66.826 1.815.299.587.998 1.829 2.11 7.478 1.964 6.83.159 1.729.084 3.647 1.485 4.915 1.691 1.768 4.78 1.759 6.478 0 4.008-6.729-1.229-17.472-5.649-23.085z"/></g><defs><linearGradient id="A" x1="-765.5" y1="-323" x2="983.5" y2="1119" gradientUnits="userSpaceOnUse"><stop stop-color="#b79a81"/><stop offset="1" stop-color="#ebd3c1"/></linearGradient></defs></svg>