<svg xmlns="http://www.w3.org/2000/svg" width="1500" height="1500" fill="none" xmlns:v="https://vecta.io/nano"><circle cx="750" cy="750" r="750" fill="url(#A)"/><path d="M1064.71 434.658c22.41 9.574 37.49 34.117 35.89 58.441-1.59 24.324-19.75 46.686-43.23 53.247-23.47 6.56-50.59-3.152-64.566-23.124-20.451 21.861-47.733 24.754-67.553 13.107-9.876 17.954-27.306 27.363-45.298 28.13s-36.159-7.124-47.878-20.797c-21.031 10.583-47.246 2.28-59.074-16.604-14.436 19.487-34.196 27.596-53.806 26.894s-38.739-10.205-51.145-25.408c-15.608 7.735-29.955 11.993-44.521 11.266s-29.505-7.2-37.264-19.549c-19.071 18.599-52.717 25.058-79.222 12.695s-43.331-43.54-37.535-72.207 34.756-51.196 65.018-49.467c-3.906-15.334 3.006-32.802 16.99-40.756-10.315-41.726 14.373-89.206 54.457-104.726s90.308 2.951 112.544 45.23c10.642-8.574 24.689-12.795 37.451-9.931.06-23.615 13.897-46.695 34.696-57.878s47.683-9.994 72.158 8.382c16.855-18.693 46.689-24.138 69.06-12.603s35.239 38.994 29.621 63.842c12.99 2.675 24.938 10.133 33.045 20.626s12.312 23.938 15.612 33.821c18.4-1.234 37.15 7.884 47.54 23.118 10.4 15.234 12.04 36.022 7.01 54.251z" fill="#f8a847"/><path d="M1045.54 547.11c-19.82 2.311-40.58-6.779-52.332-22.918-21.086 15.759-44.762 19.991-66.519 15.073-5.525 14.942-24.044 25.697-43.295 26.625s-38.72-7.995-50.585-23.182c-21.59 7.615-45.432.601-56.831-16.199-17.288 19.408-36.553 26.618-55.442 25.423s-37.092-10.777-48.771-25.67c-12.178 10.525-27.452 13.991-42.094 12.104s-28.537-9.114-38.491-20.018c-30.239 18.757-59.382 22.345-82.382 12.918-.361 47.147 3.975 94.328 14.925 142.703-29.554 11.512-49.142 44.464-45.134 75.926s31.232 58.452 64.713 63.116c.372 24.766 1.601 51.851 18.044 70.377 19.04 21.453 51.215 23.613 79.892 24.238l223.87 4.876c28.272.616 58.541.683 82.097-14.963 28.041-18.626 38.694-54.015 47.368-86.541 10.317-38.678 57.487-215.639 50.967-263.888z" fill="#b5e4cd"/><path d="M724.655 760.012c-9.568.329-13.967 7.258-24.195 8.468-4.29.55-9.569.11-16.717-2.31-6.269-2.089-26.725-9.678-35.084 2.97-7.259 10.888 1.54 33.654 26.065 40.032 12.208 3.19 28.815 2.64 39.483-1.649 18.476-7.259 24.855-19.247 25.515-29.365.55-10.118-5.719-18.586-15.067-18.146z" fill="#000"/><path d="M724.655 760.011c-9.568.33-13.968 7.259-24.196 8.469-4.289.55-9.568.11-16.717-2.31-4.179-1.43-14.847-5.279-23.865-3.849 0 4.729 1.43 9.348 5.389 12.537 7.149 5.939 47.731 7.919 57.409-3.409 2.31-2.639 3.3-7.588 2.42-11.438h-.44z" fill="#fff"/><g fill="#000"><path d="M714.317 803.123c-.11 0-.11.11-.22.11.11-.11.22-.11.22-.11zm-12.978 3.409c.33 0 .66-.11 0 0h0zm23.536-9.458c-.66.55-.33.22 0 0h0zm8.909-11.437c0 .11-.11.11-.11.22-.22.769.44-.99.11-.22zm-51.581 20.896c-.88-.11.77.11 0 0h0zm-11.878-3.08s-.11 0-.11-.11c-.44-.11-.77-.22.11.11zm65.107-23.866v.44c-.11.44.22-1.21 0-.44zm-2.748-11.987c.11.11.11.22.219.22.22.33.111.22-.219-.22zm-6.49-3.52h.11.22c.44.11.33 0-.33 0zm4.51 1.65l.33.33c0-.11-.11-.22-.33-.33zm4.839 8.688c-.11-.99.11.77 0 0h0zm-6.708-9.678h0c-.77-.44.769.22 0 0zm-22.658-2.089h-.11c-.329.22-.659.44.11 0z"/><path d="M720.586 760.011c.11 2.2 1.76 4.18 4.07 4.07 2.089-.11 4.179-1.76 4.069-4.07-.11-2.089-1.76-4.179-4.069-4.069-2.2 0-4.18 1.76-4.07 4.069zm9.678 31.674c.22-.33.44-.88 0 0h0zM693.311 764.3h-.22c.66.11.66.11.22 0z"/><path d="M731.584 757.042c-2.2-.88-4.62-1.21-6.929-1.21 2.309-.11 3.959 1.98 4.069 4.069.11 2.31-1.979 3.96-4.069 4.07h1.65.11-.11c.659.11.77.11.33 0h-.22.33l1.429.329c.22.11.44.11.66.22-.77-.329.77.22.11 0l1.21.66c.22.11.66.55.99.66l-.33-.33c.11.11.33.22.44.33.22.11.33.33.55.44.33.33.659.66.989 1.1v-.11c.44.44.44.55.22.22 0-.11-.11-.11-.11-.22.11.22.33.44.44.55l.66 1.1.66 1.209v-.11a.34.34 0 0 0 .11.22c.11.33.11.22 0 .11l.22.66c.33.99.55 1.98.77 2.97v.11c-.11-.99.22.769 0 0v.55c.11.659.11 1.319.11 1.979l-.11 2.53v.11-.11c.11-.77-.11.989 0 .44v-.33c-.11.44-.11.88-.22 1.319a29.07 29.07 0 0 1-1.32 4.4c0 .11-.11.22-.11.44v-.111c.33-.769-.33.99-.11.221v-.11c-.11.33-.33.659-.44.989-.33.77-.77 1.54-1.21 2.31s-.879 1.43-1.429 2.089c-.11.22-.33.33-.44.55-.33.33-.66.77-.99 1.1-1.32 1.54-2.859 2.97-4.399 4.179l-.11.11s.11 0 .11-.11c-.66.55-.33.22-.11.11-.22.11-.44.33-.66.44l-1.21.88-3.079 1.98-3.19 1.649c-.55.22-.989.44-1.539.77-.22.11-.44.22-.77.33 0 0-.11 0-.22.11.11 0 .11-.11.22-.11.33-.11-.77.33-.88.33-2.09.88-4.179 1.43-6.379 1.98l-3.299.66c-.55.11-.99.22-1.54.22-.33 0-.55.11-.88.11.33 0 .66-.11-.11 0h.11-.44c-2.419.33-4.949.44-7.368.55-2.53 0-5.059 0-7.589-.22l-3.519-.33h-.11c-.88-.11.77.11 0 0h-.11c-.33 0-.66-.11-.99-.11l-1.87-.33c-2.309-.44-4.509-.99-6.708-1.76-.44-.11-.88-.33-1.43-.55-.22-.11-.55-.22-.77-.33 0 0-.11 0-.22-.11 0 0 .11 0 .11.11-.77-.22-.44-.11-.11-.11-.99-.33-1.98-.88-2.859-1.429l-5.169-3.19c-.11-.11-.22-.22-.33-.22-.77-.55.659.55 0 0l-1.21-.99c-.77-.66-1.43-1.209-2.09-1.979-.66-.66-1.21-1.32-1.759-1.98-.33-.33-.55-.66-.77-.99 0 0 0 .11.11.11.55.66-.66-.77-.11-.11-.11-.11-.22-.33-.33-.44-.99-1.429-1.87-2.859-2.64-4.399-.22-.33-.33-.77-.55-1.21-.11-.33-.55-1.539-.11-.22-.22-.769-.55-1.539-.88-2.309-.219-.66-.439-1.43-.549-2.09-.11-.33-.11-.66-.22-1.1 0-.11 0-.329-.11-.439v.11c.11.659-.22-1.21 0-.11-.11-1.32-.22-2.64-.11-4.07 0-.33.11-.55.11-.879v.769c0-.11 0-.66.11-.88.11-.659.33-1.319.55-1.979.11-.22.11-.33.219-.55 0 0 .001.11-.109.11 0-.11.109-.22.109-.22v-.11c.11-.22.22-.33.22-.33.22-.44.44-.88.77-1.32.11-.11.22-.33.33-.44-.55.55.55-.77 0-.11v.11c.22-.33.55-.66.77-.879l.99-.99s-.11 0-.11.11c-.66.44.77-.66.11-.11.11-.11.33-.22.44-.33.66-.44 1.32-.77 2.089-1.1-.769.33.88-.44.11-.11h-.11c.22-.11.44-.11.55-.22.44-.11.88-.33 1.32-.44l1.32-.33c.33-.11 1.65-.22.33-.11l2.749-.22c1.87 0 3.63.22 5.389.33-1.429-.11 0 0 .33 0 .44.11.88.11 1.32.22l2.639.55c2.75.66 5.499 1.43 8.139 2.42 4.399 1.429 8.798 2.639 13.417 2.969 4.51.33 9.239-.22 13.528-1.98 2.2-.879 4.289-1.979 6.379-3.079l2.639-1.32c.44-.22.77-.44 1.21-.55.11 0 .66-.33.77-.33-.55.22-.66.22-.22.11.22-.11.33-.11.55-.22.88-.33 1.869-.659 2.749-.879l1.32-.33c-.33 0-.55 0 .22 0h-.22.33c.33 0 .66 0 .88-.11-2.31.11-3.959-1.87-4.069-4.07s1.979-4.069 4.069-4.069c-5.169.22-9.678 2.2-14.078 4.619-.879.44-1.869.99-2.749 1.43-.55.22-.99.44-1.54.77 0 0-.11 0-.22.11h.11c-.77.44-.44.22-.11 0l-.99.33c-.989.33-2.089.66-3.189.99-.55.11-1.21.33-1.76.33.22 0 .55 0-.11 0h.11-.22c-.329 0-.659.11-.989.11a11.5 11.5 0 0 1-2.75 0c-.55 0-1.1 0-1.65-.11-.329 0-.549 0-.879-.11h-.44c.44.11.44.11-.22 0h.22c-2.75-.44-5.499-1.1-8.139-1.98s-5.279-1.76-7.918-2.42c-7.809-2.089-16.497-3.189-24.196.22-7.038 3.08-10.998 10.338-10.998 17.817 0 7.589 3.3 14.737 7.919 20.566 5.609 7.039 13.747 11.878 22.436 14.408 10.338 2.969 21.666 3.079 32.334 1.429 10.118-1.539 20.016-6.049 27.714-12.867 5.719-5.169 9.899-12.318 10.998-20.017.77-4.949.33-9.898-1.759-14.517-2.2-3.739-5.829-7.149-10.338-9.018z"/><path d="M661.637 798.504c-.77-.55.66.44 0 0h0zm-10.229-26.065c0 .11-.11.22-.11.22 0 .11-.11.11-.11.22v.11c.22-.44.22-.55.22-.55zm-.99 8.139v-.11c-.22-.99.11.88 0 .11zm5.389 12.097c0-.11 0-.11 0 0-.55-.769.55.66 0 0zm-3.299-22.106c-.55.55.55-.77 0 0h0zm4.4-3.299c.11 0 .11 0 .11-.11.769-.33-.88.33-.11.11zm-2.641 1.54c0-.11.11-.11 0 0 .11-.11.11-.11 0 0 .77-.66-.659.44 0 0z"/></g><path d="M635.018 545.558c-.013-7.118-10.942-7.212-10.989 0l1.269 95.999c.337 9.024.176 18.088 1.127 27.077-.007 1.088.443 2.149 1.209 2.916 1.814 1.901 5.185 1.44 6.477-.836.975-2.063.627-4.529.925-6.758.831-39.459.264-78.935-.018-118.398zM596.82 888.26c-3.528-20.399-5.578-37.673-6.762-59.92-.01-5.777-8.86-5.824-8.895 0 1.134 21.839 3.719 43.608 7.762 65.101.287 2.41 1.227 5.156 3.806 5.896 6.715.975 5.051-6.998 4.089-11.077zm87.323-339.77c.079 31.691-2.706 63.698-.826 95.252.887 2.512 4.454 3.138 6.263 1.242 1.374-1.377 1.229-3.516 1.503-5.314 1.279-30.372 1.269-60.791 1.986-91.18-.011-5.781-8.888-5.858-8.926 0zm70.24-3.168c-.359-1.075-1.281-1.988-2.352-2.351-2.744-1.359-6.263 1.024-6.16 4.065-.845 35.107-4.266 70.487-3.336 105.493 2.469 4.782 8.055 1.57 7.549-3.187 1.839-26.439 2.519-52.959 3.751-79.434-.044-8.146 1.432-16.565.548-24.586zm168.848-2.711c-2.471-2.62-7.289-.663-7.174 2.971-2.294 36.595-7.018 73.397-7.738 109.931 1.738 4.222 7.873 2.169 7.517-2.18 2.711-27.943 4.596-55.964 6.804-83.951l1.821-23.8c.008-1.113-.453-2.186-1.23-2.971zm54.766-2.918c-7.13 119.157-25.034 230.32-60.026 347.694-.799 4.922-5.202 11.698-3.526 16.216 1.727 3.125 6.851 2.534 7.709-1.007 29.445-97.873 50.068-198.516 60.633-300.193 1.699-21.434 4.832-43.219 4.577-64.596-1.752-4.792-9.546-3.332-9.367 1.886zm-81.261 208.398c-6.918 53.041-18.579 105.47-31.828 157.133.349 4.494 7.315 4.981 8.359.57 10.816-39.965 19.85-80.437 26.448-121.317 1.482-12.215 4.799-24.708 4.827-36.882-1.279-3.572-6.932-3.218-7.806.496zm-83.17 98.177l-7.964 57.888c-.277 2.16-1.003 4.7.822 6.389 8.581 5.587 7.634-8.704 8.807-13.636l6.933-50.055c-.355-4.64-7.529-5.112-8.598-.586zm-6.501-290.722c.009-1.276-.519-2.518-1.415-3.417-2.839-3.027-8.386-.754-8.25 3.417.622 20.14.014 40.33-1.856 60.394.638 5.716-5.464 18.855 2.031 20.765 7.333.733 5.502-13.754 6.917-18.712 2.365-20.72 3.245-41.603 2.573-62.447z" fill="#80c6ab"/><path d="M619.741 405.982c2.795 25.404 64.131 5.503 56.733-19.622s-59.292-3.647-56.733 19.622zm193.692 35.973c-9.081-3.501-19.482-3.447-28.527.147-2.294-11.595-10.555-21.84-21.291-26.16 2.998-5.79 10.461-7.331 16.958-7.869 6.767-.562 13.678-.741 20.249.971s12.837 5.531 16.226 11.416 3.309 13.957-3.615 21.495zm57.291-110.543c-13.164.261-27.233 1.9-37.286 10.401-4.581 3.873-8.221 10.046-6.253 15.714 1.692 4.877 6.864 7.574 11.768 9.193a64.79 64.79 0 0 0 20.711 3.258c7.102-.047 14.4-1.354 20.363-5.212s10.361-10.615 10.028-17.709-6.276-13.896-19.331-15.645zm102.735 84.531c-9.256-3.058-19.664-3.472-28.584.458s-15.968 12.665-16.38 22.405c-.211 4.978 1.483 10.284 5.445 13.306 2.979 2.272 6.84 3.008 10.572 3.342 6.937.622 14.087.056 20.529-2.588s12.124-7.517 14.888-13.909 5.239-19.142-6.47-23.014zM589.951 601.766c-10.768 2.576-19.427 12.328-20.872 24.485 4.878 1.831 9.635 3.983 14.003 7.18-7.055 4.621-14.111 9.241-21.208 14.413-.739 6.394.193 12.972 3.207 19.072 11.773-1.128 23.902 1.859 33.807 8.326 3.848-23.424 2.786-47.643-8.937-73.476zm249.951 68.503c-2.503-5.887-3.302-12.486-2.277-18.8l18.39-13.473-14.055-10.278c4.113-8.787 11.143-16.178 20.759-21.554 11.394 20.801 13.603 46.428 5.932 68.871-6.861-2.302-14.193-3.192-28.749-4.766zm290.058 222.757c-8.77 5.8-20.59 6.68-30.13 2.247 6.84-33.498 1.38-68.861-12.92-100.25-14.29-31.39-37.39-58.716-68.41-81.705 4.91-10.817 8.38-22.277 10.32-33.995 31.72 6.753 67.63 64.356 78 82.392 21.4 37.188 31.13 80.976 23.14 131.311zM478.149 721.705c-2.683 11.297-2.35 23.295.846 35.45-28.33 12.007-54.328 29.048-78.255 48.397-7.672 6.204-15.559 13.297-17.903 22.881-2.908 11.882 3.877 24.444 13.545 31.94s21.76 10.986 34.586 15.958c1.849 7.319 1.216 15.241-1.77 22.174s-8.305 12.835-17.201 15.296c-19.616-3.891-39.494-8.95-56.107-20.084s-29.593-29.463-29.486-49.461c.113-21.03 14.12-39.35 29.213-53.993 31.463-30.523 70.788-52.874 122.532-68.558zm214.006 360.825l.873.68a55.52 55.52 0 0 0-4.818-36.91c-17.883 1.63-35.157-4.22-49.308-14.46-9.499-6.87-17.819-16.07-21.142-27.31-3.159-10.685-1.554-22.196 1.166-33.001a166.91 166.91 0 0 1 33.939-66.369c-17.929-1.233-35.29-3.152-50.668-5.245-10.159 16.306-20.374 32.718-27.511 50.555s-11.106 37.36-8.256 56.36c3.861 25.74 20.455 48.85 42.623 62.49s49.407 18.1 83.102 13.21zm260.242 20.4c27.464-62.87 18.532-140.178-22.546-195.128-16.18.902-33.501 2.132-47.853 5.748 23.22 22.418 39.358 52.067 45.577 83.738s2.493 65.222-10.526 94.762c8.329 10.98 22.724 17.04 35.348 10.88z" fill="#4c1433"/><path d="M585.664 600.451c-11.09 5.078-19.511 15.627-22.006 27.567l15.267 5.977c-6.065 2.938-11.778 6.604-18.269 10.14-1.448 7.487-1.105 15.315.99 22.647l-.192-.021.532-1.331s-.797.799-1.077.84c-5.996-2.041-12.685-1.984-20.143 1.399-1.322-10.787-2.647-21.679-1.589-32.495s4.714-21.703 12.172-29.608 19.14-12.286 34.315-5.115zm273.731 2.898c-8.743 6.609-15.378 15.963-18.726 26.398l12.969 8.316c-5.5 3.669-11.001 7.338-16.22 9.722-1.701 7.781-1.249 16.021.873 27.017-10.343-1.02-20.932.525-30.758 3.688-.017-12.159-.026-24.417 2.379-36.336s7.425-23.625 16.156-32.089 21.549-13.219 33.327-6.716zM514.996 939.291c-1.671 13.621-12.121 25.749-25.345 29.418-4.162 1.154-9.207 1.298-12.181-1.834-2.143-2.255-2.609-5.709-1.965-8.753s2.246-5.785 3.823-8.467c-12.18 3.613-26.016-.453-33.92-9.947-10.151 7.274-24.628 7.711-35.177 1.141s-16.542-19.753-14.558-32.021c6.191 2.814 11.643 5.114 17.83 6.232 6.877-3.49 12.54-9.319 15.831-16.293a35.34 35.34 0 0 0 2.506-22.58s-20.392-5.527-21.648-8.215c2.053-12.785 13.99-23.251 26.933-23.616s25.452 9.414 28.377 21.27c8.621-2.959 17.71-4.988 26.806-4.402s18.242 4.005 24.496 10.634 9.133 16.7 6.015 25.265c6.499 5.901 11.583 14.038 11.52 22.816s-6.585 17.74-19.343 19.352zm632.934-26.043c5.46-6.339 7.46-15.475 5.16-23.513-2.29-8.039-8.82-14.739-16.79-17.247-1.27 8.733-2.74 16.889-4.95 24.84-11.62 5.704-23.14 5.45-32.53.721 2.8-7.149 3.75-15.011 3.02-21.554-9.49 1.11-18.11 7.864-21.45 16.819s-1.26 19.701 5.36 27.985c-10.62 4.029-18.94 13.624-21.43 24.704-1.01 4.492-1.02 9.486 1.44 13.372 2.51 3.965 7.36 6.127 12.05 6.012 4.7-.112 9.19-2.286 12.46-7.031l.27 17.097c-4.4-1.515-9.53-.76-13.25 2.034-3.73 2.793-5.89 7.568-5.45 12.2.62 6.373 5.97 11.633 12.11 13.443 6.14 1.82 12.84.65 19.85-4.064 6.01 4.784 14.3 6.564 21.75 4.684 7.45-1.89 13.89-7.411 15.47-14.516 5.59 3.974 13.81 2.425 18.93-2.128 5.13-4.554 7.65-11.395 8.84-18.148 3.57-20.236-3.75-42.068-20.86-55.71z" fill="#fff9ef"/><path d="M668.067 1088.76a80.36 80.36 0 0 0 21.878-4.11c1.776-.6 3.659-1.36 4.653-2.95 1.112-1.77.793-4.06.437-6.13l-4.342-23.84c-6.257-1.28-12.514-2.56-21.654-5.53-.747-13.12 9.02-26.05 21.839-28.92s27.163 4.67 34.14 14.56c16.39-7.5 37.213-6.33 50.94 5.36 8.413 7.16 13.57 17.46 16.924 27.99 9.433 29.6 5.563 63.37-11.186 89.54s-46.297 43.96-77.324 45.52c-13.06.66-26.651-1.59-37.542-8.82-10.892-7.24-18.563-20.07-17.325-33.09.975-10.25 7.238-19.47 15.299-25.87 8.061-6.41 17.809-10.31 27.628-13.41-12.328-2.53-21.865-14.83-24.365-30.3zm309.994 72.06c2.009-10.49.346-21.64-4.632-31.09 9.731-7 14.382-20.23 11.659-32.08s-12.687-21.71-24.561-24.32a170.4 170.4 0 0 1-11.064 32.74c-9.794.73-21.299-4-30.426-11.62 2.823-9.26 4.911-18.75 6.175-27.65-12.928-3.32-27.662 2.35-35.031 13.48s-6.836 26.91.167 38.22a196.61 196.61 0 0 0-24.177 39c-4.969 10.62-9.016 21.82-10.17 33.49s.767 23.89 6.996 33.82c7.186 11.45 19.28 18.84 31.372 24.89 19.341 9.68 40.226 17.12 61.84 17.92s44.101-5.64 59.661-20.66c4.66-4.5 8.72-9.85 10.52-16.07 2.28-7.92.7-16.38-.96-24.46-1.94-9.45-4.13-19.24-10.06-26.84-7.99-10.23-21.16-14.62-37.309-18.77z" fill="#ee5274"/><path d="M525.025 498.352c-.828-2.813-3.803-4.151-5.512-6.394-.531-.526-1.617-1.869-1.95-2.278l-.066-.084c-11.428-16.017-9.546-31.661 2.173-43.971 5.496-5.517-2.896-13.924-8.443-8.445-15.742 14.19-19.272 40.071-6.04 57.072 2.689 3.764 6.116 6.937 10 9.443 2.097 1.603 4.856 2.417 7.265.983 2.188-1.248 3.198-3.914 2.573-6.326zm29.689 7.351c-4.611-.83-10.648-3.337-14.527.381-4.327 4.04-1.059 11.94 4.864 11.745 4.665.415 11.045 1.902 14.017-2.795 2.289-3.715-.434-8.268-4.354-9.331zm122.937-215.072c-11.573-14.501-39.796-10.528-52.836.497-2.869 2.575-6.999 5.249-7.17 9.45-.173 5.219 6.776 8.097 10.353 4.288 10.387-10.698 21.701-13.594 36.725-8.557 2.55.659 2.11 1.53 7.513 2.531 4.032.148 7.23-4.563 5.415-8.209zm302.246 53.482c-8.066-17.211-30.757-27.659-48.521-19.889-5.565 3.83-.885 13.101 5.528 11.094 11.381-2.939 24.078 2.036 29.92 12.49 2.41 4.542 1.354 2.311 3.323 8.303.833 2.943 2.1 6.229 5.325 7.149 10.961 1.469 7.915-13.223 4.425-19.147zm81.523 121.282c-1.48-1.938-2.38-4.761-4.95-5.446-3.84-1.196-7.37 3.402-5.24 6.804 2.33 2.816 3.72 7.103 7.23 8.563 2.28.677 4.88-.806 5.47-3.108.71-2.6-1.29-4.717-2.51-6.813zm6.46 30.772c-2.25-6.296-12.32-4.21-12.08 2.431-.6 5.492-3.78 14.113-11.82 20.666-.66.573-1.33 1.141-2.01 1.683l-.57.437c-.09.066-.17.134-.26.2-.26.127-2.13 1.419-2.5 2.129-1.27 1.447-1.59 3.861-.72 5.584 4.78 8.832 16.14-1.817 20.38-6.483 5.73-7.241 11.23-17.239 9.58-26.647zM765.759 1054.02c-7.653-4.43-14.432 7.17-6.836 11.69 2.691 1.41 10.759 11.74 11.737 16.92 3.817 12.11 1.761 9.58 3.512 16.56 1.253 3.55 6.292 4.44 8.855 1.76 7.837-16.22-3.701-37.19-17.268-46.93zm3.436 63.03c-4.402 10.45 8.329 17.12 12.562 5.92 4.8-9.42-8.98-15.93-12.562-5.92zm232.595 74.02c-5.881-2.88-11.468 5.51-6.705 9.95 9.135 8.02 7.395 19.49 1.037 27.39-7.294 5.59 1.346 18.44 11.618 5.3 10.69-12.27 7.62-33.82-5.95-42.64zm-24.436-408.295c-3.712-1.849-8.473 1.394-8.335 5.499-1.077 10.767-6.435 34.987-12.576 50.311-1.511 5.22-4.791 10.347-5.036 15.758.283 3.914 5.133 6.16 8.422 4.137 6.725-7.532 8.915-18.619 12.385-27.995 3.707-12.079 6.465-24.453 8.16-36.976.682-3.817 1.6-9.107-3.02-10.734zm2.168-39.409c-2.176 5.562-7.174 16.732 1.692 18.645 4.501.714 7.391-4.204 8.873-7.782.889-3.276 3.311-6.477 2.825-9.948-.547-7.256-11.729-7.943-13.39-.915z" fill="#fff9ef"/><g fill="#4c1433"><path d="M560.786 822.326a4.75 4.75 0 0 1-.519-.029c-22.305-2.342-42.201-9.983-57.538-22.103-17.578-13.885-28.717-33.526-30.554-53.884-2.857-31.534 17.934-63.92 49.444-77.001 28.36-11.759 62.907-8.387 92.406 9.041 2.342 1.386 3.116 4.405 1.736 6.748s-4.396 3.116-6.747 1.736c-26.446-15.626-58.481-18.853-83.619-8.426-27.635 11.471-45.891 39.653-43.41 67.018 1.597 17.678 11.384 34.823 26.851 47.039 13.869 10.965 32.01 17.891 52.46 20.041a4.92 4.92 0 0 1 4.38 5.411 4.92 4.92 0 0 1-4.89 4.409zm259.399-1.235c-21.536 0-43.592-10.879-56.106-29.399-15.971-23.628-15.899-57.769.173-83.023 15.136-23.776 43.135-39.33 73.073-40.586 27.519-1.139 56.187 9.466 78.612 29.164a4.92 4.92 0 0 1 .447 6.949 4.93 4.93 0 0 1-6.949.447c-20.54-18.039-46.688-27.735-71.696-26.72-26.769 1.126-51.743 14.934-65.176 36.037-14.033 22.045-14.168 51.743-.327 72.221 14.418 21.314 43.548 30.809 66.344 21.603 2.526-1.019 5.391.198 6.412 2.717 1.019 2.525-.198 5.392-2.718 6.411-7.008 2.833-14.514 4.179-22.089 4.179zm-282.2-277.535c-22.237.005-44.336-9.985-58.019-26.687-16.092-19.645-20.088-47.963-9.955-70.47 10.417-23.138 35.882-38.653 60.587-36.849a4.92 4.92 0 0 1 4.554 5.266c-.196 2.717-2.538 4.776-5.266 4.554-20.632-1.424-42.11 11.571-50.892 31.069-8.637 19.184-5.184 43.37 8.59 60.188 13.327 16.275 35.95 25.147 57.629 22.672 21.248-2.449 41.081-15.141 53.062-33.95a4.94 4.94 0 0 1 6.799-1.511 4.93 4.93 0 0 1 1.511 6.802c-13.557 21.29-36.079 35.661-60.246 38.44a72.48 72.48 0 0 1-8.354.476zm184.954 13.562c-33.444 0-64.704-25.014-71.74-57.809a4.92 4.92 0 0 1 3.78-5.847c2.679-.591 5.281 1.126 5.848 3.78 6.112 28.499 34.915 50.853 63.94 49.997 29.14-.942 56.316-25.167 60.582-54.008.4-2.689 2.886-4.531 5.594-4.151 2.688.4 4.549 2.9 4.15 5.594-5.01 33.892-35.767 61.304-70.008 62.406l-2.146.038z"/><path d="M818.039 553.396c-17.396 0-34.704-7.989-45.477-21.903a4.93 4.93 0 0 1 .881-6.909c2.158-1.66 5.241-1.276 6.91.88 11.427 14.763 32.694 21.588 50.58 16.221 2.612-.774 5.352.698 6.131 3.304s-.697 5.348-3.304 6.132c-5.126 1.538-10.43 2.275-15.721 2.275z"/><path d="M876.43 570.185c-6.758 0-13.462-1.116-19.787-3.397-19.765-7.126-34.279-25.455-36.117-45.606-.245-2.707 1.751-5.102 4.458-5.352 2.747-.27 5.107 1.751 5.354 4.458 1.471 16.159 13.662 31.471 29.643 37.239 15.443 5.55 34.421 2.529 48.382-7.715 13.409-9.854 22.605-26.263 24.586-43.894.302-2.704 2.726-4.66 5.449-4.343 2.702.308 4.645 2.746 4.342 5.449-2.289 20.31-12.962 39.273-28.548 50.724-11.109 8.161-24.527 12.437-37.762 12.437zm-243.891-25.509a62.04 62.04 0 0 1-7.268-.428c-15.611-1.852-30.432-9.757-40.662-21.7a4.91 4.91 0 0 1 .534-6.939c2.068-1.77 5.175-1.539 6.939.534 8.648 10.08 21.166 16.76 34.353 18.323 13.177 1.567 26.923-2.005 37.681-9.791 2.194-1.593 5.276-1.102 6.877 1.105a4.93 4.93 0 0 1-1.105 6.878c-10.768 7.791-24.061 12.018-37.349 12.018z"/><path d="M953.081 547.999c-9.445 0-18.9-2.232-27.216-6.666a4.93 4.93 0 0 1-2.03-6.665 4.94 4.94 0 0 1 6.666-2.029c13.048 6.958 29.472 7.381 42.856 1.096s23.551-19.184 26.537-33.675c.546-2.659 3.126-4.363 5.816-3.828 2.67.549 4.38 3.155 3.83 5.819-3.6 17.468-15.859 33.025-32 40.6-7.607 3.574-16.033 5.348-24.459 5.348z"/><path d="M1041.67 553.18c-19.35 0-38.73-8.648-50.769-24.09-1.669-2.146-1.289-5.243.856-6.916a4.93 4.93 0 0 1 6.916.857c14.357 18.428 42.367 25.474 63.747 16.029 21.37-9.447 35.02-34.887 31.07-57.924-3.96-23.031-25.3-42.466-48.61-44.246a4.92 4.92 0 0 1-4.53-5.285c.21-2.712 2.49-4.717 5.29-4.535 28.05 2.141 52.8 24.672 57.56 52.403 4.75 27.735-11.06 57.224-36.8 68.599-7.83 3.454-16.28 5.108-24.73 5.108zM536.806 437.169a4.93 4.93 0 0 1-4.544-3.021c-6.868-16.399-5.896-35.516 2.591-51.142 8.494-15.62 24.009-26.835 41.505-29.995 2.707-.496 5.238 1.298 5.723 3.973a4.93 4.93 0 0 1-3.972 5.723c-14.371 2.593-27.63 12.172-34.598 25.003-6.974 12.831-7.801 29.164-2.16 42.63 1.048 2.51-.135 5.396-2.64 6.449-.626.26-1.27.38-1.905.38z"/><path d="M550.749 370.021c-2.342 0-4.416-1.673-4.844-4.059-8.074-45.102 20.815-93.286 64.401-107.416s95.259 7.936 115.179 49.205a4.92 4.92 0 0 1-2.294 6.573c-2.443 1.184-5.386.154-6.574-2.293-17.867-36.994-64.205-56.785-103.271-44.116-39.079 12.668-64.983 55.874-57.745 96.315.481 2.675-1.304 5.234-3.981 5.715a4.89 4.89 0 0 1-.871.076z"/><path d="M697.831 338.969c-.764 0-1.54-.178-2.266-.553a4.93 4.93 0 0 1-2.101-6.641c9.084-17.483 26.062-30.126 45.414-33.815 19.373-3.699 39.792 1.822 54.667 14.74 2.055 1.784 2.275 4.892.492 6.945-1.781 2.063-4.907 2.284-6.945.491-12.437-10.797-30.217-15.592-46.368-12.5-16.172 3.083-30.927 14.072-38.517 28.679a4.93 4.93 0 0 1-4.376 2.654z"/><path d="M757.559 306.178c-2.683 0-4.881-2.15-4.924-4.844-.413-24.685 13.11-48.646 34.453-61.044 21.345-12.407 48.859-12.292 70.097.294 2.342 1.385 3.111 4.406 1.726 6.747-1.38 2.342-4.397 3.121-6.747 1.726-17.94-10.624-42.106-10.719-60.131-.255-18.021 10.476-29.9 31.522-29.549 52.369a4.93 4.93 0 0 1-4.843 5.007h-.082z"/><path d="M964.267 301.499a5.28 5.28 0 0 1-.308-.011c-2.717-.167-4.781-2.504-4.612-5.217 1.616-26.196-17.877-52.292-43.452-58.173-25.542-5.868-54.509 9.079-64.498 33.351-1.038 2.517-3.909 3.704-6.43 2.679-2.515-1.034-3.713-3.914-2.678-6.43 11.739-28.529 45.78-46.096 75.808-39.199 30.069 6.911 52.984 37.589 51.081 68.377-.16 2.612-2.329 4.623-4.911 4.623z"/><path d="M1004.57 396.501c-.65 0-1.3-.125-1.93-.394a4.94 4.94 0 0 1-2.6-6.469c9.31-21.738 4.26-48.732-12.255-65.652s-43.395-22.617-65.335-13.845c-2.519 1.004-5.39-.222-6.401-2.747s.222-5.392 2.747-6.401c25.542-10.215 56.821-3.578 76.04 16.116 19.214 19.685 25.084 51.104 14.264 76.405a4.93 4.93 0 0 1-4.53 2.987z"/><path d="M1062.54 435.837a4.9 4.9 0 0 1-2.1-.477 4.92 4.92 0 0 1-2.34-6.559c7.09-14.948 5.25-33.94-4.56-47.251-9.83-13.312-27.41-20.7-43.8-18.325-2.74.376-5.19-1.485-5.58-4.173-.39-2.694 1.48-5.189 4.17-5.579 19.86-2.847 41.21 6.073 53.13 22.229 11.91 16.149 14.14 39.186 5.54 57.321-.84 1.776-2.61 2.814-4.46 2.814zM657.054 378h-.091c-13.631.048-29.698 8.772-31.892 21.7-1.365 8.037 2.334 10.446 3.545 11.24 7.354 4.774 23.994 2.221 35.633-5.469 3.462-2.289 11.369-8.421 10.046-15.938C672.458 379.15 661.699 378 657.054 378zm-18.122 45.227c-5.882.005-11.369-1.222-15.692-4.04-3.858-2.511-10.014-8.604-7.883-21.141 3.126-18.392 24.013-29.837 41.572-29.894h.135c14.476 0 24.786 7.525 26.927 19.668 1.65 9.341-3.569 18.767-14.313 25.871-8.574 5.664-20.281 9.536-30.746 9.536zm319.347-6.354c-10.012 0-21.613 6.127-25.763 17.665h-.006c-1.865 5.189-1.24 9.084 1.92 11.898 6.352 5.665 21.622 6.122 32.058.966 4.762-2.356 10.316-6.723 9.744-14.158-.957-12.447-9.725-15.472-14.866-16.164-1.004-.135-2.038-.207-3.087-.207zm-8.05 44.014c-8.797 0-17.103-2.413-22.354-7.097-6.228-5.555-7.873-13.577-4.626-22.59 6.506-18.092 25.18-25.816 39.435-23.883 13.356 1.804 22.311 11.451 23.369 25.172.765 9.93-4.776 18.584-15.192 23.738-6.325 3.132-13.635 4.66-20.632 4.66zm-255.634 10.904c-.226 0-.458-.015-.693-.048-2.693-.38-4.569-2.872-4.189-5.564 2.323-16.487 9.873-31.18 21.263-41.374 12.527-11.217 29.284-16.299 44.821-13.607 16.656 2.886 31.006 15.164 35.7 30.55.799 2.601-.669 5.352-3.27 6.145-2.616.808-5.357-.673-6.146-3.27-3.641-11.922-14.881-21.455-27.967-23.719-12.398-2.15-26.426 2.159-36.569 11.239-9.658 8.647-16.077 21.224-18.079 35.412a4.93 4.93 0 0 1-4.871 4.236z"/><path d="M836.615 467.751a4.93 4.93 0 0 1-4.171-2.293c-6.549-10.365-18.206-17.468-30.427-18.536-12.207-1.077-24.936 3.92-33.185 12.994-1.831 2.016-4.943 2.156-6.959.333-2.009-1.833-2.159-4.945-.332-6.96 10.283-11.297 26.139-17.505 41.332-16.178 15.221 1.327 29.74 10.176 37.902 23.085a4.93 4.93 0 0 1-1.534 6.795 4.91 4.91 0 0 1-2.626.76z"/><path d="M812.856 445.913c-1.808 0-3.544-.996-4.409-2.722-1.218-2.428-.232-5.391 2.202-6.609 2.678-1.335 4.376-4.991 3.953-8.493-.434-3.578-2.742-7.171-6.334-9.858-3.116-2.328-7.205-4.093-12.869-5.56-6.73-1.74-12.048-2.145-16.723-1.289-5.348.977-9.85 3.857-12.038 7.705a4.94 4.94 0 0 1-6.717 1.842 4.93 4.93 0 0 1-1.844-6.719c3.614-6.344 10.649-11.023 18.825-12.513 6.136-1.135 12.792-.669 20.959 1.441 4.371 1.131 10.82 3.108 16.303 7.206 5.738 4.289 9.46 10.325 10.219 16.563.924 7.675-2.913 15.274-9.329 18.487-.707.35-1.457.519-2.198.519zm50.214-110.379c-8.994 0-18.863 2.721-25.192 7.536-2.664 2.025-5.727 5.271-5.217 9.244 1.447 11.325 16.732 16.259 30.712 14.485 10.565-1.342 22.401-6.907 20.983-18.17-.645-5.112-3.536-8.68-8.835-10.907-3.54-1.486-7.882-2.188-12.451-2.188zm-5.257 41.465c-16.496 0-32.886-7.536-34.926-23.436-.86-6.736 2.342-13.249 9.028-18.333 12.383-9.411 33.655-12.373 47.42-6.588 8.464 3.55 13.715 10.215 14.793 18.756 1.886 14.966-9.975 26.692-29.514 29.173a54.33 54.33 0 0 1-6.801.428zM520.9 678.062c-2.381 0-4.476-1.732-4.858-4.156-6.641-42.052-11.196-93.761-12.508-141.869-.072-2.717 2.073-4.983 4.791-5.059 2.654-.029 4.981 2.068 5.059 4.789 1.298 47.705 5.81 98.952 12.383 140.601a4.92 4.92 0 0 1-4.092 5.631c-.26.044-.519.063-.775.063zm42.829-10.253c-2.548 0-4.702-1.962-4.905-4.545l-1.212-15.615a4.92 4.92 0 0 1 2.674-4.768l14.774-7.531c-2.799-1.428-5.871-2.342-9.05-2.654-2.536-.249-4.46-2.395-4.439-4.943.114-13.683 10.762-26.28 24.238-28.674 2.66-.49 5.238 1.312 5.708 3.987.477 2.679-1.308 5.232-3.987 5.709-7.449 1.322-13.769 7.647-15.586 14.976 5.992 1.476 11.532 4.51 15.951 8.791a4.93 4.93 0 0 1 1.449 4.27 4.92 4.92 0 0 1-2.636 3.656l-19.021 9.695.958 12.342c.211 2.711-1.819 5.078-4.531 5.289a5.05 5.05 0 0 1-.385.015zm276.557 6.463a4.93 4.93 0 0 1-4.386-2.673c-3.487-6.791-3.924-15.096-1.168-22.214a4.96 4.96 0 0 1 1.707-2.213c4.607-3.333 8.531-5.829 12.158-7.998-2.832-1.928-5.612-3.16-8.113-4.136a4.92 4.92 0 0 1-3.069-5.42c1.958-11.422 10.105-21.728 20.761-26.263a4.92 4.92 0 0 1 6.46 2.601c1.067 2.502-.101 5.396-2.601 6.46-6.483 2.759-11.673 8.487-13.962 15.164 3.89 1.841 8.301 4.54 12.567 8.906a4.92 4.92 0 0 1 1.351 4.121 4.93 4.93 0 0 1-2.429 3.593c-5.137 2.938-9.917 5.67-16.092 10.052-1.241 4.222-.823 8.926 1.192 12.845a4.93 4.93 0 0 1-2.129 6.631 4.9 4.9 0 0 1-2.247.544zm-32.081 241.519c-66.975 0-133.895-4.709-199.313-9.316-12.339-.865-26.326-1.851-38.454-8.498-12.73-6.974-22.753-20.073-28.236-36.891-4.757-14.607-5.717-29.799-6.647-44.492-.173-2.717 1.89-5.055 4.603-5.228 2.717-.139 5.055 1.886 5.228 4.603.89 14.086 1.814 28.645 6.185 42.067 4.698 14.423 13.082 25.537 23.599 31.304 10.24 5.612 23.085 6.517 34.416 7.315 95.753 6.733 194.771 13.706 292.015 5.704 16.967-1.395 34.642-3.559 47.863-13.154 14.504-10.518 21.978-28.619 28.394-46.256a1090.02 1090.02 0 0 0 62.522-289.328c.21-2.711 2.56-4.756 5.28-4.534a4.92 4.92 0 0 1 4.54 5.285 1099.86 1099.86 0 0 1-63.089 291.944c-6.935 19.074-15.106 38.71-31.867 50.864-15.274 11.084-34.478 13.489-52.835 14.999-31.303 2.574-62.766 3.612-94.204 3.612z"/><path d="M597.934 676.835a4.92 4.92 0 0 1-.798-.063 4.93 4.93 0 0 1-4.069-5.655c2.549-15.621 2.285-31.409-.789-46.924-.97-4.911-2.496-11.21-5.698-16.351-3.002-4.82-7.278-8.133-11.73-9.091-4.835-1.025-10.465.597-15.073 4.357-4.088 3.333-7.459 8.196-10.306 14.866-6.219 14.525-7.32 30.909-3.107 46.145.726 2.622-.812 5.335-3.434 6.06-2.587.726-5.329-.803-6.059-3.434-4.806-17.381-3.551-36.075 3.544-52.642 3.487-8.171 7.786-14.265 13.134-18.626 6.897-5.632 15.606-8.012 23.363-6.354 7.056 1.51 13.626 6.44 18.026 13.514 4.045 6.498 5.867 13.909 7.002 19.641 3.3 16.675 3.589 33.642.852 50.427a4.93 4.93 0 0 1-4.858 4.13zm210.744 6.657h-.01a4.92 4.92 0 0 1-4.914-4.935c.023-12.529.047-25.48 2.572-38.273 2.901-14.653 8.936-27.008 17.453-35.733 4.333-4.434 13.244-11.729 24.556-10.715 7.546.679 14.74 5.133 19.738 12.217 3.65 5.175 6.132 11.576 7.814 20.141 3.108 15.856 2.492 32.472-1.793 48.059-.717 2.625-3.439 4.155-6.05 3.444a4.92 4.92 0 0 1-3.444-6.051c3.878-14.13 4.439-29.187 1.621-43.558-1.403-7.156-3.376-12.354-6.199-16.36-3.276-4.647-7.974-7.666-12.571-8.08-5.234-.466-11.322 2.365-16.622 7.787-7.179 7.352-12.311 17.986-14.837 30.759-2.341 11.855-2.365 24.326-2.39 36.382-.004 2.718-2.207 4.916-4.924 4.916zM664.242 1091.52c-21.41 0-42.572-5.99-59.89-17.41-26.095-17.21-43.087-46.62-44.347-76.764-1.457-34.703 16.194-66.055 35.484-94.771 1.519-2.256 4.574-2.861 6.833-1.342a4.93 4.93 0 0 1 1.342 6.833c-18.352 27.322-35.155 57.001-33.819 88.867 1.13 27.037 16.434 53.457 39.933 68.957 22.598 14.9 52.479 19.62 79.915 12.61 2.626-.68 5.314.92 5.987 3.56a4.93 4.93 0 0 1-3.553 5.99c-9.143 2.33-18.541 3.47-27.885 3.47zm22.826-37.18h-.13c-30.976-.8-55.811-12.16-68.142-31.18-10.802-16.66-12.352-40.15-4.146-62.85 7.209-19.929 20.036-36.661 32.443-52.84 1.66-2.154 4.747-2.563 6.907-.913 2.16 1.658 2.567 4.746.913 6.906-11.955 15.587-24.311 31.698-31.001 50.195-7.16 19.818-5.987 40.062 3.146 54.142 14.967 23.08 47.04 26.36 60.13 26.69a4.93 4.93 0 0 1 4.8 5.05c-.072 2.68-2.26 4.8-4.92 4.8z"/><path d="M690.888 1100.3c-.625 0-1.26-.12-1.871-.37a4.93 4.93 0 0 1-2.684-6.43c6.728-16.37 4.603-36.37-5.415-50.96a4.92 4.92 0 0 1 1.27-6.84c2.251-1.54 5.314-.98 6.848 1.27 11.85 17.26 14.366 40.92 6.406 60.27-.784 1.91-2.621 3.06-4.554 3.06zm35.491-44.01a4.93 4.93 0 0 1-4.896-4.43c-.952-9.44-5.266-17.82-11.831-23-6.872-5.42-16.399-6.94-23.724-3.78-7.556 3.26-12.364 11.7-10.946 19.2a4.92 4.92 0 0 1-3.924 5.75c-2.66.52-5.247-1.24-5.753-3.92-2.279-12.04 4.911-24.97 16.718-30.07 10.701-4.63 23.945-2.63 33.727 5.09 8.648 6.82 14.312 17.66 15.534 29.74a4.93 4.93 0 0 1-4.405 5.4c-.169.01-.336.02-.5.02zm-26.941 66.98c-6.472 0-12.942-1.69-18.569-5.04-10.263-6.1-17.039-17.3-17.678-29.23-.144-2.72 1.938-5.03 4.655-5.18 2.66-.14 5.036 1.93 5.184 4.65.458 8.56 5.512 16.92 12.871 21.29 7.373 4.39 17.126 4.82 24.849 1.14 7.738-3.69 13.534-11.54 14.77-20.02.388-2.69 2.865-4.6 5.582-4.16a4.92 4.92 0 0 1 4.16 5.58c-1.721 11.82-9.487 22.35-20.275 27.49-4.872 2.32-10.209 3.48-15.549 3.48z"/><path d="M706.406 1204.92c-8.58 0-17.111-1.17-25.296-3.6-18.709-5.56-31.78-17.41-34.97-31.71-2.639-11.88 1.559-25.23 11.23-35.72 9.951-10.8 24.071-17.24 38.739-17.69 14.721-.35 29.155 5.13 39.74 15.3 1.962 1.88 2.025 5 .145 6.96-1.886 1.97-5.008 2.03-6.964.15-8.557-8.22-20.638-12.98-32.622-12.56-11.864.36-23.748 5.78-31.794 14.51-7.377 8.01-10.769 18.31-8.854 26.91 3.549 15.94 22.449 22.71 28.153 24.4 29.506 8.77 64.165-.78 86.236-23.74 21.584-22.46 30.731-56.06 23.864-87.7-3.939-18.11-12.687-32.75-24.643-41.2-13.577-9.59-31.939-10.34-43.654-1.78a4.92 4.92 0 0 1-6.882-1.08c-1.601-2.19-1.126-5.27 1.072-6.88 15.029-10.98 38.229-10.26 55.148 1.7 13.972 9.87 24.124 26.62 28.586 47.15 7.552 34.8-2.562 71.82-26.392 96.62-18.455 19.21-44.866 29.96-70.842 29.96zm214.277-109.95a4.98 4.98 0 0 1-1.726-.31c-2.55-.95-3.839-3.79-2.886-6.34 22.181-59.28 5.18-130.659-41.346-173.574-2-1.846-2.125-4.962-.283-6.958 1.846-2.006 4.958-2.116 6.959-.284 49.392 45.559 67.441 121.326 43.894 184.266-.741 1.98-2.616 3.2-4.612 3.2zm29.032 13.69a5.01 5.01 0 0 1-2.02-.43 4.93 4.93 0 0 1-2.463-6.52c27.611-61.2 20.286-136.085-18.656-190.777-1.576-2.218-1.061-5.29 1.156-6.868s5.289-1.063 6.867 1.154c40.937 57.49 48.631 136.211 19.607 200.541a4.92 4.92 0 0 1-4.491 2.9z"/><path d="M945.93 1111.33c-5.391 0-10.783-1.05-15.741-3.15-10.387-4.41-18.761-13.42-22.402-24.09-.879-2.58.496-5.38 3.068-6.26a4.92 4.92 0 0 1 6.253 3.07c2.751 8.07 9.08 14.88 16.928 18.22 7.845 3.32 17.145 3.17 24.864-.47a4.92 4.92 0 0 1 6.55 2.37c1.154 2.46.097 5.4-2.365 6.55-5.339 2.51-11.249 3.76-17.155 3.76zm-34.739 23.09a4.09 4.09 0 0 1-.775-.07c-12.922-2.05-24.48-11.73-28.754-24.09-4.276-12.37-1.169-27.12 7.723-36.71s23.378-13.8 36.022-10.48a4.93 4.93 0 0 1 3.506 6.02c-.693 2.63-3.377 4.2-6.016 3.51-9.244-2.43-19.805.64-26.288 7.64-6.493 7-8.758 17.77-5.637 26.8 3.122 9.02 11.552 16.09 20.983 17.59a4.92 4.92 0 0 1 4.094 5.63 4.93 4.93 0 0 1-4.858 4.16zm40.081 7.63c-6.704 0-13.491-1.5-19.675-4.5a4.92 4.92 0 0 1-2.28-6.58c1.188-2.44 4.131-3.47 6.58-2.28 9.82 4.77 21.507 4.7 30.52-.15 9.335-5.02 15.371-15.14 15.029-25.18-.346-10.18-7.696-19.75-17.092-22.26-2.631-.71-4.19-3.4-3.487-6.03a4.95 4.95 0 0 1 6.025-3.49c13.645 3.64 23.902 16.87 24.393 31.45.471 13.69-7.647 27.43-20.199 34.18-5.987 3.23-12.855 4.84-19.814 4.84z"/><path d="M964.757 1272.52c-12.273 0-24.345-1.86-35.271-3.93-12.577-2.39-27.221-5.71-40.475-12.21-10.143-4.97-23.945-14.09-32.088-29.27-9.031-16.86-9.464-39.01-1.183-60.79 7.233-19.04 19.468-35.19 31.304-50.8 1.629-2.17 4.718-2.61 6.897-.96 2.169 1.64 2.597 4.74.951 6.9-11.412 15.07-23.214 30.64-29.948 48.36-7.266 19.11-7.025 38.29.66 52.63 6.901 12.88 18.896 20.75 27.744 25.08 12.173 5.97 25.447 9 37.976 11.39 16.851 3.19 36.501 5.84 54.574 1.35 18.542-4.64 33.312-17.35 37.632-32.4 4.9-17.11-3.66-37.8-20.37-49.2-14.808-10.1-35.031-13.61-56.967-9.88-20.926 3.56-36.67 13.86-42.119 27.55-1.001 2.53-3.872 3.77-6.392 2.75a4.91 4.91 0 0 1-2.756-6.39c9.696-24.38 37.927-31.63 49.613-33.62 24.45-4.16 47.241-.09 64.171 11.45 20.11 13.73 30.32 38.98 24.28 60.05-5.35 18.65-22.48 33.69-44.706 39.24-7.757 1.94-15.683 2.7-23.527 2.7z"/><path d="M976.161 1165.13c-.298 0-.601-.02-.905-.08-2.673-.49-4.439-3.07-3.943-5.74 1.38-7.43-.091-15.39-4.036-21.84a4.92 4.92 0 0 1 1.631-6.77c2.308-1.43 5.348-.68 6.767 1.63 5.199 8.5 7.142 18.99 5.323 28.78-.441 2.37-2.51 4.02-4.837 4.02zm124.669-262.334c-.31 0-.63-.029-.95-.091-2.66-.521-4.41-3.107-3.89-5.776 13.05-66.825-19.89-140.687-78.33-175.621-2.33-1.395-3.09-4.42-1.7-6.753a4.93 4.93 0 0 1 6.75-1.703c61.88 36.993 96.77 115.202 82.95 185.961a4.93 4.93 0 0 1-4.83 3.983zm29.01-4.722c-.25 0-.5-.019-.75-.057a4.92 4.92 0 0 1-4.12-5.608c12.03-79.052-26.46-164.594-93.59-208.027a4.93 4.93 0 0 1-1.47-6.81 4.93 4.93 0 0 1 6.81-1.462c70.29 45.471 110.58 135.026 97.98 217.78-.37 2.437-2.47 4.184-4.86 4.184z"/><path d="M1113.98 906.379c-8.2 0-16.4-2.472-23.12-7.2a4.92 4.92 0 0 1-1.19-6.857 4.91 4.91 0 0 1 6.86-1.194c7.7 5.42 18.02 6.901 26.93 3.863 3.15-1.074 6.56-3.348 6.64-5.806a4.93 4.93 0 0 1 4.92-4.78h.15c2.71.082 4.85 2.352 4.78 5.069-.23 7.671-7.03 12.696-13.31 14.837-4.07 1.39-8.36 2.068-12.66 2.068zm-9.89 27.239c-10.33 0-20.37-5.618-25.75-14.447-5.5-9.037-5.76-20.853-.68-30.115s15.19-15.39 25.76-15.617h.1c2.68 0 4.87 2.136 4.92 4.82.06 2.721-2.1 4.972-4.81 5.03-7.01.149-13.97 4.371-17.33 10.503-3.37 6.137-3.19 14.274.45 20.257 3.64 5.973 10.64 9.831 17.78 9.715 2.96-.106 4.98 2.087 5.05 4.804.06 2.723-2.09 4.978-4.81 5.046l-.68.004zm20.93-2.404c-.55 0-1.1-.015-1.65-.049-2.72-.148-4.8-2.476-4.64-5.188.14-2.718 2.46-4.771 5.19-4.641 10.34.596 20.74-7.094 23.25-17.107s-3.05-21.704-12.4-26.066a4.93 4.93 0 0 1-2.38-6.546c1.16-2.462 4.09-3.52 6.55-2.38 13.64 6.362 21.45 22.79 17.78 37.391-3.54 14.067-17.26 24.586-31.7 24.586z"/><path d="M1088.17 1008.31c-6.64 0-12.45-2.26-16.32-6.45-5.83-6.322-6.09-16.839-.57-23.448 3.67-4.395 9.51-6.55 15.16-6.194l-.38-5.829c-2.01 1.342-4.27 2.511-6.76 3.276-7.3 2.25-15.12.273-19.45-4.955-4.23-5.122-4.94-12.595-2-21.045a48.99 48.99 0 0 1 24.73-27.812c2.46-1.183 5.4-.169 6.58 2.28a4.92 4.92 0 0 1-2.27 6.578c-9.19 4.454-16.39 12.544-19.74 22.191-1.71 4.925-1.6 9.239.29 11.528 1.99 2.405 6.01 2.736 8.95 1.827 3.3-1.019 6.47-3.332 10.31-7.502a4.92 4.92 0 0 1 5.26-1.313 4.94 4.94 0 0 1 3.28 4.328l1.49 22.864c.12 1.852-.8 3.611-2.4 4.559a4.95 4.95 0 0 1-5.15-.077c-3.13-1.987-7.96-1.236-10.34 1.611s-2.26 7.733.26 10.461c2.38 2.578 6.78 3.736 11.74 3.097 7.9-1.011 15.28-5.935 19.25-12.852 3.97-6.909 4.5-15.763 1.38-23.098-1.07-2.501.1-5.391 2.61-6.454a4.92 4.92 0 0 1 6.45 2.607c4.3 10.108 3.57 22.314-1.9 31.852-5.47 9.531-15.64 16.32-26.54 17.72a30.92 30.92 0 0 1-3.92.25z"/><path d="M1117.63 1008.81c-6.03 0-11.75-2.48-15.21-6.82a4.93 4.93 0 0 1 .79-6.923 4.94 4.94 0 0 1 6.92.793c2.07 2.608 6.32 3.751 10.39 2.751 3.83-.938 7.62-3.449 11.58-7.681 4.61-4.938 7.72-10.349 8.98-15.639 1.38-5.799.5-11.831-2.35-16.126-1.5-2.27-.88-5.324 1.38-6.829 2.27-1.5 5.32-.88 6.83 1.385 4.39 6.628 5.75 15.318 3.72 23.849-1.68 7.056-5.51 13.813-11.37 20.084-5.3 5.676-10.68 9.116-16.44 10.526-1.73.42-3.49.63-5.22.63z"/><path d="M1150.94 997.692c-3.64 0-7.19-.923-10.18-2.833-2.29-1.462-2.96-4.506-1.5-6.795a4.92 4.92 0 0 1 6.79-1.504c4.36 2.759 10.64.898 14.2-2.517 4.8-4.593 6.45-11.7 7-16.852 1.79-16.942-5.56-34.881-18.72-45.701-2.1-1.728-2.4-4.835-.68-6.932a4.92 4.92 0 0 1 6.93-.677c15.89 13.067 24.42 33.891 22.26 54.35-1.03 9.728-4.48 17.66-9.98 22.926-4.46 4.276-10.41 6.535-16.12 6.535zm-734.794-80.079a4.96 4.96 0 0 1-1.087-.12c-19.016-4.27-40.566-9.118-58.717-20.28-20.588-12.658-33.742-32.902-34.32-52.836-.654-22.695 13.044-44.539 41.885-66.787 33.853-26.104 71.567-46.197 112.104-59.722 2.574-.865 5.373.534 6.23 3.112s-.53 5.367-3.112 6.228c-39.49 13.178-76.234 32.752-109.21 58.183-26.163 20.18-38.61 39.383-38.047 58.697.573 19.907 15.683 36.162 29.626 44.737 16.755 10.301 36.564 14.755 55.726 19.059a4.93 4.93 0 0 1 3.721 5.887c-.514 2.289-2.548 3.842-4.799 3.842zm15.696-34.77c-.394 0-.793-.049-1.188-.144-12.335-3.054-26.316-6.517-37.686-14.929-11.013-8.131-20.381-23.272-16.491-38.748 2.81-11.173 11.491-19.036 19.402-25.533a377.09 377.09 0 0 1 79.896-50.243c2.477-1.148 5.401-.081 6.54 2.386 1.15 2.462.082 5.392-2.384 6.541-27.861 12.975-54.038 29.442-77.805 48.934-6.694 5.493-14.019 12.052-16.097 20.32-2.766 10.993 4.694 22.44 12.793 28.423 9.791 7.242 22.2 10.316 34.199 13.288 2.64.654 4.251 3.323 3.597 5.963-.559 2.242-2.569 3.742-4.776 3.742z"/><path d="M410.644 923.74c-1.823 0-3.569-1.01-4.424-2.755-1.198-2.439-.192-5.392 2.251-6.589a36.62 36.62 0 0 0 17.731-19.267c3.256-8.31 3.285-17.851.077-26.181a4.93 4.93 0 0 1 2.828-6.368c2.53-.956 5.386.284 6.367 2.829 4.078 10.599 4.04 22.742-.105 33.317s-12.365 19.504-22.561 24.51c-.698.341-1.438.504-2.164.504zm54.676-27.729c-.327 0-.664-.034-.995-.101-2.665-.549-4.382-3.15-3.833-5.815 2.179-10.609.611-20.805-4.304-27.965-5.358-7.816-15.323-11.73-23.139-9.139-8.31 2.761-13.594 11.451-18.712 20.877a4.93 4.93 0 0 1-6.68 1.977c-2.39-1.298-3.276-4.289-1.976-6.68 5.856-10.782 12.552-21.632 24.267-25.522 12.057-3.998 26.49 1.437 34.358 12.913 6.425 9.354 8.55 22.305 5.833 35.52-.481 2.333-2.53 3.935-4.819 3.935zm-39.376 52.925c-1.808 0-3.597-.144-5.348-.437-16.424-2.766-28.818-19.657-26.523-36.148a4.93 4.93 0 0 1 5.555-4.198c2.692.375 4.573 2.862 4.198 5.554-1.563 11.24 7.209 23.196 18.4 25.077 7.046 1.182 15.004-1.073 21.863-6.17 5.82-4.315 10.902-10.466 16.001-19.348a4.92 4.92 0 0 1 6.724-1.818c2.356 1.35 3.173 4.361 1.816 6.723-5.795 10.099-11.729 17.202-18.668 22.348-7.369 5.474-15.877 8.417-24.018 8.417z"/><path d="M484.477 974.118c-4.262 0-7.701-1.443-9.931-4.232-3.185-3.978-2.531-9.166-2.314-10.875.264-2.067.692-4.116 1.279-6.122-1.654.395-3.338.664-5.03.799-9.531.756-19.339-2.727-26.259-9.316-1.972-1.875-2.048-4.997-.173-6.964 1.891-1.966 5.002-2.038 6.964-.173 4.929 4.699 11.907 7.152 18.689 6.633 4.872-.386 9.608-2.333 13.418-5.411a39.06 39.06 0 0 1 4.675-4.819c1.903-1.664 4.751-1.601 6.597.125s2.078 4.569.544 6.58a33.51 33.51 0 0 1-4.723 5.016c-3.332 4.298-5.525 9.498-6.209 14.889-.322 2.558.097 3.314.232 3.482.365.452 2.038.876 5.126.182 8.133-1.812 15.226-6.175 19.473-11.964 4.54-6.196 5.843-14.342 3.328-20.759-2.563-6.515-9.651-11.181-15.976-10.502-2.728.264-5.113-1.713-5.382-4.42s1.712-5.117 4.42-5.381c10.869-1.101 21.882 5.953 26.105 16.702 3.78 9.633 2.034 21.195-4.55 30.178-5.718 7.806-14.697 13.405-25.272 15.76-1.776.394-3.458.592-5.031.592z"/><path d="M517.926 942.492c-1.962 0-3.819-1.183-4.583-3.116-.995-2.529.245-5.392 2.775-6.392 5.031-1.981 9.69-4.059 11.451-7.632 1.365-2.781.85-6.363.173-8.878-2.939-10.928-13.679-19.666-24.98-20.329-2.713-.16-4.785-2.487-4.627-5.204s2.376-4.838 5.205-4.626c15.59.909 29.855 12.518 33.914 27.6 1.597 5.949 1.304 11.409-.846 15.784-3.588 7.287-11.465 10.393-16.674 12.452-.597.23-1.207.341-1.808.341z"/><path d="M522.548 901.892c-.471 0-.958-.068-1.433-.212a4.93 4.93 0 0 1-3.28-6.147c1.957-6.43-.077-14.153-5.19-19.683-4.747-5.137-12.148-8.527-20.31-9.301-7.17-.669-15.004.451-23.944 3.457a4.93 4.93 0 0 1-6.238-3.103 4.93 4.93 0 0 1 3.101-6.236c10.268-3.449 19.421-4.742 28.014-3.92 10.696 1.015 20.147 5.424 26.611 12.418 7.44 8.05 10.339 19.525 7.382 29.235-.65 2.126-2.602 3.492-4.713 3.492zm59.221-347.504c-8.317-7.299-21.347-8.774-30.619-2.413-6.766 4.492-11.513 12.216-11.601 20.427-.048 6.159 9.008 7.394 10.609 1.436 2.147-10.777 9.627-15.079 18.926-11.759 3.695 1.897 1.966.837 5.022 3.679.066.073.125.151.189.226.442.664 1.496 2.151 1.995 2.722 2.872 3.5 8.547 3.314 10.876-.678 2.812-5.081-1.697-10.405-5.397-13.64zm285.192 15.563c-9.802-9.708-28.872-9.338-36.782 2.418-2.857 5.842 5.477 11.383 9.879 6.657 4.927-4.676 12.963-4.967 17.751.076 1.949 2.097 1.163 1.152 3.814 5.834 1.654 2.9 5.706 4.227 8.709 2.49 6.854-4.52 1.098-13.342-3.371-17.475zM521.113 714.632c-9.651.034-9.629 14.714 0 14.774 9.654-.033 9.632-14.714 0-14.774zm41.576-12.01c-9.652.033-9.63 14.713 0 14.774 9.653-.034 9.631-14.713 0-14.774zm-8.317 37.879c-9.652.034-9.63 14.714 0 14.774 9.653-.034 9.631-14.712 0-14.774zm249.45-24.022c-9.651.034-9.629 14.714 0 14.774 9.654-.033 9.632-14.712 0-14.774zm49.892-7.391c-9.652.034-9.632 14.713 0 14.774 9.653-.033 9.631-14.713 0-14.774zm-18.479 36.033c-9.651.033-9.63 14.713.002 14.774 9.652-.034 9.63-14.714-.002-14.774zm105.048-235.717c-9.874 0-19.521-4.141-26.284-11.407-1.855-1.991-1.745-5.107.246-6.959a4.93 4.93 0 0 1 6.96.245c5.327 5.733 13.46 8.873 21.285 8.176 7.791-.683 15.275-5.189 19.522-11.759 1.481-2.284 4.525-2.938 6.81-1.462a4.93 4.93 0 0 1 1.462 6.81c-5.955 9.2-16.021 15.264-26.938 16.221-1.019.091-2.044.135-3.063.135zm87.867-51.714c-1.69 0-3.34-.875-4.26-2.447-1.37-2.353-.57-5.367 1.78-6.734 5.28-3.068 7.59-9.719 8-14.924.53-6.689-1.21-13.696-2.89-20.478a4.93 4.93 0 0 1 3.6-5.962c2.59-.641 5.3.947 5.96 3.597 1.79 7.185 3.81 15.337 3.15 23.618-.78 9.961-5.59 18.434-12.86 22.661a4.92 4.92 0 0 1-2.48.669zm-307.531-98.456c-1.766 0-3.468-.947-4.352-2.616-3.684-6.93-10.432-12.196-18.044-14.081-7.633-1.88-16.044-.38-22.533 4.035-2.251 1.534-5.314.943-6.844-1.304s-.947-5.314 1.304-6.843c8.768-5.96 20.147-7.998 30.438-5.449s19.4 9.662 24.374 19.025a4.92 4.92 0 0 1-2.039 6.657 4.88 4.88 0 0 1-2.304.576zM617.53 507.211c-15.107 0-30.163-8.061-37.733-21.383-1.348-2.365-.521-5.371 1.846-6.713 2.376-1.346 5.377-.515 6.715 1.846 7.415 13.048 24.993 19.676 39.161 14.755 2.568-.884 5.372.476 6.266 3.046s-.475 5.375-3.044 6.265c-4.28 1.482-8.747 2.184-13.211 2.184zm76.536 190.818c-1.275 0-2.549-.489-3.515-1.476-2.848-2.899-6.076-6.19-8.211-10.475-2.664-5.352-2.846-11.273-.49-15.837 1.899-3.683 5.463-6.593 10.028-8.196 3.607-1.268 7.314-1.582 10.584-1.86 2.78-.256 5.093 1.774 5.325 4.487s-1.781 5.093-4.488 5.324c-2.818.241-5.732.49-8.156 1.342-2.155.755-3.809 2-4.54 3.42-.909 1.759-.698 4.413.553 6.93 1.437 2.884 3.973 5.468 6.424 7.968 1.905 1.943 1.877 5.059-.067 6.964-.956.939-2.202 1.409-3.447 1.409z"/></g><defs><linearGradient id="A" x1="-765.5" y1="-323" x2="983.5" y2="1119" gradientUnits="userSpaceOnUse"><stop stop-color="#b79a81"/><stop offset="1" stop-color="#ebd3c1"/></linearGradient></defs></svg>