<svg xmlns="http://www.w3.org/2000/svg" width="1500" height="1500" fill="none" xmlns:v="https://vecta.io/nano"><circle cx="750" cy="750" r="750" fill="url(#A)"/><path d="M1000.45 435.784l-4.33 144.765c-.886.411-46.193 279.627-46.193 279.627l-17.887 54.425c-3.674 11.18-7.788 23.011-16.996 30.338-7.29 5.802-16.766 7.932-25.925 9.638a501.87 501.87 0 0 1-112.144 8.084c-57.057.53-110.817-4.761-163.563-15.184-15.855-3.133-32.239-7.02-44.804-17.183-12.098-9.789-19.377-24.536-22.957-39.681s-3.793-30.856-3.988-46.417c.645-3.963-27.621-280.065-27.621-280.065-2.364-39.884-4.729-79.768-4.449-119.531 93.605 27.64 183.224 36.148 280.824 36.222 68.933.051 151.129-8.203 210.033-45.038z" fill="#e7d6be"/><path d="M506.724 562.733l6.366 92.427c-14.876 17.445-22.803 40.658-21.706 63.559s11.206 45.248 27.611 61.69c1.478 17.308 2.955 34.616 1.595 56.083 117.443 29.371 240.187 26.895 361.217 24.238 33.029-.725 66.353-1.487 98.487-9.16l32.616-268.623c-35.896 8.891-445.895 2.063-506.186-20.214z" fill="#f8a847"/><path d="M491.635 301.584c-11.605 30.63-15.516 122.539 8.023 137.52s153.356 51.79 295.093 43.548 198.055-37.891 209.589-51.618 38.06-87.855 9.06-128.196c-36.861-51.276-132.707-71.946-257.658-72.69s-241.792 12.539-264.107 71.436z" fill="#765d4a"/><path d="M505.809 582.299l4.595 35.498c-38.61 5.879-72.682 35.184-84.269 72.48s-.122 80.749 27.341 103.901c-4.462 9.552-12.677 17.287-21.504 19.009-35.334-33.9-49.817-87.97-36.158-134.992s54.854-84.919 109.995-95.896zm506.991 13.755c-3.64 12.874-6.23 26.044-7.26 42.417 26.12 13.358 49.66 34.235 59.77 61.771 10.1 27.537 3.89 62.051-22.94 79.983-.53 11.475 7.22 22.849 17.59 25.94 26.99-9.844 45.37-37.295 48.64-65.84s-6.98-57.509-23.77-80.825-39.72-41.546-72.03-63.446zm-415.874-54.155c-11.362 6.438-20.617 16.525-26.054 28.398l20.862 9.901c-8.552 4.95-16.654 10.676-24.074 17.082.258 9.857 1.87 19.678 4.372 31.037a70.88 70.88 0 0 1 41.714 5.613c6.434-27.26 3.091-56.721-16.82-92.031zm260.299 18.083c-14.641 7.597-25.768 21.67-29.786 37.669 8.371 2.383 16.627 5.163 24.732 8.328-7.347 4.767-14.695 9.533-22.137 15.499-2.27 9.972-.677 20.771 5.719 30.956 14.383-2.245 29.33-.785 43.006 4.204 5.779-26.97-.327-56.268-21.534-96.656zM746.449 1100c13.371 8.8 29.081 14 45.056 14.92l-.775 37.71c-21.764-2.13-42.402-8.95-61.625-18.6l-3.45 15.4c-15.722-2.42-29.138-7.95-38.558-17.53l3.456-23.06c-41.605-40.89-64.475-100.29-60.683-156.531 15.509.762 31.017 1.523 49.996 6.635-9.276 38.761 1.818 81.806 30.938 111.176 11.089-38.31 30.435-74.203 57.287-107.363l60.279-2.132c-37.255 39.286-66.77 85.885-81.921 139.375z" fill="#4c1433"/><path d="M596.878 540.13c-12.59 6.059-22.152 18.07-25.237 31.697 6.053 2.243 12.106 4.485 19.721 7.745-7.441 5.419-14.881 10.838-22.586 15.777-1.489 10.19-.753 20.698 2.502 31.734-10.419-.01-20.831 2.631-31.184 8.218-6.432-25.212-3.053-52.794 9.274-75.709 4.302-7.998 9.843-15.622 17.542-20.436s17.875-6.376 29.968.974zm257.436 18.494c-12.646 8.25-21.762 21.733-23.892 37.372l22.443 9.14c-7.902 4.322-15.137 9.864-20.594 15.577-1.92 10.043-.519 20.692 3.921 31.09-14.545 2.433-28.478 8.452-39.904 17.061-9.828-32.276-5.066-68.698 12.73-97.363 4.681-7.539 10.495-14.791 18.481-18.664s18.543-3.531 26.815 5.787zm208.156 245.22l24.6-16.224c3.06 2.73 3.92 7.166 3.96 11.265.13 14.463-8.38 28.675-21.19 35.387 6.97 4.64 11.29 8.289 12.95 13.347 1.71 5.211.1 11.247-3.64 15.255-3.75 4.006-9.4 6.006-14.88 5.739-2.75 7.756-12.04 10.926-19.33 7.914-12.92 6.614-27.71 7.368-41.04 3.226s-25.098-13.144-32.579-24.93c-.401-.476 6.841-2.489 6.841-2.489l11.608-72.685c4.876-5.969 12.92-9.187 20.56-8.229 2.14-12.311 11.76-21.473 22.97-23.378s23.32 3.565 29.3 13.237c-3.86 7.502-10.12 14.5-18.84 20.796-1.02 5.132.28 10.678 3.47 14.824s8.22 6.824 15.24 6.945zm-521.988 34.952l-16.007-3.309c-2.353-14.673-4.004-29.457-4.946-44.287-8.453-3.904-17.652-3.628-24.684.557-3.619-10.904-12.129-20.499-22.793-23.447s-22.894.914-29.93 9.451c5.41 5.332 9.651 11.495 13.437 17.925-3.942 10.258-13.517 17.093-23.786 17.893-3.859-5.608-8.683-10.919-9.967-14.939-10.467 7.588-14.382 22.97-8.818 34.639s19.982 18.307 34.962 12.998c.663 8.625 5.312 16.86 12.354 21.883s16.34 6.743 24.712 4.566c-3.218 3.461-7.294 5.975-11.126 8.74s-7.567 5.948-9.635 10.197-2.091 9.794 1.058 13.319c2.736 3.061 7.142 3.968 11.244 4.147 8.227.358 16.541-1.552 26.071-6.176 15.301 3.56 32.487-3.468 42.573-17.157-3.101-12.842-4.009-26.211-4.719-47z" fill="#fff9ef"/><g fill="#d25f4a"><path d="M730.922 1252.63c-3.67-10.38.871-26.47 6.911-35.68s15.302-15.93 25.246-20.65c-.97-9.2-3.072-16.72-7.185-22.92l4.991-5.54c-1.147-7.49-.673-14.95.938-22.16-11.728-2-22.482-5.95-31.905-11.98-2.176 4.42-3.901 9.6-5.626 14.78-14.744.3-29.53-5.19-40.513-15.03l10.253-27.83c-4.875-.37-9.56-2.8-12.106-5.85-9.346 7.18-18.044 15.69-23.079 26.35s-5.915 23.79.843 34.94c-7.458.36-14.675 4.23-19.22 10.92-10.801-8.72-25.78-11.72-39.309-8.61-13.529 3.12-25.455 12.07-32.93 23.77-10.09 15.8-11.519 37.9-.124 52.78 5.628 7.35 14.017 11.93 22.451 15.74 30.272 13.69 91.671 10 140.364-3.03z"/><path d="M830.711 1092.96c-6.955-12.23-22.22-19.11-35.991-16.21s-24.969 15.34-26.401 29.34c6.648 2.57 13.877 4.18 21.107 5.79 3.137 11.73 3.246 23.09.318 33.63-.767 2.76-2.044 5.79-4.738 6.75-1.523.54-3.198.3-4.795.05-7.182-1.13-14.365-2.26-20.698-4.08a35.3 35.3 0 0 0 2.578 24.45c3.752 7.49 10.289 13.54 20.914 17.36-10.109 2.31-20.321 4.65-29.633 9.21s-17.78 11.61-22.036 21.07c-4.256 9.45-3.557 21.49 3.368 29.21 4.4 4.9 10.697 7.62 16.894 9.86 18.674 6.75 38.601 10.54 58.42 9.31 19.819-1.24 39.534-7.67 55.258-19.8 15.573-12.01 26.743-29.22 33.011-47.86s7.803-38.66 6.193-58.26c-1.012-12.33-3.312-24.74-8.888-35.77-5.577-11.04-14.748-20.64-26.402-24.76-11.654-4.13-25.809-2-38.479 10.71z"/></g><path d="M644.71 292.132c-20.637-2.824-41.86 5.654-59.766 15.484-5.036 2.932-9.831 6.262-14.402 9.874-1.077 1.073-1.702 2.572-1.695 4.092-.162 4.977 6.462 7.73 9.879 4.092 12.445-10.189 34.67-20.08 56.001-23.469 5.841-1.652 6.753.021 10.938-2.663 2.176-2.076 1.648-5.931-.955-7.41zm32.227-4.919c-3.639.361-7.529.133-11.015 1.215-5.817 2.069-3.885 11.378 2.245 11.15 5.355-1.325 17.625.285 16.963-7.833-.342-4.081-4.812-4.962-8.193-4.532zm305.417 371.044c-2.07-5.799-11.376-3.898-11.15 2.244l-2.747 50.561c-.019 4.023.001 8.048.221 12.067-.033 1.674.93 3.178 2.323 4.052 1.807 1.082 4.195.728 5.685-.734 1.958-2.128 1.509-5.392 2.105-8.06 2.021-14.597 2.242-29.364 3.255-44.049-.101-5.298 1.535-10.946.308-16.081zm-7.868 87.966c-3.422-3.665-10.112-.897-9.946 4.119-.172 3.955-2.047 8.822 1.001 12.086 2.848 2.963 8.258 1.561 9.258-2.444.704-3.927 2.805-10.689-.313-13.761zM628.888 917.531c-1.803-1.647-4.467-1.757-6.67-2.638-22.729-5.848-39.097-15.95-40.275-31.23-.712-5.186 1.562-3.791-.4-9.242-2.366-4.375-9.482-3.459-10.649 1.392-4.837 24.876 19.423 43.517 41.538 47.683 4.573.49 11.312 3.148 15.491 1.528 2.656-1.479 3.135-5.377.965-7.493zm134.676 299.759c-7.907 3.31-15.546 11.12-16.015 19.96.452 5.92 9.575 6.49 10.935.75 1.896-5.77 5.738-9.58 13.225-11.91 3.33-1.48 7.331.79 8.814-4.84.515-7.95-12.292-6.04-16.959-3.96zm34.331-2.59c-2.97 1.61-2.341 6.43.943 7.22 2.587 1.3 6.348 1.42 7.25-1.96 1.172-4.22-4.956-6.82-8.193-5.26zm-190.649 19.04c-1.82-1.67-4.478-1.66-6.732-2.54-4.502-2.23-3.678-1.73-6.942-5.01-2.681-2.47-4.757-10.04-3.476-13.76 1.904-7.01-8.754-9.94-10.733-2.96-3.181 12.63 3.892 26.83 16.358 31.11 3.808 1.14 9.641 3.12 12.283-.97 1.12-1.86.751-4.33-.758-5.87zm29.133 2.23c-3.563-.39-3.22.17-4.252.46-.251.02-.6.02-1.003.02-.097-.02-.198-.03-.293-.06l-.346-.11c-1.331-.62-2.79-.96-4.241-.51-4.683 1.12-5.578 7.99-1.345 10.29 4.348 2.32 10.879 2.44 14.338-1.46 2.52-2.82.754-7.76-2.858-8.63z" fill="#fff9ef"/><g fill="#4c1433"><path d="M865.658 304.159a94.45 94.45 0 0 0-31.503 2.778c-4.929 1.293-9.958 3.116-13.442 6.834s-4.902 9.801-1.997 13.987c2.302 3.32 6.542 4.612 10.505 5.401a86.2 86.2 0 0 0 48.24-4.375c2.453-.971 4.968-2.14 6.555-4.246 2.519-3.347 1.925-8.31-.468-11.747s-5.867-7.661-17.89-8.632zm-45.232 39.945c-19.567-3.721-23.841-20.347-11.166-33.136 5.703-5.714 11.859-7.485 20.974-10.726 3.154-2.156.503-7.445-3.136-6.295-10.254 2.705-20.805 7.28-27.203 16.105-12.794 18.093-2.283 38.365 18.987 41.486 3.632.175 10.449 3.402 11.541-1.866.378-5.136-6.673-4.16-9.997-5.568zm80.187-47.878c-12.108-5.835-25.967-7.372-39.278-6.966-5.224.227-10.433.856-15.568 1.842-.848.226-1.581.804-2.025 1.556-1.555 2.495 1.009 5.843 3.827 4.978 17.249-2.883 43.904-.813 55.271 10.142 16.737 17.144-3.536 32.465-32.969 38.422-5.964 1.255-9.956 1.28-17.856 1.799-3.578-.226-6.999 2.324-5.079 6.087 1.942 2.89 6.171 2.112 9.215 2.217 11.08-.615 22.065-2.974 32.362-7.125 10.7-4.513 23.016-10.057 27.457-21.626 4.615-12.512-4.028-25.975-15.357-31.326zm122.017 98.714c-1.37-3.261-5.52-2.645-7.24-.017-3.54 3.488-7.16 6.903-10.98 10.086-10.351 9.294-31.703 21.236-44.333 26.111-102.692 39.896-296.367 28.735-402.685-.559-19.72-5.617-40.583-15.373-54.482-26.57-6.124-4.897-11.746-10.431-16.651-16.551-.754-.747-1.773-1.179-2.839-1.176-3.377-.109-5.416 4.482-2.838 6.853 39.73 47.531 106.49 53.728 163.873 62.824 91.808 11.671 227.609 15.416 314.436-16.692 21.612-8.28 41.999-20.128 58.869-36.068 2.08-2.386 6.29-4.649 4.87-8.241zM564.699 804.003a3.92 3.92 0 0 1-.578-.041c-39.161-5.453-72.409-39.158-77.333-78.388s18.96-80.106 55.555-95.078 82.282-2.555 106.259 28.893a4.17 4.17 0 0 1-.786 5.845c-1.832 1.405-4.456 1.043-5.845-.786-21.766-28.544-63.245-39.826-96.467-26.23-33.228 13.591-54.912 50.699-50.44 86.314 4.472 35.622 34.653 66.218 70.206 71.17a4.17 4.17 0 0 1-.571 8.301zm234.353 11.298c-.55 0-1.112-.111-1.649-.343-34.339-14.829-54.892-57.673-45.822-95.502 8.717-36.351 41.948-65.529 80.808-70.959 36.098-5.038 75.826 10.599 101.212 39.85 1.512 1.74 1.324 4.375-.415 5.881a4.16 4.16 0 0 1-5.881-.415c-23.582-27.174-60.406-41.707-93.759-37.056-35.549 4.965-65.917 31.55-73.852 64.646-8.17 34.066 10.228 72.6 41.016 85.899a4.17 4.17 0 0 1-1.658 7.999zm-100.601 54.236c-.353 0-.712-.004-1.066-.012-2.302-.061-4.122-1.98-4.061-4.281.061-2.264 1.913-4.061 4.166-4.061h.114c9.804.253 19.888-4.195 26.3-11.624 1.499-1.751 4.134-1.935 5.881-.431s1.939 4.138.431 5.88c-7.89 9.148-19.701 14.529-31.765 14.529z"/><path d="M540.024 638.76c-1.954 0-3.698-1.381-4.089-3.373-4.558-23.325-2.171-48.305 6.725-70.335 4.825-11.95 10.757-20.548 18.12-26.283 9.803-7.637 22.556-9.771 32.49-5.417 9.694 4.24 16.622 13.877 21.171 29.464a151.38 151.38 0 0 1 3.332 70.519c-.436 2.26-2.639 3.722-4.884 3.311-2.261-.436-3.743-2.619-3.311-4.884 4.223-22.033 3.136-45.066-3.145-66.608-3.816-13.067-9.217-20.971-16.507-24.161-7.169-3.137-16.597-1.422-24.022 4.358-6.175 4.81-11.245 12.276-15.51 22.824-8.297 20.548-10.525 43.855-6.273 65.616a4.17 4.17 0 0 1-3.294 4.892 4.23 4.23 0 0 1-.803.077z"/><path d="M571.612 629.933c-1.922 0-3.65-1.336-4.073-3.291-2.28-10.557-2.884-21.359-1.792-32.102.123-1.178.734-2.249 1.69-2.95 5.715-4.175 11.262-7.596 16.772-10.333l-14.234-5.902c-1.858-.77-2.9-2.753-2.485-4.72 2.998-14.084 13.705-26.295 27.273-31.113 2.174-.766 4.553.363 5.328 2.534.768 2.171-.363 4.556-2.534 5.326-9.821 3.487-17.771 11.788-21.009 21.668l19.986 8.285c1.593.659 2.615 2.228 2.574 3.95a4.17 4.17 0 0 1-2.753 3.825c-7.38 2.664-14.748 6.639-22.479 12.121-.756 9.262-.145 18.557 1.817 27.651.485 2.253-.945 4.472-3.197 4.958a4.12 4.12 0 0 1-.884.093zm222.474 39.382c-1.947 0-3.689-1.372-4.085-3.356-5.604-28.119-2.105-57.958 9.856-84.017 5.235-11.408 10.965-19.224 18.044-24.609 9.572-7.278 21.514-9.351 31.183-5.392 9.836 4.028 15.676 13.228 19.671 20.796 13.214 25.057 18.59 54.337 15.14 82.453-.277 2.285-2.285 3.934-4.647 3.629-2.285-.277-3.911-2.359-3.629-4.647 3.241-26.442-1.817-53.978-14.244-77.542-3.331-6.32-8.101-13.961-15.453-16.967-6.834-2.798-15.847-1.099-22.971 4.309-5.942 4.522-10.875 11.336-15.509 21.448-11.238 24.479-14.524 52.5-9.262 78.91a4.17 4.17 0 0 1-3.275 4.903 4.02 4.02 0 0 1-.819.082z"/><path d="M834.502 652.03c-1.735 0-3.355-1.092-3.946-2.823a68.23 68.23 0 0 1-3.132-30.274 4.15 4.15 0 0 1 2.333-3.25 114.39 114.39 0 0 0 16.895-9.987c-5.584-1.511-11.262-2.652-16.968-3.397-2.167-.281-3.747-2.191-3.62-4.374.981-17.021 11.363-33.158 26.44-41.117 2.046-1.071 4.558-.297 5.637 1.744 1.076 2.036.293 4.561-1.742 5.636-11.425 6.028-19.612 17.697-21.604 30.43 7.503 1.21 14.94 3.054 22.158 5.498a4.17 4.17 0 0 1 2.765 3.198 4.18 4.18 0 0 1-1.446 3.97 122.68 122.68 0 0 1-22.8 14.882c-.697 8.196.322 16.57 2.977 24.345.745 2.179-.42 4.549-2.598 5.295-.448.151-.9.224-1.349.224zM634.463 861.557a3.98 3.98 0 0 1-.244-.009c-38.575-2.223-76.572-9.982-112.926-23.064-1.528-.553-2.599-1.939-2.741-3.56l-4.586-51.914a4.17 4.17 0 0 1 3.788-4.52c2.358-.172 4.316 1.49 4.52 3.787l4.35 49.25c34.84 12.273 71.187 19.571 108.075 21.697 2.302.131 4.058 2.101 3.923 4.403-.126 2.215-1.968 3.93-4.159 3.93zm208.87 3.572c-22.535 0-44.974-.639-67.261-1.922-2.297-.13-4.056-2.101-3.922-4.402s2.167-4.065 4.402-3.924c65.189 3.748 131.764 1.96 197.93-5.294l33.808-264.892c-27.789 5.381-74.815 7.409-98.821 6.423a4.17 4.17 0 0 1 .167-8.337c.057 0 .114 0 .175.004 25.215 1.022 76.352-1.299 102.239-7.42 1.3-.298 2.69.032 3.7.92a4.17 4.17 0 0 1 1.41 3.552c-9.39 94.577-22.346 185.852-34.876 274.124a4.18 4.18 0 0 1-3.664 3.561c-45.075 5.065-90.363 7.607-135.287 7.607zM511.899 660.916a4.17 4.17 0 0 1-4.154-3.845l-7.242-92.452a4.19 4.19 0 0 1 1.303-3.368c.926-.863 2.171-1.274 3.447-1.087l25.516 3.645c2.28.325 3.865 2.439 3.54 4.72a4.15 4.15 0 0 1-4.721 3.54l-20.36-2.912 6.834 87.262c.179 2.298-1.536 4.306-3.832 4.485l-.331.012z"/><path d="M513.457 564.909c-2.175 0-4.008-1.686-4.159-3.886l-8.064-117.517a4.18 4.18 0 0 1 3.877-4.447c2.403-.048 4.289 1.585 4.448 3.877l8.064 117.517c.155 2.298-1.579 4.289-3.877 4.447l-.289.009zm254.191 402.463c-50.688 0-101.31-4.659-151.383-13.962-17.937-3.332-38.302-7.991-52.98-21.199-23.664-21.294-25.392-56.675-25.151-88.168.016-2.301 1.747-4.101 4.203-4.138a4.17 4.17 0 0 1 4.138 4.204c-.228 29.676 1.3 62.927 22.389 81.903 13.07 11.758 31.333 15.929 48.924 19.195 83.414 15.497 168.4 17.974 252.588 7.364 14.618-1.841 29.79-4.403 40.517-13.542 20.923-17.827 28.401-60.199 32.417-82.962.4-2.269 2.562-3.792 4.831-3.381 2.269.399 3.784 2.562 3.38 4.831-5.808 32.942-13.803 69.618-35.218 87.862-12.48 10.63-29.017 13.469-44.884 15.468-34.507 4.351-69.155 6.521-103.771 6.525zm227.433-383.698a4.26 4.26 0 0 1-.391-.016 4.18 4.18 0 0 1-3.768-4.542c4.427-47.36 6.884-95.502 7.3-143.095a4.17 4.17 0 0 1 4.208-4.134 4.17 4.17 0 0 1 4.13 4.208c-.42 47.824-2.89 96.208-7.328 143.795-.204 2.163-2.021 3.784-4.151 3.784z"/><path d="M745.937 235.522c-204.12 4.016-241.469 40.31-251.806 67.264-10.052 26.223-12.855 110.911 1.568 126.678 8.7 9.505 21.831 13.734 34.534 17.248 60.822 16.837 122.967 23.212 175.74 27.228 90.207 6.866 185.261 8.047 269.206-29.468 9.546-4.269 19.37-9.275 26.531-16.931 24.79-26.49 22.22-84.97 10.96-115.26-3.45-9.303-20.227-29.664-61.189-46.99-49.966-21.138-121.044-31.451-205.544-29.769zm46.357 250.526c-29.158 0-58.299-1.608-86.957-3.791-53.168-4.045-115.818-10.477-177.328-27.505-13.264-3.674-28.274-8.521-38.461-19.66-18.095-19.774-13.537-108.34-3.205-135.295 23.122-60.291 150.793-70.478 259.431-72.617 86.884-1.69 157.186 8.529 208.959 30.425 40.749 17.237 60.897 38.66 65.757 51.767 12.3 33.106 14.73 94.566-12.68 123.871-8.183 8.736-18.881 14.219-29.227 18.845-58.764 26.263-122.547 33.96-186.289 33.96z"/><path d="M767.701 402.187c-50.236 0-100.378-4.904-149.949-14.699-41.968-8.293-101.401-24.593-132.839-70.21a4.17 4.17 0 0 1 1.067-5.8 4.18 4.18 0 0 1 5.8 1.068c29.717 43.116 87.046 58.748 127.585 66.756 82.001 16.205 165.602 18.89 248.482 7.961a4.13 4.13 0 0 1 4.68 3.589c.301 2.284-1.308 4.378-3.588 4.68a774.35 774.35 0 0 1-101.238 6.655zm137.181-14.654c-2.134 0-3.95-1.629-4.15-3.791-.207-2.294 1.483-4.326 3.775-4.534 43.944-3.999 85.712-29.766 108.993-67.244 1.22-1.96 3.79-2.553 5.75-1.345 1.96 1.218 2.55 3.789 1.34 5.744-24.641 39.658-68.828 66.922-115.325 71.154-.131.012-.256.016-.383.016zm62.793-73.7c-1.071 0-2.138-.407-2.953-1.226-31.956-32.046-80.859-39.825-124.481-43.209-67.721-5.259-136.211-3.468-203.549 5.294-37.956 4.945-76.906 12.96-104.613 37.951a4.17 4.17 0 1 1-5.589-6.19c29.41-26.527 69.827-34.913 109.126-40.03 67.917-8.837 136.986-10.638 205.269-5.343 45.148 3.503 95.864 11.661 129.743 45.637 1.625 1.629 1.621 4.273-.008 5.898a4.16 4.16 0 0 1-2.945 1.218zm-114.231-3.548l-1.527.012c-18.426.272-30.804 5.491-30.804 10.186 0 1.096 0 4.424 5.115 7.311 12.505 7.055 40.564 4.395 52.37-2.732 1.792-1.084 4.786-3.242 4.717-5.544-.134-4.55-12.101-9.233-29.871-9.233zm-6.203 29.953c-9.551 0-18.724-1.576-25.113-5.178-7.731-4.365-9.357-10.337-9.357-14.577 0-13.244 21.022-18.258 39.02-18.527 18.283-.273 39.466 4.102 39.865 17.31.102 3.429-1.331 8.455-8.744 12.936-8.179 4.94-22.291 8.036-35.671 8.036zM707.93 588.345a869.61 869.61 0 0 1-64.723-2.407c-2.297-.171-4.02-2.172-3.85-4.468.172-2.301 2.18-4.008 4.469-3.849a864.55 864.55 0 0 0 131.678-.266c2.277-.134 4.305 1.537 4.484 3.834a4.17 4.17 0 0 1-3.832 4.483c-22.633 1.78-45.434 2.673-68.226 2.673zm80.108 569.335c-.187 0-.382-.02-.573-.04-47.194-6.52-91.3-31.62-121.009-68.87-29.703-37.25-44.365-85.82-40.224-133.287.2-2.293 2.301-4.02 4.517-3.791 2.294.199 3.991 2.223 3.793 4.517-3.956 45.351 10.055 91.771 38.439 127.361s70.527 59.57 115.624 65.81a4.16 4.16 0 0 1 3.559 4.7c-.285 2.08-2.073 3.6-4.126 3.6zm.745-39.69c-.399 0-.806-.06-1.213-.18-31.566-9.59-63.742-22.76-85.251-53.89-20.496-29.64-30.466-65.772-28.079-101.737.154-2.301 2.142-4.02 4.438-3.886a4.18 4.18 0 0 1 3.886 4.44c-2.264 34.091 7.19 68.343 26.614 96.443 20.058 29.03 50.695 41.5 80.818 50.65a4.17 4.17 0 0 1 2.778 5.2c-.545 1.8-2.203 2.96-3.991 2.96z"/><path d="M784.543 1164.2c-.856 0-1.719-.26-2.46-.81-1.857-1.36-2.261-3.97-.901-5.83 9.568-13.06 10.913-32.15 3.268-46.42-1.088-2.02-.323-4.55 1.71-5.64 2.02-1.09 4.554-.32 5.645 1.71 9.246 17.26 7.681 39.48-3.894 55.28a4.16 4.16 0 0 1-3.368 1.71zm52.683-25.05h-.183c-2.302-.1-4.085-2.05-3.987-4.35.403-9.44.37-20.42-2.917-30.28-3.319-9.95-10.019-17.81-17.929-21.03-7.567-3.08-16.862-2.19-24.257 2.32-7.157 4.35-12.489 11.85-14.635 20.58-.546 2.23-2.778 3.62-5.047 3.05-2.235-.55-3.6-2.81-3.05-5.05 2.664-10.84 9.368-20.21 18.389-25.71 9.617-5.86 21.782-6.98 31.745-2.91 10.288 4.18 18.561 13.7 22.695 26.12 3.718 11.14 3.775 23.06 3.339 33.27a4.17 4.17 0 0 1-4.163 3.99zm-42.317 57.95c-10.163 0-20.304-4.03-27.5-11.3-9.409-9.48-13.259-23.96-9.809-36.87.595-2.23 2.913-3.55 5.104-2.96 2.228.6 3.547 2.88 2.952 5.11-2.696 10.1.315 21.43 7.674 28.85 7.364 7.43 18.663 10.53 28.784 7.93 10.125-2.62 18.508-10.81 21.358-20.87.623-2.22 2.945-3.52 5.149-2.87a4.16 4.16 0 0 1 2.874 5.14c-3.641 12.87-14.357 23.33-27.296 26.67-3.042.79-6.166 1.17-9.29 1.17z"/><path d="M809.266 1272.52c-17.53 0-35.077-3.15-50.317-6.14-12.565-2.47-25-6.25-30.832-17.08-6.28-11.66-1.193-25.67 5.661-34.89 11.959-16.09 31.843-26.09 51.89-26.09h.011c20.055.01 39.936 10.02 51.882 26.13a4.17 4.17 0 0 1-6.696 4.97c-10.406-14.03-27.72-22.75-45.186-22.76h-.011c-17.461 0-34.78 8.71-45.194 22.73-5.328 7.16-9.437 17.74-5.01 25.96 4.188 7.78 14.536 10.77 25.093 12.84 16.671 3.28 34.45 6.48 52.411 5.93 19.074-.53 35.908-5.43 48.68-14.16 13.486-9.22 24.422-24.19 30.791-42.15 5.299-14.94 7.833-32.42 7.743-53.44-.044-11.31-.766-26-5.954-39.32-5.091-13.06-14.149-23.13-24.853-27.64-11.836-4.98-25.961-2.46-33.59 5.98-1.544 1.71-4.183 1.85-5.889.3a4.17 4.17 0 0 1-.293-5.89c10.093-11.16 27.789-14.49 43.006-8.08 12.776 5.38 23.489 17.15 29.39 32.3 5.69 14.6 6.475 30.29 6.525 42.32.093 21.99-2.599 40.4-8.224 56.25-6.955 19.62-19.011 36.05-33.944 46.25-14.096 9.64-32.477 15.04-53.151 15.62l-3.939.06zm-96.396-204.55c-.468 0-.941-.07-1.41-.24-2.167-.78-3.294-3.16-2.517-5.34a377.4 377.4 0 0 1 52.191-97.535c1.377-1.849 3.988-2.231 5.833-.863a4.17 4.17 0 0 1 .863 5.832 369.29 369.29 0 0 0-51.035 95.386 4.17 4.17 0 0 1-3.925 2.76zm33.775 29c-.554 0-1.117-.12-1.658-.35-2.114-.92-3.084-3.37-2.162-5.49 20.164-46.41 46.263-90.11 77.569-129.875 1.421-1.812 4.052-2.123 5.856-.701 1.813 1.426 2.123 4.049.701 5.857a582.27 582.27 0 0 0-76.477 128.049c-.681 1.57-2.216 2.51-3.829 2.51zm-58.855 37.95h-.135c-2.301-.08-4.109-2-4.036-4.3.22-7.06 1.678-13.95 4.333-20.49a4.18 4.18 0 0 1 5.433-2.3c2.135.87 3.166 3.31 2.298 5.43-2.285 5.63-3.539 11.55-3.731 17.62-.069 2.25-1.922 4.04-4.162 4.04zm34.915 17.67c-.338 0-.681-.04-1.022-.13-2.232-.56-3.589-2.82-3.027-5.06l3.458-13.76a4.17 4.17 0 0 1 5.063-3.03c2.232.56 3.589 2.83 3.026 5.07l-3.458 13.76a4.17 4.17 0 0 1-4.04 3.15z"/><path d="M733.951 1154.57h-.069c-10.17-.18-20.686-.35-30.886-3.52-11.868-3.68-21.061-11.18-25.227-20.57a4.17 4.17 0 0 1 2.122-5.5c2.114-.94 4.57.02 5.503 2.12 3.189 7.19 10.507 13.02 20.071 15.99 9.062 2.81 18.972 2.97 28.556 3.13 2.305.04 4.138 1.94 4.1 4.24-.036 2.28-1.897 4.11-4.17 4.11zm-45.923 30.91a4.14 4.14 0 0 1-.981-.12c-18.81-4.54-33.692-22.53-34.616-41.86-.925-19.32 12.169-38.66 30.457-44.97a4.18 4.18 0 0 1 5.303 2.58 4.17 4.17 0 0 1-2.582 5.3c-14.92 5.15-25.603 20.93-24.845 36.69.754 15.77 12.894 30.45 28.238 34.15 2.24.54 3.616 2.79 3.074 5.03-.46 1.91-2.167 3.2-4.048 3.2zm32.683 4.94c-1.365 0-2.733-.06-4.102-.18-2.292-.19-3.995-2.21-3.799-4.5.192-2.3 2.17-4.07 4.508-3.8 14.813 1.27 29.941-5.8 38.493-17.97 1.324-1.89 3.931-2.35 5.812-1.02s2.339 3.93 1.015 5.81c-9.441 13.44-25.558 21.66-41.927 21.66zm-70.623 77.27c-7.495 0-14.858-.15-22.026-.28-14.602-.29-31.15-.61-45.471-8.22-20.98-11.15-32.283-37.98-25.729-61.08 6.424-22.64 29.086-39.57 52.863-39.57.183 0 .371.01.553.01 23.693.26 46.152 17.03 53.41 39.87.696 2.2-.518 4.54-2.713 5.24a4.16 4.16 0 0 1-5.238-2.71c-6.199-19.52-25.354-33.84-45.548-34.06h-.472c-20.178 0-39.39 14.32-44.831 33.5-5.519 19.46 3.976 42.05 21.623 51.43 12.558 6.68 28.046 6.98 41.716 7.24 32.318.64 68.951 1.34 100.675-11.73 2.122-.86 4.57.14 5.445 2.26a4.18 4.18 0 0 1-2.269 5.45c-26.12 10.77-54.842 12.65-81.988 12.65z"/><path d="M761.973 1198.89c-2.187 0-4.024-1.7-4.159-3.91-.403-6.56-2.301-13.07-5.491-18.81a4.17 4.17 0 0 1 1.622-5.67c2.008-1.12 4.549-.39 5.67 1.62 3.791 6.82 6.047 14.55 6.524 22.34a4.17 4.17 0 0 1-3.905 4.42c-.09.01-.175.01-.261.01zm-121.137-24.98a4.14 4.14 0 0 1-2.644-.95c-1.779-1.46-2.035-4.09-.574-5.87 5.108-6.22 12.948-9.92 20.988-9.92h.111a4.17 4.17 0 0 1 4.154 4.18c-.009 2.3-1.874 4.16-4.171 4.16-.028.01-.062 0-.089 0-5.492 0-11.059 2.63-14.55 6.87-.822 1.01-2.019 1.53-3.225 1.53zm418.094-366.078c-1.81 0-3.47-1.181-4.01-3.002-.65-2.211.63-4.525 2.84-5.172 25.25-7.38 44.52-33.19 46.86-62.768 2.04-25.823-7.71-53.723-27.46-78.556-18.62-23.398-43.66-41.568-65.67-56.76-1.89-1.311-2.37-3.905-1.06-5.804a4.17 4.17 0 0 1 5.8-1.063c22.5 15.534 48.13 34.144 67.45 58.431 21.08 26.498 31.47 56.476 29.26 84.412-2.61 32.954-24.34 61.786-52.85 70.116-.39.113-.78.166-1.16.166zm-15.48-21.159a4.19 4.19 0 0 1-3.61-2.069c-1.16-1.992-.48-4.545 1.5-5.707 14.96-8.715 25.21-26.747 26.13-45.934.83-17.444-5.39-36.066-17.51-52.43-10.05-13.568-24.16-25.917-43.15-37.761-1.95-1.222-2.55-3.793-1.33-5.747s3.79-2.55 5.75-1.332c19.89 12.411 34.75 25.451 45.43 39.87 13.27 17.909 20.07 38.437 19.14 57.799-1.07 22.275-12.66 42.485-30.25 52.745a4.2 4.2 0 0 1-2.1.566z"/><path d="M1067.54 811.106c-9.24 0-18.35-4.443-24.01-11.75-5.86-7.572-7.81-17.974-5.09-27.155a4.17 4.17 0 0 1 5.19-2.814c2.2.656 3.46 2.978 2.81 5.185-1.97 6.651-.56 14.194 3.69 19.676 4.24 5.483 11.19 8.737 18.12 8.504 2.38-.101 4.23 1.719 4.31 4.02a4.17 4.17 0 0 1-4.02 4.315 30.32 30.32 0 0 1-1 .019zm-49.02-2.007c-1.13 0-2.25-.456-3.07-1.349-8.94-9.73-12.93-23.382-10.43-35.626 2.7-13.196 12.93-24.128 25.45-27.199 13.23-3.254 27.98 3.01 34.28 14.573 1.11 2.025.36 4.554-1.66 5.657a4.16 4.16 0 0 1-5.66-1.665c-4.47-8.207-15.45-12.818-24.97-10.468-9.31 2.29-17.23 10.83-19.27 20.773-1.97 9.669 1.25 20.519 8.4 28.314 1.56 1.694 1.44 4.335-.25 5.891a4.15 4.15 0 0 1-2.82 1.099zm40.35 28.437c-7.58 0-15.15-2.212-21.28-6.663a4.17 4.17 0 0 1-.93-5.826c1.36-1.865 3.96-2.283 5.82-.927 9.8 7.107 24.34 6.801 33.82-.701 9.49-7.503 13.13-21.582 8.47-32.747-.89-2.126.12-4.566 2.24-5.454 2.11-.883 4.57.114 5.46 2.245 6.04 14.487 1.32 32.758-11 42.497-6.37 5.038-14.49 7.576-22.6 7.576z"/><path d="M989.359 785.158c-.904 0-1.816-.293-2.581-.895-1.805-1.431-2.114-4.054-.69-5.862a30.43 30.43 0 0 1 19.152-11.111c2.33-.293 4.41 1.231 4.75 3.507a4.18 4.18 0 0 1-3.51 4.745 21.94 21.94 0 0 0-13.842 8.032 4.17 4.17 0 0 1-3.279 1.584zm33.921 103.061c-21.35 0-42.812-11.303-54.082-29.501-1.21-1.958-.607-4.529 1.352-5.742a4.17 4.17 0 0 1 5.743 1.352c11.6 18.735 35.667 29.047 57.247 24.498 2.6-.55 7.12-1.901 8.03-4.765.87-2.762-1.87-6.308-4.72-8.704-6.41-5.392-14.93-9.33-28.49-13.176-1.9-.538-3.17-2.334-3.03-4.301a4.17 4.17 0 0 1 3.6-3.841c3.47-.48 6.71-2.98 8.04-6.227 1.34-3.25.81-7.303-1.33-10.089-1.4-1.829-1.06-4.447.77-5.849a4.18 4.18 0 0 1 5.85.775c3.94 5.148 4.9 12.344 2.43 18.336-.98 2.362-2.45 4.485-4.28 6.24 7.62 2.696 15.35 6.317 21.81 11.746s9.12 11.848 7.3 17.603c-1.14 3.621-4.55 8.366-14.26 10.415-3.94.831-7.96 1.23-11.98 1.23z"/><path d="M1050.03 882.037a30.65 30.65 0 0 1-4.27-.31c-2.29-.318-3.87-2.424-3.56-4.709.32-2.28 2.37-3.897 4.71-3.55 3.08.427 7.3.475 9.89-1.753 3.01-2.581 2.96-7.811 1.39-11.424-2.02-4.655-6.15-8.395-10.14-12.007a4.17 4.17 0 1 1 5.6-6.182c4.43 4.011 9.44 8.561 12.19 14.861 2.74 6.305 2.79 15.592-3.61 21.082-3.07 2.639-7.24 3.992-12.2 3.992z"/><path d="M1068.51 873.051c-1.54 0-3.09-.184-4.61-.566-2.24-.558-3.59-2.823-3.03-5.058.56-2.241 2.83-3.597 5.06-3.03 3.54.883 7.51-.163 10.14-2.669 2.64-2.505 3.88-6.423 3.18-9.99-1.11-5.588-6.35-9.885-12.08-14.158-1.84-1.376-2.22-3.992-.85-5.836a4.18 4.18 0 0 1 5.84-.852c6.8 5.071 13.59 10.736 15.27 19.224 1.26 6.398-.88 13.164-5.61 17.657-3.59 3.417-8.42 5.278-13.31 5.278zm-615.757-77.818c-1.051 0-2.105-.395-2.916-1.189-27.505-26.909-38.584-69.761-27.566-106.625s43.789-66.618 81.544-74.03a4.18 4.18 0 0 1 4.897 3.291c.443 2.26-1.031 4.452-3.291 4.895-34.8 6.83-65.005 34.25-75.158 68.23s.057 73.476 25.406 98.276c1.645 1.614 1.674 4.253.066 5.898a4.16 4.16 0 0 1-2.982 1.254zm-19.85 21.057c-1.022 0-2.049-.375-2.852-1.129-37.433-35.1-52.373-91.616-37.173-140.629s59.49-87.17 110.214-94.933c2.334-.366 4.406 1.213 4.753 3.491a4.17 4.17 0 0 1-3.491 4.753c-47.641 7.294-89.239 43.124-103.509 89.156-14.277 46.033-.245 99.112 34.909 132.078 1.682 1.576 1.767 4.215.191 5.893-.823.875-1.931 1.32-3.042 1.32z"/><path d="M426.716 822.176a4.17 4.17 0 0 1-3.813-2.468c-.94-2.102.004-4.57 2.106-5.511 6.765-3.027 13.763-6.154 19.339-10.802 5.787-4.826 9.285-10.96 9.587-16.821.122-2.301 2.024-4.088 4.383-3.951 2.301.122 4.068 2.082 3.95 4.383-.424 8.174-5.01 16.483-12.581 22.796-6.459 5.385-13.99 8.752-21.273 12.011a4.19 4.19 0 0 1-1.698.363zm10.898 29.958c-12.878 0-24.479-7.302-28.397-17.974-3.519-9.592-1.14-20.825 7.079-33.386 1.259-1.93 3.853-2.464 5.771-1.21 1.931 1.263 2.472 3.845 1.209 5.771-4.601 7.043-9.419 17.258-6.23 25.949 3.111 8.476 12.951 12.667 21.199 12.501 8.198-.2 16.81-3.727 26.315-10.782 1.842-1.373 4.456-.99 5.833.864a4.17 4.17 0 0 1-.864 5.832c-10.935 8.117-21.101 12.183-31.081 12.426l-.834.009zm50.269-34.759c-.404 0-.815-.058-1.222-.184a4.17 4.17 0 0 1-2.766-5.209c1.617-5.279 3.291-10.732 3.731-16.101.322-3.921.089-9.571-2.859-14.221-3.43-5.406-10.569-8.99-18.052-8.705-6.679.106-13.802 2.664-21.162 7.597a4.18 4.18 0 0 1-5.788-1.145c-1.279-1.915-.77-4.505 1.144-5.789 8.721-5.84 17.355-8.87 25.676-9.004 10.591-.322 20.21 4.655 25.228 12.581 3.311 5.226 4.741 11.926 4.13 19.371-.517 6.269-2.325 12.161-4.072 17.86-.551 1.796-2.203 2.949-3.988 2.949z"/><path d="M476.466 913.235c-2.929 0-6.118-.37-9.168-1.633-5.588-2.313-9.312-7.262-9.478-12.606-.171-5.144 2.9-9.364 5.225-12.092 3.385-3.979 7.344-7.527 11.689-10.513-4.093-.496-8.177-1.445-12.104-3.164-9.641-4.207-18.606-15.029-16.235-26.792.452-2.256 2.655-3.731 4.911-3.266a4.17 4.17 0 0 1 3.268 4.912c-1.454 7.209 4.651 14.56 11.395 17.505 7.902 3.454 17.498 3.071 25.981 2.728 2.269-.105 3.923 1.402 4.277 3.455.359 2.061-.868 4.069-2.867 4.692-9.205 2.88-17.717 8.508-23.964 15.851-2.269 2.66-3.296 4.697-3.243 6.411.073 2.249 2.235 4.302 4.338 5.173 3.03 1.255 6.777 1.071 9.718.787 9.644-.967 18.145-4.017 24.587-8.819 7.145-5.323 11.906-13.168 12.741-20.991.893-8.362-2.847-16.761-9.298-20.895-1.939-1.242-2.501-3.82-1.259-5.763s3.808-2.509 5.763-1.258c9.046 5.795 14.304 17.371 13.087 28.804-1.092 10.239-6.941 20.005-16.048 26.791-7.653 5.706-17.594 9.315-28.743 10.431-1.397.138-2.944.252-4.573.252z"/><path d="M511.04 908.547c-2.667 0-5.335-.293-7.954-.892-2.249-.509-3.653-2.746-3.141-4.99s2.754-3.669 4.99-3.14c7.058 1.597 14.935.249 21.053-3.62 6.118-3.878 10.708-10.411 12.272-17.481.496-2.249 2.724-3.659 4.973-3.173a4.17 4.17 0 0 1 3.173 4.972c-2.065 9.332-7.882 17.616-15.954 22.728-5.804 3.673-12.589 5.596-19.412 5.596zm7.27-112.502a4.17 4.17 0 0 1-1.458-.265 34.01 34.01 0 0 0-22.622-.399c-2.203.717-4.553-.456-5.274-2.639a4.17 4.17 0 0 1 2.635-5.275 42.37 42.37 0 0 1 28.177.501 4.17 4.17 0 0 1 2.448 5.365c-.628 1.677-2.216 2.712-3.906 2.712zm14.2-101.673c-8.174.028-8.155 12.461 0 12.512 8.175-.029 8.157-12.46 0-12.512zm37.463-15.611c-8.174.029-8.155 12.461 0 12.512 8.175-.029 8.157-12.46 0-12.512zm-9.367 43.707c-8.174.028-8.155 12.461 0 12.511 8.175-.028 8.157-12.459 0-12.511zm243.506-6.244c-8.174.029-8.156 12.461 0 12.512 8.175-.028 8.156-12.459 0-12.512zm53.074-12.487c-8.174.028-8.156 12.461.001 12.512 8.174-.029 8.155-12.46-.001-12.512zm-21.852 46.827c-8.174.029-8.155 12.461 0 12.512 8.176-.028 8.157-12.46 0-12.512zM580.473 483.516c-14.366-.628-30.701 7.765-35.756 21.651-1.312 6.749 8.711 10.144 11.945 4.127 5.452-8.606 12.602-12.789 24.575-12.483 5.001-.251 4.933 1.927 9.653-1.379 6.008-7.544-3.898-11.804-10.417-11.916zm306.66 20.988c-6.888-6.873-18.792-11.237-27.867-6.484-5.289 3.635-.836 12.443 5.251 10.536 5.768-1.662 12.911 1.47 16.557 7.502 1.71.807.88 11.305 8.325 10.384 10.117-2.424 2.542-17.351-2.266-21.938zM664.451 716.109c-.131-.439.13.549.13.439v-.11c-.13-.11-.13-.22-.13-.329zm3.127 6.366c.131.22.391.439 0 0-.26-.219-.13-.219 0 0zm-2.084-2.963c-.391-.768.26.549 0 0h0zm5.473 5.816s-.13-.11-.26-.11l-.131-.11c-.391-.219.391.22.391.22zm10.818 3.512s-.391-.109-.521 0h.521zm-6.255-1.317c-.131 0-.261-.109-.261-.109h-.13s.912.329.391.109z"/><path d="M664.449 713.475v-.439c.13-.439 0 .439 0 .439zm4.304-6.694s-.131 0-.131.109c-.521.22-.13.11.131-.109zm17.987 1.975c-.26-.22-.26-.11 0 0h0zm-9.516-3.732c-.651-.11.913.11 0 0h0zm4.172 1.098h.13c.652.219-.652-.329-.13 0z"/><path d="M682.829 697.891c-6.778-1.866-14.338-1.098-20.073 2.634-5.474 3.512-8.342 9.438-8.081 15.145.391 5.488 3.389 10.756 8.211 14.487 6.126 4.72 14.208 7.024 22.419 7.024 2.477 0 4.953-1.865 4.823-4.06s-2.085-4.061-4.823-4.061h-2.215c-.392 0-.913 0-1.304-.11h-.261-.13c-1.434-.219-2.868-.439-4.171-.878-.521-.11-1.173-.439-1.825-.549.131 0 .261.11.261.11.521.22-.391-.11-.391-.11h.13-.13c-.391-.109-.652-.329-1.043-.439-1.173-.548-2.216-1.097-3.389-1.756.131.11.261.11.261.11l-.391-.22c-.261-.219-.522-.329-.652-.548-.521-.439-1.043-.769-1.434-1.208l-.651-.548c0-.11-.261-.22-.391-.329.13.219.391.439 0 .109-.261-.219-.131-.219 0-.109-.131-.11-.131-.11-.131-.22-.13-.22-.391-.439-.521-.768-.391-.439-.652-.878-.912-1.427l-.392-.659c-.391-.768.261.549 0 0-.391-.987-.782-1.975-1.042-2.963v.11s-.131-.878-.131-.439c0 .11 0 .22.131.329 0-.219 0-.439-.131-.548v-1.647-.768s.131-.878 0-.439v.439c.131-.11.391-1.427.391-1.646.131-.439.522-.988.652-1.427 0 .11-.13.219-.13.329-.261.329.13-.329.13-.439v.11c.13-.22.261-.549.522-.768l.782-.988-.131.11s.652-.659.261-.33c-.13.11-.13.22-.261.22.131-.11.261-.22.261-.329.261-.22.391-.439.652-.659l.651-.549c.131-.109.782-.439.391-.329-.26.11-.651.329-.13.11l.13-.11c.131 0 .131-.11.131-.11.26-.219.651-.329.912-.548l.782-.33s.131 0 .131-.109c-.131 0-.131 0 .13-.11.521-.22.13 0-.13.11.13 0 .39-.11.521-.22.391-.11.652-.219 1.043-.219.26-.11.521-.11.912-.22.13 0 .391-.11.521-.11-.521 0-.26 0 0 0h0 .391 1.043c.652 0 1.304 0 1.955.11-.782-.11.782.11 0 0h.261c.391.11.782.11 1.173.22.782.219 1.564.329 2.346.658.131 0 .261.11.391.11-.521-.22.782.219.131 0h-.131c.522.219.913.329 1.434.549.782.329 1.695.768 2.477 1.207l1.173.658.13.11c-.13-.11-.13-.11 0 0s.391.22 0 0c.13.11.391.22.391.22 3.128 2.195 5.996 4.719 8.733 7.243 1.695 1.537 5.083 1.537 6.908 0 1.825-1.646 1.825-4.061 0-5.817-5.474-5.048-11.47-10.206-19.551-12.401z"/><path d="M666.666 708.536c.13-.219.261-.219.261-.329.391-.329-.261.329-.261.329zm-1.301 2.086c0-.11.13-.22.13-.33v-.109s-.391.768-.13.439zm5.732-4.94c-.391.11-.261.11-.131.11.261-.11.652-.329.131-.11zm2.739-.657c-.521.11-.261.11 0 0h0z"/></g><path d="M638.259 770.633c-1.825 15.145 8.211 30.291 23.071 37.535s33.889 6.694 49.27-.11 25.156-17.67 30.37-34.352c-33.368 9.768-70.386 8.67-102.711-3.073z" fill="#fff"/><g fill="#4c1433"><path d="M737.843 775.133c-3.519 3.622-8.081 6.476-12.773 8.89-6.126 3.073-12.904 5.488-19.812 7.134-4.171.988-8.473 1.646-12.904 2.085-1.304.11-2.477.878-2.477 2.086 0 .987 1.173 2.195 2.477 2.085 15.119-1.317 30.239-5.927 42.231-13.829 2.476-1.646 4.823-3.402 6.778-5.377.782-.878 1.042-2.086 0-2.854-.913-.988-2.607-1.098-3.52-.22zm-72.341 17.011c-8.863-.878-17.727-4.609-24.244-9.768-2.216-1.865-5.735 1.098-3.389 2.854 7.43 6.036 17.466 9.987 27.633 10.975 1.304.11 2.476-.988 2.476-2.085-.13-1.207-1.172-1.866-2.476-1.976z"/><path d="M732.758 781.608s0 .11-.13.11c0 .329-.261.768.13-.11zm-16.292 18.548c-.782.439.782-.549 0 0h0zm8.602-7.354c.261-.219.652-.439 0 0h0zm-86.807-26.23h-.13c.782 0 1.564.219 2.346.439-.652-.33-1.434-.549-2.216-.439zm74.164 8.67c-.912.11.913-.11 0 0h0zm-70.905-7.902c-.522-.11-.391-.11 0 0h0zm63.476 38.413c-.131 0-.131 0-.261.11-.261.109-.391.109.261-.11zm31.282-33.255c-.652 2.195-1.433 4.28-2.346 6.475l-.391.878 8.733-2.304-5.996-5.049z"/><path d="M638.131 766.572c-.391 0-.782 0-1.173.11-1.173.22-2.346.988-2.868 1.866a1.88 1.88 0 0 0-.391 1.097c.522-1.756 2.086-2.963 4.432-3.073zm8.082 20.962c-.522-.878.261.658 0 0h0z"/><path d="M635.783 774.145l7.169 2.415c-.13-1.976-.13-3.951.13-5.927.131-1.427-1.042-2.853-2.606-3.622-.782-.329-1.564-.439-2.347-.439-2.346.11-3.91 1.317-4.431 3.073-.522 1.647.13 3.732 2.085 4.5z"/><path d="M739.667 769.645c-6.517 1.866-13.164 3.402-19.942 4.5l-4.692.658-2.477.33h-.13c-.913.109.912-.11 0 0h-.261c-.391 0-.912.109-1.303.109-3.389.33-6.778.549-10.167.659-6.648.219-13.426.11-20.073-.439-1.695-.11-3.389-.329-4.953-.439h.261 0-.261.13c-.391 0-.782-.11-1.303-.11-1.043-.11-1.955-.219-2.998-.439-3.389-.439-6.648-1.097-10.037-1.756-3.649-.768-7.169-1.646-10.688-2.634-1.694-.549-3.519-.988-5.214-1.536-.912-.33-1.824-.659-2.737-.878-.391-.11-.782-.22-1.173-.439h-.13.13c-.391-.11-.521-.11-.13 0-.261-.11-.522-.22-.652-.22s-.13 0-.261-.11c1.564.659 2.737 2.086 2.607 3.622-.261 1.976-.261 3.951-.13 5.927 24.374 7.572 50.703 9.658 76.381 6.036 4.823-.659 9.515-1.646 14.077-2.744.131-.329.261-.549.391-.878a55.95 55.95 0 0 0 2.347-6.475l5.995 5.048c-2.867.878-5.735 1.537-8.733 2.305-.26.659-.651 1.317-.912 1.976 0 0 0-.11.13-.11-.391.878-.13.329-.13.11-.13.219-.13.329-.261.548-.26.439-.521.988-.782 1.427-1.043 1.756-2.085 3.512-3.389 5.268-.521.768-1.173 1.427-1.694 2.195-.261.33-.652.769-.913 1.098-.13.11-.26.329-.391.439.261-.22.652-.549-.13.11l.13-.11-.13.11c-1.434 1.426-2.868 2.853-4.432 4.17-.782.549-1.433 1.207-2.215 1.756-.391.22-.783.549-1.043.768s-.522.33-.782.549c-.782.549.912-.549 0 0-1.825 1.098-3.65 2.195-5.605 3.183l-2.737 1.317-1.564.658c-.391.11-.783.33-1.043.439 0 0-.391.11-.522.22.131 0 .131 0 .261-.11-.521.22-.521.11-.261.11-2.476.878-4.953 1.536-7.559 2.085l-3.65.659c-.652.109-1.304.219-1.955.219h.521c-.13 0-.652 0-.782.11-.391 0-.782.11-1.173.11-2.737.219-5.474.219-8.081.109-.652 0-1.173-.109-1.825-.109-.391 0-.652 0-1.043-.11.261 0 .782.11-.13 0h.13l-4.301-.659c-1.304-.219-2.607-.548-3.78-.878-.652-.219-1.304-.329-1.825-.548-.261-.11-.521-.11-.782-.22-.13 0-.131 0-.261-.11-.521-.109.652.22 0 0h-.13a41.73 41.73 0 0 1-6.908-3.182l-1.434-.878c-.131-.11-.261-.22-.521-.33.26.22.651.439-.131-.109 0 0 .131 0 .131.109-.131-.109-.261-.109-.261-.219l-2.737-1.976c-.913-.658-1.695-1.426-2.477-2.195-.391-.329-.782-.768-1.173-1.097-.13-.22-.391-.439-.521-.549s-.131-.11-.131-.219c-.391-.439.261.329 0 0l-.13-.11c-1.695-1.866-3.128-3.841-4.432-5.927-.261-.548-.651-.987-.912-1.536l-.391-.659c-.391-.768.26.659 0 0v-.109c-.522-1.098-1.043-2.305-1.434-3.513-.391-1.097-.652-2.195-1.043-3.292-.13-.549-.26-1.207-.391-1.866 0-.219-.13-.329-.13-.549 0 .33.13.769 0-.109v.109-.329c0-.439-.13-.878-.13-1.317-2.477-.768-4.823-1.536-7.169-2.414-1.955-.769-2.607-2.744-2.216-4.5-.131.329-.131.658-.261.988-1.043 9.328 2.086 18.987 8.081 26.889 6.257 8.231 15.511 14.487 26.591 17.669 21.376 6.146 46.402-.219 61.522-14.157 8.081-7.354 13.034-16.682 16.162-26.231.522-3.073-2.737-6.256-6.387-5.268z"/><path d="M679.056 808.936h-.13c1.043.109.391 0 .13 0zm-10.816-2.525c-.521-.11.522.219 0 0h0zm-16.295-10.646c-.391-.329.26.439 0 0h0zm7.298 6.256c.261.219.522.439 0 0h0zm75.862-28.645c.131 0 .131.11 0 0-.651-.439.913.549 0 0zm-4.822-2.414c.261.11.913.439 0 0h0zm8.991 5.926c.13 0 .13.11 0 0 .13.11.13.11.13.22.521.329-.522-.768-.13-.22zm2.998 4.171c-.261-.658 0 0 .13.11 0 .22 0 .22-.13-.11z"/><path d="M745.401 770.303c-3.389-3.293-7.821-5.707-12.644-7.244-1.042-.329-2.737-.109-3.78.44s-1.955 1.426-2.216 2.414c-.651 2.305.913 4.17 3.389 5.048 0 0-.13.001-.13-.109l.782.329c.391.22.913.329 1.304.549.912.439 1.694.878 2.606 1.317a1.81 1.81 0 0 0 .522.329c-.652-.439.912.549.13.11l-.13-.11c.391.329.782.549 1.173.878.782.549 1.434 1.207 2.085 1.866.261.219.522.549.782.878-.521-.549.522.549.131.219l-.131-.109c.131.219.261.329.391.548.522.659 1.043 1.427 1.565 2.195.26.439.521.769.782 1.208 0 .109.13.219.13.329-.13-.11-.391-.768-.13-.11.13.329.13.329.13.22.391.878.782 1.756 1.043 2.634.651 2.085 3.519 3.512 5.996 2.853s4.04-2.744 3.388-5.048c-1.173-4.5-3.78-8.341-7.168-11.634z"/></g><defs><linearGradient id="A" x1="-765.5" y1="-323" x2="983.5" y2="1119" gradientUnits="userSpaceOnUse"><stop stop-color="#b79a81"/><stop offset="1" stop-color="#ebd3c1"/></linearGradient></defs></svg>