<svg xmlns="http://www.w3.org/2000/svg" xmlns:xlink="http://www.w3.org/1999/xlink" width="51" height="69" fill="none" xmlns:v="https://vecta.io/nano"><path d="M33.229 5.761c1.493-.876 6.771-2.284 7.654-2.302 1.533 1.427 4.761 10.346 2.364 21.522.208-7.452-3.623-15.624-10.018-19.22zm8.969 17.913c-.113 5.779-.703 6.302-.037 6.492.919.235 1.521-3.287 2.118-5.71 1.573-6.403 1.416-14.82-1.686-20.698-1.104-2.082-1.591-1.848-6.409-.384-.413.127-3.914 1.062-4.447 2.12-.178.357-.004.714.257.865.712.424 2.072.426 5.155 4.391 3.166 4.217 5.138 7.537 5.048 12.924z" fill="url(#A)"/><path d="M27.167 12.144c-.016.079-.005.158.043.221l.946 1.26c-1.109-.421-3.791-2.35-5.474-3.107-1.7-.758-5.84-1.908-8.17-1.693 1.336-3.444 1.955-2.994 3.798-7.472 1.158 1.218 3.974 3.625 8.856 10.791zM18.747.379c-.358-.477-.783-.462-1.072-.19-.211.198-.352.557-.567 1.005-1.929 4.054-6.069 9.24-2.644 8.749 2.535-.274 6.672.829 8.773 1.925 2.88 1.502 5.963 3.471 5.963 2.297 0-.557-5.74-8.58-7.885-10.943C20.084 1.869 19.163.935 18.747.379z" fill="url(#B)"/><path d="M33.651 52.332c-.206-.079-.687-.017-.913.004l1.76-.554-.847.55zm-5.628 5.406c.021-.157-.014.126.068-.515.258.796-.156-.775.709 3.191l-.777-2.676zm-1.666.557l.451-1.047.034.559c-.146.13-.224.199-.485.488zm-1.914 2.117l1.159-1.75a.22.22 0 0 0 .257.186l-1.416 1.563zm-3.819 4.094c.6-.641.706-1.095 1.79-2.367a.43.43 0 0 0 .289.166l-2.08 2.2zm1.435-13.832c-.066.043-.098.058-.165.142l-.263-.3.428.159zm4.651.465l-.051.695-.059-.036.11-.659zm1.448-6.861l.15 1.066c-.061-.199-.111-.379-.317-.401l.167-.666zm.723 11.7c-.044.141-.055.375-.061.522-.092-.267-.079-.224-.113-.409l.174-.113zm-6.078 5.776l.019-.094c.481-.566 2.764-3.387 2.442-4.063l.454-.652-.161.914c-.543.898-2.001 3.172-2.754 3.894zm2.925-7.331c-.021.028-.037.062-.051.096-.084-.102-.13-.147-.19-.204.125.062.103.058.241.107zm-2.933-3.404c.008-.007.016-.014.025-.02l-.025.02h-.001zm1.938.946c-.188.035-.356.247-.222.471l-.228-.092c-.589-.446-1.366-.926-1.492-1.319.242-.126 1.735.762 1.943.94zm4.377 1.921l-.017-.043c.608-.426.841-.464 1.253-.679h-.001c.167-.071 1.095-.224 1.273-.249.008.032.008.036.008.044l-2.515.927zm.286 1.138l-.024-.151.394-.247.572-.142c-.538.375-.196.143-.942.539zm-.113-.746c.185-.112.62-.266.824-.336l-.469.262-.355.074zm.029 5.606l.472 2.834-.847-3.831.374.997zm-.484-4.639l.089-.069.006.051-.099.038c.002-.007.003-.014.004-.021zm0-.003c.035-.024.04-.031 0 0h0zm.089-.066c.008.056.009.061 0 0h0zm-1.073-.592c-.046-.014-.092-.017-.136.002l.155-.765c.013-.007.027-.01.037-.019.038.278.039.183.021.625-.029.049-.045.076-.077.157zm-.182 1.19l.066.228c-.034-.079-.048-.146-.066-.228zm-2.106-2.971c-.246-.158-.542-.381-.601-.436l.32.115.283.306zm.997.478l-.025-.145.03.018-.006.127zm-.451 1.334zm-.001 0c.023-.032.043-.057.002-.002zm.069-.04zm.03-.013c-.009.005-.018.008-.027.012.008-.004.018-.008.027-.012zm1.615-2.017c-.041-.077-.057-.119-.111-.168-.033-.764.036-1.46.08-2.18.156 1.835.122 1.691.031 2.348zm-5.625-1.477c.003-.033.008-.055 0-.001v.001zm.171-.112c-.011.255.113.413.271.612.004.01.008.018.013.028-.174-.112-.276-.24-.449-.433-.02-.085-.013-.151.165-.208zm2.705 2.552l-.021-.017-.241-.208c.066.033.352.282.408.331l-.149-.109zm1.211 3.83c-.009.022-.007.017 0 0h0zm-.215-1.736c.06-.262.011-.448-.09-.648.108-.413.151-.382.348-.38-.024.133-.044.234-.029.368l-.229.66zm1.2 1.919l-.021-1.327c.071.274.233.693.427.904l-.051.396c-.16-.031-.253-.011-.354.026zm1.225-3.145l-.03.248-.027-.182.058-.066zm-.121-.492c.003-.217.007-.075.007-.33a1.99 1.99 0 0 1 .134.201l-.142.13zm-7.652-4.443zm16.146 1.395c-.273-1.2-3.684.365-6.7 1.257-1.284-6.394-.893-10.376-2.136-9.655-.667.391-2.001 7.958-2.16 8.919-1.633-.991-1.676-1.109-4.981-2.227-.293-.101-.672-.249-.959-.061-1.374.895 4.687 5.799 5.017 6.318-3.226 4.603-5.383 8.822-5.98 10.393-.068.303-.053.672.223.791.439.19.569.061 1.416-.636 1.616-1.345 5.565-5.768 6.495-6.825.083.18.197.46.374.47.202.762 2.174 7.057 2.738 8.164.347.649.944.63 1.124.255.552-1.184-1.559-11.248-1.424-11.76.14-.144 1.121-.764 1.297-.88 1.028-.684 1.729-1.265 2.432-1.776.955-.693 1.768-1.116 2.65-1.795.33-.256.669-.543.575-.95z" fill="url(#C)"/><path d="M42.657 48.055c.17-.244.083-.429-.142-.594.305-.135.641-.403.631-.733l.091-.035a4.52 4.52 0 0 0 2.021-.461l.119.209c-1.361 1.137-2.033 1.419-2.721 1.615zm-4.919-1.946c.164.129.333.284.54.321a1.91 1.91 0 0 1-.011.081c.049.358.484.436 1.049.627.643.395 1.725.958 2.458 1.076-1.532.093-3.222-.666-4.036-2.105zm1.395-3.765c-.273.12-.239.099-.079.027.025-.011.053-.017.079-.027zm2.863 4.785l-.05-.029.546-.152c-.127.082-.253.139-.495.181zm-.097.475l.285.183c-.211-.003-.465-.034-.901-.191.16.011.45.022.616.009zm-1.01-1.231l1.105.218c-.218.058-.496.125-.72.14a7.62 7.62 0 0 0-.775-.336c.116-.023.27-.019.391-.023zm-1.361-.235a.48.48 0 0 0-.033-.218l.435.165a.72.72 0 0 0-.143.098l-.259-.046zm.052.473c.011.072.025.106.045.139-.09-.03-.223-.123-.308-.18l.264.04zm-1.731-1.818zm.007-.018l-.002.005zm-.204-.246a1.07 1.07 0 0 1 .201.134c.006.036.016.089-.002.117-.062-.015-.167-.196-.199-.251zm-.158-.602c.033.036.055.059.121.159a.78.78 0 0 0-.153-.006c-.007-.035-.011-.072.032-.153zm.361.738zm.245-.52c-.091-.194-.209-.386-.363-.534.184-.175.444-.375.97-.633-.378.344-.568.752-.607 1.166zm1.091.367c-.619-.996 2.366-2.937 5.444.807-1.69.776-4.935-.232-5.444-.807zm6.486.142l-.226.192c-1.078-1.346-2.366-2.161-3.535-2.492.046-.046.079-.102.095-.166 1.591.413 2.795 1.066 3.665 2.467zm-7.155 1.328l-.774-.688c.234.006.464.093.666.206.06.125.166.356.108.482zm.551.088zm.001.027c-.065-.001-.102 0-.18.006.033-.086.039-.141.038-.213.05.053.139.134.142.207zm.005-.014zm.003.007h0l-.002-.005zm.002.006h0zm.001.001h0 0zm3.601.631h0l-.001-.002zm4.72.223l.13.742-.134-.269c.133-.208-.223-.819-.331-1.041l.334.567zm2.453 8.255h0zm-.001-.03c-.019.015-.016.013 0 0h0zm-.452.215c-.071-.412-.146-1.38-.409-2.537.017-.01.034-.02.048-.035.105.332.321 1.285.669 1.269l.144 1.075c-.159.095-.291.15-.451.228zm-2.338-23.199c.021.036.017.027.026.055l-.026-.055zm-.596-.761l-.366-.55.603-.028.116.473c-.088-.013-.287.016-.353.105zm1.498-.515c.094.152.155.38.203.559l-.289-.577.086.017zm.767 3.925l-.295-.547c.027-.199-.407-1.693-.465-1.884.389.94.575 1.706.76 2.432zm.069 4.33c.035.032.079.049.133.049-.045.461-.168 1.066-.262 1.508l.13-1.557zm.171-3.344l.043 1.882-.274-2.011c.071.052.153.089.231.128zm1.122 20.48c.636-.278.901-.557.901-1.086 0-.412-.446-3.74-.934-5.334-.518-1.683-1.308-3.167-2.317-4.643 2.886-3.851 2.667-9.605 1.368-14.219-.273-.972-.482-1.334-2.941-1.149-.598-.104-1.404-.305-1.527.335a.5.5 0 0 0 .276.754c.985 1.487 1.367 2.165 2.067 3.771 1.018 2.575 1.108 6.554-.441 8.934-3.233-3.616-8.85-3.187-9.943-.005-1.284 1.721 3.029 8.736 9.218 3.62 1.046 2.074 2.06 4.861 2.398 7.354.124 1.057.124 1.557.575 1.871.386.273.8.035 1.3-.202z" fill="url(#D)"/><path d="M25.2 21.145a7.44 7.44 0 0 1 .943-.126c.056.041 1.279.157 1.348.165a5.06 5.06 0 0 1 1.119.272c.339.121.856.668 1.038.355.016-.027.024-.062.023-.097.837.556.391.241 1.215.848-.008.137 1.885 1.624 2.144 1.528.523.529 1.041 1.022 1.779 2.009-2.235-2.664-6.149-5.052-9.608-4.952zm14.051 8.785c-.057-.004-.109.01-.151.049-.09-.179-.356-.79-.516-.886-.232-.191-.448-.107-.322.45-.405-.788-.684-1.223-.942-1.635.306.302.91.955 1.172.614.282.434.547.958.759 1.408zm1.068 2.919c-.198-.007-.326.094-.508.191-.001-.061.013-.057-.046-.335a2.39 2.39 0 0 0 .033-.183c.105.177.451.101.331-.257-.137-.412-.257-.43-.356-1.105.157.412.15.337.545 1.69zm-1.428-.687l.147.512c-.133-.126-.216-.289-.298-.462.077-.017.121-.035.151-.05zm-.165-.367a.39.39 0 0 1-.145.042c-.209-.579-.181-.7-.34-1.462.24.494.579 1.138.485 1.42zm-.346 1.999c-.203-.557-.276-1.005-.497-1.782a1.42 1.42 0 0 0 .261.146c.069.338.106.802.402.555.151.24.415.479.716.501.015.021.054.069.075.086-.231.133-.704.425-.956.494zm-.995-5.06s-.005-.005.415.758l-.079-.012c-.107-.251-.219-.499-.336-.746zm-.126 1.491c-.024-.191.056-.3.198-.344.284.708.426 1.17.566 1.74-.353-.314-.706-1.082-.764-1.402zm-5.151-7.516a55.29 55.29 0 0 1 1.747 1.15c-.032.185.142.285.258.426.391.44.438.501.558.647.078.238.286.669.393.896-.913-1.206-1.831-2.099-2.956-3.119zm3.325 2.376c.709.641 1.406 1.466 1.948 2.245-.543-.567-1.596-1.833-1.948-2.245zm1.825 4.464c-.048-.152-.575-1.159-1.253-2.576.431.734.957 1.751 1.305 2.555a.63.63 0 0 0-.052.02zm.071.402c.017-.023.014-.019.002-.002zm0 0zm-17.153-3.367c.965.76 2.153 2.771 2.321 4.222-1.163 2.363-5.488-.066-5.15-3.698.1-.578.311-1.134.523-1.68.783.251 1.642.638 2.307 1.156zm-3.295 3.667c-.037-.011-.074-.013-.112-.001a8.94 8.94 0 0 1-.065-.35c.179.39.11.223.177.351zm.739 1.731zm1.388.931a6.34 6.34 0 0 1-.954-.531l-.315-.474c.213.2 1.138.907 1.269 1.005zm1.662.128a4.9 4.9 0 0 1-.289.055 2.9 2.9 0 0 1-.254-.084 3.55 3.55 0 0 0 .543.029zM4.044 26.441c.148-.144.569-.44.547-.626a22.49 22.49 0 0 1 3.829-1.62c-3.008 1.098-3.171 1.625-4.376 2.246zm-.739.188c-.898.961-1.406 1.232-1.921 1.875.092-.607-.004-.736 1.921-1.875zm34.543 8.059c.633.253 1.038.021 1.948-.489.666-.375.999-.428 1.008-.84.28-.006.475-.285.402-.542-4.213-14.808-19.537-15.106-23.589-9.239-2.056-.654-4.52-.954-6.532-.954-3.266.047-8.545 2.734-10.282 4.304-.525.474-.758 1.224-.802 3.558-.015.952.5 1.211.911 1.096.462-.128.704-.709 1.313-1.508 5.723-7.326 13.907-5.234 12.326-5.438a26.1 26.1 0 0 1 1.764.359c-1.25 1.96-.706 6.075.616 7.773 2.288 2.924 7.329.961 7.182-1.884-.133-3.037-1.523-5.388-5.256-6.859 7.941-4.724 15.942.168 18.309 9.208.152.602.276 1.149.681 1.456z" fill="url(#E)"/><path d="M9.445 49.712c-1.655-2.822-3.286-4.035-3.677-4.447.142-.23 1.224-.816 1.461-.947 2.72-1.514 5.924-3.498 10.108-4.229-3.063 1.528-6.147 4.707-7.891 9.624zm-3.682-4.44zm-.029-.043h-.001c-.006-.012-.01-.023-.014-.035a.5.5 0 0 0 .015.035zm14.346-5.402c.832-.272 1.292-.289 1.292-.669 0-.235-.235-.403-.444-.339-.774.244-2.133.368-1.932.349-4.131.536-6.387.784-10.846 3.479-4.623 2.792-3.377 2.479-1.78 4.543 2.827 3.603 2.333 4.49 3.232 4.49.602 0 .708-.688.871-1.221 1.225-4.03 3.34-6.953 5.34-8.5 1.799-1.31 2.13-1.43 4.267-2.133z" fill="url(#F)"/><path d="M11.742 43.329c-.952 1.075-1.771 1.902-2.464 3.904-.128.38.488.606.629.172.642-1.992 1.197-2.557 2.211-3.702.252-.281-.158-.621-.376-.374z" fill="url(#G)"/><path d="M16.867 7.385a.38.38 0 0 0-.463.262c-.229.833 1.506.368 5.426 1.807.193.072.352.159.458-.024.056-.098.028-.256-.081-.302-3.355-1.441-2.287-.965-5.34-1.742z" fill="url(#H)"/><path d="M41.855 10.532c.541 2.86.384 2.986.68 2.986.131 0 .253-.11.253-.243 0-3.876-1.273-6.48-1.991-8.281-.228-.573-.93-.201-.767.211.691 1.721 1.503 3.5 1.825 5.327z" fill="url(#I)"/><defs><linearGradient id="A" x1="45.258" y1="2.236" x2="28.065" y2="4.661" xlink:href="#J"><stop stop-color="#6a2e0e"/><stop offset="1" stop-color="#bc9986"/></linearGradient><linearGradient id="B" x1="29.2" y1="0" x2="10.425" y2="6.015" xlink:href="#J"><stop stop-color="#6a2e0e"/><stop offset="1" stop-color="#bc9986"/></linearGradient><linearGradient id="C" x1="36.88" y1="42.351" x2="14.624" y2="46.823" xlink:href="#J"><stop stop-color="#6a2e0e"/><stop offset="1" stop-color="#bc9986"/></linearGradient><linearGradient id="D" x1="50.999" y1="29.761" x2="32.6" y2="32.663" xlink:href="#J"><stop stop-color="#6a2e0e"/><stop offset="1" stop-color="#bc9986"/></linearGradient><linearGradient id="E" x1="41.221" y1="20.019" x2="9.083" y2="46.019" xlink:href="#J"><stop stop-color="#6a2e0e"/><stop offset="1" stop-color="#bc9986"/></linearGradient><linearGradient id="F" x1="21.372" y1="38.805" x2="2.714" y2="45.716" xlink:href="#J"><stop stop-color="#6a2e0e"/><stop offset="1" stop-color="#bc9986"/></linearGradient><linearGradient id="G" x1="12.197" y1="43.243" x2="8.546" y2="43.95" xlink:href="#J"><stop stop-color="#6a2e0e"/><stop offset="1" stop-color="#bc9986"/></linearGradient><linearGradient id="H" x1="22.316" y1="7.373" x2="17.624" y2="11.1" xlink:href="#J"><stop stop-color="#6a2e0e"/><stop offset="1" stop-color="#bc9986"/></linearGradient><linearGradient id="I" x1="42.787" y1="4.7" x2="39.228" y2="5.026" xlink:href="#J"><stop stop-color="#6a2e0e"/><stop offset="1" stop-color="#bc9986"/></linearGradient><linearGradient id="J" gradientUnits="userSpaceOnUse"/></defs></svg>