<svg width="51" height="69" viewBox="0 0 51 69" fill="none" xmlns="http://www.w3.org/2000/svg">
<path d="M33.2286 5.7611C34.7218 4.88554 39.9997 3.4773 40.8826 3.45895C42.4151 4.88605 45.6431 13.8047 43.2466 24.9809C43.4542 17.5287 39.6238 9.35717 33.2286 5.7611ZM42.1975 23.6738C42.0843 29.4525 41.4945 29.9762 42.1608 30.166C43.0799 30.4014 43.6823 26.8793 44.2789 24.4561C45.8518 18.0535 45.695 9.63608 42.5928 3.75831C41.4892 1.67585 41.0022 1.91021 36.184 3.37401C35.7714 3.50089 32.2702 4.43568 31.737 5.49422C31.5587 5.85073 31.7328 6.20778 31.9944 6.35877C32.7064 6.7824 34.0659 6.78449 37.1497 10.7497C40.3154 14.9665 42.2877 18.2862 42.1975 23.6738Z" fill="url(#paint0_linear_200_6269)"/>
<path d="M27.1668 12.1444C27.1505 12.2231 27.162 12.3028 27.2098 12.3651C27.3267 12.5188 28.0449 13.4682 28.1561 13.6255C27.0472 13.204 24.3655 11.2757 22.6825 10.5186C20.9823 9.76104 16.8425 8.61022 14.5121 8.82517C15.8485 5.38115 16.4672 5.83099 18.3105 1.3536C19.4682 2.57151 22.2846 4.9785 27.1668 12.1444ZM18.7467 0.379473C18.3886 -0.0976267 17.964 -0.0824289 17.6746 0.189675C17.4638 0.387331 17.3228 0.746999 17.1073 1.19421C15.1784 5.24851 11.0387 10.4342 14.4633 9.94348C16.9988 9.66928 21.1354 10.7729 23.2367 11.8687C26.1166 13.3702 29.1999 15.3399 29.1999 14.1655C29.1999 13.6082 23.4595 5.58561 21.3147 3.22213C20.0837 1.86895 19.163 0.93469 18.7467 0.379473Z" fill="url(#paint1_linear_200_6269)"/>
<path d="M33.6513 52.3316C33.4453 52.2529 32.964 52.3148 32.7385 52.3358C33.3609 52.113 33.6807 52.0023 34.4981 51.7821C34.1903 51.9777 33.9863 52.1077 33.6513 52.3316ZM28.0237 57.738C28.0451 57.5813 28.0095 57.8639 28.0913 57.2232C28.0939 57.2227 28.0965 57.2221 28.0991 57.2216C28.3492 58.0196 27.935 56.4478 28.8006 60.414C28.4043 59.0618 28.1615 57.92 28.0237 57.738ZM26.358 58.2948C26.5693 57.8256 26.638 57.6568 26.8089 57.2478C26.8183 57.4969 26.8272 57.5986 26.843 57.8072C26.6972 57.9367 26.6191 58.0065 26.358 58.2948ZM24.4444 60.4119C24.6509 60.1272 25.4373 58.9203 25.603 58.6623C25.6261 58.7924 25.7346 58.8663 25.8605 58.8485C24.966 59.8499 25.0955 59.7067 24.4444 60.4119ZM20.6255 64.5055C21.2258 63.8648 21.3317 63.4108 22.4159 62.1389C22.4846 62.2317 22.5926 62.2904 22.7053 62.3051C22.072 63.004 21.2798 63.8806 20.6255 64.5055ZM22.0604 50.6738C21.9949 50.7168 21.9624 50.732 21.8953 50.8154C21.8077 50.7152 21.7196 50.6156 21.6326 50.5149C21.8654 50.6025 21.8544 50.5978 22.0604 50.6738ZM26.7119 51.1383C26.6951 51.3701 26.6799 51.6018 26.661 51.8335C26.6411 51.8215 26.6217 51.8089 26.6018 51.7973C26.638 51.5777 26.6747 51.358 26.7119 51.1383ZM28.16 44.277C28.2145 44.6435 28.2591 44.967 28.3104 45.3434C28.2496 45.1447 28.1993 44.9649 27.9932 44.9429C28.0446 44.72 28.0976 44.4977 28.16 44.277ZM28.883 55.977C28.8389 56.1175 28.8279 56.3518 28.8221 56.4991C28.7299 56.2323 28.743 56.2753 28.7094 56.0897C28.7676 56.0519 28.8253 56.0142 28.883 55.977ZM22.8049 61.753C22.8112 61.7215 22.8175 61.6901 22.8238 61.6592C23.3051 61.0935 25.5878 58.2718 25.2654 57.5965C25.366 57.4486 25.4027 57.3931 25.7194 56.9448C25.6602 57.2326 25.5915 57.5656 25.5585 57.8586C25.0158 58.7562 23.5578 61.0305 22.8049 61.753ZM25.7304 54.4219C25.7089 54.4502 25.6932 54.4838 25.679 54.5184C25.5946 54.4162 25.5495 54.3716 25.4893 54.3145C25.6146 54.3763 25.592 54.3726 25.7304 54.4219ZM22.7976 51.0178C22.8054 51.0109 22.8138 51.0041 22.8227 50.9978C22.8143 51.0046 22.806 51.0109 22.7981 51.0178H22.7976ZM24.7359 51.9641C24.5482 51.9992 24.3799 52.2116 24.5136 52.4354C24.4375 52.4045 24.3615 52.3735 24.2855 52.3431C23.6962 51.8975 22.9192 51.4167 22.7934 51.0246C23.0351 50.8982 24.5288 51.7869 24.7359 51.9641ZM29.1131 53.8856C29.1073 53.8709 29.1021 53.8568 29.0963 53.8426C29.7045 53.4164 29.9373 53.3781 30.3489 53.1636H30.3478C30.5145 53.0923 31.4425 52.9392 31.6208 52.9146C31.6292 52.9461 31.6286 52.9503 31.6286 52.9587C30.3955 53.4116 29.4853 53.6837 29.1131 53.8856ZM29.3994 55.0233C29.392 54.973 29.3842 54.9226 29.3758 54.8728C29.5058 54.7884 29.6369 54.7061 29.7695 54.6259C29.9677 54.5808 30.1428 54.5404 30.341 54.4843C29.8026 54.8597 30.1454 54.6275 29.3994 55.0233ZM29.2866 54.2772C29.4712 54.1656 29.9069 54.0109 30.1103 53.9412C29.9514 54.025 29.7952 54.1126 29.6411 54.2033C29.5231 54.2311 29.4057 54.2578 29.2866 54.2772ZM29.316 59.8834C29.4628 60.7878 29.4974 61.0085 29.7884 62.7177C29.7019 62.3591 29.0187 59.2464 28.9417 58.8867C29.1986 59.6506 29.165 59.5604 29.316 59.8834ZM28.8321 55.2445C28.8609 55.2209 28.8709 55.212 28.9212 55.1758C28.9233 55.1926 28.9254 55.2099 28.9275 55.2272C28.8641 55.2519 28.8845 55.244 28.8284 55.2655C28.83 55.2587 28.831 55.2519 28.8321 55.2445ZM28.8326 55.2414C28.8672 55.2173 28.873 55.2104 28.8326 55.2414V55.2414ZM28.9217 55.1753C28.9301 55.2314 28.9312 55.2361 28.9217 55.1753V55.1753ZM27.8485 54.5829C27.8029 54.5693 27.7563 54.5661 27.7122 54.585C27.7741 54.3318 27.8276 54.0764 27.8674 53.82C27.88 53.8132 27.8947 53.8096 27.9046 53.8006C27.9429 54.0785 27.944 53.9841 27.9251 54.4261C27.8962 54.4749 27.88 54.5016 27.8485 54.5829ZM27.6661 55.773C27.6881 55.849 27.7101 55.9245 27.7321 56.0006C27.7285 56.0032 27.7248 56.0058 27.7211 56.0084C27.6986 55.9219 27.6839 55.8548 27.6661 55.773ZM25.56 52.8019C25.3136 52.6441 25.0179 52.4207 24.9592 52.3657C24.9749 52.3709 25.2717 52.4779 25.2795 52.4805C25.3351 52.5392 25.4982 52.7169 25.5627 52.7867C25.5621 52.7919 25.5606 52.7966 25.56 52.8019ZM26.5567 53.2795C26.5488 53.2313 26.5404 53.1825 26.5321 53.1343C26.542 53.14 26.5525 53.1458 26.5625 53.1521C26.5604 53.1946 26.5593 53.237 26.5567 53.2795ZM26.1058 54.6133C26.1048 54.6149 26.1037 54.6164 26.1027 54.618C26.1042 54.6149 26.1027 54.6159 26.1058 54.6133ZM26.1048 54.6138C26.1278 54.5813 26.1483 54.5567 26.1069 54.6122C26.1063 54.6128 26.1053 54.6133 26.1048 54.6138ZM26.174 54.574C26.1724 54.5745 26.1708 54.575 26.1698 54.5755C26.1708 54.575 26.1719 54.5745 26.1729 54.574C26.1729 54.574 26.1734 54.574 26.174 54.574ZM26.2038 54.5609C26.1949 54.5656 26.186 54.5692 26.1766 54.5729C26.1761 54.5729 26.1755 54.5729 26.175 54.5729C26.1845 54.5687 26.1944 54.5645 26.2038 54.5609ZM27.8187 52.5434C27.7778 52.4663 27.762 52.4244 27.708 52.3751C27.675 51.6112 27.7442 50.915 27.7877 50.1951C27.944 52.0296 27.9099 51.886 27.8187 52.5434ZM22.1941 51.066C22.1973 51.0335 22.202 51.0114 22.1941 51.0654V51.066ZM22.365 50.9543C22.3535 51.2091 22.4783 51.3674 22.6361 51.5667C22.6398 51.5766 22.6445 51.585 22.6492 51.5945C22.4757 51.4828 22.3734 51.3543 22.2004 51.1619C22.18 51.0765 22.1873 51.0109 22.365 50.9543ZM25.0698 53.506C21.8219 50.98 25.042 53.4845 25.0483 53.4892C24.965 53.4232 24.8874 53.3508 24.8077 53.2811C24.8737 53.3146 25.16 53.5626 25.2156 53.6119C25.1647 53.5763 25.1149 53.5396 25.0662 53.5029C25.0672 53.5039 25.0683 53.505 25.0698 53.506ZM26.2809 57.3364C26.272 57.3579 26.2736 57.3532 26.2809 57.3364V57.3364ZM26.066 55.6C26.1263 55.3379 26.077 55.1523 25.9763 54.952C26.0838 54.5389 26.1273 54.5703 26.3244 54.5719C26.3008 54.7045 26.2804 54.8062 26.2951 54.9404C26.2295 55.1098 26.1797 55.2414 26.066 55.6ZM27.2655 57.5189C27.2398 57.0774 27.2404 56.6344 27.244 56.1924C27.3148 56.4666 27.4773 56.8855 27.6713 57.0968C27.654 57.2289 27.6372 57.3611 27.6199 57.4932C27.4595 57.4623 27.3672 57.4822 27.2655 57.5189ZM28.4908 54.3737C28.4808 54.4565 28.4709 54.5394 28.4604 54.6217C28.4509 54.5614 28.442 54.5006 28.4331 54.4398C28.452 54.4172 28.4714 54.3952 28.4908 54.3737ZM28.3702 53.8814C28.3728 53.6643 28.3775 53.8059 28.3775 53.5511C28.4195 53.6019 28.4777 53.6953 28.5118 53.7519C28.4635 53.7938 28.4163 53.8373 28.3702 53.8814ZM20.7177 49.4386C20.7188 49.4402 20.7198 49.4412 20.7204 49.4423C20.7198 49.4412 20.7177 49.4386 20.7177 49.4386ZM36.8636 50.8332C36.5905 49.6336 33.1795 51.1981 30.1633 52.0904C28.8793 45.6968 29.2704 41.7143 28.0273 42.4352C27.3604 42.8258 26.0266 50.3933 25.8673 51.3538C24.2346 50.3629 24.1916 50.2449 20.886 49.1266C20.5935 49.0255 20.2144 48.8776 19.9266 49.0653C18.5524 49.9608 24.6132 54.8639 24.944 55.3829C21.7181 59.9862 19.5606 64.2051 18.964 65.7764C18.8964 66.0794 18.9111 66.4485 19.1873 66.567C19.6267 66.7573 19.7567 66.6278 20.6029 65.9305C22.2188 64.5857 26.1682 60.1623 27.0983 59.1054C27.1816 59.2852 27.2949 59.5657 27.4721 59.5751C27.674 60.3374 29.6463 66.6325 30.2104 67.7388C30.557 68.3878 31.1542 68.3684 31.334 67.9941C31.8861 66.8103 29.7753 56.7461 29.9095 56.2339C30.05 56.0902 31.0304 55.47 31.2066 55.3541C32.2347 54.6699 32.9357 54.089 33.6382 53.5784C34.5935 52.8858 35.4066 52.4621 36.2885 51.7832C36.6188 51.5268 36.958 51.2406 36.8636 50.8332Z" fill="url(#paint2_linear_200_6269)"/>
<path d="M42.6569 48.0554C42.8268 47.8116 42.7403 47.626 42.5154 47.4609C42.82 47.3262 43.1561 47.0577 43.1466 46.7279C43.177 46.7169 43.2069 46.7033 43.2378 46.6928C44.0667 46.6855 44.6807 46.5098 45.2584 46.232C45.2983 46.3012 45.3381 46.3709 45.3774 46.4406C44.0169 47.5778 43.3448 47.8599 42.6569 48.0554ZM37.7381 46.1093C37.9017 46.2383 38.0715 46.3934 38.2781 46.4301C38.2781 46.4322 38.2734 46.4721 38.2676 46.5109C38.3164 46.869 38.7521 46.9471 39.3162 47.1374C39.9595 47.5322 41.0416 48.0958 41.774 48.2138C40.2421 48.3071 38.5518 47.5474 37.7381 46.1093ZM39.1327 42.3439C38.8595 42.4634 38.8941 42.4424 39.054 42.3711C39.0792 42.3606 39.107 42.3538 39.1327 42.3439ZM41.9953 47.1285C41.9785 47.1185 41.9617 47.1091 41.945 47.0991C42.1122 47.0588 42.2585 47.0205 42.4907 46.9471C42.3633 47.0294 42.238 47.086 41.9953 47.1285ZM41.8983 47.6035C42.0766 47.7073 42.1316 47.7472 42.1835 47.786C41.9727 47.7833 41.719 47.7524 41.2823 47.5946C41.4427 47.6061 41.7321 47.6161 41.8983 47.6035ZM40.888 46.3725C41.2534 46.4616 41.623 46.5324 41.9927 46.5906C41.7746 46.6488 41.4967 46.7159 41.2723 46.7311C41.0201 46.6058 40.7617 46.4915 40.4974 46.395C40.6138 46.3725 40.7674 46.3756 40.888 46.3725ZM39.527 46.1376C39.5332 46.0747 39.5249 45.9992 39.4944 45.92C39.637 45.9803 39.7828 46.0327 39.9291 46.0852C39.874 46.1156 39.8331 46.1418 39.7865 46.1832C39.7005 46.1643 39.6145 46.1502 39.527 46.1376ZM39.5794 46.6105C39.5909 46.6828 39.6046 46.7164 39.624 46.75C39.5343 46.7201 39.4011 46.6267 39.3157 46.5701C39.3912 46.5785 39.4499 46.5864 39.5794 46.6105ZM37.8487 44.7928C37.8461 44.7986 37.8435 44.8049 37.8403 44.8101C37.8424 44.8049 37.845 44.7986 37.8471 44.7933C37.8477 44.7933 37.8482 44.7933 37.8487 44.7928ZM37.8555 44.775C37.855 44.7766 37.8545 44.7781 37.854 44.7797L37.8534 44.7802C37.854 44.7787 37.8545 44.7771 37.8555 44.775ZM37.6516 44.5286C37.7171 44.5632 37.7937 44.6104 37.8524 44.6623C37.8587 44.6979 37.8686 44.7509 37.8508 44.7797C37.7889 44.7645 37.6836 44.5836 37.6516 44.5286ZM37.4938 43.9267C37.5273 43.9623 37.5488 43.9854 37.6144 44.0861C37.5656 44.0787 37.5095 44.0771 37.4613 44.0798C37.4539 44.0446 37.4508 44.0074 37.4938 43.9267ZM37.8545 44.6644C37.8545 44.6649 37.855 44.6649 37.855 44.6649C37.8571 44.6785 37.8561 44.678 37.8545 44.6644ZM38.0998 44.1448C38.0086 43.9503 37.8907 43.7589 37.737 43.6111C37.9211 43.436 38.1806 43.2357 38.707 42.9783C38.329 43.3227 38.1392 43.7301 38.0998 44.1448ZM39.1904 44.5118C38.5712 43.5162 41.5559 41.5747 44.6345 45.3192C42.9442 46.0951 39.6994 45.0875 39.1904 44.5118ZM45.6768 44.6534C45.5945 44.7262 45.5363 44.7828 45.4509 44.8452C44.3729 43.4994 43.0853 42.6841 41.9161 42.3528C41.9623 42.3066 41.9953 42.2505 42.0115 42.1866C43.6022 42.5992 44.8065 43.253 45.6768 44.6534ZM38.5219 45.9814C38.3562 45.845 37.8865 45.4471 37.748 45.293C37.9819 45.2993 38.212 45.3858 38.4139 45.499C38.4742 45.6243 38.5796 45.8555 38.5219 45.9814ZM39.0729 46.0694C39.0729 46.07 39.0729 46.07 39.0729 46.0705C39.0692 46.0621 39.0703 46.0637 39.0729 46.0694ZM39.074 46.0967C39.009 46.0957 38.9717 46.0962 38.8936 46.103C38.9266 46.0175 38.9324 45.962 38.9319 45.8901C38.9822 45.9426 39.0708 46.0244 39.074 46.0967ZM39.0792 46.0831C39.0787 46.0831 39.0787 46.0836 39.0787 46.0836C39.0777 46.0805 39.0761 46.0768 39.0745 46.0736C39.0745 46.0731 39.0745 46.0726 39.0745 46.0721C39.0761 46.0752 39.0776 46.0794 39.0792 46.0831ZM39.0818 46.0899V46.0904C39.0813 46.0894 39.0803 46.0878 39.0798 46.0867L39.0803 46.0857C39.0808 46.0873 39.0813 46.0883 39.0818 46.0899ZM39.0839 46.0957C39.0839 46.0957 39.0834 46.0946 39.0834 46.0941C39.0834 46.0941 39.0839 46.0946 39.0839 46.0951V46.0957ZM39.0845 46.0962V46.0967C39.0845 46.0967 39.0839 46.0967 39.0839 46.0962H39.0845ZM42.6858 46.7269V46.7274C42.6858 46.7269 42.6858 46.7264 42.6858 46.7264L42.6853 46.7258C42.6858 46.7264 42.6858 46.7269 42.6858 46.7269ZM47.4054 46.9502C47.4064 46.9555 47.5045 47.5086 47.5359 47.6926C47.4924 47.603 47.4473 47.5128 47.4017 47.4237C47.5344 47.2161 47.1789 46.6042 47.0709 46.383C47.3404 46.8213 47.2492 46.6766 47.4054 46.9502ZM49.8585 55.2051C49.8569 55.2072 49.8549 55.2098 49.8528 55.2125C49.8549 55.2098 49.8569 55.2072 49.8585 55.2046V55.2051ZM49.858 55.1747C49.8386 55.1899 49.8423 55.1873 49.858 55.1747V55.1747ZM49.4061 55.3897C49.3348 54.9781 49.2598 54.0092 48.9971 52.8526C49.0144 52.8422 49.0312 52.8327 49.0448 52.8181C49.1502 53.1499 49.3657 54.1036 49.7138 54.0868C49.7421 54.2729 49.8486 54.9728 49.8575 55.1616C49.6981 55.2565 49.566 55.3115 49.4061 55.3897ZM47.0678 32.1906C47.0892 32.2262 47.0845 32.2173 47.0934 32.2456C47.085 32.2273 47.0767 32.2089 47.0678 32.1906ZM46.4716 31.4298C46.3484 31.2379 46.2216 31.0481 46.1057 30.8793C46.3065 30.8657 46.5073 30.8563 46.7086 30.8516C46.7511 31.0377 46.7537 31.0618 46.825 31.325C46.7369 31.3124 46.5382 31.3412 46.4716 31.4298ZM47.97 30.9145C48.0639 31.0665 48.1247 31.2946 48.1735 31.4739C48.0497 31.2117 48.0141 31.1441 47.8841 30.8971C47.9134 30.9024 47.9417 30.9082 47.97 30.9145ZM48.7371 34.8392C48.6511 34.6924 48.5436 34.4948 48.4424 34.2919C48.4692 34.0932 48.0356 32.599 47.9769 32.4076C48.3664 33.3477 48.5515 34.1136 48.7371 34.8392ZM48.8058 39.1693C48.8409 39.2008 48.8849 39.2186 48.9384 39.2186C48.8933 39.6795 48.7706 40.285 48.6763 40.7264C48.7864 39.896 48.7837 39.5809 48.8058 39.1693ZM48.9767 35.8249C48.9992 36.2365 49.0265 37.1524 49.0197 37.7071C48.9447 36.9935 48.8865 36.4221 48.7455 35.6965C48.8168 35.7484 48.898 35.7856 48.9767 35.8249ZM50.0986 56.3051C50.7346 56.0267 50.9994 55.7478 50.9994 55.2188C50.9994 54.8072 50.5532 51.479 50.0651 49.8847C49.5471 48.2022 48.7575 46.718 47.7483 45.2421C50.6345 41.3913 50.4158 35.6372 49.1167 31.0235C48.844 30.0515 48.6343 29.6892 46.1759 29.8743C45.5777 29.7705 44.7719 29.5692 44.6487 30.2093C44.462 30.4908 44.6041 30.8626 44.9245 30.9632C45.9096 32.4501 46.2913 33.1285 46.9917 34.7344C48.0099 37.3092 48.1001 41.288 46.5503 43.6682C43.317 40.0522 37.7003 40.4811 36.6077 43.663C35.3238 45.3837 39.637 52.3991 45.8252 47.2826C46.8711 49.3567 47.8856 52.1433 48.2233 54.6363C48.347 55.6937 48.347 56.1934 48.7984 56.5074C49.1848 56.7806 49.5985 56.5426 50.0986 56.3051Z" fill="url(#paint3_linear_200_6269)"/>
<path d="M25.2001 21.1445C25.5587 21.0748 25.8156 21.0428 26.1427 21.0182C26.1983 21.0591 27.422 21.1755 27.4907 21.1828C28.0286 21.2609 28.2629 21.3338 28.6095 21.4544C28.9482 21.575 29.4657 22.1228 29.6476 21.8093C29.6633 21.7821 29.6717 21.7475 29.6707 21.7123C30.5074 22.2681 30.0618 21.9535 30.8854 22.5601C30.8776 22.6975 32.7708 24.1838 33.0292 24.0884C33.5519 24.6174 34.0699 25.1108 34.8081 26.0969C32.5736 23.433 28.6593 21.0449 25.2001 21.1445ZM39.2514 29.93C39.1943 29.9258 39.1424 29.9399 39.0999 29.9787C39.0103 29.8 38.7434 29.1892 38.584 29.0932C38.3523 28.9024 38.1358 28.9863 38.2616 29.5431C37.8563 28.7551 37.5779 28.3199 37.32 27.9083C37.6261 28.2103 38.2301 28.8631 38.4923 28.5223C38.7743 28.9564 39.0396 29.4801 39.2514 29.93ZM40.3189 32.8487C40.1212 32.8419 39.9928 32.9425 39.8114 33.0395C39.8103 32.9782 39.824 32.9829 39.7652 32.7045C39.7789 32.6442 39.7893 32.5829 39.7983 32.5215C39.9036 32.6987 40.2497 32.6227 40.1296 32.2641C39.9923 31.8525 39.8727 31.8337 39.7736 31.1589C39.9304 31.5705 39.9236 31.4955 40.3189 32.8487ZM38.8913 32.1613C38.9395 32.3323 38.9893 32.5026 39.038 32.6736C38.9049 32.5472 38.8215 32.3847 38.7403 32.2117C38.8173 32.1944 38.8609 32.1765 38.8913 32.1613ZM38.7266 31.7943C38.7261 31.7954 38.7256 31.7959 38.7251 31.7969C38.6915 31.8169 38.615 31.8347 38.5819 31.8363C38.3727 31.2575 38.401 31.1364 38.2417 30.3746C38.4813 30.869 38.821 31.5128 38.7266 31.7943ZM38.3806 33.7934C38.1777 33.2361 38.1043 32.7879 37.8836 32.0114C37.9648 32.0675 38.0529 32.1194 38.1442 32.1571C38.2128 32.4953 38.2501 32.9593 38.5463 32.7123C38.6978 32.9519 38.9615 33.1915 39.2619 33.2136C39.2771 33.2345 39.3159 33.2823 39.3369 33.2996C39.1057 33.4322 38.6328 33.7247 38.3806 33.7934ZM37.386 28.7336C37.386 28.7336 37.3808 28.7288 37.8007 29.4917C37.7745 29.4875 37.7483 29.4833 37.7216 29.4796C37.6151 29.229 37.5029 28.9805 37.386 28.7336ZM37.2602 30.2241C37.2361 30.0333 37.3158 29.9242 37.4579 29.8796C37.742 30.588 37.8841 31.0493 38.0241 31.6192C37.6712 31.3047 37.3179 30.5376 37.2597 30.2168C37.2597 30.2194 37.2602 30.2215 37.2602 30.2241ZM32.1091 22.7079C32.5228 22.9711 33.4497 23.5678 33.856 23.8577C33.8235 24.0428 33.9976 24.1429 34.1145 24.2834C34.5056 24.7233 34.5528 24.7846 34.6729 24.9304C34.751 25.1684 34.9586 25.5994 35.0655 25.8264C34.1522 24.62 33.2347 23.7277 32.1091 22.7079ZM35.4341 25.0835C36.1429 25.7247 36.8403 26.5494 37.3818 27.3285C36.8387 26.7612 35.7854 25.4956 35.4341 25.0835ZM37.2592 29.5473C37.2114 29.3952 36.6845 28.388 36.0061 26.9714C36.4371 27.7054 36.9629 28.722 37.3116 29.5268C37.2938 29.5326 37.2765 29.5399 37.2592 29.5473ZM37.3299 29.9494C37.3467 29.9268 37.3436 29.9305 37.3315 29.9478C37.331 29.9483 37.3305 29.9489 37.3299 29.9494ZM37.3299 29.9499C37.3215 29.962 37.3231 29.9583 37.3284 29.9509C37.3289 29.9504 37.3294 29.9499 37.3299 29.9499ZM20.1774 26.5824C21.1421 27.3421 22.3307 29.3533 22.4979 30.8045C21.3345 33.1674 17.0102 30.739 17.3478 27.1062C17.448 26.5279 17.6587 25.9722 17.8706 25.4264C18.6533 25.6775 19.5121 26.0644 20.1774 26.5824ZM16.8823 30.2493C16.8456 30.2382 16.8084 30.2367 16.7706 30.2487C16.7465 30.1324 16.725 30.0154 16.7056 29.8985C16.8844 30.2881 16.8152 30.1213 16.8823 30.2493ZM17.621 31.9804C17.621 31.9804 17.6205 31.9794 17.6199 31.9789C17.6205 31.9794 17.6205 31.9799 17.621 31.9804ZM19.0093 32.9116C18.8122 32.8345 18.3487 32.5829 18.0551 32.381C18.0189 32.3275 17.7736 31.9647 17.74 31.9065C17.9534 32.1063 18.8777 32.813 19.0093 32.9116ZM20.6713 33.04C20.5754 33.061 20.4789 33.0794 20.3819 33.0946C20.2959 33.0704 20.2115 33.0427 20.1281 33.0107C20.308 33.0343 20.4899 33.0442 20.6713 33.04ZM4.04411 26.4409C4.19248 26.2972 4.61348 26.001 4.59094 25.8149C5.80518 25.1569 7.18038 24.5854 8.4198 24.1954C5.41197 25.2932 5.2484 25.8201 4.04411 26.4409ZM3.30488 26.6291C2.40678 27.5906 1.89874 27.8612 1.38389 28.5044C1.47564 27.8973 1.38023 27.7689 3.30488 26.6291ZM37.8479 34.6884C38.4813 34.9416 38.886 34.7094 39.7957 34.1998C40.4615 33.8244 40.7944 33.7719 40.8033 33.3598C41.0833 33.3536 41.2783 33.0746 41.2049 32.8177C36.9923 18.0098 21.6674 17.712 17.6163 23.5783C15.5606 22.9245 13.0959 22.6241 11.0847 22.6241C7.81844 22.6712 2.53993 25.3577 0.802453 26.9279C0.277644 27.4019 0.0443469 28.1516 0.000306939 30.4857C-0.014373 31.4373 0.500469 31.6968 0.911508 31.582C1.3734 31.4536 1.61563 30.8732 2.22485 30.0742C7.94794 22.7478 16.1315 24.8402 14.5513 24.6363C15.1438 24.7359 15.7315 24.8549 16.315 24.9949C15.0651 26.9552 15.6093 31.0703 16.931 32.7679C19.2195 35.6919 24.26 33.7284 24.1132 30.8836C23.9806 27.847 22.5902 25.4956 18.8573 24.0244C26.7981 19.3006 34.7997 24.1927 37.1664 33.2325C37.3189 33.8343 37.4426 34.3812 37.8479 34.6884Z" fill="url(#paint4_linear_200_6269)"/>
<path d="M9.4445 49.7115C7.78986 46.8893 6.15827 45.6761 5.76716 45.264C5.90924 45.0338 6.99085 44.4477 7.22782 44.3166C9.94781 42.803 13.1517 40.8186 17.3355 40.0872C14.2726 41.6149 11.1888 44.7942 9.4445 49.7115ZM5.76297 45.2713C5.76455 45.2729 5.76558 45.2745 5.76663 45.276C5.76558 45.2745 5.76455 45.2734 5.76297 45.2713ZM5.73361 45.2278H5.73308C5.72732 45.2163 5.7226 45.2047 5.71893 45.1927C5.72312 45.2042 5.72837 45.2163 5.73361 45.2278ZM20.0796 39.8261C20.9111 39.5545 21.372 39.5372 21.372 39.1571C21.372 38.9217 21.1366 38.7545 20.9284 38.8184C20.1546 39.0622 18.7957 39.1865 18.9965 39.1676C14.8651 39.7034 12.6096 39.9519 8.15004 42.6468C3.5269 45.4391 4.77311 45.1261 6.36956 47.1902C9.19703 50.7936 8.70264 51.6802 9.60126 51.6802C10.2031 51.6802 10.3096 50.9918 10.4726 50.4591C11.6973 46.4289 13.8123 43.506 15.813 41.9589C17.6123 40.6492 17.9426 40.5286 20.0796 39.8261Z" fill="url(#paint5_linear_200_6269)"/>
<path d="M11.7415 43.3286C10.7894 44.4033 9.97045 45.2307 9.27787 47.2324C9.14994 47.6125 9.76598 47.8385 9.90648 47.4044C10.5482 45.4126 11.1039 44.8474 12.1179 43.7029C12.3701 43.4219 11.9601 43.0816 11.7415 43.3286Z" fill="url(#paint6_linear_200_6269)"/>
<path d="M16.867 7.3854C16.6678 7.33402 16.4607 7.4462 16.404 7.647C16.1749 8.48009 17.9098 8.01505 21.8299 9.45369C22.0233 9.52551 22.1817 9.61255 22.2881 9.42957C22.3442 9.33205 22.3164 9.17321 22.2073 9.12759C18.8524 7.68686 19.9199 8.16291 16.867 7.3854Z" fill="url(#paint7_linear_200_6269)"/>
<path d="M41.8546 10.5317C42.3952 13.3917 42.2389 13.5181 42.5341 13.5181C42.6652 13.5181 42.7868 13.408 42.7868 13.2748C42.7868 9.3993 41.5133 6.79464 40.7956 4.99372C40.568 4.4212 39.8655 4.79292 40.0291 5.20449C40.7196 6.92519 41.5317 8.70461 41.8546 10.5317Z" fill="url(#paint8_linear_200_6269)"/>
<defs>
<linearGradient id="paint0_linear_200_6269" x1="45.2584" y1="2.23572" x2="28.065" y2="4.66104" gradientUnits="userSpaceOnUse">
<stop stop-color="#6A2E0E"/>
<stop offset="1" stop-color="#BC9986"/>
</linearGradient>
<linearGradient id="paint1_linear_200_6269" x1="29.1999" y1="-0.000240759" x2="10.425" y2="6.01531" gradientUnits="userSpaceOnUse">
<stop stop-color="#6A2E0E"/>
<stop offset="1" stop-color="#BC9986"/>
</linearGradient>
<linearGradient id="paint2_linear_200_6269" x1="36.8796" y1="42.3513" x2="14.6242" y2="46.8225" gradientUnits="userSpaceOnUse">
<stop stop-color="#6A2E0E"/>
<stop offset="1" stop-color="#BC9986"/>
</linearGradient>
<linearGradient id="paint3_linear_200_6269" x1="50.9994" y1="29.7605" x2="32.6002" y2="32.6629" gradientUnits="userSpaceOnUse">
<stop stop-color="#6A2E0E"/>
<stop offset="1" stop-color="#BC9986"/>
</linearGradient>
<linearGradient id="paint4_linear_200_6269" x1="41.2205" y1="20.0189" x2="9.08338" y2="46.0189" gradientUnits="userSpaceOnUse">
<stop stop-color="#6A2E0E"/>
<stop offset="1" stop-color="#BC9986"/>
</linearGradient>
<linearGradient id="paint5_linear_200_6269" x1="21.372" y1="38.8047" x2="2.71385" y2="45.7158" gradientUnits="userSpaceOnUse">
<stop stop-color="#6A2E0E"/>
<stop offset="1" stop-color="#BC9986"/>
</linearGradient>
<linearGradient id="paint6_linear_200_6269" x1="12.1973" y1="43.2433" x2="8.54588" y2="43.9503" gradientUnits="userSpaceOnUse">
<stop stop-color="#6A2E0E"/>
<stop offset="1" stop-color="#BC9986"/>
</linearGradient>
<linearGradient id="paint7_linear_200_6269" x1="22.3163" y1="7.37298" x2="17.624" y2="11.0998" gradientUnits="userSpaceOnUse">
<stop stop-color="#6A2E0E"/>
<stop offset="1" stop-color="#BC9986"/>
</linearGradient>
<linearGradient id="paint8_linear_200_6269" x1="42.7868" y1="4.70021" x2="39.2278" y2="5.02579" gradientUnits="userSpaceOnUse">
<stop stop-color="#6A2E0E"/>
<stop offset="1" stop-color="#BC9986"/>
</linearGradient>
</defs>
</svg>
