<svg width="50" height="31" viewBox="0 0 50 31" fill="none" xmlns="http://www.w3.org/2000/svg">
<g id="Group 282">
<path id="path158" d="M45.0958 19.5493C42.667 20.5521 39.9497 20.2477 37.4131 19.9437C37.3494 19.936 37.297 19.9122 37.254 19.8795C36.7007 20.6366 35.7302 20.8328 34.7873 20.9611C32.8134 21.2297 30.8506 21.2165 28.8696 21.0426C27.481 20.9205 25.8005 20.9916 24.7216 19.9799C24.7184 19.9769 24.7164 19.9733 24.7131 19.9703C24.2698 20.1552 23.9086 20.3069 23.4321 20.0444C23.3229 19.984 23.236 19.9135 23.1591 19.8378C22.0026 20.0855 20.8352 20.2304 19.6493 20.2219C19.0823 20.2175 18.1831 20.3088 17.5612 20.0584C17.02 21.9577 12.558 21.8749 11.08 21.8689C9.88398 21.8642 6.84018 21.9608 4.9016 21.1833C4.72165 21.4596 4.54198 21.7355 4.3623 22.0115C5.83263 22.2021 7.40116 22.1489 8.86984 22.1879C10.7379 22.2375 12.6145 22.0052 14.4845 21.9904C18.4988 21.9588 22.4857 21.6318 26.4945 21.4903C30.5305 21.3482 34.5547 21.7611 38.5666 21.2739C40.3628 21.0558 42.2117 21.2404 43.9758 20.835C45.138 20.5681 46.2578 20.2389 47.4272 20.0436C47.0319 19.6439 46.6207 19.273 46.1933 18.8961C45.8584 19.1718 45.4653 19.3967 45.0958 19.5493Z" fill="#F7B824"/>
<path id="path160" d="M6.60202 24.0024C7.55636 23.9382 8.52525 24.125 9.46642 24.2532C10.2628 24.3615 10.9919 24.4797 11.7783 24.249C12.6241 24.0013 12.9214 23.343 13.2786 22.6207C10.5642 22.6778 7.76704 22.968 5.05078 22.7115C4.70789 23.188 4.40258 23.676 4.12524 24.1884C4.95395 24.2795 5.77085 24.0584 6.60202 24.0024Z" fill="#9D4D32"/>
<path id="path162" d="M13.8027 22.9647C14.3001 23.7509 14.8934 24.4696 15.4253 25.2322C15.5465 25.4061 15.8458 26.0631 16.0565 26.1226C16.147 26.1484 16.3437 25.8587 16.5972 25.6933C17.4401 25.1433 18.4181 25.2179 19.3765 25.1715C20.1833 25.1323 20.9286 24.9441 21.666 24.7047C21.6374 24.7008 21.6095 24.6989 21.5809 24.6942C20.8652 24.5766 20.2387 24.2438 19.5798 23.9629C18.1534 23.3548 16.6339 22.9743 15.1334 22.599C15.1222 22.5963 15.1134 22.5916 15.1033 22.5883C14.728 22.5966 14.3525 22.6031 13.9769 22.6081C13.9193 22.7178 13.8614 22.8385 13.8027 22.9647Z" fill="#9D4D32"/>
<path id="path164" d="M17.2834 22.5217C18.0353 22.7335 18.7793 22.9708 19.5005 23.2632C20.1124 23.5112 20.6998 23.8593 21.3444 24.0145C22.1372 24.2055 22.9338 23.9849 23.718 24.1287C24.739 24.3157 25.8846 24.8142 26.9248 24.8421C27.4084 24.8553 27.7518 24.4636 28.1841 24.1775C28.69 23.8425 29.22 23.5562 29.7667 23.2994C28.8858 22.8427 27.9847 22.4537 27.037 22.1327C27.0117 22.1242 26.9892 22.1133 26.9689 22.1009C26.6346 22.1064 26.3002 22.1144 25.9666 22.1275C23.0663 22.2444 20.1783 22.4153 17.2834 22.5217Z" fill="#9D4D32"/>
<path id="path166" d="M41.5767 21.7552C40.4021 21.8156 39.2165 21.8139 38.0482 21.9566C34.9452 22.3354 31.7961 22.1316 28.6584 22.0976C29.3275 22.382 29.9817 22.6972 30.6223 23.0547C30.8074 23.1581 30.8398 23.4941 30.6223 23.5877C30.3702 23.6963 30.1225 23.8118 29.8775 23.9319C32.165 24.3182 34.438 23.9723 36.7345 23.6845C37.3111 23.6121 37.8888 23.5416 38.4682 23.4933C38.9524 23.4533 40.0326 23.622 40.4468 23.4173C40.9592 23.1641 41.2519 22.3576 41.5767 21.7552Z" fill="#9D4D32"/>
<path id="path168" d="M43.3007 21.5963C42.9789 21.6446 42.655 21.6773 42.3299 21.7044C42.3258 21.7107 42.3236 21.717 42.3189 21.7234C41.846 22.3801 41.4952 23.0519 41.2381 23.8257C41.1962 23.9519 41.0809 24.0575 40.9405 24.0523C40.7361 24.0449 40.5318 24.0441 40.3274 24.0443C40.3609 24.0921 40.3949 24.1351 40.4297 24.1661C40.865 24.5493 41.1084 24.4254 41.6084 24.4303C42.529 24.4391 43.363 24.1856 44.1878 23.8213C45.3161 23.3232 46.4172 23.1056 47.6107 22.9882C47.154 22.3085 46.7241 21.615 46.3203 20.901C45.3169 21.1457 44.3283 21.4419 43.3007 21.5963Z" fill="#9D4D32"/>
<path id="path170" d="M45.3609 16.6834C45.32 16.7879 45.3458 16.9204 45.3093 17.0274C45.12 17.5809 44.5642 17.9307 44.0963 18.2678C43.6083 18.6195 43.1935 18.6634 42.6158 18.5051C42.2361 18.4009 41.7778 18.1987 41.4554 17.9721C41.2291 17.8133 40.8728 17.314 40.5872 17.3516C40.1415 17.4106 39.9925 18.1792 39.3569 18.2053C38.6487 18.2341 38.3664 17.7101 37.8776 17.3442C37.4897 17.054 37.0807 17.0309 36.678 17.1467C37.4107 17.6281 37.8649 18.4324 37.538 19.3415C38.932 19.5083 40.3409 19.6712 41.7468 19.6059C42.5821 19.5672 43.4278 19.4603 44.2266 19.2043C44.9771 18.9638 47.1329 18.0229 46.1783 16.9185C46.1701 16.9089 46.1649 16.8993 46.158 16.8897C45.9888 16.7887 45.8779 16.6107 45.7106 16.5161C45.1581 16.2033 45.543 16.2157 45.3609 16.6834Z" fill="#CA543F"/>
<path id="path172" d="M33.7628 19.5366C33.1113 19.761 32.4017 19.5618 31.844 19.2033C31.4333 18.9391 31.1061 18.5592 30.7818 18.1999C30.2222 17.5794 30.2464 17.8177 29.6533 18.1159C28.8534 18.5181 28.2164 18.1189 27.357 18.2871C26.4397 18.4668 25.9918 19.2022 25.3054 19.668C26.1964 20.3636 27.546 20.3055 28.6194 20.4031C29.599 20.492 30.5816 20.5655 31.5658 20.5675C32.5237 20.5694 33.4764 20.5011 34.4269 20.3867C34.8025 20.3417 35.4619 20.306 35.8363 20.1373C36.9501 19.6362 37.4866 18.1834 36.0286 17.4899C36.0135 17.4825 36.0012 17.474 35.9883 17.4655C35.7516 17.6109 35.5225 17.7812 35.308 17.9497C34.6675 18.453 34.5855 19.2532 33.7628 19.5366Z" fill="#CA543F"/>
<path id="path174" d="M21.1401 18.5595C20.4554 18.7251 20.09 17.9497 19.4459 18.0523C19.3176 18.0728 19.0175 18.4042 18.8471 18.456C18.6098 18.5279 18.3709 18.4876 18.1331 18.4506C17.9147 18.4163 17.3362 18.1601 17.156 18.2764C17.1549 18.2772 17.1551 18.2794 17.1541 18.2799C17.1568 18.2843 17.1604 18.2876 17.1631 18.2923C17.3976 18.6865 17.5296 19.0351 17.5845 19.3476C18.0631 19.7815 19.7485 19.6169 20.2911 19.5972C21.147 19.5659 21.9908 19.4488 22.8272 19.2779C22.6442 18.7095 22.6862 18.0358 22.2146 17.5974C21.9738 18.0221 21.6007 18.4475 21.1401 18.5595Z" fill="#CA543F"/>
<path id="path176" d="M10.5374 21.2461C11.93 21.2695 17.9178 21.6252 16.809 18.963C16.7733 19.0193 16.738 19.0706 16.7037 19.1084C16.1731 19.6922 15.0474 20.6095 14.2573 19.8924C13.9794 19.6403 14.0672 19.2313 13.8434 18.9789C13.8055 18.9361 13.0951 18.6114 13.0813 18.6061C12.6773 18.4539 12.4293 18.5496 12.0658 18.7502C11.2144 19.2195 9.99558 20.1417 9.07608 19.3311C8.96745 19.2354 8.90848 19.0782 8.80067 18.9877C8.51621 18.7493 8.34942 18.7732 7.98349 18.6514C7.86471 18.6116 7.78735 18.6528 7.66117 18.5765C7.35393 18.3903 7.54952 18.2605 7.18167 17.9316C6.89418 17.6743 6.4871 17.7379 6.14914 17.6713C5.16847 17.4779 4.94106 17.7105 4.24403 18.2501C4.11428 18.3505 4.02568 18.5123 3.88496 18.6067C3.13471 21.4003 9.0097 21.2206 10.5374 21.2461Z" fill="#CA543F"/>
<path id="path178" d="M48.1964 16.0509C48.4391 15.9705 49.4324 15.6476 49.3375 15.325C49.2793 15.1272 48.7425 14.8798 48.5669 14.7451C48.2775 14.5224 47.9648 14.3161 47.8255 13.9685C47.5748 13.3428 47.927 13.0696 47.3882 12.7851C47.3591 13.1738 47.3342 13.5538 47.3243 13.9164C47.3191 14.1002 47.2 14.2607 47.0223 14.3131C43.7129 15.2866 40.3005 15.0833 36.8932 15.0809C33.2492 15.0781 29.6082 15.3001 25.9739 15.5428C18.6332 16.0328 11.272 16.6107 3.92941 15.8341C3.79938 15.8204 3.70173 15.759 3.63589 15.6753C3.57444 15.6122 3.53 15.5288 3.51793 15.4227C3.49681 15.235 3.47789 15.0513 3.45868 14.8669C3.34759 14.9116 3.24664 14.9182 3.04118 14.9753C2.90649 14.967 2.77235 14.9536 2.63875 14.9344C1.89564 14.8291 1.63312 14.992 1.85092 15.4227C1.67948 15.7335 1.79167 15.9743 1.46743 16.2917C1.14813 16.6047 0.929227 16.4574 1.06776 16.9723C1.22905 17.5714 1.63614 17.1824 2.1598 17.2828C2.65741 17.378 2.64123 17.6114 2.98659 17.8465C3.06861 18.3257 3.37694 18.2599 3.91158 17.6487C3.99963 17.5346 4.08741 17.4205 4.17546 17.3064C4.44045 17.1254 4.44182 17.059 4.71586 16.9646C5.273 16.7726 6.1925 16.9303 6.74332 17.0705C7.24285 17.1978 7.41293 17.4235 7.80822 17.7327C8.19774 18.0374 8.39333 17.9088 8.82756 18.1461C9.0451 18.2648 9.12904 18.5093 9.31475 18.6418C9.90233 19.0606 10.5116 18.977 11.1252 18.6574C11.6039 18.4083 12.0118 17.8761 12.5761 17.8073C13.0366 17.7513 13.9153 18.1732 14.214 18.4385C14.4332 18.6332 14.3953 18.9789 14.5539 19.1339C15.7817 20.334 16.2774 18.1085 16.6957 17.7985C17.088 17.508 17.297 17.6605 17.7576 17.7192C18.1696 17.8984 18.5869 17.8638 19.0093 17.6161C19.0825 17.5182 19.1678 17.4339 19.2658 17.3634C19.3848 17.3451 19.4951 17.2598 19.6216 17.2576C19.8986 17.2526 20.0001 17.4652 20.2281 17.5508C21.2046 17.917 21.4902 17.7925 21.8347 16.9805C21.9019 16.8222 22.1244 16.7989 22.2572 16.8697C22.7087 17.1111 23.0955 17.277 23.2883 17.7552C23.5327 18.3606 23.2049 18.4799 23.8883 19.0431C24.4407 19.4979 24.6256 19.4932 25.2066 18.9723C25.4071 18.7929 25.5555 18.5581 25.7651 18.3759C26.3302 17.8852 26.9411 17.449 27.716 17.4929C28.3755 17.5305 28.7716 17.7612 29.4533 17.4084C29.7287 17.2655 29.6277 17.057 30.0066 16.9767C30.294 16.9155 30.4935 17.062 30.7129 17.2189C31.1219 17.511 31.38 18.0139 31.7657 18.3414C31.9575 18.5038 32.4916 18.9564 32.7423 18.9575C32.8271 18.958 34.1863 18.2454 34.2241 18.2097C34.6068 17.8473 34.8183 17.5727 35.2863 17.257C36.0305 16.7547 36.7391 15.4767 37.7762 16.2302C37.9674 16.3691 38.0835 16.5871 38.2258 16.7685C38.6746 17.3388 39.3626 17.4899 39.9713 17.1083C40.264 16.9251 40.3611 16.5751 40.7814 16.6225C41.3341 16.6848 41.8092 17.4979 42.3362 17.7321C43.0999 18.0714 44.2926 17.6619 44.7139 16.8631C45.0708 16.1869 44.6983 15.311 45.7684 15.754C46.2336 15.9466 46.5 16.3268 47.1136 16.3197C47.4573 16.3156 47.8724 16.1578 48.1964 16.0509Z" fill="#A7C339"/>
<path id="path180" d="M42.5829 24.9403C42.0071 25.016 41.1899 25.312 40.6265 25.1572C40.0444 24.9976 40.0098 24.4893 39.6255 24.1022C39.6118 24.0882 39.6011 24.074 39.5907 24.0594C36.0709 24.1991 32.5814 25.2127 29.0745 24.4018C29.0586 24.3982 29.0449 24.3925 29.0312 24.387C28.713 24.5721 28.4003 24.7669 28.0988 24.9841C27.6912 25.2777 27.4871 25.6793 27.0051 25.5953C26.5146 25.5097 26.093 25.239 25.5515 25.1836C24.993 25.1268 24.5599 25.0061 24.0167 24.8632C23.7954 24.8053 23.5756 24.7773 23.3567 24.7631C22.0274 25.2368 20.8018 25.7243 19.3767 25.7887C18.2054 25.8417 17.566 25.9533 16.5466 26.5445C16.3686 26.6473 16.2665 26.8237 16.0331 26.8138C15.6189 26.7966 15.3676 26.2293 15.1547 25.9248C14.611 25.1482 14.0202 24.4001 13.4924 23.6118C13.288 24.0092 13.0499 24.3815 12.7358 24.5859C12.0824 25.0105 11.0255 25.05 10.264 24.9836C8.9854 24.8722 7.73206 24.5225 6.44059 24.6377C5.72682 24.7013 5.02979 24.8399 4.32617 24.8152C4.35854 25.7772 4.23428 27.1241 4.55138 28.0137C5.12607 29.6258 6.82271 29.2788 8.17453 29.3367C10.1367 29.4209 12.1 29.4747 14.0635 29.4988C17.9906 29.5476 21.9199 29.476 25.8426 29.2846C29.8547 29.0887 33.8608 28.7686 37.8532 28.3234C39.8087 28.1053 41.7643 27.783 43.7306 27.6851C44.9085 27.6264 46.3676 28.0096 46.7999 26.6064C47.0951 25.6472 47.1609 24.658 47.0998 23.6633C46.2066 23.7791 45.3655 23.9722 44.4987 24.3543C43.848 24.6407 43.3054 24.8456 42.5829 24.9403Z" fill="#DCA45D"/>
<path id="path182" d="M25.4412 14.7555C29.085 14.51 32.7344 14.2779 36.388 14.259C39.7851 14.2411 43.1995 14.5007 46.5091 13.5993C46.5341 12.6759 46.5566 11.7531 46.5791 10.8298C46.595 10.1928 46.6699 9.58302 46.5706 9.0503C44.8822 9.58521 43.0835 9.60276 41.3334 9.77119C39.7012 9.92837 38.0699 10.096 36.4311 10.1739C33.5028 10.3132 30.5514 10.2768 27.6182 10.3574C24.3722 10.4466 21.1153 10.454 17.8757 10.6808C13.3709 10.9966 8.86058 11.6673 4.33659 11.4056C4.18983 11.8006 4.12838 12.2345 4.1207 12.716C4.10836 13.5027 4.20465 14.2697 4.29682 15.046C11.339 15.748 18.4001 15.2301 25.4412 14.7555Z" fill="#DCA45D"/>
<path id="path184" d="M4.81714 10.6071C9.01223 10.7895 13.1966 10.208 17.3736 9.8947C20.6102 9.65194 23.8625 9.63165 27.1065 9.54743C30.0966 9.47035 33.0981 9.47858 36.0849 9.36638C37.6578 9.3074 39.2282 9.15872 40.794 9.00373C42.605 8.8246 44.4879 8.82021 46.24 8.28997C46.0743 8.07847 45.8414 7.89002 45.5122 7.73201C43.4346 6.73543 41.2938 5.859 39.147 5.02426C37.0376 4.20433 34.907 3.43954 32.7594 2.72687C30.7149 2.0485 28.5484 1.18852 26.409 0.884856C23.8071 0.515629 20.9276 2.08662 18.6248 3.13861C16.5874 4.06909 14.5997 5.10299 12.631 6.17007C10.6318 7.25389 8.65096 8.37117 6.64819 9.44868C6.21175 9.68349 5.70372 9.87606 5.3046 10.1641C5.11203 10.3029 4.95484 10.4518 4.81714 10.6071Z" fill="#FDDCAC"/>
<path id="path186" d="M4.29682 15.046C4.20466 14.2697 4.10837 13.5027 4.12071 12.716C4.12839 12.2346 4.18984 11.8006 4.3366 11.4056C8.86059 11.6673 13.3709 10.9966 17.8757 10.6808C21.1153 10.454 24.3722 10.4466 27.6182 10.3574C30.5514 10.2768 33.5028 10.3133 36.4311 10.1739C38.0699 10.096 39.7012 9.9284 41.3334 9.77121C43.0835 9.60279 44.8822 9.58524 46.5706 9.05032C46.6699 9.58304 46.595 10.1928 46.5791 10.8298C46.5566 11.7531 46.5341 12.6759 46.5091 13.5993C43.1995 14.5007 39.7851 14.2412 36.388 14.259C32.7344 14.2779 29.085 14.51 25.4412 14.7555C18.4001 15.2301 11.339 15.748 4.29682 15.046ZM6.6477 9.44863C8.65047 8.37112 10.6313 7.25384 12.6305 6.17002C14.5992 5.10294 16.5869 4.06904 18.6243 3.13857C20.9271 2.08657 23.8066 0.515579 26.4085 0.884808C28.5479 1.18847 30.7144 2.04845 32.7589 2.72683C34.9065 3.4395 37.0371 4.20428 39.1465 5.02421C41.2933 5.85895 43.4341 6.73538 45.5117 7.73197C45.8409 7.88997 46.0738 8.07842 46.2395 8.28992C44.4874 8.82017 42.6046 8.82456 40.7935 9.00368C39.2277 9.15867 37.6573 9.30735 36.0844 9.36633C33.0976 9.47853 30.0961 9.4703 27.1061 9.54738C23.862 9.6316 20.6097 9.65189 17.3731 9.89466C13.1961 10.2079 9.01174 10.7895 4.81665 10.6071C4.95436 10.4518 5.11154 10.3028 5.30411 10.164C5.70323 9.87601 6.21126 9.68344 6.6477 9.44863ZM45.7685 15.754C44.6984 15.311 45.0709 16.1869 44.714 16.8631C44.2927 17.6619 43.1 18.0714 42.3363 17.7321C41.8093 17.4978 41.3342 16.6848 40.7815 16.6225C40.3612 16.575 40.2641 16.9251 39.9714 17.1083C39.3627 17.4899 38.6747 17.3387 38.2259 16.7684C38.0836 16.5871 37.9675 16.369 37.7763 16.2302C36.7392 15.4767 36.0306 16.7547 35.2864 17.257C34.8184 17.5727 34.6069 17.8473 34.2242 18.2097C34.1864 18.2453 32.8272 18.958 32.7424 18.9575C32.4917 18.9564 31.9576 18.5037 31.7658 18.3414C31.3802 18.0138 31.122 17.511 30.713 17.2189C30.4936 17.0619 30.2941 16.9155 30.0067 16.9766C29.6278 17.057 29.7288 17.2655 29.4534 17.4084C28.7717 17.7612 28.3756 17.5305 27.7161 17.4929C26.9412 17.449 26.3303 17.8852 25.7652 18.3759C25.5556 18.5581 25.4072 18.7929 25.2067 18.9723C24.6257 19.4932 24.4408 19.4979 23.8884 19.043C23.205 18.4799 23.5328 18.3606 23.2884 17.7551C23.0956 17.277 22.7088 17.111 22.2573 16.8696C22.1245 16.7989 21.9021 16.8222 21.8348 16.9805C21.4903 17.7924 21.2047 17.917 20.2282 17.5508C20.0002 17.4652 19.8987 17.2526 19.6217 17.2575C19.4952 17.2597 19.3849 17.345 19.2659 17.3634C19.1679 17.4339 19.0826 17.5181 19.0094 17.6161C18.587 17.8638 18.1697 17.8983 17.7577 17.7192C17.2971 17.6605 17.0881 17.508 16.6958 17.7985C16.2775 18.1085 15.7818 20.334 14.554 19.1338C14.3954 18.9789 14.4333 18.6332 14.2141 18.4385C13.9154 18.1732 13.0368 17.7513 12.5762 17.8073C12.0119 17.8761 11.604 18.4083 11.1253 18.6574C10.5117 18.9769 9.90244 19.0606 9.31486 18.6417C9.12914 18.5092 9.0452 18.2648 8.82767 18.146C8.39343 17.9088 8.19785 18.0374 7.80832 17.7326C7.41304 17.4235 7.24296 17.1977 6.74343 17.0705C6.19261 16.9303 5.2731 16.7725 4.71597 16.9646C4.44193 17.0589 4.44056 17.1253 4.17557 17.3064C4.08752 17.4205 3.99974 17.5346 3.91169 17.6487C3.37705 18.2599 3.06872 18.3257 2.9867 17.8465C2.64134 17.6114 2.65752 17.378 2.15991 17.2828C1.63625 17.1824 1.22916 17.5714 1.06786 16.9722C0.929336 16.4574 1.14824 16.6047 1.46754 16.2917C1.79178 15.9743 1.67959 15.7334 1.85103 15.4226C1.63323 14.992 1.89575 14.829 2.63886 14.9344C2.77245 14.9536 2.9066 14.967 3.04129 14.9752C3.24675 14.9182 3.3477 14.9116 3.45879 14.8669C3.478 15.0512 3.49692 15.235 3.51804 15.4226C3.53011 15.5288 3.57455 15.6122 3.636 15.6753C3.70183 15.7589 3.79949 15.8204 3.92951 15.8341C11.2721 16.6107 18.6333 16.0327 25.974 15.5428C29.6084 15.3 33.2493 15.0781 36.8933 15.0808C40.3006 15.0833 43.7131 15.2866 47.0224 14.313C47.2001 14.2607 47.3192 14.1002 47.3244 13.9164C47.3343 13.5537 47.3592 13.1738 47.3883 12.7851C47.9271 13.0696 47.5749 13.3428 47.8256 13.9685C47.9649 14.3161 48.2776 14.5223 48.567 14.7451C48.7426 14.8798 49.2794 15.1272 49.3376 15.325C49.4325 15.6476 48.4392 15.9705 48.1965 16.0508C47.8725 16.1578 47.4574 16.3155 47.1137 16.3197C46.5001 16.3268 46.2337 15.9466 45.7685 15.754ZM3.8848 18.6066C4.02553 18.5123 4.11413 18.3504 4.24388 18.25C4.94091 17.7104 5.16832 17.4778 6.14899 17.6712C6.48694 17.7379 6.89403 17.6742 7.18151 17.9315C7.54937 18.2604 7.35378 18.3902 7.66101 18.5764C7.7872 18.6527 7.86455 18.6116 7.98333 18.6513C8.34927 18.7731 8.51605 18.7492 8.80052 18.9876C8.90832 19.0782 8.9673 19.2353 9.07593 19.3311C9.99543 20.1417 11.2142 19.2194 12.0657 18.7501C12.4291 18.5496 12.6771 18.4538 13.0812 18.6061C13.0949 18.6113 13.8054 18.9361 13.8432 18.9789C14.0671 19.2312 13.9793 19.6402 14.2572 19.8923C15.0472 20.6094 16.173 19.6921 16.7035 19.1083C16.7378 19.0705 16.7732 19.0192 16.8088 18.9629C17.9176 21.6252 11.9299 21.2694 10.5372 21.2461C9.00955 21.2206 3.13455 21.4002 3.8848 18.6066ZM22.827 19.2779C21.9907 19.4488 21.1469 19.5659 20.291 19.5972C19.7484 19.6169 18.063 19.7815 17.5843 19.3475C17.5295 19.0351 17.3975 18.6864 17.163 18.2923C17.1602 18.2876 17.1567 18.2843 17.1539 18.2799C17.155 18.2794 17.1548 18.2772 17.1559 18.2763C17.3361 18.16 17.9146 18.4162 18.133 18.4505C18.3708 18.4876 18.6097 18.5279 18.847 18.456C19.0173 18.4042 19.3175 18.0728 19.4458 18.0522C20.0899 17.9496 20.4553 18.7251 21.14 18.5594C21.6006 18.4475 21.9736 18.0221 22.2145 17.5974C22.686 18.0358 22.6441 18.7095 22.827 19.2779ZM35.9884 17.4655C36.0013 17.474 36.0136 17.4825 36.0287 17.4899C37.4867 18.1833 36.9501 19.6361 35.8364 20.1373C35.462 20.306 34.8025 20.3416 34.427 20.3866C33.4765 20.501 32.5238 20.5693 31.5659 20.5674C30.5816 20.5655 29.599 20.492 28.6194 20.4031C27.5461 20.3054 26.1964 20.3636 25.3055 19.6679C25.9918 19.2022 26.4397 18.4667 27.3571 18.287C28.2165 18.1189 28.8535 18.518 29.6534 18.1159C30.2464 17.8177 30.2223 17.5793 30.7819 18.1998C31.1061 18.5592 31.4334 18.9391 31.844 19.2032C32.4017 19.5618 33.1113 19.7609 33.7628 19.5365C34.5855 19.2532 34.6675 18.453 35.3081 17.9496C35.5226 17.7812 35.7516 17.6109 35.9884 17.4655ZM46.1783 16.9185C47.1329 18.0229 44.9771 18.9638 44.2266 19.2043C43.4278 19.4603 42.5821 19.5673 41.7468 19.6059C40.3409 19.6712 38.932 19.5083 37.538 19.3415C37.8649 18.4324 37.4107 17.6281 36.678 17.1467C37.0807 17.0309 37.4897 17.054 37.8776 17.3442C38.3664 17.7102 38.6487 18.2341 39.3569 18.2053C39.9925 18.1792 40.1415 17.4106 40.5872 17.3516C40.8728 17.314 41.2291 17.8133 41.4554 17.9721C41.7778 18.1987 42.2361 18.4009 42.6158 18.5051C43.1935 18.6634 43.6083 18.6195 44.0963 18.2678C44.5643 17.9307 45.12 17.5809 45.3093 17.0274C45.3458 16.9204 45.32 16.7879 45.3609 16.6834C45.543 16.2157 45.1581 16.2033 45.7106 16.5161C45.8779 16.6107 45.9888 16.7887 46.158 16.8897C46.1649 16.8993 46.1701 16.9089 46.1783 16.9185ZM47.4267 20.0435C46.2573 20.2388 45.1376 20.568 43.9753 20.8349C42.2112 21.2403 40.3623 21.0557 38.5661 21.2738C34.5542 21.761 30.5301 21.3481 26.4941 21.4902C22.4852 21.6318 18.4984 21.9587 14.484 21.9903C12.614 22.0051 10.7375 22.2374 8.86937 22.1878C7.40069 22.1488 5.83216 22.2021 4.36183 22.0114C4.54151 21.7354 4.72118 21.4595 4.90113 21.1832C6.83971 21.9607 9.88351 21.8641 11.0795 21.8688C12.5575 21.8748 17.0195 21.9576 17.5607 20.0583C18.1826 20.3087 19.0818 20.2174 19.6488 20.2218C20.8347 20.2303 22.0022 20.0854 23.1587 19.8377C23.2355 19.9134 23.3224 19.9839 23.4316 20.0443C23.9081 20.3068 24.2694 20.1551 24.7127 19.9702C24.716 19.9732 24.7179 19.9768 24.7212 19.9798C25.8001 20.9915 27.4805 20.9205 28.8691 21.0425C30.8502 21.2164 32.8129 21.2296 34.7869 20.9611C35.7297 20.8327 36.7002 20.6365 37.2535 19.8794C37.2966 19.9121 37.349 19.9359 37.4126 19.9436C39.9492 20.2476 42.6665 20.552 45.0953 19.5492C45.4648 19.3966 45.8579 19.1717 46.1929 18.896C46.6202 19.2729 47.0314 19.6438 47.4267 20.0435ZM44.1873 23.8213C43.3625 24.1856 42.5286 24.4391 41.608 24.4303C41.1079 24.4254 40.8646 24.5494 40.4292 24.1661C40.3944 24.1351 40.3604 24.0921 40.3269 24.0443C40.5313 24.0441 40.7356 24.0449 40.94 24.0523C41.0805 24.0575 41.1957 23.9519 41.2376 23.8257C41.4947 23.0519 41.8455 22.3801 42.3184 21.7234C42.3231 21.7171 42.3253 21.7108 42.3294 21.7044C42.6545 21.6773 42.9784 21.6446 43.3002 21.5964C44.3278 21.4419 45.3164 21.1457 46.3199 20.901C46.7237 21.615 47.1535 22.3085 47.6102 22.9882C46.4167 23.1056 45.3156 23.3232 44.1873 23.8213ZM13.2781 22.6207C12.921 23.3429 12.6236 24.0013 11.7779 24.249C10.9915 24.4797 10.2623 24.3615 9.466 24.2531C8.52483 24.125 7.55595 23.9382 6.60161 24.0024C5.77044 24.0583 4.95353 24.2794 4.12483 24.1884C4.40216 23.6759 4.70747 23.1879 5.05037 22.7115C7.76663 22.9679 10.5638 22.6777 13.2781 22.6207ZM15.1034 22.5883C15.1136 22.5916 15.1224 22.5962 15.1336 22.599C16.6341 22.9742 18.1535 23.3547 19.58 23.9629C20.2389 24.2438 20.8654 24.5765 21.5811 24.6942C21.6096 24.6989 21.6376 24.7008 21.6661 24.7046C20.9288 24.9441 20.1835 25.1323 19.3767 25.1715C18.4182 25.2179 17.4403 25.1432 16.5974 25.6932C16.3439 25.8587 16.1472 26.1483 16.0567 26.1225C15.846 26.063 15.5467 25.406 15.4255 25.2321C14.8936 24.4695 14.3002 23.7508 13.8029 22.9646C13.8616 22.8385 13.9195 22.7178 13.9771 22.608C14.3526 22.6031 14.7282 22.5965 15.1034 22.5883ZM26.9686 22.1008C26.9889 22.1132 27.0114 22.1241 27.0367 22.1326C27.9844 22.4536 28.8855 22.8426 29.7664 23.2993C29.2197 23.5561 28.6897 23.8425 28.1838 24.1774C27.7515 24.4635 27.4081 24.8552 26.9245 24.8421C25.8843 24.8141 24.7387 24.3156 23.7177 24.1286C22.9335 23.9848 22.1369 24.2054 21.3441 24.0144C20.6995 23.8592 20.1121 23.5111 19.5001 23.2631C18.779 22.9707 18.035 22.7334 17.2831 22.5216C20.178 22.4152 23.066 22.2443 25.9663 22.1274C26.2999 22.1143 26.6342 22.1063 26.9686 22.1008ZM38.4682 23.4932C37.8888 23.5415 37.3111 23.612 36.7345 23.6844C34.4379 23.9722 32.165 24.3181 29.8775 23.9319C30.1224 23.8117 30.3701 23.6962 30.6222 23.5876C30.8398 23.4941 30.8074 23.158 30.6222 23.0546C29.9817 22.6972 29.3275 22.382 28.6584 22.0975C31.796 22.1315 34.9451 22.3354 38.0482 21.9565C39.2165 21.8139 40.4021 21.8155 41.5767 21.7552C41.2519 22.3576 40.9592 23.1641 40.4468 23.4173C40.0326 23.6219 38.9523 23.4532 38.4682 23.4932ZM46.7999 26.6064C46.3676 28.0096 44.9085 27.6263 43.7306 27.685C41.7643 27.783 39.8087 28.1053 37.8532 28.3234C33.8608 28.7686 29.8547 29.0887 25.8426 29.2846C21.9199 29.476 17.9906 29.5476 14.0635 29.4988C12.1 29.4747 10.1367 29.4209 8.17453 29.3367C6.82271 29.2788 5.12607 29.6258 4.55138 28.0137C4.23428 27.1241 4.35854 25.7772 4.32617 24.8152C5.02979 24.8399 5.72682 24.7013 6.44059 24.6377C7.73206 24.5225 8.9854 24.8722 10.264 24.9836C11.0255 25.05 12.0824 25.0105 12.7358 24.5858C13.0499 24.3815 13.288 24.0092 13.4924 23.6118C14.0202 24.4001 14.611 25.1482 15.1547 25.9248C15.3676 26.2293 15.6189 26.7965 16.0331 26.8138C16.2665 26.8237 16.3686 26.6473 16.5466 26.5444C17.566 25.9533 18.2054 25.8417 19.3767 25.7887C20.8018 25.7242 22.0274 25.2368 23.3567 24.7631C23.5756 24.7773 23.7954 24.8053 24.0167 24.8632C24.5599 25.0061 24.993 25.1268 25.5515 25.1836C26.093 25.239 26.5146 25.5097 27.0051 25.5953C27.4871 25.6793 27.6912 25.2777 28.0988 24.9841C28.4003 24.7669 28.713 24.5721 29.0312 24.387C29.0449 24.3925 29.0586 24.3982 29.0745 24.4018C32.5814 25.2126 36.0709 24.1991 39.5907 24.0594C39.6011 24.074 39.6118 24.0882 39.6255 24.1022C40.0098 24.4893 40.0444 24.9976 40.6265 25.1572C41.1899 25.312 42.0071 25.016 42.5829 24.9403C43.3054 24.8456 43.848 24.6407 44.4987 24.3543C45.3655 23.9722 46.2066 23.7791 47.0997 23.6633C47.1609 24.658 47.0951 25.6472 46.7999 26.6064ZM49.4959 14.6622C49.2037 14.4228 48.6562 14.2052 48.4738 13.8719C48.2999 13.554 48.4968 13.1478 48.3764 12.8257C48.2134 12.3895 47.8503 12.2741 47.4393 12.129C47.5356 10.9008 47.6223 9.62337 47.404 8.52145C47.1151 7.06319 45.0281 6.59658 43.8626 6.08553C40.0877 4.43086 36.2185 2.98715 32.3005 1.71021C30.4382 1.10343 28.5152 0.371284 26.5742 0.0700874C24.5473 -0.244551 22.6515 0.558926 20.8083 1.30698C16.9622 2.86756 13.3171 4.84371 9.68819 6.84594C8.61151 7.4401 7.5351 8.03481 6.45293 8.61883C5.63136 9.06239 4.61448 9.42997 3.9372 10.0894C3.28186 10.7275 3.35455 11.3935 3.32987 12.2499C3.31094 12.911 3.34276 13.5447 3.3957 14.1822C2.897 14.5536 2.03318 14.0354 1.48757 14.4058C1.04674 14.7053 1.27278 14.9289 1.18171 15.3346C1.0152 16.0766 -0.497093 16.5926 0.168119 17.5129C0.387296 17.8166 0.808093 17.897 1.15455 17.9236C1.78301 17.9716 1.90425 17.8369 2.50994 18.3361C2.60183 18.4118 2.57001 18.5581 2.69537 18.6266C2.88822 18.7323 3.05198 18.7967 3.2141 18.8134C3.07886 19.7944 3.55453 20.461 4.34071 20.9141C4.08505 21.3064 3.82966 21.6987 3.57428 22.0912C3.4736 22.2459 3.5655 22.512 3.75862 22.5444C3.95667 22.5779 4.15582 22.6072 4.35498 22.6335C3.9948 23.1561 3.6744 23.6927 3.38747 24.2641C3.31203 24.4149 3.35428 24.6133 3.50515 24.692C3.5035 24.7109 3.50103 24.729 3.50186 24.7496C3.55672 26.0575 3.21767 28.7908 4.51353 29.6842C5.09233 30.0834 5.90046 30.0472 6.56979 30.0842C7.81737 30.1533 9.0666 30.2 10.3156 30.2395C15.4011 30.4008 20.4929 30.3607 25.5754 30.1201C30.5704 29.8837 35.5514 29.4445 40.514 28.8309C41.7616 28.6767 43.01 28.5159 44.268 28.4877C45.0558 28.4699 46.0623 28.7335 46.7579 28.271C48.0096 27.4384 48.008 24.8742 47.918 23.578C47.9984 23.5714 48.0777 23.564 48.1591 23.5577C48.3726 23.5421 48.5698 23.301 48.4258 23.0933C47.8983 22.3348 47.4092 21.558 46.95 20.7575C47.3151 20.6799 47.6835 20.6132 48.0579 20.5691C48.321 20.5378 48.468 20.2536 48.2763 20.0421C47.7548 19.468 47.2059 18.9684 46.6279 18.4585C46.9716 18.0308 47.1392 17.5299 46.9349 17.0021C47.4352 16.9588 47.9759 16.7728 48.3605 16.6458C49.4824 16.2752 50.7138 15.6586 49.4959 14.6622Z" fill="#4C3F3A"/>
</g>
</svg>
