<svg xmlns="http://www.w3.org/2000/svg" width="325" height="113" fill="none" xmlns:v="https://vecta.io/nano"><path d="M44.883 81.494c0 1.081-.367 1.988-1.1 2.722-.695.734-1.602 1.1-2.722 1.1H4.401c-1.12 0-2.046-.347-2.78-1.042-.695-.734-1.042-1.66-1.042-2.78L0 7.481c0-1.12.367-2.046 1.1-2.78a3.89 3.89 0 0 1 2.78-1.1h3.301c1.12 0 2.046.367 2.78 1.1.734.695 1.1 1.602 1.1 2.722l.521 67.585H41.06c1.12 0 2.027.367 2.722 1.1.734.695 1.1 1.602 1.1 2.722v2.664zm9.382-15.578c-.541-2.51-.811-5.328-.811-8.455 0-5.675 1.236-10.733 3.706-15.173 2.432-4.401 5.83-7.76 10.193-10.077 4.324-2.317 9.15-3.475 14.478-3.475 5.367 0 10.231 1.158 14.594 3.475 4.402 2.394 7.896 5.753 10.483 10.077 1.274 2.124 2.162 4.363 2.664 6.718.502 2.394.753 5.212.753 8.455 0 5.714-1.236 10.791-3.707 15.231-2.509 4.479-5.946 7.896-10.308 10.251-4.324 2.355-9.15 3.533-14.478 3.533s-10.173-1.197-14.536-3.591c-4.401-2.355-7.876-5.753-10.424-10.193-1.197-2.046-2.066-4.305-2.606-6.776zm11.698 1.737c1.544 2.819 3.745 5.019 6.602 6.602s5.946 2.374 9.266 2.374c3.359 0 6.448-.791 9.266-2.374a17.48 17.48 0 0 0 6.602-6.602c1.583-2.857 2.374-6.062 2.374-9.614 0-3.475-.791-6.621-2.374-9.44-1.544-2.741-3.745-4.903-6.602-6.486-2.78-1.506-5.868-2.259-9.266-2.259s-6.486.753-9.266 2.259a16.78 16.78 0 0 0-6.602 6.428c-1.622 2.78-2.432 5.946-2.432 9.498s.811 6.757 2.432 9.614zm55.539-30.81a6.49 6.49 0 0 1-.637-2.838c0-1.12.289-2.027.868-2.722.618-.733 1.429-1.081 2.433-1.042l3.648.174c.657.039 1.236.232 1.738.579s.888.83 1.158 1.448l16.332 37.586 15.231-37.47a3.76 3.76 0 0 1 1.158-1.506 3.37 3.37 0 0 1 1.795-.637l2.201-.116c1.39-.039 2.529.367 3.417 1.216.926.811 1.39 1.834 1.39 3.069a5.26 5.26 0 0 1-.406 2.027l-30.752 73.549c-.27.657-.695 1.159-1.274 1.506-.54.386-1.158.579-1.853.579h-2.374c-1.352 0-2.452-.405-3.301-1.216-.811-.811-1.217-1.815-1.217-3.011 0-.695.136-1.332.406-1.912l10.25-24.786-20.211-44.477zm64.225 5.618c2.471-4.44 5.908-7.857 10.309-10.251 4.247-2.317 8.919-3.475 14.015-3.475 4.131 0 7.992.849 11.583 2.548 3.513 1.66 6.119 3.977 7.818 6.95v-5.038c0-1.12.367-2.027 1.1-2.722.734-.734 1.641-1.1 2.722-1.1h3.07c1.119 0 2.027.367 2.722 1.1.733.695 1.1 1.602 1.1 2.722v48.3c0 1.081-.367 1.988-1.1 2.722-.695.734-1.603 1.1-2.722 1.1h-2.201c-.888 0-1.66-.251-2.317-.753-.656-.541-1.061-1.255-1.216-2.143l-1.158-5.618c-1.776 3.011-4.401 5.367-7.876 7.065-3.514 1.737-7.355 2.606-11.525 2.606-5.212 0-9.942-1.236-14.189-3.706-4.324-2.432-7.721-5.849-10.192-10.251-2.51-4.479-3.765-9.459-3.765-14.942 0-5.56 1.274-10.598 3.822-15.115zm9.73 24.381c1.66 2.819 3.938 5.038 6.834 6.66 2.857 1.622 5.945 2.432 9.266 2.432 3.397 0 6.447-.772 9.15-2.317 2.664-1.467 4.788-3.61 6.37-6.428 1.506-2.78 2.259-6.023 2.259-9.729 0-3.591-.869-6.834-2.606-9.729-1.776-2.896-4.112-5.058-7.007-6.486-1.468-.734-2.8-1.236-3.996-1.506-1.352-.309-2.742-.463-4.17-.463-3.398 0-6.506.772-9.324 2.316a18.05 18.05 0 0 0-6.776 6.428c-1.66 2.703-2.49 5.849-2.49 9.44 0 3.436.83 6.563 2.49 9.382zm73.55 14.652c0 1.081-.367 1.988-1.101 2.722-.695.734-1.602 1.1-2.722 1.1h-3.127c-1.081 0-1.988-.367-2.722-1.1s-1.1-1.641-1.1-2.722V3.949c0-1.197.386-2.162 1.158-2.896.811-.772 1.815-1.12 3.012-1.042l3.069.174c1.004.077 1.834.463 2.49 1.158.695.695 1.043 1.564 1.043 2.606v77.546z" fill="#4b3734"/><path d="M325 64.241l-7.633 21.076h-9.589c-2.36 0-3.189-.004-4.471 0h-1.815-.688c-1.281-.004-3.51 0-5.835 0-4.116 0-9.28 0-9.28 0l-7.633-21.076c.255.156 9.042 5.62 13.411 4.779 3.512-.675 7.988-6.55 9.698-8.969l.363-.519.363.519c1.71 2.418 6.186 8.293 9.698 8.969 4.369.841 13.156-4.622 13.411-4.779z" fill="#b79a81"/></svg>