<svg xmlns="http://www.w3.org/2000/svg" xmlns:xlink="http://www.w3.org/1999/xlink" width="50" height="62" fill="none" xmlns:v="https://vecta.io/nano"><path d="M19.757 35.251s3.071 2.858 4.588 3.749C33.761 31.749 53.826 19.57 49.361.046 29.312-1.128 20.621 20.552 15 31.008c1.131 1.345 4.757 4.243 4.757 4.243z" fill="url(#A)"/><path d="M21 20.663L16.579 20 6 32l9.442-.734" fill="url(#B)"/><path d="M33.605 31L35 35.491 24.77 48 24 38.416" fill="url(#C)"/><g stroke-miterlimit="10" stroke-linecap="round" stroke-linejoin="round"><path d="M16.8565 33C4.23538 33.8616 1.46194 44.4801 1 48.393C3.34814 46.9207 5.38253 47.2943 5.38253 47.2943C5.38253 47.2943 1.75827 52.8428 5.69981 61C7.28774 54.7575 11.3002 52.8131 11.3002 52.8131L11.9114 56.8797C11.9114 56.8797 24.8459 50.4938 22.7756 38.0225" stroke="url(#D)"/><path d="M17.2699 34C9.10848 34.8962 7.02067 42.6967 7 43.3296C8.52907 41.8427 11.5678 41.8 11.5678 41.8C11.5678 41.8 7.61489 44.8752 8.99376 50C10.8609 47.6405 12.9868 46.7551 13.6723 46.6656C14.3057 47.9937 14.4321 48.9495 14.4321 48.9495C14.4321 48.9495 21.7902 44.0557 20.9301 37.2084" stroke="url(#E)"/></g><defs><linearGradient id="A" x1="50" y1="0" x2="7.715" y2="11.003" xlink:href="#F"><stop stop-color="#6a2e0e"/><stop offset="1" stop-color="#bc9986"/></linearGradient><linearGradient id="B" x1="21" y1="20" x2="3.897" y2="26.198" xlink:href="#F"><stop stop-color="#6a2e0e"/><stop offset="1" stop-color="#bc9986"/></linearGradient><linearGradient id="C" x1="35" y1="31" x2="21.293" y2="33.572" xlink:href="#F"><stop stop-color="#6a2e0e"/><stop offset="1" stop-color="#bc9986"/></linearGradient><linearGradient id="D" x1="23" y1="33" x2="-3.979" y2="39.146" xlink:href="#F"><stop stop-color="#6a2e0e"/><stop offset="1" stop-color="#bc9986"/></linearGradient><linearGradient id="E" x1="21" y1="34" x2="4.033" y2="38.305" xlink:href="#F"><stop stop-color="#6a2e0e"/><stop offset="1" stop-color="#bc9986"/></linearGradient><linearGradient id="F" gradientUnits="userSpaceOnUse"/></defs></svg>