<svg xmlns="http://www.w3.org/2000/svg" xmlns:xlink="http://www.w3.org/1999/xlink" width="178" height="90" fill="none" xmlns:v="https://vecta.io/nano"><style><![CDATA[.B{fill:#db713d}.C{stroke:#d2b39f}.D{stroke:#db713d}]]></style><path d="M177.56 75.633c0 9.777-37.219 12.418-80.849 12.418-94.06 3.171-84.023 2.115-84.023-7.662S-21.42 50.797 22.21 50.797c39.896-4.227 155.35 15.059 155.35 24.836z" fill="#ebd3c1"/><g class="B"><path d="M78.034 31.425l-.65.611c-.142.132-.279.266-.449.368-.26.156-.537.277-.805.415-.077.039-.17.06-.229.117-.173.167-.392.266-.578.413l-.656.522c-.178.123-.316.296-.419.488-.082.151-.143.313-.216.469-.251.531-.368 1.104-.518 1.666-.038.143-.042.3-.035.45.023.574.181 1.126.286 1.687.012.063.035.124.056.186l.174.52c.025.081.01.201.093.227.115.037.147-.099.213-.163a.24.24 0 0 0 .055-.079c.083-.215.235-.384.365-.569l.673-.985.628-1.056c.238-.429.414-.873.568-1.335.143-.428.299-.852.504-1.256.093-.182.194-.366.247-.561.09-.324.241-.622.356-.934l.358-.97c.021-.059.035-.126-.022-.229zm-.387-13.426c-.011.001-.027-.003-.032.003-.218.269-.396.562-.523.884a3.2 3.2 0 0 1-.706 1.074 1.97 1.97 0 0 0-.355.455c-.107.202-.262.364-.421.523-.413.412-.816.826-1.037 1.388-.199.505-.193.986.067 1.463l.321.598c.111.227.272.411.451.584.31.299.703.453 1.088.617l1.24.554c.343.187.664.404.882.742.058.09.132.17.202.252.027.031.058.071.108.052s.046-.067.049-.108l.046-.644.065-.97.09-1.681c.054-.482.072-.967.035-1.453l-.081-1.292-.06-.936-.16-1.118c-.025-.194-.067-.383-.134-.566l-.465-1.447c-.006-.021-.009-.042-.017-.062-.026-.062-.069-.122-.135-.127s-.113.055-.142.116a.23.23 0 0 0-.018.062c-.029.173-.102.329-.172.487a1.73 1.73 0 0 0-.088.243c-.029.105-.003.166.107.189.099.02.146.079.194.152.066.102.091.218.127.331.114.348.152.72.326 1.049.019.037.028.084.027.125-.005.194.032.388-.001.582-.042.247-.033.496-.01.743.041.432.009.863-.022 1.293-.008.109-.043.211-.092.309-.015.029-.035.059-.072.046-.028-.011-.057-.031-.074-.056-.07-.106-.055-.227-.058-.346l-.026-.906c-.018-.206-.012-.409-.01-.614l.017-.674c-.003-.475-.222-.898-.344-1.343-.039-.143-.102-.283-.13-.431-.01-.051-.007-.107-.057-.142zm-8.07-3.379l.194.016c.276.005.539-.074.767-.209.342-.201.647-.46.944-.725.144-.127.298-.246.404-.415l.396-.59a2 2 0 0 1 .228-.273l.613-.572c.063-.058.133-.114.209-.151.26-.13.514-.27.804-.333.331-.074.64-.058.925.146l.531.368c.035.024.075.04.114.056.008.005.026.003.031-.003.013-.016.032-.037.028-.053-.013-.05-.025-.108-.056-.148-.184-.225-.296-.5-.492-.72-.156-.175-.318-.349-.419-.569-.013-.026-.039-.05-.057-.077l-.716-1.077a4.72 4.72 0 0 0-.601-.799l-.645-.675c-.197-.236-.445-.408-.672-.603l-.884-.704c-.18-.138-.339-.296-.498-.458-.213-.214-.468-.381-.695-.58l-.647-.535c-.356-.267-.678-.569-.98-.892-.141-.151-.301-.278-.464-.402-.042-.032-.092-.056-.141-.077-.055-.024-.115.016-.109.077.018.172.078.328.166.482.15.262.305.524.416.804.127.318.212.654.309.984.037.124.054.254.084.381.117.492.228.987.191 1.5a.88.88 0 0 0 .004.161c.021.185-.006.365-.043.545-.085.413-.174.82-.328 1.215l-.463 1.31c-.14.397-.294.789-.376 1.204a2.5 2.5 0 0 0-.046.675c.028.386.189.728.362 1.064.058.114.142.222.26.283.258.13.507.278.806.318.182.026.362.045.545.05zM45.973 48.242c.013.068.053.084.094.093l.569.12c.404.07.808.135 1.191.29.06.024.124.042.187.052.445.066.88.201 1.335.204.04 0 .081.024.118.044.057.03.108.067.177.073.416.037.828.104 1.24.177.671.121 1.353.113 2.031.148.186.01.358.071.542.076.498.014.98.145 1.473.203.194.023.384.041.576.015l.767-.106 1.062-.101c.15-.002.3-.034.45-.047l.9-.104c.198-.01.408-.031.59-.142.043-.027.102-.027.154-.041.387-.105.786-.133 1.181-.184.203-.027.406-.059.595-.144.023-.01.037-.05.045-.078.003-.011-.022-.038-.039-.043-.103-.031-.211-.053-.299-.118-.267-.196-.577-.289-.885-.389-.206-.067-.412-.14-.581-.276-.351-.283-.694-.575-1.087-.801-.027-.016-.05-.041-.074-.062l-.558-.487c-.098-.086-.201-.163-.318-.222-.187-.094-.326-.245-.445-.413l-.418-.614c-.136-.204-.341-.359-.423-.601-.007-.02-.022-.038-.038-.052-.282-.262-.455-.633-.812-.822-.26-.281-.583-.476-.901-.68a.59.59 0 0 0-.331-.103c-.139-.001-.279-.023-.416-.05a3.31 3.31 0 0 0-1.22-.006c-.106.019-.215.041-.321.038-.387-.011-.713.17-1.034.339-.478.249-.863.635-1.303.942-.017.013-.035.027-.047.044-.138.205-.324.372-.455.584-.169.274-.335.557-.547.797l-.728.867-.542.551-.82.682c-.041.034-.078.092-.123.1-.199.036-.326.204-.513.246zM31.166 25.173l-.138 1.092c-.004.097.002.197-.023.289-.044.16-.048.321-.027.481.025.195.006.388-.018.581l-.03.353c-.028.356.048.709.02 1.066-.011.139-.018.281-.003.419.034.31.081.618.032.931-.008.051.013.106.022.159.069.437.169.866.295 1.29l.152.561.264.865.334.977c.046.165.036.34.115.5.067.134.095.284.117.436.045.308.15.601.294.876l.534.989c.155.342.347.668.524 1l.428.798c.087.188.203.347.329.51.23.297.513.554.686.894.019.038.045.078.08.101.195.128.312.322.451.501.131.169.286.32.442.468l.494.509c.12.148.26.282.398.415.154.15.315.294.448.465a1.24 1.24 0 0 0 .427.339c.025.013.064.015.089.004.034-.015.03-.057.019-.086l-.371-1.058c-.028-.064-.027-.17-.126-.157-.074.01-.054.106-.079.163-.013.029-.033.055-.052.081-.045.062-.11.076-.165.026-.112-.1-.23-.197-.327-.311-.081-.095-.084-.22-.044-.339a.17.17 0 0 1 .238-.085l.36.223c.016-.144.006-.266-.033-.39-.059-.185-.089-.375-.048-.571.056-.265.062-.535.077-.804.011-.197.057-.383.152-.556l.575-1.049.203-.405c.05-.128.122-.256.097-.403-.037-.217-.121-.413-.268-.58-.044-.05-.096-.09-.159-.106l-.938-.239c-.269-.058-.564-.205-.737-.417l-.343-.466c-.031-.043-.054-.094-.072-.144-.191-.541-.03-1.031.281-1.461.198-.274.465-.509.735-.718a7.05 7.05 0 0 0 .598-.54c.294-.287.374-.644.324-1.037-.027-.214-.112-.413-.185-.615-.186-.518-.428-1.001-.777-1.434-.156-.193-.308-.383-.504-.537-.314-.247-.636-.472-1.018-.611l-.655-.273a.71.71 0 0 1-.223-.129c-.158-.133-.347-.214-.516-.328-.134-.09-.278-.172-.391-.284-.141-.139-.305-.239-.467-.344-.045-.029-.098-.048-.139-.082l-1.052-.945c-.055-.05-.101-.111-.151-.166-.194-.216-.35-.461-.556-.69zM55.135.709c-.184-.082-.417-.103-.632-.048-.368.095-.744.13-1.121.153-.159.011-.332.024-.477-.026-.14-.048-.276-.032-.412-.058-.055-.011-.106.005-.154.037l-.459.294a.45.45 0 0 1-.458.064c-.1-.037-.196-.077-.309-.085-.284-.024-.561-.037-.819.111-.019.011-.04.016-.061.021-.336.079-.653.212-.972.339-.231.093-.471.164-.682.296s-.462.161-.684.283c-.319.175-.68.27-1.011.426l-1.41.712c-.115.058-.237.108-.342.18-.205.143-.429.249-.653.344-.459.196-.863.482-1.292.725l-.633.378c-.284.14-.519.347-.783.513-.319.201-.553.516-.91.664-.029.011-.057.034-.076.058-.073.098-.182.151-.269.23-.169.151-.37.259-.541.405l-1.165 1.024c-.038.037-.083.069-.119.106-.011.011-.005.04-.003.061.001.008.017.016.026.016.043.005.086.011.128.003.217-.029.436-.019.643.034.429.106.837.278 1.242.452l.909.41c.05.016.101.045.137.082.102.106.236.148.36.212.2.106.414.196.589.333.193.151.416.265.577.455.034.042.089.061.129.098.152.135.338.222.49.363a2.1 2.1 0 0 0 .589.386c.22.095.394.254.607.357.435.209.904.291 1.367.389a4.52 4.52 0 0 0 1.707.021c.373-.066.735-.169 1.072-.349.419-.225.807-.497 1.183-.786.05-.04.096-.087.137-.135.132-.156.289-.283.433-.426a2.5 2.5 0 0 0 .529-.717l.574-1.196c.233-.442.385-.913.52-1.387.127-.447.216-.902.258-1.365.016-.185.08-.357.096-.54.026-.288.08-.58.153-.86a8.89 8.89 0 0 1 .321-1.016c.109-.278.193-.572.373-.82l.296-.421c.024-.037.048-.074.081-.098.218-.159.404-.355.635-.498.095-.058.214-.101.283-.206zM37.794 40.407c-.006.054-.001.109-.007.162a1.78 1.78 0 0 0 .12.855l.285.719c.032.095.086.17.136.253l.386.705c.014.027.008.063.014.095.064.321.165.621.478.792.107.058.178.155.266.233l1.426 1.3c.212.23.474.406.699.62.331.314.712.558 1.081.818.316.224.681.365 1.021.55a.92.92 0 0 0 .464.119 2.2 2.2 0 0 1 .704.094c.394.127.736-.066 1.1-.128.019-.004.039-.02.052-.037.074-.091.18-.112.285-.14.041-.01.097-.025.112-.054.093-.183.342-.181.427-.369.275-.219.581-.407.746-.739.009-.018.028-.034.046-.044.182-.106.298-.285.421-.441.128-.162.329-.287.352-.525.002-.024.044-.045.069-.066.118-.097.202-.221.284-.349l.349-.503c.18-.246.426-.423.657-.615.057-.047.127-.08.191-.118.197-.114.395-.229.55-.397.235-.255.548-.372.85-.511.037-.017.084-.014.127-.019.235-.026.471-.071.706-.07.188.001.359-.064.543-.075.444-.026.878.002 1.312.114.404.104.775.256 1.092.535l.645.539a5.05 5.05 0 0 1 .824.945c.255.372.483.763.785 1.102.13.146.258.293.427.39.162.093.302.205.428.341.058.063.126.118.193.172l.506.401.516.376c.297.24.659.365 1.002.518l.469.218c.221.121.457.178.714.181.347.004.687-.057 1.031-.086.215-.018.43-.068.644-.063.448.012.852-.097 1.22-.351l.275-.171c.046-.028.088-.066.137-.084.539-.201.957-.575 1.368-.956.271-.251.577-.447.896-.626l.391-.227 1.403-.865a5.13 5.13 0 0 0 1.22-.949l1.124-1.117c.315-.308.658-.582.937-.934l.857-1.01c.115-.129.214-.271.325-.403.074-.087.117-.184.103-.297l-.126-.927-.393-1.802c-.049-.363-.068-.728.023-1.094.162-.65.36-1.289.596-1.916a1.82 1.82 0 0 1 .439-.671c.217-.21.445-.403.682-.588.502-.393 1.031-.742 1.62-.994.149-.064.284-.149.397-.272s.238-.217.363-.32c.181-.151.383-.296.502-.501.203-.351.515-.64.612-1.053.009-.038.046-.072.074-.104a.41.41 0 0 0 .094-.167c.069-.239.132-.479.131-.73 0-.064-.003-.132.014-.193.068-.245.033-.494.046-.741.022-.425-.225-.729-.451-1.043-.173-.24-.44-.374-.665-.552-.207-.163-.469-.258-.712-.373l-.682-.296c-.323-.149-.638-.315-.928-.523-.149-.107-.29-.227-.403-.373-.319-.416-.504-.902-.708-1.376-.029-.068-.042-.147-.045-.221l-.014-.615a1.43 1.43 0 0 1 .116-.501c.08-.191.185-.366.282-.546.202-.375.462-.702.796-.968.076-.061.14-.132.2-.209.207-.262.389-.542.637-.773.148-.138.275-.302.356-.496.126-.297.285-.579.435-.864.03-.057.045-.126.085-.173.248-.295.374-.653.522-.999a2.16 2.16 0 0 0 .163-.659 4.07 4.07 0 0 0-.066-1.127c-.065-.341-.191-.664-.31-.987-.213-.579-.482-1.13-.919-1.582-.204-.212-.433-.389-.698-.513-.098-.048-.19-.101-.282-.156-.213-.127-.398-.296-.628-.397-.079-.034-.154-.082-.243-.079-.319 0-.617.069-.883.254-.274.193-.54.394-.782.625-.071.069-.129.138-.183.22-.356.529-.721 1.05-1.244 1.437-.104.077-.196.169-.286.262-.076.077-.159.148-.257.193-.276.122-.563.222-.865.249-.648.058-1.265-.056-1.848-.349a1.26 1.26 0 0 1-.497-.447c-.172-.267-.281-.561-.398-.849-.036-.087-.051-.188-.057-.286-.021-.312-.021-.624.052-.934.053-.22.144-.431.167-.659.004-.04.03-.079.053-.116.137-.222.218-.468.311-.709l.286-.789a6.89 6.89 0 0 0 .387-1.405c.105-.627.027-1.246-.093-1.863-.033-.169-.092-.333-.14-.5l-.279-.963c-.018-.061-.049-.119-.077-.177-.189-.4-.447-.759-.637-1.159-.135-.283-.339-.521-.581-.725-.077-.063-.164-.127-.171-.225-.018-.243-.187-.352-.368-.455-.13-.077-.254-.164-.405-.198-.041-.011-.092-.021-.117-.05-.168-.198-.415-.262-.626-.386-.415-.243-.897-.296-1.323-.5-.437-.061-.853-.222-1.297-.257-.309-.021-.614-.095-.923-.132L60.264.672c-.202-.021-.403-.061-.608-.053-.066.003-.125-.019-.188-.034-.406-.108-.815-.201-1.24-.116-.04.008-.085 0-.127-.008-.108-.021-.216-.013-.322.011-.086.019-.17.034-.255.008-.097-.032-.194-.005-.289.003l-.611.071c-.169.024-.344.037-.481.167-.037.034-.098.042-.147.063-.148.066-.301.124-.387.275-.042.074-.107.106-.186.111-.182.013-.315.116-.459.217-.397.281-.677.656-.903 1.074-.211.389-.357.807-.454 1.241l-.237 1.103c-.03.193-.099.376-.13.566l-.176 1.051c-.038.193-.125.368-.143.561a.84.84 0 0 1-.095.307c-.088.172-.172.349-.23.532a4.57 4.57 0 0 1-.227.572l-.382.741c-.051.119-.051.257-.136.363-.267.336-.544.662-.877.937l-.293.249c-.206.201-.425.402-.674.54-.242.135-.457.328-.737.394-.04.008-.077.04-.111.066a.61.61 0 0 1-.269.103c-.074.011-.148.032-.22.053-.509.161-1.028.222-1.56.167l-.418-.048-1.141-.23c-.692-.196-1.306-.561-1.887-.976l-1.223-.947c-.145-.116-.299-.209-.468-.283-.138-.061-.295-.103-.404-.198-.183-.159-.405-.241-.613-.336-.437-.206-.894-.368-1.346-.542-.172-.066-.357-.111-.539-.087-.376.045-.743.135-1.058.365-.054.04-.103.064-.175.064-.139-.003-.242.061-.317.185-.179.296-.431.535-.645.804l-.465.535-.71.96c-.279.37-.55.746-.725 1.18-.064.161-.156.31-.24.458l-.38.675c-.114.243-.281.452-.383.704-.145.36-.354.693-.478 1.064-.034.101-.094.193-.138.291l-.509 1.152-.148.392-.383.959-.265.898c-.121.346-.19.705-.31 1.051-.091.263-.13.545-.177.822l-.285 1.588c-.086.477-.009.944-.027 1.415-.002.05.031.102.047.153.019.062.05.123.054.185.021.352.229.624.395.909.246.422.614.738.988 1.044.058.048.125.087.177.141a3.64 3.64 0 0 0 .702.563l.613.421c.353.252.731.462 1.131.622.472.19.914.409 1.305.75.331.289.597.616.824.982.238.386.411.806.602 1.216.068.145.104.306.159.457.062.169.017.342.023.513s-.085.533-.157.679c-.098.197-.238.36-.398.506l-.864.78c-.104.094-.187.206-.275.315-.145.179-.148.429-.319.592-.023.022-.014.082-.015.124-.014.362.211.6.445.825.081.078.17.163.294.192.22.052.434.141.656.168.247.03.45.145.658.257.183.099.349.246.437.421.167.336.206.698.035 1.058l-.38.745c-.166.289-.353.571-.425.904-.161.211-.157.461-.172.707-.005.086-.001.172-.001.258zm41.868-18.269c.051.637.063 1.273-.042 1.906-.016.095-.013.193-.016.29l-.014.55c-.003.702-.099 1.399-.12 2.101l-.001.485a3.04 3.04 0 0 1-.096.93c-.06.231-.082.468-.09.705s-.055.469-.136.694l-.421 1.222-.344.94c-.116.241-.169.511-.263.764l-.33.947c-.115.325-.259.641-.414.949a7.19 7.19 0 0 0-.407 1.02c-.146.453-.348.881-.587 1.292l-.895 1.496c-.159.256-.344.495-.518.742l-.132.183-.465.661-.589.81-.916 1.088-.573.657-.599.579c-.29.236-.551.508-.821.768l-.472.484c-.154.19-.354.351-.556.492l-1.111.723a2.13 2.13 0 0 0-.559.529c-.154.205-.309.417-.555.528-.02.009-.044.015-.056.031-.178.228-.448.329-.671.495-.163.121-.324.244-.465.393-.389.411-.863.671-1.425.76-.309.049-.603.165-.917.192-.061.005-.117.054-.178.075-.407.138-.817.261-1.245.331-.435.071-.861.187-1.278.339-.209.076-.444.081-.666.122l-1.196.243c-.353.101-.715.162-1.08.2l-.321.039a7.18 7.18 0 0 1-.804.079c-.279.011-.56.047-.835.098-.415.078-.836.111-1.254.127-.363.014-.733-.031-1.091-.114a6.57 6.57 0 0 0-1.438-.182c-.593-.006-1.182-.062-1.767-.162-.021-.003-.043-.009-.064-.009-.401 0-.793-.071-1.183-.152l-.317-.066c-.314-.081-.635-.117-.953-.173-.338-.06-.67-.162-1.001-.257-.291-.083-.585-.141-.883-.198-.676-.129-1.363-.229-2.002-.508-.369-.053-.672-.287-1.028-.376-.05-.012-.093-.052-.14-.079-.212-.127-.418-.265-.655-.347a.6.6 0 0 1-.251-.143c-.051-.053-.119-.093-.184-.13-.397-.225-.74-.518-1.068-.831l-.409-.368-1.303-1.251c-.374-.357-.79-.66-1.225-.938-.081-.052-.155-.116-.232-.175-.034-.026-.064-.065-.103-.078-.2-.065-.331-.235-.506-.328-.226-.121-.383-.312-.567-.474-.226-.198-.391-.458-.628-.647-.23-.372-.582-.63-.878-.941-.051-.054-.085-.125-.136-.18l-.41-.452c-.202-.207-.397-.423-.559-.667-.066-.099-.135-.198-.218-.281s-.131-.167-.181-.264l-.224-.391c-.032-.056-.086-.109-.094-.168-.025-.191-.18-.312-.239-.486s-.139-.347-.253-.486c-.179-.219-.268-.49-.449-.705-.033-.039-.046-.096-.067-.145s-.038-.102-.066-.147a3.5 3.5 0 0 1-.561-1.38c-.082-.379-.138-.768-.266-1.132l-.32-1.008c-.029-.069-.047-.143-.069-.215-.045-.144-.071-.297-.137-.431-.199-.398-.276-.835-.389-1.256-.11-.414-.168-.845-.175-1.28a5.63 5.63 0 0 0-.048-.645c-.036-.27.012-.54-.012-.808-.039-.43-.002-.859.026-1.287l.085-1.257.167-1.736c-.068-.276.065-.556-.019-.834-.021-.068-.019-.16.01-.223.095-.205.073-.42.074-.632 0-.176.089-.333.098-.507.032-.584.169-1.151.289-1.721l.342-1.311.361-1.242.662-1.717.479-1.024.265-.519c.144-.241.223-.511.354-.759l.645-1.228c.136-.222.211-.471.332-.701a3.25 3.25 0 0 1 .22-.357l.779-1.072c.323-.468.687-.91 1.087-1.32.18-.183.335-.394.496-.595.291-.363.636-.675.956-1.008.081-.087.174-.164.273-.228.253-.164.474-.365.696-.569.19-.175.398-.328.6-.49l1.114-.879a.73.73 0 0 1 .138-.085c.214-.108.396-.254.55-.439.033-.04.083-.069.13-.09.275-.13.523-.302.778-.463.073-.048.148-.09.224-.13.288-.148.55-.336.827-.5.199-.119.376-.288.627-.312.091-.011.178-.074.263-.122l.956-.542c.065-.037.137-.061.207-.087.03-.013.07-.013.091-.032.276-.259.68-.27.972-.5.039-.029.103-.026.154-.042.071-.024.151-.04.211-.079.207-.143.452-.201.671-.315.4-.209.847-.312 1.238-.542.329-.191.681-.32 1.05-.408.052-.013.102-.037.148-.066.235-.143.5-.191.763-.243.031-.008.067-.026.092-.019.229.087.473-.008.704.063.112.037.216-.011.303-.077.186-.143.423-.153.629-.243.051-.024.566.008.639.029a1.53 1.53 0 0 0 .765.011c.257-.053.513-.061.771-.074l.966-.058c.096-.005.191-.024.286-.048.113-.029.242-.061.351-.032.348.085.68-.013 1.019-.048.266-.026.536-.016.805-.021.108 0 .218.016.323-.003a1.17 1.17 0 0 1 .418.013l.854.161.48.069 1.05.188 1.279.201c.223.032.448.037.668.098.488.138.978.259 1.434.49.048.024.096.056.147.066.366.085.664.304.984.482l.508.283c.472.32.972.603 1.392.995.27.122.448.37.712.503a1.35 1.35 0 0 1 .347.288A7.31 7.31 0 0 0 69.99 4.88c.026.019.056.037.073.064.161.238.399.394.624.561.245.18.452.4.667.609.124.122.261.228.395.336l1.069.879.883.897c.175.217.382.41.537.646l.57.86c.175.246.306.516.518.741a4.8 4.8 0 0 1 .577.778l.77 1.117c.041.05.073.108.108.162l.333.516c.284.437.489.91.67 1.397l.468 1.17c.14.318.243.648.371.968.144.36.285.721.376 1.1.032.135.1.262.147.393.073.204.136.409.156.627.008.085.032.17.052.254.115.485.153.98.211 1.473.068.57.059 1.142.096 1.712z"/><path d="M61.061 26.403c0-.118.01-.238-.003-.355-.015-.138-.023-.288-.083-.408-.091-.183-.165-.372-.242-.561s-.203-.354-.361-.489c-.012-.011-.042-.011-.057-.004s-.033.032-.032.048l.036 1.129c.012.382-.035.753-.228 1.093a1.57 1.57 0 0 0-.072.145c-.111.252-.05.291.117.353.03.011.055.035.083.049.337.177.505.127.742-.242.011-.018.014-.041.023-.06.107-.222.112-.458.077-.697zm-11.63-.298c-.394.506-.551 1.03-.517 1.607.023.384.193.703.511.928a3.81 3.81 0 0 0 .496.301c.103.051.216.099.341.091s.292.067.351-.069c.046-.106-.103-.196-.17-.29-.087-.122-.205-.225-.277-.355-.14-.253-.29-.508-.372-.781-.074-.247-.194-.479-.229-.739-.028-.212-.082-.421-.136-.693zm9.727 2.538c-.11.04-.153.114-.197.189-.093.158-.21.291-.357.407l-.816.683c-.238.181-.485.355-.783.441l-.825.272c-.061.021-.121.048-.176.08-.437.256-.903.329-1.402.249-.254-.041-.504-.104-.769-.074-.123.014-.26-.023-.378-.068-.241-.092-.495-.149-.725-.272-.082-.044-.139-.007-.163.089-.042.164.01.32.028.48.052.46.292.8.653 1.07.184.137.385.24.614.274l.514.054c.166.01.326-.034.446-.151.099-.097.19-.208.261-.327.273-.456.669-.744 1.168-.911.166-.056.34-.049.507-.089.085-.02.165.024.245.06.205.092.412.19.627.25.328.091.658.104.966-.088.055-.034.121-.058.148-.12.058-.129.147-.235.236-.342.032-.039.052-.096.061-.147.082-.477.186-.951.155-1.44l-.037-.568zm.376-6.239c.115-.129.2-.253.229-.407.053-.281.034-.547-.086-.818-.098-.223-.243-.402-.4-.576-.183-.203-.401-.357-.672-.423-.073-.018-.143-.047-.216-.068l-.523-.149c-.494-.093-.986-.06-1.476.048-.209.046-.419.1-.638.027-.078-.026-.171-.016-.257-.011a1.36 1.36 0 0 1-.415-.046c-.222-.053-.426-.145-.63-.243a4.06 4.06 0 0 0-.947-.307c-.509-.104-.979.089-1.454.22-.183.051-.345.152-.51.255-.144.09-.3.157-.416.29-.041.047-.11.067-.16.107-.323.255-.624.527-.736.949-.023.088-.042.171.002.25.076.138.081.289.093.439.006.074-.006.155.043.219.08.105.138.215.138.353 0 .044.04.08.083.088s.08-.021.108-.057l.522-.659c.194-.231.429-.42.673-.596.052-.037.108-.07.167-.096l.74-.324c.284-.125.555-.286.879-.296.061-.002.121-.041.183-.062.154-.05.304-.124.462-.141a1.11 1.11 0 0 0 .399-.11c.109-.056.23-.08.344-.028.119.054.228.04.343-.004.069-.027.151-.067.216-.051.28.066.591-.038.849.148.284.015.543.115.807.211.219.08.455.109.624.297.063.07.187.051.251.138.079.108.197.165.306.233.383.239.675.561.877.963.044.088.095.166.197.236zm.294 3.063l.021-.001-.001-.647c-.001-.053-.016-.107-.031-.158l-.148-.496c-.044-.129-.071-.268-.227-.332-.093-.038-.118-.148-.145-.242-.06-.207-.119-.411-.302-.556-.073-.058-.119-.153-.168-.236-.165-.279-.329-.556-.638-.706-.054-.026-.092-.089-.132-.14-.206-.264-.536-.355-.783-.561-.014-.012-.041-.011-.062-.015-.108-.02-.201-.061-.283-.14a.31.31 0 0 0-.176-.073c-.223-.021-.442-.108-.67-.043-.066.018-.133 0-.187-.035-.296-.198-.617-.17-.937-.098-.297.066-.595.093-.897.059a1.05 1.05 0 0 0-.287.017c-.269.042-.529.096-.754.261-.025.018-.06.023-.091.034-.384.139-.748.301-1.068.572-.233.197-.454.404-.625.648-.313.449-.678.869-.874 1.393-.266.365-.309.8-.38 1.224-.033.201-.055.408-.045.611.017.354.039.71.183 1.044.03.069.039.145.059.218.011.042.013.096.04.122.161.15.187.36.258.55.064.172.151.333.258.484.205.29.406.575.678.817.341.304.631.559.998.739a.92.92 0 0 1 .162.105c.347.277.781.352 1.18.506.048.019.107.011.16.014l.225.009.828.106c.146.023.278.012.401-.073.035-.024.076-.039.116-.055l.993-.378c.061-.023.121-.049.184-.062.29-.064.548-.184.757-.401.036-.038.086-.062.13-.092l.43-.287c.214-.176.44-.337.591-.587.088-.145.176-.297.287-.428.268-.316.433-.692.618-1.056.092-.182.135-.392.241-.564.141-.229.147-.468.136-.717l-.024-.353zm-6.554-6.494c.032.002.066.013.097.006.285-.061.525.072.771.176l.857.375c.02.009.039.019.06.023.381.071.764.151 1.151.063.231-.053.467-.07.697-.12.171-.037.342-.034.514-.03.075.002.147.014.224-.007.108-.03.22-.022.305.057.079.074.183.056.272.091.382.152.738.356 1.109.53.129.061.185.213.326.259.093.162.23.279.373.396.064.053.077.15.088.238l.061.383c.037.246.06.489.011.74-.037.189-.097.374-.095.572 0 .103-.044.21-.162.26-.071.03-.076.092-.058.163.05.199.164.376.198.581.009.055.054.087.109.109.253.098.416.296.566.51l.17.232c.327.512.439.84.533 1.331.043.223.081.444.066.673-.013.216-.016.432-.15.62-.03.042-.043.099-.057.151-.097.349-.369.508-.679.623-.045.017-.108.003-.156-.014-.193-.069-.394-.104-.592-.15-.183-.042-.226-.03-.323.116l-.069.11c-.034.06-.049.125.005.178.117.113.098.261.093.396-.008.228-.01.452.064.672.046.137.013.281-.016.416a8.33 8.33 0 0 0-.126.831c-.01.088-.031.17-.065.249-.025.06-.069.115-.081.176-.052.271-.243.452-.421.636-.119.123-.269.193-.458.189-.18-.004-.361.037-.542.056-.108.011-.21-.006-.314-.049-.128-.054-.267-.082-.403-.118a1.18 1.18 0 0 1-.27-.102.6.6 0 0 0-.403-.05c-.22.036-.404.139-.592.235-.238.121-.404.329-.521.561a1.04 1.04 0 0 1-.958.6c-.319.008-.645-.008-.959-.116-.259-.088-.5-.192-.67-.418-.039-.051-.091-.092-.138-.137-.456-.442-.613-.998-.615-1.614 0-.032.008-.065.006-.097-.013-.227-.086-.414-.309-.523-.175-.085-.316-.222-.459-.353l-.119-.11c-.133-.116-.279-.156-.449-.083a.79.79 0 0 1-.247.067c-.279.025-.532-.059-.773-.18l-.729-.41c-.063-.035-.087-.091-.124-.143-.104-.149-.174-.316-.288-.463-.106-.137-.148-.332-.172-.517a1.65 1.65 0 0 1 .103-.848c.093-.229.158-.469.235-.705.051-.156.127-.298.226-.428.124-.162.277-.303.35-.501.004-.01.008-.026.015-.028.2-.06.166-.219.163-.37a.68.68 0 0 1 .035-.223c.156-.47.284-.951.558-1.373.036-.055.052-.118.03-.186-.037-.111-.049-.228-.089-.341-.101-.283-.169-.577-.254-.867-.052-.177-.072-.358-.094-.539-.034-.277.062-.53.147-.784.035-.104.133-.182.23-.218.16-.059.27-.174.39-.281.329-.294.669-.572 1.046-.803.141-.087.299-.164.452-.158.238.009.445-.083.66-.139s.422-.064.636-.058z"/><use xlink:href="#B"/></g><use xlink:href="#B" class="D"/><use xlink:href="#C" class="B"/><use xlink:href="#C" class="D"/><use xlink:href="#D" class="B"/><use xlink:href="#D" class="D"/><use xlink:href="#E" class="B"/><use xlink:href="#E" class="D"/><use xlink:href="#F" class="B"/><use xlink:href="#F" class="D"/><use xlink:href="#G" class="B"/><use xlink:href="#G" class="D"/><use xlink:href="#H" class="B"/><use xlink:href="#H" class="D"/><use xlink:href="#I" class="B"/><use xlink:href="#I" class="D"/><use xlink:href="#J" class="B"/><use xlink:href="#J" class="D"/><use xlink:href="#K" class="B"/><use xlink:href="#K" class="D"/><use xlink:href="#L" class="B"/><use xlink:href="#L" class="D"/><use xlink:href="#M" class="B"/><use xlink:href="#M" class="D"/><use xlink:href="#N" class="B"/><use xlink:href="#N" class="D"/><use xlink:href="#O" class="B"/><use xlink:href="#O" class="D"/><use xlink:href="#P" class="B"/><use xlink:href="#P" class="D"/><use xlink:href="#Q" class="B"/><use xlink:href="#Q" class="D"/><use xlink:href="#R" class="B"/><use xlink:href="#R" class="D"/><use xlink:href="#S" class="B"/><use xlink:href="#S" class="D"/><use xlink:href="#T" class="B"/><use xlink:href="#T" class="D"/><use xlink:href="#U" class="B"/><use xlink:href="#U" class="D"/><use xlink:href="#V" class="B"/><use xlink:href="#V" class="D"/><use xlink:href="#W" class="B"/><use xlink:href="#W" class="D"/><use xlink:href="#X" class="B"/><use xlink:href="#X" class="D"/><use xlink:href="#Y" class="B"/><use xlink:href="#Y" class="D"/><use xlink:href="#Z" class="B"/><use xlink:href="#Z" class="D"/><use xlink:href="#a" class="B"/><use xlink:href="#a" class="D"/><use xlink:href="#b" class="B"/><use xlink:href="#b" class="D"/><use xlink:href="#c" class="B"/><use xlink:href="#c" class="D"/><use xlink:href="#d" class="B"/><use xlink:href="#d" class="D"/><use xlink:href="#e" class="B"/><use xlink:href="#e" class="D"/><use xlink:href="#f" class="B"/><use xlink:href="#f" class="D"/><use xlink:href="#g" class="B"/><use xlink:href="#g" class="D"/><use xlink:href="#h" class="B"/><use xlink:href="#h" class="D"/><use xlink:href="#i" class="B"/><use xlink:href="#i" class="D"/><use xlink:href="#j" class="B"/><use xlink:href="#j" class="D"/><use xlink:href="#k" class="B"/><use xlink:href="#k" class="D"/><use xlink:href="#l" class="B"/><use xlink:href="#l" class="D"/><use xlink:href="#m" class="B"/><use xlink:href="#m" class="D"/><use xlink:href="#n" class="B"/><use xlink:href="#n" class="D"/><use xlink:href="#o" class="B"/><use xlink:href="#o" class="C"/><use xlink:href="#p" class="B"/><use xlink:href="#p" class="C"/><use xlink:href="#q" class="B"/><use xlink:href="#q" class="C"/><use xlink:href="#r" class="B"/><use xlink:href="#r" class="C"/><use xlink:href="#s" class="B"/><use xlink:href="#s" class="C"/><use xlink:href="#t" class="B"/><use xlink:href="#t" class="C"/><use xlink:href="#u" class="B"/><use xlink:href="#u" class="C"/><use xlink:href="#v" class="B"/><use xlink:href="#v" class="C"/><use xlink:href="#w" class="B"/><use xlink:href="#w" class="C"/><use xlink:href="#x" class="B"/><use xlink:href="#x" class="C"/><use xlink:href="#y" class="B"/><use xlink:href="#y" class="C"/><use xlink:href="#z" class="B"/><use xlink:href="#z" class="C"/><use xlink:href="#AA" class="B"/><use xlink:href="#AA" class="C"/><use xlink:href="#AB" class="B"/><use xlink:href="#AB" class="C"/><use xlink:href="#AC" class="B"/><use xlink:href="#AC" class="C"/><use xlink:href="#AD" class="B"/><use xlink:href="#AD" class="C"/><use xlink:href="#AE" class="B"/><use xlink:href="#AE" class="C"/><use xlink:href="#AF" class="B"/><use xlink:href="#AF" class="C"/><use xlink:href="#AG" class="B"/><use xlink:href="#AG" class="C"/><use xlink:href="#AH" class="B"/><use xlink:href="#AH" class="C"/><use xlink:href="#AI" class="B"/><use xlink:href="#AI" class="C"/><use xlink:href="#AJ" class="B"/><use xlink:href="#AJ" class="C"/><use xlink:href="#AK" class="B"/><use xlink:href="#AK" class="C"/><use xlink:href="#AL" class="B"/><use xlink:href="#AL" class="C"/><use xlink:href="#AM" class="B"/><use xlink:href="#AM" class="C"/><use xlink:href="#AN" class="B"/><use xlink:href="#AN" class="C"/><use xlink:href="#AO" class="B"/><use xlink:href="#AO" class="C"/><use xlink:href="#AP" class="B"/><use xlink:href="#AP" class="C"/><use xlink:href="#AQ" class="B"/><use xlink:href="#AQ" class="C"/><use xlink:href="#AR" class="B"/><use xlink:href="#AR" class="C"/><use xlink:href="#AS" class="B"/><use xlink:href="#AS" class="C"/><use xlink:href="#AT" class="B"/><use xlink:href="#AT" class="C"/><use xlink:href="#AU" class="B"/><use xlink:href="#AU" class="C"/><use xlink:href="#AV" class="B"/><use xlink:href="#AV" class="C"/><use xlink:href="#AW" class="B"/><use xlink:href="#AW" class="C"/><use xlink:href="#AX" class="B"/><use xlink:href="#AX" class="C"/><use xlink:href="#AY" class="B"/><use xlink:href="#AY" class="C"/><use xlink:href="#AZ" class="B"/><use xlink:href="#AZ" class="C"/><use xlink:href="#Aa" class="B"/><use xlink:href="#Aa" class="C"/><use xlink:href="#Ab" class="B"/><use xlink:href="#Ab" class="C"/><use xlink:href="#Ac" class="B"/><use xlink:href="#Ac" class="C"/><use xlink:href="#Ad" class="B"/><use xlink:href="#Ad" class="C"/><use xlink:href="#Ae" class="B"/><use xlink:href="#Ae" class="C"/><use xlink:href="#Af" class="B"/><use xlink:href="#Af" class="C"/><use xlink:href="#Ag" class="B"/><use xlink:href="#Ag" class="C"/><use xlink:href="#Ah" class="B"/><use xlink:href="#Ah" class="C"/><use xlink:href="#Ai" class="B"/><use xlink:href="#Ai" class="C"/><use xlink:href="#Aj" class="B"/><use xlink:href="#Aj" class="C"/><use xlink:href="#Ak" class="B"/><use xlink:href="#Ak" class="C"/><use xlink:href="#Al" class="B"/><use xlink:href="#Al" class="C"/><use xlink:href="#Am" class="B"/><use xlink:href="#Am" class="C"/><use xlink:href="#An" class="B"/><use xlink:href="#An" class="C"/><use xlink:href="#Ao" class="B"/><use xlink:href="#Ao" class="C"/><use xlink:href="#Ap" class="B"/><use xlink:href="#Ap" class="C"/><use xlink:href="#Aq" class="B"/><use xlink:href="#Aq" class="C"/><use xlink:href="#Ar" class="B"/><use xlink:href="#Ar" class="C"/><use xlink:href="#As" class="B"/><use xlink:href="#As" class="C"/><use xlink:href="#At" class="B"/><use xlink:href="#At" class="C"/><use xlink:href="#Au" class="B"/><use xlink:href="#Au" class="C"/><use xlink:href="#Av" class="B"/><use xlink:href="#Av" class="C"/><use xlink:href="#Aw" class="B"/><use xlink:href="#Aw" class="C"/><use xlink:href="#Ax" class="B"/><use xlink:href="#Ax" class="C"/><use xlink:href="#Ay" class="B"/><use xlink:href="#Ay" class="C"/><use xlink:href="#Az" class="B"/><use xlink:href="#Az" class="C"/><use xlink:href="#BA" class="B"/><use xlink:href="#BA" class="C"/><use xlink:href="#BB" class="B"/><use xlink:href="#BB" class="C"/><use xlink:href="#BC" class="B"/><use xlink:href="#BC" class="C"/><use xlink:href="#BD" class="B"/><use xlink:href="#BD" class="C"/><use xlink:href="#BE" class="B"/><use xlink:href="#BE" class="C"/><use xlink:href="#BF" class="B"/><use xlink:href="#BF" class="C"/><use xlink:href="#BG" class="B"/><use xlink:href="#BG" class="C"/><use xlink:href="#BH" class="B"/><use xlink:href="#BH" class="C"/><use xlink:href="#BI" class="B"/><use xlink:href="#BI" class="C"/><use xlink:href="#BJ" class="B"/><use xlink:href="#BJ" class="C"/><use xlink:href="#BK" class="B"/><use xlink:href="#BK" class="C"/><use xlink:href="#BL" class="B"/><use xlink:href="#BL" class="C"/><use xlink:href="#BM" class="B"/><use xlink:href="#BM" class="C"/><use xlink:href="#BN" class="B"/><use xlink:href="#BN" class="C"/><use xlink:href="#BO" class="B"/><use xlink:href="#BO" class="C"/><use xlink:href="#BP" class="B"/><use xlink:href="#BP" class="C"/><use xlink:href="#BQ" class="B"/><use xlink:href="#BQ" class="C"/><use xlink:href="#BR" class="B"/><use xlink:href="#BR" class="C"/><use xlink:href="#BS" class="B"/><use xlink:href="#BS" class="C"/><use xlink:href="#BT" class="B"/><use xlink:href="#BT" class="C"/><use xlink:href="#BU" class="B"/><use xlink:href="#BU" class="C"/><use xlink:href="#BV" class="B"/><use xlink:href="#BV" class="C"/><use xlink:href="#BW" class="B"/><use xlink:href="#BW" class="C"/><use xlink:href="#BX" class="B"/><use xlink:href="#BX" class="C"/><use xlink:href="#BY" class="B"/><use xlink:href="#BY" class="C"/><use xlink:href="#BZ" class="B"/><use xlink:href="#BZ" class="C"/><use xlink:href="#Ba" class="B"/><use xlink:href="#Ba" class="C"/><use xlink:href="#Bb" class="B"/><use xlink:href="#Bb" class="C"/><use xlink:href="#Bc" class="B"/><use xlink:href="#Bc" class="C"/><defs ><path id="B" d="M40.753 32.177c.008.029.008.06.007.091-.001.064-.002.123.074.143.058.016.09-.026.121-.069.016-.021.032-.042.051-.056.052-.039.084-.09.118-.144a5.91 5.91 0 0 0 .334-.632 7.39 7.39 0 0 0 .454-1.239 1.53 1.53 0 0 0 .037-.22c.016-.139.032-.277.117-.399.007-.009.004-.025.001-.041l-.003-.022c-.003-.061-.062-.097-.112-.07-.118.064-.196.164-.266.276-.11.176-.196.363-.283.55l-.052.111c-.169.361-.332.726-.448 1.107l-.025.081c-.055.178-.11.356-.127.533zm-.42.079c.008-.451.14-.868.331-1.271.019-.04.033-.083.047-.127l.029-.085.214-.492.186-.421c.068-.166.183-.314.297-.461l.098-.127.048-.063c.063-.081.125-.162.163-.259.02-.051.044-.104.097-.123.026-.009.049-.026.072-.043.047-.034.095-.069.159-.036.039.02.082.031.125.042.091.024.183.048.234.15.113.223.215.435.099.703a1.92 1.92 0 0 0-.105.379l-.057.243-.101.304-.101.304c-.075.255-.188.492-.302.73l-.204.451c-.03.074-.083.139-.136.204l-.103.138a4.05 4.05 0 0 1-.398.542c-.106.123-.291.166-.407.087-.154-.105-.282-.237-.285-.443l-.001-.222v-.101z"/><path id="C" d="M55.752 14.094c.006.017.009.033.011.049.006.038.012.068.055.068.027 0 .059-.021.078-.042.305-.325.518-.709.721-1.101.181-.347.254-.725.325-1.109a3.75 3.75 0 0 0 .039-.3c.02-.189.039-.378.112-.558.012-.029.013-.063.011-.095-.004-.045-.026-.087-.072-.095-.023-.003-.061.024-.074.048l-.07.138a1.22 1.22 0 0 1-.13.229c-.291.368-.494.773-.564 1.241-.005.035-.02.068-.035.101l-.009.02c-.074.165-.118.338-.163.514l-.026.1-.03.124c-.027.116-.054.231-.105.342-.034.073-.047.156-.059.233l-.016.093zm-.386.315l.032-.228.072-.46.004-.018.294-1.369a2.82 2.82 0 0 1 .515-1.069 3.4 3.4 0 0 0 .455-.778c.034-.085.087-.117.16-.14.21-.069.472.021.538.273.068.259.118.508.005.786-.088.22-.124.461-.159.699l-.023.153c-.064.4-.212.767-.401 1.119l-.115.219-.368.657c-.123.195-.286.347-.449.5l-.003.003c-.142.135-.427.087-.508-.079-.028-.058-.035-.127-.041-.191l-.009-.077z"/><path id="D" d="M56.835 5.401c-.017-.049-.011-.101-.004-.154.008-.065.017-.131-.021-.193-.01-.016-.033-.024-.052-.029-.004-.003-.019.011-.022.018l-.02.066-.039.116a.78.78 0 0 0-.034.097c-.024.08-.048.161-.13.21-.128.074-.164.198-.17.328l-.052.64c-.051.359.005.706.06 1.053l.036.231c.007.05.03.097.051.143.011.024.035.043.053.045s.04-.019.046-.032l.061-.15c.051-.121.102-.241.123-.366l.019-.113c.052-.312.105-.625.085-.946a4.22 4.22 0 0 1 .005-.462l.003-.504zm.402.442c.017.239-.008.523-.034.824l-.039.539c-.004.09-.031.171-.058.252l-.045.153c-.069.312-.144.627-.273.924l-.019.045c-.014.034-.028.07-.049.101-.088.124-.205.146-.335.058-.099-.066-.198-.135-.197-.275 0-.032-.009-.066-.024-.093-.176-.309-.192-.645-.208-.983l-.009-.176-.004-.06-.015-.81.065-.77.029-.32c.012-.14.093-.243.19-.328.084-.074.155-.151.172-.262.019-.122.105-.182.19-.242l.081-.06c.018-.016.05-.018.079-.02a.44.44 0 0 1 .47.359c.056.323.047.648.034 1.071l-.002.075z"/><path id="E" d="M54.037 35.28c.02.002.024-.007.011-.028-.016.011-.014.016-.013.022zm.796 2.849l-.003-.027-.008-.067-.011-.088c-.024-.195-.049-.389-.103-.579-.032-.112-.054-.227-.077-.342-.044-.222-.087-.444-.198-.648v-.001c-.01-.019-.022-.04-.021-.06.005-.147-.045-.279-.095-.412l-.077-.241c-.011-.052-.031-.104-.056-.15s-.078-.058-.109-.022c-.136.156-.266.31-.15.545.039.08.057.17.075.261l.024.114c.071.289.175.567.28.845l.159.438c.041.12.115.23.189.339l.088.133c.007.011.04.017.056.011s.018-.017.026-.031l.011-.019zm.407.133c.028.157-.017.299-.102.428-.074.113-.18.145-.308.091a.85.85 0 0 1-.45-.439l-.125-.267-.244-.551-.547-1.58c-.052-.166-.092-.331-.069-.505.002-.012.002-.026.003-.04.001-.035.003-.07.02-.084.123-.097.136-.227.15-.359l.013-.107c.018-.112.091-.208.161-.299.043-.056.092-.079.146-.084.24-.022.462.063.521.328.057.254.136.501.215.748.104.325.208.65.261.99.009.061.031.12.052.178l.013.037c.089.255.169.51.181.783.004.083.025.166.047.249l.017.067c.035.143.067.275.043.415z"/><path id="F" d="M66.398 31.568v.028c.001.058.001.106.051.131s.106.001.15-.032a1.29 1.29 0 0 0 .288-.3c.091-.131.162-.273.232-.414l.187-.345c.048-.076.086-.158.124-.239.057-.122.113-.245.205-.348.021-.023.034-.056.043-.086.049-.178.121-.343.222-.499.065-.1.088-.219.089-.34.001-.051-.041-.096-.077-.082l-.089.03c-.114.036-.229.072-.299.18l-.196.284c-.169.239-.338.478-.446.755l-.157.358c-.089.193-.179.387-.236.593l-.082.294-.009.032zm-.389.142a3.13 3.13 0 0 1 .234-.872l.546-1.243c.026-.058.061-.114.1-.165.198-.258.371-.527.481-.836.053-.15.135-.196.3-.164.09.017.165-.002.246-.023l.006-.002a.33.33 0 0 1 .408.218c.03.093.05.189.07.285l.034.156c.015.064-.006.12-.027.176l-.015.043-.102.269c-.061.151-.122.301-.154.463-.014.068-.055.13-.095.192l-.04.064c-.177.296-.346.595-.479.916-.129.314-.365.554-.625.77-.132.11-.25.208-.412.242-.199.042-.365-.043-.434-.235-.03-.082-.048-.166-.04-.255z"/><path id="G" d="M64.926 26.087l.125-.066c.092-.05.183-.1.281-.129.192-.057.362-.154.532-.252l.131-.074.097-.049c.073-.035.147-.07.21-.127l.067-.061c.136-.124.273-.248.432-.345.062-.038.113-.101.153-.163.019-.029.013-.087-.004-.122s-.069-.046-.114-.042c-.079.007-.144.045-.202.094-.233.198-.49.361-.746.524l-.448.295c-.2.141-.391.291-.513.516zm-.242.057l.006.013-.006-.013zm2.894-1.514a.49.49 0 0 1-.123.317c-.243.293-.534.526-.85.733l-.044.029-.362.233c-.173.107-.345.212-.542.279a2.15 2.15 0 0 0-.655.343 1.39 1.39 0 0 1-.456.232c-.188.058-.337-.001-.458-.147-.145-.175-.156-.354-.005-.526l.03-.034c.087-.1.174-.201.309-.256.122-.049.216-.139.311-.228a1.44 1.44 0 0 1 .219-.182l.48-.325c.271-.19.542-.381.841-.528.129-.064.231-.161.322-.267.188-.219.432-.219.682-.182.137.02.225.124.272.25a.47.47 0 0 1 .03.259z"/><path id="H" d="M46.139 15.941c.002-.029-.053-.077-.087-.058a3.28 3.28 0 0 1-.286.128c-.17.07-.341.141-.489.261a4.49 4.49 0 0 1-.334.238l-.193.132-.052.037c-.08.056-.161.112-.225.183-.107.119-.224.226-.342.334l-.192.179c-.111.108-.209.228-.307.348l-.013.016c-.065.079-.064.153-.011.203s.112.037.177.007c.104-.047.199-.108.294-.17l.146-.091c.398-.235.791-.473 1.094-.832.102-.044.177-.12.253-.196.06-.06.121-.121.196-.167.092-.055.163-.147.233-.237l.073-.091c.049-.061.062-.138.064-.225zm-2.428 2.436c-.255.027-.439-.133-.566-.384-.067-.132-.047-.255.05-.359l.244-.255.331-.351c.28-.319.618-.561.962-.804l.243-.182.218-.165.056-.042c.051-.04.102-.079.16-.101.214-.085.395-.217.562-.37.089-.079.184-.101.294-.034a1.05 1.05 0 0 0 .103.05l.1.048c.088.048.135.119.169.22.074.217.073.394-.081.593-.134.175-.269.336-.447.458-.268.184-.504.404-.741.625l-.066.062c-.149.141-.3.283-.48.389-.139.082-.274.173-.384.295-.072.08-.167.124-.261.168a.93.93 0 0 0-.229.135c-.024.021-.069.017-.129.011l-.107-.006z"/><path id="I" d="M61.07 35.155c-.004-.043-.027-.071-.059-.072-.11-.003-.219.015-.295.102-.116.133-.268.223-.417.3l-.075.038c-.596.306-.615.315-1.061.674-.155.125-.271.273-.337.461-.006.016.002.044.013.058s.041.027.053.021l.131-.054c.116-.047.232-.094.333-.164l.178-.113c.124-.075.248-.15.35-.258.034-.036.092-.054.142-.07.082-.025.148-.074.214-.122l.084-.059c.163-.105.291-.245.419-.384l.282-.282c.016-.013.025-.035.034-.054l.011-.023zm-.058-.672c.112.029.186.018.262.006a.86.86 0 0 1 .193-.009c.284.022.394.109.39.435-.001.067-.019.121-.072.171l-.432.407-.653.611c-.229.209-.469.405-.771.51a1.03 1.03 0 0 0-.334.19c-.092.081-.199.136-.305.191-.092.048-.185.096-.268.16-.128.1-.307.158-.455.06s-.223-.257-.218-.446a.82.82 0 0 1 .164-.45c.098-.14.218-.268.342-.385.076-.072.163-.133.25-.194l.11-.079.026-.02c.285-.212.57-.425.905-.557.249-.098.428-.289.6-.48.092-.102.172-.155.267-.121z"/><path id="J" d="M49.184 40.047c-.082.134-.139.28-.17.436.161-.065.244-.132.329-.257l.044-.064.268-.383.447-.591.329-.434c.065-.087.117-.182.136-.29.005-.026-.009-.067-.029-.083-.035-.028-.08-.016-.12.005-.014.007-.023.012-.025.018-.031.091-.1.137-.171.185l-.073.052c-.128.102-.24.224-.353.345l-.118.126c-.014.014-.023.034-.031.053l-.015.031-.19.367-.258.483zm-.839 1.029c.001-.169.065-.375.161-.569l.357-.7.188-.363.11-.233a.86.86 0 0 1 .147-.249c.106-.121.183-.257.248-.408.131-.305.358-.533.666-.671.06-.027.129-.057.186-.023.091.053.188.063.286.072l.122.015c.211.037.27.121.243.339-.017.132-.079.244-.142.356l-.089.172c-.063.143-.162.26-.262.376l-.17.213-.142.21-.598.806-.289.34-.426.489c-.108.113-.252.203-.433.177-.107-.016-.143-.047-.153-.166l-.005-.095-.004-.086z"/><path id="K" d="M64.288 18.826a.52.52 0 0 0 .049.365l.266.512.241.464a1.01 1.01 0 0 0 .085.137l.251.332.353.468c.066.088.14.164.239.213s.169.033.223-.053a.65.65 0 0 0 .04-.648c-.19-.396-.495-.702-.817-.99l-.212-.18c-.144-.119-.288-.238-.413-.38-.05-.058-.114-.103-.189-.155l-.116-.085zm-.663-.171c-.012-.1.024-.222.106-.33a.42.42 0 0 1 .627-.039c.022.022.04.048.059.074l.041.054c.2.237.4.473.671.635.11.189.283.303.456.418l.178.123c.053.04.099.081.119.148.041.138.134.244.227.35.182.206.309.436.359.713.047.263-.012.491-.162.703-.006.009-.013.017-.021.025-.027.027-.051.058-.075.089-.071.089-.142.179-.271.18-.191.001-.36-.085-.49-.219-.119-.123-.227-.261-.319-.406l-.325-.492-.42-.642-.452-.81c-.042-.094-.081-.183-.169-.231-.125-.069-.138-.183-.139-.34z"/><path id="L" d="M38.094 19.812l.004-.031c.003-.022.007-.044.005-.065-.02-.325-.059-.643-.34-.865-.015-.012-.039-.021-.057-.018s-.039.023-.04.037l-.015.138c-.014.115-.029.23-.017.342l.168 1.269c.02.129.056.256.093.383l.033.117c.012.044.055.071.098.063.024-.005.058-.04.061-.064l.028-.181c.03-.18.06-.36.034-.551l-.027-.155c-.026-.137-.053-.276-.029-.418zm-.833-.869l-.003-.064-.006-.128-.002-.049c-.007-.153-.014-.306.103-.433.014-.015.021-.038.025-.059.02-.114.064-.222.197-.207l.022.002c.139.014.289.03.347.202.031.091.086.169.142.246l.041.058c.199.288.34.61.35.958l.023.381.022.357c-.002.02-.003.026-.002.032.096.489.001.965-.093 1.44l-.019.094-.035.191c-.026.175-.032.183-.181.21-.134.025-.257-.013-.295-.132-.05-.157-.114-.309-.178-.46l-.209-.566c-.06-.221-.091-.445-.122-.67l-.075-.47c-.042-.209-.048-.425-.053-.641l-.01-.29h.013z"/><path id="M" d="M50.583 14.85l.005-.095.02-.304c.026-.262-.083-.479-.223-.688-.032-.048-.106-.034-.13.021-.14.318-.234.646-.157.998.022.1.014.198.007.295l-.004.057c-.021.312-.029.622.085.921a.37.37 0 0 1 .016.063c.012.063.023.126.112.124.067 0 .086-.053.106-.106.008-.02.015-.04.025-.058a.53.53 0 0 0 .068-.212 6.77 6.77 0 0 0 .071-1.016zm-.91.021c-.014-.333-.021-.667.027-.998l.006-.045c.022-.162.045-.331.188-.45.024-.021.048-.05.054-.079.036-.172.156-.217.309-.222.164-.005.304.042.375.201l.066.145c.154.332.308.665.278 1.049l-.013.461-.018.508-.084.621-.027.178c-.025.17-.113.32-.199.469l-.066.115c-.035.063-.093.118-.171.142-.128.039-.265 0-.331-.127-.149-.286-.279-.58-.333-.903-.04-.238-.045-.479-.05-.719l-.011-.344z"/><path id="N" d="M58.301 18.045a.21.21 0 0 0 .17-.065c.352-.351.631-.758.888-1.179l.163-.293c.087-.165.174-.33.289-.479.016-.02.027-.045.038-.069.038-.084-.006-.151-.079-.148-.091.003-.158.037-.217.114-.086.112-.161.232-.237.351l-.287.415-.239.325-.216.296c-.167.21-.238.449-.273.733zm2.073-2.321a.39.39 0 0 1-.057.214l-.084.143-.166.275-.229.348-.383.593-.097.167c-.085.149-.169.298-.284.43l-.073.085c-.207.24-.414.48-.677.664-.174.122-.353.087-.461-.096a.53.53 0 0 1-.061-.375c.094-.508.3-.964.665-1.337.245-.249.415-.549.585-.849l.03-.052c.018-.032.018-.067.017-.101 0-.019-.001-.039.002-.058.028-.175.095-.317.296-.373.169-.048.336-.074.509-.074.136.003.25.064.357.138.088.061.103.161.111.259z"/><path id="O" d="M39.497 14.115c.037.013.066-.005.084-.029.092-.135.163-.28.206-.437l.007-.024c.035-.127.071-.258.146-.364.084-.12.136-.253.189-.387l.139-.309c.026-.044.036-.099.046-.151l.006-.031.082-.44.03-.165.006-.027c.005-.023.01-.046.01-.069-.001-.071-.052-.114-.108-.148s-.106 0-.142.04l-.032.035c-.049.052-.099.106-.124.169l-.081.193c-.069.162-.139.323-.179.498l-.053.259c-.036.188-.072.375-.137.556s-.084.366-.104.554l-.029.238c-.001.009.012.02.025.03zm-.405-.005a2.27 2.27 0 0 1 .094-.603c.067-.228.129-.455.152-.693.035-.36.159-.691.326-1.008.081-.153.156-.304.092-.487-.014-.042-.001-.085.034-.117l.045-.045c.038-.04.077-.079.122-.106.143-.09.289-.132.453-.032.232.138.413.312.475.585.029.124.047.251-.018.378-.09.175-.125.368-.154.558a1.41 1.41 0 0 1-.256.622c-.171.241-.294.5-.344.794-.01.061-.037.124-.07.177l-.253.376a.91.91 0 0 1-.089.104l-.039.042c-.154.175-.462.087-.522-.13l-.015-.052a.79.79 0 0 1-.032-.136c-.006-.053-.004-.105-.003-.158l.001-.07z"/><path id="P" d="M45.942 24.87l.015-.208.03-.486c.001-.037-.021-.088-.05-.111-.045-.036-.104-.022-.15.012l-.028.02c-.037.026-.077.054-.088.089-.025.079-.06.154-.094.229-.051.109-.101.218-.122.341-.048.288-.064.578-.079.868l-.017.294a4.32 4.32 0 0 0 .011.555l.012.22c.002.045.023.089.07.098s.069-.028.091-.061c.205-.312.31-.647.355-1.006a5.09 5.09 0 0 0 .043-.855zm-.94 1.199a6.08 6.08 0 0 1 .129-1.447c.001-.007.003-.013.005-.02.005-.015.009-.03.007-.043-.051-.271.088-.463.227-.654l.126-.184c.05-.083.152-.116.25-.132.11-.018.217.003.323.024l.092.017c.085.014.144.085.171.177.086.287.076.578.002.861a1.18 1.18 0 0 0-.032.413c.027.309.052.618-.061.924-.078.211-.124.436-.167.657s-.163.397-.305.559c-.238.27-.511.124-.629-.107-.084-.166-.154-.355-.139-.559a3.69 3.69 0 0 0 .004-.336l-.002-.15z"/><path id="Q" d="M64.121 41.165c.003.014.01.045.027.054s.064.002.087-.014c.17-.116.319-.258.467-.4l.043-.041a9.19 9.19 0 0 0 .838-.925.69.69 0 0 0 .165-.344c.014-.112-.078-.189-.183-.148-.121.047-.23.114-.32.211l-.044.049a.64.64 0 0 1-.165.149c-.179.096-.314.237-.449.38l-.101.105c-.248.25-.357.553-.366.925zm2.029-1.727c-.02.145-.068.324-.155.483-.062.112-.141.214-.221.316l-.079.102a6.98 6.98 0 0 1-.556.626l-.176.184c-.007.008-.015.015-.024.022-.306.238-.614.471-.966.64-.069.033-.137.059-.216.057-.161-.004-.274-.154-.227-.31a1.45 1.45 0 0 1 .046-.123l.034-.088.015-.041c.05-.139.1-.28.096-.428-.008-.267.114-.48.265-.676.23-.299.516-.546.804-.785l.532-.411.283-.213c.047-.037.095-.046.15-.03l.048.015.107.03c.073.013.106.063.134.124.061.132.104.314.105.508z"/><path id="R" d="M61.701 8.915c-.054.092-.035.174-.016.252l.008.036.048.232.104.528.058.409.031.232c.028.196.107.36.279.5.068-.143.074-.27.075-.397.002-.43-.122-.831-.247-1.233l-.036-.116c-.056-.183-.168-.31-.305-.442zm.972 1.844l-.025.253-.062.607c-.017.153-.067.294-.176.41-.057.061-.136.066-.203.013-.061-.045-.109-.103-.132-.177-.042-.138-.108-.257-.198-.368-.182-.228-.238-.5-.287-.775l-.148-.955c-.012-.085-.036-.168-.061-.25-.034-.114-.068-.227-.067-.349 0-.046-.034-.075-.067-.104l-.026-.023c-.088-.085-.099-.185-.054-.296.122-.304.16-.357.529-.347.011 0 .021.002.032.004s.021.004.032.004c.289.005.404.206.481.439l.019.061c.021.072.042.144.09.206.041.053.064.111.08.175.107.418.201.839.241 1.267a1.18 1.18 0 0 1 .002.134l-.001.07z"/><path id="S" d="M47.268 34.271c.034-.008.058-.014.072-.029.127-.135.274-.246.422-.358s.304-.23.434-.37l.343-.354.17-.173c.023-.023.044-.047.064-.073.056-.076.063-.174.017-.204-.053-.034-.096-.01-.138.014l-.039.02c-.058.025-.122.055-.162.101-.088.1-.193.18-.298.261s-.212.163-.301.264l-.341.364-.231.242c-.059.064-.097.143-.087.235.003.033.021.059.077.06zm-.495.029c-.006-.258.093-.484.285-.68l.34-.373.266-.297c.095-.102.196-.207.316-.274a1.03 1.03 0 0 0 .296-.245c.215-.261.508-.301.808-.307.189-.004.27.098.277.285a.78.78 0 0 1-.05.318c-.005.013-.013.027-.02.04-.014.026-.029.053-.028.079.008.235-.14.369-.292.507l-.027.025-.395.374-.23.22a.59.59 0 0 1-.126.097c-.058.031-.113.06-.158.109-.109.116-.238.208-.367.299l-.31.242c-.062.058-.127.069-.205.03-.03-.015-.062-.027-.095-.038l-.084-.033c-.154-.072-.23-.191-.203-.379z"/><path id="T" d="M72.38 19.026l-.005-.053-.008-.068c-.009-.05-.016-.09-.061-.104s-.082.016-.107.051l-.055.074-.208.293c-.281.436-.507.898-.632 1.405-.031.125-.057.253-.031.383.003.017.022.038.038.044s.046.002.058-.01c.197-.184.378-.38.508-.622.122-.227.232-.46.321-.701.085-.232.155-.469.181-.693zm.35-.261c.029.496-.158.965-.363 1.431-.144.327-.317.634-.535.916l-.394.469c-.082.091-.19.151-.319.113-.138-.04-.224-.146-.231-.284l-.004-.081c-.016-.327-.033-.654.104-.971l.133-.319.263-.602c.12-.242.247-.479.406-.697.02-.026.03-.039.034-.055.051-.211.202-.34.355-.471l.055-.047c.16-.139.346-.119.454.06.04.067.058.139.055.216l-.009.204-.006.115z"/><path id="U" d="M39.828 7.732a.23.23 0 0 1-.214-.212c0-.093.032-.175.108-.225.173-.115.316-.264.458-.412l.297-.29.223-.208.036-.035c.206-.204.416-.397.677-.54.327-.18.635-.394.941-.609.106-.077.22-.132.333-.187l.034-.017c.316-.157.603-.357.889-.557l.2-.139c.132-.091.274-.163.416-.236.173-.089.346-.178.501-.298a.4.4 0 0 1 .168-.062l.076-.018c.007-.002.014-.001.021-.001.063.006.097.043.09.085-.022.132-.091.241-.216.299a6.41 6.41 0 0 0-.919.535l-.331.238-1.042.712c-.154.093-.298.199-.443.305-.227.167-.454.333-.715.447l-.197.171c-.14.118-.279.236-.394.376-.143.173-.306.323-.469.473l-.285.27c-.068.069-.154.119-.245.132z"/><path id="V" d="M50.931 2.048l-.036.003a.91.91 0 0 0-.179.028c-.198.063-.401.09-.606.098-.186.008-.364.058-.537.111l-.108.032-.324.092c-.132.032-.271.093-.372.18-.074.066-.161.096-.247.126-.074.026-.148.051-.212.099-.067.053-.234-.032-.273-.111-.024-.053-.003-.167.061-.204a1.37 1.37 0 0 0 .104-.075c.075-.058.15-.116.252-.139.131-.029.258-.085.383-.141l.065-.029c.16-.074.329-.101.5-.122l.192-.017c.141-.011.282-.021.416-.06a3.81 3.81 0 0 1 .354-.075l.308-.063a1.19 1.19 0 0 1 .443-.034c.118.016.167.053.164.119-.005.101-.083.191-.179.196-.027.002-.053-.002-.09-.007l-.078-.009z"/><path id="W" d="M44.646 4.824l.032.005.032.005c.145.021.186.045.195.124.02.164-.033.257-.169.304-.038.013-.078.019-.119.026-.086.014-.172.028-.237.101-.199.013-.352.119-.505.225l-.2.129c-.065.035-.127.077-.189.119l-.135.088c-.06.037-.122.037-.173-.024-.067-.077-.084-.172-.032-.233.069-.082.145-.161.248-.201.091-.035.161-.095.233-.156l.029-.024c.222-.191.483-.316.744-.441l.029-.014c.068-.032.141-.053.219-.034z"/><path id="X" d="M46.598 2.993l.066.001a.56.56 0 0 1 .112.007c.145.032.196.169.109.294-.045.063-.082.115-.164.135a1.73 1.73 0 0 0-.544.267c-.146.105-.311.186-.473.265l-.031.015c-.037.018-.08.021-.124.025l-.065.007c-.071.008-.122-.016-.154-.085-.034-.074-.05-.14.001-.212s.115-.124.203-.148a2.09 2.09 0 0 0 .85-.492c.068-.063.134-.111.214-.079z"/><path id="Y" d="M53.085 2.003l-.01.025c-.011.028-.026.065-.049.094s-.059.025-.092.015c-.019-.005-.038-.01-.055-.007l-.172.039-.137.032c-.139.029-.206 0-.238-.093a.21.21 0 0 1 .123-.291c.127-.056.257-.103.388-.146.118-.037.152-.019.2.09a.34.34 0 0 1 .043.241z"/><path id="Z" d="M32.042 32.184c.103-.005.174.04.178.143.007.16.041.315.076.47.033.15.067.299.075.454.013.242.09.475.167.706l.015.047.039.123c.068.216.137.432.275.619.019.025.032.058.039.089.063.297.18.573.297.849l.201.509c.05.147.121.284.192.42.093.178.185.356.23.556.008.035.051.069.086.09.129.076.189.197.253.325.023.047.043.097.062.146.051.13.103.261.225.35.062.223.179.418.295.613l.212.387c.027.06.054.118.109.157s.079.09.106.143l.037.066c.055.087.118.169.181.25l.178.244c.047.074.109.134.17.194s.12.118.167.189.031.119-.023.17c-.088.082-.171.103-.229.055a.51.51 0 0 1-.066-.07l-.191-.228c-.318-.379-.637-.758-.881-1.19l-.143-.246c-.165-.279-.33-.559-.434-.87-.069-.207-.205-.377-.351-.536l-.023-.024c-.03-.03-.06-.06-.067-.105-.037-.22-.138-.413-.239-.606l-.175-.372c-.109-.085-.15-.204-.192-.325l-.031-.087-.009-.024-.461-1.108a1.56 1.56 0 0 1-.101-.313c-.025-.101-.05-.202-.094-.297-.087-.187-.127-.386-.166-.588l-.14-.646-.096-.425c-.036-.167.074-.296.246-.304z"/><path id="a" d="M35.556 38.419c.006.003.013.006.02.008.019.007.042.016.053.032l.168.274c.027.049.051.101.075.154.049.108.098.215.176.293.067.067.12.143.171.219l.141.186c.063.068.136.127.209.185l.107.088c.094.081.102.124.06.216-.102.227-.316.173-.441.021l-.146-.173-.103-.121c-.263-.314-.506-.642-.59-1.056-.015-.073-.024-.15-.018-.224.004-.054.042-.098.118-.102z"/><path id="b" d="M31.784 27.536c.014.06.006.118-.001.176l-.008.08a2.53 2.53 0 0 1-.024.222c-.016.116-.032.233-.022.353.012.158-.051.22-.189.251-.184.041-.229.004-.237-.184-.005-.121.013-.238.032-.356l.026-.185c.005-.05.019-.099.033-.148.03-.104.059-.208.004-.319.035-.124.075-.245.195-.316.041-.024.083-.01.112.027.048.061.072.132.078.207a1.42 1.42 0 0 1 .002.134v.058z"/><path id="c" d="M31.807 30.707l-.005.03c-.004.022-.008.044-.006.065.008.084-.004.153-.106.162s-.178-.03-.204-.118c-.027-.094-.044-.19-.062-.286l-.005-.028-.018-.098-.054-.344c-.014-.165.047-.253.182-.303.083-.031.18.013.207.096.01.03.015.062.017.094l.004.195c0 .159 0 .319.058.473.005.012.001.027-.002.042l-.004.021h0z"/><path id="d" d="M52.225 48.785c-.224-.001-.457-.023-.689-.089a.88.88 0 0 0-.379-.043c-.123.019-.258-.009-.384-.035h0c-.212-.044-.422-.087-.64-.069a.43.43 0 0 1-.191-.028c-.159-.064-.325-.083-.492-.101l-.173-.021-.08-.011c-.153-.021-.306-.042-.455-.1-.137-.052-.297-.059-.447-.057-.16.003-.316-.025-.471-.053l-.329-.048c-.16-.013-.288-.16-.274-.27.011-.096.195-.21.33-.203h.055a.31.31 0 0 1 .137.018c.243.12.505.145.766.17l.141.014c.076.008.146.032.215.055.061.02.12.041.183.05l.488.082.888.129.153.013.777.067a2.59 2.59 0 0 1 .439.093l.098.026a1.49 1.49 0 0 0 .511.062c.085-.007.173.002.258.013.079.01.142.055.166.134.017.053.013.111-.046.139-.171.082-.352.092-.551.061z"/><path id="e" d="M53.664 47.636c-.124.019-.251 0-.38-.019-.143-.021-.289-.043-.438-.013-.046.009-.097 0-.145-.009l-.078-.014c-.157-.029-.312-.057-.48-.039-.123.013-.254-.028-.382-.068l-.09-.028c-.119-.035-.199-.124-.235-.247-.024-.084.025-.183.108-.205.097-.026.197-.024.283.03.283.178.601.197.921.216l.075.004c.129.007.26.014.385.042a2.94 2.94 0 0 0 .801.079.11.11 0 0 1 .022.001c.078.006.141.021.147.105.006.096-.054.183-.144.179-.039-.002-.079.002-.119.006-.08.008-.162.016-.252-.02z"/><path id="f" d="M54.442 48.818c-.045 0-.09-.001-.135-.001a3.71 3.71 0 0 0-.315.004c-.101.007-.191-.02-.283-.048s-.131-.105-.138-.197c-.005-.067.041-.129.104-.142.031-.007.063-.011.095-.011l.165-.001.994-.002a.97.97 0 0 1 .223.033c.09.022.122.126.075.207-.054.093-.141.132-.24.141-.057.005-.114.003-.171.001l-.086-.002h-.193-.096v.019z"/><path id="g" d="M56.562 48.23c.015-.118.043-.185.15-.209.081-.017.159-.045.237-.073l.129-.044c.062-.019.125-.028.189-.004s.102.076.111.144c.008.057-.007.112-.057.14l-.506.27c-.101.05-.187.01-.228-.098-.014-.035-.018-.074-.022-.102l-.004-.026z"/><path id="h" d="M72.802 10.592c.006.164-.121.246-.242.191-.061-.029-.11-.072-.133-.135l-.008-.022c-.023-.064-.046-.128-.054-.195-.07-.598-.351-1.106-.683-1.588a7.36 7.36 0 0 0-.55-.717l-1.075-1.162-.763-.734-.24-.224a1.08 1.08 0 0 1-.217-.318c-.039-.077-.02-.156.042-.204.063-.053.135-.074.209-.026.054.034.11.071.151.119l.981 1.069.859.928.322.396.267.332c.37.439.658.929.889 1.455.038.087.071.16.085.243l.009.052c.025.142.05.284.123.414.019.031.023.073.025.101l.003.023z"/><path id="i" d="M73.715 10.492c-.005.033-.01.066-.02.098a.22.22 0 0 1-.183.114c-.06-.008-.094-.05-.115-.101-.109-.272-.251-.521-.425-.759-.067-.091-.108-.202-.148-.311l-.049-.128c-.028-.069-.012-.127.055-.164s.126-.016.18.024a.22.22 0 0 1 .061.074c.101.176.23.334.359.492l.061.075c.152.188.225.373.225.587z"/><path id="j" d="M78.576 24.47c.016.192-.006.384-.034.575l-.01.066c-.02.126-.04.251-.014.382.018.089-.101.207-.218.24-.068.019-.196-.026-.23-.086-.015-.026-.023-.062-.019-.091l.005-.034.062-.379a2.6 2.6 0 0 0 .02-1.056c-.026-.137-.048-.276-.014-.416.016-.066.052-.118.126-.128s.146.032.177.109c.006.016.011.034.015.051l.012.042c.079.235.15.471.124.725z"/><path id="k" d="M77.994 21.917l-.013.138-.035.36c-.006.055-.03.099-.086.126-.1.048-.209.006-.227-.098-.012-.073-.014-.149-.014-.225.001-.345-.028-.687-.124-1.021-.012-.041-.022-.083-.027-.126-.009-.088.029-.158.097-.185.085-.035.177-.016.236.05s.1.143.114.228l.01.058c.038.224.076.45.069.694z"/><path id="l" d="M76.372 34.374a.57.57 0 0 1 .065-.281c.095-.164.127-.341.138-.527.004-.077.015-.154.025-.231l.019-.155c.011-.11.046-.209.113-.298.07-.095.119-.1.207-.017.109.102.171.206.114.37a1.37 1.37 0 0 0-.055.273l-.027.171c-.032.148-.076.293-.175.414a.63.63 0 0 0-.125.26.25.25 0 0 1-.061.111c-.046.048-.105.08-.174.047-.056-.027-.062-.083-.063-.138z"/><path id="m" d="M75.219 37.203c-.093 0-.135-.056-.107-.148l.008-.029c.012-.042.025-.086.048-.121.099-.151.176-.314.252-.477l.16-.322a.71.71 0 0 1 .114-.154c.07-.071.217-.07.296-.007.063.05.086.14.05.235s-.07.181-.118.264l-.081.145c-.101.184-.203.369-.36.517-.077.073-.162.1-.262.097z"/><path id="n" d="M74.044 38.468c-.013-.137.045-.25.206-.329a.6.6 0 0 0 .08-.05c.066-.047.131-.092.23-.056.057.021.092.049.108.104l.009.031c.034.187-.21.621-.391.693-.056.022-.108.008-.143-.039-.072-.096-.128-.199-.099-.354z"/><path id="o" d="M116.693 67.563l-.035-.04.035.04zm0 0a5.49 5.49 0 0 0 2.692 1.564c.06-.118.005-.217-.063-.303l-.169-.2-.272-.341c-.084-.128-.119-.311.055-.402.083-.043.267-.038.314.019.282.349.645.585 1.011.824l.169.11c.15.099.086.278-.027.405-.05.055-.105.106-.167.164l-.1.093c.732.469 1.528.648 2.327.82l.835.177 1.91.421a11.2 11.2 0 0 0 1.732.272c1.247.101 2.491.154 3.742.056.434-.034.87-.026 1.307-.018l.682.006.816-.035c1.18-.119 2.299-.482 3.417-.844l.872-.278c.789-.243 1.476-.728 2.011-1.368l.988-1.297.345-.472c.536-.725.942-1.525 1.348-2.325l.158-.309c.108-.212.16-.437.137-.679-.022-.224-.136-.373-.36-.377-.186-.003-.372.005-.558.013-.282.012-.564.023-.844-.002-1.947-.175-3.872-.505-5.758-1.009-1.408-.376-2.837-.512-4.276-.619-1.319-.098-2.637-.044-3.955.01l-1.31.048-3.612.272c-1.489.184-2.861.774-4.165 1.484-.851.463-1.721.708-2.679.703-.264-.001-.528.023-.792.048l-.142.013c-.412.037-.529.24-.361.62.047.107.097.216.166.309a2.98 2.98 0 0 1 .14.221c.117.196.234.393.449.483.14.058.242-.025.348-.111.083-.067.168-.136.274-.14.125-.005.248.023.285.145.03.099.02.223-.011.324-.019.062-.103.116-.169.15-.156.079-.277.187-.118.337l.244.241c.325.329.652.66 1.134.776zm22.872-5.27l.599.061 1.383.125c.591.037 1.083-.112 1.248-.792.054-.222.176-.438.307-.629.281-.407.327-.853.354-1.333.047-.829-.232-1.575-.667-2.204-1.105-1.602-2.513-2.896-4.373-3.582-1.502-.553-3.033-1.035-4.631-1.232l-.699-.093c-.854-.117-1.712-.234-2.561-.197l-1.106.033-2.164.109-1.524.128-2.781.305c-.544.1-1.076.243-1.606.386l-1.464.358a8.29 8.29 0 0 0-3.858 1.865l-2.026 1.82-.668.613c-.355.323-.608.725-.728 1.184-.324 1.235-.119 2.399.541 3.487.15.246.35.404.636.475.929.23 1.851.276 2.76-.076l1.735-.706c1.254-.552 2.527-1.044 3.9-1.194l3.83-.295.673-.022 4.475-.009c1.366.082 2.734.203 4.052.573a26.97 26.97 0 0 0 4.363.84zm-12.015 9.624a15.9 15.9 0 0 1-2.087-.32l-1.498-.309-1.71-.358c-2.268-.531-4.353-1.472-6.242-2.843-.762-.553-1.474-1.151-2.054-1.903-.414-.535-.735-1.112-.888-1.763-.118-.502-.289-.971-.564-1.404-.497-.785-.651-1.675-.722-2.57-.096-1.235.303-2.314 1.212-3.175l3.289-2.819c.7-.508 1.488-.869 2.315-1.106l2.209-.569 1.08-.266c1.598-.405 3.231-.548 4.869-.659l.512-.035 1.825-.115c1.641-.084 3.265.046 4.893.296a28.77 28.77 0 0 1 3.874.887c1.891.565 3.452 1.608 4.734 3.091l.255.304.35.412c.964 1.075 1.091 2.379.995 3.73-.019.258-.146.541-.307.748-.415.539-.508 1.147-.402 1.773.146.861-.113 1.577-.494 2.341-.551 1.102-1.276 2.079-2.001 3.054l-.472.639c-.632.866-1.577 1.399-2.589 1.745l-2.918.865c-.947.25-1.909.378-2.899.297-.375-.03-.754-.013-1.132.004l-.623.02-1.997.007-.813.001z"/><path id="p" d="M128.372 43.111l.025.007-.023-.025zm0 0c-.016.194.115.299.24.399l.059.047.836.692.966.801c2.208 1.881 4.664 3.211 7.569 3.711 1.095.189 2.16.292 3.25.16 1.488-.181 2.747-.843 3.752-1.948l.509-.612.699-.812c.433-.431.576-.994.318-1.616-.151-.366-.357-.684-.587-1.003l-.376-.516-1.398-2.098c-1.118-2.052-2.963-3.071-5.093-3.601l-.245-.061c-1.31-.328-2.639-.66-4.015-.649-.161.001-.323-.046-.485-.093l-.198-.055-1.539-.369-4.029-.987-.288-.072c-.695-.172-1.395-.345-1.985-.808l-.3-.233c-.55-.425-1.101-.851-1.552-1.378-.828-.968-.859-.918-1.451.041l-.117.19c-.15.24-.267.5-.384.758l-.034.076c-.088.193-.069.392.102.531.335.274.27.53-.029.76-.238.183-.228.394-.108.617.113.208.251.407.546.274.034-.016.078-.019.116-.016.209.013.379.096.451.305.076.223-.026.391-.228.466-.357.134-.364.358-.202.641l.107.185.604 1.027.041.068c.104.174.212.355.457.374.169-.138.149-.313.13-.487-.015-.136-.03-.27.044-.387a.31.31 0 0 1 .184-.12c.069-.013.185-.004.217.04.341.48.33.965-.1 1.313-.254.206-.257.392-.09.582l.957 1.197c.471.616.943 1.233 1.504 1.774l.185.185c.288.291.577.583.99.708zm12.283-6.737l-.014-.009c1.238.509 2.385 1.15 3.26 2.197l.015.018c.045.055.094.113.154.141.149.07.308.081.402-.089.179-.324.196-.681.214-1.039l.005-.095c.009-.189.066-.378.123-.56.008-.024.149-.035.21-.008s.136.102.148.166l.03.156c.146.749.293 1.504-.349 2.138-.142.14-.131.286-.059.417l.008.014c.522.945 1.045 1.891 1.919 2.573l.12.147.119.146c-.049.167.022.298.094.43l.058.111c.27.576.389 1.181.316 1.818-.005.047-.017.097-.029.149-.036.154-.074.315.056.393.223.132.378-.05.517-.213l.052-.06c.478-.538.824-1.121.817-1.884-.003-.349.05-.7.102-1.05l.05-.346c.125-.952-.034-1.863-.369-2.754-1.065-2.835-2.721-5.255-5.047-7.206l-.329-.267-.739-.645c-.82-.858-1.811-1.469-2.844-2.017l-3.956-2.025c-1.283-.637-2.643-.929-4.082-.801l-.193.018-1.325.078c-1.559-.01-2.87.646-4.106 1.5-.488.337-.852.796-1.151 1.31l-.007.012c-.673 1.158-.674 1.16.178 2.176l.074.09.311.352c.806.802 1.639 1.543 2.821 1.769.419.08.829.202 1.24.323l.907.251 4.332.987 2.067.337.591.085.12.022c.184.037.378.075.585-.082l-.048-.295-.146-.947c-.008-.059.051-.172.098-.185.101-.026.24-.04.316.011a1.24 1.24 0 0 1 .307.339c.261.386.154.802 0 1.237l.829.269 1.228.398zm8.932 6.311l-.038.362-.07.803c-.029.841-.494 1.472-1.004 2.066-.363.423-.858.721-1.426.723-.584.002-.923.261-1.227.728-.402.617-1.026.967-1.647 1.316l-.388.221c-1.38.813-2.905.869-4.43.749-1.361-.107-2.687-.436-3.985-.884-1.648-.57-3.103-1.497-4.462-2.536l-3.666-3.095c-.533-.52-1.052-1.043-1.505-1.636l-.615-.759-.777-.977c-1.075-1.492-1.983-3.081-2.615-4.816-.315-.864-.171-1.696.192-2.498.355-.786.863-1.485 1.38-2.171l.056-.075c.241-.319.48-.636.633-1.005.492-1.188 1.46-1.897 2.512-2.525.021-.012.043-.022.066-.031l.04-.018c1.312-.628 1.743-.868 2.203-.963.436-.09.898-.049 2.156-.085l.354-.011 1.87.007c1.074.082 2.068.406 3.006.896l2.193 1.196 1.607.886c2.053 1.105 3.741 2.671 5.415 4.257 1.649 1.562 2.768 3.476 3.645 5.537.727 1.708.79 2.487.527 4.34z"/><path id="q" d="M100.57 44.305l-.014-.029c.004.01.009.019.014.029zm0 0a2.26 2.26 0 0 0 .545.707c2.009 1.732 4.112 3.305 6.516 4.485 2.652 1.302 5.417 1.683 8.287 1.256.96-.143 1.978-.415 2.666-1.255m-18.014-5.193c-.841-.296-1.378-.711-1.722-1.331-.133-.037-.228-.108-.225-.262-.753-.565-1.765-2.109-1.929-2.945-.191-.969.03-1.249 1.028-1.389.743-.105 1.456-.024 2.196.106l.374.065c.918.157 1.832.313 2.677.719l1.752.935.514.287c1.472.816 2.984 1.555 4.616 1.975l.959.243 3.55.999c.412.141.861.175 1.31.209l.543.048.891.092 1.669.201c1.254.214 2.176 1.006 3.021 1.89.231.242.228.515.048.746-.771.988-1.57 1.947-2.723 2.522l-.081.044c-.139.078-.282.157-.453.041m0 0l.015-.018-.015.018zm3.652-4.205c.156-.953.155-1.711-.22-2.445-.14-.275-.232-.58-.307-.881-.229-.928-.723-1.71-1.257-2.488-1.316-1.919-3.163-3.199-5.116-4.362-1.201-.715-2.488-1.24-3.776-1.765l-.684-.28a17.43 17.43 0 0 0-6.377-1.334c-2.017-.038-3.824.538-5.424 1.814-1.128.899-1.902 1.93-1.903 3.437 0 .491.068.598.603.547l.142-.01c.294-.016.579-.031.61-.505.014-.211.423-.231.562.02.306.553.787.659 1.35.722 1.539.171 2.947.741 4.25 1.554.895.558 1.806 1.081 2.757 1.536 1.63.78 3.364 1.189 5.112 1.531.101-.252-.004-.408-.104-.559l-.016-.024c-.219-.333-.345-.7-.391-1.09-.019-.161.057-.302.24-.344.136-.031.244.043.283.149l.02.057c.152.42.303.835.614 1.177.108.119.081.294-.017.434-.167.238-.005.367.175.444.984.419 2.03.556 3.084.604 1.015.046 2.027.103 3.021.32.333.073.603.073.802-.259.097-.162.28-.111.42-.051.156.067.271.231.192.374-.23.416.02.605.29.809l.042.032.639.518.383.318zm-16.08-14.118c3.12.458 6.049 1.484 8.846 2.926.768.396 1.485.849 2.147 1.404.326.274.701.498 1.078.7.596.319 1.108.738 1.527 1.258l1.856 2.412c.225.311.39.681.507 1.048l.134.438c.169.563.338 1.125.649 1.638.095.157.158.379.131.556-.076.514-.039 1.025-.002 1.535l.043.917a1.77 1.77 0 0 1-.409 1.18l-.438.574c-.412.558-.824 1.115-1.438 1.48l-1.171.661-1.372.782c-.889.544-1.836.821-2.876.859l-.359.014c-1.208.049-2.41.097-3.598-.242a4.26 4.26 0 0 0-.652-.114l-.503-.077-.219-.046c-.386-.081-.776-.162-1.136-.31-2.501-1.032-4.827-2.343-6.923-4.086l-1.006-.87c-.779-.687-1.559-1.375-2.444-1.936-.317-.2-.56-.545-.781-.862l-.192-.275-1.344-2.073c-.362-.657-.518-1.428-.248-2.151.278-.745.407-1.507.489-2.279.109-1.027.594-1.801 1.295-2.543 1.597-1.692 3.562-2.444 5.836-2.564.861-.045 1.716-.077 2.573.046z"/><path id="r" d="M93.386 45.978l-.515.034-1.047.098c-.976.162-1.877.525-2.656 1.15-.046.037-.075.139-.06.197s.087.126.148.15c.106.041.216.069.327.098l.122.032c2.174.6 3.985 1.761 5.372 3.543.733.942 1.588 1.767 2.441 2.591l.802.782c.652.648 1.378 1.256 2.199 1.732 1.57.911 2.863 2.149 3.977 3.577.143.184.292.369.465.523.167.149.356.107.526-.033.256-.211.4-.491.417-.81.036-.701.055-1.409-.224-2.074-.883-2.104-2.059-4.019-3.62-5.698-1.659-1.785-3.602-3.217-5.613-4.566-.617-.414-1.284-.741-1.983-.994l-.763-.239-.316-.093zm5.131 19.343a6.18 6.18 0 0 0 2.577-.24c1.353-.437 2.579-1.072 3.207-2.509.302-.692.276-1.215-.168-1.833-1.064-1.478-2.382-2.669-3.881-3.678l-.397-.262c-.453-.296-.905-.592-1.311-.96-1.562-1.414-3.038-2.91-4.399-4.519-.819-.968-1.811-1.729-2.98-2.212-.897-.371-1.815-.728-2.815-.724-.959.004-1.328.255-1.676 1.139a2.08 2.08 0 0 0-.123.449c-.128.86-.119 1.723.172 2.544.535 1.509 1.153 2.984 2.063 4.317l.49.725 1.233 1.778c1.252 1.703 2.611 3.306 4.41 4.473 1.118.725 2.245 1.422 3.596 1.512zm-.216.69c-1.266.005-2.49-.782-3.694-1.58-1.944-1.289-3.495-2.968-4.796-4.9l-.653-.953-1.726-2.659c-.602-1.054-1.08-2.164-1.457-3.309-.308-.935-.326-1.923-.21-2.897.125-1.046.784-1.766 1.603-2.339a23.12 23.12 0 0 1 1.885-1.172c2.204-1.247 4.452-1.381 6.674-.094 1.753 1.015 3.426 2.16 4.928 3.532l.077.071c1.01.923 2.022 1.847 2.842 2.949.743.999 1.405 2.054 1.969 3.166.058.113.106.232.153.351.07.172.139.344.237.498.512.803.573 1.687.502 2.594-.059.76-.216 1.479-1.019 1.836-.15.066-.239.198-.255.364-.2 2.004-1.434 3.194-3.151 4.003-1.161.548-2.382.698-3.91.538z"/><path id="s" d="M97.29 24.472c.747-.048 1.31-.469 1.873-.889l.197-.146-.045.035c.31.082.598-.003.885-.087l.37-.096.901-.183 2.088-.342c.686-.047 1.027-.066 1.121-.229s-.055-.459-.348-1.059a4.39 4.39 0 0 0-.288-.506c-.131-.195-.295-.35-.521-.45-.862-.383-1.739-.69-2.703-.62l-.614.042-1.944.165c-.499.06-1.018.146-1.474.344-1.833.797-3.497 1.881-4.991 3.205-.664.589-.959 1.402-1.041 2.284-.022.238.027.46.144.674.16.293.34.397.661.337l.35-.077c.225-.053.45-.107.677-.118 1.863-.088 3.268-1.126 4.659-2.202.019-.015.028-.041.038-.068zm0 0l-.022.001.031-.024c-.004.007-.007.015-.009.022zm5.863 4.096l.056-.048.187-.147c1.002-.67 1.403-1.732 1.803-2.788l.003-.007c.125-.331.12-.693.036-1.04-.13-.535-.445-.907-1.003-1.02l-.074-.015c-.206-.043-.422-.088-.621-.057-1.46.223-2.916.472-4.319.955-.031.011-.059.026-.088.042l-.783.425-2.573 1.502c-.921.627-1.94.98-3.051 1.027-.361.015-.692.081-1.013.232-.186.088-.343.211-.308.44.04.267.243.248.445.22.256-.035.542.032.488.321-.084.445.126.557.477.613l.025.004c.31.05.607.097.642-.375.006-.086.14-.206.236-.231.141-.036.318-.043.446.014.182.081.108.257.049.396l-.003.008c-.039.093-.088.181-.142.276l-.075.136.135.056c.082.036.153.066.226.077l.091.015c.296.05.552.093.62-.421.047-.352.501-.441.876-.376.126.022.209.144.158.253-.057.124-.16.23-.259.331l-.026.027c-.131.136-.171.305.038.33 1.043.126 2.09.245 3.135.013.215-.048.316-.191.256-.431-.094-.378.156-.53.397-.677l.156-.1c.067-.048.244-.014.326.045.127.092.175.238.096.408-.028.061-.078.11-.129.161-.112.111-.228.228-.134.474l.309-.035c.417-.045.838-.09 1.224-.292.014-.152-.072-.213-.155-.273-.039-.028-.078-.056-.105-.093-.165-.225-.111-.475.109-.593l.058-.033c.086-.049.178-.102.259-.093.413.044.735-.039.94-.447.068-.136.258-.166.418-.099s.226.2.208.37l-.067.521zm-.052.039l-.155-.021-.489-.048a.45.45 0 0 0-.304.13c-.066.072-.106.209-.089.305.026.136.176.159.277.104l.559-.341.201-.128zm-7.048 1.909c-1.014-.047-1.993-.288-2.97-.528l-.818-.197c-.249-.057-.48-.2-.709-.341l-.223-.134c-.4-.229-.632-.584-.658-1.045-.025-.436-.1-.853-.322-1.233-.592-1.01-.268-1.971.205-2.889.437-.849 1.126-1.515 1.928-2.007l.891-.558 2.529-1.479c.496-.245.995-.442 1.533-.556.88-.187 1.771-.283 2.665-.38 1.239-.134 2.406.195 3.565.528.527.151.904.532 1.166 1.072.567 1.166.881 2.408 1.133 3.656.144.712.022 1.45-.347 2.151-.481.913-1.064 1.705-1.851 2.378-.735.629-1.555 1.038-2.493 1.211l-.436.081-2.332.348c-.564.04-1.133.002-1.703-.036l-.753-.043z"/><path id="t" d="M132.276 60.195c-.064.154-.142.257-.272.201-.136-.058-.308-.133-.367-.249-.318-.631-.714-1.197-1.229-1.681-.1-.094-.06-.212.021-.303.094-.104.223-.082.323-.031.423.217.683.592.943.967l.083.12.444.682c.036.065.042.148.047.218l.007.076z"/><path id="u" d="M130.177 60.094c-.017.134-.083.227-.202.251-.065.013-.172-.005-.209-.05l-1.272-1.62c-.034-.044-.022-.182.018-.212.085-.065.246-.154.299-.118.614.413 1.11.935 1.368 1.647.009.023.005.051.001.075-.002.01-.003.019-.003.027z"/><path id="v" d="M134.358 60.278l-.065.083c-.038.052-.068.092-.108.108-.06.023-.161.013-.212-.025-.087-.067-.166-.157-.219-.254l-.034-.06c-.1-.182-.202-.367-.26-.563-.035-.118-.11-.225-.185-.334-.16-.23-.32-.46-.095-.783.36.091.505.373.649.653l.146.264.038.06c.172.265.348.538.345.852z"/><path id="w" d="M137.164 59.447c.123-.007.231.046.265.163.156.539.433 1.018.711 1.498l.032.056c.075.13.004.22-.082.298-.138.126-.314.108-.403-.023-.365-.54-.674-1.113-.745-1.776-.013-.114.083-.209.222-.215z"/><path id="x" d="M127.801 60.04c-.049.246-.351.352-.48.223l-1.184-1.232c-.031-.034-.012-.15.023-.2s.118-.097.187-.112.157-.009.222.02a2.59 2.59 0 0 1 1.194 1.044c.039.065.038.154.037.211l.001.045z"/><path id="y" d="M135.174 58.946a.33.33 0 0 1 .349.25c.11.417.27.806.479 1.185.029.054.084.109.14.166.149.152.309.315.031.48-.204.121-.378-.12-.524-.321l-.087-.117c-.289-.361-.411-.803-.531-1.24l-.041-.148c-.03-.107.061-.212.184-.256z"/><path id="z" d="M125.13 60.197l-.055.066c-.046.057-.096.118-.158.162-.049.034-.166.04-.205.005l-1.078-1.013c-.041-.04-.048-.154-.021-.209s.121-.107.177-.099c.563.072.996.353 1.282.845.024.041.032.091.041.149l.017.094z"/><path id="AA" d="M121.847 59.674c.45.065.957.524 1.033.953.009.055-.049.148-.102.182s-.161.05-.216.021c-.381-.2-.678-.502-.933-.842-.03-.04-.008-.15.029-.2.028-.038.077-.061.127-.083l.062-.031z"/><path id="AB" d="M120.613 60.965c-.063.162-.224.259-.353.197-.271-.131-.519-.313-.761-.494-.096-.071-.102-.203-.019-.305.046-.056.11-.128.172-.134.379-.039.881.288.975.623.007.022.001.048-.006.075l-.008.039z"/><path id="AC" d="M139.579 60.572c.023.005.049.008.076.011.058.006.117.013.137.044l.469.787c.063.118-.009.235-.114.286-.096.047-.233.089-.321.054-.32-.127-.563-.736-.44-1.077.013-.035.067-.055.122-.075l.071-.029z"/><path id="AD" d="M118.103 61.825l-.1-.024c-.09-.021-.196-.045-.289-.092-.137-.069-.228-.189-.157-.365.065-.161.197-.233.352-.212.146.019.289.078.426.137s.278.161.25.327c-.041.24-.246.239-.482.231z"/><path id="AE" d="M141.658 61.117l-.037.097-.156.362c-.022.041-.119.049-.191.055-.044.004-.098-.036-.104-.064l-.037-.172c-.044-.201-.088-.402-.099-.605-.011-.178.142-.252.314-.254.184-.002.28.099.302.274.006.049.006.099.006.169l.002.138z"/><path id="AF" d="M116.671 62.373c.005.193-.086.313-.247.357-.26.071-.446-.054-.579-.269-.071-.113-.041-.239.06-.299.22-.13.606-.062.751.113.015.018.014.049.014.073l.001.024z"/><path id="AG" d="M131.628 68.403l.08.024c.065.019.139.04.206.073.505.254.835.683 1.165 1.112l.275.349c.101.123.069.296-.061.413-.14.127-.304.091-.409-.027l-1.414-1.651c-.061-.075.014-.217.158-.293z"/><path id="AH" d="M136.155 67.687c.011.004.023.008.035.011.024.007.049.015.067.03.46.408.697.926.731 1.534a.5.5 0 0 1-.115.32c-.066.077-.194.147-.289.141s-.252-.104-.259-.174c-.057-.547-.228-1.055-.445-1.554-.021-.05.03-.152.076-.203.033-.036.084-.056.134-.077l.065-.028z"/><path id="AI" d="M135.033 69.963l-.056.054c-.049.049-.107.106-.173.148-.108.068-.263.046-.308-.052l-.637-1.479c-.048-.117.154-.303.294-.276l.059.011c.099.016.207.034.26.094.303.339.423.764.544 1.187l.048.167c.006.02-.002.045-.012.079l-.019.068z"/><path id="AJ" d="M128.417 70.284c-.063.168-.201.235-.361.208-.107-.018-.219-.081-.302-.155l-1.005-.948c-.041-.041-.045-.119-.048-.197l-.009-.105c.034-.004.071-.012.107-.02.08-.018.159-.036.221-.01.538.226.978.596 1.379 1.012.027.028.023.085.02.141l-.002.075z"/><path id="AK" d="M131.092 70.283a.99.99 0 0 0-.044.079c-.028.054-.053.101-.091.128-.056.04-.154.067-.213.045a.71.71 0 0 1-.285-.189l-.434-.552-.142-.188a1.42 1.42 0 0 0-.157-.164c-.144-.135-.287-.269-.243-.506.033-.179.502-.057.812.248.249.245.473.518.692.793.046.058.064.138.081.213l.024.093z"/><path id="AL" d="M138.481 68.507l-.034.079-.101.211c-.077.132-.167.261-.347.257-.219-.005-.247-.203-.235-.329.04-.394-.029-.761-.151-1.131-.024-.075.064-.239.144-.285.137-.079.295-.044.408.093.261.315.325.687.316 1.105z"/><path id="AM" d="M124.378 68.966c.549.244 1.075.552 1.313 1.188.017.046-.05.15-.104.188s-.173.058-.212.026l-1.235-1.051c-.038-.034-.034-.161-.002-.218.019-.036.066-.056.13-.083l.11-.051z"/><path id="AN" d="M121.858 68.627l.055.024c.383.167.786.342 1.081.686.058.069.046.22.026.326-.01.049-.126.121-.178.111-.552-.112-.973-.41-1.229-.919-.014-.027 0-.091.023-.109a.71.71 0 0 1 .137-.076l.085-.042z"/><path id="AO" d="M139.379 67.284c.008-.061.028-.229.093-.379a.33.33 0 0 1 .273-.145c.094.011.217.108.255.198.127.298.064.6-.052.891-.073.181-.329.297-.468.227-.157-.079-.158-.215-.159-.35v-.037c-.001-.047.007-.093.022-.182l.036-.223z"/><path id="AP" d="M116.694 67.529l.001.034-.036-.04.035.006zm0 0l-.004-.129-.003-.386c.005-.159.07-.29.247-.321.171-.029.281.064.371.195.113.165.165.344.067.528-.108.202-.299.187-.49.146l-.141-.025-.047-.008z"/><path id="AQ" d="M135.447 45.411l.081.052c.051.032.094.059.123.096.045.058.091.144.084.211-.078.648.092 1.22.483 1.742.101.136.033.316-.125.386-.091.04-.253.04-.325-.017-.636-.5-.922-1.623-.59-2.316.027-.055.105-.085.178-.114l.091-.039z"/><path id="AR" d="M133.533 46.205c-.062.113-.171.182-.277.143-.1-.036-.215-.129-.251-.224-.255-.686-.455-1.386-.416-2.129.004-.067.058-.146.112-.193s.137-.079.202-.071.171.078.171.118c-.014.582.154 1.123.322 1.664l.14.466c.013.048.008.101.002.153l-.005.073z"/><path id="AS" d="M137.797 46.349c.155.009.257.06.3.177l.5 1.4c.017.052-.039.142-.082.198-.082.107-.203.093-.312.053-.068-.025-.143-.069-.185-.127-.327-.447-.504-.941-.416-1.5.016-.098.064-.235.195-.201z"/><path id="AT" d="M131.18 43.571c-.126.267-.08.496-.036.721l.022.112c.03.173-.04.313-.199.358-.175.05-.292-.086-.335-.233-.131-.451-.084-.907.022-1.355.04-.167.187-.225.355-.209.202.019.234.171.229.326-.002.081-.025.161-.042.221l-.016.058z"/><path id="AU" d="M128.379 43.084l.018.034-.026-.028zm0 0c-.278-.53-.286-1.081-.096-1.638.03-.087.156-.18.251-.198.176-.033.305.114.309.258.012.42 0 .842-.039 1.26-.014.15-.135.194-.257.239a.68.68 0 0 0-.168.079z"/><path id="AV" d="M141.009 48.128c-.091.232-.164.317-.29.318-.072.001-.176-.004-.211-.049-.311-.402-.381-.88-.387-1.369 0-.048.094-.119.157-.141s.18-.028.214.011c.335.385.453.852.517 1.23z"/><path id="AW" d="M142.588 46.332c.012.002.025.003.038.004.029.002.057.005.072.02.302.315.501.669.376 1.124-.016.059-.094.122-.155.14s-.171.01-.207-.032c-.252-.29-.432-.617-.453-1.012-.007-.121.214-.283.329-.244z"/><path id="AX" d="M126.827 40.518c-.028.254-.116.341-.233.332-.104-.008-.22-.067-.299-.139-.191-.175-.178-.416-.156-.648.017-.192.058-.38.27-.464.172-.069.358.14.394.462.017.147.02.294.022.388l.002.069z"/><path id="AY" d="M144.013 46.119l.018-.094.031-.155c.026-.131.124-.186.239-.21.178-.038.303.069.371.203.11.213.09.443-.002.665-.066.161-.208.252-.356.228s-.265-.151-.287-.319c-.011-.08-.011-.161-.012-.233l-.002-.084z"/><path id="AZ" d="M146.593 39.516l-.018.138c-.046.354-.09.695-.347.953-.06.061-.214.053-.318.036-.053-.009-.129-.107-.131-.167a1.69 1.69 0 0 1 .046-.454l.076-.277c.1-.348.199-.695.104-1.073-.029-.118.078-.228.192-.241.15-.017.308.016.37.194.103.301.079.606.026.89z"/><path id="Aa" d="M140.643 36.35l.012.024s-.014-.009-.018-.015zm0 0c-.273-.54-.54-1.084-.46-1.717.013-.098.083-.237.163-.27.154-.063.311.021.372.175.241.611.329 1.222-.075 1.811z"/><path id="Ab" d="M130.255 33.154c-.022.123-.265.221-.386.155-.471-.254-.712-.933-.497-1.397.049-.105.367-.135.415-.028l.487 1.146.006.014c.008.02-.002.047-.013.074-.005.012-.009.024-.012.036z"/><path id="Ac" d="M143.235 36.631c-.026.16-.152.257-.316.249s-.273-.137-.295-.304l-.011-.081-.115-1.075c-.006-.087.092-.211.176-.262.112-.069.234.017.295.112.238.368.33.865.266 1.362z"/><path id="Ad" d="M146.93 42.696l-.113-.135-.112-.135.178-.296.538-.866c.044-.066.214-.101.298-.071s.19.148.208.242c.068.361-.102.674-.284.962-.144.229-.402.261-.65.292l-.063.008z"/><path id="Ae" d="M131.742 32.459a.7.7 0 0 0 .07.012c.054.007.108.015.143.045.115.099.234.208.31.337.267.454.296.807.103.965-.213.176-.547-.127-.74-.685-.05-.144-.095-.295-.105-.446-.007-.123.093-.201.219-.229z"/><path id="Af" d="M136.401 34.747c-.016.017-.032.039-.049.062-.042.056-.09.119-.153.144-.169.069-.302-.047-.363-.187-.055-.124-.097-.253-.139-.382l-.128-.358c-.012-.03-.027-.06-.042-.089-.072-.142-.142-.28.076-.378.235-.105.465.003.614.177.237.278.232.628.184 1.01z"/><path id="Ag" d="M128.213 32.528c.006.144-.305.303-.457.234-.327-.15-.579-.826-.419-1.187.034-.076.186-.134.285-.135s.271.05.298.122c.088.232.154.472.221.712l.072.255z"/><path id="Ah" d="M133.646 32.716a.6.6 0 0 0 .072.021c.056.014.113.028.132.063.201.379.308.783.235 1.214-.029.171-.165.276-.33.246-.093-.017-.229-.126-.242-.209-.058-.376-.09-.758-.106-1.138-.005-.117.108-.19.239-.197z"/><path id="Ai" d="M125.935 31.048l-.005.022c-.036.14-.074.292-.253.287-.098-.003-.224-.061-.286-.137-.234-.288-.241-.566-.034-.814.04-.047.134-.081.197-.073.273.035.413.307.381.715z"/><path id="Aj" d="M114.133 40.283c.016.006.035.01.056.014.05.011.106.023.123.056.076.15.134.309.192.468l.021.059.009.024c.14.386.279.768.592 1.064.049.047.027.236-.028.31-.095.13-.257.152-.412.081l-.025-.011c-.063-.028-.131-.058-.168-.108-.398-.542-.608-1.145-.529-1.825.003-.032.05-.06.1-.089l.069-.044z"/><path id="Ak" d="M117.183 42.26c.013.165-.056.261-.164.311-.349.16-.647.124-.85-.12-.114-.138-.201-.3-.286-.461l-.017-.031c-.17-.319-.165-.573.001-.605.23-.044.372.095.46.269.114.225.309.286.509.348l.158.052c.063.023.106.098.143.164l.046.074z"/><path id="Al" d="M105.158 38.322c-.037.117-.111.196-.234.221-.128.027-.225-.028-.295-.127-.043-.061-.072-.135-.097-.206-.263-.782-.251-1.153.021-1.103.387.07.455.358.523.645.029.121.057.242.11.346.019.038.004.094-.011.149l-.017.074z"/><path id="Am" d="M106.61 37.925a.63.63 0 0 0 .071.015c.054.009.109.019.125.05.254.474.482.96.321 1.52-.017.057-.1.12-.162.13s-.169-.023-.191-.069c-.218-.446-.363-.916-.382-1.415-.005-.121.098-.197.218-.231z"/><path id="An" d="M108.695 39.369c.024.017.055.034.087.052.073.04.15.082.158.135a11.77 11.77 0 0 1 .098 1.157c.002.05-.088.127-.151.151s-.167.023-.218-.014c-.361-.264-.463-.954-.201-1.362.024-.037.074-.056.133-.079l.094-.04z"/><path id="Ao" d="M110.802 41.778c-.023-.005-.049-.007-.074-.009-.056-.005-.112-.009-.143-.04-.377-.373-.494-.857-.545-1.362-.006-.059.061-.149.119-.187.106-.069.232-.045.291.066l.624 1.237c.058.119-.125.31-.272.294z"/><path id="Ap" d="M102.667 36.364c.011.002.024.003.037.003.027.001.053.003.07.016.313.254.511.574.488.985-.005.095-.113.197-.197.268-.042.036-.177.038-.203.004-.257-.337-.475-.695-.363-1.147.009-.037.057-.064.105-.092l.063-.039z"/><path id="Aq" d="M101.508 37.282c-.01.02-.02.044-.029.068-.021.053-.042.107-.076.118-.083.026-.177.018-.268.011l-.047-.004c-.033-.002-.07-.032-.093-.06-.225-.27-.42-.558-.265-.925.032-.076.199-.153.286-.136.315.061.496.427.492.928z"/><path id="Ar" d="M118.469 42.03c.202-.015.389.201.393.459.004.213-.091.366-.303.411-.203.043-.462-.178-.476-.383s.202-.472.386-.486z"/><path id="As" d="M98.818 42.994c-.021-.13-.067-.239-.216-.265.144-.248.082-.49.019-.735l-.037-.152c-.077-.346-.056-.689.163-.983.057-.075.186-.121.287-.131.131-.013.216.109.207.217-.046.534-.066 1.06.063 1.592.091.376-.213.419-.486.456z"/><path id="At" d="M100.581 44.282l.003.028-.027-.033.024.005zm0 0l-.04-.413-.095-1.058a.6.6 0 0 1 .21-.519c.074-.06.221-.065.325-.044s.257.115.18.235c-.31.483-.171.953-.024 1.441.133.442.053.493-.556.359z"/><path id="Au" d="M103.031 44.6l.001.249-.008.524c-.004.059-.083.141-.143.159s-.171-.015-.2-.062c-.328-.534-.426-1.086-.072-1.65.093-.149.259-.193.404-.113.079.044.156.189.147.28-.016.17-.059.337-.095.476l-.034.137z"/><path id="Av" d="M104.285 45.573c.027-.322.104-.447.24-.537.099-.065.389.005.398.109l.122 1.6c.003.046-.091.125-.151.138s-.166-.011-.207-.057c-.284-.325-.333-.718-.372-1.033l-.03-.218z"/><path id="Aw" d="M107.567 48.275c-.028.095-.334.191-.405.12-.334-.333-.57-.722-.576-1.203-.002-.138.124-.292.295-.299.098-.004.258.045.288.114l.382 1.005.056.158c.007.018-.008.044-.022.07a.35.35 0 0 0-.018.035z"/><path id="Ax" d="M112.438 50.096c-.031.128-.279.216-.381.137-.502-.391-.611-.964-.7-1.541-.007-.046.082-.134.143-.156s.188-.01.21.03l.76 1.422c.009.016-.004.044-.016.071l-.016.038z"/><path id="Ay" d="M97.608 40.096l.05-.168.187-.609c.042-.13.162-.142.278-.137.135.006.241.119.225.212l-.336 1.553c-.009.035-.132.071-.192.059s-.133-.072-.164-.13c-.098-.183-.082-.379-.059-.641l.011-.141z"/><path id="Az" d="M109.209 48.273c.381.111.693.62.596.971-.034.12-.307.225-.387.144-.276-.28-.436-.612-.393-1.013.002-.028.058-.05.114-.072l.07-.03z"/><path id="BA" d="M114.169 49.366c.284.034.553.268.613.564.025.12-.052.216-.169.254-.401.129-.751-.188-.673-.614a.23.23 0 0 1 .229-.204z"/><path id="BB" d="M116.227 49.375c.154.008.313.081.349.307.029.189-.157.386-.334.351-.209-.041-.328-.189-.343-.388-.013-.169.099-.268.328-.27z"/><path id="BC" d="M118.565 49.49l.034-.01-.021.019zm0 0l-.071.023c-.184.06-.368.12-.551-.019-.049-.038-.089-.129-.082-.189.013-.116.083-.205.218-.215.189-.013.266.106.344.227.041.064.083.129.142.173z"/><path id="BD" d="M88.367 54.148c.025-.098.041-.201.056-.305.041-.272.083-.552.303-.766.071-.069.202-.113.301-.107.136.009.203.171.171.263-.23.668-.282 1.359-.322 2.055-.005.092-.086.13-.179.1l-.039-.012c-.062-.018-.132-.038-.157-.081-.196-.331-.216-.548-.134-1.147z"/><path id="BE" d="M91.457 58.246l.006-.021c.017-.058.063-.214.131-.36.022-.048.131-.085.195-.079s.149.06.178.117c.05.1.099.221.089.327-.052.544-.037 1.079.105 1.611.043.161-.033.304-.19.379s-.349-.068-.398-.308c-.103-.494-.184-.991-.117-1.666z"/><path id="BF" d="M94.192 61.819c.007.154-.099.229-.213.223-.103-.005-.261-.053-.294-.127-.225-.498-.343-1.02-.175-1.562.049-.16.194-.238.364-.194.158.041.321.169.29.312-.07.326-.037.645-.005.959l.033.389z"/><path id="BG" d="M88.008 49.285c.198.038.3.252.225.375l-.854 1.365c-.065.1-.197.149-.297.074-.081-.062-.188-.207-.165-.271.198-.535.424-1.062.832-1.477.048-.048.138-.055.203-.059l.056-.006z"/><path id="BH" d="M90.385 56.672l.001-.063a1 1 0 0 0-.005.283c.017.231.033.463-.278.445-.282-.016-.283-.363-.284-.647l-.002-.147c-.011-.267.034-.542.099-.803.039-.157.203-.216.372-.189.146.023.181.143.177.257l-.045.526-.035.339z"/><path id="BI" d="M96.155 63.483c-.013.015-.026.035-.041.057-.037.056-.083.123-.146.153-.12.057-.236-.037-.281-.144l-.098-.222c-.144-.317-.289-.636-.269-.997a.38.38 0 0 1 .187-.273c.147-.065.315-.019.402.138.214.386.282.805.247 1.289z"/><path id="BJ" d="M87.416 52.306a1.28 1.28 0 0 1 .209-.689c.165-.27.434-.442.535-.319.118.144.057.267-.004.392-.022.045-.045.091-.059.138-.067.221-.115.45-.152.678-.031.187-.146.283-.308.247-.083-.018-.154-.153-.203-.249-.024-.046-.021-.106-.018-.152v-.045z"/><path id="BK" d="M98.783 64.762c-.022-.006-.045-.01-.069-.013-.051-.008-.102-.017-.14-.044-.339-.242-.459-.609-.532-.993-.023-.12.062-.233.178-.253.105-.018.268-.013.324.052.25.291.448.621.462 1.022.004.131-.108.192-.223.23z"/><path id="BL" d="M101.017 64.219c-.055.103-.122.209-.255.149s-.279-.132-.369-.24c-.057-.066-.065-.238-.016-.311s.203-.123.295-.103c.255.054.388.274.345.505z"/><path id="BM" d="M96.221 50.499l-.034.202c-.024.149-.045.283-.094.405-.032.079-.186.167-.269.153-.094-.016-.236-.136-.242-.219-.027-.418-.051-.844.092-1.247.028-.079.192-.159.285-.151a.33.33 0 0 1 .229.212c.029.165.03.334.03.486l.002.158z"/><path id="BN" d="M97.148 51.548l-.01-.164-.016-.237c-.009-.135.075-.229.184-.238.099-.008.259.031.298.102a1.89 1.89 0 0 1 .202 1.311c-.016.077-.157.16-.254.183-.171.041-.303-.069-.329-.227a6.66 6.66 0 0 1-.066-.61l-.01-.12z"/><path id="BO" d="M99.243 53.288l-.024.069-.11.282c-.058.116-.19.15-.292.103-.09-.042-.21-.151-.21-.231 0-.217.043-.435.085-.65l.005-.024c.033-.166.174-.297.317-.284.228.021.281.219.258.43l-.015.16-.014.147z"/><path id="BP" d="M94.664 49.413l-.012.044-.02.072c-.054.169-.188.265-.346.241-.091-.014-.226-.14-.232-.224-.023-.305-.008-.614.012-.92.003-.048.1-.117.162-.128s.158.014.207.058c.26.235.251.547.229.856z"/><path id="BQ" d="M100.703 54.506c-.023.24-.137.424-.335.561-.115.079-.352-.008-.36-.146l-.001-.028c-.01-.178-.019-.36.008-.534.059-.383.266-.631.431-.553.181.085.287.375.257.7z"/><path id="BR" d="M91.714 47.263c-.047.195-.18.328-.382.367-.19.038-.42-.223-.418-.45.001-.177.203-.391.363-.386.206.007.455.267.438.469z"/><path id="BS" d="M101.854 55.746l-.006.043c-.012.099-.034.295-.205.429l-.032.026c-.077.065-.164.138-.267.054-.082-.066-.173-.165-.187-.26-.044-.297.123-.508.354-.667.055-.038.15-.052.216-.034.118.032.179.125.127.408z"/><path id="BT" d="M92.834 48.367c-.175.016-.273-.05-.313-.158-.082-.222-.076-.451.061-.653.034-.05.136-.096.191-.081.196.053.325.384.252.683-.016.064-.081.117-.135.16l-.056.048z"/><path id="BU" d="M103.466 56.727c-.051.206-.163.355-.393.337-.173-.014-.271-.137-.276-.308-.006-.243.247-.463.448-.402.117.035.235.235.221.374z"/><path id="BV" d="M104.498 58.252c.147.024.32.285.275.439-.046.162-.176.245-.337.239-.18-.007-.318-.236-.266-.415.04-.142.214-.282.328-.263z"/><path id="BW" d="M98.406 29.023a.57.57 0 0 0-.01.047c-.005.029-.009.053-.023.071-.212.269-.516.326-.817.382l-.199.04c-.044.01-.126-.081-.167-.141-.066-.097-.108-.239-.009-.312.282-.208.565-.415.927-.369.146.018.291.103.298.282z"/><path id="BX" d="M103.143 22.182l-.085-.025-.164-.049c-.162-.051-.299-.184-.255-.326a.5.5 0 0 1 .337-.269c.177-.033.376.011.557.054.161.038.291.202.258.331-.028.114-.205.212-.336.27-.068.031-.153.023-.227.017l-.085-.005z"/><path id="BY" d="M101.582 22.141c-.075.388-.635.635-.911.427-.029-.022-.065-.053-.07-.084-.041-.262.1-.438.297-.575.167-.116.36-.158.531-.033.057.041.089.118.118.186l.035.079z"/><path id="BZ" d="M95.507 25.134c-.076.293-.564.508-.834.354-.137-.078-.228-.221-.172-.383.125-.362.679-.462.929-.173.03.035.044.085.057.135l.02.067z"/><path id="Ba" d="M99.314 23.435l.047.002-.046.035-.001-.037zm0 0l-.108-.004-.309-.013c-.23-.015-.369-.16-.358-.371.008-.146.137-.276.311-.299.216-.029.39.045.442.267.024.099.023.205.022.31v.11z"/><path id="Bb" d="M97.288 24.45c.011 0-.019.023-.019.023l.019-.023zm0 0l-.094.004c-.078.004-.156.009-.23-.005-.147-.027-.302-.056-.311-.247-.01-.22.21-.436.433-.417.165.014.267.109.303.276.033.151-.013.275-.102.389z"/><path id="Bc" d="M93.101 25.971c-.024.218-.154.326-.365.337-.181.01-.372-.192-.333-.36.036-.155.14-.259.306-.28.201-.025.393.125.392.303z"/></defs></svg>