<svg xmlns="http://www.w3.org/2000/svg" width="165" height="70" fill="none" xmlns:v="https://vecta.io/nano"><path d="M163.861 65.29c-.059 2.069-78.054 1.819-105.085 1.047S1.558 57.701 1.618 55.632c-17.513-3.676 141.56.443 156.198 6.935-5.265 3.821 6.104.653 6.045 2.722z" fill="#ebd3c1"/><path d="M98.59 17.223l-.069.063c.05.031.098.065.151.088.008.004.056-.046.054-.068-.006-.082-.058-.109-.136-.083zm2.578-8.309c-.032-.05-.053-.125-.097-.143-.105-.042-.286.161-.262.309.009.056.048.133.093.152.105.043.259-.15.266-.319zm-37.129 44.15c-.214.018-.272.108-.231.205.145.348.393.618.705.825.039.026.142.017.174-.017.123-.127.124-.665.001-.749-.221-.153-.465-.257-.648-.264zm1.333 1.401c-.032.246-.035.508.246.664.055.03.127.064.181.052.044-.01.1-.084.105-.133.039-.401-.084-.773-.222-1.14-.008-.022-.057-.051-.07-.044-.056.029-.116.062-.156.109-.12.138-.086.308-.083.494zM97.3 15.609c-.198.111-.148.339-.238.501-.117.212.083.526.342.606.136.042.26-.019.359-.116.077-.075.091-.169.044-.267-.129-.269-.254-.54-.506-.725zm-4.004 27.905c.011.35-.035.663.212.901.042.041.108.085.159.081s.139-.053.154-.1c.07-.221.14-.445.176-.673.048-.302-.055-.442-.391-.613-.123-.063-.282.019-.295.155l-.014.249zM67.081 55.8l-.184-1.37c-.025-.132-.078-.365-.293-.338-.23.03-.182.239-.165.397l.116.894c.023.207.091.393.237.54.036.037.126.057.171.038s.073-.096.118-.162zm-6.191-9.362c.02.404.154.804.335 1.189.013.027.142.041.172.014.092-.088.185-.188.236-.302.328-.728.248-.884-.519-1.06-.113-.026-.175.035-.224.16zm13.477 9.903l-.045.82c-.002.175.049.343.244.378.238.042.247-.151.268-.313l.143-1.181c.018-.163.033-.33.011-.491-.011-.077-.095-.17-.17-.208-.148-.075-.287.031-.313.148-.079.352-.117.712-.138.846zm-5.99-.062l-.221-1.566c-.021-.147-.108-.24-.255-.249-.204-.013-.289.117-.314.299-.077.573.051 1.119.222 1.658.042.131.313.248.413.192.132-.074.145-.203.155-.334zm28.695-41.204c-.148-.78-.319-1.46-.307-2.165.001-.042-.072-.111-.12-.121-.056-.011-.136.014-.181.052-.386.322-.399.446-.117.907.257.419.267.428-.088.835-.123.141-.197.266-.116.438.071.152.203.116.338.093.159-.026.323-.023.591-.038zM69.6 55.972l-.019-.998c-.007-.138-.113-.24-.255-.273-.184-.043-.328.033-.423.188-.051.083-.106.182-.107.274a3.7 3.7 0 0 0 .274 1.467c.052.127.158.22.307.213.163-.007.219-.124.222-.269l.001-.602zm1.955-.051l.09 1.107c.011.112.11.155.209.176.109.023.211-.022.241-.118.176-.569.298-1.147.168-1.745-.029-.134-.134-.223-.28-.237-.195-.02-.316.084-.355.262-.042.191-.052.39-.073.557zm3.828 1.269c0-.071-.003.03.001.13.008.245.15.405.352.395s.282-.144.309-.325l.16-1.096c.034-.266.05-.534-.033-.797-.036-.113-.253-.177-.331-.084-.085.099-.173.204-.224.322-.175.408-.19.848-.234 1.455zm-4.438-1.107h.002l-.005-.897c-.012-.187-.153-.281-.34-.298-.163-.014-.244.091-.288.221-.201.593-.215 1.175.111 1.736.07.121.161.215.312.2.235-.024.215-.198.209-.367l-.001-.594zm7.715.572l.061-1.092c.001-.132-.123-.244-.269-.236-.083.005-.21.067-.235.134-.264.728-.351 1.479-.232 2.246.028.184.171.288.359.263.178-.024.304-.143.312-.329l.004-.986zm-1.282-.083l.048.001.04-.989c.001-.096-.06-.177-.165-.216-.115-.044-.227.01-.257.085-.305.74-.451 1.507-.311 2.307.011.063.147.134.232.145s.214-.024.263-.086a.68.68 0 0 0 .143-.355c.02-.296.006-.594.006-.892zm2.595-.216l-.01-1.008c-.005-.072-.125-.182-.201-.19-.07-.008-.206.086-.221.155l-.299 1.575c-.035.293.027.601.063.9.017.14.119.249.27.237s.23-.131.247-.273l.15-1.396zm8.865-2.344c-.008-.136.001-.206-.019-.267-.03-.095-.083-.199-.198-.19-.089.007-.196.043-.255.105s-.096.172-.115.266l-.299 1.571c-.046.294-.049.596-.051.895 0 .082.024.222.167.193.09-.018.185-.062.254-.122.161-.14.195-.341.225-.541l.29-1.909zm-5.74 1.437l-.002-.307c-.017-.126-.009-.279-.188-.297-.169-.017-.222.106-.254.242l-.364 1.561c-.073.359-.106.727-.151 1.091-.013.102.013.203.126.24.135.044.28.031.354-.095.084-.14.158-.299.184-.459l.294-1.975zm-9.326.852h.027l-.002-.694c-.007-.233-.134-.361-.368-.374-.212-.012-.416.023-.457.268l-.205 1.473c-.027.224.079.373.302.442.416.129.661-.007.699-.421.021-.229.004-.462.004-.694zm12.669.271c.011.224.003.36.029.489.018.087.052.208.187.184.094-.017.193-.043.271-.094.118-.077.149-.209.171-.345l.212-1.277.197-1.385c.015-.127-.022-.274-.182-.302-.17-.03-.331.005-.436.163-.018.027-.027.062-.032.094l-.416 2.474zm2.711-.822c.032.066.051.174.116.222.093.069.206-.005.256-.083.506-.781.946-1.592 1.022-2.546.013-.163.04-.363-.117-.452-.147-.083-.321.003-.471.079-.179.09-.356.175-.395.406l-.41 2.375zm-4.113 1.479l.001.352c.005.18.157.281.351.226a2.14 2.14 0 0 0 .374-.144c.091-.045.173-.142.131-.24-.263-.608.068-1.174.112-1.759l.147-1.292c.007-.077-.068-.197-.137-.232s-.201-.024-.28.016c-.335.17-.435.494-.473.833l-.226 2.24zm-1.587-.091l.001.452c.016.192.127.299.318.321.209.024.416.017.484-.23.23-.844.257-1.717.35-2.581.026-.239.049-.484-.224-.602-.222-.096-.482.092-.586.409a1.7 1.7 0 0 0-.074.291l-.268 1.94zm11.182-18.366c-.427.863-.987 1.272-1.566 1.662-.139.093-.281.189-.393.311-.054.059-.083.198-.051.268.237.524.533 1.007 1.039 1.321.111.069.369.059.372-.016.006-.119-.112-.129-.17-.193-.309-.339-.322-.443-.146-.791.11-.219.242-.405.513-.422.146-.009.274-.058.291-.214.059-.546.229-1.088.111-1.926zM66.121 18.939c-.009.204.032.393.128.578l.336.726c.379.908.378.91 1.167.269l.924-.763c.105-.088.062-.276-.076-.313-.714-.189-1.372-.513-2.038-.821-.266-.123-.452.025-.442.323zm14.293 38.636c-.005.063-.019.275.182.4.319.199.792.013.867-.349l.371-1.972c.028-.162.025-.334.004-.498-.011-.089-.069-.202-.142-.248-.355-.227-.962.024-1.023.441l-.258 2.227zM60.748 44.22l.444-.438c.158-.138.34-.226.545-.093.158.102.195.258.165.438l-.091.593c-.059.386-.227.621-.672.52-.116-.026-.189.08-.16.181.154.54.757.747 1.183.423.508-.387.773-.892.851-1.527.055-.442.07-.557-.289-.718-.704-.317-1.366-.703-2.017-1.112a.39.39 0 0 0-.412-.027c-.07.615-.096 1.23.453 1.76zM67.43 27.7l-.59 4.378c-.005.035.074.115.108.112.056-.006.129-.05.154-.1l.635-1.248c.403-.778.883-1.493 1.626-1.998.1-.068.165-.187.284-.327-.723-.378-1.421-.659-2.218-.817zm17.715.852c.024.079.024.161.065.201.554.54.943 1.201 1.368 1.836.129.194.278.374.425.556.082.102.171.212.328.144.113-.049.105-.16.102-.255-.031-1.069.005-2.129.33-3.163a.23.23 0 0 0-.353-.282c-.646.354-1.342.57-2.032.806-.087.03-.158.104-.233.155zm3.364-11.436c-.145-.056-.257.025-.367.094l-1.74.974c-.241.109-.46.267-.679.418-.138.095-.115.245-.012.338.595.54 1.28.947 1.997 1.301.265.13.442.033.491-.284l.375-2.662c.007-.056-.042-.119-.065-.178zM69.903 20.05c.05.794.423 1.456.949 2.039.303.336.517.34.859.033l1.466-1.364c.072-.068.135-.148.196-.227.082-.106.007-.284-.132-.302l-1.988-.263-1.092-.156c-.145-.017-.252.06-.259.24zm-6.39 25.591c-.098.448.112.919.235 1.403.053.208.178.345.368.448.959.522 2.164-.034 2.426-1.142.061-.257.047-.532.063-.799.014-.234-.102-.373-.324-.438l-1.443-.43c-1.063-.341-1.287-.683-1.325.957zm17.304-16.31l.693 1.438c.194.461.335.944.507 1.414.175.478.163 1.033.598 1.532l.798-4.432c.058-.253-.069-.398-.312-.366l-1.984.275c-.092.013-.177.08-.299.139zm-9.158 4.505c.039-.003.095.003.1-.01l.491-1.312c.374-1.049.88-2.018 1.706-2.789.117-.11.298-.166.202-.423-.854-.019-1.697-.238-2.558-.35-.274-.036-.364.058-.328.335.168 1.293.299 2.587.287 3.893-.002.216-.056.458.1.655zm3.85-13.527c-.069.026-.183.036-.239.098-.11.122-.028.256.056.354l1.377 1.579c.132.145.305.258.469.368.183.122.388.144.542-.034.522-.602 1.052-1.201 1.431-1.91.164-.306.029-.523-.325-.523l-1.196.055c-.696.049-1.391.163-2.115.011zm7.076 2.067c.697-.85 1.248-1.761 1.753-2.702.047-.087.083-.181.114-.274.042-.122-.094-.272-.222-.244s-.267.046-.385.101c-.796.367-1.643.549-2.497.71-.294.056-.582.143-.868.233-.107.034-.125.155-.091.249.044.124.094.259.181.352.569.604 1.077 1.287 2.014 1.575zm-9.503 23.922v-.061l-1.1-.074c-.337-.01-.414.062-.499.359-.294 1.017.196 1.816.73 2.598.049.072.167.105.258.141.428.167.838.149 1.249-.086.891-.509 1.347-1.526 1.125-2.583-.039-.184-.183-.287-.361-.291l-1.402-.004zm3.782-12.031c.165-.073.213-.079.221-.099l1.713-4.565c-.19-.21-.407-.187-.599-.186l-2.005.048c-.18.006-.31.178-.27.348l.311 1.267.629 3.187zm11.31 11.246c.165-.464-.016-1.019-.088-1.576-.038-.292-.252-.406-.508-.272l-2.553 1.374c-.193.107-.257.33-.204.526.209.771.408 1.552 1.081 2.088.49.39.931.424 1.473.107.441-.258.648-.661.713-1.144.044-.33.053-.665.086-1.103zm4.161-2.122c.105-.589-.178-1.185-.283-1.806-.035-.211-.275-.312-.479-.21-.925.462-1.865.901-2.712 1.502-.242.172-.261.329-.161.608.397 1.106 1.273 1.676 2.304 2.072.294.113.517-.029.703-.246.459-.534.629-1.167.627-1.92zm-11.891 3.416c-.105.648.162 1.273.647 1.83.284.326.629.471 1.061.467a1.54 1.54 0 0 0 1.507-.97l.518-1.306c.178-.413.106-.776-.139-1.135-.127-.186-.259-.288-.494-.224-.907.248-1.838.356-2.766.488l-.099.015c-.188.032-.303.133-.294.333.006.133.031.266.061.502zm18.701-36.359c-.186-.08-.335.031-.444.133-.876.823-1.275 1.861-1.29 3.047-.003.26.063.542.174.779.241.515.517 1.015.804 1.506.266.454.716.695 1.178.901.235.105.619-.029.782-.286.147-.231-.075-.36-.205-.5-.319-.348-.575-.733-.788-1.159-.588-1.177-.549-2.398-.311-3.639.05-.258.206-.503.099-.781zM67.056 46.985l.041.732c-.035.968 1.561 1.705 2.382 1.045a3.33 3.33 0 0 0 1.257-2.198c.065-.432-.064-.622-.501-.703l-1.971-.346c-.974-.244-.959-.123-1.147.803-.046.227-.044.465-.062.667zm52.901-41.218c-.035-.298-.041-.603-.11-.893-.195-.818-.54-1.581-.921-2.327-.015-.03-.029-.061-.048-.088-.141-.212-.414-.254-.604-.072-.143.137-.268.297-.385.459-.267.371-.294.819-.331 1.247-.113 1.308.365 2.356 1.453 3.11.275.19.47.128.656-.177.237-.39.293-.813.29-1.258zm-18.941 4.04l-.77.233c-.182.052-.27.189-.317.353-.026.088-.055.206-.017.274.053.097.174.065.266.019.199-.1.398-.121.528.088.15.241.159.502-.005.751-.109.166-.296.164-.625-.005-.029-.015-.048-.048-.077-.063-.226-.121-.359-.064-.389.192-.074.631-.075 1.266-.014 1.898.101 1.037.658 1.801 1.491 2.374.281.193.605.269.939.059.226-.142.471-.251.704-.38.293-.162.325-.272.111-.546-1.059-1.359-1.604-2.906-1.73-4.614-.015-.196-.058-.389-.095-.631zM77.03 46.377c-.473 0-.708-.008-.941.002a.45.45 0 0 0-.471.427l-.105.593c-.152.773.223 1.365.699 1.893.304.337.727.439 1.196.38a2.62 2.62 0 0 0 2.242-2.233l.073-.801c.023-.411-.05-.502-.429-.48l-1.401.129-.862.09zm40.395-44.472c-.418-.137-.851-.059-1.282-.023-.096.008-.19.059-.205.18-.012.103.004.19.092.264.15.127.368.157.462.365s.042.487-.155.621c-.204.138-.376.088-.508-.116-.036-.056-.07-.115-.114-.165-.141-.163-.302-.162-.37.009-.465 1.184-.653 2.393-.256 3.634.285.894.834 1.589 1.649 2.071.348.206.648.21 1.025.003 1.257-.691.974-.669.272-1.449-1.302-1.446-1.553-3.162-.702-4.908.072-.147.168-.293.092-.487zM88.196 32.43c.065-.015.142-.01.188-.046l2.274-1.798c.315-.257.495-.623.689-.976.143-.26.166-.49-.033-.736l-1.365-1.727c-.251-.307-.534-.359-.878-.183-.302.155-.554.378-.685.7-.1.247-.199.499-.254.758a10.63 10.63 0 0 0-.136 3.585c.02.154.03.332.201.423zm.679-12.293l.005.599a.4.4 0 0 0 .116.251c.092.079.194.001.263-.068.741-.736 1.599-1.325 2.411-1.973 1.08-.861 2.246-1.582 3.406-2.321.273-.174.719-.155.799-.536.072-.342-.274-.593-.362-.915-.017-.063-.06-.12-.087-.181-.084-.186-.227-.248-.401-.148l-1.65.963c-1.384.714-2.556 1.712-3.751 2.687-.534.436-.877.92-.749 1.642zm26.141-18.013c-.599-.131-1.083.094-1.57.293-.056.023-.1.088-.139.141-.439.599-.806 1.211-.811 2.005-.005.644.079 1.272.204 1.892.199.987.535 1.927 1.087 2.785.428.664 1.077.727 1.757.713.151-.003.306-.127.446-.216.166-.107.204-.274.078-.426-.17-.205-.376-.38-.553-.581-.398-.454-.761-.931-.957-1.514-.36-1.071-.439-2.155-.188-3.265.14-.621.381-1.203.646-1.828zm-48.232 26.66c.002-.367.097-.731.019-1.102-.054-.26-.22-.356-.423-.202-.563.43-1.046.931-1.428 1.536-.721 1.139-1.183 2.4-1.755 3.608-.115.243.021.389.171.516.651.552 1.429.865 2.227 1.131.189.063.315-.051.376-.232.021-.063.041-.128.051-.194.266-1.685.721-3.342.762-5.061zM101.781 9.85c-.007 1.293.14 2.053.562 3.043.208.489.36 1.004.726 1.422.7.8.799.833 1.787.375.151-.07.301-.147.442-.236.169-.107.201-.262.083-.424l-.553-.714c-.263-.346-.525-.689-.679-1.107-.521-1.414-.681-2.856-.384-4.341.064-.319.253-.621.15-.966-.475-.134-.679.337-1.036.473-.151.058-.257.214-.265.399-.011.214-.104.398-.254.532-.563.506-.585 1.173-.579 1.544zm8.453 2.34c.032.014.066.02.099.019.244-.007.498-.054.619-.271.16-.289-.173-.384-.298-.557-.056-.079-.146-.139-.229-.194-.555-.373-.89-.919-1.104-1.523-.371-1.048-.572-2.132-.617-3.25-.028-.681.114-1.334.209-1.997.03-.208-.109-.291-.306-.25-.841.172-1.794 1.622-1.784 2.471.009.881.165 1.734.331 2.59.13.668.433 1.268.775 1.848.362.612.865 1.014 1.607 1.054l.698.062zm-23.11 20.725c.053-.427-.132-.799-.398-1.167-.293-.405-.655-.769-.829-1.254-.214-.6-.725-.947-1.166-1.349a.41.41 0 0 0-.615.086c-.215.379-.405.768-.463 1.214l-.255 1.589-.343 2.483c-.024.181.123.302.317.271 1.307-.212 2.523-.663 3.628-1.399.16-.107.2-.258.125-.473zm-10.747 2.27c-.063-1.034-.191-2.062-.427-3.071-.16-.68-.224-1.388-.537-2.028-.139-.285-.311-.358-.558-.216-.708.408-1.279.946-1.661 1.687-.525 1.017-.822 2.113-1.163 3.194-.06.19-.086.392-.11.591-.035.291.092.456.383.46 1.004.014 1.998.12 2.991.261.195.027.401.008.599-.013.433-.047.517-.148.503-.564l-.02-.3zm-5.366-2.461l-.001-.853c-.019-.839-.095-1.672-.297-2.488-.092-.372-.338-.473-.686-.322-.51.222-.882.61-1.2 1.043-.775 1.058-1.329 2.24-1.877 3.424-.084.181-.141.377-.19.571-.095.383-.017.512.356.694 1.141.558 2.402.551 3.614.77.195.035.312-.114.339-.292.035-.23.09-.477.043-.697-.144-.664-.09-1.334-.102-1.851zm6.272 2.823c-.024.27.063.339.154.36.129.029.267.033.399.021 1.335-.127 2.652-.366 3.96-.662.29-.065.388-.218.314-.516l-.927-3.598c-.078-.287-.224-.561-.374-.82-.218-.375-.461-.834-.943-.784-.415.044-.592.506-.782.856-.835 1.542-1.376 3.19-1.748 4.897l-.053.246zm-.699-6.725l3.101-.154 1.7-.16c.744-.027 1.462-.174 2.178-.355l1.956-.471c.355-.093.733-.171 1.04-.356l2.076-1.394c.127-.089.213-.255.28-.403.035-.077.013-.205-.028-.287-.075-.148-.213-.126-.343-.068l-.365.169c-1.291.736-2.687 1.209-4.106 1.615-.933.267-1.87.538-2.848.584-2.413.113-4.823.208-7.236-.061-1.204-.133-2.377-.358-3.532-.707-1.48-.447-2.927-.971-4.286-1.719a2.06 2.06 0 0 0-.372-.154c-.196-.062-.319.038-.393.209-.118.274-.081.486.134.622l.949.563c.905.664 1.931 1.075 2.977 1.428a21.06 21.06 0 0 0 7.119 1.101zm-2.059-8.158c-1.066.498-1.906 1.209-2.61 2.064-.453.549-.691.505-1.261.079-.128-.096-.215-.253-.305-.392-.379-.589-.789-1.16-.958-1.861-.064-.267-.22-.331-.45-.233-.183.077-.374.159-.526.282-.363.293-.741.566-1.038.943-.328.417-.408.398-.879.009-.076-.062-.134-.155-.289-.112l-.318 1.84c-.142.585.059.976.54 1.268.315.191.622.403.957.549 1.349.592 2.715 1.146 4.143 1.521.647.17 1.3.361 1.961.427 1.901.189 3.811.273 5.721.161 1.069-.062 2.149-.073 3.192-.352l3.186-.908c.807-.243 1.539-.658 2.262-1.079.503-.293.769-.723.648-1.342l-.277-1.684c-.033-.201-.084-.387-.27-.515l-2.308-1.609c-.304-.206-.43-.175-.667.158l-.936 1.426-1.085 1.803c-.192.299-.409.309-.657.07-.242-.233-.478-.466-.771-.638-.467-.275-.856-.643-1.206-1.055l-.339-.37c-.115-.109-.255-.087-.359.01-.121.113-.224.248-.326.38l-1.415 1.826c-.231.293-.358.318-.683.14a2.27 2.27 0 0 1-.485-.347l-.833-.872-1.358-1.583zm-8.504-10.071c.054.151.182.197.299.256 1.261.637 2.613 1.033 3.939 1.497.856.3 1.775.351 2.632.617 1.241.385 2.502.431 3.773.419l4.814-.234 2.989-.373c.333-.061.659-.129.953-.302l2.349-1.389c-.482-.703-1.083-1.224-1.745-1.671-1.233-.831-2.592-1.382-4.039-1.712l-1.873-.361c-.96-.101-1.91-.298-2.895-.159l-5.67.763a16.73 16.73 0 0 0-3.994 1.308c-.301.141-.592.315-.862.509-.298.213-.59.448-.669.832zm-3.783 39.923c.102.528.398.971.694 1.411.136.203.344.3.574.38l4.738 1.679c.125.044.262.055.394.076l3.479.531c.594.08 1.193.201 1.8.056a.85.85 0 0 1 .394-.003c1.122.289 2.254.116 3.384.111.609-.002 1.197-.108 1.786-.183 1.859-.237 3.742-.309 5.562-.836.867-.251 1.756-.443 2.647-.592 1.393-.232 2.583-.886 3.747-1.631a1.44 1.44 0 0 0 .638-.856l1.297-4.334c.14-.453.094-.829-.194-1.212-.331-.44-.4-.454-.668.008l-.376.592c-.316.428-.743.544-1.249.412-.461-.12-.869-.342-1.267-.6-.358-.232-.48-.159-.527.228-.098.795.157 1.523.402 2.253.104.312.341.489.637.596.278.101.49.024.695-.247.137-.181.094-.437-.105-.503-.188-.062-.393-.076-.585-.129-.141-.039-.21-.153-.215-.3-.006-.191.086-.325.267-.372.686-.178 1.365.454 1.247 1.156-.082.496-.598 1.093-1.019 1.115-.542.029-.99-.185-1.242-.687-.164-.328-.281-.679-.414-1.021-.053-.136.041-.336-.195-.411l-.17.229c-.073.112-.127.238-.209.342-.649.827-1.669 1.071-2.557.357l-.467-.384c-.214-.165-.405-.117-.453.119-.136.663-.192 1.328.001 1.99.095.325.223.632.495.858.175.145.361.163.538-.001a2.63 2.63 0 0 0 .39-.451c.114-.168-.042-.442-.246-.439-.13.002-.261.045-.387.082-.117.035-.192-.011-.249-.102-.075-.119-.109-.242-.007-.367.535-.652 1.112-.598 1.501.132.142.267.113.52-.022.767-.196.359-.493.635-.802.89-.225.186-.484.19-.756.064-.219-.102-.42-.223-.55-.424-.237-.364-.484-.721-.548-1.174-.036-.253.001-.539-.198-.742-.257-.042-.356.175-.517.274-.956.588-1.814.504-2.636-.264-.118-.111-.221-.25-.438-.23-.515.763-.443 1.646-.435 2.511.002.154.103.316.183.46.126.226.392.281.602.127a1.48 1.48 0 0 0 .279-.284c.156-.2.087-.405-.148-.444-.13-.022-.27.005-.397-.027-.251-.064-.32-.371-.138-.561.225-.234.449-.283.72-.158.583.27.721.59.522 1.208-.173.537-.697.971-1.158.96-.472-.011-.951-.468-1.051-1.066-.054-.326-.011-.668-.031-1.001-.019-.314.217-.735-.119-.913-.252-.134-.503.258-.79.338-.031.009-.056.036-.087.05-.844.381-1.622.312-2.337-.315-.193-.169-.332-.426-.65-.466-.547.492-.756 1.152-.891 1.854-.117.611.112 1.12.439 1.604.111.163.28.163.449.104.232-.081.391-.253.527-.448.149-.214.07-.399-.217-.509-.122-.046-.259-.077-.357-.154-.065-.051-.119-.185-.101-.263.088-.37.501-.52.761-.285.174.158.343.322.496.5a.58.58 0 0 1 .06.745c-.278.422-.595.805-1.097.99-.46.169-.699.133-.952-.261-.443-.692-.763-1.423-.521-2.278l.145-.584c.055-.28-.038-.416-.297-.373-.938.155-1.733-.03-2.279-.878a.41.41 0 0 0-.067-.074c-.089-.082-.193-.06-.277-.01-.113.067-.262.137-.308.244-.347.802-.638 1.62-.463 2.519.025.129.079.257.143.373.164.298.59.394.876.196.263-.182.4-.444.425-.762.016-.196-.169-.393-.373-.383-.165.009-.328.064-.493.067-.218.004-.333-.251-.211-.442.309-.486 1.125-.455 1.439.054.275.445.238 1.198-.114 1.6-.374.427-.835.67-1.429.525-.167-.041-.32-.115-.417-.26-.339-.507-.651-1.021-.5-1.68.06-.261.099-.529.112-.796.015-.291.221-.557.137-.868-1.8.399-2.253.278-3.257-1.115-.479.271-.973.723-1.141 1.074-.209.438-.302.927-.142 1.37.268.74.557.848 1.164.318.058-.051.081-.183.065-.267-.02-.107-.132-.136-.238-.123-.066.008-.129.037-.195.047-.184.026-.335-.023-.399-.213-.076-.226.019-.389.214-.503a.85.85 0 0 1 1.2.511c.117.478-.055.827-.457 1.121-.705.516-1.207.451-1.677-.277-.379-.586-.315-1.219-.16-1.846.086-.347.245-.677.377-1.032-.125-.033-.219-.071-.316-.08-.945-.084-1.55-.565-1.776-1.499-.016-.065-.037-.129-.063-.19-.052-.12-.242-.148-.331-.042-.505.602-.83 1.298-.987 2.06-.077.373.06.733.316 1.021.085.095.213.174.336.206.074.02.193-.045.261-.106.081-.073.067-.194-.007-.266-.142-.137-.317-.243-.447-.389-.046-.052-.034-.201.006-.276.066-.122.209-.203.337-.124.255.157.517.32.729.529.379.374.22.926-.291 1.114-.246.091-.538.048-.775.274zM90.02 9.716l-.945 1.014c-.366.391-.727.79-1.199 1.06l-1.748.979c-.559.323-1.149.539-1.792.615l-2.793.344c-1.933.266-3.88.235-5.822.27-.939.017-1.863-.127-2.775-.391-.801-.232-1.648-.306-2.448-.542-2.157-.636-4.226-1.507-6.246-2.494-.117-.057-.242-.129-.322-.227-.503-.619-1.242-.78-1.947-.957-.547-.138-1.131-.133-1.7-.054-.095.013-.201.064-.208.183-.007.107.06.179.161.215.517.184.916.558 1.325.893.831.68 1.585 1.45 2.163 2.359.43.676.77 1.409 1.16 2.111.36.648.626 1.333.819 2.047.083.306.227.55.532.687 1.157.521 2.265 1.148 3.544 1.381l3.673.561 3.01.069c1.438-.052 2.884.036 4.312-.218 2.432-.433 4.736-1.2 6.747-2.679 1.636-1.202 1.546-1.205 1.966-3.088l.62-3.256c.051-.248.159-.514-.09-.881zm1.989 20.305l-2.553 2.277c-1.168 1.028-2.464 1.871-3.916 2.422-.968.367-1.983.626-2.992.87-1.762.425-3.547.74-5.354.895-.797.068-1.608.145-2.407-.031-.694-.153-1.396-.173-2.102-.163-.735.01-1.469.033-2.18-.226-.248-.09-.524-.104-.787-.153-.725-.134-1.47-.167-2.172-.409l-2.554-.92c-.786-.293-1.549-.626-2.201-1.182-.363-.309-.527-.25-.771.195-.517.944-.919 1.942-1.254 2.96-.445 1.349-.548 2.755-.563 4.169-.005.434.163.765.486 1.054.554.495 1.137.935 1.834 1.213.278.111.587.213.799.409.413.381.898.575 1.418.722l1.547.435 4.835.943 3.699.347c.201.005.409-.022.602.02 1.076.231 2.138.032 3.202-.084l1.193-.173c1.169-.125 2.328-.311 3.469-.588.584-.142 1.206-.267 1.708-.57l2.814-1.548 2.859-1.68c.838-.439 1.589-.997 2.366-1.521.312-.21.565-.495.72-.827.175-.373.415-.684.685-.982.162-.179.285-.382.256-.634-.088-.763-.073-1.54-.373-2.273l-1.26-3.176c-.259-.614-.568-1.21-1.051-1.79zM60.125 8.586l-.033-.072.03.05c.81-.092 1.597.14 2.399.183.545.029.894-.145 1.182-.563l.599-.798c.028-.035.138-.039.185-.013s.085.108.083.164c-.01.286-.215.483-.344.715s-.313.443-.303.731c.002.064.02.141.06.183.023.024.132.008.16-.025.129-.153.256-.311.359-.482.566-.937 1.507-1.281 2.478-1.575.095-.029.199.03.211.143.006.056-.029.146-.074.174l-1.211.713c-.509.3-.87.729-1.105 1.268-.148.337-.11.555.125.709.186.122.398.098.607-.175.624-.814 1.524-1.178 2.424-1.546l1.323-.478c.747-.322 1.529-.467 2.326-.603 1.09-.187 2.169-.431 3.282-.444.066-.001.132-.023.198-.037 1.757-.374 3.519-.428 5.289-.104l1.29.209c1.608.363 3.179.826 4.559 1.78l2.158 1.464c.177.12.399.032.473-.18a.82.82 0 0 0-.138-.847c-.403-.498-.834-.971-1.386-1.303-1.362-.818-2.835-1.404-4.388-1.668-1.885-.32-3.8-.411-5.715-.206-.631.067-1.272-.046-1.898.102-.029.007-.073-.001-.095-.02-.046-.039-.106-.085-.117-.138s.017-.129.055-.17c.23-.247.545-.22.843-.257 1.636-.206 3.279-.233 4.922-.136 1.135.067 2.269.149 3.375.481.967.29 1.886.673 2.792 1.111.672.325 1.303.683 1.779 1.275.082.101.192.27.438.13-.381-.876-.766-1.708-1.717-2.11-.441-.186-.733-.564-1.033-.921-.031-.037-.027-.154.006-.186.066-.062.175-.138.246-.121.124.03.248.108.344.196.404.371.922.541 1.385.808.475.275.649.859 1.155 1.097l.036.193c.007.031.028.088.033.086.085-.018.113-.077.059-.146-.038-.048-.102-.075-.155-.112.231-.521-.085-.929-.349-1.285-.743-1-1.627-1.871-2.756-2.436-1.169-.584-2.394-1.024-3.668-1.329-1.676-.401-3.383-.42-5.088-.405-1.473.013-2.937.193-4.394.416-1.06.163-2.103.399-3.089.843-.273.123-.561.215-.844.319-1.628.599-3.264 1.171-4.736 2.134-.54.353-1.062.675-1.375 1.261-.122.228-.915.686-1.164.662-.861-.082-1.449.401-2.018.933-.107.1-.132.225-.074.356zm51.948-5.718l.052-.004c-.013-.009-.034-.03-.038-.026-.11.077-.017-.082.01.05-.757.018-1.384.319-1.895.871l.031-.031c-.347.066-.498.323-.566.627l-.23 1.282c-.125 1.147.071 2.253.372 3.364.235.868.741 1.481 1.436 1.977.301.214.66.373 1.025.354.287-.015.568-.178.848-.285.297-.114.632-.166.869-.457l-.278-.341c-1.241-1.588-1.785-3.406-1.851-5.406-.023-.679.199-1.313.215-1.977zm-7.019 3.846l-.223.222c-.584.958-.594 2.016-.509 3.079.098 1.221.429 2.357 1.366 3.232.192.178.321.481.619.457.446-.036.932.256 1.339-.14l-.028.024c.451-.027.813-.275 1.185-.491.154-.09.142-.307-.034-.388-1.004-.47-1.568-1.325-1.941-2.306-.318-.837-.544-1.708-.608-2.612-.047-.666-.05-1.329.007-1.995.013-.144-.113-.232-.272-.181-.222.071-.445.146-.556.383l-.345.717zM63.687 30.062c.052.035.02.061 0 .024-.066-.116-.037.073.018-.049l.218-.399c.665-.862 1.184-1.843 2.054-2.54.025-.02.042-.051.06-.079.091-.141.031-.262-.079-.344-.104-.078-.232-.126-.353-.18-.531-.242-.53-.241-.745.346l-.828 2.243c-.074.192-.127.375-.084.581l-.261.398zm25.515-12.284c.373.056.564-.155.746-.322.899-.819 1.896-1.488 2.968-2.059l1.989-1.17c.192-.113.268-.283.301-.492.089-.553.409-.949.797-1.35 1.567-1.62 3.272-3.077 5.074-4.42.833-.62 1.709-1.186 2.596-1.726 1.89-1.151 3.767-2.338 5.863-3.09 1.571-.564 3.093-1.27 4.765-1.564 1.23-.216 2.46-.31 3.7-.347.674-.021 1.16.259 1.45.877.37.789.757 1.568.986 2.418.187.692.097 1.402.186 2.099.022.171-.109.385-.219.546-.592.87-1.306 1.611-2.254 2.106l-2.572 1.368-2.85 1.257c-1.057.434-2.077.941-3.084 1.476-.772.41-1.565.764-2.395 1.04a24.08 24.08 0 0 0-3.164 1.293L101.251 17c-.333.154-.649.348-.972.525l-.703.385c-.881.436-1.682.321-2.398-.358-.049-.046-.107-.085-.145-.139-.396-.562-.85-.615-1.458-.288l-1.224.691c-1.677 1.001-3.197 2.212-4.633 3.53-.172.158-.32.344-.477.518-.291.324-.348.679-.265 1.117.309 1.649.943 3.131 2.026 4.43.925 1.109 1.647 2.364 2.412 3.585a2.21 2.21 0 0 1 .173.363l.964 2.427c.697 1.581.8 3.252.738 4.932-.069 1.879-.381 3.727-.819 5.561l-1.474 5.431-1.312 3.697c-.229.59-.578 1.133-.877 1.695-.126.237-.328.455-.38.705-.133.648-.539.901-1.137 1.099-1.012.335-1.995.766-2.971 1.2a5.38 5.38 0 0 1-1.945.465l-4.422.126c-1.575-.008-3.149-.11-4.713-.337l-3.791-.489-3.655-.639c-.767-.145-1.48-.408-2.013-1.038-.214-.253-.495-.45-.747-.671-1.594-1.401-2.735-3.121-3.509-5.08-.74-1.873-1.316-3.796-1.632-5.794-.331-2.099-.419-4.201-.177-6.314.077-.67.215-1.328.462-1.953l.995-2.308c.094-.215.225-.417.292-.64.351-1.16 1.008-2.18 1.473-3.286.507-1.203 1.072-2.386 1.416-3.654l.807-2.803c.325-1.072.406-2.17.418-3.281.009-.813-.074-1.607-.399-2.363-.04-.092-.087-.188-.096-.286-.159-1.706-1.134-3.066-1.956-4.474-.522-.895-1.322-1.6-2.112-2.276-.378-.324-.802-.602-1.31-.726-.324-.078-.633-.217-.949-.327-.427-.15-.479-.407-.267-.771.766-1.314 1.912-2.144 3.325-2.603.366-.119.664-.282.953-.512.446-.353.826-.779 1.31-1.094a15.25 15.25 0 0 1 2.76-1.425l4.621-1.694c1.491-.444 3.028-.57 4.559-.749 1.84-.215 3.683-.065 5.525-.005.78.025 1.498.336 2.248.501 1.322.292 2.546.858 3.693 1.561 1.069.655 1.98 1.527 2.626 2.593a5.37 5.37 0 0 1 .795 2.673c.026 1.151-.146 2.272-.429 3.379-.066.26-.162.51-.159.782.014 1.027-.308 1.982-.635 2.934-.251.728-.4 1.473-.48 2.247z" fill="#d2b39f" stroke="#db713d" stroke-width=".2"/><path d="M72.493 52.211c.008-.246.285-.51.511-.487.143.014.346.27.339.425-.01.199-.258.432-.457.428-.179-.003-.399-.208-.394-.367zm4.749-.207c.007-.252.231-.504.422-.455a.45.45 0 0 1 .348.432c.02.239-.177.493-.377.507-.213.014-.4-.216-.392-.483zm14.71-4.551c.001-.272.156-.498.357-.52s.413.221.402.467c-.011.254-.204.468-.419.465-.178-.003-.34-.2-.34-.412zm-8.978 3.281c.194 0 .427.259.421.469-.008.283-.241.502-.505.474-.214-.022-.381-.195-.369-.381.018-.276.249-.562.453-.562zm-14.691.187c.282-.013.427.161.426.523-.001.167-.014.335-.232.363-.322.041-.539-.16-.57-.524-.016-.191.151-.352.376-.363zm19.911-1.653c.061.017.142.014.181.053a.63.63 0 0 1 .022.816c-.098.111-.229.118-.364.079a.37.37 0 0 1-.27-.265c-.073-.268.151-.617.431-.684zm-24.328.816a.37.37 0 0 1 .339.395c-.013.161-.203.336-.328.288a.41.41 0 0 1-.278-.453c.014-.145.124-.215.266-.23zM84.09 4.451l.694.06c.482.006.699.319.851.71.019.049-.009.129-.038.181-.059.103-.193.123-.26.074-.438-.32-.952-.444-1.456-.595-.11-.033-.158-.116-.159-.218-.002-.178.138-.195.27-.211.033-.004.066-.001.099-.001zM71.211 6.062c.09.024.193.035.279.08.048.025.082.101.096.161.028.112-.041.216-.136.221-.401.022-.794.069-1.173.211-.061.023-.125.052-.188.055-.108.004-.186-.059-.223-.158-.04-.108.009-.205.092-.261.376-.253.811-.275 1.252-.31zm3.057 16.794l-.662.197c-.173.067-.221.23-.217.409.006.278.176.414.417.491.269.085.464.024.596-.208.098-.172.193-.349.187-.56-.004-.143-.184-.34-.321-.328zm-.167-.624c.872.029 1.152.356 1.025 1.131-.032.196-.081.395-.16.576-.263.61-1.003.855-1.601.543-.52-.272-.775-1.042-.489-1.561.277-.504.663-.845 1.225-.689zm12.221-.032c-.165-.008-.284.04-.628.256a.44.44 0 0 0-.061.738c.186.165.403.22.645.186.231-.032.396-.218.427-.476.04-.332-.071-.591-.29-.677-.03-.012-.062-.018-.094-.027zm.92.56c-.019.776-.418 1.163-1.189 1.153-.648-.008-1.34-.619-1.3-1.149.048-.645.734-1.24 1.46-1.267.527-.019 1.046.616 1.03 1.262zm-7.091.271c-.287.03-.495.253-.538.544-.032.212.091.438.267.473.218.044.395-.038.508-.221.135-.218.114-.448-.031-.654-.05-.071-.151-.106-.206-.143zm.887.373c-.018.516-.146.908-.595 1.137-.4.205-.774.174-1.136-.079s-.461-.553-.325-1.062c.132-.492.272-1.005.87-1.113.505-.092 1.026.285 1.139.773.03.13.036.265.047.344zm-12.38-1.019c-.369-.018-.52.192-.635.448-.11.243.001.471.261.54.212.056.392.012.534-.163.159-.194.236-.409.125-.646a.32.32 0 0 0-.286-.178zm-.181-.624c.587.024 1.038.351 1.087.834a1.27 1.27 0 0 1-.481 1.144c-.434.355-1.151.293-1.563-.094-.394-.37-.409-.887-.038-1.324.387-.455.603-.576.996-.56zm42.978-13.143c-.018.057-.048.186-.1.306-.089.204-.273.29-.477.293-.24.003-.321-.2-.378-.387-.037-.122-.037-.261-.026-.39.024-.295.312-.517.625-.499.243.014.398.272.356.676zm-1.53-2.562c-.006-.151.096-.316.242-.459.023-.023.055-.038.085-.051.162-.067.329-.081.468.035.231.192.266.601.073.913-.088.142-.224.251-.411.216-.23-.043-.436-.321-.457-.654zm.278-2.297c.156-.053.308-.133.468-.152.274-.033.479.123.514.348.046.305-.14.638-.399.713-.192.055-.426-.061-.464-.256-.044-.226-.058-.458-.087-.686-.001.002-.032.033-.032.033zm2.052 6.178c.267.023.429.308.387.678-.022.197-.272.368-.512.352-.247-.016-.435-.287-.394-.568.046-.319.234-.486.519-.462zm-6.796 1.446c-.006-.22.057-.405.292-.463.217-.053.385.036.511.222a1.09 1.09 0 0 1 .181.763.41.41 0 0 1-.298.367.44.44 0 0 1-.456-.141c-.184-.211-.247-.47-.23-.748zm-.645-4.481l.206-.206c.273-.048.521-.042.665.256s.054.577-.101.835c-.095.158-.46.112-.614-.054-.227-.246-.204-.535-.156-.83zm.446 2.056c.251.013.459.237.499.536.037.282-.145.528-.424.575-.251.042-.481-.114-.497-.36-.011-.163-.001-.334.04-.491.046-.179.207-.242.382-.259zm2.386 4.606c-.223-.07-.456-.126-.565-.367-.074-.162-.07-.328.053-.465s.281-.168.452-.097c.177.072.267.222.233.395-.037.191-.131.372-.2.557-.001.001.027-.023.027-.023zm7.886-8.782c-.005-.218.031-.373.146-.506.096-.111.203-.161.344-.102.442.188.583.555.363.952-.085.153-.216.275-.39.25-.197-.029-.377-.13-.433-.35-.024-.094-.025-.195-.03-.244zm1.93 2.725c.298.023.503.235.492.508-.009.217-.265.452-.458.422-.209-.033-.371-.318-.356-.629.007-.163.168-.313.322-.301zm-1.212-1.219c.248.006.468.284.436.556-.022.184-.131.32-.308.335-.274.023-.629-.337-.585-.56.026-.133.305-.334.457-.33zM77.481 46.993c.132 0 .167-.008.197.001.797.255 1.065.314.534 1.107l-.116.163c-.195.247-.307.637-.754.477-.577-.207-.915-.599-.909-1.055.004-.253.126-.461.367-.541.249-.083.516-.117.68-.152zm23.548-33.929c-.024.227-.052.433-.284.505-.209.065-.392.003-.535-.163-.206-.241-.245-.502-.104-.732.111-.182.272-.298.493-.269s.349.177.399.387c.023.096.023.197.031.272zm.36 1.291c.319-.006.595.242.595.534.001.213-.2.393-.47.422-.29.032-.505-.216-.511-.589-.003-.196.172-.363.386-.367zM67.691 47.188c.006-.421.181-.681.453-.713a.77.77 0 0 1 .782.482c.073.194.061.389.011.583-.071.271-.308.48-.55.498-.287.021-.578-.197-.65-.499-.03-.127-.035-.261-.047-.351zm14.644-.77c.145.005.389.174.586.409.139.166.154.393.057.569-.236.425-.59.728-1.09.787-.416.05-.809-.409-.764-.859.049-.488.536-.918 1.21-.906zm8.243-3.666c.38.097.733.244.962.611.204.328.153.633-.066.924a1.77 1.77 0 0 1-.27.291.71.71 0 0 1-1.053-.123 1.23 1.23 0 0 1 .142-1.553c.07-.063.171-.092.286-.152zm-4.888 3.502c.058-.402.06-.81.438-.987.39-.182.693.097.98.321.382.298.5.712.336 1.14-.136.354-.486.614-.837.594-.358-.021-.636-.189-.769-.535-.07-.182-.107-.378-.149-.534zm-13.289 1.404c-.011-.356.24-.615.612-.632.423-.019.817.24.831.545.018.419-.38.888-.761.896-.398.008-.667-.311-.683-.809zm-8.395-1.438c-.018-.347.299-.72.659-.779.328-.053.647.302.659.732.011.413-.196.729-.501.766-.385.046-.796-.316-.817-.719z" fill="#edd1bc"/><mask id="A" maskUnits="userSpaceOnUse" x="5.933" y="28.428" width="36" height="28" fill="#000"><path fill="#fff" d="M5.933 28.428h36v28h-36z"/><path d="M15.229 44.482c.049.108.11.212.172.314l.884 1.439a4.26 4.26 0 0 0 .373.483c.106.124.266.149.421.183.562.124 1.133.192 1.704.259.207.024.418.07.623.056.29-.019.535.121.807.162.113.017.167.121.168.23.001.084-.025.167-.03.251l-.082 1.423c-.004.08-.003.171.102.211.116.045.238.013.32-.083.137-.161.228-.339.245-.55l.103-1.216c.021-.269.084-.4.183-.355.17.078.107.238.097.357l-.174 1.669c-.027.223-.017.251.234.274l.504.032c.024-.144.026-.247.058-.34.138-.394.151-.798.133-1.207l-.003-.507c.006-.088.077-.149.179-.15.082-.001.169.082.157.167-.097.653-.032 1.319-.177 1.999.19.084.399.062.601.064.077.001.109-.057.116-.137.049-.589.155-1.176.078-1.77a.23.23 0 0 1 .026-.147c.025-.038.08-.07.126-.077s.11.014.119.073c.018.116.038.234.038.351l-.02 1.476c-.001.172.035.205.207.226l.208.016c.193.005.223-.021.244-.235.013-.134.055-.265.02-.403-.046-.185-.03-.369.016-.554.05-.202.007-.405-.002-.608-.009-.19.047-.255.223-.276a.98.98 0 0 1 .157-.009c.932.043 1.838-.137 2.749-.286l.675-.083a5.62 5.62 0 0 0 1.171-.258 8.16 8.16 0 0 1 1.316-.313c.433-.067.815-.239 1.184-.495.537-.372.942-.853 1.346-1.337l1.272-1.678c.387-.546.692-1.137.903-1.771.021-.063.035-.131.037-.197.001-.052-.035-.096-.097-.093-.051.002-.109.004-.151.028-.286.162-.618.222-.9.402-.169.108-.387.148-.586.207l-3.722.994-2.572.444c-.256.041-.522.052-.782.038-.698-.038-1.395-.008-2.093.005-.139.003-.28.01-.418-.005l-2.86-.305c-.415-.049-.826-.133-1.235-.216l-2.352-.49c-.527-.114-1.05-.239-1.542-.469-.328-.154-.663-.296-1.025-.373-.166-.035-.315-.139-.475-.205-.075-.031-.159-.094-.237-.014-.055.056-.021.128-.007.192.012.05.029.098.044.146.325 1.04.754 2.042 1.199 3.038zm3.065 4.622c.065.025.13.051.197.066.09.02.181.01.221-.084.191-.455.371-.914.347-1.418a.2.2 0 0 0-.189-.206l-.207-.03c-.171-.005-.242.042-.275.162l-.316 1.074c-.092.312-.092.313.222.435zm-1.433-1.926c-.095-.04-.195-.069-.295-.099-.251-.075-.287-.058-.373.19l-.154.483c-.125.392-.12.401.309.614l.475-.655c.064-.096.092-.217.131-.328.033-.094-.004-.168-.094-.205zm-.012 1.119c-.075.152-.039.253.12.331a2.86 2.86 0 0 0 .383.152c.162.053.203.034.296-.108.228-.345.373-.719.408-1.054.015-.17-.024-.245-.122-.263-.565-.1-.508-.188-.757.311l-.328.63zm3.19-.4c.002-.111-.06-.222-.09-.323-.509-.066-.535-.081-.607.431-.035.25-.108.494-.159.742l-.064.397c-.006.069.031.13.11.149.05.012.102.018.153.028.439.085.541.039.598-.365.049-.349.054-.706.059-1.059zm4.281 1.526c-.04.18-.009.219.159.237a2.59 2.59 0 0 0 .413.014c.177-.009.213-.043.224-.21.01-.151.002-.303.002-.454.013-.323-.045-.638-.144-.944-.066-.205-.362-.307-.557-.206-.087.045-.116.126-.119.211-.011.319-.06.641.017.956.034.137.035.26.005.396zm1.784-.915c.01-.19-.032-.367-.063-.548-.028-.163-.124-.219-.3-.197-.085.011-.171.028-.253.052-.136.039-.212.126-.18.263.118.504.058 1.034.249 1.551a1.24 1.24 0 0 0 .541-.065l.005-1.055zm.33.529c.035.156-.03.299-.044.497l.358-.017c.625-.053.547-.189.53-.596-.015-.353-.094-.703-.156-1.053-.031-.177-.097-.217-.292-.213a1.59 1.59 0 0 0-.309.035c-.092.02-.148.086-.136.185.047.386-.036.778.049 1.161zm1.723-1.103c-.021-.098-.057-.194-.09-.289-.038-.109-.121-.16-.238-.152l-.257.029c-.12.021-.182.1-.167.215l.141.999c.01.066.039.129.053.195.093.42.093.42.517.301.032-.009.061-.031.116-.061.015-.437.012-.84-.075-1.237zm1.036.906c-.079-.496-.072-1.006-.248-1.486-.005-.014-.024-.023-.049-.046l-.342.061c-.172.043-.217.12-.189.298l.199 1.246c.027.168.064.197.239.173.085-.012.17-.029.25-.056.088-.029.155-.097.14-.189zm.937-.252v-.127l-.242-1.217c-.024-.113-.124-.155-.242-.136-.051.008-.102.023-.152.034-.169.039-.212.084-.193.237l.11.752.083.5c.039.237.103.306.273.288.27-.028.361-.111.364-.332zm.521-1.469c-.058-.138-.114-.171-.284-.157-.16.013-.211.072-.191.334l.255 1.189c.04.178.116.213.303.155.066-.02.137-.039.192-.077.034-.024.07-.097.056-.125-.212-.416-.152-.896-.331-1.319zm.275-.108c.005.05.008.102.02.151l.271 1.082c.017.064.057.13.142.109.072-.018.111-.075.124-.147.003-.017.003-.033.008-.094-.081-.37-.086-.8-.274-1.19-.036-.074-.074-.164-.19-.119-.098.037-.11.12-.102.209zm-16.2-2.005c-.165-.06-.265.017-.362.125-.171.191-.354.374-.456.615-.026.061-.059.123-.101.175-.075.091-.244.112-.329.029a2.57 2.57 0 0 1-.338-.386c-.148-.217-.346-.378-.547-.542-.132-.107-.277-.129-.441-.104-.412.064-.481.127-.531.54-.018.151-.015.305-.023.457l-.022.355c-.04.262-.213.338-.447.2l-.62-.377c-.139-.091-.292-.107-.449-.105-.352.004-.512.194-.42.517l.292.868c.027.08.059.16.076.242.025.129-.068.241-.204.235-.366-.017-.731-.04-1.09-.118-.068-.015-.133-.045-.201-.05a.32.32 0 0 0-.15.038c-.237.113-.334.642-.135.801.215.171.429.344.681.469.169.084.32.204.47.319.092.07.101.172.057.277-.076.179-.182.328-.386.386l-.449.134c-.243.075-.264.158-.088.359.045.052.101.096.14.151.305.427.73.459 1.198.347l.759-.191c.153-.045.302-.111.438.019.157.151.071.319.005.474l-.36.79c-.053.111-.032.205.065.266l.716.419c.128.07.262.051.403.004.625-.213 1.254-.412 1.826-.748.181-.106.304-.027.299.177-.002.068-.007.136-.02.202s-.038.13-.057.196c-.075.266-.051.54-.062.81-.006.152.086.252.241.292l.707.183c.254.059.523.181.762.141s.444-.245.662-.382c.355-.223.742-.372 1.144-.491.21-.062.334-.011.398.198.069.227.115.461.166.693.014.066.012.135.017.203.015.193.119.316.311.36l.766.167c.179.041.349.079.418-.159.01-.035.078-.057.123-.077.445-.203.837-.483 1.217-.781l.378-.272c.163-.098.311-.053.379.124.154.399.372.766.591 1.132l.076.133c.058.096.145.138.26.139l.785.019c.27.022.47-.074.645-.265.29-.317.591-.624.928-.895.027-.021.048-.049.075-.071.176-.14.316-.122.421.079l.528.934c.159.243.356.351.649.329.191-.015.386-.02.575.003.481.058.773-.201 1.022-.543l.54-.749c.159-.197.318-.195.471-.002l.697.952a.63.63 0 0 0 .687.33c.258-.032.522-.018.783-.035.127-.008.234-.058.261-.204.029-.157.137-.284.241-.387.275-.271.479-.579.637-.924.087-.189.195-.201.374-.086.105.068.184.153.252.254.221.327.51.598.779.886.077.083.166.118.277.11.07-.005.14-.018.209-.014.324.019.537-.095.695-.395.165-.314.421-.58.539-.925.045-.131.155-.159.299-.115.209.063.36.201.502.353.177.189.363.367.603.481.062.03.119.063.197.036.247-.083.5-.153.724-.289.067-.041.084-.117.044-.178-.085-.128-.183-.248-.28-.367l-.207-.229c-.16-.219-.075-.421.196-.423.468-.003.938-.101 1.403.032.191.054.381-.001.57-.021.165-.018.219-.145.143-.3-.108-.219-.288-.382-.463-.547l-.314-.27c-.089-.086-.151-.192-.084-.318.055-.104.158-.132.267-.117.336.046.657-.018.974-.113.083-.025.162-.06.242-.093.14-.059.223-.161.227-.313l-.003-.305c-.016-.179-.076-.251-.256-.264-.277-.019-.553-.082-.833-.034-.068.012-.139.014-.208.011-.154-.007-.247-.131-.207-.281.162-.606.293-1.217.332-1.844.007-.113-.011-.199-.083-.278-.057-.064-.125-.118-.183-.182-.161-.18-.364-.196-.573-.121-.179.064-.348.156-.519.238-.078.037-.146.097-.227.12-.338.098-.465-.029-.463-.283.003-.43-.236-.813-.261-1.241-.007-.131-.113-.241-.238-.32-.485-.306-.741-.306-1.211.064-.231.182-.458.364-.721.501-.077.04-.147.091-.241.083s-.177-.036-.196-.134c-.025-.133-.054-.268-.05-.401.009-.296-.11-.563-.165-.845-.032-.165-.151-.216-.29-.252-.149-.039-.279-.01-.369.119l-.429.632c-.125.197-.125.202-.36.066-.015-.009-.028-.02-.041-.032-.081-.071-.165-.057-.227.014a5.2 5.2 0 0 1-.92.825c.469.093.823.175 1.155.324l.766.325c.464.176.84.481 1.22.776.465.361.754.859.921 1.395.199.638.028 1.25-.383 1.777a3.33 3.33 0 0 1-.88.789c-.335.207-.706.274-1.084.341-.619.111-1.243.163-1.869.199-.031.002-.065-.017-.095-.031-.013-.006-.03-.025-.028-.035.006-.03.015-.079.032-.083l.356-.063 1.857-.3c.279-.059.526-.165.749-.342.311-.248.611-.499.822-.843.38-.62.344-1.224-.028-1.828-.35-.569-.843-.992-1.429-1.314-.44-.242-.897-.451-1.383-.595l-.354-.091c-.321-.052-.483-.049-.355.346.11.338.161.693.242 1.039.031.131-.006.225-.119.307-.387.28-.841.404-1.29.536-.383.113-.773.199-1.169.268l-1.843.376c-.992.205-1.994.304-3.01.276-.749-.02-1.5.004-2.25-.018-.766-.023-1.534-.043-2.283-.234a.91.91 0 0 0-.154-.027c-.985-.074-1.907-.387-2.83-.7-.263-.089-.517-.199-.794-.255-.184-.038-.357-.123-.507-.253s-.191-.267-.118-.451l.408-1.099.048-.144c.023-.093-.034-.183-.124-.181-.471.007-.945.026-1.4.145s-1.116.894-1.185 1.339c-.015.1-.025.208-.001.304.111.447.262.868.608 1.214.849.848 1.88 1.389 3.021 1.758l1.688.543c.217.07.439.136.666.118.62-.05 1.215.1 1.809.224a9.46 9.46 0 0 0 1.241.165c.069.005.139.009.206.025.025.006.055.042.058.067s-.015.069-.037.081c-.044.024-.098.047-.146.045-.365-.014-.727-.002-1.091-.086-.608-.141-1.221-.274-1.855-.261-.297.006-.585-.059-.874-.136l-2.387-.749c-1.077-.398-2.015-1.002-2.76-1.871-.15-.176-.432-.845-.462-1.063-.055-.411.085-.769.31-1.103.076-.113.186-.206.252-.324.272-.485.733-.649 1.253-.715l.829-.087c.098-.012.147-.074.116-.181-.108-.366-.323-.674-.547-.978a.23.23 0 0 0-.177-.094c-.086-.006-.18.013-.257-.015zm-.76-.023c-.065-.155-.26-.122-.411-.132l-.122-.008c-.087 0-.139-.002-.191 0-.083.004-.133.077-.091.137l.278.367c.142.17.225.167.361-.016.08-.107.229-.221.176-.348zm-2.826.293c-.152-.061-.287.074-.411.166-.055.04-.116.073-.166.118-.043.039-.039.102.002.132l.548.374c.057.037.147-.015.15-.085l.001-.274c-.03-.134.078-.349-.125-.43zm-1.57 2.041l-.302-.701c-.033-.07-.116-.073-.18-.034-.246.151-.364.401-.5.636-.013.023.028.1.063.121.23.136.5.129.717.182.143.003.241-.106.202-.204zm-1.546 1.79l.075.362c.081.523.19.409.534.315l.296-.081c.119-.041.147-.165.053-.235l-.704-.508c-.058-.041-.142-.064-.192-.021-.042.037-.045.117-.061.167zm2.16 2.797c.094.075.196.053.268-.043a1.28 1.28 0 0 0 .13-.215l.136-.326c.061-.158.008-.231-.199-.206-.053.011-.162.014-.254.055-.184.081-.409.072-.556.236.056.258.295.354.475.499zm3.043 1.523c.164.055.263.007.307-.166.063-.243.071-.491.016-.763-.424.15-.847.236-1.277.508.333.214.644.317.954.421zm3.674.907c.148.041.304.055.383.068.293.015.351-.039.349-.253l-.002-.1c-.058-.559-.28-.673-.774-.396-.015.008-.032.014-.045.025-.181.149-.425.222-.553.434.16.221.423.162.641.222zm3.111.469c.013.035.074.073.117.076l1.551.084c.073.003.158-.051.128-.117l-.505-1.028c-.067.019-.106.02-.132.039l-1.113.82c-.032.024-.059.093-.047.126zm4.295.223l1.148.052c.05.002.104-.016.119-.073 0-.036.012-.076-.002-.101-.5-.881-.511-.889-1.167-.22l-.17.191c-.043.052.001.147.073.151zm4.455.093h.832c-.075-.319-.22-.504-.377-.681-.318-.359-.381-.327-.664.016-.042.051-.067.117-.101.175-.282.489-.282.489.31.489zm3.25-.203c.016.032.081.041.119.059l1.19-.167c.077-.012.12-.086.072-.151l-.502-.639c-.124-.139-.27-.115-.382.044l-.48.716c-.024.037-.035.102-.017.138zm3.459-.355l.953-.215c.026-.006.044-.047.066-.072-.006-.031-.002-.072-.02-.093l-.319-.329c-.262-.224-.362-.283-.51.085-.068.17-.181.322-.27.484-.029.053.042.151.1.138zm2.681-1.136c.034.057.082.111.136.149.036.025.108.041.141.023.25-.141.538-.228.75-.472-.253-.16-.509-.239-.79-.191-.168.029-.4-.112-.487.043-.109.195.159.297.249.448zm2.031-1.501l.141-.327c.085-.233.018-.306-.247-.26-.218.038-.425.124-.774.102l.569.565c.138.126.225.1.311-.08zm.221-2.448c-.122-.424-.29-.83-.513-1.213-.025-.044-.062-.094-.112-.071-.04.018-.082.072-.088.114-.046.317-.164.619-.169.945-.005.357-.023.358.31.409l.396.056c.154.012.227-.063.176-.24zm-1.923-2.621c0-.014-.016-.03-.029-.04-.293-.23-.6-.438-.941-.589-.073.091-.073.175-.05.257l.11.334c.132.496.021.571.672.296.078-.033.158-.07.222-.122.026-.021.014-.089.014-.136zm-2.796-1.514c-.301-.13-.615-.215-1.013-.275.087.322.035.595.138.851.029.073.087.106.161.074.287-.124.504-.345.747-.529.032-.024.03-.094-.033-.121zm-2.009-4.193c.042.065.088.098.139.077l.662-.291c.605-.274.545-.205.294-.813-.007-.016-.012-.033-.024-.045-.127-.128-.143-.348-.356-.404-.139.114-.163.288-.238.435l-.424.868c-.028.059-.038.125-.053.174zm-2.533.903c.55-.216 1.131-.329 1.694-.502.072-.022.122-.084.083-.156-.276-.512-.726-.853-1.215-1.154-.013-.008-.034-.006-.1-.016-.01.017-.046.056-.062.101l-.54 1.586c-.031.095.049.176.139.141zm-2.967.557c.434-.017.842-.082 1.246-.156.271-.05.538-.126.803-.201.143-.041.195-.167.122-.274-.26-.38-.571-.72-.884-1.058-.034-.036-.083-.06-.126-.088-.204-.136-.28-.111-.393.106l-.553 1.029a1.68 1.68 0 0 0-.215.641zm-3.009.254c.017.005.034.007.051.008l1.562.005c.22-.005.448-.021.643-.124.02-.09-.015-.147-.062-.198l-1.127-1.195a.43.43 0 0 0-.079-.065c-.083-.053-.166-.058-.222.032-.258.42-.584.798-.797 1.246-.022.046-.048.09-.059.139-.017.073.01.131.09.154zm-3.594-.259c.008.058.072.059.122.065l.827.09 1.371.132.235-.001c.136-.007.19-.088.126-.2-.067-.118-.135-.237-.219-.344l-.675-.835c-.097-.127-.225-.208-.353-.293-.082-.054-.162-.044-.234.024l-.222.213-.943 1.012c-.029.032-.041.092-.035.136zm-2.904-.452c.619.094 1.212.31 1.838.368l.143.017c.158.009.233-.067.17-.172-.289-.481-.551-.98-.94-1.398-.146-.157-.202-.156-.371.018l-.89.928c-.093.099-.065.221.049.238zm-3.344-.939c.344.204.725.323 1.102.447l1 .275c.082.021.17.038.254-.015.016-.164-.097-.282-.168-.411-.262-.478-.635-.883-.943-1.33-.126-.183-.279-.195-.434-.037l-.837.9c-.05.055-.048.127.026.171zm20.137-1.682c.076-.242.084-.504.157-.747.062-.205-.012-.319-.18-.416-.254-.145-.442-.374-.723-.494-.246-.104-.463-.12-.695.002l-.282.132c-.17.084-.254.219-.271.405-.029.321-.091.638-.083.963.004.185-.007.374-.123.538-.081.115-.228.142-.303.027-.221-.335-.558-.557-.839-.832-.096-.095-.216-.171-.335-.24-.316-.184-.724-.02-.82.28l-.233.779c-.032.114-.048.233-.075.349-.029.125-.1.217-.236.242-.119.022-.2-.043-.266-.127l-.313-.407-.2-.234c-.275-.299-.596-.389-.983-.213-.098.045-.18.088-.224.194l-.517 1.217c-.04.094-.074.192-.127.279-.07.116-.276.133-.363.027l-.338-.453-.195-.239c-.4-.475-.465-.497-1.069-.417-.19.025-.315.107-.407.274l-.663 1.153c-.017.029-.041.055-.062.082-.088.115-.239.125-.299.005-.193-.383-.478-.707-.707-1.066-.138-.216-.32-.34-.596-.343s-.556-.038-.835-.061c-.091-.007-.193-.004-.226.085-.085.229-.309.315-.471.464l-.339.317c-.15.139-.27.119-.366-.066l-.151-.323-.502-.889-1.009-.237c-.192-.055-.302.018-.393.155l-.472.73c-.076.117-.201.132-.309.042-.082-.068-.123-.155-.17-.248-.19-.38-.382-.759-.657-1.096-.093-.114-.176-.197-.316-.236-.117-.032-.238-.064-.342-.122-.269-.149-.471-.022-.654.143-.127.114-.228.256-.338.388-.055.066-.097.142-.156.203-.181.188-.328.172-.447-.052a2.9 2.9 0 0 1-.164-.374l-.335-.964a.8.8 0 0 0-.682-.46c-.047.002-.106.027-.137.06l-.402.467c-.057.071-.054.162-.035.245.027.116.059.231.1.342.037.103.127.13.257.091.31-.093.348-.076.461.189l.707 1.64c.075.172.157.188.321.094.185-.105.317-.263.454-.417l.516-.574c.33-.338.453-.319.713.061l1.265 1.808c.097.138.154.144.304.066.269-.138.455-.366.651-.58l.531-.627c.111-.13.247-.148.352-.021l.856 1.09c.133.178.234.377.353.564.132.208.214.225.406.041.433-.416.894-.806 1.218-1.319.103-.163.249-.176.393-.042.352.329.695.668.982 1.055l.247.328c.36.453.392.507.709.013.11-.172.253-.323.379-.486.191-.248.327-.517.375-.829.026-.172.172-.218.303-.104.287.248.556.516.79.812s.514.554.812.791c.094.075.219.055.259-.056.146-.404.422-.74.615-1.118.069-.135.11-.285.16-.429.022-.064.031-.132.053-.196.134-.392.35-.454.636-.166l.953 1.013c.024.025.04.056.063.081.15.169.286.164.415-.033.15-.23.241-.487.317-.749l.233-.781c.057-.175.232-.228.369-.096.407.393.953.636 1.278 1.117.009.014.023.025.036.037.117.115.215.114.294-.02l.694-1.309c.058-.141.129-.278.208-.409.072-.119.207-.129.309-.025.095.098.185.204.258.318l.429.72c.171-.274.169-.538.244-.777zm.245-1.626c.077-.275.113-.557.122-.841.003-.097-.09-.162-.169-.121l-.93.488c.269.235.559.376.821.554.058.039.134-.004.155-.08zm-3.526.801c.26.264.504.546.879.819l.102-1.095c.008-.091-.08-.175-.16-.151l-.78.258c-.068.025-.094.116-.041.169zm-2.426.697l.456.54c.054.06.142.04.166-.033l.187-.673c.028-.117-.052-.184-.255-.151l-.467.124c-.102.031-.142.123-.087.192zm-2.817.653c.132.306.322.523.536.721.059.055.14.043.177-.024.155-.282.287-.575.357-.889.019-.086-.067-.113-.138-.1-.306.057-.606.134-.932.291zm-2.956.362c.141.288.281.578.541.804.315-.261.434-.605.545-.981-.354-.075-.678-.036-1.001.022-.082.015-.116.091-.085.155zm-3.226-.401a2.3 2.3 0 0 0 .149.318c.065.11.092.314.242.283a.57.57 0 0 0 .421-.398c.018-.056-.017-.103-.061-.123-.218-.096-.443-.168-.65-.198-.088.028-.12.069-.1.119zm-3.007-.717c.048.108.097.218.164.314.082.118.106.339.286.312.174-.027.233-.229.3-.382.029-.066.014-.141-.055-.177a2 2 0 0 0-.624-.196c-.074.031-.093.08-.071.128zm-2.9-1.158c.006.215.061.389.132.554.068.159.022.436.236.447.177.008.254-.247.37-.389.031-.039.062-.086.069-.133s-.007-.117-.035-.131c-.239-.119-.463-.276-.771-.348zm21.033-2.813l-.132-1.316c-.045-.508-.291-.924-.655-1.254a.14.14 0 0 1-.036-.022 1.18 1.18 0 0 1-.087-.085l-.144-.11c-.195-.136-.437-.248-.703-.246.053.108.137.187.263.197.152.012.241.12.359.185.298.165.329.412.264.694-.091.396-.316.714-.641.96-.276.209-.587.365-.914.481l-2.027.66c-.184.049-.364.116-.543.181-.637.231-1.284.418-1.96.517l-1.745.315-3.048.419c-.086.011-.175.026-.259.016-.659-.083-1.322-.027-1.983-.059-1.411-.07-2.805-.263-4.179-.583-.168-.039-.338-.09-.493-.163l-1.794-.932-.571-.358c-.533-.291-1.01-.658-1.488-1.025-.223-.171-.353-.489-.359-.841-.085.023-.151.051-.159.13-.035.354-.1.709-.09 1.063l.125 2.285a.62.62 0 0 0 .407.592l1.552.726.466.225c.275.146.56.267.862.362l1.588.507 2.588.618c.429.06.844.209 1.266.315.716.179 1.445.211 2.18.19l1.822-.083a7.13 7.13 0 0 0 1.343-.192l1.264-.318 2.569-.683c.79-.209 1.564-.464 2.322-.765.032-.012.056-.05.087-.055.574-.087 1.006-.436 1.473-.73l.945-.541c.181-.116.265-.257.264-.461l.001-.814zm-2.227-3.209l.434.153c-.099-.166-.246-.213-.434-.153zm-18.118 2.739c.14.1.283.2.437.276l1.504.715c.318.142.661.218 1.005.279 1.271.225 2.55.398 3.843.418.905.014 1.816.089 2.714-.085l3.818-.601a17.23 17.23 0 0 0 2.306-.646l1.736-.568.731-.276c.311-.128.578-.314.763-.597.066-.101.044-.191-.056-.263-.144-.103-.316-.141-.481-.195-.964-.314-1.961-.476-2.963-.617-1.846-.26-2.54-.312-4.107-.327-1.388.001-2.451-.012-3.512.099-.765.08-1.508.272-2.262.404-1.272.223-2.51.573-3.751.912-.623.17-1.181.499-1.735.822-.104.06-.1.172.009.25zm18.102-2.872c-.038-.053-.098-.099-.159-.126l-.837-.379-2.218-.393c-.161-.021-.174-.257 0-.255l.554.024-.562-.136-.071-.011c-.009-.001-.015-.006-.023-.009l-1.043-.173c-.129-.018-.267-.018-.404-.08-2.351-.3-4.726-.601-7.08-.423-1.545.117-3.055.464-4.535.899l-2.241.715-.69.215c-.224.139-.441.29-.649.46-.252.207-.263.455-.271.724-.002.056.114.111.157.077.095-.074.196-.144.279-.23.304-.312.664-.542 1.052-.743.323-.167.627-.369.968-.502a.93.93 0 0 1 .199-.053c.022-.003.053.027.074.047.006.006-.002.038-.014.046-.083.06-.163.126-.254.173-.51.262-.992.565-1.45.907-.223.167-.411.367-.598.567-.134.144-.127.232-.002.35.117.11.203.114.362-.026a6.1 6.1 0 0 1 .752-.546c.603-.387 1.266-.625 1.95-.819.081.101-.012.132-.059.155l-.571.252c-.608.264-1.168.602-1.68 1.016a1.78 1.78 0 0 0-.188.176c-.064.069-.087.147-.005.221.057.052.125.061.191.02l1.051-.664.447-.259c.044-.024.108-.002.13.048.01.023-.007.075-.029.092l-.865.655-.362.291c-.04.034-.063.083-.032.133s.079.044.131.02l1.127-.519c.639-.325 1.301-.571 2.02-.662.189-.024.373-.087.556-.143.883-.274 1.8-.396 2.701-.589l.661-.143c1.2-.251 2.42-.285 3.64-.303l1.935.062a6.48 6.48 0 0 0 .732.036c.561-.007 1.113.065 1.665.149.136.021.269.067.342-.12.037-.094.154-.049.236-.036l1.856.304 1.286.229c.065.011.135.002.2.002.023-.134-.081-.157-.147-.194-.699-.392-1.451-.656-2.228-.861-.192-.051-.42-.049-.576-.246.067-.017.118-.046.16-.037.831.179 1.653.387 2.427.744.002-.043.019-.098-.002-.127zm-20.162 7.608c.019.099.052.195.078.292.121.465.121.464.552.7.058.032.104.087.186.047.048-.175-.057-.324-.114-.477l-.364-.834c-.028-.062-.086-.109-.165-.092-.091.019-.156.079-.176.164a.49.49 0 0 0 .004.199zm-.322-1.956c.091-.037.127-.111.09-.197-.013-.031-.102-.064-.128-.049-.088.051-.067.137-.041.219.015.046.036.057.079.028zm-.107 1.641c-.038-.373-.179-.704-.429-1.015-.305-.38-.642-.708-1.048-.98-.356-.239-.751-.364-1.172-.394-.444-.032-.797.123-1.071.498-.342.467-.315.923-.053 1.385.238.419.54.807.959 1.061.931.564 1.871 1.122 2.924 1.457l.3.092c.03.008.065.001.173.001l-.309-.97c-.124-.372-.234-.743-.274-1.137zm-.607-2.318c-.164-.124-.317-.263-.472-.399-.019-.017-.031-.077-.019-.087.035-.03.095-.072.124-.06.139.059.271.133.403.201.059-.075.047-.145.008-.201-.127-.184-.27-.353-.488-.447-.061-.026-.114-.075-.161-.122-.019-.019-.021-.063-.017-.094.007-.055.046-.087.101-.102.147-.04.258.085.402.084.072-.098-.018-.152-.068-.205-.058-.061-.131-.11-.202-.158a4.26 4.26 0 0 0-1.682-.663c-.844-.149-1.544.129-2.119.724-.154.16-.286.342-.41.526-.234.347-.342.729-.364 1.149-.075 1.394.452 2.581 1.29 3.665.32.414.752.707 1.206.96.942.526 1.945.899 3.026 1.06.239.036.471.111.707.167.057-.096.094-.195.163-.263.078-.076.156-.139.112-.257-.04-.106-.135-.152-.238-.18l-.455-.108c-.146-.035-.161-.096-.066-.263.015-.027.035-.052.065-.096-.211-.151-.447-.253-.689-.346-.826-.321-1.588-.769-2.379-1.157-.21-.103-.383-.289-.555-.455-.185-.179-.344-.383-.523-.568-.274-.283-.401-.634-.472-1.001-.078-.406.07-.77.318-1.091.334-.433.769-.664 1.345-.641.536.021 1.027.139 1.461.46.259.192.543.35.804.635.07-.317.051-.513-.158-.671zm2.058 6.818c-.05-.091-.118-.167-.226-.2l-1.488-.46c-.888-.187-1.745-.46-2.558-.862-.346-.171-.64-.408-.961-.61-.267-.168-.491-.371-.7-.604-.609-.678-.997-1.465-1.273-2.316-.177-.545-.194-1.095-.169-1.659.033-.756.358-1.378.884-1.898.541-.535 1.183-.87 1.998-.847.756.022 1.43.251 2.065.626.088.052.173.14.282.099.125-.047.079-.173.081-.266l.002-.815-.007-.76c-.005-.051-.005-.098-.002-.144.063-.077.113-.165.147-.261.009-.025.021-.048.032-.072-.017-.044-.016-.095.013-.147.567-1.039 2.239-1.286 3.277-1.621 1.669-.539 3.373-1.02 5.119-1.254 2.94-.393 6.15-.076 9.072.604.568.049 1.13.162 1.674.331.463.108.917.251 1.359.423l.416.161c.941.235 1.941 1.011 2.292 1.855.178.245.297.521.277.855-.005.082.028.167.041.25.125.824.206 1.651.122 2.484l-.186 1.615c-.14.957-.318 1.908-.607 2.834-.254.815-.588 1.595-1.139 2.274l-.577.785c-.131.181-.099.285.099.339l2.158.608c.475.156.947.35 1.374.602.549.323 1.069.7 1.569 1.092s.953.853 1.271 1.407c.255.444.452.919.585 1.413.103.379.161.77.084 1.16-.133.672-.346 1.315-.795 1.861-.173.211-.302.457-.535.621-.596.421-1.234.773-1.917 1.032-.864.328-1.77.515-2.689.635l-2.595.312c-.778.095-1.554.185-2.343.163l-2.669-.003c-.907.001-1.813-.009-2.719-.063-.311-.019-.625-.084-.931.043-.044.018-.108.02-.152.002-.42-.169-.862-.084-1.293-.107l-2.972-.228-2.876-.535-2.386-.563c-.51-.12-1.01-.265-1.478-.501-.139-.07-.286-.132-.437-.17-.688-.173-1.295-.511-1.85-.92-.582-.429-1.123-.913-1.677-1.378-.592-.497-.84-1.152-.881-1.891-.013-.236-.03-.482.022-.709.072-.312.176-.626.323-.912.257-.5.54-.987 1.049-1.306l1.153-.792c1.169-.838 2.51-.937 3.891-.865.213.011.474.218.623-.007.114-.172-.119-.365-.186-.553-.023-.064-.046-.129-.078-.188z"/></mask><path d="M15.229 44.482c.049.108.11.212.172.314l.884 1.439a4.26 4.26 0 0 0 .373.483c.106.124.266.149.421.183.562.124 1.133.192 1.704.259.207.024.418.07.623.056.29-.019.535.121.807.162.113.017.167.121.168.23.001.084-.025.167-.03.251l-.082 1.423c-.004.08-.003.171.102.211.116.045.238.013.32-.083.137-.161.228-.339.245-.55l.103-1.216c.021-.269.084-.4.183-.355.17.078.107.238.097.357l-.174 1.669c-.027.223-.017.251.234.274l.504.032c.024-.144.026-.247.058-.34.138-.394.151-.798.133-1.207l-.003-.507c.006-.088.077-.149.179-.15.082-.001.169.082.157.167-.097.653-.032 1.319-.177 1.999.19.084.399.062.601.064.077.001.109-.057.116-.137.049-.589.155-1.176.078-1.77a.23.23 0 0 1 .026-.147c.025-.038.08-.07.126-.077s.11.014.119.073c.018.116.038.234.038.351l-.02 1.476c-.001.172.035.205.207.226l.208.016c.193.005.223-.021.244-.235.013-.134.055-.265.02-.403-.046-.185-.03-.369.016-.554.05-.202.007-.405-.002-.608-.009-.19.047-.255.223-.276a.98.98 0 0 1 .157-.009c.932.043 1.838-.137 2.749-.286l.675-.083a5.62 5.62 0 0 0 1.171-.258 8.16 8.16 0 0 1 1.316-.313c.433-.067.815-.239 1.184-.495.537-.372.942-.853 1.346-1.337l1.272-1.678c.387-.546.692-1.137.903-1.771.021-.063.035-.131.037-.197.001-.052-.035-.096-.097-.093-.051.002-.109.004-.151.028-.286.162-.618.222-.9.402-.169.108-.387.148-.586.207l-3.722.994-2.572.444c-.256.041-.522.052-.782.038-.698-.038-1.395-.008-2.093.005-.139.003-.28.01-.418-.005l-2.86-.305c-.415-.049-.826-.133-1.235-.216l-2.352-.49c-.527-.114-1.05-.239-1.542-.469-.328-.154-.663-.296-1.025-.373-.166-.035-.315-.139-.475-.205-.075-.031-.159-.094-.237-.014-.055.056-.021.128-.007.192.012.05.029.098.044.146.325 1.04.754 2.042 1.199 3.038zm3.065 4.622c.065.025.13.051.197.066.09.02.181.01.221-.084.191-.455.371-.914.347-1.418a.2.2 0 0 0-.189-.206l-.207-.03c-.171-.005-.242.042-.275.162l-.316 1.074c-.092.312-.092.313.222.435zm-1.433-1.926c-.095-.04-.195-.069-.295-.099-.251-.075-.287-.058-.373.19l-.154.483c-.125.392-.12.401.309.614l.475-.655c.064-.096.092-.217.131-.328.033-.094-.004-.168-.094-.205zm-.012 1.119c-.075.152-.039.253.12.331a2.86 2.86 0 0 0 .383.152c.162.053.203.034.296-.108.228-.345.373-.719.408-1.054.015-.17-.024-.245-.122-.263-.565-.1-.508-.188-.757.311l-.328.63zm3.19-.4c.002-.111-.06-.222-.09-.323-.509-.066-.535-.081-.607.431-.035.25-.108.494-.159.742l-.064.397c-.006.069.031.13.11.149.05.012.102.018.153.028.439.085.541.039.598-.365.049-.349.054-.706.059-1.059zm4.281 1.526c-.04.18-.009.219.159.237a2.59 2.59 0 0 0 .413.014c.177-.009.213-.043.224-.21.01-.151.002-.303.002-.454.013-.323-.045-.638-.144-.944-.066-.205-.362-.307-.557-.206-.087.045-.116.126-.119.211-.011.319-.06.641.017.956.034.137.035.26.005.396zm1.784-.915c.01-.19-.032-.367-.063-.548-.028-.163-.124-.219-.3-.197-.085.011-.171.028-.253.052-.136.039-.212.126-.18.263.118.504.058 1.034.249 1.551a1.24 1.24 0 0 0 .541-.065l.005-1.055zm.33.529c.035.156-.03.299-.044.497l.358-.017c.625-.053.547-.189.53-.596-.015-.353-.094-.703-.156-1.053-.031-.177-.097-.217-.292-.213a1.59 1.59 0 0 0-.309.035c-.092.02-.148.086-.136.185.047.386-.036.778.049 1.161zm1.723-1.103c-.021-.098-.057-.194-.09-.289-.038-.109-.121-.16-.238-.152l-.257.029c-.12.021-.182.1-.167.215l.141.999c.01.066.039.129.053.195.093.42.093.42.517.301.032-.009.061-.031.116-.061.015-.437.012-.84-.075-1.237zm1.036.906c-.079-.496-.072-1.006-.248-1.486-.005-.014-.024-.023-.049-.046l-.342.061c-.172.043-.217.12-.189.298l.199 1.246c.027.168.064.197.239.173.085-.012.17-.029.25-.056.088-.029.155-.097.14-.189zm.937-.252v-.127l-.242-1.217c-.024-.113-.124-.155-.242-.136-.051.008-.102.023-.152.034-.169.039-.212.084-.193.237l.11.752.083.5c.039.237.103.306.273.288.27-.028.361-.111.364-.332zm.521-1.469c-.058-.138-.114-.171-.284-.157-.16.013-.211.072-.191.334l.255 1.189c.04.178.116.213.303.155.066-.02.137-.039.192-.077.034-.024.07-.097.056-.125-.212-.416-.152-.896-.331-1.319zm.275-.108c.005.05.008.102.02.151l.271 1.082c.017.064.057.13.142.109.072-.018.111-.075.124-.147.003-.017.003-.033.008-.094-.081-.37-.086-.8-.274-1.19-.036-.074-.074-.164-.19-.119-.098.037-.11.12-.102.209zm-16.2-2.005c-.165-.06-.265.017-.362.125-.171.191-.354.374-.456.615-.026.061-.059.123-.101.175-.075.091-.244.112-.329.029a2.57 2.57 0 0 1-.338-.386c-.148-.217-.346-.378-.547-.542-.132-.107-.277-.129-.441-.104-.412.064-.481.127-.531.54-.018.151-.015.305-.023.457l-.022.355c-.04.262-.213.338-.447.2l-.62-.377c-.139-.091-.292-.107-.449-.105-.352.004-.512.194-.42.517l.292.868c.027.08.059.16.076.242.025.129-.068.241-.204.235-.366-.017-.731-.04-1.09-.118-.068-.015-.133-.045-.201-.05a.32.32 0 0 0-.15.038c-.237.113-.334.642-.135.801.215.171.429.344.681.469.169.084.32.204.47.319.092.07.101.172.057.277-.076.179-.182.328-.386.386l-.449.134c-.243.075-.264.158-.088.359.045.052.101.096.14.151.305.427.73.459 1.198.347l.759-.191c.153-.045.302-.111.438.019.157.151.071.319.005.474l-.36.79c-.053.111-.032.205.065.266l.716.419c.128.07.262.051.403.004.625-.213 1.254-.412 1.826-.748.181-.106.304-.027.299.177-.002.068-.007.136-.02.202s-.038.13-.057.196c-.075.266-.051.54-.062.81-.006.152.086.252.241.292l.707.183c.254.059.523.181.762.141s.444-.245.662-.382c.355-.223.742-.372 1.144-.491.21-.062.334-.011.398.198.069.227.115.461.166.693.014.066.012.135.017.203.015.193.119.316.311.36l.766.167c.179.041.349.079.418-.159.01-.035.078-.057.123-.077.445-.203.837-.483 1.217-.781l.378-.272c.163-.098.311-.053.379.124.154.399.372.766.591 1.132l.076.133c.058.096.145.138.26.139l.785.019c.27.022.47-.074.645-.265.29-.317.591-.624.928-.895.027-.021.048-.049.075-.071.176-.14.316-.122.421.079l.528.934c.159.243.356.351.649.329.191-.015.386-.02.575.003.481.058.773-.201 1.022-.543l.54-.749c.159-.197.318-.195.471-.002l.697.952a.63.63 0 0 0 .687.33c.258-.032.522-.018.783-.035.127-.008.234-.058.261-.204.029-.157.137-.284.241-.387.275-.271.479-.579.637-.924.087-.189.195-.201.374-.086.105.068.184.153.252.254.221.327.51.598.779.886.077.083.166.118.277.11.07-.005.14-.018.209-.014.324.019.537-.095.695-.395.165-.314.421-.58.539-.925.045-.131.155-.159.299-.115.209.063.36.201.502.353.177.189.363.367.603.481.062.03.119.063.197.036.247-.083.5-.153.724-.289.067-.041.084-.117.044-.178-.085-.128-.183-.248-.28-.367l-.207-.229c-.16-.219-.075-.421.196-.423.468-.003.938-.101 1.403.032.191.054.381-.001.57-.021.165-.018.219-.145.143-.3-.108-.219-.288-.382-.463-.547l-.314-.27c-.089-.086-.151-.192-.084-.318.055-.104.158-.132.267-.117.336.046.657-.018.974-.113.083-.025.162-.06.242-.093.14-.059.223-.161.227-.313l-.003-.305c-.016-.179-.076-.251-.256-.264-.277-.019-.553-.082-.833-.034-.068.012-.139.014-.208.011-.154-.007-.247-.131-.207-.281.162-.606.293-1.217.332-1.844.007-.113-.011-.199-.083-.278-.057-.064-.125-.118-.183-.182-.161-.18-.364-.196-.573-.121-.179.064-.348.156-.519.238-.078.037-.146.097-.227.12-.338.098-.465-.029-.463-.283.003-.43-.236-.813-.261-1.241-.007-.131-.113-.241-.238-.32-.485-.306-.741-.306-1.211.064-.231.182-.458.364-.721.501-.077.04-.147.091-.241.083s-.177-.036-.196-.134c-.025-.133-.054-.268-.05-.401.009-.296-.11-.563-.165-.845-.032-.165-.151-.216-.29-.252-.149-.039-.279-.01-.369.119l-.429.632c-.125.197-.125.202-.36.066-.015-.009-.028-.02-.041-.032-.081-.071-.165-.057-.227.014a5.2 5.2 0 0 1-.92.825c.469.093.823.175 1.155.324l.766.325c.464.176.84.481 1.22.776.465.361.754.859.921 1.395.199.638.028 1.25-.383 1.777a3.33 3.33 0 0 1-.88.789c-.335.207-.706.274-1.084.341-.619.111-1.243.163-1.869.199-.031.002-.065-.017-.095-.031-.013-.006-.03-.025-.028-.035.006-.03.015-.079.032-.083l.356-.063 1.857-.3c.279-.059.526-.165.749-.342.311-.248.611-.499.822-.843.38-.62.344-1.224-.028-1.828-.35-.569-.843-.992-1.429-1.314-.44-.242-.897-.451-1.383-.595l-.354-.091c-.321-.052-.483-.049-.355.346.11.338.161.693.242 1.039.031.131-.006.225-.119.307-.387.28-.841.404-1.29.536-.383.113-.773.199-1.169.268l-1.843.376c-.992.205-1.994.304-3.01.276-.749-.02-1.5.004-2.25-.018-.766-.023-1.534-.043-2.283-.234a.91.91 0 0 0-.154-.027c-.985-.074-1.907-.387-2.83-.7-.263-.089-.517-.199-.794-.255-.184-.038-.357-.123-.507-.253s-.191-.267-.118-.451l.408-1.099.048-.144c.023-.093-.034-.183-.124-.181-.471.007-.945.026-1.4.145s-1.116.894-1.185 1.339c-.015.1-.025.208-.001.304.111.447.262.868.608 1.214.849.848 1.88 1.389 3.021 1.758l1.688.543c.217.07.439.136.666.118.62-.05 1.215.1 1.809.224a9.46 9.46 0 0 0 1.241.165c.069.005.139.009.206.025.025.006.055.042.058.067s-.015.069-.037.081c-.044.024-.098.047-.146.045-.365-.014-.727-.002-1.091-.086-.608-.141-1.221-.274-1.855-.261-.297.006-.585-.059-.874-.136l-2.387-.749c-1.077-.398-2.015-1.002-2.76-1.871-.15-.176-.432-.845-.462-1.063-.055-.411.085-.769.31-1.103.076-.113.186-.206.252-.324.272-.485.733-.649 1.253-.715l.829-.087c.098-.012.147-.074.116-.181-.108-.366-.323-.674-.547-.978a.23.23 0 0 0-.177-.094c-.086-.006-.18.013-.257-.015zm-.76-.023c-.065-.155-.26-.122-.411-.132l-.122-.008c-.087 0-.139-.002-.191 0-.083.004-.133.077-.091.137l.278.367c.142.17.225.167.361-.016.08-.107.229-.221.176-.348zm-2.826.293c-.152-.061-.287.074-.411.166-.055.04-.116.073-.166.118-.043.039-.039.102.002.132l.548.374c.057.037.147-.015.15-.085l.001-.274c-.03-.134.078-.349-.125-.43zm-1.57 2.041l-.302-.701c-.033-.07-.116-.073-.18-.034-.246.151-.364.401-.5.636-.013.023.028.1.063.121.23.136.5.129.717.182.143.003.241-.106.202-.204zm-1.546 1.79l.075.362c.081.523.19.409.534.315l.296-.081c.119-.041.147-.165.053-.235l-.704-.508c-.058-.041-.142-.064-.192-.021-.042.037-.045.117-.061.167zm2.16 2.797c.094.075.196.053.268-.043a1.28 1.28 0 0 0 .13-.215l.136-.326c.061-.158.008-.231-.199-.206-.053.011-.162.014-.254.055-.184.081-.409.072-.556.236.056.258.295.354.475.499zm3.043 1.523c.164.055.263.007.307-.166.063-.243.071-.491.016-.763-.424.15-.847.236-1.277.508.333.214.644.317.954.421zm3.674.907c.148.041.304.055.383.068.293.015.351-.039.349-.253l-.002-.1c-.058-.559-.28-.673-.774-.396-.015.008-.032.014-.045.025-.181.149-.425.222-.553.434.16.221.423.162.641.222zm3.111.469c.013.035.074.073.117.076l1.551.084c.073.003.158-.051.128-.117l-.505-1.028c-.067.019-.106.02-.132.039l-1.113.82c-.032.024-.059.093-.047.126zm4.295.223l1.148.052c.05.002.104-.016.119-.073 0-.036.012-.076-.002-.101-.5-.881-.511-.889-1.167-.22l-.17.191c-.043.052.001.147.073.151zm4.455.093h.832c-.075-.319-.22-.504-.377-.681-.318-.359-.381-.327-.664.016-.042.051-.067.117-.101.175-.282.489-.282.489.31.489zm3.25-.203c.016.032.081.041.119.059l1.19-.167c.077-.012.12-.086.072-.151l-.502-.639c-.124-.139-.27-.115-.382.044l-.48.716c-.024.037-.035.102-.017.138zm3.459-.355l.953-.215c.026-.006.044-.047.066-.072-.006-.031-.002-.072-.02-.093l-.319-.329c-.262-.224-.362-.283-.51.085-.068.17-.181.322-.27.484-.029.053.042.151.1.138zm2.681-1.136c.034.057.082.111.136.149.036.025.108.041.141.023.25-.141.538-.228.75-.472-.253-.16-.509-.239-.79-.191-.168.029-.4-.112-.487.043-.109.195.159.297.249.448zm2.031-1.501l.141-.327c.085-.233.018-.306-.247-.26-.218.038-.425.124-.774.102l.569.565c.138.126.225.1.311-.08zm.221-2.448c-.122-.424-.29-.83-.513-1.213-.025-.044-.062-.094-.112-.071-.04.018-.082.072-.088.114-.046.317-.164.619-.169.945-.005.357-.023.358.31.409l.396.056c.154.012.227-.063.176-.24zm-1.923-2.621c0-.014-.016-.03-.029-.04-.293-.23-.6-.438-.941-.589-.073.091-.073.175-.05.257l.11.334c.132.496.021.571.672.296.078-.033.158-.07.222-.122.026-.021.014-.089.014-.136zm-2.796-1.514c-.301-.13-.615-.215-1.013-.275.087.322.035.595.138.851.029.073.087.106.161.074.287-.124.504-.345.747-.529.032-.024.03-.094-.033-.121zm-2.009-4.193c.042.065.088.098.139.077l.662-.291c.605-.274.545-.205.294-.813-.007-.016-.012-.033-.024-.045-.127-.128-.143-.348-.356-.404-.139.114-.163.288-.238.435l-.424.868c-.028.059-.038.125-.053.174zm-2.533.903c.55-.216 1.131-.329 1.694-.502.072-.022.122-.084.083-.156-.276-.512-.726-.853-1.215-1.154-.013-.008-.034-.006-.1-.016-.01.017-.046.056-.062.101l-.54 1.586c-.031.095.049.176.139.141zm-2.967.557c.434-.017.842-.082 1.246-.156.271-.05.538-.126.803-.201.143-.041.195-.167.122-.274-.26-.38-.571-.72-.884-1.058-.034-.036-.083-.06-.126-.088-.204-.136-.28-.111-.393.106l-.553 1.029a1.68 1.68 0 0 0-.215.641zm-3.009.254c.017.005.034.007.051.008l1.562.005c.22-.005.448-.021.643-.124.02-.09-.015-.147-.062-.198l-1.127-1.195a.43.43 0 0 0-.079-.065c-.083-.053-.166-.058-.222.032-.258.42-.584.798-.797 1.246-.022.046-.048.09-.059.139-.017.073.01.131.09.154zm-3.594-.259c.008.058.072.059.122.065l.827.09 1.371.132.235-.001c.136-.007.19-.088.126-.2-.067-.118-.135-.237-.219-.344l-.675-.835c-.097-.127-.225-.208-.353-.293-.082-.054-.162-.044-.234.024l-.222.213-.943 1.012c-.029.032-.041.092-.035.136zm-2.904-.452c.619.094 1.212.31 1.838.368l.143.017c.158.009.233-.067.17-.172-.289-.481-.551-.98-.94-1.398-.146-.157-.202-.156-.371.018l-.89.928c-.093.099-.065.221.049.238zm-3.344-.939c.344.204.725.323 1.102.447l1 .275c.082.021.17.038.254-.015.016-.164-.097-.282-.168-.411-.262-.478-.635-.883-.943-1.33-.126-.183-.279-.195-.434-.037l-.837.9c-.05.055-.048.127.026.171zm20.137-1.682c.076-.242.084-.504.157-.747.062-.205-.012-.319-.18-.416-.254-.145-.442-.374-.723-.494-.246-.104-.463-.12-.695.002l-.282.132c-.17.084-.254.219-.271.405-.029.321-.091.638-.083.963.004.185-.007.374-.123.538-.081.115-.228.142-.303.027-.221-.335-.558-.557-.839-.832-.096-.095-.216-.171-.335-.24-.316-.184-.724-.02-.82.28l-.233.779c-.032.114-.048.233-.075.349-.029.125-.1.217-.236.242-.119.022-.2-.043-.266-.127l-.313-.407-.2-.234c-.275-.299-.596-.389-.983-.213-.098.045-.18.088-.224.194l-.517 1.217c-.04.094-.074.192-.127.279-.07.116-.276.133-.363.027l-.338-.453-.195-.239c-.4-.475-.465-.497-1.069-.417-.19.025-.315.107-.407.274l-.663 1.153c-.017.029-.041.055-.062.082-.088.115-.239.125-.299.005-.193-.383-.478-.707-.707-1.066-.138-.216-.32-.34-.596-.343s-.556-.038-.835-.061c-.091-.007-.193-.004-.226.085-.085.229-.309.315-.471.464l-.339.317c-.15.139-.27.119-.366-.066l-.151-.323-.502-.889-1.009-.237c-.192-.055-.302.018-.393.155l-.472.73c-.076.117-.201.132-.309.042-.082-.068-.123-.155-.17-.248-.19-.38-.382-.759-.657-1.096-.093-.114-.176-.197-.316-.236-.117-.032-.238-.064-.342-.122-.269-.149-.471-.022-.654.143-.127.114-.228.256-.338.388-.055.066-.097.142-.156.203-.181.188-.328.172-.447-.052a2.9 2.9 0 0 1-.164-.374l-.335-.964a.8.8 0 0 0-.682-.46c-.047.002-.106.027-.137.06l-.402.467c-.057.071-.054.162-.035.245.027.116.059.231.1.342.037.103.127.13.257.091.31-.093.348-.076.461.189l.707 1.64c.075.172.157.188.321.094.185-.105.317-.263.454-.417l.516-.574c.33-.338.453-.319.713.061l1.265 1.808c.097.138.154.144.304.066.269-.138.455-.366.651-.58l.531-.627c.111-.13.247-.148.352-.021l.856 1.09c.133.178.234.377.353.564.132.208.214.225.406.041.433-.416.894-.806 1.218-1.319.103-.163.249-.176.393-.042.352.329.695.668.982 1.055l.247.328c.36.453.392.507.709.013.11-.172.253-.323.379-.486.191-.248.327-.517.375-.829.026-.172.172-.218.303-.104.287.248.556.516.79.812s.514.554.812.791c.094.075.219.055.259-.056.146-.404.422-.74.615-1.118.069-.135.11-.285.16-.429.022-.064.031-.132.053-.196.134-.392.35-.454.636-.166l.953 1.013c.024.025.04.056.063.081.15.169.286.164.415-.033.15-.23.241-.487.317-.749l.233-.781c.057-.175.232-.228.369-.096.407.393.953.636 1.278 1.117.009.014.023.025.036.037.117.115.215.114.294-.02l.694-1.309c.058-.141.129-.278.208-.409.072-.119.207-.129.309-.025.095.098.185.204.258.318l.429.72c.171-.274.169-.538.244-.777zm.245-1.626c.077-.275.113-.557.122-.841.003-.097-.09-.162-.169-.121l-.93.488c.269.235.559.376.821.554.058.039.134-.004.155-.08zm-3.526.801c.26.264.504.546.879.819l.102-1.095c.008-.091-.08-.175-.16-.151l-.78.258c-.068.025-.094.116-.041.169zm-2.426.697l.456.54c.054.06.142.04.166-.033l.187-.673c.028-.117-.052-.184-.255-.151l-.467.124c-.102.031-.142.123-.087.192zm-2.817.653c.132.306.322.523.536.721.059.055.14.043.177-.024.155-.282.287-.575.357-.889.019-.086-.067-.113-.138-.1-.306.057-.606.134-.932.291zm-2.956.362c.141.288.281.578.541.804.315-.261.434-.605.545-.981-.354-.075-.678-.036-1.001.022-.082.015-.116.091-.085.155zm-3.226-.401a2.3 2.3 0 0 0 .149.318c.065.11.092.314.242.283a.57.57 0 0 0 .421-.398c.018-.056-.017-.103-.061-.123-.218-.096-.443-.168-.65-.198-.088.028-.12.069-.1.119zm-3.007-.717c.048.108.097.218.164.314.082.118.106.339.286.312.174-.027.233-.229.3-.382.029-.066.014-.141-.055-.177a2 2 0 0 0-.624-.196c-.074.031-.093.08-.071.128zm-2.9-1.158c.006.215.061.389.132.554.068.159.022.436.236.447.177.008.254-.247.37-.389.031-.039.062-.086.069-.133s-.007-.117-.035-.131c-.239-.119-.463-.276-.771-.348zm21.033-2.813l-.132-1.316c-.045-.508-.291-.924-.655-1.254a.14.14 0 0 1-.036-.022 1.18 1.18 0 0 1-.087-.085l-.144-.11c-.195-.136-.437-.248-.703-.246.053.108.137.187.263.197.152.012.241.12.359.185.298.165.329.412.264.694-.091.396-.316.714-.641.96-.276.209-.587.365-.914.481l-2.027.66c-.184.049-.364.116-.543.181-.637.231-1.284.418-1.96.517l-1.745.315-3.048.419c-.086.011-.175.026-.259.016-.659-.083-1.322-.027-1.983-.059-1.411-.07-2.805-.263-4.179-.583-.168-.039-.338-.09-.493-.163l-1.794-.932-.571-.358c-.533-.291-1.01-.658-1.488-1.025-.223-.171-.353-.489-.359-.841-.085.023-.151.051-.159.13-.035.354-.1.709-.09 1.063l.125 2.285a.62.62 0 0 0 .407.592l1.552.726.466.225c.275.146.56.267.862.362l1.588.507 2.588.618c.429.06.844.209 1.266.315.716.179 1.445.211 2.18.19l1.822-.083a7.13 7.13 0 0 0 1.343-.192l1.264-.318 2.569-.683c.79-.209 1.564-.464 2.322-.765.032-.012.056-.05.087-.055.574-.087 1.006-.436 1.473-.73l.945-.541c.181-.116.265-.257.264-.461l.001-.814zm-2.227-3.209l.434.153c-.099-.166-.246-.213-.434-.153zm-18.118 2.739c.14.1.283.2.437.276l1.504.715c.318.142.661.218 1.005.279 1.271.225 2.55.398 3.843.418.905.014 1.816.089 2.714-.085l3.818-.601a17.23 17.23 0 0 0 2.306-.646l1.736-.568.731-.276c.311-.128.578-.314.763-.597.066-.101.044-.191-.056-.263-.144-.103-.316-.141-.481-.195-.964-.314-1.961-.476-2.963-.617-1.846-.26-2.54-.312-4.107-.327-1.388.001-2.451-.012-3.512.099-.765.08-1.508.272-2.262.404-1.272.223-2.51.573-3.751.912-.623.17-1.181.499-1.735.822-.104.06-.1.172.009.25zm18.102-2.872c-.038-.053-.098-.099-.159-.126l-.837-.379-2.218-.393c-.161-.021-.174-.257 0-.255l.554.024-.562-.136-.071-.011c-.009-.001-.015-.006-.023-.009l-1.043-.173c-.129-.018-.267-.018-.404-.08-2.351-.3-4.726-.601-7.08-.423-1.545.117-3.055.464-4.535.899l-2.241.715-.69.215c-.224.139-.441.29-.649.46-.252.207-.263.455-.271.724-.002.056.114.111.157.077.095-.074.196-.144.279-.23.304-.312.664-.542 1.052-.743.323-.167.627-.369.968-.502a.93.93 0 0 1 .199-.053c.022-.003.053.027.074.047.006.006-.002.038-.014.046-.083.06-.163.126-.254.173-.51.262-.992.565-1.45.907-.223.167-.411.367-.598.567-.134.144-.127.232-.002.35.117.11.203.114.362-.026a6.1 6.1 0 0 1 .752-.546c.603-.387 1.266-.625 1.95-.819.081.101-.012.132-.059.155l-.571.252c-.608.264-1.168.602-1.68 1.016a1.78 1.78 0 0 0-.188.176c-.064.069-.087.147-.005.221.057.052.125.061.191.02l1.051-.664.447-.259c.044-.024.108-.002.13.048.01.023-.007.075-.029.092l-.865.655-.362.291c-.04.034-.063.083-.032.133s.079.044.131.02l1.127-.519c.639-.325 1.301-.571 2.02-.662.189-.024.373-.087.556-.143.883-.274 1.8-.396 2.701-.589l.661-.143c1.2-.251 2.42-.285 3.64-.303l1.935.062a6.48 6.48 0 0 0 .732.036c.561-.007 1.113.065 1.665.149.136.021.269.067.342-.12.037-.094.154-.049.236-.036l1.856.304 1.286.229c.065.011.135.002.2.002.023-.134-.081-.157-.147-.194-.699-.392-1.451-.656-2.228-.861-.192-.051-.42-.049-.576-.246.067-.017.118-.046.16-.037.831.179 1.653.387 2.427.744.002-.043.019-.098-.002-.127zm-20.162 7.608c.019.099.052.195.078.292.121.465.121.464.552.7.058.032.104.087.186.047.048-.175-.057-.324-.114-.477l-.364-.834c-.028-.062-.086-.109-.165-.092-.091.019-.156.079-.176.164a.49.49 0 0 0 .004.199zm-.322-1.956c.091-.037.127-.111.09-.197-.013-.031-.102-.064-.128-.049-.088.051-.067.137-.041.219.015.046.036.057.079.028zm-.107 1.641c-.038-.373-.179-.704-.429-1.015-.305-.38-.642-.708-1.048-.98-.356-.239-.751-.364-1.172-.394-.444-.032-.797.123-1.071.498-.342.467-.315.923-.053 1.385.238.419.54.807.959 1.061.931.564 1.871 1.122 2.924 1.457l.3.092c.03.008.065.001.173.001l-.309-.97c-.124-.372-.234-.743-.274-1.137zm-.607-2.318c-.164-.124-.317-.263-.472-.399-.019-.017-.031-.077-.019-.087.035-.03.095-.072.124-.06.139.059.271.133.403.201.059-.075.047-.145.008-.201-.127-.184-.27-.353-.488-.447-.061-.026-.114-.075-.161-.122-.019-.019-.021-.063-.017-.094.007-.055.046-.087.101-.102.147-.04.258.085.402.084.072-.098-.018-.152-.068-.205-.058-.061-.131-.11-.202-.158a4.26 4.26 0 0 0-1.682-.663c-.844-.149-1.544.129-2.119.724-.154.16-.286.342-.41.526-.234.347-.342.729-.364 1.149-.075 1.394.452 2.581 1.29 3.665.32.414.752.707 1.206.96.942.526 1.945.899 3.026 1.06.239.036.471.111.707.167.057-.096.094-.195.163-.263.078-.076.156-.139.112-.257-.04-.106-.135-.152-.238-.18l-.455-.108c-.146-.035-.161-.096-.066-.263.015-.027.035-.052.065-.096-.211-.151-.447-.253-.689-.346-.826-.321-1.588-.769-2.379-1.157-.21-.103-.383-.289-.555-.455-.185-.179-.344-.383-.523-.568-.274-.283-.401-.634-.472-1.001-.078-.406.07-.77.318-1.091.334-.433.769-.664 1.345-.641.536.021 1.027.139 1.461.46.259.192.543.35.804.635.07-.317.051-.513-.158-.671zm2.058 6.818c-.05-.091-.118-.167-.226-.2l-1.488-.46c-.888-.187-1.745-.46-2.558-.862-.346-.171-.64-.408-.961-.61-.267-.168-.491-.371-.7-.604-.609-.678-.997-1.465-1.273-2.316-.177-.545-.194-1.095-.169-1.659.033-.756.358-1.378.884-1.898.541-.535 1.183-.87 1.998-.847.756.022 1.43.251 2.065.626.088.052.173.14.282.099.125-.047.079-.173.081-.266l.002-.815-.007-.76c-.005-.051-.005-.098-.002-.144.063-.077.113-.165.147-.261.009-.025.021-.048.032-.072-.017-.044-.016-.095.013-.147.567-1.039 2.239-1.286 3.277-1.621 1.669-.539 3.373-1.02 5.119-1.254 2.94-.393 6.15-.076 9.072.604.568.049 1.13.162 1.674.331.463.108.917.251 1.359.423l.416.161c.941.235 1.941 1.011 2.292 1.855.178.245.297.521.277.855-.005.082.028.167.041.25.125.824.206 1.651.122 2.484l-.186 1.615c-.14.957-.318 1.908-.607 2.834-.254.815-.588 1.595-1.139 2.274l-.577.785c-.131.181-.099.285.099.339l2.158.608c.475.156.947.35 1.374.602.549.323 1.069.7 1.569 1.092s.953.853 1.271 1.407c.255.444.452.919.585 1.413.103.379.161.77.084 1.16-.133.672-.346 1.315-.795 1.861-.173.211-.302.457-.535.621-.596.421-1.234.773-1.917 1.032-.864.328-1.77.515-2.689.635l-2.595.312c-.778.095-1.554.185-2.343.163l-2.669-.003c-.907.001-1.813-.009-2.719-.063-.311-.019-.625-.084-.931.043-.044.018-.108.02-.152.002-.42-.169-.862-.084-1.293-.107l-2.972-.228-2.876-.535-2.386-.563c-.51-.12-1.01-.265-1.478-.501-.139-.07-.286-.132-.437-.17-.688-.173-1.295-.511-1.85-.92-.582-.429-1.123-.913-1.677-1.378-.592-.497-.84-1.152-.881-1.891-.013-.236-.03-.482.022-.709.072-.312.176-.626.323-.912.257-.5.54-.987 1.049-1.306l1.153-.792c1.169-.838 2.51-.937 3.891-.865.213.011.474.218.623-.007.114-.172-.119-.365-.186-.553-.023-.064-.046-.129-.078-.188z" fill="#d2b39f"/><path d="M15.229 44.482c.049.108.11.212.172.314l.884 1.439a4.26 4.26 0 0 0 .373.483c.106.124.266.149.421.183.562.124 1.133.192 1.704.259.207.024.418.07.623.056.29-.019.535.121.807.162.113.017.167.121.168.23.001.084-.025.167-.03.251l-.082 1.423c-.004.08-.003.171.102.211.116.045.238.013.32-.083.137-.161.228-.339.245-.55l.103-1.216c.021-.269.084-.4.183-.355.17.078.107.238.097.357l-.174 1.669c-.027.223-.017.251.234.274l.504.032c.024-.144.026-.247.058-.34.138-.394.151-.798.133-1.207l-.003-.507c.006-.088.077-.149.179-.15.082-.001.169.082.157.167-.097.653-.032 1.319-.177 1.999.19.084.399.062.601.064.077.001.109-.057.116-.137.049-.589.155-1.176.078-1.77a.23.23 0 0 1 .026-.147c.025-.038.08-.07.126-.077s.11.014.119.073c.018.116.038.234.038.351l-.02 1.476c-.001.172.035.205.207.226l.208.016c.193.005.223-.021.244-.235.013-.134.055-.265.02-.403-.046-.185-.03-.369.016-.554.05-.202.007-.405-.002-.608-.009-.19.047-.255.223-.276a.98.98 0 0 1 .157-.009c.932.043 1.838-.137 2.749-.286l.675-.083a5.62 5.62 0 0 0 1.171-.258 8.16 8.16 0 0 1 1.316-.313c.433-.067.815-.239 1.184-.495.537-.372.942-.853 1.346-1.337l1.272-1.678c.387-.546.692-1.137.903-1.771.021-.063.035-.131.037-.197.001-.052-.035-.096-.097-.093-.051.002-.109.004-.151.028-.286.162-.618.222-.9.402-.169.108-.387.148-.586.207l-3.722.994-2.572.444c-.256.041-.522.052-.782.038-.698-.038-1.395-.008-2.093.005-.139.003-.28.01-.418-.005l-2.86-.305c-.415-.049-.826-.133-1.235-.216l-2.352-.49c-.527-.114-1.05-.239-1.542-.469-.328-.154-.663-.296-1.025-.373-.166-.035-.315-.139-.475-.205-.075-.031-.159-.094-.237-.014-.055.056-.021.128-.007.192.012.05.029.098.044.146.325 1.04.754 2.042 1.199 3.038zm3.065 4.622c.065.025.13.051.197.066.09.02.181.01.221-.084.191-.455.371-.914.347-1.418a.2.2 0 0 0-.189-.206l-.207-.03c-.171-.005-.242.042-.275.162l-.316 1.074c-.092.312-.092.313.222.435zm-1.433-1.926c-.095-.04-.195-.069-.295-.099-.251-.075-.287-.058-.373.19l-.154.483c-.125.392-.12.401.309.614l.475-.655c.064-.096.092-.217.131-.328.033-.094-.004-.168-.094-.205zm-.012 1.119c-.075.152-.039.253.12.331a2.86 2.86 0 0 0 .383.152c.162.053.203.034.296-.108.228-.345.373-.719.408-1.054.015-.17-.024-.245-.122-.263-.565-.1-.508-.188-.757.311l-.328.63zm3.19-.4c.002-.111-.06-.222-.09-.323-.509-.066-.535-.081-.607.431-.035.25-.108.494-.159.742l-.064.397c-.006.069.031.13.11.149.05.012.102.018.153.028.439.085.541.039.598-.365.049-.349.054-.706.059-1.059zm4.281 1.526c-.04.18-.009.219.159.237a2.59 2.59 0 0 0 .413.014c.177-.009.213-.043.224-.21.01-.151.002-.303.002-.454.013-.323-.045-.638-.144-.944-.066-.205-.362-.307-.557-.206-.087.045-.116.126-.119.211-.011.319-.06.641.017.956.034.137.035.26.005.396zm1.784-.915c.01-.19-.032-.367-.063-.548-.028-.163-.124-.219-.3-.197-.085.011-.171.028-.253.052-.136.039-.212.126-.18.263.118.504.058 1.034.249 1.551a1.24 1.24 0 0 0 .541-.065l.005-1.055zm.33.529c.035.156-.03.299-.044.497l.358-.017c.625-.053.547-.189.53-.596-.015-.353-.094-.703-.156-1.053-.031-.177-.097-.217-.292-.213a1.59 1.59 0 0 0-.309.035c-.092.02-.148.086-.136.185.047.386-.036.778.049 1.161zm1.723-1.103c-.021-.098-.057-.194-.09-.289-.038-.109-.121-.16-.238-.152l-.257.029c-.12.021-.182.1-.167.215l.141.999c.01.066.039.129.053.195.093.42.093.42.517.301.032-.009.061-.031.116-.061.015-.437.012-.84-.075-1.237zm1.036.906c-.079-.496-.072-1.006-.248-1.486-.005-.014-.024-.023-.049-.046l-.342.061c-.172.043-.217.12-.189.298l.199 1.246c.027.168.064.197.239.173.085-.012.17-.029.25-.056.088-.029.155-.097.14-.189zm.937-.252v-.127l-.242-1.217c-.024-.113-.124-.155-.242-.136-.051.008-.102.023-.152.034-.169.039-.212.084-.193.237l.11.752.083.5c.039.237.103.306.273.288.27-.028.361-.111.364-.332zm.521-1.469c-.058-.138-.114-.171-.284-.157-.16.013-.211.072-.191.334l.255 1.189c.04.178.116.213.303.155.066-.02.137-.039.192-.077.034-.024.07-.097.056-.125-.212-.416-.152-.896-.331-1.319zm.275-.108c.005.05.008.102.02.151l.271 1.082c.017.064.057.13.142.109.072-.018.111-.075.124-.147.003-.017.003-.033.008-.094-.081-.37-.086-.8-.274-1.19-.036-.074-.074-.164-.19-.119-.098.037-.11.12-.102.209zm-16.2-2.005c-.165-.06-.265.017-.362.125-.171.191-.354.374-.456.615-.026.061-.059.123-.101.175-.075.091-.244.112-.329.029a2.57 2.57 0 0 1-.338-.386c-.148-.217-.346-.378-.547-.542-.132-.107-.277-.129-.441-.104-.412.064-.481.127-.531.54-.018.151-.015.305-.023.457l-.022.355c-.04.262-.213.338-.447.2l-.62-.377c-.139-.091-.292-.107-.449-.105-.352.004-.512.194-.42.517l.292.868c.027.08.059.16.076.242.025.129-.068.241-.204.235-.366-.017-.731-.04-1.09-.118-.068-.015-.133-.045-.201-.05a.32.32 0 0 0-.15.038c-.237.113-.334.642-.135.801.215.171.429.344.681.469.169.084.32.204.47.319.092.07.101.172.057.277-.076.179-.182.328-.386.386l-.449.134c-.243.075-.264.158-.088.359.045.052.101.096.14.151.305.427.73.459 1.198.347l.759-.191c.153-.045.302-.111.438.019.157.151.071.319.005.474l-.36.79c-.053.111-.032.205.065.266l.716.419c.128.07.262.051.403.004.625-.213 1.254-.412 1.826-.748.181-.106.304-.027.299.177-.002.068-.007.136-.02.202s-.038.13-.057.196c-.075.266-.051.54-.062.81-.006.152.086.252.241.292l.707.183c.254.059.523.181.762.141s.444-.245.662-.382c.355-.223.742-.372 1.144-.491.21-.062.334-.011.398.198.069.227.115.461.166.693.014.066.012.135.017.203.015.193.119.316.311.36l.766.167c.179.041.349.079.418-.159.01-.035.078-.057.123-.077.445-.203.837-.483 1.217-.781l.378-.272c.163-.098.311-.053.379.124.154.399.372.766.591 1.132l.076.133c.058.096.145.138.26.139l.785.019c.27.022.47-.074.645-.265.29-.317.591-.624.928-.895.027-.021.048-.049.075-.071.176-.14.316-.122.421.079l.528.934c.159.243.356.351.649.329.191-.015.386-.02.575.003.481.058.773-.201 1.022-.543l.54-.749c.159-.197.318-.195.471-.002l.697.952a.63.63 0 0 0 .687.33c.258-.032.522-.018.783-.035.127-.008.234-.058.261-.204.029-.157.137-.284.241-.387.275-.271.479-.579.637-.924.087-.189.195-.201.374-.086.105.068.184.153.252.254.221.327.51.598.779.886.077.083.166.118.277.11.07-.005.14-.018.209-.014.324.019.537-.095.695-.395.165-.314.421-.58.539-.925.045-.131.155-.159.299-.115.209.063.36.201.502.353.177.189.363.367.603.481.062.03.119.063.197.036.247-.083.5-.153.724-.289.067-.041.084-.117.044-.178-.085-.128-.183-.248-.28-.367l-.207-.229c-.16-.219-.075-.421.196-.423.468-.003.938-.101 1.403.032.191.054.381-.001.57-.021.165-.018.219-.145.143-.3-.108-.219-.288-.382-.463-.547l-.314-.27c-.089-.086-.151-.192-.084-.318.055-.104.158-.132.267-.117.336.046.657-.018.974-.113.083-.025.162-.06.242-.093.14-.059.223-.161.227-.313l-.003-.305c-.016-.179-.076-.251-.256-.264-.277-.019-.553-.082-.833-.034-.068.012-.139.014-.208.011-.154-.007-.247-.131-.207-.281.162-.606.293-1.217.332-1.844.007-.113-.011-.199-.083-.278-.057-.064-.125-.118-.183-.182-.161-.18-.364-.196-.573-.121-.179.064-.348.156-.519.238-.078.037-.146.097-.227.12-.338.098-.465-.029-.463-.283.003-.43-.236-.813-.261-1.241-.007-.131-.113-.241-.238-.32-.485-.306-.741-.306-1.211.064-.231.182-.458.364-.721.501-.077.04-.147.091-.241.083s-.177-.036-.196-.134c-.025-.133-.054-.268-.05-.401.009-.296-.11-.563-.165-.845-.032-.165-.151-.216-.29-.252-.149-.039-.279-.01-.369.119l-.429.632c-.125.197-.125.202-.36.066-.015-.009-.028-.02-.041-.032-.081-.071-.165-.057-.227.014a5.2 5.2 0 0 1-.92.825c.469.093.823.175 1.155.324l.766.325c.464.176.84.481 1.22.776.465.361.754.859.921 1.395.199.638.028 1.25-.383 1.777a3.33 3.33 0 0 1-.88.789c-.335.207-.706.274-1.084.341-.619.111-1.243.163-1.869.199-.031.002-.065-.017-.095-.031-.013-.006-.03-.025-.028-.035.006-.03.015-.079.032-.083l.356-.063 1.857-.3c.279-.059.526-.165.749-.342.311-.248.611-.499.822-.843.38-.62.344-1.224-.028-1.828-.35-.569-.843-.992-1.429-1.314-.44-.242-.897-.451-1.383-.595l-.354-.091c-.321-.052-.483-.049-.355.346.11.338.161.693.242 1.039.031.131-.006.225-.119.307-.387.28-.841.404-1.29.536-.383.113-.773.199-1.169.268l-1.843.376c-.992.205-1.994.304-3.01.276-.749-.02-1.5.004-2.25-.018-.766-.023-1.534-.043-2.283-.234a.91.91 0 0 0-.154-.027c-.985-.074-1.907-.387-2.83-.7-.263-.089-.517-.199-.794-.255-.184-.038-.357-.123-.507-.253s-.191-.267-.118-.451l.408-1.099.048-.144c.023-.093-.034-.183-.124-.181-.471.007-.945.026-1.4.145s-1.116.894-1.185 1.339c-.015.1-.025.208-.001.304.111.447.262.868.608 1.214.849.848 1.88 1.389 3.021 1.758l1.688.543c.217.07.439.136.666.118.62-.05 1.215.1 1.809.224a9.46 9.46 0 0 0 1.241.165c.069.005.139.009.206.025.025.006.055.042.058.067s-.015.069-.037.081c-.044.024-.098.047-.146.045-.365-.014-.727-.002-1.091-.086-.608-.141-1.221-.274-1.855-.261-.297.006-.585-.059-.874-.136l-2.387-.749c-1.077-.398-2.015-1.002-2.76-1.871-.15-.176-.432-.845-.462-1.063-.055-.411.085-.769.31-1.103.076-.113.186-.206.252-.324.272-.485.733-.649 1.253-.715l.829-.087c.098-.012.147-.074.116-.181-.108-.366-.323-.674-.547-.978a.23.23 0 0 0-.177-.094c-.086-.006-.18.013-.257-.015zm-.76-.023c-.065-.155-.26-.122-.411-.132l-.122-.008c-.087 0-.139-.002-.191 0-.083.004-.133.077-.091.137l.278.367c.142.17.225.167.361-.016.08-.107.229-.221.176-.348zm-2.826.293c-.152-.061-.287.074-.411.166-.055.04-.116.073-.166.118-.043.039-.039.102.002.132l.548.374c.057.037.147-.015.15-.085l.001-.274c-.03-.134.078-.349-.125-.43zm-1.57 2.041l-.302-.701c-.033-.07-.116-.073-.18-.034-.246.151-.364.401-.5.636-.013.023.028.1.063.121.23.136.5.129.717.182.143.003.241-.106.202-.204zm-1.546 1.79l.075.362c.081.523.19.409.534.315l.296-.081c.119-.041.147-.165.053-.235l-.704-.508c-.058-.041-.142-.064-.192-.021-.042.037-.045.117-.061.167zm2.16 2.797c.094.075.196.053.268-.043a1.28 1.28 0 0 0 .13-.215l.136-.326c.061-.158.008-.231-.199-.206-.053.011-.162.014-.254.055-.184.081-.409.072-.556.236.056.258.295.354.475.499zm3.043 1.523c.164.055.263.007.307-.166.063-.243.071-.491.016-.763-.424.15-.847.236-1.277.508.333.214.644.317.954.421zm3.674.907c.148.041.304.055.383.068.293.015.351-.039.349-.253l-.002-.1c-.058-.559-.28-.673-.774-.396-.015.008-.032.014-.045.025-.181.149-.425.222-.553.434.16.221.423.162.641.222zm3.111.469c.013.035.074.073.117.076l1.551.084c.073.003.158-.051.128-.117l-.505-1.028c-.067.019-.106.02-.132.039l-1.113.82c-.032.024-.059.093-.047.126zm4.295.223l1.148.052c.05.002.104-.016.119-.073 0-.036.012-.076-.002-.101-.5-.881-.511-.889-1.167-.22l-.17.191c-.043.052.001.147.073.151zm4.455.093h.832c-.075-.319-.22-.504-.377-.681-.318-.359-.381-.327-.664.016-.042.051-.067.117-.101.175-.282.489-.282.489.31.489zm3.25-.203c.016.032.081.041.119.059l1.19-.167c.077-.012.12-.086.072-.151l-.502-.639c-.124-.139-.27-.115-.382.044l-.48.716c-.024.037-.035.102-.017.138zm3.459-.355l.953-.215c.026-.006.044-.047.066-.072-.006-.031-.002-.072-.02-.093l-.319-.329c-.262-.224-.362-.283-.51.085-.068.17-.181.322-.27.484-.029.053.042.151.1.138zm2.681-1.136c.034.057.082.111.136.149.036.025.108.041.141.023.25-.141.538-.228.75-.472-.253-.16-.509-.239-.79-.191-.168.029-.4-.112-.487.043-.109.195.159.297.249.448zm2.031-1.501l.141-.327c.085-.233.018-.306-.247-.26-.218.038-.425.124-.774.102l.569.565c.138.126.225.1.311-.08zm.221-2.448c-.122-.424-.29-.83-.513-1.213-.025-.044-.062-.094-.112-.071-.04.018-.082.072-.088.114-.046.317-.164.619-.169.945-.005.357-.023.358.31.409l.396.056c.154.012.227-.063.176-.24zm-1.923-2.621c0-.014-.016-.03-.029-.04-.293-.23-.6-.438-.941-.589-.073.091-.073.175-.05.257l.11.334c.132.496.021.571.672.296.078-.033.158-.07.222-.122.026-.021.014-.089.014-.136zm-2.796-1.514c-.301-.13-.615-.215-1.013-.275.087.322.035.595.138.851.029.073.087.106.161.074.287-.124.504-.345.747-.529.032-.024.03-.094-.033-.121zm-2.009-4.193c.042.065.088.098.139.077l.662-.291c.605-.274.545-.205.294-.813-.007-.016-.012-.033-.024-.045-.127-.128-.143-.348-.356-.404-.139.114-.163.288-.238.435l-.424.868c-.028.059-.038.125-.053.174zm-2.533.903c.55-.216 1.131-.329 1.694-.502.072-.022.122-.084.083-.156-.276-.512-.726-.853-1.215-1.154-.013-.008-.034-.006-.1-.016-.01.017-.046.056-.062.101l-.54 1.586c-.031.095.049.176.139.141zm-2.967.557c.434-.017.842-.082 1.246-.156.271-.05.538-.126.803-.201.143-.041.195-.167.122-.274-.26-.38-.571-.72-.884-1.058-.034-.036-.083-.06-.126-.088-.204-.136-.28-.111-.393.106l-.553 1.029a1.68 1.68 0 0 0-.215.641zm-3.009.254c.017.005.034.007.051.008l1.562.005c.22-.005.448-.021.643-.124.02-.09-.015-.147-.062-.198l-1.127-1.195a.43.43 0 0 0-.079-.065c-.083-.053-.166-.058-.222.032-.258.42-.584.798-.797 1.246-.022.046-.048.09-.059.139-.017.073.01.131.09.154zm-3.594-.259c.008.058.072.059.122.065l.827.09 1.371.132.235-.001c.136-.007.19-.088.126-.2-.067-.118-.135-.237-.219-.344l-.675-.835c-.097-.127-.225-.208-.353-.293-.082-.054-.162-.044-.234.024l-.222.213-.943 1.012c-.029.032-.041.092-.035.136zm-2.904-.452c.619.094 1.212.31 1.838.368l.143.017c.158.009.233-.067.17-.172-.289-.481-.551-.98-.94-1.398-.146-.157-.202-.156-.371.018l-.89.928c-.093.099-.065.221.049.238zm-3.344-.939c.344.204.725.323 1.102.447l1 .275c.082.021.17.038.254-.015.016-.164-.097-.282-.168-.411-.262-.478-.635-.883-.943-1.33-.126-.183-.279-.195-.434-.037l-.837.9c-.05.055-.048.127.026.171zm20.137-1.682c.076-.242.084-.504.157-.747.062-.205-.012-.319-.18-.416-.254-.145-.442-.374-.723-.494-.246-.104-.463-.12-.695.002l-.282.132c-.17.084-.254.219-.271.405-.029.321-.091.638-.083.963.004.185-.007.374-.123.538-.081.115-.228.142-.303.027-.221-.335-.558-.557-.839-.832-.096-.095-.216-.171-.335-.24-.316-.184-.724-.02-.82.28l-.233.779c-.032.114-.048.233-.075.349-.029.125-.1.217-.236.242-.119.022-.2-.043-.266-.127l-.313-.407-.2-.234c-.275-.299-.596-.389-.983-.213-.098.045-.18.088-.224.194l-.517 1.217c-.04.094-.074.192-.127.279-.07.116-.276.133-.363.027l-.338-.453-.195-.239c-.4-.475-.465-.497-1.069-.417-.19.025-.315.107-.407.274l-.663 1.153c-.017.029-.041.055-.062.082-.088.115-.239.125-.299.005-.193-.383-.478-.707-.707-1.066-.138-.216-.32-.34-.596-.343s-.556-.038-.835-.061c-.091-.007-.193-.004-.226.085-.085.229-.309.315-.471.464l-.339.317c-.15.139-.27.119-.366-.066l-.151-.323-.502-.889-1.009-.237c-.192-.055-.302.018-.393.155l-.472.73c-.076.117-.201.132-.309.042-.082-.068-.123-.155-.17-.248-.19-.38-.382-.759-.657-1.096-.093-.114-.176-.197-.316-.236-.117-.032-.238-.064-.342-.122-.269-.149-.471-.022-.654.143-.127.114-.228.256-.338.388-.055.066-.097.142-.156.203-.181.188-.328.172-.447-.052a2.9 2.9 0 0 1-.164-.374l-.335-.964a.8.8 0 0 0-.682-.46c-.047.002-.106.027-.137.06l-.402.467c-.057.071-.054.162-.035.245.027.116.059.231.1.342.037.103.127.13.257.091.31-.093.348-.076.461.189l.707 1.64c.075.172.157.188.321.094.185-.105.317-.263.454-.417l.516-.574c.33-.338.453-.319.713.061l1.265 1.808c.097.138.154.144.304.066.269-.138.455-.366.651-.58l.531-.627c.111-.13.247-.148.352-.021l.856 1.09c.133.178.234.377.353.564.132.208.214.225.406.041.433-.416.894-.806 1.218-1.319.103-.163.249-.176.393-.042.352.329.695.668.982 1.055l.247.328c.36.453.392.507.709.013.11-.172.253-.323.379-.486.191-.248.327-.517.375-.829.026-.172.172-.218.303-.104.287.248.556.516.79.812s.514.554.812.791c.094.075.219.055.259-.056.146-.404.422-.74.615-1.118.069-.135.11-.285.16-.429.022-.064.031-.132.053-.196.134-.392.35-.454.636-.166l.953 1.013c.024.025.04.056.063.081.15.169.286.164.415-.033.15-.23.241-.487.317-.749l.233-.781c.057-.175.232-.228.369-.096.407.393.953.636 1.278 1.117.009.014.023.025.036.037.117.115.215.114.294-.02l.694-1.309c.058-.141.129-.278.208-.409.072-.119.207-.129.309-.025.095.098.185.204.258.318l.429.72c.171-.274.169-.538.244-.777zm.245-1.626c.077-.275.113-.557.122-.841.003-.097-.09-.162-.169-.121l-.93.488c.269.235.559.376.821.554.058.039.134-.004.155-.08zm-3.526.801c.26.264.504.546.879.819l.102-1.095c.008-.091-.08-.175-.16-.151l-.78.258c-.068.025-.094.116-.041.169zm-2.426.697l.456.54c.054.06.142.04.166-.033l.187-.673c.028-.117-.052-.184-.255-.151l-.467.124c-.102.031-.142.123-.087.192zm-2.817.653c.132.306.322.523.536.721.059.055.14.043.177-.024.155-.282.287-.575.357-.889.019-.086-.067-.113-.138-.1-.306.057-.606.134-.932.291zm-2.956.362c.141.288.281.578.541.804.315-.261.434-.605.545-.981-.354-.075-.678-.036-1.001.022-.082.015-.116.091-.085.155zm-3.226-.401a2.3 2.3 0 0 0 .149.318c.065.11.092.314.242.283a.57.57 0 0 0 .421-.398c.018-.056-.017-.103-.061-.123-.218-.096-.443-.168-.65-.198-.088.028-.12.069-.1.119zm-3.007-.717c.048.108.097.218.164.314.082.118.106.339.286.312.174-.027.233-.229.3-.382.029-.066.014-.141-.055-.177a2 2 0 0 0-.624-.196c-.074.031-.093.08-.071.128zm-2.9-1.158c.006.215.061.389.132.554.068.159.022.436.236.447.177.008.254-.247.37-.389.031-.039.062-.086.069-.133s-.007-.117-.035-.131c-.239-.119-.463-.276-.771-.348zm21.033-2.813l-.132-1.316c-.045-.508-.291-.924-.655-1.254a.14.14 0 0 1-.036-.022 1.18 1.18 0 0 1-.087-.085l-.144-.11c-.195-.136-.437-.248-.703-.246.053.108.137.187.263.197.152.012.241.12.359.185.298.165.329.412.264.694-.091.396-.316.714-.641.96-.276.209-.587.365-.914.481l-2.027.66c-.184.049-.364.116-.543.181-.637.231-1.284.418-1.96.517l-1.745.315-3.048.419c-.086.011-.175.026-.259.016-.659-.083-1.322-.027-1.983-.059-1.411-.07-2.805-.263-4.179-.583-.168-.039-.338-.09-.493-.163l-1.794-.932-.571-.358c-.533-.291-1.01-.658-1.488-1.025-.223-.171-.353-.489-.359-.841-.085.023-.151.051-.159.13-.035.354-.1.709-.09 1.063l.125 2.285a.62.62 0 0 0 .407.592l1.552.726.466.225c.275.146.56.267.862.362l1.588.507 2.588.618c.429.06.844.209 1.266.315.716.179 1.445.211 2.18.19l1.822-.083a7.13 7.13 0 0 0 1.343-.192l1.264-.318 2.569-.683c.79-.209 1.564-.464 2.322-.765.032-.012.056-.05.087-.055.574-.087 1.006-.436 1.473-.73l.945-.541c.181-.116.265-.257.264-.461l.001-.814zm-2.227-3.209l.434.153c-.099-.166-.246-.213-.434-.153zm-18.118 2.739c.14.1.283.2.437.276l1.504.715c.318.142.661.218 1.005.279 1.271.225 2.55.398 3.843.418.905.014 1.816.089 2.714-.085l3.818-.601a17.23 17.23 0 0 0 2.306-.646l1.736-.568.731-.276c.311-.128.578-.314.763-.597.066-.101.044-.191-.056-.263-.144-.103-.316-.141-.481-.195-.964-.314-1.961-.476-2.963-.617-1.846-.26-2.54-.312-4.107-.327-1.388.001-2.451-.012-3.512.099-.765.08-1.508.272-2.262.404-1.272.223-2.51.573-3.751.912-.623.17-1.181.499-1.735.822-.104.06-.1.172.009.25zm18.102-2.872c-.038-.053-.098-.099-.159-.126l-.837-.379-2.218-.393c-.161-.021-.174-.257 0-.255l.554.024-.562-.136-.071-.011c-.009-.001-.015-.006-.023-.009l-1.043-.173c-.129-.018-.267-.018-.404-.08-2.351-.3-4.726-.601-7.08-.423-1.545.117-3.055.464-4.535.899l-2.241.715-.69.215c-.224.139-.441.29-.649.46-.252.207-.263.455-.271.724-.002.056.114.111.157.077.095-.074.196-.144.279-.23.304-.312.664-.542 1.052-.743.323-.167.627-.369.968-.502a.93.93 0 0 1 .199-.053c.022-.003.053.027.074.047.006.006-.002.038-.014.046-.083.06-.163.126-.254.173-.51.262-.992.565-1.45.907-.223.167-.411.367-.598.567-.134.144-.127.232-.002.35.117.11.203.114.362-.026a6.1 6.1 0 0 1 .752-.546c.603-.387 1.266-.625 1.95-.819.081.101-.012.132-.059.155l-.571.252c-.608.264-1.168.602-1.68 1.016a1.78 1.78 0 0 0-.188.176c-.064.069-.087.147-.005.221.057.052.125.061.191.02l1.051-.664.447-.259c.044-.024.108-.002.13.048.01.023-.007.075-.029.092l-.865.655-.362.291c-.04.034-.063.083-.032.133s.079.044.131.02l1.127-.519c.639-.325 1.301-.571 2.02-.662.189-.024.373-.087.556-.143.883-.274 1.8-.396 2.701-.589l.661-.143c1.2-.251 2.42-.285 3.64-.303l1.935.062a6.48 6.48 0 0 0 .732.036c.561-.007 1.113.065 1.665.149.136.021.269.067.342-.12.037-.094.154-.049.236-.036l1.856.304 1.286.229c.065.011.135.002.2.002.023-.134-.081-.157-.147-.194-.699-.392-1.451-.656-2.228-.861-.192-.051-.42-.049-.576-.246.067-.017.118-.046.16-.037.831.179 1.653.387 2.427.744.002-.043.019-.098-.002-.127zm-20.162 7.608c.019.099.052.195.078.292.121.465.121.464.552.7.058.032.104.087.186.047.048-.175-.057-.324-.114-.477l-.364-.834c-.028-.062-.086-.109-.165-.092-.091.019-.156.079-.176.164a.49.49 0 0 0 .004.199zm-.322-1.956c.091-.037.127-.111.09-.197-.013-.031-.102-.064-.128-.049-.088.051-.067.137-.041.219.015.046.036.057.079.028zm-.107 1.641c-.038-.373-.179-.704-.429-1.015-.305-.38-.642-.708-1.048-.98-.356-.239-.751-.364-1.172-.394-.444-.032-.797.123-1.071.498-.342.467-.315.923-.053 1.385.238.419.54.807.959 1.061.931.564 1.871 1.122 2.924 1.457l.3.092c.03.008.065.001.173.001l-.309-.97c-.124-.372-.234-.743-.274-1.137zm-.607-2.318c-.164-.124-.317-.263-.472-.399-.019-.017-.031-.077-.019-.087.035-.03.095-.072.124-.06.139.059.271.133.403.201.059-.075.047-.145.008-.201-.127-.184-.27-.353-.488-.447-.061-.026-.114-.075-.161-.122-.019-.019-.021-.063-.017-.094.007-.055.046-.087.101-.102.147-.04.258.085.402.084.072-.098-.018-.152-.068-.205-.058-.061-.131-.11-.202-.158a4.26 4.26 0 0 0-1.682-.663c-.844-.149-1.544.129-2.119.724-.154.16-.286.342-.41.526-.234.347-.342.729-.364 1.149-.075 1.394.452 2.581 1.29 3.665.32.414.752.707 1.206.96.942.526 1.945.899 3.026 1.06.239.036.471.111.707.167.057-.096.094-.195.163-.263.078-.076.156-.139.112-.257-.04-.106-.135-.152-.238-.18l-.455-.108c-.146-.035-.161-.096-.066-.263.015-.027.035-.052.065-.096-.211-.151-.447-.253-.689-.346-.826-.321-1.588-.769-2.379-1.157-.21-.103-.383-.289-.555-.455-.185-.179-.344-.383-.523-.568-.274-.283-.401-.634-.472-1.001-.078-.406.07-.77.318-1.091.334-.433.769-.664 1.345-.641.536.021 1.027.139 1.461.46.259.192.543.35.804.635.07-.317.051-.513-.158-.671zm2.058 6.818c-.05-.091-.118-.167-.226-.2l-1.488-.46c-.888-.187-1.745-.46-2.558-.862-.346-.171-.64-.408-.961-.61-.267-.168-.491-.371-.7-.604-.609-.678-.997-1.465-1.273-2.316-.177-.545-.194-1.095-.169-1.659.033-.756.358-1.378.884-1.898.541-.535 1.183-.87 1.998-.847.756.022 1.43.251 2.065.626.088.052.173.14.282.099.125-.047.079-.173.081-.266l.002-.815-.007-.76c-.005-.051-.005-.098-.002-.144.063-.077.113-.165.147-.261.009-.025.021-.048.032-.072-.017-.044-.016-.095.013-.147.567-1.039 2.239-1.286 3.277-1.621 1.669-.539 3.373-1.02 5.119-1.254 2.94-.393 6.15-.076 9.072.604.568.049 1.13.162 1.674.331.463.108.917.251 1.359.423l.416.161c.941.235 1.941 1.011 2.292 1.855.178.245.297.521.277.855-.005.082.028.167.041.25.125.824.206 1.651.122 2.484l-.186 1.615c-.14.957-.318 1.908-.607 2.834-.254.815-.588 1.595-1.139 2.274l-.577.785c-.131.181-.099.285.099.339l2.158.608c.475.156.947.35 1.374.602.549.323 1.069.7 1.569 1.092s.953.853 1.271 1.407c.255.444.452.919.585 1.413.103.379.161.77.084 1.16-.133.672-.346 1.315-.795 1.861-.173.211-.302.457-.535.621-.596.421-1.234.773-1.917 1.032-.864.328-1.77.515-2.689.635l-2.595.312c-.778.095-1.554.185-2.343.163l-2.669-.003c-.907.001-1.813-.009-2.719-.063-.311-.019-.625-.084-.931.043-.044.018-.108.02-.152.002-.42-.169-.862-.084-1.293-.107l-2.972-.228-2.876-.535-2.386-.563c-.51-.12-1.01-.265-1.478-.501-.139-.07-.286-.132-.437-.17-.688-.173-1.295-.511-1.85-.92-.582-.429-1.123-.913-1.677-1.378-.592-.497-.84-1.152-.881-1.891-.013-.236-.03-.482.022-.709.072-.312.176-.626.323-.912.257-.5.54-.987 1.049-1.306l1.153-.792c1.169-.838 2.51-.937 3.891-.865.213.011.474.218.623-.007.114-.172-.119-.365-.186-.553-.023-.064-.046-.129-.078-.188z" stroke="#db713d" stroke-width=".4" mask="url(#A)"/></svg>