<svg width="52" height="85" viewBox="0 0 52 85" fill="none" xmlns="http://www.w3.org/2000/svg">
<ellipse cx="25.1069" cy="69.824" rx="24.5718" ry="14.7959" fill="#EBD3C1"/>
<path d="M11.9737 15.1499C11.9469 15.1442 11.91 15.1248 11.8865 15.1348C11.806 15.1714 11.8128 15.217 11.9066 15.2448C11.9301 15.2518 11.967 15.2368 11.9871 15.22C11.9971 15.2123 11.9804 15.1744 11.9737 15.1499ZM29.725 26.8182C30.5128 26.7689 31.2604 26.7411 32.0047 26.667C32.3634 26.6311 32.7489 26.7595 33.0842 26.5252C32.9601 26.0317 32.4606 26.0783 32.1354 25.8889C31.9175 25.7628 31.6392 25.728 31.3845 25.682C30.0669 25.4453 28.7762 25.7179 27.4855 25.9157C27.2039 25.9589 26.9391 26.1457 26.6742 26.2818C26.6273 26.3063 26.5904 26.4095 26.6005 26.4682C26.6072 26.5181 26.6877 26.5902 26.7413 26.5946C27.747 26.675 28.7561 26.7471 29.725 26.8182ZM27.3917 23.7943C27.0899 23.7155 26.7949 23.814 26.4966 23.8221C25.7188 23.8432 25.0684 24.2274 24.3678 24.4862C23.5799 24.7769 22.896 25.2217 22.2255 25.6998C22.1015 25.7876 21.964 25.8996 21.9976 26.0588C22.0277 26.2174 22.192 26.266 22.3429 26.2811C22.9396 26.3391 23.5464 26.3539 24.1331 26.4622C24.6594 26.559 25.0818 26.4233 25.5176 26.1631C26.4597 25.6043 27.4487 25.1674 28.5583 25.0709C28.8198 25.0481 29.0847 25.0441 29.3462 25.0062C30.8782 24.7836 32.3231 25.0414 33.6742 25.8098C34.0295 26.0133 34.3983 26.2033 34.7637 26.3914C34.9615 26.4937 35.156 26.6127 35.3974 26.5895C35.9203 26.5396 36.4433 26.4963 36.9663 26.4394C37.0233 26.433 37.1038 26.3612 37.1172 26.3053C37.1339 26.2469 37.1004 26.1517 37.0568 26.1071C36.9496 26.0029 36.8289 25.9137 36.7082 25.8275C35.1593 24.734 33.3658 24.325 31.5387 24.0863C30.1675 23.9066 28.7695 23.9797 27.3917 23.7943ZM39.6114 26.0109C39.3767 25.8064 39.1689 25.5952 38.9342 25.4229C38.6291 25.203 38.3039 25.0146 37.9888 24.8131C36.6579 23.9679 35.337 23.1268 33.8451 22.5676C31.7331 21.7774 29.5909 21.3869 27.338 21.6675C26.2183 21.8069 25.0818 21.9699 24.056 22.3943C22.5339 23.0219 21.0521 23.7728 19.7648 24.8359C19.4597 25.0866 18.8999 25.2489 19.0273 25.7025C19.1278 26.0538 19.6911 25.9013 20.0297 26.0401C20.4722 26.2211 20.8544 26.0843 21.146 25.7464C21.8333 24.9556 22.7686 24.5271 23.6637 24.0752C24.7701 23.519 25.9233 23.0778 27.2174 23.1868C28.374 23.284 29.5339 23.3692 30.6905 23.3672C31.5286 23.3658 32.3399 23.4744 33.1445 23.6501C33.6574 23.7614 34.1569 23.9327 34.6565 24.092C36.0276 24.5278 37.3049 25.1269 38.3341 26.1645C38.4045 26.2359 38.5319 26.2939 38.6325 26.2885C38.9577 26.2707 39.2996 26.2996 39.6114 26.0109ZM45.7531 25.2777C45.7531 25.274 45.7531 25.2365 45.7531 25.1989C45.7565 24.9116 45.5989 24.7836 45.3374 24.8463C44.6535 25.0089 44.1775 25.3438 44.1473 26.1276C44.1339 26.5386 44.0367 26.9456 43.9964 27.3563C43.7752 29.6758 43.5774 31.9987 43.3393 34.3153C43.1013 36.6319 42.803 38.9451 42.5716 41.2616C42.4074 42.9445 42.3068 44.6342 42.1827 46.3205C42.0956 47.5173 42.0051 48.7175 41.9347 49.9143C41.9011 50.4775 41.8978 51.0374 41.7939 51.5973C41.6698 52.261 41.6128 52.9382 41.5491 53.6121C41.5257 53.8702 41.5357 54.1518 41.8173 54.296C42.0185 54.3966 42.3101 54.0881 42.3772 53.7194C42.3839 53.6825 42.3872 53.6456 42.3906 53.6087C42.4845 52.4454 42.6085 51.2855 42.6655 50.1222C42.7895 47.6078 43.0645 45.1069 43.46 42.6194C43.6545 41.3957 43.8456 40.1687 43.9663 38.935C44.1674 36.9168 44.3216 34.8919 44.6803 32.8905C44.7977 32.2267 44.8547 31.5495 44.9653 30.8824C45.1061 30.0677 45.1497 29.2454 45.324 28.4314C45.5386 27.4072 45.6157 26.3529 45.7531 25.2777ZM38.8236 28.9537C38.8135 28.953 38.8035 28.952 38.7934 28.9514C38.8269 28.5008 38.8605 28.0502 38.894 27.5993C38.9376 27.0334 38.8537 26.9479 38.2838 27.0026C38.0994 27.0207 37.9117 27.0515 37.7307 27.0931C37.5664 27.13 37.4792 27.2503 37.4658 27.4146C37.4524 27.5644 37.4423 27.715 37.439 27.8652C37.3585 30.6108 37.1608 33.3498 36.9227 36.0888C36.7484 38.1136 36.6478 40.1452 36.497 42.1735C36.4165 43.2597 36.3427 44.3526 36.1986 45.4321C35.9404 47.41 35.5616 49.3746 35.5918 51.3793C35.5952 51.6811 35.5348 51.9794 35.5147 52.2812C35.4477 53.2165 35.384 54.1552 35.3303 55.0939C35.3136 55.4258 35.4677 55.5565 35.8131 55.5498C36.3193 55.5398 36.4333 55.4593 36.5137 55.0134C36.5439 54.829 36.5707 54.6413 36.5808 54.4536C36.7249 52.013 36.7886 49.5623 37.0266 47.1318C37.3016 44.3291 37.3083 41.503 37.838 38.7171C38.1229 37.2118 38.1765 35.6563 38.3609 34.1242C38.5621 32.4077 38.6727 30.6779 38.8236 28.9537ZM34.8945 68.906C35.4074 68.9664 35.974 68.963 36.5305 68.8457C37.5228 68.6378 38.5118 68.3965 39.5008 68.1685C40.2383 67.9942 40.882 67.5919 41.5525 67.2666C41.8475 67.1226 42.0788 66.8476 42.3436 66.6397C42.4777 66.5391 42.5113 66.4119 42.5214 66.2509C42.6219 64.7993 42.6253 64.7993 41.2307 65.3658C40.9189 65.4932 40.5903 65.5904 40.2853 65.738C38.0793 66.8275 35.7091 67.4342 33.3457 68.0612C32.9836 68.1584 32.6047 68.1885 32.2326 68.2355C30.0234 68.5037 27.8007 68.5272 25.5813 68.4836C24.1565 68.4567 22.725 68.3294 21.3069 68.1584C20.1906 68.0243 19.091 67.7561 17.9813 67.555C16.8683 67.3572 15.7754 67.1024 14.7328 66.6397C13.9081 66.2743 13.08 65.9157 12.2955 65.4631C12.081 65.3423 11.8027 65.1111 11.5982 65.3926C11.4373 65.6105 11.6049 65.9022 11.7122 66.1336C11.8832 66.5056 12.2452 66.6867 12.5972 66.794C13.8544 67.1728 15.0747 67.669 16.3352 68.0445C18.0349 68.5474 19.7346 68.9428 21.498 69.1541C22.544 69.2815 23.5833 69.4156 24.636 69.4625C25.3098 69.4893 25.9903 69.4625 26.6608 69.5363C28.7461 69.7643 30.7877 69.3619 32.8327 69.1038C33.5032 69.02 34.167 68.9194 34.8945 68.906ZM49.4341 24.791C49.4341 24.5047 49.4341 24.1667 49.4341 23.8288C49.4308 23.6692 49.3805 23.5324 49.1994 23.4992C49.0352 23.4684 48.9179 23.5649 48.8173 23.6789C48.6329 23.8811 48.5424 24.1238 48.4954 24.3887C48.1132 26.5305 47.6473 28.6567 47.2919 30.8053C46.8092 33.7018 46.4974 36.6151 46.2694 39.5418C45.9409 43.7793 45.6995 48.0235 45.1899 52.2443C45.1832 52.318 45.1832 52.3951 45.1932 52.4689C45.2066 52.5795 45.2234 52.7136 45.3642 52.7069C45.4682 52.7002 45.5821 52.6533 45.6592 52.5862C45.8436 52.4354 45.9107 52.2108 45.9475 51.9895C46.0682 51.2486 46.1856 50.5077 46.2828 49.7635C46.4538 48.4225 46.5141 47.0614 46.7957 45.7439C47.3388 43.2027 47.6908 40.6381 48.073 38.0734C48.4485 35.549 48.6329 32.9944 48.9715 30.4633C49.2196 28.5943 49.2263 26.7143 49.4341 24.791ZM7.27385 27.0358C7.2752 27.0589 7.30805 27.3224 7.30034 27.5849C7.24033 29.6604 7.52397 31.7171 7.66008 33.7789C7.83373 36.4072 8.11668 39.0255 8.18373 41.6639C8.26486 44.8588 8.45394 48.0537 8.80829 51.2352C8.87065 51.7951 8.87802 52.3616 8.94272 52.9215C8.99569 53.3774 9.48045 53.716 9.91929 53.649C10.1298 53.6154 10.284 53.3003 10.2807 52.8947C10.2807 52.7438 10.2773 52.5929 10.2539 52.4454C10.107 51.5872 10.1057 50.7189 10.0648 49.854C10.0024 48.5398 9.95249 47.2189 9.79292 45.9148C9.63267 44.6074 9.55419 43.2932 9.46301 41.9824C9.32757 40.0313 9.22668 38.0734 9.11136 36.1223C8.97357 33.7923 8.83811 31.4657 8.69731 29.1381C8.60445 27.598 8.50858 26.0578 8.40197 24.5187C8.38387 24.2586 8.30208 24.0034 8.25347 23.7453C8.19681 23.4433 7.97586 23.3186 7.71403 23.2327C7.47332 23.1539 7.26516 23.2787 7.21856 23.5341C7.20515 23.6079 7.17564 23.6856 7.1867 23.756C7.34595 24.7665 7.14613 25.785 7.27385 27.0358ZM43.1281 53.7864C44.1104 53.592 44.1707 53.5618 44.4289 52.7874C44.5496 52.432 44.6334 52.0599 44.6736 51.6878C44.9016 49.7098 45.1363 47.7285 45.3173 45.7439C45.5084 43.6083 45.6425 41.4661 45.8068 39.3272C45.8973 38.1271 45.9475 36.9202 46.0984 35.7267C46.4806 32.743 46.8863 29.7626 47.4931 26.8118C47.654 26.0377 47.8048 25.262 47.949 24.4855C47.9758 24.331 47.9289 24.1701 47.7445 24.151C47.0706 24.0822 46.5309 24.4215 46.3498 25.0233C46.2962 25.2023 46.2593 25.3884 46.2325 25.5741C46.0582 26.7267 45.8805 27.8789 45.723 29.0338C45.495 30.6745 45.2838 32.3139 45.0726 33.9566C44.9452 34.9254 44.7675 35.8943 44.7239 36.8699C44.6066 39.3574 44.1004 41.7913 43.7886 44.252C43.564 46.0087 43.2857 47.7553 43.2656 49.5321C43.2589 50.3233 43.2153 51.1078 43.1147 51.8956C43.0343 52.5192 42.8968 53.1595 43.1281 53.7864ZM27.4386 41.5164C27.4285 45.2812 27.5627 49.0494 27.2945 52.8109C27.2509 53.4076 27.2743 54.011 27.271 54.6145C27.2676 54.9531 27.2944 55.2917 27.4051 55.6169C27.4922 55.8683 27.6632 55.9689 27.918 55.9521C28.1661 55.9387 28.3639 55.8582 28.3941 55.5766C28.4376 55.1274 28.5181 54.6882 28.4812 54.2289C28.337 52.5762 28.6455 50.9201 28.4376 49.2673C28.4209 49.1198 28.4544 48.9689 28.4644 48.8181C28.6086 46.639 28.7561 44.4632 28.9036 42.2841C28.9305 41.8718 28.9707 41.4594 29.0075 41.0471C29.1685 39.2133 29.3797 37.3795 29.4769 35.5389C29.5976 33.3196 29.6847 31.1003 29.6278 28.8783C29.5875 27.422 29.4836 27.304 28.0119 27.4139C27.7973 27.4297 27.6565 27.5356 27.6263 27.7505C27.5995 27.9362 27.5761 28.125 27.5794 28.312C27.5895 29.6289 27.442 30.9427 27.5124 32.2602C27.5694 33.276 27.6029 34.2952 27.5492 35.3076C27.4453 37.3761 27.4319 39.4479 27.4386 41.5164ZM31.5655 51.6207C31.5655 52.4086 31.5655 53.1997 31.5655 53.9876C31.5655 54.5206 31.6795 55.0335 31.8337 55.5364C31.8806 55.6839 32.0482 55.7308 32.2092 55.7308C32.3701 55.7342 32.5142 55.6806 32.5712 55.523C32.6316 55.3487 32.6718 55.1609 32.6885 54.9765C32.7757 54.001 32.9065 53.0288 32.9266 52.0532C32.9769 49.4953 33.3591 46.9641 33.4194 44.4062C33.4596 42.7535 33.6742 41.1074 33.7714 39.458C33.9793 35.8541 34.1435 32.2502 34.3581 28.648C34.4319 27.4243 34.2776 27.4029 33.1411 27.3335C33.0305 27.3268 32.9132 27.3318 32.8059 27.3609C32.6617 27.4012 32.5243 27.4833 32.4908 27.6462C32.4539 27.8293 32.4371 28.017 32.4237 28.2038C32.3265 29.5528 32.3097 30.9025 32.3097 32.2569C32.303 34.8115 32.2628 37.366 32.1924 39.9206C32.1421 41.7611 32.0952 43.6083 31.9007 45.4388C31.6862 47.4972 31.4984 49.5489 31.5655 51.6207ZM37.1641 53.9138C37.1741 53.9172 37.1842 53.9172 37.1943 53.9172C37.1943 54.2926 37.1842 54.6681 37.201 55.0436C37.2144 55.3621 37.3988 55.4794 37.7407 55.4224C37.8547 55.4023 37.962 55.3721 38.0726 55.3554C38.371 55.3084 38.542 55.1643 38.5688 54.8458C38.6358 54.058 38.7297 53.2768 38.7934 52.489C38.8403 51.9258 38.837 51.3626 38.8839 50.7994C38.9946 49.3746 39.1152 47.9531 39.246 46.5317C39.4069 44.8119 39.4237 43.0753 39.7053 41.3655C39.8092 40.7353 39.8729 40.1017 39.9668 39.468C40.2048 37.8689 40.1176 36.2396 40.3892 34.6405C40.5032 33.9734 40.5233 33.2928 40.5836 32.6189C40.6439 31.9451 40.701 31.2713 40.7646 30.5974C40.8753 29.3996 40.9926 28.2024 41.0966 27.0039C41.1301 26.6201 41.0027 26.5299 40.6473 26.6439C39.5879 26.9835 39.6147 26.9878 39.427 28.1072C39.2828 28.9641 39.2292 29.823 39.1857 30.6879C39.1253 31.8881 39.1085 33.1051 38.8973 34.2818C38.6191 35.8407 38.6023 37.4264 38.2972 38.9786C38.1598 39.6759 38.0458 40.3833 37.9888 41.094C37.8145 43.3033 37.667 45.5159 37.5195 47.7285C37.4457 48.8181 37.3988 49.9076 37.3384 50.9938C37.2814 51.9694 37.2211 52.9416 37.1641 53.9138ZM39.5276 54.943C39.7321 54.9061 39.95 54.8726 40.1645 54.8257C40.4897 54.7586 40.6942 54.591 40.7077 54.2189C40.7144 54.0379 40.8116 53.8602 40.8485 53.6758C41.4083 50.8631 41.4854 47.9967 41.7402 45.1505C41.8642 43.8028 41.8978 42.445 42.0419 41.1007C42.2364 39.3071 42.5381 37.5236 42.689 35.7233C42.927 32.8369 43.2287 29.9537 43.4969 27.07C43.5338 26.6586 43.5237 26.2419 43.5204 25.8279C43.517 25.7186 43.4332 25.6217 43.2991 25.6334C42.3973 25.7115 41.8508 26.2013 41.7302 27.0793C41.5324 28.4937 41.3346 29.9102 41.177 31.3283C41.0295 32.6726 40.9256 34.027 40.8049 35.3747C40.587 37.8119 40.3657 40.2458 40.0774 42.6763C39.8595 44.5068 39.7757 46.3507 39.6483 48.1878C39.5578 49.502 39.484 50.8195 39.4203 52.1337C39.3969 52.66 39.4371 53.1863 39.3198 53.7093C39.2292 54.1183 39.2694 54.5273 39.5276 54.943ZM10.9378 27.1521C10.9378 26.73 10.9411 26.0907 10.9344 25.4517C10.9311 24.6632 10.8774 24.5804 10.1315 24.3092C9.22433 23.9796 8.87334 23.5931 8.96318 25.0964C9.0195 26.0347 9.12241 26.9704 9.17202 27.9091C9.2555 29.4827 9.3487 31.0567 9.37317 32.6324C9.41675 35.4149 9.91461 38.174 9.83649 40.9632C9.83448 41.037 9.84688 41.1141 9.85492 41.1879C9.9612 42.1567 10.1104 43.1222 10.1667 44.0944C10.2941 46.3104 10.5589 48.513 10.6092 50.7357C10.6293 51.6308 10.797 52.5225 10.9009 53.4176C10.9344 53.706 11.0819 53.897 11.3669 53.9876C11.5446 54.0446 11.7155 54.1351 11.8932 54.1887C12.3324 54.3228 12.5838 54.1451 12.5235 53.7093C12.272 51.956 12.3056 50.1859 12.148 48.4258C11.8698 45.3214 11.8128 42.1969 11.6552 39.0792C11.5848 37.6912 11.4976 36.3 11.4105 34.912C11.2596 32.3977 11.1054 29.8833 10.9378 27.1521ZM36.792 32.1027C36.7719 32.1027 36.7518 32.0993 36.7316 32.0993C36.7886 30.9327 36.8557 29.7694 36.906 28.6024C36.9194 28.2651 36.906 27.9248 36.8758 27.5882C36.8557 27.3392 36.7082 27.1514 36.4433 27.1645C36.0678 27.1826 35.6957 27.2336 35.3236 27.2892C35.166 27.3127 35.0588 27.4374 35.0219 27.5899C34.9749 27.7723 34.9448 27.9604 34.9314 28.1474C34.7838 30.2856 34.6397 32.4279 34.4989 34.5667C34.3514 36.8565 34.2307 39.1496 34.0564 41.4393C33.8921 43.6519 33.7982 45.8712 33.6071 48.0839C33.4127 50.3334 33.3792 52.5963 33.2752 54.8525C33.2685 55 33.2652 55.1542 33.2887 55.3017C33.3188 55.5129 33.4529 55.6303 33.6708 55.637C34.1704 55.6571 34.4821 55.466 34.6263 55.0168C34.6933 54.8056 34.7134 54.5742 34.7403 54.353C34.9682 52.3348 35.1996 50.3166 35.4175 48.2984C35.5784 46.8032 35.7695 45.3114 35.9136 43.8128C36.1014 41.8248 36.3294 39.8469 36.3528 37.8488C36.3562 37.5471 36.3763 37.2454 36.3997 36.9436C36.5271 35.3311 36.6612 33.7186 36.792 32.1027ZM19.5771 26.795C19.5402 27.6637 19.4296 28.4549 19.4865 29.2336C19.7179 32.3876 19.4966 35.5524 19.7145 38.7104C19.8486 40.695 19.795 42.6965 19.7849 44.6912C19.7682 47.4771 20.09 50.2529 20.0431 53.0422C20.0263 53.8602 20.1269 54.6949 20.3448 55.4995C20.4387 55.8381 20.623 56.0192 20.9784 56.0158C21.1293 56.0158 21.2801 56.046 21.431 56.056C21.7092 56.0795 21.8266 55.9152 21.9037 55.6772C22.021 55.3017 21.9271 54.9296 21.9171 54.5541C21.8567 52.5225 21.6221 50.4976 21.6858 48.4627C21.7093 47.6715 21.7796 46.8837 21.7897 46.0925C21.8098 44.3224 21.8869 42.549 21.7796 40.7856C21.7059 39.582 21.6288 38.3852 21.6355 37.1783C21.6422 36.3502 21.6355 35.5222 21.612 34.6941C21.5517 32.6257 21.4779 30.5572 21.4109 28.4884C21.3639 27.0445 21.4276 26.7069 19.5771 26.795ZM31.8035 36.4072C31.8035 34.2214 31.8035 31.6635 31.8001 29.1072C31.8001 28.6567 31.7767 28.2054 31.7499 27.7552C31.7398 27.5366 31.5756 27.4357 31.3845 27.3861C31.123 27.318 30.8648 27.3666 30.6067 27.432C30.3586 27.4947 30.2212 27.6506 30.201 27.904C30.1843 28.0911 30.1709 28.2789 30.1675 28.4666C30.0904 30.7181 30.0167 32.971 29.9429 35.2238C29.9362 35.4518 29.9261 35.6764 29.906 35.901C29.7686 37.5102 29.6144 39.1194 29.497 40.7319C29.3696 42.5322 29.2791 44.3325 29.1752 46.1327C29.1148 47.1452 29.0243 48.1576 29.0176 49.1734C29.0042 50.9771 29.0579 52.7807 29.0612 54.5843C29.0612 55.8616 29.1685 55.9756 30.3955 55.7945C30.8045 55.7376 30.9352 55.6336 30.9654 55.238C31.0157 54.6078 31.0626 53.9708 31.0526 53.3372C31.0157 50.9268 31.1263 48.5264 31.3375 46.1294C31.6124 43.0183 31.6828 39.8972 31.8035 36.4072ZM17.3108 44.5671C17.3645 45.469 17.4382 46.3708 17.4617 47.2726C17.4986 48.6638 17.5052 50.0551 17.5153 51.4464C17.522 52.0465 17.5187 52.6466 17.5086 53.25C17.4952 53.897 17.6326 54.5173 17.8204 55.1308C17.9075 55.4124 18.0852 55.5599 18.3668 55.6336C18.6619 55.7141 18.9535 55.7644 19.2586 55.7409C19.4329 55.7275 19.5301 55.6269 19.5469 55.4626C19.5704 55.2414 19.5804 55.0134 19.5771 54.7888C19.5737 53.8099 19.557 52.8343 19.5603 51.8554C19.5637 51.1011 19.5369 50.3535 19.4564 49.6025C19.3961 49.0427 19.3591 48.4761 19.3625 47.9129C19.3625 45.774 19.2351 43.6352 19.272 41.4929C19.2988 40.0648 19.1714 38.6366 19.158 37.2085C19.1312 34.0102 19.0641 30.8153 18.9502 27.6198C18.9099 26.5212 18.7591 26.493 17.6796 26.3535C17.569 26.3391 17.455 26.3468 17.341 26.3539C17.0828 26.3696 16.932 26.5138 16.8918 26.7679C16.8716 26.8785 16.8683 26.9925 16.8683 27.1048C16.8381 28.7975 16.8448 30.4868 17.0392 32.1731C17.0996 32.6961 17.1499 33.219 17.103 33.7487C17.0761 34.084 17.0829 34.4293 17.1432 34.7578C17.2706 35.4685 17.2605 36.186 17.2605 36.9001C17.2572 39.4546 17.1767 42.0126 17.3108 44.5671ZM16.7375 41.8315C16.7543 41.8315 16.7677 41.8315 16.7845 41.8315C16.7845 41.0035 16.7878 40.1754 16.7845 39.3474C16.7711 36.5648 16.7543 33.7823 16.3755 31.0165C16.3587 30.9025 16.3587 30.7885 16.3587 30.6779C16.352 29.6996 16.3386 28.722 16.3487 27.7441C16.3621 25.9187 16.0871 26.079 14.5919 25.7491C14.3707 25.7005 14.2232 25.8071 14.193 26.0267C14.1662 26.2114 14.1595 26.4021 14.1696 26.5892C14.2634 28.7311 14.3606 30.8723 14.4579 33.0145C14.488 33.6917 14.5249 34.3689 14.5383 35.0461C14.5752 37.1884 14.5584 39.3272 14.7663 41.4695C14.9607 43.5245 14.9473 45.5997 15.0211 47.6682C15.0512 48.5331 15.0412 49.4014 15.1082 50.263C15.2122 51.6107 15.249 52.9684 15.4871 54.306C15.5273 54.524 15.5742 54.7519 15.6647 54.9531C15.7888 55.228 16.3017 55.3956 16.6604 55.3151C16.8683 55.2682 17.0359 55.0134 17.0325 54.6815C17.0124 53.5182 16.9789 52.3549 16.9521 51.195C16.9387 50.7055 16.9152 50.216 16.9085 49.7299C16.8716 47.4704 16.8415 45.2142 16.8046 42.9546C16.7979 42.5791 16.761 42.207 16.7375 41.8315ZM24.3443 41.6505C24.3476 41.6505 24.351 41.6505 24.3543 41.6505C24.3543 40.4067 24.3811 39.163 24.3476 37.9226C24.2672 34.7612 24.3879 31.5965 24.2169 28.4347C24.1431 27.0405 24.1632 27.1286 22.8223 27.0227C22.6714 27.0106 22.5205 27.0052 22.3697 27.0113C22.1618 27.02 22.0177 27.1212 21.9908 27.3412C21.9741 27.49 21.9607 27.6405 21.9607 27.7904C21.9607 28.8441 21.9339 29.9001 21.9808 30.9528C22.0311 32.153 21.8434 33.3598 22.0713 34.56C22.192 35.1869 22.1685 35.8273 22.1417 36.4709C22.0914 37.7851 22.0981 39.0959 22.2121 40.4168C22.3462 41.9891 22.3429 43.5782 22.306 45.1572C22.2691 46.6222 22.1283 48.0872 22.1786 49.559C22.2423 51.5101 22.192 53.4713 22.5943 55.4023C22.7418 56.103 22.8424 56.2136 23.5632 56.1667C23.6738 56.16 23.7878 56.1499 23.8984 56.1298C24.3175 56.0627 24.4147 55.9622 24.4046 55.5465C24.3946 55.0939 24.3476 54.6446 24.3443 54.1921C24.3409 50.0115 24.3443 45.831 24.3443 41.6505ZM14.0824 36.6754C14.0824 35.8876 14.1226 35.0931 14.0757 34.3086C13.9282 31.868 13.7337 29.4321 13.6902 26.9871C13.6633 25.3032 13.6432 25.6217 12.1949 25.0712C12.091 25.032 11.9804 25.0129 11.8664 24.9998C11.6988 24.9804 11.5546 25.0521 11.5345 25.2197C11.4809 25.6284 11.4172 26.0424 11.4339 26.4514C11.5043 28.2165 11.5345 29.9873 11.7055 31.744C11.9066 33.7655 11.8832 35.7971 12.034 37.822C12.1547 39.468 12.1078 41.1242 12.2352 42.7736C12.3726 44.5336 12.4062 46.3037 12.4933 48.0705C12.5067 48.332 12.5235 48.6002 12.5905 48.8516C12.7179 49.3276 12.7414 49.8137 12.7749 50.3032C12.8453 51.3157 12.9224 52.3281 13.0197 53.3372C13.0465 53.6322 13.1571 53.9205 13.2208 54.2122C13.2845 54.5005 13.4655 54.6614 13.7505 54.7318C13.9684 54.7821 14.1796 54.8659 14.4009 54.9095C14.8266 54.9933 15.0244 54.8123 14.9909 54.3496C14.9239 53.3774 14.8233 52.4052 14.7663 51.4296C14.6858 50.0048 14.6188 48.5767 14.5618 47.1485C14.4847 45.2343 14.5014 43.31 14.3238 41.4058C14.1762 39.8268 14.1796 38.2511 14.0824 36.6754ZM26.986 38.4657C26.9927 38.4657 27.0028 38.4657 27.0095 38.4657C27.0095 38.2042 27.0095 37.9393 27.0095 37.6745C27.0195 34.6271 27.0396 31.5797 27.0396 28.5296C27.0363 27.4243 27.224 27.2714 25.7724 27.3331C25.6953 27.3365 25.6216 27.3405 25.5445 27.3338C24.8639 27.2751 24.7399 27.4367 24.6862 28.1914C24.6762 28.3402 24.7097 28.4914 24.7131 28.6416C24.7466 29.994 24.8069 31.3484 24.8069 32.7028C24.8103 35.8273 24.7801 38.9518 24.7734 42.0763C24.7667 44.1447 24.8304 46.2166 24.7734 48.285C24.7063 50.615 24.884 52.9349 24.931 55.2582C24.9444 55.9152 25.1891 56.103 25.8596 56.0829C25.9334 56.0829 26.0071 56.0761 26.0842 56.0694C26.6005 56.0192 26.7111 55.9119 26.7849 55.3755C26.805 55.2246 26.8117 55.0738 26.8184 54.9229C26.8955 52.784 26.9223 50.6452 26.9659 48.5029C27.0363 45.1605 26.986 41.8114 26.986 38.4657ZM39.3399 10.9319C40.4696 11.0599 41.3178 10.836 42.176 10.7602C43.4131 10.6509 44.6367 10.4333 45.8134 10.0049C47.0136 9.5674 48.2172 9.13493 49.4173 8.70112C49.6218 8.62804 49.7258 8.49662 49.6855 8.27536C49.528 7.39936 49.0184 6.693 48.5658 5.96082C48.4787 5.82437 48.2976 5.79823 48.1568 5.85723C47.9155 5.95847 47.6875 6.09625 47.4562 6.21963C47.1611 6.37686 46.9231 6.62595 46.5745 6.7034C45.9073 6.85057 45.3073 7.16704 44.7005 7.47312C43.7215 7.96694 42.7158 8.39102 41.5726 8.27838C41.3513 8.25659 41.12 8.31492 40.9021 8.35817C38.8973 8.7494 36.8657 8.88417 34.8375 8.96228C33.2987 9.02128 31.7566 9.04609 30.2178 9.12589C29.9563 9.13963 29.6881 9.15035 29.43 9.12119C27.4822 8.90328 25.5377 8.71219 23.5766 8.73767C23.4994 8.73867 23.4257 8.71688 23.3519 8.71453C22.1082 8.67632 20.8845 8.42019 19.6341 8.43997C19.034 8.44936 18.4339 8.37996 17.8338 8.33705C17.3075 8.2995 16.7845 8.24183 16.2581 8.20563C14.6054 8.09265 12.9861 7.81675 11.3971 7.34036C10.3813 7.03629 9.43352 6.57566 8.49315 6.11269C7.53736 5.64267 7.5947 5.76672 7.2913 6.66249C7.19509 6.94712 7.11832 7.23979 7.05362 7.53346C6.93494 8.07087 7.01102 8.22071 7.52093 8.3585C8.60948 8.65352 9.69735 8.95792 10.797 9.19863C11.3166 9.31194 11.8228 9.43095 12.3123 9.63881C14.0287 10.3723 15.8391 10.6717 17.6829 10.8356C19.8956 11.0321 22.1015 11.2755 24.3141 11.4874C25.3601 11.5876 26.4027 11.7421 27.4621 11.7012C28.6656 11.6546 29.8725 11.6305 31.076 11.6878C33.007 11.78 34.9045 11.5588 36.7953 11.1923C37.7206 11.0123 38.6627 10.9865 39.3399 10.9319ZM29.9496 15.9994C29.9496 16.0226 29.9496 16.0454 29.9496 16.0685C30.2513 16.0863 30.5497 16.1228 30.8514 16.1181C31.6795 16.1047 32.5075 16.0363 33.3322 16.0588C34.6129 16.0936 35.8868 16.1117 37.1608 15.9679C38.6191 15.8037 40.0674 15.63 41.4821 15.1808C42.803 14.7607 44.1506 14.4141 45.5252 14.1894C46.1185 14.0922 46.7052 13.9531 47.2885 13.7979C48.4954 13.4754 49.6252 12.9765 50.6645 12.2749C51.0399 12.0211 51.2512 11.6919 51.2679 11.2497C51.2914 10.6114 51.3015 9.97238 51.3048 9.33374C51.3048 9.00184 51.0902 8.82919 50.7952 8.94585C49.7459 9.35989 48.5926 9.47823 47.6238 10.1065C47.5031 10.1859 47.3489 10.2262 47.2081 10.2684C45.1497 10.8715 43.0779 11.3781 40.9222 11.5558C40.2081 11.6151 39.4974 11.5889 38.7867 11.6131C37.2781 11.665 35.8198 12.064 34.3279 12.2356C33.2786 12.3567 32.2326 12.424 31.1833 12.3908C29.9027 12.3499 28.6254 12.2856 27.3447 12.3654C26.6642 12.4079 25.9937 12.3516 25.3198 12.2715C23.4525 12.0502 21.5852 11.8189 19.7112 11.6489C18.0618 11.4991 16.4191 11.3204 14.783 11.074C14.3707 11.012 13.9718 10.9251 13.5829 10.7719C12.8118 10.4689 12.0542 10.1189 11.2596 9.90332C9.70005 9.48024 8.11869 9.13258 6.54404 8.76113C6.19069 8.67765 6.0596 8.78359 6.00529 9.12789C5.86113 10.0398 6.11725 10.9221 6.20107 11.8169C6.22017 12.0217 6.40757 12.1203 6.57285 12.2118C7.42471 12.6845 8.24574 13.2316 9.1385 13.6078C10.3846 14.1325 11.7189 14.4184 13.0431 14.6698C14.5551 14.9568 16.0972 15.0762 17.579 15.5418C18.0048 15.6753 18.4674 15.6836 18.9166 15.741C19.2519 15.7839 19.5972 15.7765 19.9224 15.856C20.6331 16.0293 21.3438 16.0068 22.0546 15.9237C22.6178 15.8576 23.1843 15.8171 23.7442 15.8855C24.7935 16.0139 25.8495 16.0048 26.9022 16.0004C27.918 15.9961 28.9338 15.9994 29.9496 15.9994ZM22.2389 1.07192C21.3707 1.14132 20.5024 1.16947 19.6508 1.31699C17.6125 1.66966 15.5608 1.89361 13.5091 2.14169C11.7859 2.35021 10.3042 3.18029 8.79052 3.9195C8.04795 4.28157 8.22295 4.71035 8.47305 5.22865C8.6115 5.51495 8.87299 5.67017 9.15929 5.78046C9.47476 5.90215 9.81671 5.97523 10.105 6.14185C11.2663 6.81201 12.5704 7.09496 13.8444 7.32159C15.5374 7.62164 17.2739 7.68533 18.9904 7.84222C19.2117 7.86267 19.4396 7.82613 19.6676 7.83149C19.966 7.83854 20.2744 7.82948 20.566 7.88145C22.1283 8.15769 23.7073 8.18083 25.283 8.25559C26.1848 8.29816 27.0832 8.32699 27.9817 8.45975C28.6086 8.55294 29.2556 8.57172 29.8926 8.55093C32.1455 8.47718 34.395 8.35884 36.6478 8.28273C38.6828 8.21367 40.6574 7.69103 42.6823 7.53346C42.9706 7.511 43.2522 7.35243 43.5304 7.2475C44.3786 6.9317 45.153 6.46369 45.9945 6.13381C46.6147 5.89109 47.1712 5.47472 47.7378 5.11063C48.1032 4.87697 48.073 4.55915 47.6674 4.34593C47.1712 4.08444 46.6616 3.84374 46.1521 3.61243C45.9844 3.53666 45.79 3.47932 45.609 3.482C45.1832 3.4877 44.7943 3.34959 44.4021 3.22387C42.6387 2.6573 40.8418 2.32071 38.9845 2.27177C37.2949 2.22718 35.6186 1.98178 33.929 1.8926C32.6215 1.8232 31.3208 1.56573 30.0032 1.49567C27.4151 1.35822 24.827 1.21374 22.2389 1.07192ZM12.5134 15.3531C12.6308 15.4815 12.6542 15.5093 12.6777 15.5321C12.8923 15.7182 13.3012 15.6166 13.3784 15.9854C13.4219 16.1895 13.1269 16.2063 12.4866 16.0105C12.2721 15.9448 12.0642 15.8499 11.8496 15.7839C10.6629 15.4198 9.47476 15.0695 8.25514 14.8358C8.05265 14.7972 7.79382 14.6571 7.64128 14.9109C7.50115 15.1429 7.62152 15.69 7.8458 15.8419C8.12439 16.031 8.41639 16.2214 8.73018 16.332C9.33161 16.5439 9.90152 16.8466 10.5422 16.9562C10.7165 16.9864 10.8808 17.1001 11.0383 17.1966C11.0786 17.2207 11.0752 17.3277 11.0752 17.3964C11.0752 17.4195 11.0182 17.4611 10.9881 17.4608C10.8808 17.4608 10.7702 17.4631 10.6662 17.435C9.94109 17.2345 9.21194 17.0461 8.49652 16.8154C7.80223 16.5918 7.72912 16.7363 7.7613 17.4293C7.76298 17.4668 7.77036 17.5044 7.77103 17.5419C7.77941 17.9201 7.90581 18.199 8.33191 18.2533C8.55552 18.2818 8.78414 18.3204 8.95277 18.4903C8.99702 18.5349 9.03156 18.6221 9.02084 18.6804C9.01011 18.7401 8.94172 18.8299 8.89211 18.8346C8.70873 18.8517 8.52266 18.8363 8.33793 18.8376C7.96514 18.84 7.83438 18.95 7.86221 19.2919C7.92992 20.1169 8.01275 20.941 8.09756 21.7647C8.11299 21.9125 8.16326 22.0577 8.20583 22.2018C8.32987 22.6222 8.56858 22.9263 9.0044 23.0792C9.60751 23.2911 10.2137 23.5019 10.7903 23.7765C12.1581 24.4292 13.6164 24.7913 15.0613 25.2006C15.7117 25.3843 16.3822 25.4933 17.046 25.6224C17.3879 25.6887 17.6628 25.6267 17.9612 25.3625C18.977 24.4684 20.0397 23.6253 21.2566 23.0094C22.259 22.4999 23.2547 21.9511 24.3074 21.5635C26.0238 20.9323 27.8442 20.8565 29.6512 20.8669C30.9386 20.8743 32.1622 21.2152 33.3825 21.6507C35.5985 22.4399 37.6402 23.5318 39.5879 24.8228C39.8059 24.9683 40.0003 25.1567 40.2316 25.2797C40.6942 25.5271 41.1368 25.6566 41.7033 25.4306C42.994 24.9157 44.3283 24.5003 45.6425 24.045C46.2124 23.8479 46.779 23.6441 47.3489 23.4573C47.9658 23.2565 48.2507 22.8408 48.2775 22.1968C48.311 21.4455 48.2909 20.6909 48.4284 19.9446C48.4921 19.6117 48.415 19.5584 47.9859 19.4749C47.8417 19.4471 47.6942 19.4206 47.5567 19.371C47.4226 19.3231 47.4159 19.0777 47.5232 18.9862C47.6472 18.8799 47.7847 18.8661 47.9356 18.8504C48.3412 18.8081 48.5156 18.5651 48.5223 18.1621C48.5256 17.9006 48.5893 17.6408 48.6128 17.379C48.6329 17.1225 48.4418 16.9264 48.1971 16.9827C47.7579 17.083 47.3288 17.2214 46.8929 17.3324C46.836 17.3471 46.732 17.3166 46.6985 17.271C46.6214 17.1705 46.6683 17.0387 46.7555 16.9861C47.2114 16.7169 47.7042 16.5342 48.2105 16.389C48.5625 16.2888 48.7971 16.0692 48.8642 15.692C48.9011 15.4952 48.7301 15.3125 48.5357 15.3695C47.7378 15.5988 46.9466 15.8328 46.1521 16.0722C45.8269 16.1714 45.495 16.2267 45.153 16.2046C45.096 16.2006 45.0055 16.1402 44.9955 16.093C44.9854 16.0373 45.0323 15.9535 45.0793 15.9082C45.1296 15.86 45.21 15.8265 45.2804 15.8137C46.0984 15.6672 46.8527 15.3129 47.6439 15.0802C48.1803 14.922 48.5357 14.5787 48.8609 14.0547C48.358 14.0339 48.0294 14.3383 47.6272 14.4043C46.779 14.5438 45.9476 14.7825 45.086 14.8911C43.9663 15.0319 42.8834 15.3558 41.8039 15.6779C40.8283 15.9686 39.8494 16.2371 38.8403 16.3786C35.9237 16.7873 32.9869 16.7658 30.0535 16.6874C28.736 16.6522 27.4218 16.566 26.1043 16.617C25.5445 16.6388 24.9745 16.5885 24.4147 16.5338C23.5497 16.4493 22.6915 16.4007 21.8266 16.5328C21.4947 16.5834 21.1494 16.6119 20.8141 16.5781C19.7313 16.4674 18.6518 16.3283 17.5689 16.1885C17.3477 16.1597 17.1298 16.0883 16.9152 16.0222C16.0134 15.746 15.0915 15.5482 14.1528 15.4617C13.6365 15.4141 13.1303 15.1851 12.5134 15.3531ZM10.3444 61.9363C10.3712 62.3151 10.4215 62.6135 10.4047 62.9085C10.3578 63.6091 10.6897 64.0415 11.2965 64.3299C12.0441 64.6852 12.785 65.054 13.5225 65.4328C14.7998 66.09 16.1341 66.5928 17.5455 66.8744C18.9066 67.1426 20.2677 67.4275 21.6388 67.6454C22.6412 67.8064 23.657 67.9271 24.6695 67.9607C26.624 68.0209 28.5818 68.0009 30.5363 67.8634C31.7365 67.7795 32.94 67.679 34.1 67.3237C35.9673 66.7538 37.8748 66.3045 39.6684 65.5033C40.6942 65.044 41.757 64.6585 42.7191 64.0551C43.0644 63.8404 43.2622 63.6126 43.3125 63.18C43.3863 62.5095 43.5505 61.8491 43.6913 61.1887C43.9428 60.0119 43.9897 59.9482 42.7426 60.0555C42.6688 60.0622 42.585 60.0756 42.518 60.0522C42.461 60.0321 42.3939 59.965 42.3839 59.9114C42.3738 59.851 42.4074 59.737 42.4543 59.7169C42.6588 59.6298 42.87 59.5292 43.0879 59.4957C43.8187 59.3884 44.1138 58.9492 44.1004 58.2452C44.1004 58.1714 44.1305 58.0977 44.1372 58.0239C44.1707 57.6719 44.0601 57.5512 43.678 57.5881C43.3796 57.6183 43.0879 57.6954 42.7896 57.739C42.6052 57.7658 42.4174 57.7826 42.233 57.7792C42.1794 57.7792 42.0922 57.7122 42.0855 57.6619C42.0755 57.6049 42.1157 57.5009 42.1626 57.4741C42.3973 57.3601 42.6353 57.2495 42.8834 57.1657C43.1315 57.0819 43.3963 57.0417 43.6444 56.9545C44.0635 56.8103 44.325 56.4986 44.4289 56.0728C44.4524 55.9756 44.4121 55.8515 44.3685 55.7543C44.3116 55.6236 44.1741 55.6437 44.0735 55.6772C43.4667 55.8784 42.8733 56.1231 42.2565 56.2941C41.3748 56.5354 40.473 56.7131 39.5242 56.5757C39.6315 56.2974 39.8293 56.2639 40.0103 56.2605C41.6463 56.2136 43.051 55.4928 44.4457 54.7385C44.506 54.705 44.563 54.6413 44.5898 54.5776C44.62 54.5139 44.6334 54.4267 44.6099 54.3664C44.5865 54.3094 44.5093 54.2356 44.4557 54.2356C44.3082 54.2356 44.1439 54.2356 44.0165 54.296C42.6756 54.9296 41.2105 55.1408 39.8159 55.59C38.6694 55.9588 37.4859 56.1767 36.2656 56.2069C35.1794 56.2304 34.0899 56.341 33.007 56.4114C31.5487 56.5019 30.0737 56.3645 28.6254 56.6829C26.7815 56.5891 24.9444 56.7131 23.1005 56.7466C22.3127 56.7601 21.5081 56.75 20.737 56.6159C18.2931 56.1968 15.8055 56.0259 13.4018 55.3654C13.0465 55.2649 12.6878 55.2112 12.3324 55.0604C11.6787 54.7821 10.9881 54.5709 10.2706 54.4971C10.1768 54.4871 10.0339 54.5374 9.98231 54.6111C9.87906 54.7553 9.97295 54.9162 10.0889 55.0034C10.2673 55.1375 10.4617 55.2615 10.6729 55.3319C11.0618 55.466 11.4641 55.5699 11.8697 55.6571C12.785 55.8649 13.7069 56.056 14.6288 56.2471C14.8434 56.2941 15.1853 56.2739 15.1216 56.5522C15.0713 56.7802 14.7227 56.6461 14.5249 56.6159C13.4856 56.4449 12.4531 56.2505 11.4172 56.056C10.9411 55.9689 10.4651 55.8616 9.97629 55.7644C9.92567 55.8985 9.86196 55.999 9.85391 56.103C9.78988 56.9176 9.83346 56.988 10.6025 57.2328C11.1389 57.4037 11.6988 57.511 12.1983 57.7859C12.3257 57.8563 12.4464 57.9468 12.5469 58.0508C12.5838 58.0843 12.5838 58.1983 12.5537 58.2519C12.5268 58.3055 12.4296 58.3692 12.3827 58.3558C12.2017 58.3122 12.0273 58.2418 11.853 58.1748C11.397 57.9938 10.9445 57.8127 10.4483 57.7725C10.1701 57.749 10.0175 57.8697 10.0266 58.1547C10.049 58.8688 10.103 59.5761 10.1969 60.2835C10.274 60.8601 10.5288 61.1719 10.9948 61.3965C11.2998 61.544 11.6116 61.6748 11.9134 61.829C12.0139 61.8826 12.0743 62.0134 11.9972 62.1106C11.9368 62.1877 11.8027 62.2648 11.7223 62.248C11.2898 62.1542 10.9143 61.8323 10.3444 61.9363ZM10.8841 14.7798C10.921 14.8418 10.9512 14.9082 10.9948 14.9635C11.0149 14.9863 11.0685 15.0028 11.0953 14.9914C11.1859 14.9508 11.1691 14.9176 11.0518 14.8804C10.9881 14.8593 10.9311 14.8043 10.8707 14.7667C10.8439 14.7822 10.8204 14.8023 10.7936 14.811C10.7769 14.8174 10.75 14.8086 10.7299 14.8066C10.7802 14.7976 10.8305 14.7889 10.8841 14.7798ZM48.824 22.5207C49.2699 22.471 49.6118 22.1844 49.9672 22.4861C50.1214 22.6149 50.2588 22.7423 50.1985 22.9525C49.7526 24.5714 49.9504 26.2436 49.7861 27.8846C49.6252 29.4914 49.5313 31.1036 49.2363 32.6994C49.0687 33.5845 49.0787 34.493 48.9648 35.3914C48.6798 37.6275 48.3747 39.8636 48.0596 42.0997C47.6808 44.8152 47.0975 47.5005 46.8728 50.2429C46.8024 51.0977 46.6348 51.956 46.5342 52.8142C46.494 53.136 46.3733 53.3942 46.0247 53.478C45.5453 53.5987 45.3978 53.9507 45.3374 54.3966C45.0525 56.4449 44.744 58.4933 44.4725 60.5416C44.3484 61.4736 44.278 62.4123 44.1942 63.3476C44.164 63.7063 44.0568 64.0248 43.7383 64.2059C43.1985 64.5176 43.2388 65.0976 43.0879 65.5804C43.0209 65.8016 43.2052 66.0027 43.3528 66.1771C43.5673 66.4319 43.5003 66.6766 43.2958 66.8845C43.1147 67.0688 42.9203 67.2633 42.6923 67.3841C41.5324 68.0043 40.3456 68.5708 39.0516 68.859C38.3911 69.0066 37.7307 69.1608 37.0635 69.2647C36.326 69.3855 35.5951 69.6133 34.8308 69.4558C34.6531 69.419 34.4587 69.476 34.2709 69.4927C32.9601 69.5933 31.6594 69.7676 30.3687 70.019C29.3965 70.2068 28.4075 70.1632 27.4453 70.0895C26.5469 70.0224 25.645 70.0158 24.7432 69.9822C23.7241 69.9419 22.7217 69.8447 21.7193 69.6603C21.498 69.6201 21.2734 69.5632 21.0522 69.5664C19.8654 69.5866 18.7423 69.2982 17.6192 68.9563C16.0402 68.4769 14.4512 68.0243 12.8721 67.5416C12.5168 67.4342 12.1815 67.2466 11.8362 67.1058C11.2294 66.8576 10.8472 66.4923 10.8975 65.7547C10.9243 65.3423 10.7568 64.9467 10.3209 64.7322C9.93841 64.5444 9.83916 64.1724 9.80798 63.7869C9.68394 62.2514 9.56997 60.716 9.44693 59.1805C9.38692 58.4329 9.37618 57.682 9.22699 56.9377C9.11066 56.3544 9.16732 55.7376 9.15994 55.1341C9.15592 54.8156 9.10497 54.5441 8.75598 54.4133C8.38821 54.2759 8.2833 53.9943 8.29704 53.6054C8.33627 52.4756 8.2169 51.3525 8.1066 50.2295C7.95608 48.694 7.81194 47.1586 7.81228 45.6131C7.81228 44.7884 7.74455 43.9637 7.66309 43.1356C7.58229 42.3143 7.56454 41.4829 7.59839 40.6582C7.65639 39.2568 7.44985 37.879 7.31173 36.4944C7.24066 35.7837 7.16559 35.0797 7.18068 34.3656C7.18168 34.3287 7.18636 34.2885 7.18133 34.2516C6.99661 32.8737 6.93558 31.4825 6.8216 30.0979C6.77835 29.5736 6.73512 29.0509 6.72607 28.5246C6.69355 26.6442 6.66169 24.7635 6.62582 22.8831C6.61442 22.2813 6.61343 22.2578 7.29733 22.106C7.47803 22.0657 7.55982 22.0077 7.56451 21.8398C7.56753 21.7278 7.55278 21.6152 7.54205 21.5028C7.38314 19.8199 7.21485 18.138 7.06835 16.4537C7.00331 15.7051 6.93458 14.9515 6.95537 14.2022C6.97448 13.5082 6.76931 13.0315 6.08104 12.8173C5.57248 12.6587 5.46454 12.3349 5.45449 11.7934C5.43907 10.9721 5.31936 10.1477 5.32674 9.32066C5.32909 9.02631 5.20001 8.8255 4.98747 8.64614C4.80677 8.49294 4.67134 8.30821 4.83896 8.06415C4.98982 7.84423 5.15445 7.63437 5.4669 7.66354C5.50411 7.66722 5.54064 7.67829 5.57752 7.68533C5.75755 7.71986 5.99926 7.84156 6.10285 7.76814C6.26846 7.65113 6.38209 7.41679 6.44713 7.20995C6.60537 6.70775 6.78006 6.19985 6.84275 5.68156C6.92891 4.97352 7.29499 4.41634 7.6755 3.86486C8.02281 3.36198 8.4566 2.97713 9.11938 2.87119C9.59342 2.79575 10.042 2.57952 10.4852 2.36563C11.8262 1.71961 13.2711 1.42763 14.7428 1.36393C16.2548 1.29889 17.7332 1.02264 19.2184 0.808418C19.8553 0.717232 20.4923 0.634766 21.1259 0.635101C22.7753 0.635101 24.4247 0.516762 26.0809 0.715561C27.0028 0.825859 27.9549 0.781601 28.8902 0.86541C30.3117 0.99247 31.7331 1.12154 33.1579 1.23888C34.2039 1.32537 35.2565 1.3961 36.3059 1.47019C37.7675 1.57311 39.2259 1.71392 40.6943 1.74208C41.7838 1.76286 42.8532 1.97038 43.8858 2.37704C44.4691 2.60735 45.0726 2.88326 45.7397 2.76492C46.7153 3.05859 47.6372 3.46256 48.4351 4.10456C48.5993 4.23832 48.7603 4.46461 48.7905 4.66845C48.8977 5.3661 49.3503 5.88976 49.6386 6.49554C49.7828 6.80095 49.9638 7.09194 50.0812 7.4064C50.232 7.79495 50.4198 7.97264 50.8958 7.9847C51.63 8.00348 51.9149 8.41583 51.9049 9.17651C51.8915 10.0042 51.8479 10.8319 51.8646 11.659C51.8747 12.2179 51.6367 12.592 51.1841 12.8622C50.9561 12.9973 50.7248 13.1224 50.4901 13.2404C49.9839 13.4935 49.6688 13.881 49.5984 14.4526C49.3369 16.5737 48.8843 18.6737 48.9078 20.8267C48.9112 21.3496 48.8575 21.873 48.824 22.5207Z" fill="#DB713D"/>
<path d="M39.6462 57.9806C39.7501 57.9839 39.9378 57.9839 40.1222 58.0107C40.1759 58.0174 40.2463 58.0945 40.263 58.1549C40.3033 58.2789 40.2195 58.3896 40.1189 58.4164C39.606 58.5404 39.083 58.5706 38.56 58.5069C38.5064 58.5002 38.446 58.4197 38.4225 58.3594C38.3722 58.2286 38.4628 58.1381 38.5633 58.0945C38.8818 57.9571 39.2271 58.0007 39.6462 57.9806Z" fill="#DB713D"/>
<path d="M14.0362 61.9298C14.1904 61.923 14.3245 61.9767 14.425 62.094C14.5088 62.1946 14.482 62.2985 14.4016 62.3823C14.2943 62.4997 14.1401 62.4997 13.9926 62.4896C13.8417 62.4729 13.7076 62.4125 13.6707 62.2449C13.6372 62.094 13.835 61.9298 14.0362 61.9298Z" fill="#DB713D"/>
<path d="M14.126 58.5202C14.3171 58.5135 14.3674 58.6677 14.3774 58.8052C14.3841 58.8957 14.3171 59.0231 14.2433 59.0768C14.1293 59.1606 13.9215 58.9259 13.9248 58.7382C13.9282 58.6074 14.0087 58.5538 14.126 58.5202Z" fill="#DB713D"/>
<path d="M35.17 21.1747C35.1867 20.9304 35.693 20.3407 35.9444 20.3078C36.045 20.2941 36.1757 20.3283 36.2595 20.3869C36.5311 20.5747 36.6719 21.0852 36.5546 21.398C36.4406 21.7075 35.998 21.8774 35.5924 21.7685C35.3443 21.7021 35.1532 21.4319 35.17 21.1747Z" fill="#DB713D"/>
<path d="M27.8579 18.937C27.9451 18.95 28.0591 18.952 28.163 18.9859C28.3809 19.0556 28.5854 19.1482 28.629 19.4133C28.6726 19.6722 28.5485 19.8448 28.3373 19.9632C28.2066 20.0362 28.0691 20.1009 27.9283 20.1516C27.5361 20.294 27.2109 20.1606 27.1036 19.8213C26.9796 19.4237 27.1908 19.0711 27.6098 18.9836C27.6836 18.9681 27.7574 18.9557 27.8579 18.937Z" fill="#DB713D"/>
<path d="M23.5978 21.2057C23.3296 21.2171 23.0782 20.97 23.0279 20.6371C22.9709 20.2905 23.4671 19.8496 23.9163 19.8412C24.2013 19.8362 24.446 20.092 24.4728 20.4178C24.5097 20.852 24.1409 21.1825 23.5978 21.2057Z" fill="#DB713D"/>
<path d="M20.8913 22.0233C20.9282 22.3267 20.603 22.5902 20.1202 22.6495C19.8453 22.6834 19.604 22.5027 19.5704 22.2358C19.5134 21.808 19.8152 21.3504 20.1705 21.3273C20.4991 21.3058 20.8477 21.6427 20.8913 22.0233Z" fill="#DB713D"/>
<path d="M32.1196 20.4955C31.6804 20.4888 31.4391 20.2926 31.4424 19.948C31.4491 19.5853 31.8011 19.2306 32.1531 19.2363C32.4582 19.241 32.7465 19.5699 32.7532 19.9219C32.7599 20.2963 32.5319 20.5018 32.1196 20.4955Z" fill="#DB713D"/>
<path d="M17.0059 23.4685C17.3344 23.4699 17.5959 23.7045 17.5926 23.9959C17.5859 24.4595 17.254 24.8233 16.8651 24.7904C16.6002 24.7683 16.3287 24.4609 16.3321 24.1846C16.3354 23.7726 16.6237 23.4665 17.0059 23.4685Z" fill="#DB713D"/>
<path d="M39.0349 22.263C39.3433 22.2754 39.6081 22.606 39.6014 22.9727C39.5947 23.2641 39.3265 23.4837 38.9812 23.4756C38.6057 23.4666 38.2973 23.1732 38.3375 22.8638C38.3778 22.546 38.7197 22.2503 39.0349 22.263Z" fill="#DB713D"/>
<path d="M43.467 16.1404C43.5441 16.1471 43.6413 16.1894 43.6815 16.3064C43.7352 16.4727 43.6581 16.6014 43.524 16.6735C43.2558 16.8166 42.9708 16.8676 42.6959 16.698C42.6456 16.6681 42.6121 16.5732 42.6155 16.5089C42.6188 16.289 42.8334 16.181 43.3195 16.1408C43.3564 16.1378 43.3932 16.1404 43.467 16.1404Z" fill="#DB713D"/>
<path d="M41.7231 24.6024C41.6862 24.6724 41.636 24.8119 41.5488 24.9158C41.4851 24.9876 41.3678 25.0462 41.2672 24.94C41.1901 24.8622 41.1029 24.7918 41.0493 24.7006C40.9286 24.4907 40.9454 24.2765 41.123 24.1082C41.1867 24.0455 41.3242 23.9942 41.4013 24.0184C41.6427 24.0911 41.7164 24.2963 41.7231 24.6024Z" fill="#DB713D"/>
<path d="M45.3906 19.882C45.461 19.6255 45.5717 19.4703 45.7829 19.4877C46.0209 19.5078 46.0477 19.7241 46.0343 19.9048C46.0209 20.0476 45.9404 20.1998 45.7527 20.1723C45.5616 20.1441 45.4275 20.0305 45.3906 19.882Z" fill="#DB713D"/>
</svg>
