<svg xmlns="http://www.w3.org/2000/svg" width="53" height="86" fill="none" xmlns:v="https://vecta.io/nano"><ellipse cx="25.107" cy="70.824" rx="24.572" ry="14.796" fill="#ebd3c1"/><mask id="A" maskUnits="userSpaceOnUse" x="2.762" y=".152" width="51" height="72" fill="#000"><path fill="#fff" d="M2.762.152h51v72h-51z"/><path d="M11.973 16.15c-.027-.006-.064-.025-.087-.015-.08.037-.074.082.02.11.023.007.06-.008.08-.025.01-.008-.007-.046-.013-.07zm17.751 11.668l2.28-.151c.359-.036.744.093 1.079-.142-.124-.493-.624-.447-.949-.636-.218-.126-.496-.161-.751-.207-1.317-.237-2.608.036-3.899.234-.282.043-.546.23-.811.366-.047.024-.084.128-.074.186.007.05.087.122.141.126l2.984.224zm-2.333-3.024c-.302-.079-.597.02-.895.028-.778.021-1.428.405-2.129.664-.788.291-1.472.735-2.142 1.214-.124.088-.262.2-.228.359s.194.207.345.222l1.79.181c.526.097.949-.039 1.385-.299.942-.559 1.931-.996 3.041-1.092l.788-.065c1.532-.223 2.977.035 4.328.804l1.09.582c.198.102.392.221.634.198l1.569-.15a.22.22 0 0 0 .151-.134c.017-.058-.017-.154-.06-.198-.107-.104-.228-.194-.349-.28-1.549-1.094-3.342-1.503-5.169-1.741-1.371-.18-2.769-.107-4.147-.292zm12.22 2.217l-.677-.588c-.305-.22-.63-.408-.945-.61-1.331-.845-2.652-1.686-4.144-2.245-2.112-.79-4.254-1.181-6.507-.9-1.12.139-2.256.302-3.282.727-1.522.628-3.004 1.379-4.291 2.442-.305.251-.865.413-.737.867.101.351.664.199 1.002.338.443.181.825.044 1.116-.294.687-.791 1.623-1.219 2.518-1.671 1.106-.556 2.259-.997 3.554-.889l3.473.18c.838-.001 1.649.107 2.454.283.513.111 1.012.283 1.512.442 1.371.436 2.648 1.035 3.678 2.073.07.071.198.129.298.124.325-.018.667.011.979-.277zm6.142-.733v-.079c.003-.287-.154-.415-.416-.353-.684.163-1.16.497-1.19 1.281-.013.411-.111.818-.151 1.229l-.657 6.959-.768 6.946-.389 5.059-.248 3.594-.141 1.683c-.124.664-.181 1.341-.245 2.015-.023.258-.013.54.268.684.201.101.493-.208.56-.577.007-.037.01-.074.013-.111l.275-3.487c.124-2.514.399-5.015.795-7.503l.506-3.684.714-6.044.285-2.008.359-2.451c.215-1.024.292-2.079.429-3.154zm-6.929 3.676l-.03-.002.101-1.352c.044-.566-.04-.651-.61-.597-.184.018-.372.049-.553.09-.164.037-.251.157-.265.322l-.027.451-.516 8.224-.426 6.085-.298 3.259c-.258 1.978-.637 3.942-.607 5.947.003.302-.057.6-.077.902l-.184 2.813c-.017.332.137.463.483.456.506-.01.62-.09.701-.536l.067-.56.446-7.322.811-8.415c.285-1.505.339-3.061.523-4.593l.463-5.171zm-3.929 39.952c.513.06 1.079.057 1.636-.06l2.97-.677c.738-.174 1.381-.576 2.052-.902.295-.144.526-.419.791-.627.134-.101.168-.228.178-.389.101-1.452.104-1.452-1.291-.885l-.945.372c-2.206 1.09-4.576 1.696-6.94 2.323-.362.097-.741.127-1.113.174-2.209.268-4.432.292-6.651.248-1.425-.027-2.856-.154-4.274-.325-1.116-.134-2.216-.402-3.326-.603s-2.206-.453-3.248-.915l-2.437-1.177c-.214-.121-.493-.352-.697-.07-.161.218.007.51.114.741.171.372.533.553.885.66l3.738 1.251c1.7.503 3.399.898 5.163 1.11l3.138.308 2.025.074c2.085.228 4.127-.174 6.172-.433l2.062-.198zm14.54-44.115v-.962c-.003-.159-.054-.296-.235-.329-.164-.031-.282.066-.382.18-.184.202-.275.445-.322.71l-1.204 6.417-1.023 8.737c-.328 4.238-.57 8.482-1.079 12.703-.007.074-.007.151.003.225.013.111.03.245.171.238.104-.007.218-.054.295-.121.184-.151.251-.375.288-.597l.335-2.226c.171-1.341.231-2.702.513-4.02.543-2.541.895-5.106 1.277-7.67.375-2.524.56-5.079.898-7.61.248-1.869.255-3.749.463-5.672zm-42.16 2.245c.001.023.034.287.026.549-.06 2.076.224 4.132.36 6.194.174 2.628.457 5.247.524 7.885.081 3.195.27 6.39.625 9.571.062.56.07 1.127.134 1.686.053.456.538.795.977.727.211-.033.365-.349.361-.754 0-.151-.003-.302-.027-.449-.147-.858-.148-1.727-.189-2.591-.062-1.314-.112-2.635-.272-3.939s-.239-2.622-.33-3.932l-.352-5.86-.414-6.984-.295-4.619c-.018-.26-.1-.515-.149-.773-.057-.302-.278-.427-.539-.513a.36.36 0 0 0-.495.301c-.013.074-.043.152-.032.222.159 1.01-.041 2.029.087 3.28zm35.854 26.751c.982-.194 1.043-.225 1.301-.999a5.16 5.16 0 0 0 .245-1.1l.644-5.944.489-6.417c.091-1.2.141-2.407.292-3.601.382-2.984.788-5.964 1.395-8.915l.456-2.326c.027-.155-.02-.316-.204-.335-.674-.069-1.214.271-1.395.872-.054.179-.09.365-.117.551l-.51 3.46-.65 4.923c-.127.969-.305 1.938-.349 2.913-.117 2.488-.623 4.922-.935 7.382-.225 1.757-.503 3.503-.523 5.28-.007.791-.05 1.576-.151 2.364-.08.624-.218 1.264.014 1.891zm-15.69-12.27c-.01 3.765.124 7.533-.144 11.294-.044.597-.02 1.2-.023 1.804-.003.339.023.677.134 1.002.087.252.258.352.513.335.248-.013.446-.094.476-.376.044-.449.124-.888.087-1.348-.144-1.653.164-3.309-.043-4.962-.017-.148.017-.298.027-.449l.439-6.534c.027-.412.067-.825.104-1.237.161-1.834.372-3.668.469-5.508.121-2.219.208-4.439.151-6.661-.04-1.456-.144-1.574-1.616-1.464-.215.016-.355.122-.386.337a3.51 3.51 0 0 0-.047.562c.01 1.317-.137 2.631-.067 3.948.057 1.016.09 2.035.037 3.047-.104 2.069-.117 4.14-.111 6.209zm4.127 10.104v2.367c0 .533.114 1.046.268 1.549.047.148.215.194.375.194s.305-.05.362-.208c.06-.174.101-.362.117-.546.087-.976.218-1.948.238-2.923.05-2.558.432-5.089.493-7.647.04-1.653.255-3.299.352-4.948l.587-10.81c.074-1.224-.08-1.245-1.217-1.314-.111-.007-.228-.002-.335.027-.144.04-.282.122-.315.285-.037.183-.054.371-.067.557-.097 1.349-.114 2.699-.114 4.053l-.117 7.664c-.05 1.84-.097 3.688-.292 5.518-.215 2.058-.402 4.11-.335 6.182zm5.599 2.293c.01.003.02.003.03.003 0 .376-.01.751.007 1.126.013.319.198.436.54.379.114-.02.221-.05.332-.067.298-.047.469-.191.496-.51l.225-2.357c.047-.563.044-1.126.091-1.69l.362-4.268c.161-1.72.178-3.456.459-5.166.104-.63.168-1.264.261-1.898.238-1.599.151-3.228.422-4.828.114-.667.134-1.348.194-2.022l.181-2.021.332-3.594c.033-.384-.094-.474-.449-.36-1.059.34-1.032.344-1.22 1.463-.144.857-.198 1.716-.241 2.581-.06 1.2-.077 2.417-.288 3.594-.278 1.559-.295 3.145-.6 4.697a18.69 18.69 0 0 0-.309 2.115l-.469 6.635-.181 3.265-.174 2.92zm2.364 1.029c.204-.037.422-.07.637-.117.325-.067.53-.235.543-.607.007-.181.104-.359.141-.543.56-2.813.637-5.679.892-8.525.124-1.348.158-2.705.302-4.05.194-1.794.496-3.577.647-5.377l.808-8.653c.037-.411.027-.828.024-1.242-.003-.109-.087-.206-.221-.194-.902.078-1.448.568-1.569 1.446l-.553 4.249c-.148 1.344-.251 2.699-.372 4.046l-.727 7.302c-.218 1.83-.302 3.674-.429 5.512l-.228 3.946c-.023.526.017 1.053-.101 1.576-.09.409-.05.818.208 1.234zm-28.59-27.791l-.003-1.7c-.003-.788-.057-.871-.803-1.142-.907-.33-1.258-.716-1.168.787l.209 2.813.201 4.723c.044 2.783.541 5.542.463 8.331-.002.074.01.151.018.225.106.969.255 1.934.312 2.907.127 2.216.392 4.419.443 6.641.02.895.188 1.787.292 2.682.034.288.181.479.466.57.178.057.349.148.526.201.439.134.691-.044.63-.479-.251-1.753-.218-3.523-.375-5.283-.278-3.104-.335-6.229-.493-9.347l-.245-4.167-.473-7.76zm25.854 4.951c-.02 0-.04-.003-.06-.003l.174-3.497c.013-.337 0-.677-.03-1.014-.02-.249-.168-.437-.432-.424-.375.018-.748.069-1.12.125-.157.023-.265.148-.302.301a3.15 3.15 0 0 0-.091.558l-.432 6.419-.443 6.873-.449 6.645c-.194 2.25-.228 4.513-.332 6.769-.007.148-.01.302.013.449a.36.36 0 0 0 .382.335c.5.02.811-.171.955-.62.067-.211.087-.443.114-.664l.677-6.054.496-4.486c.188-1.988.416-3.966.439-5.964.003-.302.023-.603.047-.905l.392-4.841zm-17.215-5.308c-.037.869-.147 1.66-.09 2.439.231 3.154.01 6.319.228 9.477.134 1.985.081 3.986.071 5.981-.017 2.786.305 5.562.258 8.351-.017.818.084 1.653.302 2.457.094.339.278.52.634.516.151 0 .302.03.453.04.278.024.396-.141.473-.379.117-.376.023-.748.013-1.123-.06-2.032-.295-4.056-.231-6.091.023-.791.094-1.579.104-2.37.02-1.77.097-3.544-.01-5.307-.074-1.203-.151-2.4-.144-3.607.007-.828 0-1.656-.023-2.484l-.201-6.206c-.047-1.444.017-1.781-1.834-1.693zm12.227 9.612l-.003-7.3c0-.451-.024-.902-.05-1.352-.01-.219-.174-.319-.365-.369-.262-.068-.52-.019-.778.046-.248.063-.386.219-.406.472-.017.187-.03.375-.034.563l-.225 6.757c-.007.228-.017.453-.037.677l-.409 4.831-.322 5.401c-.06 1.012-.151 2.025-.158 3.041-.013 1.804.04 3.607.044 5.411 0 1.277.107 1.391 1.334 1.21.409-.057.54-.161.57-.556.05-.63.097-1.267.087-1.901-.037-2.41.074-4.811.285-7.208.275-3.111.345-6.232.466-9.722zm-14.493 8.16l.151 2.705.054 4.174-.007 1.804c-.013.647.124 1.267.312 1.881.087.282.265.429.546.503.295.08.587.131.892.107.174-.013.272-.114.288-.278.023-.221.034-.449.03-.674l-.017-2.933c.003-.754-.023-1.502-.104-2.253a15 15 0 0 1-.094-1.69c0-2.139-.127-4.278-.091-6.42.027-1.428-.101-2.856-.114-4.285l-.208-9.589c-.04-1.099-.191-1.127-1.271-1.266-.111-.014-.225-.007-.339 0-.258.016-.409.16-.449.414a1.89 1.89 0 0 0-.024.337c-.03 1.693-.023 3.382.171 5.068.06.523.111 1.046.064 1.576a3.91 3.91 0 0 0 .04 1.009c.127.711.117 1.428.117 2.142-.003 2.555-.084 5.113.05 7.667zm-.573-2.736h.047v-2.484c-.013-2.782-.03-5.565-.409-8.331-.017-.114-.017-.228-.017-.339l-.01-2.934c.013-1.825-.261-1.665-1.757-1.995-.221-.049-.369.058-.399.278a2.86 2.86 0 0 0-.024.563l.288 6.425.081 2.032c.037 2.142.02 4.281.228 6.423.194 2.055.181 4.13.255 6.199.03.865.02 1.733.087 2.595.104 1.348.141 2.706.379 4.043.04.218.087.446.178.647.124.275.637.443.996.362.208-.047.375-.302.372-.634l-.081-3.487-.043-1.465-.104-6.775c-.007-.376-.044-.748-.067-1.123zm7.607-.181l.003-3.728c-.081-3.161.04-6.326-.131-9.488-.074-1.394-.054-1.306-1.395-1.412a3.8 3.8 0 0 0-.453-.011c-.208.009-.352.11-.379.33a4.02 4.02 0 0 0-.03.449c0 1.054-.027 2.11.02 3.162.05 1.2-.137 2.407.091 3.607.121.627.097 1.267.07 1.911-.05 1.314-.044 2.625.07 3.946.134 1.572.131 3.161.094 4.74-.037 1.465-.178 2.93-.127 4.402.064 1.951.013 3.912.416 5.843.147.701.248.811.969.764.111-.007.225-.017.335-.037.419-.067.516-.168.506-.583-.01-.453-.057-.902-.06-1.354V42.65zm-10.262-4.975c0-.788.04-1.582-.007-2.367-.148-2.44-.342-4.876-.386-7.321-.027-1.684-.047-1.365-1.495-1.916a1.36 1.36 0 0 0-.329-.071c-.168-.02-.312.052-.332.22-.054.409-.117.823-.101 1.232.07 1.765.101 3.536.271 5.292.201 2.022.178 4.053.329 6.078.121 1.646.074 3.302.201 4.952.137 1.76.171 3.53.258 5.297.013.261.03.53.097.781.127.476.151.962.184 1.452l.245 3.034c.027.295.137.583.201.875s.245.449.53.52c.218.05.429.134.65.178.426.084.624-.097.59-.56l-.225-2.92-.204-4.281c-.077-1.914-.06-3.839-.238-5.743-.147-1.579-.144-3.155-.241-4.73zm12.904 1.79h.023v-.791l.03-9.145c-.003-1.105.184-1.258-1.267-1.197-.077.003-.151.007-.228.001-.681-.059-.805.103-.858.858-.01.149.023.3.027.45l.094 4.061-.034 9.374v6.209c-.067 2.33.111 4.65.158 6.973.013.657.258.845.929.825.074 0 .147-.007.225-.013.516-.05.627-.158.701-.694.02-.151.027-.302.034-.453l.148-6.42c.07-3.342.02-6.691.02-10.037zM39.34 11.932c1.13.128 1.978-.096 2.836-.172 1.237-.109 2.461-.327 3.637-.755l3.604-1.304c.204-.073.308-.204.268-.426-.158-.876-.667-1.582-1.12-2.315-.087-.136-.268-.163-.409-.104-.241.101-.469.239-.701.362-.295.157-.533.406-.882.484-.667.147-1.267.464-1.874.77-.979.494-1.985.918-3.128.805-.221-.022-.453.037-.671.08-2.005.391-4.036.526-6.065.604l-4.62.164c-.262.014-.53.024-.788-.005-1.948-.218-3.892-.409-5.853-.383-.077.001-.151-.021-.225-.023-1.244-.038-2.467-.294-3.718-.275-.6.009-1.2-.06-1.8-.103l-1.576-.131c-1.653-.113-3.272-.389-4.861-.865-1.016-.304-1.964-.765-2.904-1.228-.956-.47-.898-.346-1.202.55-.096.285-.173.577-.238.871-.119.537-.043.687.467.825 1.089.295 2.176.599 3.276.84.52.113 1.026.232 1.515.44 1.717.733 3.527 1.033 5.371 1.197l6.631.652c1.046.1 2.089.255 3.148.214 1.203-.047 2.41-.071 3.614-.013 1.931.092 3.829-.129 5.719-.495.925-.18 1.867-.206 2.544-.261zm-9.39 5.068v.069c.302.018.6.054.902.05.828-.013 1.656-.082 2.481-.059 1.281.035 2.555.053 3.829-.091 1.458-.164 2.907-.338 4.321-.787 1.321-.42 2.669-.767 4.043-.991.593-.097 1.18-.236 1.763-.392 1.207-.322 2.337-.821 3.376-1.523.376-.254.587-.583.604-1.025.023-.638.033-1.277.037-1.916 0-.332-.215-.505-.51-.388-1.049.414-2.203.532-3.172 1.161-.121.08-.275.12-.416.162-2.058.603-4.13 1.11-6.286 1.287-.714.059-1.425.033-2.136.057-1.509.052-2.967.451-4.459.623-1.049.121-2.095.188-3.145.155-1.281-.041-2.558-.105-3.838-.025-.681.043-1.351-.014-2.025-.094l-5.609-.623c-1.649-.15-3.292-.328-4.928-.575-.412-.062-.811-.149-1.2-.302-.771-.303-1.529-.653-2.323-.869-1.56-.423-3.141-.771-4.716-1.142-.353-.083-.484.022-.539.367-.144.912.112 1.794.196 2.689.019.205.207.303.372.395.852.473 1.673 1.02 2.566 1.396 1.246.525 2.58.811 3.905 1.062 1.512.287 3.054.406 4.536.872.426.133.888.142 1.338.199.335.043.681.036 1.006.115.711.173 1.421.151 2.132.068.563-.066 1.13-.107 1.69-.038 1.049.128 2.105.119 3.158.115l3.047-.001zM22.239 2.072c-.868.069-1.737.098-2.588.245-2.038.353-4.09.577-6.142.825-1.723.209-3.205 1.039-4.719 1.778-.743.362-.568.791-.317 1.309.138.286.4.442.686.552.315.122.657.195.946.361 1.161.67 2.465.953 3.739 1.18 1.693.3 3.43.364 5.146.521.221.02.449-.016.677-.011.298.007.607-.002.898.05 1.562.276 3.141.299 4.717.374.902.043 1.8.071 2.699.204.627.093 1.274.112 1.911.091l6.755-.268c2.035-.069 4.009-.592 6.034-.749.288-.022.57-.181.848-.286.848-.316 1.623-.784 2.464-1.114.62-.243 1.177-.659 1.743-1.023.365-.234.335-.551-.07-.765a28.6 28.6 0 0 0-1.515-.734c-.168-.076-.362-.133-.543-.13-.426.006-.815-.132-1.207-.258-1.763-.567-3.56-.903-5.418-.952-1.69-.045-3.366-.29-5.055-.379-1.308-.069-2.608-.327-3.926-.397l-7.764-.424zm-9.726 14.281l.164.179c.215.186.624.084.701.453.044.204-.251.221-.892.025-.215-.066-.422-.161-.637-.227-1.187-.364-2.375-.714-3.595-.948-.202-.039-.461-.179-.614.075-.14.232-.02.779.205.931.279.189.571.38.884.49.601.212 1.171.515 1.812.624.174.03.339.144.496.24.04.024.037.131.037.2 0 .023-.057.065-.087.064-.107 0-.218.002-.322-.026-.725-.2-1.454-.389-2.17-.619-.694-.224-.767-.079-.735.614.002.038.009.075.01.113.008.378.135.657.561.711.224.029.452.067.621.237.044.045.079.132.068.19s-.079.149-.129.154c-.183.017-.369.002-.554.003-.373.002-.504.112-.476.454l.235 2.473c.015.148.066.293.108.437.124.42.363.725.799.877.603.212 1.209.423 1.786.697 1.368.653 2.826 1.015 4.271 1.424.65.184 1.321.293 1.985.422.342.066.617.004.915-.26 1.016-.894 2.079-1.737 3.296-2.353 1.002-.51 1.998-1.058 3.051-1.446 1.717-.631 3.537-.707 5.344-.697 1.287.007 2.511.348 3.731.784 2.216.789 4.258 1.881 6.206 3.172.218.145.412.334.644.457.463.247.905.377 1.472.151 1.291-.515 2.625-.93 3.939-1.386l1.706-.588c.617-.201.902-.617.929-1.261.034-.751.014-1.506.151-2.252.064-.333-.013-.386-.442-.47-.144-.028-.292-.054-.429-.104s-.141-.293-.034-.385c.124-.106.262-.12.412-.136.406-.042.58-.285.587-.688.003-.261.067-.521.09-.783.02-.256-.171-.452-.416-.396-.439.1-.868.239-1.304.35-.057.015-.161-.016-.195-.061-.077-.101-.03-.232.057-.285.456-.269.949-.452 1.455-.597.352-.1.587-.32.654-.697.037-.197-.134-.38-.328-.323l-2.384.703c-.325.099-.657.155-.999.133-.057-.004-.148-.064-.158-.112-.01-.056.037-.139.084-.185s.131-.082.201-.095c.818-.146 1.572-.501 2.363-.734.536-.158.892-.501 1.217-1.025-.503-.021-.831.284-1.234.35-.848.139-1.68.378-2.541.487-1.12.141-2.203.465-3.282.787-.975.291-1.955.559-2.963.701-2.917.409-5.853.387-8.787.309-1.318-.035-2.632-.121-3.949-.07-.56.022-1.13-.029-1.69-.083-.865-.084-1.723-.133-2.588-.001-.332.051-.677.079-1.012.045-1.083-.111-2.162-.25-3.245-.389-.221-.029-.439-.1-.654-.166a13.74 13.74 0 0 0-2.762-.56c-.516-.048-1.023-.277-1.639-.109zm-2.169 46.583c.027.379.077.677.06.972-.047.701.285 1.133.892 1.422a80.41 80.41 0 0 1 2.226 1.103c1.277.657 2.612 1.16 4.023 1.442l4.093.771c1.002.161 2.018.282 3.031.315 1.954.06 3.912.04 5.867-.097 1.2-.084 2.404-.184 3.564-.54 1.867-.57 3.775-1.019 5.568-1.82 1.026-.459 2.089-.845 3.051-1.448.345-.215.543-.442.593-.875.074-.67.238-1.331.379-1.991.251-1.177.298-1.24-.949-1.133-.074.007-.157.02-.225-.003-.057-.02-.124-.087-.134-.141-.01-.06.023-.174.07-.194.205-.087.416-.188.634-.221.731-.107 1.026-.546 1.013-1.25 0-.074.03-.148.037-.221.034-.352-.077-.473-.459-.436-.298.03-.59.107-.888.151-.184.027-.372.044-.556.04-.054 0-.141-.067-.148-.117-.01-.057.03-.161.077-.188.235-.114.473-.225.721-.308s.513-.124.761-.211c.419-.144.68-.456.784-.882.023-.097-.017-.221-.06-.319-.057-.131-.195-.111-.295-.077-.607.201-1.2.446-1.817.617-.882.241-1.784.419-2.732.282.107-.278.305-.312.486-.315 1.636-.047 3.041-.768 4.435-1.522.06-.034.117-.097.144-.161s.044-.151.02-.211-.101-.131-.154-.131c-.148 0-.312 0-.439.06-1.341.634-2.806.845-4.201 1.294-1.147.369-2.33.587-3.55.617-1.086.023-2.176.134-3.259.205-1.458.09-2.933-.047-4.382.271-1.844-.094-3.681.03-5.525.064-.788.013-1.592.003-2.364-.131-2.444-.419-4.931-.59-7.335-1.25-.355-.101-.714-.154-1.069-.305-.654-.278-1.344-.489-2.062-.563-.094-.01-.237.04-.288.114-.103.144-.009.305.107.392.178.134.373.258.584.329.389.134.791.238 1.197.325l2.759.59c.214.047.556.027.493.305-.05.228-.399.094-.597.064-1.039-.171-2.072-.365-3.108-.56-.476-.087-.952-.194-1.441-.292-.051.134-.114.235-.122.339-.064.815-.02.885.749 1.13.536.171 1.096.278 1.596.553a1.5 1.5 0 0 1 .349.265c.037.034.037.148.007.201s-.124.117-.171.104c-.181-.044-.355-.114-.53-.181-.456-.181-.909-.362-1.405-.402-.278-.023-.431.097-.422.382.023.714.076 1.421.17 2.129.077.577.332.888.798 1.113.305.148.617.278.919.432.101.054.161.184.084.282-.06.077-.194.154-.275.137-.432-.094-.808-.416-1.378-.312zm.54-47.156c.037.062.067.128.111.184.02.023.074.039.101.028.09-.04.074-.074-.044-.111-.064-.021-.121-.076-.181-.114-.027.015-.05.035-.077.044-.017.006-.043-.002-.064-.004l.154-.027zm37.94 7.741c.446-.05.788-.336 1.143-.034.154.129.292.256.231.466-.446 1.619-.248 3.291-.412 4.932-.161 1.607-.255 3.219-.55 4.815-.168.885-.158 1.794-.272 2.692l-.905 6.708c-.379 2.715-.962 5.401-1.187 8.143-.07.855-.238 1.713-.339 2.571-.04.322-.161.58-.51.664-.479.121-.627.473-.687.919l-.865 6.145c-.124.932-.194 1.871-.278 2.806-.03.359-.138.677-.456.858-.54.312-.5.892-.65 1.375-.067.221.117.422.265.597.215.255.147.5-.057.707-.181.184-.376.379-.603.5-1.16.62-2.347 1.187-3.641 1.475-.66.148-1.321.302-1.988.406-.737.121-1.468.349-2.233.191-.178-.037-.372.02-.56.037-1.311.1-2.612.275-3.902.526-.972.188-1.961.144-2.923.07-.898-.067-1.8-.074-2.702-.107-1.019-.04-2.021-.138-3.024-.322-.221-.04-.446-.097-.667-.094-1.187.02-2.31-.268-3.433-.61l-4.747-1.415c-.355-.107-.691-.295-1.036-.436-.607-.248-.989-.614-.939-1.351.027-.412-.141-.808-.577-1.022-.383-.188-.482-.56-.513-.945l-.361-4.606c-.06-.748-.071-1.499-.22-2.243-.116-.583-.06-1.2-.067-1.804-.004-.319-.055-.59-.404-.721-.368-.138-.473-.419-.459-.808.039-1.13-.08-2.253-.19-3.376-.151-1.535-.295-3.071-.294-4.616 0-.825-.068-1.649-.149-2.478-.081-.821-.099-1.653-.065-2.477.058-1.401-.149-2.779-.287-4.164-.071-.711-.146-1.415-.131-2.129.001-.037.006-.077.001-.114-.185-1.378-.246-2.769-.36-4.154-.043-.524-.086-1.047-.096-1.573l-.1-5.642c-.011-.602-.012-.625.672-.777.181-.04.262-.098.267-.266.003-.112-.012-.225-.022-.337l-.474-5.049c-.065-.749-.134-1.502-.113-2.252.019-.694-.186-1.171-.874-1.385-.509-.159-.617-.482-.627-1.024-.015-.821-.135-1.646-.128-2.473.002-.294-.127-.495-.339-.675-.181-.153-.316-.338-.149-.582.151-.22.315-.43.628-.401.037.004.074.015.111.022.18.035.422.156.525.083.166-.117.279-.351.344-.558.158-.502.333-1.01.396-1.528.086-.708.452-1.265.833-1.817.347-.503.781-.888 1.444-.994.474-.075.923-.292 1.366-.506 1.341-.646 2.786-.938 4.258-1.002 1.512-.065 2.99-.341 4.476-.556.637-.091 1.274-.174 1.908-.173 1.649 0 3.299-.118 4.955.08.922.11 1.874.066 2.809.15l4.268.373 3.148.231c1.462.103 2.92.244 4.388.272 1.09.021 2.159.228 3.191.635.583.23 1.187.506 1.854.388.975.294 1.897.698 2.695 1.34.164.134.325.36.355.564.107.698.56 1.221.848 1.827.144.305.325.596.443.911.151.389.339.566.815.578.734.019 1.019.431 1.009 1.192-.013.828-.057 1.655-.04 2.483.01.559-.228.933-.681 1.203-.228.135-.459.26-.694.378-.506.253-.821.641-.892 1.212-.261 2.121-.714 4.221-.691 6.374.003.523-.05 1.046-.084 1.694z"/></mask><path d="M11.973 16.15c-.027-.006-.064-.025-.087-.015-.08.037-.074.082.02.11.023.007.06-.008.08-.025.01-.008-.007-.046-.013-.07zm17.751 11.668l2.28-.151c.359-.036.744.093 1.079-.142-.124-.493-.624-.447-.949-.636-.218-.126-.496-.161-.751-.207-1.317-.237-2.608.036-3.899.234-.282.043-.546.23-.811.366-.047.024-.084.128-.074.186.007.05.087.122.141.126l2.984.224zm-2.333-3.024c-.302-.079-.597.02-.895.028-.778.021-1.428.405-2.129.664-.788.291-1.472.735-2.142 1.214-.124.088-.262.2-.228.359s.194.207.345.222l1.79.181c.526.097.949-.039 1.385-.299.942-.559 1.931-.996 3.041-1.092l.788-.065c1.532-.223 2.977.035 4.328.804l1.09.582c.198.102.392.221.634.198l1.569-.15a.22.22 0 0 0 .151-.134c.017-.058-.017-.154-.06-.198-.107-.104-.228-.194-.349-.28-1.549-1.094-3.342-1.503-5.169-1.741-1.371-.18-2.769-.107-4.147-.292zm12.22 2.217l-.677-.588c-.305-.22-.63-.408-.945-.61-1.331-.845-2.652-1.686-4.144-2.245-2.112-.79-4.254-1.181-6.507-.9-1.12.139-2.256.302-3.282.727-1.522.628-3.004 1.379-4.291 2.442-.305.251-.865.413-.737.867.101.351.664.199 1.002.338.443.181.825.044 1.116-.294.687-.791 1.623-1.219 2.518-1.671 1.106-.556 2.259-.997 3.554-.889l3.473.18c.838-.001 1.649.107 2.454.283.513.111 1.012.283 1.512.442 1.371.436 2.648 1.035 3.678 2.073.07.071.198.129.298.124.325-.018.667.011.979-.277zm6.142-.733v-.079c.003-.287-.154-.415-.416-.353-.684.163-1.16.497-1.19 1.281-.013.411-.111.818-.151 1.229l-.657 6.959-.768 6.946-.389 5.059-.248 3.594-.141 1.683c-.124.664-.181 1.341-.245 2.015-.023.258-.013.54.268.684.201.101.493-.208.56-.577.007-.037.01-.074.013-.111l.275-3.487c.124-2.514.399-5.015.795-7.503l.506-3.684.714-6.044.285-2.008.359-2.451c.215-1.024.292-2.079.429-3.154zm-6.929 3.676l-.03-.002.101-1.352c.044-.566-.04-.651-.61-.597-.184.018-.372.049-.553.09-.164.037-.251.157-.265.322l-.027.451-.516 8.224-.426 6.085-.298 3.259c-.258 1.978-.637 3.942-.607 5.947.003.302-.057.6-.077.902l-.184 2.813c-.017.332.137.463.483.456.506-.01.62-.09.701-.536l.067-.56.446-7.322.811-8.415c.285-1.505.339-3.061.523-4.593l.463-5.171zm-3.929 39.952c.513.06 1.079.057 1.636-.06l2.97-.677c.738-.174 1.381-.576 2.052-.902.295-.144.526-.419.791-.627.134-.101.168-.228.178-.389.101-1.452.104-1.452-1.291-.885l-.945.372c-2.206 1.09-4.576 1.696-6.94 2.323-.362.097-.741.127-1.113.174-2.209.268-4.432.292-6.651.248-1.425-.027-2.856-.154-4.274-.325-1.116-.134-2.216-.402-3.326-.603s-2.206-.453-3.248-.915l-2.437-1.177c-.214-.121-.493-.352-.697-.07-.161.218.007.51.114.741.171.372.533.553.885.66l3.738 1.251c1.7.503 3.399.898 5.163 1.11l3.138.308 2.025.074c2.085.228 4.127-.174 6.172-.433l2.062-.198zm14.54-44.115v-.962c-.003-.159-.054-.296-.235-.329-.164-.031-.282.066-.382.18-.184.202-.275.445-.322.71l-1.204 6.417-1.023 8.737c-.328 4.238-.57 8.482-1.079 12.703-.007.074-.007.151.003.225.013.111.03.245.171.238.104-.007.218-.054.295-.121.184-.151.251-.375.288-.597l.335-2.226c.171-1.341.231-2.702.513-4.02.543-2.541.895-5.106 1.277-7.67.375-2.524.56-5.079.898-7.61.248-1.869.255-3.749.463-5.672zm-42.16 2.245c.001.023.034.287.026.549-.06 2.076.224 4.132.36 6.194.174 2.628.457 5.247.524 7.885.081 3.195.27 6.39.625 9.571.062.56.07 1.127.134 1.686.053.456.538.795.977.727.211-.033.365-.349.361-.754 0-.151-.003-.302-.027-.449-.147-.858-.148-1.727-.189-2.591-.062-1.314-.112-2.635-.272-3.939s-.239-2.622-.33-3.932l-.352-5.86-.414-6.984-.295-4.619c-.018-.26-.1-.515-.149-.773-.057-.302-.278-.427-.539-.513a.36.36 0 0 0-.495.301c-.013.074-.043.152-.032.222.159 1.01-.041 2.029.087 3.28zm35.854 26.751c.982-.194 1.043-.225 1.301-.999a5.16 5.16 0 0 0 .245-1.1l.644-5.944.489-6.417c.091-1.2.141-2.407.292-3.601.382-2.984.788-5.964 1.395-8.915l.456-2.326c.027-.155-.02-.316-.204-.335-.674-.069-1.214.271-1.395.872-.054.179-.09.365-.117.551l-.51 3.46-.65 4.923c-.127.969-.305 1.938-.349 2.913-.117 2.488-.623 4.922-.935 7.382-.225 1.757-.503 3.503-.523 5.28-.007.791-.05 1.576-.151 2.364-.08.624-.218 1.264.014 1.891zm-15.69-12.27c-.01 3.765.124 7.533-.144 11.294-.044.597-.02 1.2-.023 1.804-.003.339.023.677.134 1.002.087.252.258.352.513.335.248-.013.446-.094.476-.376.044-.449.124-.888.087-1.348-.144-1.653.164-3.309-.043-4.962-.017-.148.017-.298.027-.449l.439-6.534c.027-.412.067-.825.104-1.237.161-1.834.372-3.668.469-5.508.121-2.219.208-4.439.151-6.661-.04-1.456-.144-1.574-1.616-1.464-.215.016-.355.122-.386.337a3.51 3.51 0 0 0-.047.562c.01 1.317-.137 2.631-.067 3.948.057 1.016.09 2.035.037 3.047-.104 2.069-.117 4.14-.111 6.209zm4.127 10.104v2.367c0 .533.114 1.046.268 1.549.047.148.215.194.375.194s.305-.05.362-.208c.06-.174.101-.362.117-.546.087-.976.218-1.948.238-2.923.05-2.558.432-5.089.493-7.647.04-1.653.255-3.299.352-4.948l.587-10.81c.074-1.224-.08-1.245-1.217-1.314-.111-.007-.228-.002-.335.027-.144.04-.282.122-.315.285-.037.183-.054.371-.067.557-.097 1.349-.114 2.699-.114 4.053l-.117 7.664c-.05 1.84-.097 3.688-.292 5.518-.215 2.058-.402 4.11-.335 6.182zm5.599 2.293c.01.003.02.003.03.003 0 .376-.01.751.007 1.126.013.319.198.436.54.379.114-.02.221-.05.332-.067.298-.047.469-.191.496-.51l.225-2.357c.047-.563.044-1.126.091-1.69l.362-4.268c.161-1.72.178-3.456.459-5.166.104-.63.168-1.264.261-1.898.238-1.599.151-3.228.422-4.828.114-.667.134-1.348.194-2.022l.181-2.021.332-3.594c.033-.384-.094-.474-.449-.36-1.059.34-1.032.344-1.22 1.463-.144.857-.198 1.716-.241 2.581-.06 1.2-.077 2.417-.288 3.594-.278 1.559-.295 3.145-.6 4.697a18.69 18.69 0 0 0-.309 2.115l-.469 6.635-.181 3.265-.174 2.92zm2.364 1.029c.204-.037.422-.07.637-.117.325-.067.53-.235.543-.607.007-.181.104-.359.141-.543.56-2.813.637-5.679.892-8.525.124-1.348.158-2.705.302-4.05.194-1.794.496-3.577.647-5.377l.808-8.653c.037-.411.027-.828.024-1.242-.003-.109-.087-.206-.221-.194-.902.078-1.448.568-1.569 1.446l-.553 4.249c-.148 1.344-.251 2.699-.372 4.046l-.727 7.302c-.218 1.83-.302 3.674-.429 5.512l-.228 3.946c-.023.526.017 1.053-.101 1.576-.09.409-.05.818.208 1.234zm-28.59-27.791l-.003-1.7c-.003-.788-.057-.871-.803-1.142-.907-.33-1.258-.716-1.168.787l.209 2.813.201 4.723c.044 2.783.541 5.542.463 8.331-.002.074.01.151.018.225.106.969.255 1.934.312 2.907.127 2.216.392 4.419.443 6.641.02.895.188 1.787.292 2.682.034.288.181.479.466.57.178.057.349.148.526.201.439.134.691-.044.63-.479-.251-1.753-.218-3.523-.375-5.283-.278-3.104-.335-6.229-.493-9.347l-.245-4.167-.473-7.76zm25.854 4.951c-.02 0-.04-.003-.06-.003l.174-3.497c.013-.337 0-.677-.03-1.014-.02-.249-.168-.437-.432-.424-.375.018-.748.069-1.12.125-.157.023-.265.148-.302.301a3.15 3.15 0 0 0-.091.558l-.432 6.419-.443 6.873-.449 6.645c-.194 2.25-.228 4.513-.332 6.769-.007.148-.01.302.013.449a.36.36 0 0 0 .382.335c.5.02.811-.171.955-.62.067-.211.087-.443.114-.664l.677-6.054.496-4.486c.188-1.988.416-3.966.439-5.964.003-.302.023-.603.047-.905l.392-4.841zm-17.215-5.308c-.037.869-.147 1.66-.09 2.439.231 3.154.01 6.319.228 9.477.134 1.985.081 3.986.071 5.981-.017 2.786.305 5.562.258 8.351-.017.818.084 1.653.302 2.457.094.339.278.52.634.516.151 0 .302.03.453.04.278.024.396-.141.473-.379.117-.376.023-.748.013-1.123-.06-2.032-.295-4.056-.231-6.091.023-.791.094-1.579.104-2.37.02-1.77.097-3.544-.01-5.307-.074-1.203-.151-2.4-.144-3.607.007-.828 0-1.656-.023-2.484l-.201-6.206c-.047-1.444.017-1.781-1.834-1.693zm12.227 9.612l-.003-7.3c0-.451-.024-.902-.05-1.352-.01-.219-.174-.319-.365-.369-.262-.068-.52-.019-.778.046-.248.063-.386.219-.406.472-.017.187-.03.375-.034.563l-.225 6.757c-.007.228-.017.453-.037.677l-.409 4.831-.322 5.401c-.06 1.012-.151 2.025-.158 3.041-.013 1.804.04 3.607.044 5.411 0 1.277.107 1.391 1.334 1.21.409-.057.54-.161.57-.556.05-.63.097-1.267.087-1.901-.037-2.41.074-4.811.285-7.208.275-3.111.345-6.232.466-9.722zm-14.493 8.16l.151 2.705.054 4.174-.007 1.804c-.013.647.124 1.267.312 1.881.087.282.265.429.546.503.295.08.587.131.892.107.174-.013.272-.114.288-.278.023-.221.034-.449.03-.674l-.017-2.933c.003-.754-.023-1.502-.104-2.253a15 15 0 0 1-.094-1.69c0-2.139-.127-4.278-.091-6.42.027-1.428-.101-2.856-.114-4.285l-.208-9.589c-.04-1.099-.191-1.127-1.271-1.266-.111-.014-.225-.007-.339 0-.258.016-.409.16-.449.414a1.89 1.89 0 0 0-.024.337c-.03 1.693-.023 3.382.171 5.068.06.523.111 1.046.064 1.576a3.91 3.91 0 0 0 .04 1.009c.127.711.117 1.428.117 2.142-.003 2.555-.084 5.113.05 7.667zm-.573-2.736h.047v-2.484c-.013-2.782-.03-5.565-.409-8.331-.017-.114-.017-.228-.017-.339l-.01-2.934c.013-1.825-.261-1.665-1.757-1.995-.221-.049-.369.058-.399.278a2.86 2.86 0 0 0-.024.563l.288 6.425.081 2.032c.037 2.142.02 4.281.228 6.423.194 2.055.181 4.13.255 6.199.03.865.02 1.733.087 2.595.104 1.348.141 2.706.379 4.043.04.218.087.446.178.647.124.275.637.443.996.362.208-.047.375-.302.372-.634l-.081-3.487-.043-1.465-.104-6.775c-.007-.376-.044-.748-.067-1.123zm7.607-.181l.003-3.728c-.081-3.161.04-6.326-.131-9.488-.074-1.394-.054-1.306-1.395-1.412a3.8 3.8 0 0 0-.453-.011c-.208.009-.352.11-.379.33a4.02 4.02 0 0 0-.03.449c0 1.054-.027 2.11.02 3.162.05 1.2-.137 2.407.091 3.607.121.627.097 1.267.07 1.911-.05 1.314-.044 2.625.07 3.946.134 1.572.131 3.161.094 4.74-.037 1.465-.178 2.93-.127 4.402.064 1.951.013 3.912.416 5.843.147.701.248.811.969.764.111-.007.225-.017.335-.037.419-.067.516-.168.506-.583-.01-.453-.057-.902-.06-1.354V42.65zm-10.262-4.975c0-.788.04-1.582-.007-2.367-.148-2.44-.342-4.876-.386-7.321-.027-1.684-.047-1.365-1.495-1.916a1.36 1.36 0 0 0-.329-.071c-.168-.02-.312.052-.332.22-.054.409-.117.823-.101 1.232.07 1.765.101 3.536.271 5.292.201 2.022.178 4.053.329 6.078.121 1.646.074 3.302.201 4.952.137 1.76.171 3.53.258 5.297.013.261.03.53.097.781.127.476.151.962.184 1.452l.245 3.034c.027.295.137.583.201.875s.245.449.53.52c.218.05.429.134.65.178.426.084.624-.097.59-.56l-.225-2.92-.204-4.281c-.077-1.914-.06-3.839-.238-5.743-.147-1.579-.144-3.155-.241-4.73zm12.904 1.79h.023v-.791l.03-9.145c-.003-1.105.184-1.258-1.267-1.197-.077.003-.151.007-.228.001-.681-.059-.805.103-.858.858-.01.149.023.3.027.45l.094 4.061-.034 9.374v6.209c-.067 2.33.111 4.65.158 6.973.013.657.258.845.929.825.074 0 .147-.007.225-.013.516-.05.627-.158.701-.694.02-.151.027-.302.034-.453l.148-6.42c.07-3.342.02-6.691.02-10.037zM39.34 11.932c1.13.128 1.978-.096 2.836-.172 1.237-.109 2.461-.327 3.637-.755l3.604-1.304c.204-.073.308-.204.268-.426-.158-.876-.667-1.582-1.12-2.315-.087-.136-.268-.163-.409-.104-.241.101-.469.239-.701.362-.295.157-.533.406-.882.484-.667.147-1.267.464-1.874.77-.979.494-1.985.918-3.128.805-.221-.022-.453.037-.671.08-2.005.391-4.036.526-6.065.604l-4.62.164c-.262.014-.53.024-.788-.005-1.948-.218-3.892-.409-5.853-.383-.077.001-.151-.021-.225-.023-1.244-.038-2.467-.294-3.718-.275-.6.009-1.2-.06-1.8-.103l-1.576-.131c-1.653-.113-3.272-.389-4.861-.865-1.016-.304-1.964-.765-2.904-1.228-.956-.47-.898-.346-1.202.55-.096.285-.173.577-.238.871-.119.537-.043.687.467.825 1.089.295 2.176.599 3.276.84.52.113 1.026.232 1.515.44 1.717.733 3.527 1.033 5.371 1.197l6.631.652c1.046.1 2.089.255 3.148.214 1.203-.047 2.41-.071 3.614-.013 1.931.092 3.829-.129 5.719-.495.925-.18 1.867-.206 2.544-.261zm-9.39 5.068v.069c.302.018.6.054.902.05.828-.013 1.656-.082 2.481-.059 1.281.035 2.555.053 3.829-.091 1.458-.164 2.907-.338 4.321-.787 1.321-.42 2.669-.767 4.043-.991.593-.097 1.18-.236 1.763-.392 1.207-.322 2.337-.821 3.376-1.523.376-.254.587-.583.604-1.025.023-.638.033-1.277.037-1.916 0-.332-.215-.505-.51-.388-1.049.414-2.203.532-3.172 1.161-.121.08-.275.12-.416.162-2.058.603-4.13 1.11-6.286 1.287-.714.059-1.425.033-2.136.057-1.509.052-2.967.451-4.459.623-1.049.121-2.095.188-3.145.155-1.281-.041-2.558-.105-3.838-.025-.681.043-1.351-.014-2.025-.094l-5.609-.623c-1.649-.15-3.292-.328-4.928-.575-.412-.062-.811-.149-1.2-.302-.771-.303-1.529-.653-2.323-.869-1.56-.423-3.141-.771-4.716-1.142-.353-.083-.484.022-.539.367-.144.912.112 1.794.196 2.689.019.205.207.303.372.395.852.473 1.673 1.02 2.566 1.396 1.246.525 2.58.811 3.905 1.062 1.512.287 3.054.406 4.536.872.426.133.888.142 1.338.199.335.043.681.036 1.006.115.711.173 1.421.151 2.132.068.563-.066 1.13-.107 1.69-.038 1.049.128 2.105.119 3.158.115l3.047-.001zM22.239 2.072c-.868.069-1.737.098-2.588.245-2.038.353-4.09.577-6.142.825-1.723.209-3.205 1.039-4.719 1.778-.743.362-.568.791-.317 1.309.138.286.4.442.686.552.315.122.657.195.946.361 1.161.67 2.465.953 3.739 1.18 1.693.3 3.43.364 5.146.521.221.02.449-.016.677-.011.298.007.607-.002.898.05 1.562.276 3.141.299 4.717.374.902.043 1.8.071 2.699.204.627.093 1.274.112 1.911.091l6.755-.268c2.035-.069 4.009-.592 6.034-.749.288-.022.57-.181.848-.286.848-.316 1.623-.784 2.464-1.114.62-.243 1.177-.659 1.743-1.023.365-.234.335-.551-.07-.765a28.6 28.6 0 0 0-1.515-.734c-.168-.076-.362-.133-.543-.13-.426.006-.815-.132-1.207-.258-1.763-.567-3.56-.903-5.418-.952-1.69-.045-3.366-.29-5.055-.379-1.308-.069-2.608-.327-3.926-.397l-7.764-.424zm-9.726 14.281l.164.179c.215.186.624.084.701.453.044.204-.251.221-.892.025-.215-.066-.422-.161-.637-.227-1.187-.364-2.375-.714-3.595-.948-.202-.039-.461-.179-.614.075-.14.232-.02.779.205.931.279.189.571.38.884.49.601.212 1.171.515 1.812.624.174.03.339.144.496.24.04.024.037.131.037.2 0 .023-.057.065-.087.064-.107 0-.218.002-.322-.026-.725-.2-1.454-.389-2.17-.619-.694-.224-.767-.079-.735.614.002.038.009.075.01.113.008.378.135.657.561.711.224.029.452.067.621.237.044.045.079.132.068.19s-.079.149-.129.154c-.183.017-.369.002-.554.003-.373.002-.504.112-.476.454l.235 2.473c.015.148.066.293.108.437.124.42.363.725.799.877.603.212 1.209.423 1.786.697 1.368.653 2.826 1.015 4.271 1.424.65.184 1.321.293 1.985.422.342.066.617.004.915-.26 1.016-.894 2.079-1.737 3.296-2.353 1.002-.51 1.998-1.058 3.051-1.446 1.717-.631 3.537-.707 5.344-.697 1.287.007 2.511.348 3.731.784 2.216.789 4.258 1.881 6.206 3.172.218.145.412.334.644.457.463.247.905.377 1.472.151 1.291-.515 2.625-.93 3.939-1.386l1.706-.588c.617-.201.902-.617.929-1.261.034-.751.014-1.506.151-2.252.064-.333-.013-.386-.442-.47-.144-.028-.292-.054-.429-.104s-.141-.293-.034-.385c.124-.106.262-.12.412-.136.406-.042.58-.285.587-.688.003-.261.067-.521.09-.783.02-.256-.171-.452-.416-.396-.439.1-.868.239-1.304.35-.057.015-.161-.016-.195-.061-.077-.101-.03-.232.057-.285.456-.269.949-.452 1.455-.597.352-.1.587-.32.654-.697.037-.197-.134-.38-.328-.323l-2.384.703c-.325.099-.657.155-.999.133-.057-.004-.148-.064-.158-.112-.01-.056.037-.139.084-.185s.131-.082.201-.095c.818-.146 1.572-.501 2.363-.734.536-.158.892-.501 1.217-1.025-.503-.021-.831.284-1.234.35-.848.139-1.68.378-2.541.487-1.12.141-2.203.465-3.282.787-.975.291-1.955.559-2.963.701-2.917.409-5.853.387-8.787.309-1.318-.035-2.632-.121-3.949-.07-.56.022-1.13-.029-1.69-.083-.865-.084-1.723-.133-2.588-.001-.332.051-.677.079-1.012.045-1.083-.111-2.162-.25-3.245-.389-.221-.029-.439-.1-.654-.166a13.74 13.74 0 0 0-2.762-.56c-.516-.048-1.023-.277-1.639-.109zm-2.169 46.583c.027.379.077.677.06.972-.047.701.285 1.133.892 1.422a80.41 80.41 0 0 1 2.226 1.103c1.277.657 2.612 1.16 4.023 1.442l4.093.771c1.002.161 2.018.282 3.031.315 1.954.06 3.912.04 5.867-.097 1.2-.084 2.404-.184 3.564-.54 1.867-.57 3.775-1.019 5.568-1.82 1.026-.459 2.089-.845 3.051-1.448.345-.215.543-.442.593-.875.074-.67.238-1.331.379-1.991.251-1.177.298-1.24-.949-1.133-.074.007-.157.02-.225-.003-.057-.02-.124-.087-.134-.141-.01-.06.023-.174.07-.194.205-.087.416-.188.634-.221.731-.107 1.026-.546 1.013-1.25 0-.074.03-.148.037-.221.034-.352-.077-.473-.459-.436-.298.03-.59.107-.888.151-.184.027-.372.044-.556.04-.054 0-.141-.067-.148-.117-.01-.057.03-.161.077-.188.235-.114.473-.225.721-.308s.513-.124.761-.211c.419-.144.68-.456.784-.882.023-.097-.017-.221-.06-.319-.057-.131-.195-.111-.295-.077-.607.201-1.2.446-1.817.617-.882.241-1.784.419-2.732.282.107-.278.305-.312.486-.315 1.636-.047 3.041-.768 4.435-1.522.06-.034.117-.097.144-.161s.044-.151.02-.211-.101-.131-.154-.131c-.148 0-.312 0-.439.06-1.341.634-2.806.845-4.201 1.294-1.147.369-2.33.587-3.55.617-1.086.023-2.176.134-3.259.205-1.458.09-2.933-.047-4.382.271-1.844-.094-3.681.03-5.525.064-.788.013-1.592.003-2.364-.131-2.444-.419-4.931-.59-7.335-1.25-.355-.101-.714-.154-1.069-.305-.654-.278-1.344-.489-2.062-.563-.094-.01-.237.04-.288.114-.103.144-.009.305.107.392.178.134.373.258.584.329.389.134.791.238 1.197.325l2.759.59c.214.047.556.027.493.305-.05.228-.399.094-.597.064-1.039-.171-2.072-.365-3.108-.56-.476-.087-.952-.194-1.441-.292-.051.134-.114.235-.122.339-.064.815-.02.885.749 1.13.536.171 1.096.278 1.596.553a1.5 1.5 0 0 1 .349.265c.037.034.037.148.007.201s-.124.117-.171.104c-.181-.044-.355-.114-.53-.181-.456-.181-.909-.362-1.405-.402-.278-.023-.431.097-.422.382.023.714.076 1.421.17 2.129.077.577.332.888.798 1.113.305.148.617.278.919.432.101.054.161.184.084.282-.06.077-.194.154-.275.137-.432-.094-.808-.416-1.378-.312zm.54-47.156c.037.062.067.128.111.184.02.023.074.039.101.028.09-.04.074-.074-.044-.111-.064-.021-.121-.076-.181-.114-.027.015-.05.035-.077.044-.017.006-.043-.002-.064-.004l.154-.027zm37.94 7.741c.446-.05.788-.336 1.143-.034.154.129.292.256.231.466-.446 1.619-.248 3.291-.412 4.932-.161 1.607-.255 3.219-.55 4.815-.168.885-.158 1.794-.272 2.692l-.905 6.708c-.379 2.715-.962 5.401-1.187 8.143-.07.855-.238 1.713-.339 2.571-.04.322-.161.58-.51.664-.479.121-.627.473-.687.919l-.865 6.145c-.124.932-.194 1.871-.278 2.806-.03.359-.138.677-.456.858-.54.312-.5.892-.65 1.375-.067.221.117.422.265.597.215.255.147.5-.057.707-.181.184-.376.379-.603.5-1.16.62-2.347 1.187-3.641 1.475-.66.148-1.321.302-1.988.406-.737.121-1.468.349-2.233.191-.178-.037-.372.02-.56.037-1.311.1-2.612.275-3.902.526-.972.188-1.961.144-2.923.07-.898-.067-1.8-.074-2.702-.107-1.019-.04-2.021-.138-3.024-.322-.221-.04-.446-.097-.667-.094-1.187.02-2.31-.268-3.433-.61l-4.747-1.415c-.355-.107-.691-.295-1.036-.436-.607-.248-.989-.614-.939-1.351.027-.412-.141-.808-.577-1.022-.383-.188-.482-.56-.513-.945l-.361-4.606c-.06-.748-.071-1.499-.22-2.243-.116-.583-.06-1.2-.067-1.804-.004-.319-.055-.59-.404-.721-.368-.138-.473-.419-.459-.808.039-1.13-.08-2.253-.19-3.376-.151-1.535-.295-3.071-.294-4.616 0-.825-.068-1.649-.149-2.478-.081-.821-.099-1.653-.065-2.477.058-1.401-.149-2.779-.287-4.164-.071-.711-.146-1.415-.131-2.129.001-.037.006-.077.001-.114-.185-1.378-.246-2.769-.36-4.154-.043-.524-.086-1.047-.096-1.573l-.1-5.642c-.011-.602-.012-.625.672-.777.181-.04.262-.098.267-.266.003-.112-.012-.225-.022-.337l-.474-5.049c-.065-.749-.134-1.502-.113-2.252.019-.694-.186-1.171-.874-1.385-.509-.159-.617-.482-.627-1.024-.015-.821-.135-1.646-.128-2.473.002-.294-.127-.495-.339-.675-.181-.153-.316-.338-.149-.582.151-.22.315-.43.628-.401.037.004.074.015.111.022.18.035.422.156.525.083.166-.117.279-.351.344-.558.158-.502.333-1.01.396-1.528.086-.708.452-1.265.833-1.817.347-.503.781-.888 1.444-.994.474-.075.923-.292 1.366-.506 1.341-.646 2.786-.938 4.258-1.002 1.512-.065 2.99-.341 4.476-.556.637-.091 1.274-.174 1.908-.173 1.649 0 3.299-.118 4.955.08.922.11 1.874.066 2.809.15l4.268.373 3.148.231c1.462.103 2.92.244 4.388.272 1.09.021 2.159.228 3.191.635.583.23 1.187.506 1.854.388.975.294 1.897.698 2.695 1.34.164.134.325.36.355.564.107.698.56 1.221.848 1.827.144.305.325.596.443.911.151.389.339.566.815.578.734.019 1.019.431 1.009 1.192-.013.828-.057 1.655-.04 2.483.01.559-.228.933-.681 1.203-.228.135-.459.26-.694.378-.506.253-.821.641-.892 1.212-.261 2.121-.714 4.221-.691 6.374.003.523-.05 1.046-.084 1.694z" fill="#fd8679"/><path d="M11.973 16.15c-.027-.006-.064-.025-.087-.015-.08.037-.074.082.02.11.023.007.06-.008.08-.025.01-.008-.007-.046-.013-.07zm17.751 11.668l2.28-.151c.359-.036.744.093 1.079-.142-.124-.493-.624-.447-.949-.636-.218-.126-.496-.161-.751-.207-1.317-.237-2.608.036-3.899.234-.282.043-.546.23-.811.366-.047.024-.084.128-.074.186.007.05.087.122.141.126l2.984.224zm-2.333-3.024c-.302-.079-.597.02-.895.028-.778.021-1.428.405-2.129.664-.788.291-1.472.735-2.142 1.214-.124.088-.262.2-.228.359s.194.207.345.222l1.79.181c.526.097.949-.039 1.385-.299.942-.559 1.931-.996 3.041-1.092l.788-.065c1.532-.223 2.977.035 4.328.804l1.09.582c.198.102.392.221.634.198l1.569-.15a.22.22 0 0 0 .151-.134c.017-.058-.017-.154-.06-.198-.107-.104-.228-.194-.349-.28-1.549-1.094-3.342-1.503-5.169-1.741-1.371-.18-2.769-.107-4.147-.292zm12.22 2.217l-.677-.588c-.305-.22-.63-.408-.945-.61-1.331-.845-2.652-1.686-4.144-2.245-2.112-.79-4.254-1.181-6.507-.9-1.12.139-2.256.302-3.282.727-1.522.628-3.004 1.379-4.291 2.442-.305.251-.865.413-.737.867.101.351.664.199 1.002.338.443.181.825.044 1.116-.294.687-.791 1.623-1.219 2.518-1.671 1.106-.556 2.259-.997 3.554-.889l3.473.18c.838-.001 1.649.107 2.454.283.513.111 1.012.283 1.512.442 1.371.436 2.648 1.035 3.678 2.073.07.071.198.129.298.124.325-.018.667.011.979-.277zm6.142-.733v-.079c.003-.287-.154-.415-.416-.353-.684.163-1.16.497-1.19 1.281-.013.411-.111.818-.151 1.229l-.657 6.959-.768 6.946-.389 5.059-.248 3.594-.141 1.683c-.124.664-.181 1.341-.245 2.015-.023.258-.013.54.268.684.201.101.493-.208.56-.577.007-.037.01-.074.013-.111l.275-3.487c.124-2.514.399-5.015.795-7.503l.506-3.684.714-6.044.285-2.008.359-2.451c.215-1.024.292-2.079.429-3.154zm-6.929 3.676l-.03-.002.101-1.352c.044-.566-.04-.651-.61-.597-.184.018-.372.049-.553.09-.164.037-.251.157-.265.322l-.027.451-.516 8.224-.426 6.085-.298 3.259c-.258 1.978-.637 3.942-.607 5.947.003.302-.057.6-.077.902l-.184 2.813c-.017.332.137.463.483.456.506-.01.62-.09.701-.536l.067-.56.446-7.322.811-8.415c.285-1.505.339-3.061.523-4.593l.463-5.171zm-3.929 39.952c.513.06 1.079.057 1.636-.06l2.97-.677c.738-.174 1.381-.576 2.052-.902.295-.144.526-.419.791-.627.134-.101.168-.228.178-.389.101-1.452.104-1.452-1.291-.885l-.945.372c-2.206 1.09-4.576 1.696-6.94 2.323-.362.097-.741.127-1.113.174-2.209.268-4.432.292-6.651.248-1.425-.027-2.856-.154-4.274-.325-1.116-.134-2.216-.402-3.326-.603s-2.206-.453-3.248-.915l-2.437-1.177c-.214-.121-.493-.352-.697-.07-.161.218.007.51.114.741.171.372.533.553.885.66l3.738 1.251c1.7.503 3.399.898 5.163 1.11l3.138.308 2.025.074c2.085.228 4.127-.174 6.172-.433l2.062-.198zm14.54-44.115v-.962c-.003-.159-.054-.296-.235-.329-.164-.031-.282.066-.382.18-.184.202-.275.445-.322.71l-1.204 6.417-1.023 8.737c-.328 4.238-.57 8.482-1.079 12.703-.007.074-.007.151.003.225.013.111.03.245.171.238.104-.007.218-.054.295-.121.184-.151.251-.375.288-.597l.335-2.226c.171-1.341.231-2.702.513-4.02.543-2.541.895-5.106 1.277-7.67.375-2.524.56-5.079.898-7.61.248-1.869.255-3.749.463-5.672zm-42.16 2.245c.001.023.034.287.026.549-.06 2.076.224 4.132.36 6.194.174 2.628.457 5.247.524 7.885.081 3.195.27 6.39.625 9.571.062.56.07 1.127.134 1.686.053.456.538.795.977.727.211-.033.365-.349.361-.754 0-.151-.003-.302-.027-.449-.147-.858-.148-1.727-.189-2.591-.062-1.314-.112-2.635-.272-3.939s-.239-2.622-.33-3.932l-.352-5.86-.414-6.984-.295-4.619c-.018-.26-.1-.515-.149-.773-.057-.302-.278-.427-.539-.513a.36.36 0 0 0-.495.301c-.013.074-.043.152-.032.222.159 1.01-.041 2.029.087 3.28zm35.854 26.751c.982-.194 1.043-.225 1.301-.999a5.16 5.16 0 0 0 .245-1.1l.644-5.944.489-6.417c.091-1.2.141-2.407.292-3.601.382-2.984.788-5.964 1.395-8.915l.456-2.326c.027-.155-.02-.316-.204-.335-.674-.069-1.214.271-1.395.872-.054.179-.09.365-.117.551l-.51 3.46-.65 4.923c-.127.969-.305 1.938-.349 2.913-.117 2.488-.623 4.922-.935 7.382-.225 1.757-.503 3.503-.523 5.28-.007.791-.05 1.576-.151 2.364-.08.624-.218 1.264.014 1.891zm-15.69-12.27c-.01 3.765.124 7.533-.144 11.294-.044.597-.02 1.2-.023 1.804-.003.339.023.677.134 1.002.087.252.258.352.513.335.248-.013.446-.094.476-.376.044-.449.124-.888.087-1.348-.144-1.653.164-3.309-.043-4.962-.017-.148.017-.298.027-.449l.439-6.534c.027-.412.067-.825.104-1.237.161-1.834.372-3.668.469-5.508.121-2.219.208-4.439.151-6.661-.04-1.456-.144-1.574-1.616-1.464-.215.016-.355.122-.386.337a3.51 3.51 0 0 0-.047.562c.01 1.317-.137 2.631-.067 3.948.057 1.016.09 2.035.037 3.047-.104 2.069-.117 4.14-.111 6.209zm4.127 10.104v2.367c0 .533.114 1.046.268 1.549.047.148.215.194.375.194s.305-.05.362-.208c.06-.174.101-.362.117-.546.087-.976.218-1.948.238-2.923.05-2.558.432-5.089.493-7.647.04-1.653.255-3.299.352-4.948l.587-10.81c.074-1.224-.08-1.245-1.217-1.314-.111-.007-.228-.002-.335.027-.144.04-.282.122-.315.285-.037.183-.054.371-.067.557-.097 1.349-.114 2.699-.114 4.053l-.117 7.664c-.05 1.84-.097 3.688-.292 5.518-.215 2.058-.402 4.11-.335 6.182zm5.599 2.293c.01.003.02.003.03.003 0 .376-.01.751.007 1.126.013.319.198.436.54.379.114-.02.221-.05.332-.067.298-.047.469-.191.496-.51l.225-2.357c.047-.563.044-1.126.091-1.69l.362-4.268c.161-1.72.178-3.456.459-5.166.104-.63.168-1.264.261-1.898.238-1.599.151-3.228.422-4.828.114-.667.134-1.348.194-2.022l.181-2.021.332-3.594c.033-.384-.094-.474-.449-.36-1.059.34-1.032.344-1.22 1.463-.144.857-.198 1.716-.241 2.581-.06 1.2-.077 2.417-.288 3.594-.278 1.559-.295 3.145-.6 4.697a18.69 18.69 0 0 0-.309 2.115l-.469 6.635-.181 3.265-.174 2.92zm2.364 1.029c.204-.037.422-.07.637-.117.325-.067.53-.235.543-.607.007-.181.104-.359.141-.543.56-2.813.637-5.679.892-8.525.124-1.348.158-2.705.302-4.05.194-1.794.496-3.577.647-5.377l.808-8.653c.037-.411.027-.828.024-1.242-.003-.109-.087-.206-.221-.194-.902.078-1.448.568-1.569 1.446l-.553 4.249c-.148 1.344-.251 2.699-.372 4.046l-.727 7.302c-.218 1.83-.302 3.674-.429 5.512l-.228 3.946c-.023.526.017 1.053-.101 1.576-.09.409-.05.818.208 1.234zm-28.59-27.791l-.003-1.7c-.003-.788-.057-.871-.803-1.142-.907-.33-1.258-.716-1.168.787l.209 2.813.201 4.723c.044 2.783.541 5.542.463 8.331-.002.074.01.151.018.225.106.969.255 1.934.312 2.907.127 2.216.392 4.419.443 6.641.02.895.188 1.787.292 2.682.034.288.181.479.466.57.178.057.349.148.526.201.439.134.691-.044.63-.479-.251-1.753-.218-3.523-.375-5.283-.278-3.104-.335-6.229-.493-9.347l-.245-4.167-.473-7.76zm25.854 4.951c-.02 0-.04-.003-.06-.003l.174-3.497c.013-.337 0-.677-.03-1.014-.02-.249-.168-.437-.432-.424-.375.018-.748.069-1.12.125-.157.023-.265.148-.302.301a3.15 3.15 0 0 0-.091.558l-.432 6.419-.443 6.873-.449 6.645c-.194 2.25-.228 4.513-.332 6.769-.007.148-.01.302.013.449a.36.36 0 0 0 .382.335c.5.02.811-.171.955-.62.067-.211.087-.443.114-.664l.677-6.054.496-4.486c.188-1.988.416-3.966.439-5.964.003-.302.023-.603.047-.905l.392-4.841zm-17.215-5.308c-.037.869-.147 1.66-.09 2.439.231 3.154.01 6.319.228 9.477.134 1.985.081 3.986.071 5.981-.017 2.786.305 5.562.258 8.351-.017.818.084 1.653.302 2.457.094.339.278.52.634.516.151 0 .302.03.453.04.278.024.396-.141.473-.379.117-.376.023-.748.013-1.123-.06-2.032-.295-4.056-.231-6.091.023-.791.094-1.579.104-2.37.02-1.77.097-3.544-.01-5.307-.074-1.203-.151-2.4-.144-3.607.007-.828 0-1.656-.023-2.484l-.201-6.206c-.047-1.444.017-1.781-1.834-1.693zm12.227 9.612l-.003-7.3c0-.451-.024-.902-.05-1.352-.01-.219-.174-.319-.365-.369-.262-.068-.52-.019-.778.046-.248.063-.386.219-.406.472-.017.187-.03.375-.034.563l-.225 6.757c-.007.228-.017.453-.037.677l-.409 4.831-.322 5.401c-.06 1.012-.151 2.025-.158 3.041-.013 1.804.04 3.607.044 5.411 0 1.277.107 1.391 1.334 1.21.409-.057.54-.161.57-.556.05-.63.097-1.267.087-1.901-.037-2.41.074-4.811.285-7.208.275-3.111.345-6.232.466-9.722zm-14.493 8.16l.151 2.705.054 4.174-.007 1.804c-.013.647.124 1.267.312 1.881.087.282.265.429.546.503.295.08.587.131.892.107.174-.013.272-.114.288-.278.023-.221.034-.449.03-.674l-.017-2.933c.003-.754-.023-1.502-.104-2.253a15 15 0 0 1-.094-1.69c0-2.139-.127-4.278-.091-6.42.027-1.428-.101-2.856-.114-4.285l-.208-9.589c-.04-1.099-.191-1.127-1.271-1.266-.111-.014-.225-.007-.339 0-.258.016-.409.16-.449.414a1.89 1.89 0 0 0-.024.337c-.03 1.693-.023 3.382.171 5.068.06.523.111 1.046.064 1.576a3.91 3.91 0 0 0 .04 1.009c.127.711.117 1.428.117 2.142-.003 2.555-.084 5.113.05 7.667zm-.573-2.736h.047v-2.484c-.013-2.782-.03-5.565-.409-8.331-.017-.114-.017-.228-.017-.339l-.01-2.934c.013-1.825-.261-1.665-1.757-1.995-.221-.049-.369.058-.399.278a2.86 2.86 0 0 0-.024.563l.288 6.425.081 2.032c.037 2.142.02 4.281.228 6.423.194 2.055.181 4.13.255 6.199.03.865.02 1.733.087 2.595.104 1.348.141 2.706.379 4.043.04.218.087.446.178.647.124.275.637.443.996.362.208-.047.375-.302.372-.634l-.081-3.487-.043-1.465-.104-6.775c-.007-.376-.044-.748-.067-1.123zm7.607-.181l.003-3.728c-.081-3.161.04-6.326-.131-9.488-.074-1.394-.054-1.306-1.395-1.412a3.8 3.8 0 0 0-.453-.011c-.208.009-.352.11-.379.33a4.02 4.02 0 0 0-.03.449c0 1.054-.027 2.11.02 3.162.05 1.2-.137 2.407.091 3.607.121.627.097 1.267.07 1.911-.05 1.314-.044 2.625.07 3.946.134 1.572.131 3.161.094 4.74-.037 1.465-.178 2.93-.127 4.402.064 1.951.013 3.912.416 5.843.147.701.248.811.969.764.111-.007.225-.017.335-.037.419-.067.516-.168.506-.583-.01-.453-.057-.902-.06-1.354V42.65zm-10.262-4.975c0-.788.04-1.582-.007-2.367-.148-2.44-.342-4.876-.386-7.321-.027-1.684-.047-1.365-1.495-1.916a1.36 1.36 0 0 0-.329-.071c-.168-.02-.312.052-.332.22-.054.409-.117.823-.101 1.232.07 1.765.101 3.536.271 5.292.201 2.022.178 4.053.329 6.078.121 1.646.074 3.302.201 4.952.137 1.76.171 3.53.258 5.297.013.261.03.53.097.781.127.476.151.962.184 1.452l.245 3.034c.027.295.137.583.201.875s.245.449.53.52c.218.05.429.134.65.178.426.084.624-.097.59-.56l-.225-2.92-.204-4.281c-.077-1.914-.06-3.839-.238-5.743-.147-1.579-.144-3.155-.241-4.73zm12.904 1.79h.023v-.791l.03-9.145c-.003-1.105.184-1.258-1.267-1.197-.077.003-.151.007-.228.001-.681-.059-.805.103-.858.858-.01.149.023.3.027.45l.094 4.061-.034 9.374v6.209c-.067 2.33.111 4.65.158 6.973.013.657.258.845.929.825.074 0 .147-.007.225-.013.516-.05.627-.158.701-.694.02-.151.027-.302.034-.453l.148-6.42c.07-3.342.02-6.691.02-10.037zM39.34 11.932c1.13.128 1.978-.096 2.836-.172 1.237-.109 2.461-.327 3.637-.755l3.604-1.304c.204-.073.308-.204.268-.426-.158-.876-.667-1.582-1.12-2.315-.087-.136-.268-.163-.409-.104-.241.101-.469.239-.701.362-.295.157-.533.406-.882.484-.667.147-1.267.464-1.874.77-.979.494-1.985.918-3.128.805-.221-.022-.453.037-.671.08-2.005.391-4.036.526-6.065.604l-4.62.164c-.262.014-.53.024-.788-.005-1.948-.218-3.892-.409-5.853-.383-.077.001-.151-.021-.225-.023-1.244-.038-2.467-.294-3.718-.275-.6.009-1.2-.06-1.8-.103l-1.576-.131c-1.653-.113-3.272-.389-4.861-.865-1.016-.304-1.964-.765-2.904-1.228-.956-.47-.898-.346-1.202.55-.096.285-.173.577-.238.871-.119.537-.043.687.467.825 1.089.295 2.176.599 3.276.84.52.113 1.026.232 1.515.44 1.717.733 3.527 1.033 5.371 1.197l6.631.652c1.046.1 2.089.255 3.148.214 1.203-.047 2.41-.071 3.614-.013 1.931.092 3.829-.129 5.719-.495.925-.18 1.867-.206 2.544-.261zm-9.39 5.068v.069c.302.018.6.054.902.05.828-.013 1.656-.082 2.481-.059 1.281.035 2.555.053 3.829-.091 1.458-.164 2.907-.338 4.321-.787 1.321-.42 2.669-.767 4.043-.991.593-.097 1.18-.236 1.763-.392 1.207-.322 2.337-.821 3.376-1.523.376-.254.587-.583.604-1.025.023-.638.033-1.277.037-1.916 0-.332-.215-.505-.51-.388-1.049.414-2.203.532-3.172 1.161-.121.08-.275.12-.416.162-2.058.603-4.13 1.11-6.286 1.287-.714.059-1.425.033-2.136.057-1.509.052-2.967.451-4.459.623-1.049.121-2.095.188-3.145.155-1.281-.041-2.558-.105-3.838-.025-.681.043-1.351-.014-2.025-.094l-5.609-.623c-1.649-.15-3.292-.328-4.928-.575-.412-.062-.811-.149-1.2-.302-.771-.303-1.529-.653-2.323-.869-1.56-.423-3.141-.771-4.716-1.142-.353-.083-.484.022-.539.367-.144.912.112 1.794.196 2.689.019.205.207.303.372.395.852.473 1.673 1.02 2.566 1.396 1.246.525 2.58.811 3.905 1.062 1.512.287 3.054.406 4.536.872.426.133.888.142 1.338.199.335.043.681.036 1.006.115.711.173 1.421.151 2.132.068.563-.066 1.13-.107 1.69-.038 1.049.128 2.105.119 3.158.115l3.047-.001zM22.239 2.072c-.868.069-1.737.098-2.588.245-2.038.353-4.09.577-6.142.825-1.723.209-3.205 1.039-4.719 1.778-.743.362-.568.791-.317 1.309.138.286.4.442.686.552.315.122.657.195.946.361 1.161.67 2.465.953 3.739 1.18 1.693.3 3.43.364 5.146.521.221.02.449-.016.677-.011.298.007.607-.002.898.05 1.562.276 3.141.299 4.717.374.902.043 1.8.071 2.699.204.627.093 1.274.112 1.911.091l6.755-.268c2.035-.069 4.009-.592 6.034-.749.288-.022.57-.181.848-.286.848-.316 1.623-.784 2.464-1.114.62-.243 1.177-.659 1.743-1.023.365-.234.335-.551-.07-.765a28.6 28.6 0 0 0-1.515-.734c-.168-.076-.362-.133-.543-.13-.426.006-.815-.132-1.207-.258-1.763-.567-3.56-.903-5.418-.952-1.69-.045-3.366-.29-5.055-.379-1.308-.069-2.608-.327-3.926-.397l-7.764-.424zm-9.726 14.281l.164.179c.215.186.624.084.701.453.044.204-.251.221-.892.025-.215-.066-.422-.161-.637-.227-1.187-.364-2.375-.714-3.595-.948-.202-.039-.461-.179-.614.075-.14.232-.02.779.205.931.279.189.571.38.884.49.601.212 1.171.515 1.812.624.174.03.339.144.496.24.04.024.037.131.037.2 0 .023-.057.065-.087.064-.107 0-.218.002-.322-.026-.725-.2-1.454-.389-2.17-.619-.694-.224-.767-.079-.735.614.002.038.009.075.01.113.008.378.135.657.561.711.224.029.452.067.621.237.044.045.079.132.068.19s-.079.149-.129.154c-.183.017-.369.002-.554.003-.373.002-.504.112-.476.454l.235 2.473c.015.148.066.293.108.437.124.42.363.725.799.877.603.212 1.209.423 1.786.697 1.368.653 2.826 1.015 4.271 1.424.65.184 1.321.293 1.985.422.342.066.617.004.915-.26 1.016-.894 2.079-1.737 3.296-2.353 1.002-.51 1.998-1.058 3.051-1.446 1.717-.631 3.537-.707 5.344-.697 1.287.007 2.511.348 3.731.784 2.216.789 4.258 1.881 6.206 3.172.218.145.412.334.644.457.463.247.905.377 1.472.151 1.291-.515 2.625-.93 3.939-1.386l1.706-.588c.617-.201.902-.617.929-1.261.034-.751.014-1.506.151-2.252.064-.333-.013-.386-.442-.47-.144-.028-.292-.054-.429-.104s-.141-.293-.034-.385c.124-.106.262-.12.412-.136.406-.042.58-.285.587-.688.003-.261.067-.521.09-.783.02-.256-.171-.452-.416-.396-.439.1-.868.239-1.304.35-.057.015-.161-.016-.195-.061-.077-.101-.03-.232.057-.285.456-.269.949-.452 1.455-.597.352-.1.587-.32.654-.697.037-.197-.134-.38-.328-.323l-2.384.703c-.325.099-.657.155-.999.133-.057-.004-.148-.064-.158-.112-.01-.056.037-.139.084-.185s.131-.082.201-.095c.818-.146 1.572-.501 2.363-.734.536-.158.892-.501 1.217-1.025-.503-.021-.831.284-1.234.35-.848.139-1.68.378-2.541.487-1.12.141-2.203.465-3.282.787-.975.291-1.955.559-2.963.701-2.917.409-5.853.387-8.787.309-1.318-.035-2.632-.121-3.949-.07-.56.022-1.13-.029-1.69-.083-.865-.084-1.723-.133-2.588-.001-.332.051-.677.079-1.012.045-1.083-.111-2.162-.25-3.245-.389-.221-.029-.439-.1-.654-.166a13.74 13.74 0 0 0-2.762-.56c-.516-.048-1.023-.277-1.639-.109zm-2.169 46.583c.027.379.077.677.06.972-.047.701.285 1.133.892 1.422a80.41 80.41 0 0 1 2.226 1.103c1.277.657 2.612 1.16 4.023 1.442l4.093.771c1.002.161 2.018.282 3.031.315 1.954.06 3.912.04 5.867-.097 1.2-.084 2.404-.184 3.564-.54 1.867-.57 3.775-1.019 5.568-1.82 1.026-.459 2.089-.845 3.051-1.448.345-.215.543-.442.593-.875.074-.67.238-1.331.379-1.991.251-1.177.298-1.24-.949-1.133-.074.007-.157.02-.225-.003-.057-.02-.124-.087-.134-.141-.01-.06.023-.174.07-.194.205-.087.416-.188.634-.221.731-.107 1.026-.546 1.013-1.25 0-.074.03-.148.037-.221.034-.352-.077-.473-.459-.436-.298.03-.59.107-.888.151-.184.027-.372.044-.556.04-.054 0-.141-.067-.148-.117-.01-.057.03-.161.077-.188.235-.114.473-.225.721-.308s.513-.124.761-.211c.419-.144.68-.456.784-.882.023-.097-.017-.221-.06-.319-.057-.131-.195-.111-.295-.077-.607.201-1.2.446-1.817.617-.882.241-1.784.419-2.732.282.107-.278.305-.312.486-.315 1.636-.047 3.041-.768 4.435-1.522.06-.034.117-.097.144-.161s.044-.151.02-.211-.101-.131-.154-.131c-.148 0-.312 0-.439.06-1.341.634-2.806.845-4.201 1.294-1.147.369-2.33.587-3.55.617-1.086.023-2.176.134-3.259.205-1.458.09-2.933-.047-4.382.271-1.844-.094-3.681.03-5.525.064-.788.013-1.592.003-2.364-.131-2.444-.419-4.931-.59-7.335-1.25-.355-.101-.714-.154-1.069-.305-.654-.278-1.344-.489-2.062-.563-.094-.01-.237.04-.288.114-.103.144-.009.305.107.392.178.134.373.258.584.329.389.134.791.238 1.197.325l2.759.59c.214.047.556.027.493.305-.05.228-.399.094-.597.064-1.039-.171-2.072-.365-3.108-.56-.476-.087-.952-.194-1.441-.292-.051.134-.114.235-.122.339-.064.815-.02.885.749 1.13.536.171 1.096.278 1.596.553a1.5 1.5 0 0 1 .349.265c.037.034.037.148.007.201s-.124.117-.171.104c-.181-.044-.355-.114-.53-.181-.456-.181-.909-.362-1.405-.402-.278-.023-.431.097-.422.382.023.714.076 1.421.17 2.129.077.577.332.888.798 1.113.305.148.617.278.919.432.101.054.161.184.084.282-.06.077-.194.154-.275.137-.432-.094-.808-.416-1.378-.312zm.54-47.156c.037.062.067.128.111.184.02.023.074.039.101.028.09-.04.074-.074-.044-.111-.064-.021-.121-.076-.181-.114-.027.015-.05.035-.077.044-.017.006-.043-.002-.064-.004l.154-.027zm37.94 7.741c.446-.05.788-.336 1.143-.034.154.129.292.256.231.466-.446 1.619-.248 3.291-.412 4.932-.161 1.607-.255 3.219-.55 4.815-.168.885-.158 1.794-.272 2.692l-.905 6.708c-.379 2.715-.962 5.401-1.187 8.143-.07.855-.238 1.713-.339 2.571-.04.322-.161.58-.51.664-.479.121-.627.473-.687.919l-.865 6.145c-.124.932-.194 1.871-.278 2.806-.03.359-.138.677-.456.858-.54.312-.5.892-.65 1.375-.067.221.117.422.265.597.215.255.147.5-.057.707-.181.184-.376.379-.603.5-1.16.62-2.347 1.187-3.641 1.475-.66.148-1.321.302-1.988.406-.737.121-1.468.349-2.233.191-.178-.037-.372.02-.56.037-1.311.1-2.612.275-3.902.526-.972.188-1.961.144-2.923.07-.898-.067-1.8-.074-2.702-.107-1.019-.04-2.021-.138-3.024-.322-.221-.04-.446-.097-.667-.094-1.187.02-2.31-.268-3.433-.61l-4.747-1.415c-.355-.107-.691-.295-1.036-.436-.607-.248-.989-.614-.939-1.351.027-.412-.141-.808-.577-1.022-.383-.188-.482-.56-.513-.945l-.361-4.606c-.06-.748-.071-1.499-.22-2.243-.116-.583-.06-1.2-.067-1.804-.004-.319-.055-.59-.404-.721-.368-.138-.473-.419-.459-.808.039-1.13-.08-2.253-.19-3.376-.151-1.535-.295-3.071-.294-4.616 0-.825-.068-1.649-.149-2.478-.081-.821-.099-1.653-.065-2.477.058-1.401-.149-2.779-.287-4.164-.071-.711-.146-1.415-.131-2.129.001-.037.006-.077.001-.114-.185-1.378-.246-2.769-.36-4.154-.043-.524-.086-1.047-.096-1.573l-.1-5.642c-.011-.602-.012-.625.672-.777.181-.04.262-.098.267-.266.003-.112-.012-.225-.022-.337l-.474-5.049c-.065-.749-.134-1.502-.113-2.252.019-.694-.186-1.171-.874-1.385-.509-.159-.617-.482-.627-1.024-.015-.821-.135-1.646-.128-2.473.002-.294-.127-.495-.339-.675-.181-.153-.316-.338-.149-.582.151-.22.315-.43.628-.401.037.004.074.015.111.022.18.035.422.156.525.083.166-.117.279-.351.344-.558.158-.502.333-1.01.396-1.528.086-.708.452-1.265.833-1.817.347-.503.781-.888 1.444-.994.474-.075.923-.292 1.366-.506 1.341-.646 2.786-.938 4.258-1.002 1.512-.065 2.99-.341 4.476-.556.637-.091 1.274-.174 1.908-.173 1.649 0 3.299-.118 4.955.08.922.11 1.874.066 2.809.15l4.268.373 3.148.231c1.462.103 2.92.244 4.388.272 1.09.021 2.159.228 3.191.635.583.23 1.187.506 1.854.388.975.294 1.897.698 2.695 1.34.164.134.325.36.355.564.107.698.56 1.221.848 1.827.144.305.325.596.443.911.151.389.339.566.815.578.734.019 1.019.431 1.009 1.192-.013.828-.057 1.655-.04 2.483.01.559-.228.933-.681 1.203-.228.135-.459.26-.694.378-.506.253-.821.641-.892 1.212-.261 2.121-.714 4.221-.691 6.374.003.523-.05 1.046-.084 1.694z" stroke="#d2b39f" stroke-width="2" mask="url(#A)"/><g fill="#fd8679" stroke="#d2b39f"><path d="M39.622 58.481l.02-.001.02.001.046.001.483.034c.196.027.326.148.377.202a.74.74 0 0 1 .173.292c.137.439-.168.803-.494.89h0l-.011.003a4.86 4.86 0 0 1-1.737.101h0-.002a.64.64 0 0 1-.396-.222.84.84 0 0 1-.146-.24h0l-.001-.002a.67.67 0 0 1 .061-.617.79.79 0 0 1 .347-.286h.001a1.91 1.91 0 0 1 .677-.141l.285-.006.294-.007zm-26.44 4.871c-.074-.332.119-.584.259-.703a.93.93 0 0 1 .583-.22c.293-.01.575.1.78.339h0l.004.005a.69.69 0 0 1 .162.534c-.024.185-.117.324-.204.416-.279.301-.66.275-.798.265l-.02-.001-.011-.001a.95.95 0 0 1-.426-.147c-.164-.11-.282-.277-.328-.487zm0 0l.488-.108-.488.108zm.866-4.33l-.059.017a.84.84 0 0 0-.353.193.7.7 0 0 0-.211.492v.004h0a.92.92 0 0 0 .247.618.78.78 0 0 0 .299.207.6.6 0 0 0 .567-.074c.118-.087.199-.203.248-.3s.101-.243.089-.411l-.829-.746zm0 0l.061-.002m-.061.002l.061-.002m.269.785c.003.037-.007.08-.024.122a.32.32 0 0 0 .05-.084.29.29 0 0 0 .014-.042l-.04.003zm0 0l-.006-.056.054.001a.25.25 0 0 1-.007.051l-.04.003zm-.269-.785c.26-.009.485.104.623.305m-.623-.305l.623.305m0 0a.89.89 0 0 1 .144.443l-.144-.443zm-.791.512c-.01-.033-.016-.067-.015-.099 0-.019.002-.036.006-.051a.2.2 0 0 0-.026.027l-.014.023a.27.27 0 0 0-.013.095c.007.02.015.038.029.059.023.034.062.072.116.099a.48.48 0 0 1-.083-.153zm.468-.166c-.001-.001-.025-.029-.082-.051a.36.36 0 0 1 .043.126l.054.001c.001-.043-.009-.065-.01-.067zm-.53.171h0 0zm21.713-37.074l-.129.483c-.482-.129-.824-.618-.792-1.109h0v-.002c.013-.185.101-.353.162-.456.072-.121.164-.244.261-.353a2.32 2.32 0 0 1 .322-.306c.097-.074.264-.188.464-.214l.065.496m-.352 1.461l-.13.483a1.47 1.47 0 0 0 .9-.044c.268-.103.541-.309.661-.636l-.469-.173m-.962.37c-.248-.066-.439-.337-.422-.594.017-.244.523-.834.774-.867m-.352 1.461c.406.109.848-.061.962-.37m0 0l.468.176c.108-.287.084-.609.011-.866s-.225-.549-.49-.732l-.284.411m.295 1.011c.117-.313-.023-.823-.295-1.011m0 0l.287-.41c-.18-.126-.436-.197-.669-.165l.068.495m.315.079c-.084-.059-.214-.093-.315-.079m-8.097-1.877l-.083.015-.082.015-.177.034.341-.064zm0 0l.083.012m-.083-.012l.083.012m0 0l.046.005.086.009a1.31 1.31 0 0 1 .252.053c.116.037.294.099.451.221a.93.93 0 0 1 .354.6c.039.231.006.458-.11.659a1.12 1.12 0 0 1-.43.409h-.001m-.649-1.957l.649 1.957m0 0a3.27 3.27 0 0 1-.483.222m.483-.222l-.244-.436a2.77 2.77 0 0 1-.409.188m0 0l.171.47m-.171-.47l.169.471m-.169-.471l.17.47m0 0c-.281.102-.591.124-.876.009-.295-.119-.501-.36-.595-.659h0v-.002c-.1-.32-.073-.658.098-.942s.456-.466.783-.534l.591 2.128zm-3.127-.244a1.15 1.15 0 0 1-.384.962c-.258.232-.604.352-.968.367h0c-.601.026-1.009-.492-1.085-.99-.068-.425.196-.78.415-.975.239-.214.586-.391.958-.398h0c.609-.011 1.02.512 1.064 1.035zm0 0l-.498.042.498-.041zm-3.954 2.44c.23-.187.417-.485.372-.853l-.496.06.497-.057a1.34 1.34 0 0 0-.403-.802c-.203-.196-.503-.359-.847-.337l.878 1.988zm0 0c-.227.184-.524.291-.834.33l.834-.33zm-.834.33c-.532.065-1.036-.29-1.107-.846-.046-.346.053-.686.224-.946.167-.253.455-.501.839-.526l.043 2.317z"/><path d="M30.942 20.943h0a.98.98 0 0 0 .358.794c.233.189.528.254.811.258l-1.169-1.052zm0 0v-.004m0 .004v-.004m0 0c.006-.336.167-.633.372-.838s.503-.37.847-.365m-1.218 1.203l2.311-.026m0 0v-.001c-.006-.306-.132-.587-.312-.793s-.45-.378-.78-.383m1.092 1.177c.005.292-.083.592-.324.809m.324-.809l-.324.809m-.768-1.986l-.008.5.008-.5zm.768 1.986c-.233.21-.533.277-.817.273l.817-.273zm-15.924 2.747l.003-.5c-.692-.004-1.171.559-1.176 1.211m1.174-.711l-.183 1.82c-.3-.025-.544-.198-.7-.375a1.12 1.12 0 0 1-.291-.734m1.174-.711l.002-.5c.547.002 1.092.408 1.085 1.033v.002m-1.087-.535l1.087.535m-2.26.177l.5.005-.5-.006zm2.26-.177c-.009.658-.504 1.35-1.269 1.286l1.269-1.286zm22.007-1.022h0a1.27 1.27 0 0 0-.274-.809c-.174-.218-.441-.396-.772-.409l1.046 1.218zm0 0v.002m0-.002v.002m0 0c-.015.639-.588 1.004-1.132.991h0m1.132-.991l-1.132.991m0 0c-.312-.008-.602-.133-.81-.331m.81.331l-.81-.331m0 0c-.207-.197-.362-.498-.317-.845m.317.845l-.317-.845m0 0c.039-.309.215-.567.415-.739s.483-.31.798-.297L37.841 23.8zm5.625-7.159h.022l.022.002a.74.74 0 0 1 .644.502h0l.003.009a.79.79 0 0 1-.032.586c-.085.179-.226.3-.364.375h0l-.001.001c-.352.188-.839.308-1.324.01-.161-.098-.234-.247-.264-.322-.035-.087-.06-.195-.056-.309.004-.138.041-.28.129-.409a.84.84 0 0 1 .312-.271c.207-.107.466-.15.722-.171h0a1.11 1.11 0 0 1 .107-.003h.025l.056.001zm-1.244 8.951l.003.129-.06.114h0l-.019.039-.002.004-.043.09a1.35 1.35 0 0 1-.171.269h0l-.009.011a.74.74 0 0 1-.399.236.66.66 0 0 1-.614-.195l-.047-.045-.001-.001-.069-.067a1.15 1.15 0 0 1-.175-.222h0l-.002-.004a1.01 1.01 0 0 1-.139-.617.95.95 0 0 1 .299-.585c.099-.096.219-.156.32-.191a.74.74 0 0 1 .451-.017.89.89 0 0 1 .55.459c.099.197.122.414.126.593zm2.682-4.589l-.032-.127.035-.126c.042-.155.114-.349.257-.505.168-.183.4-.276.659-.255h0 .001a.76.76 0 0 1 .393.142.74.74 0 0 1 .243.304c.085.194.081.395.072.507h0l-.001.01a.85.85 0 0 1-.195.477c-.158.183-.396.276-.657.238h-.001c-.348-.051-.679-.279-.774-.665z"/></g></svg>