<svg width="167" height="102" viewBox="0 0 167 102" fill="none" xmlns="http://www.w3.org/2000/svg">
<g id="Group 282">
<path id="path158" d="M150.27 65.3003C142.185 68.6387 133.14 67.6251 124.696 66.6134C124.484 66.5878 124.309 66.5084 124.166 66.3997C122.324 68.92 119.094 69.5729 115.955 70.0002C109.384 70.8942 102.851 70.8504 96.2558 70.2714C91.6334 69.8651 86.0395 70.1016 82.4481 66.7339C82.4371 66.7239 82.4307 66.712 82.4198 66.702C80.9441 67.3174 79.7415 67.8224 78.1554 66.9485C77.792 66.7476 77.5025 66.5129 77.2468 66.2609C73.397 67.0855 69.5106 67.5676 65.5631 67.5393C63.6756 67.5247 60.6823 67.8288 58.6122 66.9951C56.8106 73.3177 41.9573 73.0419 37.0373 73.0218C33.056 73.0063 22.9237 73.3277 16.4705 70.7399C15.8714 71.6594 15.2733 72.578 14.6752 73.4967C19.5697 74.1313 24.7911 73.9541 29.6801 74.0838C35.8986 74.2491 42.1454 73.4757 48.3704 73.4264C61.7333 73.3213 75.005 72.2329 88.3497 71.7617C101.785 71.2887 115.181 72.663 128.536 71.0412C134.515 70.3153 140.669 70.9298 146.542 69.5802C150.411 68.6917 154.138 67.5959 158.031 66.9458C156.715 65.6153 155.346 64.3807 153.924 63.1261C152.809 64.0438 151.5 64.7926 150.27 65.3003Z" fill="#F7B824"/>
<path id="path160" d="M22.1308 80.1244C25.3077 79.9107 28.5329 80.5325 31.6659 80.959C34.3168 81.3197 36.7439 81.7132 39.3619 80.9453C42.1772 80.1207 43.167 77.9291 44.3559 75.5248C35.3203 75.7148 26.009 76.6809 16.967 75.8271C15.8256 77.4132 14.8092 79.0377 13.886 80.7435C16.6447 81.0466 19.364 80.3106 22.1308 80.1244Z" fill="#9D4D32"/>
<path id="path162" d="M46.1013 76.67C47.7568 79.2871 49.7319 81.6795 51.5025 84.2181C51.9061 84.797 52.9024 86.984 53.6037 87.1821C53.905 87.268 54.5597 86.3037 55.4035 85.7531C58.2096 83.9222 61.4649 84.1706 64.6555 84.0163C67.341 83.8857 69.8221 83.2593 72.2766 82.4621C72.1816 82.4493 72.0885 82.4429 71.9936 82.4274C69.6112 82.0357 67.5255 80.928 65.3321 79.9929C60.5838 77.9685 55.5259 76.702 50.531 75.4528C50.4935 75.4436 50.4643 75.4281 50.4305 75.4172C49.1813 75.4446 47.9312 75.4665 46.6811 75.4829C46.4894 75.8482 46.2967 76.25 46.1013 76.67Z" fill="#9D4D32"/>
<path id="path164" d="M57.6876 75.1955C60.1906 75.9005 62.667 76.6903 65.0677 77.6637C67.1049 78.4892 69.06 79.648 71.2059 80.1649C73.8448 80.8004 76.4966 80.0662 79.1073 80.5447C82.506 81.1675 86.3194 82.8267 89.782 82.9198C91.3919 82.9637 92.5351 81.6597 93.9742 80.7073C95.6581 79.5923 97.4223 78.639 99.2422 77.7843C96.3101 76.2639 93.3104 74.9691 90.1555 73.9007C90.0715 73.8724 89.9966 73.8358 89.929 73.7948C88.8159 73.813 87.7028 73.8395 86.5924 73.8833C76.9377 74.2723 67.3241 74.8412 57.6876 75.1955Z" fill="#9D4D32"/>
<path id="path166" d="M138.556 72.6438C134.646 72.8447 130.699 72.8392 126.81 73.3141C116.48 74.5751 105.998 73.8966 95.553 73.7834C97.7801 74.7303 99.958 75.7796 102.09 76.9694C102.707 77.3136 102.814 78.4322 102.09 78.7436C101.251 79.1052 100.426 79.4897 99.611 79.8896C107.226 81.1753 114.792 80.0239 122.437 79.066C124.356 78.8249 126.279 78.5902 128.208 78.4295C129.82 78.2962 133.416 78.8578 134.795 78.1766C136.5 77.3337 137.475 74.6491 138.556 72.6438Z" fill="#9D4D32"/>
<path id="path168" d="M144.295 72.1149C143.224 72.2756 142.145 72.3843 141.063 72.4747C141.05 72.4957 141.042 72.5167 141.027 72.5377C139.453 74.7237 138.285 76.96 137.429 79.536C137.289 79.9561 136.906 80.3076 136.438 80.2903C135.758 80.2656 135.078 80.2629 134.397 80.2638C134.509 80.4227 134.622 80.5661 134.738 80.6692C136.187 81.9449 136.997 81.5322 138.662 81.5486C141.726 81.5778 144.502 80.7341 147.248 79.5214C151.004 77.8631 154.669 77.139 158.642 76.7482C157.122 74.4854 155.691 72.177 154.347 69.8C151.007 70.6146 147.716 71.6008 144.295 72.1149Z" fill="#9D4D32"/>
<path id="path170" d="M151.153 55.7608C151.017 56.1087 151.103 56.5498 150.981 56.9059C150.351 58.7486 148.501 59.9129 146.943 61.0352C145.319 62.2058 143.938 62.3519 142.015 61.825C140.751 61.478 139.225 60.805 138.153 60.0508C137.399 59.5221 136.213 57.8602 135.262 57.9853C133.779 58.1816 133.283 60.7402 131.167 60.827C128.809 60.9228 127.87 59.1788 126.242 57.9606C124.951 56.9945 123.59 56.9178 122.249 57.3031C124.688 58.9057 126.2 61.5831 125.112 64.6092C129.752 65.1644 134.442 65.7068 139.122 65.4895C141.903 65.3607 144.718 65.0046 147.377 64.1527C149.876 63.3518 157.052 60.2197 153.874 56.5434C153.847 56.5115 153.829 56.4795 153.807 56.4475C153.243 56.1115 152.874 55.5189 152.317 55.2038C150.478 54.1628 151.759 54.2039 151.153 55.7608Z" fill="#CA543F"/>
<path id="path172" d="M112.545 65.2587C110.376 66.0056 108.014 65.3427 106.158 64.1492C104.791 63.2699 103.701 62.0051 102.622 60.8089C100.759 58.7434 100.839 59.5369 98.8652 60.5295C96.2025 61.8682 94.0821 60.5396 91.2212 61.0993C88.1677 61.6974 86.6765 64.1456 84.3918 65.6961C87.3577 68.0118 91.8504 67.8182 95.4235 68.1433C98.6844 68.4392 101.955 68.6839 105.232 68.6903C108.42 68.6967 111.592 68.4693 114.756 68.0885C116.006 67.9387 118.201 67.8201 119.448 67.2585C123.155 65.5901 124.941 60.7541 120.088 58.4457C120.037 58.4211 119.996 58.3927 119.953 58.3644C119.165 58.8484 118.403 59.4155 117.689 59.9761C115.557 61.6517 115.284 64.3154 112.545 65.2587Z" fill="#CA543F"/>
<path id="path174" d="M70.5259 62.0061C68.2467 62.5576 67.0304 59.9762 64.8863 60.3177C64.4589 60.3862 63.4599 61.4893 62.8929 61.6618C62.103 61.9011 61.3077 61.7669 60.516 61.6436C59.7891 61.5295 57.8633 60.6766 57.2633 61.0637C57.2597 61.0665 57.2606 61.0738 57.257 61.0756C57.2661 61.0902 57.278 61.1012 57.2871 61.1167C58.0678 62.4289 58.5071 63.5895 58.6897 64.6296C60.2831 66.0742 65.8935 65.5263 67.6997 65.4605C70.5487 65.3564 73.3576 64.9665 76.1418 64.3976C75.5327 62.5056 75.6724 60.2629 74.1027 58.8037C73.3009 60.2173 72.0591 61.6335 70.5259 62.0061Z" fill="#CA543F"/>
<path id="path176" d="M35.2308 70.9495C39.8668 71.0271 59.799 72.2114 56.1081 63.3493C55.9894 63.5365 55.8716 63.7073 55.7574 63.8333C53.9914 65.7765 50.2438 68.83 47.614 66.4431C46.689 65.6039 46.9812 64.2424 46.2361 63.4023C46.11 63.2598 43.745 62.1787 43.6993 62.1613C42.3543 61.6546 41.5288 61.9732 40.3189 62.6407C37.4844 64.2031 33.4273 67.2731 30.3665 64.5748C30.0049 64.2561 29.8085 63.7328 29.4497 63.4315C28.5027 62.638 27.9475 62.7174 26.7294 62.312C26.334 62.1796 26.0765 62.3166 25.6564 62.0627C24.6337 61.4427 25.2848 61.0108 24.0603 59.9159C23.1033 59.0594 21.7482 59.2712 20.6232 59.0493C17.3587 58.4056 16.6017 59.1799 14.2814 60.9761C13.8495 61.3103 13.5545 61.8491 13.0861 62.1632C10.5886 71.4627 30.1455 70.8645 35.2308 70.9495Z" fill="#CA543F"/>
<path id="path178" d="M160.592 53.6551C161.4 53.3876 164.707 52.3128 164.391 51.2389C164.197 50.5805 162.41 49.7569 161.826 49.3085C160.862 48.5671 159.821 47.8804 159.357 46.7234C158.523 44.6405 159.695 43.731 157.902 42.7841C157.805 44.078 157.722 45.3427 157.689 46.5499C157.672 47.1617 157.275 47.6959 156.684 47.8703C145.667 51.1111 134.308 50.4344 122.966 50.4262C110.835 50.4171 98.7153 51.1558 86.617 51.964C62.1812 53.5949 37.6769 55.5188 13.2347 52.9337C12.8018 52.888 12.4768 52.6835 12.2576 52.405C12.0531 52.195 11.9051 51.9174 11.8649 51.564C11.7946 50.9394 11.7316 50.3276 11.6677 49.714C11.2979 49.8628 10.9619 49.8847 10.2779 50.0746C9.82956 50.0472 9.38301 50.0025 8.93831 49.9386C6.46459 49.588 5.59072 50.1303 6.31575 51.564C5.74504 52.5986 6.11852 53.4003 5.03918 54.4569C3.97627 55.4988 3.24758 55.0084 3.70871 56.7224C4.24565 58.7167 5.60076 57.4218 7.34396 57.756C9.00041 58.0729 8.94654 58.85 10.0962 59.6326C10.3692 61.2279 11.3956 61.0087 13.1753 58.9742C13.4684 58.5943 13.7606 58.2145 14.0538 57.8346C14.9359 57.2319 14.9404 57.0109 15.8527 56.6968C17.7073 56.0576 20.7681 56.5827 22.6017 57.0493C24.2646 57.473 24.8307 58.2245 26.1466 59.2536C27.4433 60.2681 28.0943 59.8399 29.5398 60.6297C30.264 61.0251 30.5434 61.8387 31.1616 62.2798C33.1175 63.6741 35.1456 63.3957 37.1883 62.3319C38.7818 61.5027 40.1396 59.7312 42.018 59.502C43.5511 59.3157 46.476 60.7201 47.4704 61.6031C48.2 62.2515 48.0739 63.402 48.6017 63.918C52.689 67.913 54.3391 60.5046 55.7316 59.4728C57.0374 58.5058 57.7332 59.0135 59.2664 59.2089C60.6379 59.8052 62.0269 59.6901 63.4331 58.8655C63.6769 58.5395 63.9609 58.2592 64.2869 58.0245C64.6832 57.9633 65.0503 57.6793 65.4712 57.672C66.3935 57.6556 66.7314 58.3633 67.4902 58.6482C70.741 59.8672 71.6916 59.4527 72.8385 56.7498C73.0623 56.2229 73.8028 56.1452 74.2448 56.3808C75.7478 57.1844 77.0353 57.7369 77.6773 59.3285C78.4909 61.3438 77.3997 61.741 79.6743 63.6157C81.5134 65.1297 82.1289 65.1142 84.0629 63.3801C84.7304 62.7829 85.2244 62.0013 85.9221 61.3949C87.8032 59.7613 89.8368 58.3094 92.4164 58.4555C94.6116 58.5806 95.9302 59.3486 98.1994 58.1743C99.1162 57.6985 98.7801 57.0046 100.041 56.737C100.998 56.5334 101.662 57.021 102.393 57.5433C103.754 58.5158 104.613 60.1896 105.897 61.2799C106.535 61.8205 108.313 63.3272 109.148 63.3308C109.43 63.3327 113.955 60.9603 114.081 60.8416C115.355 59.6353 116.059 58.7212 117.616 57.6702C120.094 55.9982 122.453 51.7439 125.905 54.2523C126.542 54.7143 126.928 55.4403 127.402 56.0439C128.896 57.9423 131.186 58.4455 133.212 57.1753C134.186 56.5653 134.51 55.4001 135.909 55.5581C137.749 55.7654 139.33 58.4719 141.084 59.2518C143.627 60.3813 147.597 59.018 149 56.3589C150.188 54.108 148.947 51.1923 152.51 52.6671C154.058 53.3081 154.945 54.5737 156.988 54.55C158.132 54.5363 159.514 54.0113 160.592 53.6551Z" fill="#A7C339"/>
<path id="path180" d="M141.905 83.2466C139.988 83.4986 137.268 84.4839 135.393 83.9689C133.455 83.4374 133.34 81.7454 132.06 80.4569C132.015 80.4104 131.979 80.3629 131.944 80.3145C120.228 80.7793 108.612 84.1533 96.9381 81.4541C96.8851 81.4422 96.8395 81.423 96.7938 81.4048C95.7346 82.0212 94.6936 82.6695 93.69 83.3927C92.3331 84.3697 91.6537 85.7066 90.0493 85.4272C88.4166 85.1423 87.0131 84.241 85.2105 84.0565C83.3514 83.8675 81.9095 83.4657 80.1015 82.99C79.3646 82.7973 78.6332 82.7042 77.9045 82.6567C73.4794 84.2337 69.3994 85.8564 64.6556 86.0709C60.7564 86.2472 58.6279 86.6188 55.2347 88.5867C54.642 88.9291 54.3024 89.5163 53.5253 89.4834C52.1464 89.4259 51.31 87.5375 50.6014 86.5239C48.7915 83.9387 46.8246 81.4486 45.0677 78.8242C44.3874 80.1474 43.5948 81.3865 42.5492 82.0668C40.3741 83.4804 36.8557 83.6119 34.3208 83.3909C30.0647 83.0201 25.8925 81.8559 21.5934 82.2394C19.2174 82.4512 16.8971 82.9124 14.5549 82.8302C14.6626 86.0326 14.249 90.5162 15.3046 93.4775C17.2176 98.8441 22.8654 97.6889 27.3654 97.8816C33.8972 98.1619 40.4325 98.3409 46.9688 98.4213C60.0415 98.5838 73.1214 98.3455 86.1794 97.7081C99.5351 97.0561 112.871 95.9905 126.161 94.5084C132.67 93.7825 139.18 92.7095 145.726 92.3835C149.647 92.1881 154.504 93.4638 155.943 88.793C156.925 85.5998 157.145 82.307 156.941 78.9959C153.968 79.3812 151.168 80.0241 148.283 81.2961C146.117 82.2494 144.31 82.9316 141.905 83.2466Z" fill="#DCA45D"/>
<path id="path182" d="M84.8434 49.3431C96.9727 48.5258 109.121 47.7533 121.283 47.6903C132.592 47.6309 143.958 48.4948 154.975 45.4942C155.058 42.4205 155.133 39.3487 155.208 36.275C155.261 34.1547 155.51 32.1248 155.179 30.3515C149.559 32.1321 143.572 32.1905 137.746 32.7512C132.312 33.2744 126.882 33.8324 121.427 34.0917C111.679 34.5556 101.854 34.4341 92.0901 34.7026C81.2849 34.9994 70.4431 35.024 59.6588 35.7792C44.6631 36.8302 29.6492 39.0629 14.5895 38.1917C14.101 39.5067 13.8965 40.9513 13.8709 42.5538C13.8298 45.1727 14.1503 47.7259 14.4571 50.3101C37.8994 52.6468 61.4047 50.9228 84.8434 49.3431Z" fill="#DCA45D"/>
<path id="path184" d="M16.1894 35.534C30.1541 36.1412 44.0833 34.2053 57.9878 33.1625C68.762 32.3544 79.5882 32.2868 90.3871 32.0065C100.34 31.7499 110.332 31.7773 120.274 31.4038C125.51 31.2075 130.738 30.7125 135.95 30.1966C141.979 29.6003 148.247 29.5857 154.079 27.8206C153.528 27.1166 152.752 26.4892 151.657 25.9633C144.74 22.6458 137.614 19.7283 130.468 16.9496C123.446 14.2202 116.353 11.6744 109.204 9.302C102.399 7.04379 95.1867 4.18108 88.065 3.17022C79.4038 1.94113 69.8185 7.17069 62.1526 10.6726C55.3707 13.77 48.754 17.2117 42.2004 20.7638C35.5454 24.3717 28.9515 28.0909 22.2846 31.6778C20.8318 32.4594 19.1407 33.1004 17.8121 34.0592C17.171 34.5213 16.6478 35.0171 16.1894 35.534Z" fill="#FDDCAC"/>
<path id="path186" d="M14.4575 50.3102C14.1506 47.726 13.8301 45.1729 13.8712 42.554C13.8968 40.9514 14.1013 39.5068 14.5899 38.1918C29.6495 39.063 44.6635 36.8304 59.6591 35.7793C70.4434 35.0241 81.2852 34.9995 92.0904 34.7027C101.855 34.4342 111.679 34.5557 121.427 34.0918C126.882 33.8325 132.313 33.2745 137.746 32.7513C143.572 32.1906 149.559 32.1322 155.18 30.3516C155.51 32.1249 155.261 34.1548 155.208 36.2752C155.133 39.3488 155.058 42.4207 154.975 45.4943C143.958 48.4949 132.592 47.6311 121.284 47.6904C109.122 47.7534 96.9731 48.5259 84.8437 49.3432C61.4051 50.923 37.8998 52.647 14.4575 50.3102ZM22.2831 31.6775C28.95 28.0906 35.5438 24.3714 42.1988 20.7635C48.7525 17.2114 55.3692 13.7697 62.1511 10.6723C69.817 7.17041 79.4023 1.94085 88.0635 3.16994C95.1851 4.1808 102.397 7.0435 109.203 9.30172C116.352 11.6741 123.444 14.2199 130.466 16.9493C137.613 19.728 144.739 22.6455 151.655 25.963C152.751 26.489 153.526 27.1163 154.078 27.8203C148.245 29.5854 141.977 29.6 135.949 30.1963C130.737 30.7123 125.509 31.2072 120.273 31.4035C110.331 31.777 100.339 31.7496 90.3856 32.0062C79.5867 32.2866 68.7605 32.3541 57.9862 33.1622C44.0817 34.205 30.1526 36.1409 16.1879 35.5337C16.6463 35.0168 17.1695 34.521 17.8105 34.059C19.1392 33.1002 20.8303 32.4591 22.2831 31.6775ZM152.51 52.6671C148.948 51.1923 150.188 54.108 149 56.3589C147.597 59.018 143.627 60.3813 141.084 59.2517C139.33 58.4719 137.749 55.7654 135.909 55.5581C134.51 55.4001 134.187 56.5653 133.212 57.1753C131.186 58.4455 128.896 57.9423 127.402 56.0439C126.928 55.4403 126.542 54.7143 125.905 54.2523C122.453 51.7439 120.094 55.9982 117.617 57.6702C116.059 58.7212 115.355 59.6353 114.081 60.8415C113.955 60.9603 109.43 63.3326 109.148 63.3308C108.313 63.3272 106.536 61.8205 105.897 61.2799C104.613 60.1896 103.754 58.5158 102.393 57.5433C101.662 57.0209 100.998 56.5333 100.041 56.737C98.7802 57.0045 99.1162 57.6985 98.1994 58.1742C95.9303 59.3486 94.6117 58.5806 92.4165 58.4555C89.8368 58.3094 87.8032 59.7613 85.9221 61.3949C85.2245 62.0012 84.7305 62.7829 84.063 63.3801C82.129 65.1142 81.5135 65.1297 79.6744 63.6157C77.3998 61.741 78.491 61.3438 77.6773 59.3285C77.0354 57.7369 75.7479 57.1844 74.2448 56.3808C73.8029 56.1452 73.0623 56.2228 72.8386 56.7497C71.6917 59.4526 70.7411 59.8672 67.4903 58.6482C66.7315 58.3633 66.3936 57.6556 65.4713 57.672C65.0504 57.6793 64.6833 57.9633 64.2869 58.0245C63.961 58.2592 63.677 58.5395 63.4332 58.8655C62.0269 59.6901 60.638 59.8051 59.2665 59.2089C57.7333 59.0134 57.0375 58.5057 55.7317 59.4728C54.3391 60.5046 52.6891 67.913 48.6018 63.9179C48.074 63.402 48.2001 62.2514 47.4705 61.6031C46.4761 60.7201 43.5512 59.3157 42.018 59.502C40.1397 59.7312 38.7819 61.5027 37.1884 62.3318C35.1457 63.3956 33.1176 63.6741 31.1617 62.2798C30.5435 61.8387 30.264 61.0251 29.5399 60.6297C28.0944 59.8398 27.4433 60.2681 26.1467 59.2536C24.8308 58.2245 24.2647 57.473 22.6018 57.0493C20.7682 56.5826 17.7073 56.0576 15.8527 56.6968C14.9405 57.0109 14.9359 57.2319 14.0538 57.8346C13.7607 58.2145 13.4685 58.5943 13.1754 58.9742C11.3957 61.0087 10.3693 61.2278 10.0963 59.6326C8.94662 58.85 9.00049 58.0729 7.34404 57.756C5.60084 57.4218 4.24573 58.7167 3.7088 56.7224C3.24766 55.0084 3.97635 55.4987 5.03926 54.4568C6.1186 53.4003 5.74512 52.5986 6.31583 51.564C5.5908 50.1303 6.46467 49.5879 8.93839 49.9386C9.38309 50.0025 9.82964 50.0472 10.278 50.0746C10.9619 49.8847 11.298 49.8628 11.6678 49.714C11.7317 50.3276 11.7947 50.9394 11.865 51.564C11.9052 51.9174 12.0531 52.1949 12.2577 52.405C12.4768 52.6835 12.8019 52.888 13.2347 52.9337C37.677 55.5188 62.1812 53.5948 86.617 51.964C98.7153 51.1558 110.836 50.4171 122.966 50.4262C134.308 50.4344 145.668 51.1111 156.684 47.8703C157.275 47.6959 157.672 47.1617 157.689 46.5499C157.722 45.3427 157.805 44.078 157.902 42.7841C159.695 43.731 158.523 44.6405 159.357 46.7234C159.821 47.8804 160.862 48.567 161.826 49.3085C162.41 49.7569 164.197 50.5805 164.391 51.2389C164.707 52.3127 161.4 53.3876 160.592 53.6551C159.514 54.0112 158.132 54.5363 156.988 54.55C154.945 54.5737 154.058 53.3081 152.51 52.6671ZM13.0859 62.1629C13.5544 61.8488 13.8493 61.31 14.2812 60.9758C16.6015 59.1796 17.3585 58.4053 20.623 59.049C21.748 59.2709 23.1031 59.0591 24.0601 59.9156C25.2846 61.0105 24.6336 61.4424 25.6563 62.0624C26.0763 62.3163 26.3338 62.1793 26.7292 62.3117C27.9474 62.7172 28.5026 62.6377 29.4495 63.4312C29.8084 63.7326 30.0047 64.2558 30.3663 64.5745C33.4272 67.2728 37.4843 64.2029 40.3187 62.6405C41.5286 61.973 42.3541 61.6543 43.6992 62.1611C43.7448 62.1784 46.1099 63.2596 46.2359 63.402C46.981 64.2421 46.6888 65.6036 47.6138 66.4428C50.2437 68.8297 53.9912 65.7762 55.7573 63.833C55.8714 63.707 55.9892 63.5362 56.1079 63.349C59.7988 72.2111 39.8667 71.0268 35.2306 70.9492C30.1453 70.8643 10.5885 71.4624 13.0859 62.1629ZM76.1414 64.3973C73.3573 64.9662 70.5484 65.3562 67.6994 65.4603C65.8932 65.526 60.2828 66.0739 58.6894 64.6293C58.5067 63.5892 58.0675 62.4286 57.2868 61.1164C57.2777 61.1009 57.2658 61.0899 57.2567 61.0753C57.2603 61.0735 57.2594 61.0662 57.263 61.0635C57.863 60.6763 59.7888 61.5292 60.5157 61.6433C61.3074 61.7666 62.1027 61.9008 62.8926 61.6616C63.4596 61.489 64.4586 60.3859 64.886 60.3174C67.03 59.9759 68.2464 62.5574 70.5256 62.0058C72.0588 61.6332 73.3006 60.217 74.1024 58.8034C75.6721 60.2626 75.5324 62.5053 76.1414 64.3973ZM119.953 58.3642C119.996 58.3925 120.037 58.4208 120.088 58.4455C124.941 60.7539 123.155 65.5899 119.447 67.2582C118.201 67.8198 116.006 67.9385 114.756 68.0883C111.592 68.4691 108.42 68.6965 105.232 68.6901C101.955 68.6837 98.6843 68.4389 95.4234 68.1431C91.8503 67.818 87.3576 68.0116 84.3917 65.6959C86.6764 64.1453 88.1676 61.6972 91.2211 61.0991C94.082 60.5393 96.2024 61.8679 98.8651 60.5293C100.839 59.5367 100.759 58.7431 102.622 60.8087C103.701 62.0049 104.791 63.2696 106.157 64.149C108.014 65.3425 110.376 66.0054 112.545 65.2584C115.283 64.3152 115.556 61.6515 117.689 59.9759C118.403 59.4152 119.165 58.8482 119.953 58.3642ZM153.874 56.5434C157.052 60.2197 149.875 63.3518 147.377 64.1526C144.718 65.0046 141.903 65.3607 139.122 65.4895C134.442 65.7068 129.752 65.1644 125.112 64.6092C126.2 61.583 124.688 58.9057 122.249 57.3031C123.589 56.9178 124.951 56.9945 126.242 57.9606C127.869 59.1787 128.809 60.9228 131.167 60.8269C133.283 60.7402 133.778 58.1816 135.262 57.9852C136.213 57.8601 137.399 59.522 138.152 60.0507C139.225 60.805 140.751 61.478 142.015 61.825C143.938 62.3519 145.319 62.2058 146.943 61.0351C148.501 59.9129 150.351 58.7486 150.981 56.9059C151.103 56.5497 151.017 56.1087 151.153 55.7608C151.759 54.2039 150.478 54.1628 152.317 55.2038C152.874 55.5188 153.243 56.1114 153.806 56.4475C153.829 56.4794 153.847 56.5114 153.874 56.5434ZM158.03 66.9459C154.137 67.5961 150.409 68.6919 146.54 69.5804C140.668 70.93 134.513 70.3155 128.534 71.0414C115.179 72.6632 101.784 71.2889 88.3484 71.7619C75.0036 72.2331 61.732 73.3215 48.369 73.4265C42.1441 73.4759 35.8972 74.2493 29.6787 74.084C24.7897 73.9543 19.5683 74.1315 14.6739 73.4969C15.272 72.5782 15.8701 71.6596 16.4691 70.7401C22.9223 73.3279 33.0546 73.0065 37.0359 73.022C41.956 73.0421 56.8092 73.3179 58.6109 66.9953C60.681 67.829 63.6742 67.5249 65.5617 67.5395C69.5092 67.5678 73.3956 67.0857 77.2454 66.2611C77.5011 66.5131 77.7906 66.7478 78.154 66.9487C79.7402 67.8225 80.9427 67.3176 82.4184 66.7021C82.4294 66.7122 82.4358 66.7241 82.4467 66.7341C86.0381 70.1018 91.632 69.8653 96.2544 70.2716C102.849 70.8506 109.383 70.8944 115.954 70.0004C119.092 69.5731 122.323 68.9202 124.165 66.3999C124.308 66.5085 124.483 66.588 124.694 66.6135C133.138 67.6253 142.184 68.6389 150.269 65.3004C151.499 64.7927 152.807 64.044 153.922 63.1262C155.345 64.3809 156.714 65.6155 158.03 66.9459ZM147.246 79.5218C144.501 80.7345 141.725 81.5782 138.66 81.549C136.995 81.5325 136.185 81.9453 134.736 80.6696C134.62 80.5664 134.507 80.4231 134.396 80.2642C135.076 80.2633 135.756 80.266 136.437 80.2907C136.904 80.308 137.288 79.9564 137.427 79.5364C138.283 76.9604 139.451 74.7241 141.025 72.5381C141.041 72.5171 141.048 72.4961 141.062 72.4751C142.144 72.3847 143.222 72.276 144.293 72.1153C147.714 71.6012 151.005 70.615 154.345 69.8004C155.689 72.1774 157.12 74.4858 158.641 76.7486C154.667 77.1394 151.002 77.8635 147.246 79.5218ZM44.3548 75.525C43.1659 77.9293 42.176 80.1208 39.3608 80.9454C36.7428 81.7134 34.3157 81.3198 31.6648 80.9591C28.5318 80.5327 25.3065 79.9108 22.1297 80.1245C19.3629 80.3108 16.6435 81.0468 13.8849 80.7436C14.8081 79.0378 15.8244 77.4133 16.9659 75.8272C26.0079 76.681 35.3192 75.7149 44.3548 75.525ZM50.4309 75.4172C50.4647 75.4282 50.4939 75.4437 50.5313 75.4528C55.5263 76.702 60.5842 77.9685 65.3325 79.993C67.5259 80.928 69.6115 82.0357 71.9939 82.4274C72.0889 82.443 72.182 82.4493 72.277 82.4621C69.8224 83.2593 67.3414 83.8857 64.6559 84.0163C61.4653 84.1706 58.21 83.9223 55.4039 85.7531C54.5601 86.3037 53.9054 87.268 53.6041 87.1822C52.9028 86.984 51.9065 84.797 51.5029 84.2181C49.7323 81.6796 47.7572 79.2871 46.1016 76.67C46.2971 76.25 46.4897 75.8482 46.6815 75.483C47.9316 75.4665 49.1817 75.4446 50.4309 75.4172ZM89.9281 73.7945C89.9957 73.8356 90.0706 73.8722 90.1546 73.9005C93.3095 74.9688 96.3092 76.2637 99.2413 77.7841C97.4214 78.6388 95.6572 79.5921 93.9734 80.7071C92.5342 81.6595 91.391 82.9634 89.7811 82.9196C86.3185 82.8265 82.5051 81.1673 79.1064 80.5445C76.4957 80.066 73.844 80.8002 71.205 80.1647C69.0591 79.6478 67.104 78.489 65.0668 77.6635C62.6661 76.6901 60.1897 75.9003 57.6867 75.1953C67.3232 74.841 76.9368 74.2721 86.5915 73.8831C87.7019 73.8393 88.815 73.8128 89.9281 73.7945ZM128.208 78.4297C126.28 78.5904 124.356 78.8251 122.437 79.0661C114.792 80.024 107.226 81.1755 99.6111 79.8898C100.427 79.4898 101.251 79.1054 102.09 78.7438C102.814 78.4324 102.707 77.3138 102.09 76.9696C99.9581 75.7797 97.7803 74.7305 95.5531 73.7836C105.998 73.8968 116.481 74.5753 126.81 73.3142C130.699 72.8394 134.646 72.8449 138.556 72.644C137.475 74.6492 136.5 77.3339 134.795 78.1767C133.416 78.8579 129.82 78.2964 128.208 78.4297ZM155.943 88.793C154.504 93.4637 149.647 92.1881 145.726 92.3835C139.181 92.7095 132.671 93.7824 126.161 94.5084C112.871 95.9904 99.5353 97.056 86.1796 97.708C73.1216 98.3454 60.0417 98.5837 46.9691 98.4212C40.4328 98.3408 33.8974 98.1619 27.3657 97.8815C22.8657 97.6889 17.2179 98.844 15.3048 93.4774C14.2492 90.5161 14.6629 86.0325 14.5552 82.8301C16.8974 82.9123 19.2177 82.4512 21.5937 82.2393C25.8928 81.8558 30.065 83.0201 34.3211 83.3908C36.856 83.6118 40.3744 83.4803 42.5495 82.0667C43.5951 81.3865 44.3877 80.1473 45.068 78.8242C46.8249 81.4485 48.7918 83.9387 50.6017 86.5238C51.3103 87.5374 52.1467 89.4258 53.5256 89.4833C54.3026 89.5162 54.6423 88.929 55.2349 88.5866C58.6282 86.6188 60.7567 86.2471 64.6559 86.0709C69.3997 85.8563 73.4796 84.2336 77.9047 82.6566C78.6334 82.7041 79.3649 82.7973 80.1018 82.9899C81.9098 83.4657 83.3516 83.8675 85.2108 84.0565C87.0134 84.2409 88.4169 85.1422 90.0496 85.4271C91.654 85.7065 92.3333 84.3697 93.6903 83.3926C94.6938 82.6694 95.7348 82.0211 96.7941 81.4047C96.8397 81.423 96.8854 81.4421 96.9384 81.454C108.612 84.1533 120.228 80.7792 131.945 80.3144C131.979 80.3628 132.015 80.4103 132.061 80.4569C133.34 81.7453 133.455 83.4374 135.393 83.9688C137.268 84.4838 139.989 83.4986 141.905 83.2465C144.311 82.9315 146.117 82.2494 148.283 81.296C151.168 80.024 153.968 79.3812 156.941 78.9958C157.145 82.3069 156.926 85.5997 155.943 88.793ZM164.918 49.0327C163.945 48.2356 162.122 47.5114 161.515 46.402C160.936 45.3436 161.592 43.9912 161.191 42.9192C160.649 41.4673 159.44 41.0829 158.072 40.5998C158.392 36.5117 158.681 32.2592 157.954 28.5911C156.992 23.7368 150.045 22.1835 146.165 20.4823C133.599 14.9742 120.719 10.1683 107.677 5.91759C101.478 3.89771 95.0765 1.46052 88.615 0.457878C81.8678 -0.5895 75.557 2.08514 69.4216 4.57529C56.6183 9.77019 44.4845 16.3485 32.4044 23.0135C28.8203 24.9914 25.2372 26.9711 21.6348 28.9152C18.8999 30.3918 15.5149 31.6154 13.2603 33.8106C11.0788 35.9346 11.3208 38.1517 11.2386 41.0025C11.1756 43.2032 11.2815 45.3126 11.4578 47.4347C9.79767 48.6711 6.92216 46.9462 5.10592 48.1789C3.63849 49.1761 4.39093 49.9203 4.08777 51.2709C3.53349 53.7409 -1.50069 55.4586 0.713692 58.5222C1.4433 59.533 2.84406 59.8006 3.99736 59.8892C6.08938 60.049 6.49299 59.6006 8.50922 61.2625C8.81512 61.5145 8.7092 62.0013 9.1265 62.2295C9.76845 62.5811 10.3136 62.7957 10.8533 62.8514C10.4031 66.1168 11.9865 68.3358 14.6036 69.8443C13.7525 71.1501 12.9024 72.4559 12.0522 73.7626C11.7171 74.2776 12.023 75.1633 12.6659 75.2711C13.3252 75.3825 13.9881 75.4802 14.651 75.5679C13.4521 77.3074 12.3855 79.0935 11.4304 80.9956C11.1793 81.4978 11.3199 82.1581 11.8221 82.4201C11.8166 82.4831 11.8084 82.5434 11.8111 82.6119C11.9938 86.9658 10.8651 96.0644 15.1788 99.0385C17.1056 100.367 19.7957 100.247 22.0238 100.37C26.1768 100.6 30.3353 100.755 34.4928 100.887C51.4216 101.424 68.3715 101.29 85.2903 100.489C101.918 99.7024 118.499 98.2404 135.018 96.1977C139.171 95.6845 143.327 95.1494 147.515 95.0554C150.137 94.996 153.488 95.8735 155.803 94.334C159.97 91.5626 159.965 83.0265 159.665 78.7118C159.933 78.6899 160.197 78.6653 160.468 78.6443C161.178 78.5922 161.835 77.7896 161.355 77.0983C159.599 74.5735 157.971 71.9874 156.443 69.3229C157.658 69.0644 158.884 68.8426 160.131 68.6955C161.007 68.5914 161.496 67.6454 160.858 66.9414C159.122 65.0302 157.295 63.3673 155.371 61.6698C156.515 60.2462 157.073 58.5788 156.392 56.8219C158.058 56.6776 159.858 56.0585 161.138 55.6357C164.873 54.4021 168.972 52.3493 164.918 49.0327Z" fill="#4C3F3A"/>
</g>
</svg>
